<svg xmlns="http://www.w3.org/2000/svg" width="18.198" height="93.536" viewBox="0 0 1.398 7.185" shape-rendering="geometricPrecision" image-rendering="optimizeQuality" fill-rule="evenodd" xmlns:v="https://vecta.io/nano"><style><![CDATA[.K{stroke-width:.052}.L{stroke-linejoin:round}.M{stroke:#018ec0}.N{stroke-linecap:round}]]></style><path d="M1.046 4.465c0 .009-.007.016-.016.016s-.016-.007-.016-.016.007-.016.016-.016.016.007.016.016zm-.544 0c0 .009-.007.016-.016.016S.47 4.474.47 4.465s.007-.016.016-.016.016.007.016.016z" stroke="#444344" fill="none" class="K L"/><path d="M1.191 5.096H.325v-.718h.866z" fill="none" class="K L M"/><path d="M1.029 4.466v-.361c0-.133-.145-.238-.272-.238s-.272.106-.272.237v.362" stroke="#1a9dcc" fill="none" class="K L N"/><path d="M.376 5.933c-.013.002-.019.018-.009.027l.083.083c.039.039.039.103 0 .142l-.051.051c-.039.039-.103.039-.142 0l-.083-.083c-.009-.009-.025-.004-.027.009-.012.083.013.17.077.233s.147.088.229.078c.036-.005.072.007.097.033l.618.618a.12.12 0 0 0 .17-.17l-.618-.618c-.025-.025-.038-.061-.033-.097.011-.081-.015-.166-.078-.229s-.151-.089-.233-.077z" fill="none" class="K L M"/><circle cx="1.247" cy="7.031" r=".061" fill="#4daed1"/><g fill="none" class="K L N"><path d="M.954 2.641c.009 0 .018.004.024.011l.128.147v-.127c0-.018.014-.032.032-.032h.065c.029 0 .053-.024.053-.053v-.463c0-.029-.024-.053-.053-.053H.419c-.029 0-.053.024-.053.053v.141m0 0v.322c0 .029.024.053.053.053h.535" class="M"/><path d="M.292 2.305H.079c-.029 0-.053.024-.053.053v.463c0 .029.024.053.053.053h.065c.018 0 .032.014.032.032v.127l.128-.147c.006-.007.015-.011.024-.011h.535c.029 0 .053-.024.053-.053v-.103c0 0 0 .03 0 .03" stroke="#077da8"/></g><path d="M.872 2.357c0 .035-.028.063-.063.063s-.063-.028-.063-.063.028-.063.063-.063.063.028.063.063zm-.184 0c0 .035-.028.063-.063.063s-.063-.028-.063-.063.028-.063.063-.063.063.028.063.063zm.37 0c0 .035-.029.064-.064.064S.93 2.393.93 2.357s.029-.064.064-.064.064.029.064.064z" fill="#46a6dd"/><g fill-rule="nonzero"><path d="M1.353.172L1.221.04.262.999l.132.132.959-.959zM1.221.024l.148.148-.974.974-.148-.145.974-.977z" fill="#231f20"/><path d="M1.319.172L1.221.074.296.999l.098.098.925-.925zM1.238.007h0l.148.148c.009.009.009.024 0 .034h0l-.973.973-.019.008h0c-.007 0-.014-.003-.019-.008l-.145-.145L.223.999h0 0V.997l.981-.99c.009-.009.024-.009.034 0z" fill="#018ec0"/><path d="M.247.999l-.067.222.21-.086-.217.101H.166h0L.247.999zM1.274.258L1.125.126l.148.132z" fill="#231f20" class="K L M"/></g></svg>