<?xml version="1.0" standalone="no"?>
<!DOCTYPE svg PUBLIC "-//W3C//DTD SVG 1.1//EN" "http://www.w3.org/Graphics/SVG/1.1/DTD/svg11.dtd" >
<svg xmlns="http://www.w3.org/2000/svg" xmlns:xlink="http://www.w3.org/1999/xlink" version="1.1">
<metadata>
Created by FontForge 20200511 at Mon Nov 22 02:30:02 2021
 By convertio
\(c\) 2021 Zoho Corporation Pvt. Ltd. All rights reserved.
</metadata>
<defs>
<font id="ZohoPuvi-Medium" horiz-adv-x="1229" >
  <font-face 
    font-family="Zoho Puvi"
    font-weight="500"
    font-stretch="normal"
    units-per-em="2048"
    panose-1="2 1 6 3 2 2 1 1 2 4"
    ascent="1638"
    descent="-410"
    x-height="1071"
    cap-height="1464"
    bbox="-477 -457 2350 2290"
    underline-thickness="102"
    underline-position="-205"
    stemh="166"
    stemv="213"
    unicode-range="U+000D-FB02"
  />
<missing-glyph horiz-adv-x="1033" 
 />
    <glyph glyph-name=".notdef" horiz-adv-x="1033" 
 />
    <glyph glyph-name="uni0000" horiz-adv-x="1" 
 />
    <glyph glyph-name="uni0000" horiz-adv-x="1" 
 />
    <glyph glyph-name="uni000D" unicode="&#xd;" horiz-adv-x="513" 
 />
    <glyph glyph-name="space" unicode=" " horiz-adv-x="399" 
 />
    <glyph glyph-name="exclam" unicode="!" horiz-adv-x="645" 
d="M240 428l-35 1036h238l-35 -1036h-168zM173 133c0 83 67 148 151 148c82 0 148 -63 148 -146c0 -85 -69 -147 -150 -147c-82 0 -149 62 -149 145z" />
    <glyph glyph-name="quotedbl" unicode="&#x22;" horiz-adv-x="827" 
d="M514 950l-33 514h219l-33 -514h-153zM160 950l-33 514h217l-33 -514h-151z" />
    <glyph glyph-name="numbersign" unicode="#" horiz-adv-x="1152" 
d="M190 0l60 440h-174v166h196l35 254h-176v166h198l60 438h162l-60 -438h240l59 438h162l-59 -438h180v-166h-201l-35 -254h181v-166h-205l-60 -440h-161l59 440h-240l-59 -440h-162zM426 600h254l39 266h-254z" />
    <glyph glyph-name="dollar" unicode="$" horiz-adv-x="1306" 
d="M585 -276v258c-224 19 -427 160 -491 380l178 78c40 -143 159 -275 313 -286v512c-239 40 -448 133 -448 409c0 251 220 390 448 406v184h130v-186c209 -19 367 -123 436 -326l-166 -72c-41 125 -138 209 -270 228v-465c253 -40 469 -124 469 -420
c0 -265 -221 -426 -469 -442v-258h-130zM585 866v445c-122 -11 -243 -82 -243 -217c0 -156 111 -201 243 -228zM715 645v-491c132 16 253 106 253 249c0 169 -111 210 -253 242z" />
    <glyph glyph-name="percent" unicode="%" horiz-adv-x="1648" 
d="M424 775c-195 0 -348 157 -348 348s153 354 348 354c193 0 346 -161 346 -354c0 -191 -151 -348 -346 -348zM278 0l922 1464h167l-923 -1464h-166zM424 926c122 0 166 92 166 196c0 109 -49 204 -168 204s-166 -94 -166 -201c0 -108 48 -199 168 -199zM874 330
c0 193 155 354 350 354c193 0 345 -157 345 -352c0 -193 -150 -350 -346 -350c-194 0 -349 153 -349 348zM1225 133c122 0 164 92 164 199c0 110 -45 203 -166 203s-169 -95 -169 -203s49 -199 171 -199z" />
    <glyph glyph-name="ampersand" unicode="&#x26;" horiz-adv-x="1464" 
d="M1105 0l-133 162c-112 -120 -240 -178 -402 -178c-251 0 -475 140 -475 410c0 220 148 346 332 437c-67 84 -119 188 -119 305c0 213 172 339 381 339c181 0 346 -118 346 -316c0 -186 -145 -302 -309 -368l272 -330l181 309l159 -70l-225 -387l256 -313h-264zM630 897
c121 54 211 120 211 264c0 89 -65 154 -154 154c-119 0 -174 -76 -174 -179c0 -72 26 -123 117 -239zM863 297l-336 410c-124 -65 -213 -141 -213 -293c0 -168 109 -256 264 -256c122 0 213 55 285 139z" />
    <glyph glyph-name="quotesingle" unicode="'" horiz-adv-x="493" 
d="M169 950l-33 514h221l-35 -514h-153z" />
    <glyph glyph-name="parenleft" unicode="(" horiz-adv-x="739" 
d="M647 -303h-194c-229 275 -361 581 -361 942c0 359 132 671 361 944h194c-219 -280 -340 -585 -340 -942c0 -359 123 -665 340 -944z" />
    <glyph glyph-name="parenright" unicode=")" horiz-adv-x="718" 
d="M282 -297h-194c219 280 328 588 328 947c0 356 -107 658 -328 939h194c229 -272 349 -585 349 -942s-120 -672 -349 -944z" />
    <glyph glyph-name="asterisk" unicode="*" horiz-adv-x="923" 
d="M183 920l172 219l-250 51l51 162l238 -101l-21 271h178l-20 -271l235 101l52 -162l-252 -51l172 -219l-138 -99l-143 244l-137 -244z" />
    <glyph glyph-name="plus" unicode="+" horiz-adv-x="1109" 
d="M463 205v409h-379v170h379v410h180v-410h379v-170h-379v-409h-180z" />
    <glyph glyph-name="comma" unicode="," horiz-adv-x="593" 
d="M100 -188l190 467l203 -86l-260 -445z" />
    <glyph glyph-name="hyphen" unicode="-" horiz-adv-x="743" 
d="M138 475v184h467v-184h-467z" />
    <glyph glyph-name="period" unicode="." horiz-adv-x="636" 
d="M170 135c0 84 68 146 149 146c83 0 148 -65 148 -146c0 -82 -65 -147 -148 -147c-82 0 -149 63 -149 147z" />
    <glyph glyph-name="slash" unicode="/" horiz-adv-x="882" 
d="M46 -303l606 1900h185l-607 -1900h-184z" />
    <glyph glyph-name="zero" unicode="0" horiz-adv-x="1443" 
d="M167 393c-40 125 -44 252 -44 377c0 376 187 715 604 715c455 0 590 -405 590 -787c0 -371 -179 -718 -589 -718c-276 0 -479 157 -561 413zM732 166c335 0 353 352 353 608c0 240 -75 531 -361 531c-338 0 -369 -353 -369 -611c0 -245 76 -528 377 -528z" />
    <glyph glyph-name="one" unicode="1" horiz-adv-x="864" 
d="M395 0v1237l-317 -205v205l338 227h208v-1464h-229z" />
    <glyph glyph-name="two" unicode="2" horiz-adv-x="1185" 
d="M45 0v90l565 553c117 114 219 250 219 422c0 155 -82 240 -229 240c-189 0 -279 -141 -324 -297l-176 75c67 243 235 402 502 402c256 0 457 -147 457 -416c0 -224 -139 -400 -291 -539l-383 -350h682v-180h-1022z" />
    <glyph glyph-name="three" unicode="3" horiz-adv-x="1265" 
d="M86 350l178 78c48 -152 158 -270 326 -270s315 69 315 258c0 260 -195 260 -397 260v174h18c177 0 348 5 348 231c0 149 -109 226 -250 226c-171 0 -261 -85 -317 -242l-168 72c69 228 261 348 485 348c240 0 469 -137 469 -389c0 -161 -93 -266 -237 -322
c184 -45 282 -171 282 -358c0 -306 -261 -436 -532 -436c-236 0 -461 130 -520 370z" />
    <glyph glyph-name="four" unicode="4" horiz-adv-x="1314" 
d="M82 319v89l657 1056h293v-968h201v-177h-201v-319h-223v319h-727zM338 496h473v794z" />
    <glyph glyph-name="five" unicode="5" horiz-adv-x="1238" 
d="M98 322l180 77c45 -161 134 -239 305 -239c192 0 295 142 295 320s-104 317 -288 317c-127 0 -230 -36 -314 -133h-110l6 800h858v-186h-678l-2 -420c84 80 196 113 309 113c287 0 453 -215 453 -484c0 -311 -223 -507 -522 -507c-231 0 -439 100 -492 342z" />
    <glyph glyph-name="six" unicode="6" horiz-adv-x="1316" 
d="M1175 1204l-184 -82c-51 123 -158 183 -282 183c-285 0 -355 -323 -359 -545c77 133 221 192 373 192c276 0 477 -196 477 -483c0 -305 -226 -489 -526 -489c-447 0 -551 343 -551 712c0 370 148 793 595 793c201 0 366 -84 457 -281zM672 154c188 0 296 133 296 315
c0 180 -106 317 -293 317c-177 0 -311 -123 -311 -299c0 -189 113 -333 308 -333z" />
    <glyph glyph-name="seven" unicode="7" horiz-adv-x="1122" 
d="M291 0l514 1280h-734v184h998v-94l-543 -1370h-235z" />
    <glyph glyph-name="eight" unicode="8" horiz-adv-x="1290" 
d="M389 791c-137 53 -217 156 -217 301c0 256 249 393 474 393c222 0 468 -133 468 -385c0 -149 -87 -251 -223 -307c175 -63 278 -185 278 -371c0 -295 -261 -442 -527 -442c-262 0 -528 144 -528 439c0 184 104 309 275 372zM395 1090c0 -146 122 -228 259 -228
c138 0 237 82 237 230c0 136 -119 223 -252 223c-130 0 -244 -84 -244 -225zM346 432c0 -173 134 -274 300 -274c163 0 294 98 294 273c0 174 -130 269 -294 269c-165 0 -300 -94 -300 -268z" />
    <glyph glyph-name="nine" unicode="9" horiz-adv-x="1318" 
d="M127 285l182 80c53 -139 175 -203 319 -203c282 0 338 320 338 540c-83 -129 -219 -190 -373 -190c-276 0 -481 195 -481 484c0 304 226 489 527 489c465 0 551 -365 551 -752c0 -373 -122 -753 -560 -753c-216 0 -426 92 -503 305zM640 680c174 0 306 115 306 293
c0 189 -108 340 -307 340c-189 0 -297 -136 -297 -316c0 -181 109 -317 298 -317z" />
    <glyph glyph-name="colon" unicode=":" horiz-adv-x="657" 
d="M180 772c0 85 65 148 146 148c83 0 151 -67 151 -150c0 -82 -67 -145 -150 -145s-147 64 -147 147zM180 135c0 84 64 146 145 146c82 0 152 -65 152 -148c0 -82 -67 -145 -150 -145s-147 64 -147 147z" />
    <glyph glyph-name="semicolon" unicode=";" horiz-adv-x="657" 
d="M250 772c0 83 65 148 148 148s149 -65 149 -148c0 -84 -65 -147 -149 -147c-83 0 -148 64 -148 147zM111 -188l190 467l203 -86l-260 -445z" />
    <glyph glyph-name="less" unicode="&#x3c;" horiz-adv-x="1057" 
d="M114 637v47l803 467v-201l-508 -291l508 -292v-199z" />
    <glyph glyph-name="equal" unicode="=" horiz-adv-x="1046" 
d="M92 782v168h860v-168h-860zM92 373v168h860v-168h-860z" />
    <glyph glyph-name="greater" unicode="&#x3e;" horiz-adv-x="1057" 
d="M139 170v199l508 290l-508 293v199l803 -467v-47z" />
    <glyph glyph-name="question" unicode="?" horiz-adv-x="1052" 
d="M381 428v88c0 150 92 249 184 340c134 133 171 192 171 271c0 108 -70 182 -191 182c-146 0 -230 -108 -270 -244l-180 78c72 220 225 340 454 340c221 0 408 -111 408 -348c0 -150 -96 -243 -194 -337l-61 -60c-79 -82 -125 -138 -127 -256l-1 -54h-193zM324 131
c0 85 70 150 153 150c84 0 148 -65 148 -148s-66 -145 -150 -145c-82 0 -151 59 -151 143z" />
    <glyph glyph-name="at" unicode="@" horiz-adv-x="1933" 
d="M1486 1l127 -57c-159 -191 -406 -249 -645 -249c-488 0 -854 338 -854 823c0 502 391 893 883 893c442 0 823 -282 823 -742c0 -250 -113 -538 -397 -538c-124 0 -231 34 -250 174c-60 -111 -171 -186 -299 -186c-215 0 -330 155 -330 361c0 234 148 476 411 476
c95 0 195 -32 234 -135l15 119h198l-63 -524v-4l-2 -34c0 -62 14 -120 103 -120c186 0 228 250 228 401c0 399 -289 615 -669 615c-428 0 -725 -323 -725 -748c0 -412 279 -694 696 -694c190 0 371 41 516 169zM926 272c160 0 239 172 239 321c0 125 -56 206 -195 206
c-161 0 -223 -179 -223 -305c0 -118 54 -222 179 -222z" />
    <glyph glyph-name="A" unicode="A" horiz-adv-x="1402" 
d="M57 0l492 1464h301l492 -1464h-232l-121 369h-594l-122 -369h-216zM451 543h481l-240 733z" />
    <glyph glyph-name="B" unicode="B" horiz-adv-x="1330" 
d="M170 0v1464h527c266 0 475 -86 475 -388c0 -157 -75 -263 -228 -310c199 -45 293 -149 293 -350c0 -308 -220 -416 -490 -416h-577zM395 838h284c176 0 271 53 271 242c0 175 -123 214 -275 214h-280v-456zM395 170h331c176 0 286 68 286 252c0 203 -134 252 -306 252
h-311v-504z" />
    <glyph glyph-name="C" unicode="C" horiz-adv-x="1500" 
d="M1247 489l181 -79c-96 -265 -338 -430 -619 -430c-463 0 -713 311 -713 759c0 411 277 746 695 746c275 0 521 -144 620 -400l-186 -81c-72 179 -221 299 -418 299c-331 0 -471 -282 -471 -571c0 -305 156 -566 481 -566c202 0 363 138 430 323z" />
    <glyph glyph-name="D" unicode="D" horiz-adv-x="1478" 
d="M170 0v1464h459c471 0 749 -259 749 -725c0 -479 -293 -739 -753 -739h-455zM400 182h219c364 0 522 215 522 559c0 355 -168 541 -524 541h-217v-1100z" />
    <glyph glyph-name="E" unicode="E" horiz-adv-x="1212" 
d="M170 0v1464h928v-182h-701v-446h572v-179h-572v-475h736v-182h-963z" />
    <glyph glyph-name="F" unicode="F" horiz-adv-x="1165" 
d="M170 0v1464h924v-184h-694v-473h552v-180h-552v-627h-230z" />
    <glyph glyph-name="G" unicode="G" horiz-adv-x="1560" 
d="M850 559v182h610v-503c-173 -176 -390 -258 -630 -258c-466 0 -734 311 -734 759c0 428 292 746 731 746c268 0 487 -117 601 -369l-201 -88c-76 176 -211 275 -404 275c-326 0 -489 -287 -489 -580c0 -315 158 -561 499 -561c150 0 299 48 412 152v245h-395z" />
    <glyph glyph-name="H" unicode="H" horiz-adv-x="1529" 
d="M170 0v1464h230v-641h728v641h230v-1464h-230v635h-728v-635h-230z" />
    <glyph glyph-name="I" unicode="I" horiz-adv-x="591" 
d="M178 0v1464h232v-1464h-232z" />
    <glyph glyph-name="J" unicode="J" horiz-adv-x="876" 
d="M70 23v182c61 -23 125 -41 192 -41c166 0 226 111 226 266v1034h231v-1042c0 -284 -145 -442 -434 -442c-73 0 -147 10 -215 43z" />
    <glyph glyph-name="K" unicode="K" horiz-adv-x="1308" 
d="M170 0v1464h230v-680l602 682h249l-634 -706l665 -760h-272l-610 696v-696h-230z" />
    <glyph glyph-name="L" unicode="L" horiz-adv-x="1124" 
d="M170 0v1464h230v-1280h665v-184h-895z" />
    <glyph glyph-name="M" unicode="M" horiz-adv-x="1822" 
d="M170 0v1464h311l435 -1093l426 1093h307v-1464h-228v1165l-466 -1165h-101l-477 1165v-1165h-207z" />
    <glyph glyph-name="N" unicode="N" horiz-adv-x="1517" 
d="M170 0v1464h285l678 -1128v1128h213v-1464h-248l-715 1184v-1184h-213z" />
    <glyph glyph-name="O" unicode="O" horiz-adv-x="1656" 
d="M824 -20c-436 0 -728 324 -728 759c0 424 306 746 738 746c434 0 723 -324 723 -749c0 -431 -297 -756 -733 -756zM842 166c328 0 475 274 475 579c0 297 -170 557 -488 557c-343 0 -493 -262 -493 -577c0 -295 184 -559 506 -559z" />
    <glyph glyph-name="P" unicode="P" horiz-adv-x="1246" 
d="M170 0v1464h479c293 0 529 -124 529 -450c0 -361 -288 -444 -598 -441l-183 2v-575h-227zM397 745h259c189 0 295 81 295 273c0 199 -114 266 -295 266h-259v-539z" />
    <glyph glyph-name="Q" unicode="Q" horiz-adv-x="1656" 
d="M1329 -184l-202 223c-95 -41 -193 -59 -297 -59c-442 0 -734 324 -734 759c0 423 306 746 739 746s722 -324 722 -752c0 -232 -85 -450 -265 -596l172 -190zM853 342l135 129l167 -184c128 120 162 289 162 458c0 296 -170 556 -488 556c-343 0 -493 -261 -493 -576
c0 -296 182 -561 499 -561c51 0 104 7 155 26z" />
    <glyph glyph-name="R" unicode="R" horiz-adv-x="1341" 
d="M170 0v1464h502c283 0 530 -108 530 -428c0 -216 -137 -350 -342 -395l428 -641h-250l-407 612h-234v-612h-227zM397 782h277c175 0 301 66 301 257c0 194 -130 245 -301 245h-277v-502z" />
    <glyph glyph-name="S" unicode="S" horiz-adv-x="1273" 
d="M79 360l195 86c53 -176 183 -290 365 -290c156 0 309 84 309 254c0 179 -169 213 -354 249c-225 44 -464 93 -464 414c0 264 212 412 485 412c235 0 400 -109 496 -332l-183 -80c-61 141 -160 224 -316 224c-137 0 -267 -64 -267 -203c0 -180 160 -213 350 -251
c223 -44 475 -93 475 -419c0 -283 -266 -444 -525 -444c-275 0 -478 111 -566 380z" />
    <glyph glyph-name="T" unicode="T" horiz-adv-x="1165" 
d="M465 0v1282h-416v182h1063v-182h-416v-1282h-231z" />
    <glyph glyph-name="U" unicode="U" horiz-adv-x="1445" 
d="M158 1464h231v-897c0 -234 60 -401 329 -401c276 0 337 177 337 424v874h231v-899c0 -376 -197 -585 -567 -585c-371 0 -561 210 -561 567v917z" />
    <glyph glyph-name="V" unicode="V" horiz-adv-x="1355" 
d="M539 0l-492 1464h236l401 -1237l404 1237h215l-496 -1464h-268z" />
    <glyph glyph-name="W" unicode="W" horiz-adv-x="1982" 
d="M449 0l-394 1464h234l293 -1132l325 1132h185l325 -1136l295 1136h213l-387 -1464h-221l-324 1108l-331 -1108h-213z" />
    <glyph glyph-name="X" unicode="X" horiz-adv-x="1380" 
d="M76 0l477 752l-444 712h256l336 -546l333 546h236l-442 -708l473 -756h-260l-367 592l-367 -592h-231z" />
    <glyph glyph-name="Y" unicode="Y" horiz-adv-x="1230" 
d="M512 0v627l-477 837h254l344 -651l334 651h225l-450 -839v-625h-230z" />
    <glyph glyph-name="Z" unicode="Z" horiz-adv-x="1224" 
d="M45 0v92l811 1190h-737v182h1032v-92l-792 -1184h776v-188h-1090z" />
    <glyph glyph-name="bracketleft" unicode="[" horiz-adv-x="796" 
d="M144 -303v1900h508v-160h-295v-1576h295v-164h-508z" />
    <glyph glyph-name="backslash" unicode="\" horiz-adv-x="880" 
d="M652 -303l-608 1900h184l609 -1900h-185z" />
    <glyph glyph-name="bracketright" unicode="]" horiz-adv-x="796" 
d="M144 -303v164h295v1576h-295v160h508v-1900h-508z" />
    <glyph glyph-name="asciicircum" unicode="^" horiz-adv-x="1032" 
d="M82 829l330 635h204l332 -635h-203l-233 457l-233 -457h-197z" />
    <glyph glyph-name="underscore" unicode="_" horiz-adv-x="861" 
d="M17 -326v146h827v-146h-827z" />
    <glyph glyph-name="grave" unicode="`" horiz-adv-x="820" 
d="M348 1243l-213 309h246l123 -309h-156z" />
    <glyph glyph-name="a" unicode="a" horiz-adv-x="1123" 
d="M762 0v133c-79 -107 -201 -153 -330 -153c-196 0 -358 108 -358 317c0 286 308 336 553 336h133c0 172 -26 293 -227 293c-108 0 -215 -65 -252 -169l-174 75c77 183 254 260 442 260c248 0 422 -134 422 -391v-701h-209zM760 494h-135c-129 0 -340 -18 -340 -199
c0 -109 76 -156 186 -156c140 0 289 78 289 236v119z" />
    <glyph glyph-name="b" unicode="b" horiz-adv-x="1312" 
d="M156 0v1576h213v-682c71 124 231 199 370 199c327 0 486 -261 486 -554c0 -303 -170 -559 -477 -559c-153 0 -307 63 -379 194v-174h-213zM695 152c240 0 313 185 313 391c0 193 -96 378 -312 378c-236 0 -336 -181 -336 -388c0 -219 111 -381 335 -381z" />
    <glyph glyph-name="c" unicode="c" horiz-adv-x="1172" 
d="M924 382l172 -73c-74 -218 -265 -329 -491 -329c-333 0 -523 240 -523 563c0 308 217 549 541 549c206 0 382 -97 467 -298l-181 -77c-42 124 -164 203 -301 203c-217 0 -309 -198 -309 -394c0 -204 100 -374 322 -374c147 0 258 95 303 230z" />
    <glyph glyph-name="d" unicode="d" horiz-adv-x="1312" 
d="M938 0v182c-69 -126 -235 -202 -375 -202c-325 0 -481 251 -481 552c0 296 177 561 490 561c149 0 291 -60 366 -191v674h213v-1576h-213zM608 152c236 0 338 176 338 393c0 210 -96 376 -323 376c-241 0 -322 -187 -322 -397c0 -193 94 -372 307 -372z" />
    <glyph glyph-name="e" unicode="e" horiz-adv-x="1177" 
d="M897 315l176 -75c-94 -182 -262 -260 -454 -260c-338 0 -537 240 -537 552c0 315 202 560 518 560c375 0 494 -266 494 -600h-795c0 -197 105 -347 310 -347c131 0 231 62 288 170zM305 644h578c-11 173 -101 286 -275 286c-182 0 -279 -125 -303 -286z" />
    <glyph glyph-name="f" unicode="f" horiz-adv-x="746" 
d="M197 0v906h-150v166h150c0 264 6 512 336 512c59 0 112 -8 161 -27l-65 -151c-24 4 -48 8 -72 8c-118 0 -148 -88 -148 -190v-152h253v-166h-252v-906h-213z" />
    <glyph glyph-name="g" unicode="g" horiz-adv-x="1306" 
d="M109 -133l168 74c56 -125 195 -166 321 -166c197 0 334 100 334 307v158c-75 -126 -226 -201 -371 -201c-301 0 -479 237 -479 517c0 292 194 536 490 536c145 0 285 -58 360 -186v166h211v-996c0 -326 -245 -469 -550 -469c-198 0 -393 60 -484 260zM610 207
c212 0 328 165 328 368c0 197 -109 349 -317 349c-219 0 -322 -168 -322 -369c0 -181 119 -348 311 -348z" />
    <glyph glyph-name="h" unicode="h" horiz-adv-x="1258" 
d="M156 0v1575h213v-673c64 133 203 191 349 191c260 0 388 -182 388 -433v-660h-213v654c0 168 -83 260 -245 260c-177 0 -279 -109 -279 -274v-640h-213z" />
    <glyph glyph-name="i" unicode="i" horiz-adv-x="542" 
d="M133 1380c0 72 60 129 132 129c71 0 132 -55 132 -129c0 -72 -60 -129 -132 -129s-132 57 -132 129zM162 0v1069h211v-1069h-211z" />
    <glyph glyph-name="j" unicode="j" horiz-adv-x="542" 
d="M266 1249c-71 0 -133 57 -133 133c0 72 56 125 131 125c74 0 133 -52 133 -126c0 -75 -60 -132 -131 -132zM10 -389v170c101 8 152 54 152 158v1130h211v-1120c0 -245 -134 -330 -363 -338z" />
    <glyph glyph-name="k" unicode="k" horiz-adv-x="1099" 
d="M156 0v1576h213v-983l424 479h237l-448 -493l485 -579h-250l-448 540v-540h-213z" />
    <glyph glyph-name="l" unicode="l" horiz-adv-x="542" 
d="M159 0v1481l213 94v-1575h-213z" />
    <glyph glyph-name="m" unicode="m" horiz-adv-x="1893" 
d="M156 0v1072h213v-164c61 125 174 185 309 185c137 0 279 -62 332 -197c72 128 210 197 362 197c246 0 371 -181 371 -420v-673h-213v669c0 154 -73 243 -232 243c-156 0 -243 -116 -243 -264v-648h-213v669c0 152 -75 243 -222 243c-165 0 -251 -116 -251 -264v-648h-213
z" />
    <glyph glyph-name="n" unicode="n" horiz-adv-x="1254" 
d="M156 0v1072h213v-170c64 133 206 190 351 190c260 0 382 -185 382 -432v-660h-213v654c0 165 -78 259 -242 259c-173 0 -278 -105 -278 -273v-640h-213z" />
    <glyph glyph-name="o" unicode="o" horiz-adv-x="1254" 
d="M618 -20c-326 0 -536 241 -536 564c0 314 227 549 548 549c325 0 537 -241 537 -555c0 -325 -228 -558 -549 -558zM625 150c231 0 325 184 325 385c0 209 -102 388 -329 388c-231 0 -322 -184 -322 -387c0 -215 102 -386 326 -386z" />
    <glyph glyph-name="p" unicode="p" horiz-adv-x="1312" 
d="M156 -371v1443h213v-178c72 124 233 198 372 198c328 0 484 -260 484 -552c0 -302 -167 -560 -484 -560c-141 0 -300 64 -372 192v-543h-213zM695 152c237 0 313 181 313 391c0 195 -99 377 -325 377c-225 0 -323 -182 -323 -386c0 -218 110 -382 335 -382z" />
    <glyph glyph-name="q" unicode="q" horiz-adv-x="1312" 
d="M938 -371v551c-72 -121 -236 -200 -375 -200c-325 0 -481 251 -481 552c0 296 177 560 491 560c148 0 290 -59 365 -190v170h213v-1443h-213zM610 152c237 0 336 177 336 391c0 210 -95 377 -323 377c-240 0 -322 -186 -322 -396c0 -190 99 -372 309 -372z" />
    <glyph glyph-name="r" unicode="r" horiz-adv-x="794" 
d="M156 0v1072h213v-197c76 147 186 216 350 216v-199c-219 -8 -350 -84 -350 -320v-572h-213z" />
    <glyph glyph-name="s" unicode="s" horiz-adv-x="996" 
d="M72 248l162 71c40 -111 148 -176 264 -176c104 0 215 33 215 148c0 120 -121 148 -261 180c-160 37 -346 80 -346 309c0 203 200 312 381 312c172 0 327 -78 402 -238l-160 -70c-45 99 -137 145 -236 145c-90 0 -190 -38 -190 -138c0 -109 117 -133 248 -160
c170 -35 365 -76 365 -312c0 -241 -202 -339 -411 -339c-191 0 -369 82 -433 268z" />
    <glyph glyph-name="t" unicode="t" horiz-adv-x="742" 
d="M662 180v-172c-51 -16 -103 -24 -160 -24c-199 0 -305 98 -305 301v621h-150v166h150v211l211 92v-303h241v-166h-241v-601c0 -86 34 -147 134 -147c36 0 78 8 120 22z" />
    <glyph glyph-name="u" unicode="u" horiz-adv-x="1246" 
d="M875 0v170c-64 -131 -196 -190 -346 -190c-248 0 -381 161 -381 409v682h210v-663c0 -164 81 -252 239 -252c175 0 278 109 278 272v643h210v-1071h-210z" />
    <glyph glyph-name="v" unicode="v" horiz-adv-x="1109" 
d="M426 0l-385 1071h229l291 -854l289 854h213l-381 -1071h-256z" />
    <glyph glyph-name="w" unicode="w" horiz-adv-x="1678" 
d="M387 0l-340 1071h227l242 -815l242 815h180l234 -815l245 815h211l-344 -1071h-223l-219 761l-232 -761h-223z" />
    <glyph glyph-name="x" unicode="x" horiz-adv-x="1113" 
d="M47 0l379 550l-354 521h245l242 -365l240 365h225l-350 -506l387 -565h-248l-268 408l-275 -408h-223z" />
    <glyph glyph-name="y" unicode="y" horiz-adv-x="1105" 
d="M260 -371l199 482l-418 960h229l299 -727l279 727h211l-588 -1442h-211z" />
    <glyph glyph-name="z" unicode="z" horiz-adv-x="1000" 
d="M37 0v88l623 812h-566v171h858v-87l-616 -808h604v-176h-903z" />
    <glyph glyph-name="braceleft" unicode="{" horiz-adv-x="839" 
d="M735 -301h-43c-239 0 -405 160 -394 380l15 296c5 103 -63 184 -161 193h-48v158h48c99 11 166 94 161 198l-15 293c-11 219 153 380 388 380h49v-160h-48c-113 0 -191 -99 -184 -233l15 -305c6 -118 -71 -225 -181 -252c111 -27 187 -133 181 -250l-15 -298
c-7 -139 73 -240 189 -240h43v-160z" />
    <glyph glyph-name="bar" unicode="|" horiz-adv-x="575" 
d="M206 -303v1900h164v-1900h-164z" />
    <glyph glyph-name="braceright" unicode="}" horiz-adv-x="839" 
d="M104 -301v160h43c116 0 196 101 189 240l-15 298c-6 117 70 223 181 250c-110 27 -187 134 -181 252l15 305c7 134 -70 233 -184 233h-48v160h49c236 0 399 -161 388 -380l-15 -293c-5 -104 62 -187 161 -198h48v-158h-48c-98 -9 -166 -90 -161 -193l15 -296
c11 -220 -155 -380 -394 -380h-43z" />
    <glyph glyph-name="asciitilde" unicode="~" horiz-adv-x="945" 
d="M240 453h-156c11 136 74 292 227 292c69 0 133 -32 188 -60c43 -22 82 -42 115 -42c56 0 85 55 88 107h158c-8 -131 -76 -293 -228 -293c-66 0 -128 31 -186 60c-44 22 -84 42 -117 42c-55 0 -81 -55 -89 -106z" />
    <glyph glyph-name="uni00A0" unicode="&#xa0;" horiz-adv-x="536" 
 />
    <glyph glyph-name="exclamdown" unicode="&#xa1;" horiz-adv-x="675" 
d="M188 1094c0 83 68 145 149 145c82 0 150 -61 150 -145s-67 -148 -150 -148c-82 0 -149 65 -149 148zM217 -238l34 1037h168l35 -1037h-237z" />
    <glyph glyph-name="cent" unicode="&#xa2;" horiz-adv-x="1192" 
d="M561 -276v260c-307 29 -467 262 -467 557c0 284 182 511 467 546v201h129v-201c205 -16 340 -112 420 -303l-172 -73c-43 113 -127 188 -248 207v-768c137 23 225 101 266 233l160 -68c-76 -191 -219 -312 -426 -331v-260h-129zM561 152v763
c-192 -37 -252 -219 -252 -387c0 -178 68 -339 252 -376z" />
    <glyph glyph-name="sterling" unicode="&#xa3;" horiz-adv-x="1270" 
d="M262 0h-182c13 127 82 242 213 274c15 41 22 82 22 127c0 76 -20 155 -41 232h-172v151h127c-20 88 -35 176 -35 267c0 270 219 432 475 432c232 0 380 -105 465 -320l-192 -84c-40 125 -131 224 -274 224c-150 0 -242 -110 -242 -259c0 -88 12 -173 28 -260h422v-151
h-389c17 -79 27 -158 27 -238c0 -44 -10 -88 -27 -129c36 -10 73 -25 111 -41c102 -42 154 -57 203 -57c102 0 171 63 202 160l176 -76c-50 -159 -177 -270 -340 -270c-89 0 -167 33 -247 67c-100 43 -148 57 -195 57c-76 0 -128 -35 -135 -106z" />
    <glyph glyph-name="yen" unicode="&#xa5;" horiz-adv-x="1217" 
d="M166 305v125h342v147h-342v125h311l-418 762h250l319 -626l306 626h221l-393 -762h313v-125h-342v-147h342v-125h-342v-305h-225v305h-342z" />
    <glyph glyph-name="brokenbar" unicode="&#xa6;" horiz-adv-x="593" 
d="M215 754v835h164v-835h-164zM215 -303v913h164v-913h-164z" />
    <glyph glyph-name="section" unicode="&#xa7;" horiz-adv-x="1189" 
d="M183 -25l161 70c32 -108 130 -160 239 -160c106 0 188 49 188 156c0 136 -132 174 -279 214c-182 50 -387 106 -387 353c0 146 98 237 231 277c-89 64 -120 151 -120 256c0 209 192 342 387 342c185 0 318 -69 385 -248l-158 -70c-37 100 -121 152 -230 152
c-105 0 -182 -49 -182 -166c0 -130 133 -166 280 -206c182 -49 386 -104 386 -353c0 -137 -100 -237 -225 -277c84 -64 114 -152 114 -256c0 -213 -192 -340 -389 -340c-172 0 -356 72 -401 256zM713 395c101 24 162 72 162 183c0 133 -227 185 -357 214l-46 11
c-91 -16 -158 -78 -158 -174c0 -134 214 -187 345 -220z" />
    <glyph glyph-name="dieresis" unicode="&#xa8;" horiz-adv-x="845" 
d="M477 1377c0 66 56 122 123 122c66 0 123 -54 123 -121s-57 -121 -123 -121s-123 53 -123 120zM121 1377c0 66 57 122 123 122s123 -54 123 -121s-57 -121 -123 -121c-65 0 -123 54 -123 120z" />
    <glyph glyph-name="copyright" unicode="&#xa9;" horiz-adv-x="1730" 
d="M104 729c0 425 342 756 764 756c419 0 756 -327 756 -750c0 -425 -338 -758 -762 -758c-422 0 -758 331 -758 752zM862 68c373 0 656 296 656 668c0 370 -279 658 -652 658c-375 0 -656 -291 -656 -662c0 -370 280 -664 652 -664zM1094 610l139 -59
c-56 -158 -190 -236 -354 -236c-272 0 -402 163 -402 424c0 236 161 410 409 410c152 0 279 -66 343 -219l-142 -60c-35 97 -101 140 -196 140c-174 0 -229 -142 -229 -280c0 -148 64 -273 226 -273c104 0 174 51 206 153z" />
    <glyph glyph-name="ordfeminine" unicode="&#xaa;" horiz-adv-x="926" 
d="M628 610v105c-67 -88 -153 -123 -259 -123c-162 0 -290 83 -290 252c0 264 311 272 510 272h37v12c0 128 -37 205 -167 205c-93 0 -159 -39 -192 -119l-149 66c61 147 191 203 348 203c202 0 356 -92 356 -316v-557h-194zM626 995h-104c-93 0 -247 -12 -247 -139
c0 -92 55 -119 136 -119c111 0 215 51 215 174v84z" />
    <glyph glyph-name="guillemotleft" unicode="&#xab;" horiz-adv-x="1086" 
d="M771 164l-264 371l264 370h182l-254 -370l254 -371h-182zM398 164l-264 371l264 370h182l-254 -370l254 -371h-182z" />
    <glyph glyph-name="registered" unicode="&#xae;" horiz-adv-x="1080" 
d="M82 1028c0 252 207 455 459 455c250 0 456 -199 456 -453c0 -255 -205 -452 -456 -452c-252 0 -459 198 -459 450zM539 651c217 0 374 164 374 384c0 216 -151 374 -372 374c-224 0 -375 -161 -375 -377c0 -220 157 -381 373 -381zM379 811v449h164
c92 0 176 -31 176 -134c0 -65 -34 -106 -91 -127l117 -188h-113l-102 170h-43v-170h-108zM487 1053h52c43 0 72 16 72 63s-29 62 -72 62h-52v-125z" />
    <glyph glyph-name="macron" unicode="&#xaf;" horiz-adv-x="845" 
d="M144 1301v148h557v-148h-557z" />
    <glyph glyph-name="degree" unicode="&#xb0;" horiz-adv-x="915" 
d="M132 1165c0 179 149 318 326 318c178 0 326 -141 326 -319c0 -179 -151 -316 -325 -316s-327 136 -327 317zM458 962c117 0 198 87 198 201s-80 205 -198 205c-116 0 -199 -88 -199 -205c0 -116 84 -201 199 -201z" />
    <glyph glyph-name="plusminus" unicode="&#xb1;" horiz-adv-x="1131" 
d="M96 690v168h379v367h180v-367h379v-168h-379v-366h-180v366h-379zM96 0v164h938v-164h-938z" />
    <glyph glyph-name="twosuperior" unicode="&#xb2;" horiz-adv-x="640" 
d="M27 756v41l262 260c53 52 117 121 117 205c0 58 -31 92 -91 92c-76 0 -128 -54 -151 -119l-117 51c37 128 139 193 275 193c134 0 247 -63 247 -207c0 -98 -53 -178 -218 -335l-62 -59h286v-122h-548z" />
    <glyph glyph-name="threesuperior" unicode="&#xb3;" horiz-adv-x="685" 
d="M53 924l127 53c16 -67 80 -113 155 -113c61 0 111 30 111 107c0 92 -71 98 -143 98h-29v106h25c72 0 139 6 139 90c0 64 -39 93 -98 93c-68 0 -120 -40 -143 -104l-121 56c40 116 150 169 266 169c120 0 254 -55 254 -194c0 -80 -46 -130 -121 -155
c88 -19 141 -76 141 -173c0 -157 -141 -214 -272 -214c-133 0 -251 58 -291 181z" />
    <glyph glyph-name="acute" unicode="&#xb4;" horiz-adv-x="513" 
d="M69 1155l123 309h245l-213 -309h-155z" />
    <glyph glyph-name="paragraph" unicode="&#xb6;" horiz-adv-x="1290" 
d="M656 -205v905c-245 0 -473 95 -473 376c0 265 202 388 447 388h477v-1669h-144v1551h-163v-1551h-144z" />
    <glyph glyph-name="periodcentered" unicode="&#xb7;" horiz-adv-x="663" 
d="M183 671c0 84 66 146 148 146c83 0 149 -65 149 -147c0 -83 -65 -148 -148 -148c-82 0 -149 65 -149 149z" />
    <glyph glyph-name="cedilla" unicode="&#xb8;" horiz-adv-x="839" 
d="M219 -315l100 41c19 -39 62 -64 105 -64s78 27 78 71c0 42 -33 68 -72 68c-21 0 -40 -7 -59 -18l-70 63l88 154h117l-60 -104c8 1 16 1 24 1c103 0 177 -63 177 -165c0 -124 -110 -176 -217 -176c-90 0 -179 38 -211 129z" />
    <glyph glyph-name="onesuperior" unicode="&#xb9;" horiz-adv-x="523" 
d="M225 750v553l-166 -97v142l189 116h145v-714h-168z" />
    <glyph glyph-name="ordmasculine" unicode="&#xba;" horiz-adv-x="1062" 
d="M91 1035c0 253 172 448 437 448c256 0 442 -183 442 -437c0 -264 -172 -454 -437 -454c-259 0 -442 182 -442 443zM531 748c169 0 236 133 236 290c0 148 -60 289 -235 289c-169 0 -238 -132 -238 -290c0 -148 61 -289 237 -289z" />
    <glyph glyph-name="guillemotright" unicode="&#xbb;" horiz-adv-x="1086" 
d="M505 164l254 371l-254 370h183l264 -370l-264 -371h-183zM135 164l251 371l-251 370h182l262 -370l-262 -371h-182z" />
    <glyph glyph-name="onequarter" unicode="&#xbc;" horiz-adv-x="1441" 
d="M109 0l1060 1464h148l-1061 -1464h-147zM219 750v553l-166 -91v142l189 110h145v-714h-168zM782 145v60l314 510h202v-453h95v-117h-95v-145h-157v145h-359zM948 262h195v332z" />
    <glyph glyph-name="onehalf" unicode="&#xbd;" horiz-adv-x="1445" 
d="M82 0l1061 1464h147l-1061 -1464h-147zM219 750v553l-166 -91v142l189 110h145v-714h-168zM836 0v62l262 242c56 54 116 119 116 203c0 60 -31 91 -95 91c-79 0 -117 -46 -140 -118l-121 50c39 133 131 193 267 193c140 0 251 -64 251 -207c0 -107 -63 -199 -237 -353
l-43 -38h286v-125h-546z" />
    <glyph glyph-name="threequarters" unicode="&#xbe;" horiz-adv-x="1451" 
d="M47 915l119 52c20 -76 71 -109 145 -109c69 0 125 29 125 109c0 90 -71 96 -143 96h-29v106h25c72 0 139 6 139 88c0 67 -45 95 -107 95c-67 0 -108 -33 -133 -98l-116 52c40 118 141 167 257 167c123 0 257 -55 257 -194c0 -80 -46 -130 -121 -155
c88 -19 141 -76 141 -173c0 -157 -141 -214 -282 -214c-125 0 -245 45 -277 178zM178 0l1061 1464h147l-1060 -1464h-148zM786 145v60l314 510h203v-453h94v-117h-94v-145h-158v145h-359zM952 262h195v332z" />
    <glyph glyph-name="questiondown" unicode="&#xbf;" horiz-adv-x="1110" 
d="M445 1092c0 84 68 145 150 145c83 0 149 -61 149 -145c0 -83 -66 -148 -149 -148c-82 0 -150 65 -150 148zM836 152l162 -70c-72 -212 -251 -340 -484 -340c-216 0 -401 110 -401 354c0 279 353 356 380 615c4 33 1 59 1 86h193v-16l1 -31v-16
c0 -311 -355 -426 -355 -630c0 -129 73 -188 198 -188c142 0 259 107 305 236z" />
    <glyph glyph-name="Agrave" unicode="&#xc0;" horiz-adv-x="1406" 
d="M646 1573l-203 268h250l111 -268h-158zM60 0l496 1464h301l488 -1464h-232l-117 356h-602l-118 -356h-216zM450 528h489l-244 748z" />
    <glyph glyph-name="Aacute" unicode="&#xc1;" horiz-adv-x="1406" 
d="M615 1573l113 268h248l-203 -268h-158zM60 0l496 1464h301l488 -1464h-232l-117 356h-602l-118 -356h-216zM450 528h489l-244 748z" />
    <glyph glyph-name="Acircumflex" unicode="&#xc2;" horiz-adv-x="1406" 
d="M386 1573l225 268h187l219 -268h-154l-164 117l-161 -117h-152zM60 0l496 1464h301l488 -1464h-232l-117 356h-602l-118 -356h-216zM450 528h489l-244 748z" />
    <glyph glyph-name="Atilde" unicode="&#xc3;" horiz-adv-x="1412" 
d="M517 1595h-141c13 119 78 254 205 254c56 0 102 -26 142 -49c47 -27 68 -35 89 -35c49 0 77 47 82 86h141c-11 -117 -79 -252 -206 -252c-56 0 -101 26 -141 49c-47 27 -68 35 -88 35c-50 0 -78 -49 -83 -88zM54 0l492 1464h301l492 -1464h-232l-121 369h-594l-122 -369
h-216zM448 543h481l-240 733z" />
    <glyph glyph-name="Adieresis" unicode="&#xc4;" horiz-adv-x="1406" 
d="M913 1592c-69 0 -123 57 -123 122c0 64 54 121 124 121c66 0 121 -52 121 -121c0 -68 -55 -122 -122 -122zM366 1715c0 66 56 120 124 120c67 0 121 -51 121 -119c0 -67 -54 -124 -121 -124c-65 0 -124 56 -124 123zM60 0l496 1464h300l489 -1464h-232l-117 356h-602
l-118 -356h-216zM450 528h488l-244 748z" />
    <glyph glyph-name="Aring" unicode="&#xc5;" horiz-adv-x="1406" 
d="M478 1767c0 121 106 218 226 218s223 -100 223 -219c0 -121 -107 -218 -225 -218c-117 0 -224 97 -224 219zM703 1651c64 0 105 53 105 114s-42 117 -108 117c-65 0 -103 -54 -103 -114c0 -63 42 -117 106 -117zM60 0l496 1464h301l488 -1464h-232l-117 356h-602
l-118 -356h-216zM450 528h489l-244 748z" />
    <glyph glyph-name="AE" unicode="&#xc6;" horiz-adv-x="1963" 
d="M48 0l737 1464h1063v-182h-655v-446h526v-179h-526v-475h692v-182h-921v342h-521l-167 -342h-228zM525 512h439v770h-58z" />
    <glyph glyph-name="Ccedilla" unicode="&#xc7;" horiz-adv-x="1498" 
d="M560 -266h123c8 -43 43 -72 86 -72s78 27 78 71c0 42 -33 68 -74 68c-18 0 -38 -5 -57 -16l-70 61l78 138c-420 32 -625 347 -625 744c0 416 267 757 694 757c278 0 523 -144 621 -402l-186 -80c-74 178 -218 298 -427 298c-316 0 -462 -275 -462 -567
c0 -328 147 -566 502 -566c201 0 363 136 430 320l180 -76c-96 -261 -331 -427 -610 -430l-49 -86c9 1 19 2 31 2c98 0 169 -70 169 -170c0 -123 -110 -170 -212 -170c-115 0 -209 59 -220 176z" />
    <glyph glyph-name="Egrave" unicode="&#xc8;" horiz-adv-x="1216" 
d="M573 1573l-202 268h250l110 -268h-158zM173 0v1464h928v-182h-701v-446h572v-179h-572v-475h736v-182h-963z" />
    <glyph glyph-name="Eacute" unicode="&#xc9;" horiz-adv-x="1187" 
d="M546 1573l113 268h247l-202 -268h-158zM173 0v1464h901v-182h-674v-446h545v-179h-545v-475h709v-182h-936z" />
    <glyph glyph-name="Ecircumflex" unicode="&#xca;" horiz-adv-x="1216" 
d="M304 1573l225 268h187l219 -268h-154l-163 117l-162 -117h-152zM173 0v1464h928v-182h-701v-446h572v-179h-572v-475h736v-182h-963z" />
    <glyph glyph-name="Edieresis" unicode="&#xcb;" horiz-adv-x="1216" 
d="M709 1714c0 67 57 121 124 121c65 0 122 -54 122 -121c0 -65 -57 -122 -122 -122c-67 0 -124 57 -124 122zM286 1716c0 65 56 119 123 119c65 0 123 -54 123 -121c0 -65 -58 -122 -123 -122s-123 57 -123 124zM173 0v1464h928v-182h-701v-446h572v-179h-572v-475h736
v-182h-963z" />
    <glyph glyph-name="Igrave" unicode="&#xcc;" horiz-adv-x="595" 
d="M230 1573l-202 268h250l110 -268h-158zM181 0v1464h232v-1464h-232z" />
    <glyph glyph-name="Iacute" unicode="&#xcd;" horiz-adv-x="595" 
d="M204 1573l112 268h248l-202 -268h-158zM181 0v1464h232v-1464h-232z" />
    <glyph glyph-name="Icircumflex" unicode="&#xce;" horiz-adv-x="595" 
d="M-19 1573l223 268h186l221 -268h-155l-162 117l-164 -117h-149zM181 0v1464h232v-1464h-232z" />
    <glyph glyph-name="Idieresis" unicode="&#xcf;" horiz-adv-x="595" 
d="M0 1714c0 68 55 121 123 121s123 -52 123 -121c0 -68 -56 -122 -123 -122s-123 54 -123 122zM344 1714c0 68 55 121 123 121s123 -52 123 -121c0 -68 -56 -122 -123 -122s-123 54 -123 122zM189 0v1464h232v-1464h-232z" />
    <glyph glyph-name="Eth" unicode="&#xd0;" horiz-adv-x="1527" 
d="M212 0v651h-147v168h147v645h459c455 0 751 -251 751 -719c0 -478 -278 -745 -753 -745h-457zM441 182h222c349 0 520 209 520 547c0 352 -158 553 -522 553h-220v-463h385v-168h-385v-469z" />
    <glyph glyph-name="Ntilde" unicode="&#xd1;" horiz-adv-x="1521" 
d="M591 1575h-141c13 119 77 254 205 254c53 0 97 -23 140 -48c3 -2 5 -2 6 -3l1 -1h1c1 -1 2 -2 3 -2c24 -14 52 -30 79 -30c47 0 77 47 82 86h140c-11 -117 -80 -252 -206 -252c-54 0 -98 24 -143 50c-32 18 -61 34 -87 34c-46 0 -75 -49 -80 -88zM173 0v1464h285
l678 -1128v1128h213v-1464h-248l-715 1184v-1184h-213z" />
    <glyph glyph-name="Ograve" unicode="&#xd2;" horiz-adv-x="1660" 
d="M762 1573l-200 268h247l113 -268h-160zM836 -20c-431 0 -737 316 -737 751c0 424 292 752 732 752c429 0 729 -313 729 -738c0 -432 -282 -765 -724 -765zM841 166c323 0 479 263 479 565s-156 569 -490 569c-325 0 -491 -253 -491 -554c0 -306 172 -580 502 -580z" />
    <glyph glyph-name="Oacute" unicode="&#xd3;" horiz-adv-x="1660" 
d="M735 1573l113 268h250l-203 -268h-160zM836 -20c-431 0 -737 316 -737 751c0 424 292 752 732 752c429 0 729 -313 729 -738c0 -432 -282 -765 -724 -765zM841 166c323 0 479 263 479 565s-156 569 -490 569c-325 0 -491 -253 -491 -554c0 -306 172 -580 502 -580z" />
    <glyph glyph-name="Ocircumflex" unicode="&#xd4;" horiz-adv-x="1660" 
d="M515 1573l222 268h187l218 -268h-153l-162 117l-163 -117h-149zM836 -20c-431 0 -737 316 -737 751c0 424 292 752 732 752c429 0 729 -313 729 -738c0 -432 -282 -765 -724 -765zM841 166c323 0 479 263 479 565s-156 569 -490 569c-325 0 -491 -253 -491 -554
c0 -306 172 -580 502 -580z" />
    <glyph glyph-name="Otilde" unicode="&#xd5;" horiz-adv-x="1660" 
d="M639 1575h-138c11 123 75 254 206 254c57 0 100 -25 136 -46c37 -21 67 -38 95 -38c47 0 72 47 80 86h140c-11 -117 -80 -252 -209 -252c-39 0 -73 13 -155 59c-22 12 -48 25 -73 25c-47 0 -74 -49 -82 -88zM836 -20c-431 0 -737 316 -737 751c0 424 292 752 732 752
c429 0 729 -313 729 -738c0 -432 -282 -765 -724 -765zM841 166c323 0 479 263 479 565s-156 569 -490 569c-325 0 -491 -253 -491 -554c0 -306 172 -580 502 -580z" />
    <glyph glyph-name="Odieresis" unicode="&#xd6;" horiz-adv-x="1660" 
d="M1037 1592c-66 0 -120 54 -120 122c0 69 54 121 121 121c68 0 124 -54 124 -119c0 -67 -58 -124 -125 -124zM613 1592c-66 0 -120 54 -120 122c0 69 54 121 121 121c68 0 124 -54 124 -119c0 -67 -58 -124 -125 -124zM836 -20c-431 0 -737 316 -737 751
c0 424 292 752 732 752c428 0 729 -313 729 -738c0 -432 -282 -765 -724 -765zM838 166c324 0 482 263 482 566c0 301 -156 568 -490 568c-326 0 -491 -253 -491 -555c0 -305 169 -579 499 -579z" />
    <glyph glyph-name="multiply" unicode="&#xd7;" horiz-adv-x="1027" 
d="M196 250l-116 119l315 315l-315 315l116 119l316 -317l315 315l117 -119l-313 -313l315 -315l-119 -119l-315 317z" />
    <glyph glyph-name="Oslash" unicode="&#xd8;" horiz-adv-x="1660" 
d="M165 -68l-98 99l194 209c-108 137 -162 308 -162 491c0 424 289 752 730 752c161 0 318 -44 446 -140l162 177l98 -99l-158 -172c121 -139 183 -321 183 -504c0 -433 -282 -765 -723 -765c-176 0 -345 53 -480 161zM413 406l727 792c-87 72 -197 102 -311 102
c-328 0 -492 -251 -492 -566c0 -110 20 -224 76 -328zM1232 1092l-733 -799c91 -87 211 -127 338 -127c325 0 485 262 485 563c0 127 -22 255 -90 363z" />
    <glyph glyph-name="Ugrave" unicode="&#xd9;" horiz-adv-x="1449" 
d="M657 1573l-199 268h247l112 -268h-160zM161 1464h231v-897c0 -234 60 -401 331 -401c278 0 335 175 335 424v874h231v-899c0 -376 -198 -585 -576 -585c-359 0 -552 213 -552 567v917z" />
    <glyph glyph-name="Uacute" unicode="&#xda;" horiz-adv-x="1449" 
d="M631 1573l112 268h249l-201 -268h-160zM161 1464h231v-897c0 -234 60 -401 331 -401c278 0 335 175 335 424v874h231v-899c0 -376 -198 -585 -576 -585c-359 0 -552 213 -552 567v917z" />
    <glyph glyph-name="Ucircumflex" unicode="&#xdb;" horiz-adv-x="1449" 
d="M411 1573l222 268h186l218 -268h-152l-162 117l-163 -117h-149zM161 1464h231v-897c0 -234 60 -401 331 -401c278 0 335 175 335 424v874h231v-899c0 -376 -198 -585 -576 -585c-359 0 -552 213 -552 567v917z" />
    <glyph glyph-name="Udieresis" unicode="&#xdc;" horiz-adv-x="1449" 
d="M812 1714c0 68 55 121 123 121c67 0 123 -54 123 -119c0 -67 -58 -124 -125 -124c-65 0 -121 54 -121 122zM388 1714c0 68 57 121 124 121c66 0 122 -54 122 -119c0 -67 -58 -124 -124 -124c-65 0 -122 54 -122 122zM161 1464h231v-897c0 -234 60 -401 331 -401
c277 0 335 175 335 424v874h231v-899c0 -376 -198 -585 -577 -585c-360 0 -551 213 -551 567v917z" />
    <glyph glyph-name="Yacute" unicode="&#xdd;" horiz-adv-x="1240" 
d="M546 1573l112 268h250l-203 -268h-159zM517 0v629l-479 835h254l348 -647l336 647h225l-452 -835v-629h-232z" />
    <glyph glyph-name="Thorn" unicode="&#xde;" horiz-adv-x="1216" 
d="M173 0v1464h227v-266h217c284 0 529 -112 529 -437c0 -318 -234 -435 -525 -435h-221v-326h-227zM400 498h223c172 0 296 74 296 260c0 200 -111 264 -296 264h-223v-524z" />
    <glyph glyph-name="germandbls" unicode="&#xdf;" horiz-adv-x="1224" 
d="M155 0v1150c0 264 195 438 461 438c221 0 417 -120 417 -368c0 -152 -100 -280 -243 -328c206 -51 356 -219 356 -437c0 -288 -142 -473 -448 -473c-59 0 -124 7 -185 30l68 152c29 -6 59 -10 93 -10c186 0 253 117 253 282c0 246 -149 356 -375 356v172h19
c149 0 262 90 262 253c0 142 -86 209 -230 209c-155 0 -235 -117 -235 -262v-1164h-213z" />
    <glyph glyph-name="agrave" unicode="&#xe0;" horiz-adv-x="1117" 
d="M495 1244l-213 309h245l123 -309h-155zM761 0v133c-84 -109 -193 -153 -327 -153c-203 0 -361 102 -361 311c0 290 303 340 549 342l137 1c0 172 -8 293 -217 293c-116 0 -212 -60 -252 -170l-172 75c85 188 243 261 442 261c257 0 410 -120 410 -387v-706h-209zM759 494
h-135c-129 0 -340 -18 -340 -191c0 -121 75 -164 186 -164c144 0 289 74 289 236v119z" />
    <glyph glyph-name="aacute" unicode="&#xe1;" horiz-adv-x="1117" 
d="M470 1244l125 309h246l-213 -309h-158zM761 0v133c-84 -109 -193 -153 -327 -153c-203 0 -361 102 -361 311c0 292 306 340 551 342l135 1c0 172 -8 293 -217 293c-116 0 -212 -60 -252 -170l-172 75c85 188 243 261 442 261c257 0 410 -120 410 -387v-706h-209zM759 494
h-135c-129 0 -340 -18 -340 -191c0 -121 75 -164 186 -164c144 0 289 74 289 236v119z" />
    <glyph glyph-name="acircumflex" unicode="&#xe2;" horiz-adv-x="1117" 
d="M241 1244l227 303h176l225 -303h-153l-164 146l-164 -146h-147zM761 0v133c-79 -107 -201 -153 -330 -153c-196 0 -358 108 -358 316c0 286 307 335 551 337l135 1c0 171 -26 293 -227 293c-108 0 -215 -66 -252 -170l-174 75c77 183 254 261 442 261
c248 0 422 -135 422 -392v-701h-209zM759 494h-135c-129 0 -340 -18 -340 -199c0 -109 76 -156 183 -156c142 0 292 82 292 236v119z" />
    <glyph glyph-name="atilde" unicode="&#xe3;" horiz-adv-x="1117" 
d="M372 1252h-139c13 119 74 254 203 254c54 0 97 -24 142 -50s66 -34 87 -34c50 0 76 51 84 88h139c-11 -115 -80 -256 -206 -256c-53 0 -96 25 -136 48c-33 19 -64 36 -94 36c-50 0 -72 -44 -80 -86zM761 0v133c-79 -107 -201 -153 -330 -153c-196 0 -358 108 -358 316
c0 283 300 333 543 336l143 2c0 170 -26 291 -227 291c-108 0 -215 -65 -252 -169l-174 75c77 184 254 262 442 262c248 0 422 -137 422 -392v-701h-209zM759 494h-135c-129 0 -340 -18 -340 -199c0 -109 76 -156 183 -156c142 0 292 82 292 236v119z" />
    <glyph glyph-name="adieresis" unicode="&#xe4;" horiz-adv-x="1117" 
d="M259 1388c0 67 56 121 123 121s123 -52 123 -121c0 -68 -56 -121 -123 -121s-123 53 -123 121zM613 1388c0 67 58 121 125 121c65 0 121 -52 121 -121c0 -68 -56 -121 -122 -121c-67 0 -124 55 -124 121zM761 0v133c-79 -107 -201 -153 -330 -153
c-196 0 -358 108 -358 316c0 282 299 333 544 336l142 2c0 171 -26 293 -227 293c-108 0 -215 -66 -252 -170l-174 75c77 183 254 261 442 261c248 0 422 -135 422 -392v-701h-209zM759 494h-135c-129 0 -340 -18 -340 -199c0 -109 76 -156 183 -156c142 0 292 82 292 236
v119z" />
    <glyph glyph-name="aring" unicode="&#xe5;" horiz-adv-x="1117" 
d="M335 1435c0 122 107 218 223 218c118 0 225 -100 225 -220c0 -118 -105 -215 -223 -215c-119 0 -225 96 -225 217zM560 1320c65 0 104 53 104 114c0 63 -42 115 -106 115s-104 -53 -104 -114s42 -115 106 -115zM761 0v133c-80 -107 -201 -153 -330 -153
c-196 0 -358 108 -358 316c0 285 304 335 551 337l135 1c0 171 -26 293 -227 293c-108 0 -215 -66 -252 -170l-174 75c77 183 254 261 442 261c248 0 422 -135 422 -392v-701h-209zM759 494h-136c-128 0 -339 -18 -339 -199c0 -109 76 -156 183 -156c142 0 292 82 292 236
v119z" />
    <glyph glyph-name="ae" unicode="&#xe6;" horiz-adv-x="1810" 
d="M294 757l-176 75c86 187 238 260 430 260c144 0 279 -42 346 -170c88 113 217 170 358 170c324 0 480 -233 480 -536v-62h-768c0 -192 93 -348 302 -348c123 0 252 54 308 166l156 -65c-75 -187 -275 -267 -458 -267c-170 0 -327 69 -415 216
c-101 -157 -236 -216 -419 -216c-199 0 -365 101 -365 316c0 289 299 343 545 343h143c0 173 -15 287 -218 287c-115 0 -210 -59 -249 -169zM970 640h549c-11 168 -82 290 -258 290c-183 0 -269 -132 -291 -290zM761 494h-142c-129 0 -333 -15 -333 -188
c0 -121 72 -167 185 -167c145 0 290 74 290 236v119z" />
    <glyph glyph-name="ccedilla" unicode="&#xe7;" horiz-adv-x="1162" 
d="M364 -266h125c7 -43 40 -72 84 -72c42 0 77 26 77 72c0 42 -30 67 -71 67c-21 0 -41 -6 -60 -16l-67 61l77 140c-288 35 -448 262 -448 540c0 316 208 566 532 566c224 0 377 -91 465 -298l-180 -78c-40 121 -157 204 -295 204c-207 0 -305 -188 -305 -382
c0 -210 89 -388 322 -388c152 0 260 95 311 233l160 -70c-59 -197 -245 -320 -447 -331l-47 -86c9 1 19 2 31 2c98 0 168 -71 168 -170c0 -123 -108 -170 -213 -170c-114 0 -208 56 -219 176z" />
    <glyph glyph-name="egrave" unicode="&#xe8;" horiz-adv-x="1171" 
d="M529 1244l-213 309h246l125 -309h-158zM896 315l176 -75c-97 -187 -254 -260 -461 -260c-327 0 -530 227 -530 549c0 313 190 564 518 564c340 0 494 -238 494 -555v-46h-795c5 -201 102 -347 313 -347c132 0 226 57 285 170zM304 644h578c-13 176 -99 287 -283 287
c-173 0 -271 -124 -295 -287z" />
    <glyph glyph-name="eacute" unicode="&#xe9;" horiz-adv-x="1171" 
d="M507 1244l123 309h246l-213 -309h-156zM896 315l176 -75c-97 -187 -254 -260 -461 -260c-327 0 -530 227 -530 549c0 313 190 564 518 564c340 0 494 -238 494 -555v-46h-795c5 -201 102 -347 313 -347c132 0 226 57 285 170zM304 644h578c-13 176 -99 287 -283 287
c-173 0 -271 -124 -295 -287z" />
    <glyph glyph-name="ecircumflex" unicode="&#xea;" horiz-adv-x="1171" 
d="M282 1244l227 303h178l223 -303h-153l-162 146l-164 -146h-149zM896 315l176 -75c-97 -187 -254 -260 -461 -260c-327 0 -530 227 -530 549c0 313 190 564 518 564c340 0 494 -238 494 -555v-46h-795c5 -201 102 -347 313 -347c132 0 226 57 285 170zM304 644h578
c-13 176 -99 287 -283 287c-173 0 -271 -124 -295 -287z" />
    <glyph glyph-name="edieresis" unicode="&#xeb;" horiz-adv-x="1171" 
d="M642 1388c0 67 57 121 124 121c66 0 122 -52 122 -121c0 -68 -56 -121 -122 -121c-67 0 -124 55 -124 121zM288 1387c0 68 56 122 123 122c66 0 123 -54 123 -121c0 -66 -57 -121 -123 -121s-123 53 -123 120zM896 315l176 -75c-94 -182 -262 -260 -454 -260
c-338 0 -537 240 -537 552c0 315 202 561 518 561c375 0 494 -267 494 -601h-795c5 -197 105 -347 310 -347c131 0 231 62 288 170zM304 644h578c-8 176 -100 287 -283 287c-172 0 -271 -127 -295 -287z" />
    <glyph glyph-name="igrave" unicode="&#xec;" horiz-adv-x="536" 
d="M200 1244l-213 309h246l124 -309h-157zM161 0v1072h211v-1072h-211z" />
    <glyph glyph-name="iacute" unicode="&#xed;" horiz-adv-x="536" 
d="M177 1244l123 309h246l-213 -309h-156zM161 0v1072h211v-1072h-211z" />
    <glyph glyph-name="icircumflex" unicode="&#xee;" horiz-adv-x="536" 
d="M-48 1244l227 303h178l224 -303h-154l-162 146l-164 -146h-149zM161 0v1072h211v-1072h-211z" />
    <glyph glyph-name="idieresis" unicode="&#xef;" horiz-adv-x="536" 
d="M-18 1387c0 68 56 122 123 122c66 0 123 -54 123 -121c0 -66 -57 -121 -123 -121s-123 53 -123 120zM303 1388c0 67 61 121 126 121s120 -57 120 -121c0 -66 -57 -121 -123 -121s-123 55 -123 121zM161 0v1072h211v-1072h-211z" />
    <glyph glyph-name="eth" unicode="&#xf0;" horiz-adv-x="1240" 
d="M357 1166l-57 105l205 110c-80 72 -166 133 -254 195h258c57 -33 111 -70 164 -109l180 97l57 -107l-139 -74c221 -203 387 -486 387 -792v-45c0 -321 -215 -566 -540 -566c-319 0 -537 237 -537 553c0 283 175 555 481 555c121 0 220 -43 295 -135
c-64 129 -157 241 -258 342zM617 150c223 0 324 175 324 386c0 196 -88 387 -319 387c-221 0 -324 -175 -324 -377c0 -209 88 -396 319 -396z" />
    <glyph glyph-name="ntilde" unicode="&#xf1;" horiz-adv-x="1234" 
d="M425 1252h-139c13 119 76 254 205 254c56 0 100 -25 139 -48c48 -28 69 -36 89 -36c49 0 73 51 81 88h140c-11 -117 -80 -256 -206 -256c-54 0 -100 26 -140 49c-47 27 -69 35 -89 35c-48 0 -72 -47 -80 -86zM155 0v1072h213v-170c64 129 207 191 355 191
c251 0 378 -179 378 -426v-667h-213v660c0 166 -80 254 -247 254c-164 0 -273 -109 -273 -274v-640h-213z" />
    <glyph glyph-name="ograve" unicode="&#xf2;" horiz-adv-x="1240" 
d="M551 1244l-212 309h245l125 -309h-158zM616 -20c-324 0 -541 240 -541 557c0 319 221 556 544 556s541 -237 541 -556c0 -322 -223 -557 -544 -557zM615 150c228 0 326 182 326 386c0 206 -99 387 -324 387c-228 0 -323 -183 -323 -390s96 -383 321 -383z" />
    <glyph glyph-name="oacute" unicode="&#xf3;" horiz-adv-x="1240" 
d="M528 1244l123 309h245l-212 -309h-156zM616 -20c-324 0 -541 240 -541 557c0 319 221 556 544 556s541 -237 541 -556c0 -322 -223 -557 -544 -557zM615 150c228 0 326 182 326 386c0 206 -99 387 -324 387c-228 0 -323 -183 -323 -390s96 -383 321 -383z" />
    <glyph glyph-name="ocircumflex" unicode="&#xf4;" horiz-adv-x="1240" 
d="M304 1244l227 303h178l222 -303h-153l-161 146l-163 -146h-150zM614 -20c-321 0 -539 240 -539 557c0 319 221 556 542 556c323 0 543 -237 543 -554c0 -321 -226 -559 -546 -559zM617 150c226 0 324 182 324 386c0 206 -99 387 -324 387c-227 0 -323 -185 -323 -387
c0 -207 100 -386 323 -386z" />
    <glyph glyph-name="otilde" unicode="&#xf5;" horiz-adv-x="1240" 
d="M431 1252h-139c13 119 76 254 203 254c51 0 92 -21 127 -41c1 0 2 -1 3 -2l6 -3c1 -1 2 -1 3 -2c31 -18 63 -36 92 -36c48 0 72 51 80 88h139c-11 -115 -78 -256 -206 -256c-53 0 -97 24 -141 50c-46 26 -66 34 -86 34c-47 0 -76 -47 -81 -86zM616 -20
c-324 0 -541 240 -541 557c0 319 221 556 544 556s541 -237 541 -556c0 -322 -223 -557 -544 -557zM615 150c228 0 326 182 326 386c0 206 -99 387 -324 387c-228 0 -323 -183 -323 -390s96 -383 321 -383z" />
    <glyph glyph-name="odieresis" unicode="&#xf6;" horiz-adv-x="1240" 
d="M298 1388c0 67 56 121 123 121s123 -52 123 -121c0 -68 -56 -121 -123 -121s-123 53 -123 121zM693 1388c0 67 58 121 125 121c65 0 121 -52 121 -121c0 -68 -56 -121 -122 -121c-67 0 -124 55 -124 121zM615 -20c-323 0 -540 240 -540 557c0 319 220 556 543 556
c322 0 542 -237 542 -555c0 -320 -224 -558 -545 -558zM618 150c227 0 323 182 323 385c0 207 -99 388 -323 388c-228 0 -324 -185 -324 -387c0 -207 100 -386 324 -386z" />
    <glyph glyph-name="divide" unicode="&#xf7;" horiz-adv-x="1106" 
d="M407 1094c0 82 65 143 145 143c81 0 144 -63 144 -143c0 -79 -63 -144 -144 -144c-80 0 -145 62 -145 144zM84 616v166h938v-166h-938zM407 306c0 81 65 143 146 143s143 -63 143 -144c0 -80 -63 -143 -143 -143s-146 63 -146 144z" />
    <glyph glyph-name="oslash" unicode="&#xf8;" horiz-adv-x="1240" 
d="M44 6l152 166c-80 100 -123 226 -123 355c0 324 216 566 546 566c115 0 230 -30 322 -101l138 150l96 -82l-143 -152c88 -100 132 -230 132 -362c0 -326 -216 -566 -541 -566c-123 0 -242 34 -337 106l-150 -162zM337 326l479 529c-56 47 -125 68 -200 68
c-217 0 -324 -173 -324 -377c0 -77 15 -150 45 -220zM894 755l-485 -532c56 -50 135 -73 212 -73c214 0 324 176 324 377c0 80 -18 156 -51 228z" />
    <glyph glyph-name="ugrave" unicode="&#xf9;" horiz-adv-x="1240" 
d="M562 1244l-213 309h246l123 -309h-156zM874 0v170c-64 -129 -199 -190 -347 -190c-245 0 -380 166 -380 409v683h210v-664c0 -161 77 -252 244 -252c162 0 273 110 273 272v644h210v-1072h-210z" />
    <glyph glyph-name="uacute" unicode="&#xfa;" horiz-adv-x="1240" 
d="M536 1244l125 309h245l-213 -309h-157zM871 0v170c-64 -129 -199 -190 -347 -190c-243 0 -380 166 -380 409v683h211v-664c0 -164 79 -252 246 -252c161 0 270 112 270 272v644h211v-1072h-211z" />
    <glyph glyph-name="ucircumflex" unicode="&#xfb;" horiz-adv-x="1240" 
d="M314 1244l228 303h176l223 -303h-151l-164 146l-164 -146h-148zM874 0v170c-64 -129 -199 -190 -347 -190c-245 0 -380 166 -380 409v683h210v-664c0 -161 77 -252 244 -252c162 0 273 110 273 272v644h210v-1072h-210z" />
    <glyph glyph-name="udieresis" unicode="&#xfc;" horiz-adv-x="1240" 
d="M306 1388c0 67 58 121 125 121c65 0 121 -52 121 -121c0 -68 -56 -121 -122 -121c-67 0 -124 55 -124 121zM704 1388c0 65 54 121 121 121s124 -54 124 -121c0 -66 -57 -121 -123 -121s-122 55 -122 121zM874 0v170c-64 -129 -199 -190 -347 -190
c-245 0 -380 166 -380 409v683h210v-664c0 -161 77 -252 244 -252c162 0 273 110 273 272v644h210v-1072h-210z" />
    <glyph glyph-name="yacute" unicode="&#xfd;" horiz-adv-x="1105" 
d="M478 1244l123 309h246l-213 -309h-156zM265 -371l197 482l-422 961h229l306 -728l276 728h211l-588 -1443h-209z" />
    <glyph glyph-name="thorn" unicode="&#xfe;" horiz-adv-x="1285" 
d="M155 -371v1947h213v-682c72 122 218 199 356 199c312 0 479 -254 479 -544c0 -298 -150 -569 -479 -569c-143 0 -284 64 -356 192v-543h-213zM676 152c234 0 310 173 310 371c0 199 -77 398 -311 398c-219 0 -316 -174 -316 -378c0 -217 83 -391 317 -391z" />
    <glyph glyph-name="ydieresis" unicode="&#xff;" horiz-adv-x="1105" 
d="M644 1387c0 66 56 122 123 122c66 0 123 -54 123 -121c0 -66 -57 -121 -123 -121s-123 53 -123 120zM247 1387c0 66 57 122 123 122s123 -54 123 -121c0 -66 -57 -121 -123 -121c-65 0 -123 55 -123 120zM265 -371l197 482l-422 961h229l306 -728l276 728h211l-588 -1443
h-209z" />
    <glyph glyph-name="Amacron" unicode="&#x100;" horiz-adv-x="1406" 
d="M417 1604v149h569v-149h-569zM60 0l496 1464h301l488 -1464h-232l-117 356h-602l-118 -356h-216zM450 528h489l-244 748z" />
    <glyph glyph-name="amacron" unicode="&#x101;" horiz-adv-x="1117" 
d="M280 1312v147h557v-147h-557zM761 0v133c-79 -107 -201 -153 -330 -153c-196 0 -358 108 -358 316c0 288 311 335 559 337l127 1c0 171 -26 293 -227 293c-108 0 -215 -66 -252 -170l-174 75c77 183 254 261 442 261c248 0 422 -135 422 -392v-701h-209zM759 494h-135
c-129 0 -340 -18 -340 -199c0 -109 76 -156 186 -156c140 0 289 78 289 236v119z" />
    <glyph glyph-name="Abreve" unicode="&#x102;" horiz-adv-x="1406" 
d="M415 1843h155c13 -72 52 -123 129 -123s125 50 138 123h153c-11 -156 -133 -278 -294 -278c-159 0 -273 120 -281 278zM60 0l496 1464h301l488 -1464h-232l-117 356h-602l-118 -356h-216zM450 528h489l-244 748z" />
    <glyph glyph-name="abreve" unicode="&#x103;" horiz-adv-x="1117" 
d="M271 1537h156c11 -74 49 -125 129 -125c79 0 127 49 139 125h152c-8 -160 -128 -284 -291 -284s-274 126 -285 284zM761 0v133c-79 -107 -201 -153 -330 -153c-196 0 -358 108 -358 316c0 285 304 335 551 337l135 1c0 171 -26 293 -227 293c-108 0 -215 -66 -252 -170
l-174 75c77 183 254 261 442 261c248 0 422 -135 422 -392v-701h-209zM759 494h-135c-129 0 -340 -18 -340 -199c0 -109 76 -156 186 -156c140 0 289 78 289 236v119z" />
    <glyph glyph-name="Aogonek" unicode="&#x104;" horiz-adv-x="1406" 
d="M60 0l496 1464h301l486 -1458c-76 -14 -168 -90 -168 -171c0 -46 29 -68 73 -68c33 0 66 3 97 18v-131c-47 -19 -93 -27 -139 -27c-107 0 -226 43 -226 163c0 99 81 169 162 210h-29l-117 356h-602l-118 -356h-216zM450 528h489l-244 748z" />
    <glyph glyph-name="aogonek" unicode="&#x105;" horiz-adv-x="1152" 
d="M761 0v133c-79 -104 -202 -151 -333 -151c-195 0 -355 103 -355 311c0 285 299 340 544 340h142c0 173 -22 293 -225 293c-111 0 -210 -65 -250 -169l-172 75c77 183 249 260 437 260c247 0 421 -134 421 -391v-691l-19 -13c-91 -64 -125 -106 -125 -157
c0 -49 33 -74 76 -74c33 0 65 4 96 19v-131c-47 -19 -92 -27 -137 -27c-107 0 -225 46 -225 165c0 98 81 168 164 208h-39zM759 494h-135c-129 0 -340 -18 -340 -199c0 -109 76 -156 183 -156c142 0 292 82 292 236v119z" />
    <glyph glyph-name="Cacute" unicode="&#x106;" horiz-adv-x="1504" 
d="M648 1573l112 268h248l-203 -268h-157zM1250 489l181 -79c-96 -265 -338 -430 -619 -430c-463 0 -713 311 -713 759c0 411 277 748 695 748c275 0 521 -146 620 -402l-186 -81c-72 179 -221 301 -418 301c-331 0 -471 -284 -471 -573c0 -305 156 -566 481 -566
c202 0 363 138 430 323z" />
    <glyph glyph-name="cacute" unicode="&#x107;" horiz-adv-x="1166" 
d="M435 1244l123 309h246l-213 -309h-156zM923 382l172 -73c-74 -218 -265 -329 -491 -329c-333 0 -523 240 -523 563c0 308 217 550 541 550c206 0 382 -98 467 -299l-181 -77c-42 124 -164 204 -301 204c-217 0 -309 -199 -309 -395c0 -204 100 -374 322 -374
c147 0 258 95 303 230z" />
    <glyph glyph-name="Ccircumflex" unicode="&#x108;" horiz-adv-x="1504" 
d="M454 1573l223 268h186l219 -268h-153l-162 117l-164 -117h-149zM1250 489l181 -79c-96 -265 -338 -430 -619 -430c-463 0 -713 311 -713 759c0 411 277 748 695 748c275 0 521 -146 620 -402l-186 -81c-72 179 -221 301 -418 301c-331 0 -471 -284 -471 -573
c0 -305 156 -566 481 -566c202 0 363 138 430 323z" />
    <glyph glyph-name="ccircumflex" unicode="&#x109;" horiz-adv-x="1166" 
d="M269 1244l228 303h176l225 -303h-153l-164 146l-164 -146h-148zM923 382l172 -73c-74 -218 -265 -329 -491 -329c-333 0 -523 240 -523 563c0 308 217 550 541 550c206 0 382 -98 467 -299l-181 -77c-42 124 -164 204 -301 204c-217 0 -309 -199 -309 -395
c0 -204 100 -374 322 -374c147 0 258 95 303 230z" />
    <glyph glyph-name="Cdotaccent" unicode="&#x10a;" horiz-adv-x="1504" 
d="M636 1726c0 70 59 127 130 127c69 0 130 -57 130 -126c0 -68 -60 -128 -129 -128c-67 0 -131 55 -131 127zM1250 489l181 -79c-96 -265 -338 -430 -619 -430c-463 0 -713 311 -713 759c0 411 277 748 695 748c275 0 521 -146 620 -402l-186 -81
c-72 179 -221 301 -418 301c-331 0 -471 -284 -471 -573c0 -305 156 -566 481 -566c202 0 363 138 430 323z" />
    <glyph glyph-name="cdotaccent" unicode="&#x10b;" horiz-adv-x="1166" 
d="M454 1400c0 70 60 127 129 127c70 0 131 -56 131 -127c0 -72 -60 -127 -129 -127c-71 0 -131 58 -131 127zM923 382l172 -73c-74 -218 -265 -329 -491 -329c-333 0 -523 240 -523 563c0 308 217 550 541 550c206 0 382 -98 467 -299l-181 -77c-42 124 -164 204 -301 204
c-217 0 -309 -199 -309 -395c0 -204 100 -374 322 -374c147 0 258 95 303 230z" />
    <glyph glyph-name="Ccaron" unicode="&#x10c;" horiz-adv-x="1504" 
d="M673 1573l-219 268h153l164 -115l162 115h149l-223 -268h-186zM1250 489l181 -79c-96 -265 -338 -430 -619 -430c-463 0 -713 311 -713 759c0 411 277 748 695 748c275 0 521 -146 620 -402l-186 -81c-72 179 -221 301 -418 301c-331 0 -471 -284 -471 -573
c0 -305 156 -566 481 -566c202 0 363 138 430 323z" />
    <glyph glyph-name="ccaron" unicode="&#x10d;" horiz-adv-x="1166" 
d="M493 1244l-224 303h154l162 -145l164 145h149l-227 -303h-178zM923 382l172 -73c-74 -218 -265 -329 -491 -329c-333 0 -523 240 -523 563c0 308 217 550 541 550c206 0 382 -98 467 -299l-181 -77c-42 124 -164 204 -301 204c-217 0 -309 -199 -309 -395
c0 -204 100 -374 322 -374c147 0 258 95 303 230z" />
    <glyph glyph-name="Dcaron" unicode="&#x10e;" horiz-adv-x="1482" 
d="M564 1573l-219 268h154l164 -115l161 115h150l-223 -268h-187zM173 0v1464h459c467 0 749 -256 749 -727c0 -476 -289 -737 -753 -737h-455zM403 182h219c358 0 522 214 522 562c0 349 -164 538 -524 538h-217v-1100z" />
    <glyph glyph-name="dcaron" unicode="&#x10f;" horiz-adv-x="1455" 
d="M925 0v182c-70 -123 -220 -202 -361 -202c-313 0 -483 242 -483 541c0 298 168 572 490 572c153 0 279 -62 354 -191v674h211v-1576h-211zM1230 1218l22 358h209l-98 -358h-133zM612 152c218 0 319 172 319 376c0 209 -70 393 -307 393c-231 0 -324 -175 -324 -382
c0 -196 83 -387 312 -387z" />
    <glyph glyph-name="Dcroat" unicode="&#x110;" horiz-adv-x="1527" 
d="M212 0v651h-147v168h147v645h459c455 0 751 -251 751 -719c0 -478 -278 -745 -753 -745h-457zM441 182h222c349 0 520 209 520 547c0 352 -158 553 -522 553h-220v-463h385v-168h-385v-469z" />
    <glyph glyph-name="dcroat" unicode="&#x111;" horiz-adv-x="1293" 
d="M925 0v182c-70 -123 -220 -202 -361 -202c-313 0 -483 242 -483 541c0 298 168 572 490 572c153 0 279 -62 354 -191v346h-355v139h355v189h211v-189h145v-139h-145v-1248h-211zM612 152c218 0 319 172 319 376c0 209 -70 393 -307 393c-231 0 -324 -175 -324 -382
c0 -196 83 -387 312 -387z" />
    <glyph glyph-name="Emacron" unicode="&#x112;" horiz-adv-x="1187" 
d="M353 1604v149h570v-149h-570zM173 0v1464h901v-182h-674v-446h545v-179h-545v-475h709v-182h-936z" />
    <glyph glyph-name="emacron" unicode="&#x113;" horiz-adv-x="1171" 
d="M310 1312v147h555v-147h-555zM894 315l176 -75c-93 -181 -260 -260 -452 -260c-332 0 -537 238 -537 554c0 310 198 559 518 559c347 0 494 -246 494 -566v-35h-795c5 -197 105 -347 308 -347c130 0 232 62 288 170zM304 644h578c-8 176 -100 287 -283 287
c-172 0 -271 -127 -295 -287z" />
    <glyph glyph-name="Ebreve" unicode="&#x114;" horiz-adv-x="1187" 
d="M362 1843h155c12 -72 52 -123 130 -123c76 0 124 48 136 123h154c-11 -156 -132 -278 -293 -278c-160 0 -274 119 -282 278zM173 0v1464h901v-182h-674v-446h545v-179h-545v-475h709v-182h-936z" />
    <glyph glyph-name="ebreve" unicode="&#x115;" horiz-adv-x="1171" 
d="M298 1537h156c11 -72 53 -125 133 -125c76 0 120 49 135 125h152c-11 -157 -130 -283 -292 -283c-161 0 -276 126 -284 283zM896 315l176 -75c-94 -182 -262 -260 -454 -260c-338 0 -537 240 -537 552c0 315 202 561 518 561c375 0 494 -267 494 -601h-795
c5 -197 105 -347 310 -347c131 0 231 62 288 170zM304 644h578c-11 173 -101 287 -275 287c-182 0 -279 -126 -303 -287z" />
    <glyph glyph-name="Edotaccent" unicode="&#x116;" horiz-adv-x="1187" 
d="M507 1726c0 72 60 127 129 127c70 0 131 -57 131 -126c0 -70 -60 -128 -131 -128c-69 0 -129 55 -129 127zM173 0v1464h901v-182h-674v-446h545v-179h-545v-475h709v-182h-936z" />
    <glyph glyph-name="edotaccent" unicode="&#x117;" horiz-adv-x="1171" 
d="M458 1400c0 72 61 127 131 127c68 0 131 -54 131 -126c0 -71 -60 -128 -131 -128s-131 55 -131 127zM894 315l176 -75c-93 -181 -260 -260 -452 -260c-332 0 -537 238 -537 554c0 310 198 559 518 559c347 0 494 -246 494 -566v-35h-795c5 -197 105 -347 308 -347
c130 0 232 62 288 170zM304 644h578c-8 176 -100 287 -283 287c-172 0 -271 -127 -295 -287z" />
    <glyph glyph-name="Eogonek" unicode="&#x118;" horiz-adv-x="1216" 
d="M168 0v1464h951v-182h-721v-449h590v-171h-590v-480h755v-182h-94c-57 -39 -128 -95 -128 -171c0 -53 35 -76 90 -76c26 0 55 5 81 16v-115c-45 -22 -95 -27 -145 -27c-99 0 -211 43 -211 157c0 99 86 173 164 216h-742z" />
    <glyph glyph-name="eogonek" unicode="&#x119;" horiz-adv-x="1171" 
d="M941 -217v-129c-47 -23 -90 -27 -141 -27c-104 0 -219 43 -219 160c0 93 73 161 145 201c-39 -7 -76 -8 -115 -8c-321 0 -530 227 -530 552c0 307 187 560 525 560c318 0 487 -224 487 -536v-64h-795c0 -200 105 -347 309 -347c130 0 252 59 305 172l170 -75
c-18 -48 -58 -97 -157 -193c-78 -75 -154 -149 -154 -219c0 -43 29 -66 74 -66c33 0 65 4 96 19zM304 644h578c-13 176 -99 286 -283 286c-173 0 -271 -123 -295 -286z" />
    <glyph glyph-name="Ecaron" unicode="&#x11a;" horiz-adv-x="1187" 
d="M550 1573l-221 268h155l162 -115l164 115h150l-224 -268h-186zM173 0v1464h901v-182h-674v-446h545v-179h-545v-475h709v-182h-936z" />
    <glyph glyph-name="ecaron" unicode="&#x11b;" horiz-adv-x="1171" 
d="M499 1244l-226 303h154l164 -145l162 145h149l-227 -303h-176zM894 315l176 -75c-93 -181 -260 -260 -452 -260c-332 0 -537 238 -537 554c0 310 198 559 518 559c347 0 494 -246 494 -566v-35h-795c5 -197 105 -347 308 -347c130 0 232 62 288 170zM304 644h578
c-8 176 -100 287 -283 287c-172 0 -271 -127 -295 -287z" />
    <glyph glyph-name="Gcircumflex" unicode="&#x11c;" horiz-adv-x="1564" 
d="M478 1573l226 268h186l219 -268h-154l-163 117l-162 -117h-152zM853 559v182h610v-503c-173 -176 -390 -258 -630 -258c-466 0 -734 311 -734 759c0 428 292 748 731 748c268 0 487 -119 601 -371l-201 -88c-76 176 -211 277 -404 277c-326 0 -489 -289 -489 -582
c0 -315 158 -561 499 -561c150 0 299 48 412 152v245h-395z" />
    <glyph glyph-name="gcircumflex" unicode="&#x11d;" horiz-adv-x="1300" 
d="M325 1244l227 303h176l223 -303h-151l-164 146l-164 -146h-147zM108 -133l168 74c56 -125 195 -166 321 -166c197 0 334 100 334 307v158c-75 -126 -226 -201 -371 -201c-297 0 -479 234 -479 516c0 288 190 538 488 538c147 0 287 -61 362 -187v166h211v-996
c0 -323 -247 -469 -552 -469c-196 0 -391 60 -482 260zM609 207c211 0 328 161 328 367c0 195 -105 351 -314 351c-218 0 -325 -169 -325 -366c0 -182 118 -352 311 -352z" />
    <glyph glyph-name="Gbreve" unicode="&#x11e;" horiz-adv-x="1564" 
d="M507 1843h156c11 -72 53 -123 129 -123s122 51 137 123h153c-11 -156 -132 -278 -293 -278c-158 0 -277 118 -282 278zM853 559v182h610v-503c-173 -176 -390 -258 -630 -258c-466 0 -734 311 -734 759c0 428 292 748 731 748c268 0 487 -119 601 -371l-201 -88
c-76 176 -211 277 -404 277c-326 0 -489 -289 -489 -582c0 -315 158 -561 499 -561c150 0 299 48 412 152v245h-395z" />
    <glyph glyph-name="gbreve" unicode="&#x11f;" horiz-adv-x="1300" 
d="M362 1537h155c11 -72 53 -125 133 -125c76 0 123 47 135 125h152c-11 -157 -129 -283 -291 -283c-161 0 -276 126 -284 283zM108 -133l168 74c56 -125 195 -166 321 -166c197 0 334 100 334 307v158c-75 -126 -226 -201 -371 -201c-301 0 -479 237 -479 517
c0 292 194 537 489 537c146 0 286 -59 361 -187v166h211v-996c0 -326 -245 -469 -550 -469c-198 0 -393 60 -484 260zM609 207c212 0 328 165 328 368c0 197 -109 350 -317 350c-219 0 -322 -169 -322 -370c0 -181 119 -348 311 -348z" />
    <glyph glyph-name="Gdotaccent" unicode="&#x120;" horiz-adv-x="1564" 
d="M665 1726c0 69 60 127 128 127s132 -57 132 -126c0 -68 -61 -128 -130 -128c-67 0 -130 58 -130 127zM853 559v182h610v-503c-173 -176 -390 -258 -630 -258c-466 0 -734 311 -734 759c0 428 292 748 731 748c268 0 487 -119 601 -371l-201 -88
c-76 176 -211 277 -404 277c-326 0 -489 -289 -489 -582c0 -315 158 -561 499 -561c150 0 299 48 412 152v245h-395z" />
    <glyph glyph-name="gdotaccent" unicode="&#x121;" horiz-adv-x="1300" 
d="M507 1400c0 72 60 127 130 127c69 0 132 -54 132 -126c0 -71 -60 -128 -131 -128s-131 55 -131 127zM108 -133l168 74c56 -125 195 -166 321 -166c197 0 334 100 334 307v158c-75 -126 -226 -201 -371 -201c-297 0 -479 234 -479 516c0 288 190 538 488 538
c147 0 287 -61 362 -187v166h211v-996c0 -323 -247 -469 -552 -469c-196 0 -391 60 -482 260zM609 207c211 0 328 161 328 367c0 195 -105 351 -314 351c-218 0 -325 -169 -325 -366c0 -182 118 -352 311 -352z" />
    <glyph glyph-name="uni0122" unicode="&#x122;" horiz-adv-x="1564" 
d="M853 559v182h610v-503c-173 -176 -390 -258 -630 -258c-466 0 -734 311 -734 759c0 428 292 746 731 746c268 0 487 -117 601 -369l-201 -88c-76 176 -211 275 -404 275c-326 0 -489 -287 -489 -580c0 -315 158 -561 499 -561c150 0 299 48 412 152v245h-395zM624 -401
l110 329l199 -47l-184 -338z" />
    <glyph glyph-name="uni0123" unicode="&#x123;" horiz-adv-x="1300" 
d="M480 1268l197 309l125 -53l-125 -319zM108 -133l168 74c56 -125 195 -166 321 -166c197 0 334 100 334 307v158c-75 -126 -226 -201 -371 -201c-297 0 -479 234 -479 516c0 288 190 538 488 538c147 0 287 -61 362 -187v166h211v-996c0 -323 -247 -469 -552 -469
c-196 0 -391 60 -482 260zM609 207c211 0 328 161 328 367c0 195 -105 351 -314 351c-218 0 -325 -169 -325 -366c0 -182 118 -352 311 -352z" />
    <glyph glyph-name="Hcircumflex" unicode="&#x124;" horiz-adv-x="1533" 
d="M452 1573l223 268h185l219 -268h-153l-161 117l-164 -117h-149zM173 0v1464h230v-641h728v641h230v-1464h-230v635h-728v-635h-230z" />
    <glyph glyph-name="hcircumflex" unicode="&#x125;" horiz-adv-x="1232" 
d="M323 1655l226 291h176l225 -291h-154l-163 119l-163 -119h-147zM155 0v1576h213v-674c64 129 207 191 355 191c251 0 376 -179 376 -426v-667h-213v660c0 164 -78 254 -236 254c-173 0 -282 -109 -282 -274v-640h-213z" />
    <glyph glyph-name="Hbar" unicode="&#x126;" horiz-adv-x="1533" 
d="M173 0v1022h-139v149h139v293h230v-293h728v293h230v-293h139v-149h-139v-1022h-230v635h-728v-635h-230zM403 823h728v199h-728v-199z" />
    <glyph glyph-name="hbar" unicode="&#x127;" horiz-adv-x="1232" 
d="M155 0v1248h-146v139h146v189h213v-189h354v-139h-354v-346c64 129 207 191 355 191c252 0 376 -179 376 -426v-667h-213v660c0 164 -76 254 -244 254c-163 0 -274 -109 -274 -274v-640h-213z" />
    <glyph glyph-name="Itilde" unicode="&#x128;" horiz-adv-x="595" 
d="M112 1575h-142c13 119 78 254 209 254c52 0 93 -21 137 -47c33 -19 64 -37 93 -37c48 0 72 47 80 86h141c-11 -117 -79 -252 -206 -252c-56 0 -103 26 -148 51c-28 16 -58 33 -85 33c-46 0 -74 -48 -79 -88zM181 0v1464h232v-1464h-232z" />
    <glyph glyph-name="itilde" unicode="&#x129;" horiz-adv-x="536" 
d="M79 1252h-137c11 120 75 254 206 254c53 0 92 -21 132 -45c51 -30 72 -39 93 -39c50 0 78 49 83 88h139c-11 -117 -77 -256 -205 -256c-56 0 -102 26 -138 47c-5 3 -7 3 -8 4l-1 1h-1c-2 1 -2 1 -10 6c-21 12 -47 26 -72 26c-46 0 -73 -47 -81 -86zM161 0v1072h211v-1072
h-211z" />
    <glyph glyph-name="Imacron" unicode="&#x12a;" horiz-adv-x="595" 
d="M11 1604v149h570v-149h-570zM181 0v1464h232v-1464h-232z" />
    <glyph glyph-name="imacron" unicode="&#x12b;" horiz-adv-x="536" 
d="M56 1312v147h420v-147h-420zM161 0v1072h211v-1072h-211z" />
    <glyph glyph-name="Ibreve" unicode="&#x12c;" horiz-adv-x="595" 
d="M11 1843h158c11 -72 51 -123 130 -123c76 0 121 48 136 123h154c-11 -156 -134 -278 -293 -278c-160 0 -274 122 -285 278zM181 0v1464h232v-1464h-232z" />
    <glyph glyph-name="ibreve" unicode="&#x12d;" horiz-adv-x="536" 
d="M-19 1537h155c11 -74 49 -125 129 -125s125 51 140 125h151c-11 -157 -129 -283 -292 -283c-162 0 -275 124 -283 283zM161 0v1072h211v-1072h-211z" />
    <glyph glyph-name="Iogonek" unicode="&#x12e;" horiz-adv-x="708" 
d="M529 -215v-131c-45 -18 -92 -27 -139 -27c-103 0 -227 43 -227 164c0 98 84 169 164 209h-19v1464h215v-1435l-39 -26c-95 -61 -127 -101 -127 -157c0 -57 32 -79 76 -79c33 0 65 3 96 18z" />
    <glyph glyph-name="iogonek" unicode="&#x12f;" horiz-adv-x="616" 
d="M202 1400c0 72 60 129 131 129s131 -57 131 -129s-60 -129 -131 -129s-131 57 -131 129zM228 0v1072h213v-1068c-59 -38 -135 -93 -135 -167c0 -49 33 -73 76 -73c33 0 65 4 96 19v-129c-47 -19 -92 -27 -137 -27c-107 0 -225 45 -225 164c0 98 81 169 164 209h-52z" />
    <glyph glyph-name="Idotaccent" unicode="&#x130;" horiz-adv-x="595" 
d="M167 1726c0 70 60 127 131 127c69 0 129 -55 129 -127s-61 -127 -130 -127c-70 0 -130 58 -130 127zM181 0v1464h232v-1464h-232z" />
    <glyph glyph-name="dotlessi" unicode="&#x131;" horiz-adv-x="536" 
d="M161 0v1071h211v-1071h-211z" />
    <glyph glyph-name="IJ" unicode="&#x132;" horiz-adv-x="1404" 
d="M597 23v182c61 -25 124 -39 184 -39c171 0 234 114 234 264v1034h229v-1042c0 -275 -152 -440 -430 -440c-75 0 -149 6 -217 41zM181 0v1464h232v-1464h-232z" />
    <glyph glyph-name="ij" unicode="&#x133;" horiz-adv-x="1074" 
d="M132 1398c0 72 60 129 132 129c71 0 134 -55 134 -129c0 -72 -62 -129 -133 -129s-133 57 -133 129zM673 1398c0 72 60 129 131 129s131 -57 131 -129s-60 -129 -131 -129s-131 57 -131 129zM549 -389v170c100 8 150 54 150 158v1133h213v-1123
c0 -246 -135 -333 -363 -338zM161 0v1072h213v-1072h-213z" />
    <glyph glyph-name="Jcircumflex" unicode="&#x134;" horiz-adv-x="880" 
d="M286 1573l223 268h186l222 -268h-156l-162 117l-164 -117h-149zM73 23v182c60 -25 125 -39 185 -39c170 0 233 113 233 264v1034h231v-1042c0 -275 -155 -440 -432 -440c-75 0 -149 6 -217 41z" />
    <glyph glyph-name="jcircumflex" unicode="&#x135;" horiz-adv-x="536" 
d="M-50 1244l227 303h178l224 -303h-154l-162 146l-164 -146h-149zM9 -389v170c101 8 152 54 152 158v1133h211v-1123c0 -246 -134 -333 -363 -338z" />
    <glyph glyph-name="uni0136" unicode="&#x136;" horiz-adv-x="1312" 
d="M173 0v1464h230v-680l602 682h249l-634 -706l665 -760h-272l-610 696v-696h-230zM493 -401l110 329l199 -47l-184 -338z" />
    <glyph glyph-name="uni0137" unicode="&#x137;" horiz-adv-x="1078" 
d="M155 0v1576h213v-983l411 479h238l-436 -493l471 -579h-250l-434 540v-540h-213zM378 -401l111 329l198 -47l-184 -338z" />
    <glyph glyph-name="kgreenlandic" unicode="&#x138;" horiz-adv-x="1093" 
d="M155 0v1071h213v-490l424 490h237l-448 -504l485 -567h-250l-448 528v-528h-213z" />
    <glyph glyph-name="Lacute" unicode="&#x139;" horiz-adv-x="1142" 
d="M198 1573l112 268h250l-203 -268h-159zM173 0v1464h230v-1280h677v-184h-907z" />
    <glyph glyph-name="lacute" unicode="&#x13a;" horiz-adv-x="536" 
d="M173 1571l115 270h246l-205 -270h-156zM161 0v1391l213 94v-1485h-213z" />
    <glyph glyph-name="uni013B" unicode="&#x13b;" horiz-adv-x="1142" 
d="M173 0v1464h230v-1280h677v-184h-907zM427 -401l113 329l196 -47l-182 -338z" />
    <glyph glyph-name="uni013C" unicode="&#x13c;" horiz-adv-x="536" 
d="M161 0v1500l213 94v-1594h-213zM83 -401l111 329l198 -47l-184 -338z" />
    <glyph glyph-name="Lcaron" unicode="&#x13d;" horiz-adv-x="1142" 
d="M173 0v1464h230v-1280h677v-184h-907zM626 1135l43 329h215l-119 -329h-139z" />
    <glyph glyph-name="lcaron" unicode="&#x13e;" horiz-adv-x="643" 
d="M161 0v1481l213 94v-1575h-213zM468 1218l23 357h208l-98 -357h-133z" />
    <glyph glyph-name="Ldot" unicode="&#x13f;" horiz-adv-x="1154" 
d="M173 0v1464h230v-1280h677v-184h-907zM855 647c-82 0 -147 67 -147 146c0 82 69 147 149 147c79 0 148 -64 148 -146c0 -81 -69 -147 -150 -147z" />
    <glyph glyph-name="ldot" unicode="&#x140;" horiz-adv-x="722" 
d="M161 0v1481l213 94v-1575h-213zM478 749c0 80 69 147 149 147s148 -66 148 -149c0 -81 -66 -146 -147 -146c-82 0 -150 68 -150 148z" />
    <glyph glyph-name="Lslash" unicode="&#x141;" horiz-adv-x="1183" 
d="M212 0v555l-137 -51v158l137 49v753h229v-671l400 145v-156l-400 -145v-453h680v-184h-909z" />
    <glyph glyph-name="lslash" unicode="&#x142;" horiz-adv-x="585" 
d="M185 0v697l-149 -82v164l149 82v620l213 94v-599l158 88v-164l-158 -86v-814h-213z" />
    <glyph glyph-name="Nacute" unicode="&#x143;" horiz-adv-x="1521" 
d="M686 1573l113 268h247l-202 -268h-158zM173 0v1464h285l678 -1128v1128h213v-1464h-248l-715 1184v-1184h-213z" />
    <glyph glyph-name="nacute" unicode="&#x144;" horiz-adv-x="1234" 
d="M522 1244l123 309h245l-212 -309h-156zM155 0v1072h213v-170c64 129 207 191 355 191c251 0 378 -179 378 -426v-667h-213v660c0 166 -80 254 -247 254c-164 0 -273 -109 -273 -274v-640h-213z" />
    <glyph glyph-name="uni0145" unicode="&#x145;" horiz-adv-x="1521" 
d="M173 0v1464h285l678 -1128v1128h213v-1464h-248l-715 1184v-1184h-213zM548 -401l112 329l196 -47l-182 -338z" />
    <glyph glyph-name="uni0146" unicode="&#x146;" horiz-adv-x="1234" 
d="M155 0v1072h213v-170c64 129 207 190 354 190c252 0 379 -178 379 -425v-667h-213v660c0 166 -80 253 -247 253c-164 0 -273 -108 -273 -273v-640h-213zM427 -401l112 329l196 -47l-182 -338z" />
    <glyph glyph-name="Ncaron" unicode="&#x147;" horiz-adv-x="1521" 
d="M682 1573l-218 268h152l164 -115l162 115h151l-225 -268h-186zM173 0v1464h285l678 -1128v1128h213v-1464h-248l-715 1184v-1184h-213z" />
    <glyph glyph-name="ncaron" unicode="&#x148;" horiz-adv-x="1234" 
d="M522 1244l-222 303h152l162 -145l163 145h148l-227 -303h-176zM155 0v1072h213v-170c64 129 207 191 355 191c251 0 378 -179 378 -426v-667h-213v660c0 166 -80 254 -247 254c-164 0 -273 -109 -273 -274v-640h-213z" />
    <glyph glyph-name="napostrophe" unicode="&#x149;" horiz-adv-x="1285" 
d="M-87 1033l178 455l195 -80l-248 -434zM206 0v1072h213v-170c64 129 207 191 355 191c251 0 378 -179 378 -426v-667h-213v660c0 166 -80 254 -247 254c-164 0 -273 -109 -273 -274v-640h-213z" />
    <glyph glyph-name="Eng" unicode="&#x14a;" horiz-adv-x="1500" 
d="M173 0v1464h285l655 -1095v1095h215v-1437c0 -265 -160 -422 -423 -422c-75 0 -148 6 -215 41v180c59 -26 122 -39 181 -39c146 0 223 80 230 219l-713 1186v-1192h-215z" />
    <glyph glyph-name="eng" unicode="&#x14b;" horiz-adv-x="1234" 
d="M155 0v1072h213v-170c64 129 209 190 358 190c255 0 363 -180 363 -425v-718c0 -243 -137 -338 -365 -338v170c101 5 152 58 152 158v721c0 160 -63 253 -223 253c-173 0 -285 -108 -285 -273v-640h-213z" />
    <glyph glyph-name="Omacron" unicode="&#x14c;" horiz-adv-x="1660" 
d="M546 1604v149h567v-149h-567zM836 -20c-431 0 -737 316 -737 751c0 424 292 752 732 752c429 0 729 -313 729 -738c0 -432 -282 -765 -724 -765zM841 166c323 0 479 263 479 565s-156 569 -490 569c-325 0 -491 -253 -491 -554c0 -306 172 -580 502 -580z" />
    <glyph glyph-name="omacron" unicode="&#x14d;" horiz-adv-x="1240" 
d="M341 1312v147h553v-147h-553zM616 -20c-324 0 -541 240 -541 557c0 319 221 556 544 556s541 -237 541 -556c0 -322 -223 -557 -544 -557zM615 150c228 0 326 182 326 386c0 206 -99 387 -324 387c-228 0 -323 -183 -323 -390s96 -383 321 -383z" />
    <glyph glyph-name="Obreve" unicode="&#x14e;" horiz-adv-x="1660" 
d="M542 1843h154c13 -72 52 -123 131 -123c77 0 123 48 138 123h150c-8 -159 -129 -278 -290 -278s-275 119 -283 278zM836 -20c-431 0 -737 316 -737 751c0 424 292 752 732 752c429 0 729 -313 729 -738c0 -432 -282 -765 -724 -765zM841 166c323 0 479 263 479 565
s-156 569 -490 569c-325 0 -491 -253 -491 -554c0 -306 172 -580 502 -580z" />
    <glyph glyph-name="obreve" unicode="&#x14f;" horiz-adv-x="1240" 
d="M331 1537h154c11 -73 50 -125 131 -125c78 0 125 49 138 125h150c-8 -160 -129 -283 -290 -283c-162 0 -272 126 -283 283zM614 -20c-321 0 -539 240 -539 557c0 319 221 556 542 556c323 0 543 -237 543 -554c0 -321 -226 -559 -546 -559zM617 150
c226 0 324 182 324 386c0 206 -99 387 -324 387c-227 0 -323 -185 -323 -387c0 -207 100 -386 323 -386z" />
    <glyph glyph-name="Ohungarumlaut" unicode="&#x150;" horiz-adv-x="1660" 
d="M907 1573l78 268h218l-146 -268h-150zM577 1573l74 268h221l-149 -268h-146zM836 -20c-431 0 -737 316 -737 751c0 424 292 752 732 752c429 0 729 -313 729 -738c0 -432 -282 -765 -724 -765zM841 166c323 0 479 263 479 565s-156 569 -490 569
c-325 0 -491 -253 -491 -554c0 -306 172 -580 502 -580z" />
    <glyph glyph-name="ohungarumlaut" unicode="&#x151;" horiz-adv-x="1240" 
d="M696 1244l82 309h215l-154 -309h-143zM372 1244l84 309h212l-154 -309h-142zM616 -20c-324 0 -541 240 -541 557c0 319 221 556 544 556s541 -237 541 -556c0 -322 -223 -557 -544 -557zM615 150c228 0 326 182 326 386c0 206 -99 387 -324 387
c-228 0 -323 -183 -323 -390s96 -383 321 -383z" />
    <glyph glyph-name="OE" unicode="&#x152;" horiz-adv-x="1996" 
d="M1222 182h696v-182h-1069c-456 0 -750 251 -750 728c0 467 282 736 754 736h1028v-182h-659v-446h530v-179h-530v-475zM992 182v1100h-133c-349 0 -522 -207 -522 -547c0 -351 161 -553 524 -553h131z" />
    <glyph glyph-name="oe" unicode="&#x153;" horiz-adv-x="2029" 
d="M1779 307l160 -67c-80 -185 -276 -260 -460 -260c-183 0 -347 75 -435 233c-92 -156 -247 -233 -426 -233c-314 0 -537 234 -537 557c0 312 209 555 531 555c184 0 347 -80 434 -236c85 155 234 236 409 236c326 0 496 -224 496 -536v-64h-797c8 -200 109 -347 318 -347
c122 0 254 50 307 162zM1160 644h578c-9 177 -99 286 -283 286c-171 0 -271 -127 -295 -286zM617 150c223 0 324 175 324 387c0 197 -88 385 -319 385c-223 0 -324 -174 -324 -376c0 -209 88 -396 319 -396z" />
    <glyph glyph-name="Racute" unicode="&#x154;" horiz-adv-x="1345" 
d="M554 1573l113 268h250l-203 -268h-160zM173 0v1464h502c274 0 530 -107 530 -420c0 -223 -129 -356 -342 -403l428 -641h-250l-407 612h-234v-612h-227zM400 782h281c168 0 297 64 297 250c0 199 -117 252 -297 252h-281v-502z" />
    <glyph glyph-name="racute" unicode="&#x155;" horiz-adv-x="788" 
d="M269 1244l123 309h246l-213 -309h-156zM155 0v1072h213v-197c76 147 186 211 350 216v-199c-221 -5 -350 -84 -350 -320v-572h-213z" />
    <glyph glyph-name="uni0156" unicode="&#x156;" horiz-adv-x="1345" 
d="M173 0v1464h502c274 0 530 -107 530 -420c0 -223 -129 -356 -342 -403l428 -641h-250l-407 612h-234v-612h-227zM400 782h281c168 0 297 64 297 250c0 199 -117 252 -297 252h-281v-502zM474 -401l111 329l198 -47l-184 -338z" />
    <glyph glyph-name="uni0157" unicode="&#x157;" horiz-adv-x="788" 
d="M155 0v1072h213v-197c76 147 186 211 350 216v-199c-221 -5 -350 -84 -350 -320v-572h-213zM73 -401l112 329l197 -47l-182 -338z" />
    <glyph glyph-name="Rcaron" unicode="&#x158;" horiz-adv-x="1345" 
d="M552 1573l-221 268h155l162 -115l164 115h150l-224 -268h-186zM173 0v1464h502c274 0 530 -107 530 -420c0 -223 -129 -356 -342 -403l428 -641h-250l-407 612h-234v-612h-227zM400 782h281c168 0 297 64 297 250c0 199 -117 252 -297 252h-281v-502z" />
    <glyph glyph-name="rcaron" unicode="&#x159;" horiz-adv-x="788" 
d="M339 1244l-223 303h151l164 -145l164 145h147l-227 -303h-176zM155 0v1072h213v-197c76 147 186 211 350 216v-199c-221 -5 -350 -84 -350 -320v-572h-213z" />
    <glyph glyph-name="Sacute" unicode="&#x15a;" horiz-adv-x="1281" 
d="M524 1573l113 269h250l-203 -269h-160zM82 360l195 86c53 -176 183 -290 365 -290c156 0 309 84 309 254c0 179 -169 213 -354 249c-225 44 -464 93 -464 414c0 264 212 410 486 410c234 0 399 -107 495 -330l-183 -80c-61 141 -160 222 -317 222
c-136 0 -266 -62 -266 -201c0 -180 160 -214 347 -251c227 -45 478 -94 478 -419c0 -283 -266 -444 -525 -444c-275 0 -478 111 -566 380z" />
    <glyph glyph-name="sacute" unicode="&#x15b;" horiz-adv-x="988" 
d="M389 1244l123 309h246l-213 -309h-156zM71 248l162 71c40 -111 148 -176 264 -176c104 0 215 33 215 148c0 122 -124 150 -261 180c-169 37 -358 79 -358 309c0 203 206 313 387 313c172 0 333 -79 408 -239l-160 -70c-45 99 -143 146 -242 146c-90 0 -196 -39 -196 -140
c0 -107 118 -131 251 -158c174 -35 374 -76 374 -314c0 -240 -201 -338 -410 -338c-192 0 -370 82 -434 268z" />
    <glyph glyph-name="Scircumflex" unicode="&#x15c;" horiz-adv-x="1281" 
d="M321 1573l223 268h186l221 -268h-155l-162 117l-164 -117h-149zM82 360l195 86c53 -176 183 -290 365 -290c156 0 309 84 309 254c0 179 -169 213 -354 249c-225 44 -464 93 -464 414c0 264 212 410 486 410c234 0 399 -107 495 -330l-183 -80c-61 141 -160 222 -317 222
c-136 0 -266 -62 -266 -201c0 -180 160 -213 350 -251c223 -44 475 -93 475 -419c0 -283 -266 -444 -525 -444c-275 0 -478 111 -566 380z" />
    <glyph glyph-name="scircumflex" unicode="&#x15d;" horiz-adv-x="988" 
d="M177 1244l228 303h176l225 -303h-154l-163 146l-164 -146h-148zM71 248l162 71c40 -111 148 -176 264 -176c104 0 215 33 215 149c0 121 -123 148 -260 178c-169 37 -359 79 -359 310c0 203 206 313 387 313c172 0 333 -79 408 -239l-160 -70c-45 99 -143 146 -242 146
c-90 0 -196 -39 -196 -140c0 -107 118 -131 251 -158c174 -35 374 -76 374 -314c0 -240 -201 -338 -410 -338c-192 0 -370 82 -434 268z" />
    <glyph glyph-name="Scedilla" unicode="&#x15e;" horiz-adv-x="1281" 
d="M413 -297l110 25c13 -39 51 -66 94 -66c41 0 76 25 76 69c0 42 -32 70 -73 70c-19 0 -39 -6 -58 -18l-67 63l77 138c-248 19 -408 140 -487 378l195 86c53 -176 180 -290 360 -290c156 0 311 86 311 255c0 177 -169 209 -354 246c-226 45 -467 94 -467 414
c0 260 244 410 481 410c238 0 407 -109 503 -330l-183 -80c-62 142 -163 234 -328 234c-128 0 -258 -56 -258 -215c0 -176 160 -210 346 -247c228 -45 480 -96 480 -417c0 -268 -238 -430 -486 -446h2l-47 -86c8 1 17 1 25 1c104 0 174 -65 174 -165
c0 -124 -108 -176 -216 -176c-98 0 -188 42 -210 147z" />
    <glyph glyph-name="scedilla" unicode="&#x15f;" horiz-adv-x="988" 
d="M269 -297l111 25c12 -39 51 -66 93 -66s77 26 77 72c0 42 -31 67 -71 67c-22 0 -41 -8 -60 -18l-68 63l78 138h2c-165 16 -304 103 -360 265l162 71c40 -111 148 -176 264 -176c104 0 215 33 215 148c0 121 -123 149 -253 178c-176 39 -366 80 -366 311
c0 204 206 311 396 311c162 0 325 -78 399 -237l-160 -70c-45 99 -143 145 -242 145c-90 0 -196 -38 -196 -139c0 -107 117 -131 250 -158c174 -35 375 -76 375 -316c0 -220 -169 -322 -373 -335h2l-47 -86c8 1 17 1 25 1c104 0 173 -65 173 -163
c0 -125 -111 -176 -218 -176c-96 0 -187 41 -208 145z" />
    <glyph glyph-name="Scaron" unicode="&#x160;" horiz-adv-x="1287" 
d="M527 1573l-219 268h154l164 -115l162 115h151l-225 -268h-187zM82 360l195 86c53 -176 183 -290 365 -290c156 0 309 84 309 254c0 179 -169 213 -354 249c-225 44 -464 93 -464 414c0 264 212 410 486 410c234 0 399 -107 495 -330l-183 -80c-61 141 -160 222 -317 222
c-136 0 -266 -62 -266 -201c0 -180 160 -213 350 -251c223 -44 475 -93 475 -419c0 -283 -266 -444 -525 -444c-275 0 -478 111 -566 380z" />
    <glyph glyph-name="scaron" unicode="&#x161;" horiz-adv-x="990" 
d="M400 1244l-223 303h154l162 -145l163 145h150l-227 -303h-179zM71 248l162 71c40 -111 148 -176 264 -176c104 0 215 33 215 148c0 121 -123 149 -253 178c-176 39 -366 80 -366 311c0 203 206 313 387 313c172 0 333 -79 408 -239l-160 -70c-45 99 -143 146 -242 146
c-90 0 -196 -39 -196 -140c0 -108 118 -131 251 -158c174 -35 374 -76 374 -315s-201 -337 -410 -337c-192 0 -370 82 -434 268z" />
    <glyph glyph-name="uni0162" unicode="&#x162;" horiz-adv-x="1169" 
d="M370 -315l100 41c19 -39 62 -64 105 -64s78 27 78 71c0 42 -33 68 -72 68c-21 0 -40 -7 -59 -18l-70 63l88 154h-72v1282h-416v182h1063v-182h-416v-1282h-42l-60 -104c8 1 16 1 24 1c103 0 177 -63 177 -165c0 -124 -110 -176 -217 -176c-90 0 -179 38 -211 129z" />
    <glyph glyph-name="uni0163" unicode="&#x163;" horiz-adv-x="736" 
d="M216 -315l100 41c19 -39 62 -64 105 -64s78 27 78 71c0 42 -33 68 -72 68c-21 0 -40 -7 -59 -18l-70 63l87 152c-124 34 -189 129 -189 287v621h-150v166h150v211l211 92v-303h241v-166h-241v-601c0 -86 34 -147 134 -147c36 0 78 8 120 22v-172
c-55 -17 -110 -24 -167 -24l-51 -88c8 1 16 1 24 1c103 0 177 -63 177 -165c0 -124 -110 -176 -217 -176c-90 0 -179 38 -211 129z" />
    <glyph glyph-name="Tcaron" unicode="&#x164;" horiz-adv-x="1169" 
d="M486 1573l-219 268h154l164 -115l162 115h151l-225 -268h-187zM468 0v1282h-416v182h1063v-182h-416v-1282h-231z" />
    <glyph glyph-name="tcaron" unicode="&#x165;" horiz-adv-x="736" 
d="M542 1218l24 358h209l-98 -358h-135zM661 180v-172c-51 -19 -103 -24 -158 -24c-195 0 -307 104 -307 301v621h-150v166h150v211l211 92v-303h241v-166h-241v-601c0 -88 34 -147 139 -147c33 0 76 6 115 22z" />
    <glyph glyph-name="Tbar" unicode="&#x166;" horiz-adv-x="1169" 
d="M468 0v666h-289v163h289v453h-416v182h1063v-182h-416v-453h289v-163h-289v-666h-231z" />
    <glyph glyph-name="tbar" unicode="&#x167;" horiz-adv-x="736" 
d="M46 554v139h150v213h-150v166h150v211l211 92v-303h241v-166h-241v-213h241v-139h-241v-249c0 -88 34 -147 139 -147c33 0 76 6 115 22v-172c-51 -16 -103 -24 -162 -24c-288 0 -306 192 -306 430l3 94v46h-150z" />
    <glyph glyph-name="Utilde" unicode="&#x168;" horiz-adv-x="1449" 
d="M536 1575h-140c11 121 78 254 208 254c52 0 93 -21 137 -47c50 -29 70 -37 91 -37c50 0 72 48 80 86h142c-13 -117 -78 -252 -204 -252c-56 0 -104 26 -132 42l-15 8c-27 15 -59 34 -89 34c-45 0 -70 -49 -78 -88zM161 1464h231v-897c0 -234 60 -401 331 -401
c278 0 335 175 335 424v874h231v-899c0 -376 -198 -585 -576 -585c-359 0 -552 213 -552 567v917z" />
    <glyph glyph-name="utilde" unicode="&#x169;" horiz-adv-x="1240" 
d="M439 1252h-139c13 119 76 254 206 254c56 0 100 -25 139 -48c32 -19 62 -36 90 -36c48 0 73 51 81 88h139c-11 -117 -76 -256 -204 -256c-55 0 -101 26 -141 49c-47 27 -68 35 -88 35c-49 0 -75 -47 -83 -86zM874 0v170c-64 -129 -199 -190 -347 -190
c-245 0 -380 166 -380 409v683h210v-664c0 -161 77 -252 244 -252c162 0 273 110 273 272v644h210v-1072h-210z" />
    <glyph glyph-name="Umacron" unicode="&#x16a;" horiz-adv-x="1449" 
d="M441 1604v149h568v-149h-568zM161 1464h231v-897c0 -234 60 -401 331 -401c278 0 335 175 335 424v874h231v-899c0 -376 -198 -585 -576 -585c-359 0 -552 213 -552 567v917z" />
    <glyph glyph-name="umacron" unicode="&#x16b;" horiz-adv-x="1240" 
d="M349 1312v147h557v-147h-557zM874 0v170c-64 -129 -199 -190 -347 -190c-245 0 -380 166 -380 409v683h210v-664c0 -161 77 -252 244 -252c162 0 273 110 273 272v644h210v-1072h-210z" />
    <glyph glyph-name="Ubreve" unicode="&#x16c;" horiz-adv-x="1449" 
d="M437 1843h155c12 -72 53 -123 132 -123c76 0 121 48 136 123h151c-8 -159 -131 -278 -292 -278c-160 0 -274 118 -282 278zM161 1464h231v-897c0 -234 60 -401 331 -401c278 0 335 175 335 424v874h231v-899c0 -376 -198 -585 -576 -585c-359 0 -552 213 -552 567v917z
" />
    <glyph glyph-name="ubreve" unicode="&#x16d;" horiz-adv-x="1240" 
d="M341 1537h154c12 -72 50 -125 131 -125c78 0 124 49 139 125h150c-8 -159 -129 -283 -292 -283c-162 0 -274 124 -282 283zM874 0v170c-64 -129 -199 -190 -347 -190c-245 0 -380 166 -380 409v683h210v-664c0 -161 77 -252 244 -252c162 0 273 110 273 272v644h210
v-1072h-210z" />
    <glyph glyph-name="Uring" unicode="&#x16e;" horiz-adv-x="1449" 
d="M499 1727c0 120 103 217 223 217c122 0 225 -100 225 -220s-105 -217 -223 -217s-225 97 -225 220zM724 1610c64 0 104 53 104 114c0 63 -40 117 -104 117c-65 0 -106 -57 -106 -117c0 -62 42 -114 106 -114zM161 1464h231v-897c0 -234 60 -401 331 -401
c277 0 335 175 335 424v874h231v-899c0 -376 -198 -585 -577 -585c-357 0 -551 213 -551 567v917z" />
    <glyph glyph-name="uring" unicode="&#x16f;" horiz-adv-x="1240" 
d="M398 1376c0 121 105 218 224 218s225 -97 225 -219c0 -121 -105 -217 -225 -217s-224 97 -224 218zM625 1261c63 0 103 53 103 115c0 63 -42 115 -106 115s-105 -53 -105 -112s42 -118 108 -118zM874 0v170c-64 -129 -199 -190 -347 -190c-245 0 -380 166 -380 409v683
h210v-664c0 -161 77 -252 244 -252c162 0 273 110 273 272v644h210v-1072h-210z" />
    <glyph glyph-name="Uhungarumlaut" unicode="&#x170;" horiz-adv-x="1449" 
d="M472 1573l76 268h220l-149 -268h-147zM803 1573l78 268h218l-148 -268h-148zM161 1464h231v-897c0 -234 60 -401 331 -401c278 0 335 175 335 424v874h231v-899c0 -376 -198 -585 -576 -585c-359 0 -552 213 -552 567v917z" />
    <glyph glyph-name="uhungarumlaut" unicode="&#x171;" horiz-adv-x="1240" 
d="M380 1244l84 309h213l-154 -309h-143zM706 1244l84 309h213l-154 -309h-143zM874 0v170c-64 -129 -199 -190 -347 -190c-245 0 -380 166 -380 409v683h210v-664c0 -161 77 -252 244 -252c162 0 273 110 273 272v644h210v-1072h-210z" />
    <glyph glyph-name="Uogonek" unicode="&#x172;" horiz-adv-x="1449" 
d="M945 -215v-131c-47 -23 -94 -27 -145 -27c-103 0 -221 43 -221 160c0 85 63 153 129 193c-359 3 -547 212 -547 567v917h231v-897c0 -234 60 -401 329 -401c277 0 337 177 337 424v874h231v-899c0 -393 -205 -491 -361 -566c-84 -41 -155 -75 -155 -155
c0 -53 31 -77 74 -77c35 0 66 3 98 18z" />
    <glyph glyph-name="uogonek" unicode="&#x173;" horiz-adv-x="1240" 
d="M874 0v170c-64 -131 -194 -188 -342 -188c-247 0 -385 158 -385 407v682h210v-663c0 -165 87 -252 252 -252c163 0 265 112 265 272v643h210v-1057l-29 -21c-95 -69 -136 -113 -136 -159c0 -41 32 -70 75 -70c33 0 66 4 97 19v-129c-47 -19 -93 -27 -138 -27
c-107 0 -225 45 -225 162c0 111 107 171 193 211h-47z" />
    <glyph glyph-name="Wcircumflex" unicode="&#x174;" horiz-adv-x="1986" 
d="M687 1573l225 268h187l219 -268h-154l-163 117l-162 -117h-152zM452 0l-394 1464h234l293 -1132l325 1132h185l325 -1136l295 1136h213l-387 -1464h-221l-324 1108l-331 -1108h-213z" />
    <glyph glyph-name="wcircumflex" unicode="&#x175;" horiz-adv-x="1670" 
d="M536 1244l227 303h176l223 -303h-151l-164 146l-164 -146h-147zM386 0l-340 1072h227l240 -816l244 816h178l233 -816l244 816h211l-342 -1072h-223l-217 761l-234 -761h-221z" />
    <glyph glyph-name="Ycircumflex" unicode="&#x176;" horiz-adv-x="1240" 
d="M314 1573l224 268h186l219 -268h-153l-162 117l-164 -117h-150zM517 0v629l-479 835h254l348 -647l336 647h225l-452 -835v-629h-232z" />
    <glyph glyph-name="ycircumflex" unicode="&#x177;" horiz-adv-x="1105" 
d="M241 1244l227 303h176l223 -303h-151l-164 146l-164 -146h-147zM265 -371l197 482l-422 961h229l306 -728l276 728h211l-588 -1443h-209z" />
    <glyph glyph-name="Ydieresis" unicode="&#x178;" horiz-adv-x="1240" 
d="M718 1724c0 68 55 121 122 121s124 -54 124 -120s-58 -123 -125 -123c-65 0 -121 54 -121 122zM294 1724c0 68 55 121 122 121s124 -54 124 -120s-58 -123 -125 -123c-65 0 -121 54 -121 122zM517 0v629l-479 835h254l348 -647l336 647h225l-452 -835v-629h-232z" />
    <glyph glyph-name="Zacute" unicode="&#x179;" horiz-adv-x="1228" 
d="M519 1573l113 269h250l-203 -269h-160zM48 0v94l811 1188h-737v182h1032v-90l-792 -1186h776v-188h-1090z" />
    <glyph glyph-name="zacute" unicode="&#x17a;" horiz-adv-x="994" 
d="M387 1244l123 309h246l-213 -309h-156zM36 0v88l623 812h-566v172h858v-88l-616 -808h604v-176h-903z" />
    <glyph glyph-name="Zdotaccent" unicode="&#x17b;" horiz-adv-x="1228" 
d="M482 1726c0 72 60 127 129 127c70 0 131 -57 131 -126c0 -70 -60 -128 -130 -128c-69 0 -130 56 -130 127zM48 0v94l811 1188h-737v182h1032v-90l-792 -1186h776v-188h-1090z" />
    <glyph glyph-name="zdotaccent" unicode="&#x17c;" horiz-adv-x="994" 
d="M368 1400c0 72 60 127 129 127c70 0 131 -56 131 -126c0 -68 -60 -128 -132 -128c-68 0 -128 55 -128 127zM36 0v88l623 812h-566v172h858v-88l-616 -808h604v-176h-903z" />
    <glyph glyph-name="Zcaron" unicode="&#x17d;" horiz-adv-x="1228" 
d="M517 1573l-221 268h156l161 -115l164 115h150l-223 -268h-187zM48 0v94l811 1188h-737v182h1032v-90l-792 -1186h776v-188h-1090z" />
    <glyph glyph-name="zcaron" unicode="&#x17e;" horiz-adv-x="994" 
d="M419 1244l-223 303h153l162 -145l164 145h149l-227 -303h-178zM36 0v88l623 812h-566v172h858v-88l-616 -808h604v-176h-903z" />
    <glyph glyph-name="longs" unicode="&#x17f;" horiz-adv-x="660" 
d="M196 0v906h-150v166h150c0 264 6 512 336 512c59 0 112 -8 161 -27l-65 -151c-24 4 -48 8 -72 8c-118 0 -149 -88 -149 -190l2 -1224h-213z" />
    <glyph glyph-name="florin" unicode="&#x192;" horiz-adv-x="851" 
d="M77 -373l157 1058h-170v162h195l15 109c33 255 68 528 403 528c45 0 92 -5 139 -23v-170c-42 16 -85 23 -121 23c-120 0 -166 -80 -182 -180l-43 -287h262v-162h-287l-157 -1058h-211z" />
    <glyph glyph-name="uni01F4" unicode="&#x1f4;" horiz-adv-x="1570" 
d="M664 1573l113 268h248l-203 -268h-158zM847 559v182h610v-503c-173 -176 -390 -258 -630 -258c-466 0 -734 311 -734 759c0 428 292 746 731 746c268 0 487 -117 601 -369l-201 -88c-76 176 -211 275 -404 275c-326 0 -489 -287 -489 -580c0 -315 158 -561 499 -561
c150 0 299 48 412 152v245h-395z" />
    <glyph glyph-name="uni01F5" unicode="&#x1f5;" horiz-adv-x="1306" 
d="M476 1210l123 309h245l-213 -309h-155zM111 -133l168 74c56 -125 195 -166 321 -166c197 0 334 100 334 307v158c-75 -126 -226 -201 -371 -201c-301 0 -479 237 -479 517c0 292 194 536 490 536c145 0 285 -58 360 -186v166h211v-996c0 -326 -245 -469 -550 -469
c-198 0 -393 60 -484 260zM612 207c212 0 328 165 328 368c0 197 -109 349 -317 349c-219 0 -322 -168 -322 -369c0 -181 119 -348 311 -348z" />
    <glyph glyph-name="Aringacute" unicode="&#x1fa;" horiz-adv-x="1406" 
d="M632 2021l113 269h249l-202 -269h-160zM491 1752c0 122 105 216 224 216c122 0 224 -99 224 -219s-104 -217 -223 -217c-118 0 -225 96 -225 220zM716 1634c63 0 104 55 104 115c0 59 -39 117 -104 117c-64 0 -107 -55 -107 -116s44 -116 107 -116zM60 0l496 1464h301
l488 -1464h-232l-117 356h-602l-118 -356h-216zM450 528h489l-244 748z" />
    <glyph glyph-name="aringacute" unicode="&#x1fb;" horiz-adv-x="1117" 
d="M495 1700l112 268h250l-203 -268h-159zM341 1400c0 120 106 218 225 218c117 0 222 -96 222 -218c0 -121 -105 -217 -223 -217s-224 97 -224 217zM564 1285c63 0 105 56 105 116s-41 113 -104 113s-105 -54 -105 -113s41 -116 104 -116zM761 0v133
c-79 -104 -201 -153 -332 -153c-194 0 -356 108 -356 316c0 287 308 335 553 337l133 1c0 168 -27 293 -225 293c-111 0 -210 -66 -250 -170l-172 75c77 183 249 261 437 261c247 0 421 -135 421 -392v-701h-209zM759 494h-135c-129 0 -340 -18 -340 -199
c0 -109 76 -156 183 -156c142 0 292 82 292 236v119z" />
    <glyph glyph-name="AEacute" unicode="&#x1fc;" horiz-adv-x="1963" 
d="M1154 1573l113 268h250l-203 -268h-160zM48 0l737 1464h1063v-182h-655v-446h526v-179h-526v-475h692v-182h-921v342h-521l-167 -342h-228zM525 512h439v770h-58z" />
    <glyph glyph-name="aeacute" unicode="&#x1fd;" horiz-adv-x="1810" 
d="M826 1244l125 309h246l-213 -309h-158zM286 757l-174 75c86 188 238 261 431 261c144 0 284 -41 351 -170c88 113 217 170 358 170c324 0 480 -234 480 -537v-62h-768c5 -192 89 -348 308 -348c118 0 229 45 263 174l172 -73c-64 -194 -256 -267 -437 -267
c-175 0 -325 69 -413 216c-101 -157 -236 -216 -419 -216c-199 0 -365 101 -365 316c0 289 298 335 544 342l144 2c0 173 -26 287 -226 287c-116 0 -208 -62 -249 -170zM970 640h549c-11 168 -82 291 -258 291c-183 0 -269 -133 -291 -291zM761 494h-142
c-129 0 -333 -15 -333 -188c0 -121 72 -167 185 -167c145 0 290 74 290 236v119z" />
    <glyph glyph-name="Oslashacute" unicode="&#x1fe;" horiz-adv-x="1660" 
d="M736 1573l113 268h250l-203 -268h-160zM165 -68l-98 99l194 209c-108 137 -162 308 -162 491c0 424 289 752 730 752c161 0 318 -44 446 -140l162 177l98 -99l-158 -172c121 -139 183 -321 183 -504c0 -433 -282 -765 -723 -765c-176 0 -345 53 -480 161zM413 406
l727 792c-87 72 -197 102 -311 102c-328 0 -492 -251 -492 -566c0 -110 20 -224 76 -328zM1232 1092l-733 -799c91 -87 211 -127 338 -127c325 0 485 262 485 563c0 127 -22 255 -90 363z" />
    <glyph glyph-name="oslashacute" unicode="&#x1ff;" horiz-adv-x="1240" 
d="M526 1244l123 309h245l-212 -309h-156zM44 6l152 166c-80 100 -123 226 -123 355c0 324 216 566 546 566c115 0 230 -30 322 -101l138 150l96 -82l-143 -152c88 -100 132 -230 132 -362c0 -326 -216 -566 -543 -566c-123 0 -239 34 -335 106l-150 -162zM337 326l479 529
c-56 47 -125 68 -201 68c-217 0 -323 -172 -323 -377c0 -77 15 -150 45 -220zM894 755l-485 -532c56 -50 135 -73 213 -73c215 0 323 175 323 375c0 82 -18 158 -51 230z" />
    <glyph glyph-name="uni0218" unicode="&#x218;" horiz-adv-x="1283" 
d="M85 360l195 86c53 -176 180 -290 362 -290c156 0 309 84 309 254c0 179 -170 212 -356 249c-226 44 -475 94 -475 414c0 264 252 410 491 410s427 -107 523 -330l-183 -80c-62 142 -183 234 -348 234c-128 0 -268 -56 -268 -216c0 -177 169 -210 355 -246
c228 -45 483 -94 483 -421c0 -283 -266 -444 -525 -444c-275 0 -475 111 -563 380zM450 -401l110 329l199 -47l-184 -338z" />
    <glyph glyph-name="uni0219" unicode="&#x219;" horiz-adv-x="992" 
d="M71 248l162 71c40 -111 148 -176 264 -176c104 0 215 33 215 148c0 121 -123 148 -260 179c-169 38 -359 80 -359 310c0 203 206 312 387 312c172 0 333 -78 408 -238l-160 -70c-45 99 -143 145 -242 145c-90 0 -196 -38 -196 -139c0 -107 117 -131 250 -158
c174 -35 375 -76 375 -315s-201 -337 -410 -337c-192 0 -370 82 -434 268zM306 -401l111 329l198 -47l-184 -338z" />
    <glyph glyph-name="uni021A" unicode="&#x21a;" horiz-adv-x="1169" 
d="M468 0v1282h-416v182h1063v-182h-416v-1282h-231zM396 -401l113 329l197 -47l-183 -338z" />
    <glyph glyph-name="uni021B" unicode="&#x21b;" horiz-adv-x="736" 
d="M661 180v-172c-51 -19 -103 -24 -158 -24c-195 0 -307 104 -307 301v621h-150v166h150v211l211 92v-303h241v-166h-241v-601c0 -88 34 -147 139 -147c33 0 76 6 115 22zM210 -401l113 329l196 -47l-182 -338z" />
    <glyph glyph-name="uni0237" unicode="&#x237;" horiz-adv-x="536" 
d="M9 -389v170c101 8 152 54 152 158v1132h211v-1122c0 -246 -134 -333 -363 -338z" />
    <glyph glyph-name="circumflex" unicode="&#x2c6;" horiz-adv-x="845" 
d="M109 1243l227 303h176l223 -303h-151l-164 146l-164 -146h-147z" />
    <glyph glyph-name="caron" unicode="&#x2c7;" horiz-adv-x="845" 
d="M332 1243l-223 303h151l164 -145l164 145h147l-227 -303h-176z" />
    <glyph glyph-name="breve" unicode="&#x2d8;" horiz-adv-x="845" 
d="M135 1536h154c12 -71 53 -125 133 -125c76 0 122 49 137 125h150c-11 -160 -127 -283 -288 -283c-163 0 -281 126 -286 283z" />
    <glyph glyph-name="dotaccent" unicode="&#x2d9;" horiz-adv-x="845" 
d="M291 1389c0 72 61 127 131 127c69 0 129 -54 129 -126c0 -71 -57 -128 -129 -128c-71 0 -131 55 -131 127z" />
    <glyph glyph-name="ring" unicode="&#x2da;" horiz-adv-x="845" 
d="M199 1434c0 121 106 219 224 219c119 0 224 -101 224 -219c0 -121 -107 -218 -224 -218c-118 0 -224 99 -224 218zM422 1319c64 0 106 53 106 116c0 62 -40 115 -106 115s-105 -53 -105 -115s40 -116 105 -116z" />
    <glyph glyph-name="ogonek" unicode="&#x2db;" horiz-adv-x="845" 
d="M602 -217v-129c-47 -19 -92 -27 -137 -27c-107 0 -225 45 -225 162c0 98 84 171 163 211h156c-57 -38 -129 -90 -129 -162c0 -49 33 -74 76 -74c33 0 65 4 96 19z" />
    <glyph glyph-name="tilde" unicode="&#x2dc;" horiz-adv-x="845" 
d="M233 1271h-139c13 118 76 254 203 254c53 0 96 -23 140 -48c47 -27 70 -36 91 -36c51 0 74 48 82 88h140c-13 -117 -76 -256 -204 -256c-52 0 -95 24 -139 49c-47 27 -68 35 -89 35c-51 0 -77 -48 -85 -86z" />
    <glyph glyph-name="hungarumlaut" unicode="&#x2dd;" horiz-adv-x="845" 
d="M190 1243l84 309h213l-153 -309h-144zM516 1243l84 309h213l-154 -309h-143z" />
    <glyph glyph-name="uni0326" unicode="&#x326;" horiz-adv-x="845" 
d="M260 -401l113 329l196 -47l-182 -338z" />
    <glyph glyph-name="uni0394" unicode="&#x394;" horiz-adv-x="1467" 
d="M88 0v63l481 1401h330l473 -1401v-63h-1284zM346 188h755l-376 1110z" />
    <glyph glyph-name="Sigma" unicode="&#x3a3;" horiz-adv-x="1231" 
d="M120 0v152l439 587l-430 541v184h964v-182h-700l426 -524l-426 -565h735v-193h-1008z" />
    <glyph glyph-name="uni03A9" unicode="&#x3a9;" horiz-adv-x="1704" 
d="M120 0v180h281c-184 117 -285 352 -285 565c0 432 309 738 738 738c422 0 735 -295 735 -721c0 -223 -86 -455 -283 -580h279v-182h-615v109c251 136 373 345 373 630c0 303 -163 555 -491 555c-317 0 -490 -235 -490 -538c0 -294 123 -495 373 -647v-109h-615z" />
    <glyph glyph-name="lambda" unicode="&#x3bb;" horiz-adv-x="1188" 
d="M57 0l408 1064l-19 54c-24 70 -48 140 -80 206c-28 58 -67 82 -131 82c-39 0 -78 -9 -115 -23v174c53 17 108 25 153 25c219 0 295 -187 349 -362l342 -948c16 -48 49 -102 113 -102c21 0 45 1 70 12v-176c-35 -12 -69 -16 -102 -16c-196 0 -247 143 -300 297l-176 525
l-285 -812h-227z" />
    <glyph glyph-name="uni03BC" unicode="&#x3bc;" horiz-adv-x="1270" 
d="M170 -369v1441h219v-677c0 -153 66 -237 215 -237c171 0 276 110 276 270v644h219v-1072h-217v164c-56 -117 -166 -174 -289 -174c-87 0 -161 29 -204 104v-463h-219z" />
    <glyph glyph-name="pi" unicode="&#x3c0;" horiz-adv-x="1282" 
d="M213 0v898h-150v174h1155v-174h-149v-898h-219v898h-418v-898h-219z" />
    <glyph glyph-name="uni0401" unicode="&#x401;" horiz-adv-x="1193" 
d="M750 1724c0 69 56 122 123 122c68 0 122 -53 122 -122c0 -67 -54 -122 -122 -122c-67 0 -123 55 -123 122zM320 1724c0 69 55 122 123 122s122 -53 122 -122c0 -67 -54 -122 -122 -122s-123 55 -123 122zM191 0v1464h894v-183h-666v-446h536v-177h-536v-475h702v-183
h-930z" />
    <glyph glyph-name="uni0402" unicode="&#x402;" horiz-adv-x="1624" 
d="M477 0v1281h-420v183h1086v-183h-436v-506h3c89 83 220 121 360 121c296 0 461 -168 461 -467c0 -252 -116 -453 -394 -453c-70 0 -132 13 -175 40v182c43 -24 93 -37 142 -37c124 0 198 85 198 263c0 196 -90 292 -289 292c-122 0 -229 -57 -305 -144h-1v-572h-230z" />
    <glyph glyph-name="uni0403" unicode="&#x403;" horiz-adv-x="1125" 
d="M541 1574l115 268h250l-206 -268h-159zM177 0v1464h872v-188h-644v-1276h-228z" />
    <glyph glyph-name="uni0404" unicode="&#x404;" horiz-adv-x="1525" 
d="M349 837h669v-179h-671c3 -304 192 -492 468 -492c233 0 397 134 468 324l187 -80c-99 -257 -339 -430 -657 -430c-460 0 -709 303 -709 743v16c0 412 250 746 709 746c312 0 516 -125 643 -402l-205 -88c-78 185 -208 304 -430 304c-287 0 -459 -202 -472 -462z" />
    <glyph glyph-name="uni0405" unicode="&#x405;" horiz-adv-x="1308" 
d="M74 363l199 85c50 -170 187 -290 409 -290c162 0 308 88 308 249c0 198 -169 227 -334 251c-262 38 -498 110 -498 415c0 273 239 411 486 411c278 0 413 -112 529 -333l-190 -81c-60 131 -148 236 -345 236c-174 0 -264 -83 -264 -218c0 -183 165 -210 321 -232
c275 -39 515 -110 515 -430c0 -289 -263 -443 -528 -446h-8c-295 0 -505 113 -600 383z" />
    <glyph glyph-name="uni0406" unicode="&#x406;" horiz-adv-x="606" 
d="M200 0v1464h229v-1464h-229z" />
    <glyph glyph-name="uni0407" unicode="&#x407;" horiz-adv-x="606" 
d="M407 1724c0 69 56 122 123 122c69 0 123 -53 123 -122c0 -67 -54 -122 -123 -122c-67 0 -123 55 -123 122zM-22 1724c0 69 55 122 122 122c69 0 123 -53 123 -122c0 -67 -54 -122 -123 -122c-67 0 -122 55 -122 122zM200 0v1464h229v-1464h-229z" />
    <glyph glyph-name="uni0408" unicode="&#x408;" horiz-adv-x="895" 
d="M89 22v183c65 -25 128 -38 189 -38c157 0 235 87 235 263v1034h229v-1042c0 -294 -168 -440 -434 -440c-97 0 -170 13 -219 40z" />
    <glyph glyph-name="uni0409" unicode="&#x409;" horiz-adv-x="2069" 
d="M50 0v200c18 -6 39 -9 59 -9c12 0 22 1 32 3c140 16 161 275 172 468c14 245 21 506 25 802h922v-579h205c309 0 528 -125 528 -437v-3c0 -306 -223 -445 -532 -445h-429v1277h-485l-23 -705c-8 -237 -76 -590 -385 -590c-29 0 -51 3 -67 9zM1260 179h207
c203 0 303 90 303 267v8c0 173 -101 259 -303 259h-207v-534z" />
    <glyph glyph-name="uni040A" unicode="&#x40a;" horiz-adv-x="2134" 
d="M177 0v1464h228v-641h692v641h228v-579h205c305 0 529 -124 529 -432v-8c0 -306 -222 -445 -533 -445h-429v635h-692v-635h-228zM1325 179h208c202 0 302 90 302 267v8c0 173 -100 258 -303 258h-207v-533z" />
    <glyph glyph-name="uni040B" unicode="&#x40b;" horiz-adv-x="1645" 
d="M477 0v1281h-420v183h1087v-183h-437v-503h3c86 83 226 118 343 118c313 0 463 -167 463 -519v-377h-229v385c0 228 -73 332 -280 332c-111 0 -233 -40 -299 -133h-1v-584h-230z" />
    <glyph glyph-name="uni040C" unicode="&#x40c;" horiz-adv-x="1325" 
d="M604 1574l113 268h251l-205 -268h-159zM191 0v1464h228v-679h3l603 681h251l-636 -706l668 -760h-274l-612 696h-3v-696h-228z" />
    <glyph glyph-name="uni040D" unicode="&#x40d;" horiz-adv-x="1560" 
d="M714 1574l-203 268h250l112 -268h-159zM177 0v1464h228v-1153h3l743 1153h229v-1464h-228v1157h-3l-743 -1157h-229z" />
    <glyph glyph-name="uni040E" unicode="&#x40e;" horiz-adv-x="1250" 
d="M369 1844h167c8 -86 43 -133 102 -141h13c3 -1 6 -1 9 -1c73 0 116 48 126 142h163c-12 -163 -126 -280 -290 -280c-168 0 -283 120 -290 280zM199 2v191c29 -6 56 -11 88 -11c108 0 184 59 246 184l-498 1098h242l367 -841h3l367 841h219l-492 -1113
c-89 -202 -201 -368 -452 -368c-40 0 -59 4 -90 19z" />
    <glyph glyph-name="uni040F" unicode="&#x40f;" horiz-adv-x="1516" 
d="M177 0v1464h228v-1277h704v1277h228v-1464h-481l-4 -266h-189l-5 266h-481z" />
    <glyph glyph-name="uni0410" unicode="&#x410;" horiz-adv-x="1429" 
d="M76 0l503 1464h302l495 -1464h-234l-132 390h-588l-129 -390h-217zM479 562h476l-237 714h-2z" />
    <glyph glyph-name="uni0411" unicode="&#x411;" horiz-adv-x="1301" 
d="M177 0v1464h903v-183h-678l-1 -417h297c334 0 506 -141 506 -424v-8c0 -279 -184 -432 -508 -432h-519zM401 177h288c196 0 295 85 295 256v8c0 168 -102 252 -308 252h-275v-516z" />
    <glyph glyph-name="uni0412" unicode="&#x412;" horiz-adv-x="1314" 
d="M191 0v1464h490c319 0 479 -128 479 -380v-8c0 -158 -76 -261 -228 -310c208 -46 295 -155 295 -348v-8c0 -272 -179 -410 -496 -410h-540zM414 837h249c198 0 277 70 277 235v8c0 150 -88 215 -280 215h-246v-458zM414 169h297c194 0 292 83 292 251v8
c0 168 -94 246 -314 246h-275v-505z" />
    <glyph glyph-name="uni0413" unicode="&#x413;" horiz-adv-x="1125" 
d="M177 0v1464h872v-188h-644v-1276h-228z" />
    <glyph glyph-name="uni0414" unicode="&#x414;" horiz-adv-x="1474" 
d="M12 -266v453h92c99 33 138 148 163 380c22 275 33 573 38 897h964v-1277h170v-453h-193l-10 266h-1020l-10 -266h-194zM377 187h667v1090h-533l-9 -181c-14 -284 -21 -416 -32 -544c-14 -168 -44 -291 -93 -365z" />
    <glyph glyph-name="uni0415" unicode="&#x415;" horiz-adv-x="1193" 
d="M191 0v1464h894v-183h-666v-446h536v-177h-536v-475h702v-183h-930z" />
    <glyph glyph-name="uni0416" unicode="&#x416;" horiz-adv-x="1887" 
d="M33 0l584 750l-564 714h248l523 -686h3v686h224v-686h3l525 686h244l-559 -703l587 -761h-261l-536 703h-3v-703h-224v701h-3l-537 -701h-254z" />
    <glyph glyph-name="uni0417" unicode="&#x417;" horiz-adv-x="1268" 
d="M48 374l194 83c36 -143 166 -292 378 -292c204 0 316 102 316 280c0 158 -88 227 -317 227h-176v163h173c177 0 262 80 262 232c0 154 -87 232 -245 232h-3c-171 -2 -288 -93 -339 -245l-195 83c103 239 282 347 539 347c248 0 471 -129 471 -391
c0 -163 -86 -286 -246 -332c205 -31 307 -148 307 -334c0 -300 -269 -447 -551 -447c-301 0 -489 168 -568 394z" />
    <glyph glyph-name="uni0418" unicode="&#x418;" horiz-adv-x="1560" 
d="M177 0v1464h228v-1153h3l743 1153h229v-1464h-228v1157h-3l-743 -1157h-229z" />
    <glyph glyph-name="uni0419" unicode="&#x419;" horiz-adv-x="1560" 
d="M490 1844h168c8 -94 48 -142 122 -142s118 48 128 142h163c-13 -161 -129 -280 -293 -280c-165 0 -280 120 -288 280zM177 0v1464h228v-1153h3l743 1153h229v-1464h-228v1157h-3l-743 -1157h-229z" />
    <glyph glyph-name="uni041A" unicode="&#x41a;" horiz-adv-x="1325" 
d="M191 0v1464h228v-679h3l603 681h251l-636 -706l668 -760h-274l-612 696h-3v-696h-228z" />
    <glyph glyph-name="uni041B" unicode="&#x41b;" horiz-adv-x="1456" 
d="M50 0v204c2 -1 7 -2 13 -3h2c17 -2 35 -4 51 -4c118 0 165 109 190 359c21 269 28 572 32 908h939v-1464h-228v1277h-502c-9 -345 -22 -597 -34 -754c-17 -230 -79 -541 -374 -541c-29 0 -51 3 -67 9z" />
    <glyph glyph-name="uni041C" unicode="&#x41c;" horiz-adv-x="1813" 
d="M191 0v1464h312l421 -1064h2l410 1064h309v-1464h-228v1165h-3l-465 -1165h-72l-477 1165h-3v-1165h-206z" />
    <glyph glyph-name="uni041D" unicode="&#x41d;" horiz-adv-x="1536" 
d="M191 0v1464h228v-641h723v641h228v-1464h-228v635h-723v-635h-228z" />
    <glyph glyph-name="uni041E" unicode="&#x41e;" horiz-adv-x="1684" 
d="M857 -20c-434 0 -740 314 -740 742v15c0 425 305 747 741 747c433 0 734 -315 734 -742v-15c0 -427 -296 -747 -735 -747zM866 167c326 0 488 259 488 560v15c0 300 -172 555 -505 555c-329 0 -495 -249 -495 -558v-15c0 -296 186 -557 512 -557z" />
    <glyph glyph-name="uni041F" unicode="&#x41f;" horiz-adv-x="1516" 
d="M177 0v1464h1160v-1464h-228v1277h-704v-1277h-228z" />
    <glyph glyph-name="uni0420" unicode="&#x420;" horiz-adv-x="1235" 
d="M191 -1v1465h448c312 0 533 -133 533 -441v-8c0 -318 -238 -442 -529 -442h-224v-574h-228zM419 746h226c200 0 303 93 303 268v8c0 176 -100 263 -303 263h-226v-539z" />
    <glyph glyph-name="uni0421" unicode="&#x421;" horiz-adv-x="1525" 
d="M1277 498l201 -86c-93 -250 -351 -432 -653 -432c-459 0 -708 303 -708 742v16c0 412 275 747 708 747c297 0 492 -131 634 -406l-208 -89c-76 196 -233 310 -424 310c-313 0 -472 -250 -472 -560v-16c0 -317 150 -557 471 -557c207 0 387 138 451 331z" />
    <glyph glyph-name="uni0422" unicode="&#x422;" horiz-adv-x="1188" 
d="M490 0v1281h-421v183h1072v-183h-422v-1281h-229z" />
    <glyph glyph-name="uni0423" unicode="&#x423;" horiz-adv-x="1250" 
d="M199 2v189c27 -7 57 -10 83 -10c113 0 189 60 251 185l-498 1098h242l367 -841h3l367 841h219l-493 -1113c-83 -187 -190 -366 -421 -366h-17c-18 0 -35 1 -50 4c-22 2 -41 6 -53 13z" />
    <glyph glyph-name="uni0424" unicode="&#x424;" horiz-adv-x="1752" 
d="M763 0v191h-2c-357 7 -669 138 -669 532v11c4 392 304 543 669 554h2v176h224v-176h2c357 -10 668 -142 668 -542v-16c-8 -391 -309 -532 -668 -539h-2v-191h-224zM987 1120v-759h2c260 5 435 92 438 371v16c0 253 -155 362 -438 372h-2zM763 359v759h-2
c-273 -12 -435 -105 -438 -386v-10c0 -245 152 -357 438 -363h2z" />
    <glyph glyph-name="uni0425" unicode="&#x425;" horiz-adv-x="1404" 
d="M94 0l485 752l-450 712h257l340 -546h2l338 546h236l-448 -709l479 -755h-261l-372 592h-2l-370 -592h-234z" />
    <glyph glyph-name="uni0426" unicode="&#x426;" horiz-adv-x="1541" 
d="M177 0v1464h228v-1277h704v1277h228v-1277h170v-453h-193l-11 266h-1126z" />
    <glyph glyph-name="uni0427" unicode="&#x427;" horiz-adv-x="1423" 
d="M1015 0v677h-3c-100 -83 -264 -123 -392 -123c-314 0 -494 189 -494 543v367h228v-382c0 -231 101 -347 302 -347c120 0 287 42 358 150h1v579h228v-1464h-228z" />
    <glyph glyph-name="uni0428" unicode="&#x428;" horiz-adv-x="2066" 
d="M177 0v1464h228v-1277h513v1277h229v-1277h512v1277h228v-1464h-1710z" />
    <glyph glyph-name="uni0429" unicode="&#x429;" horiz-adv-x="2091" 
d="M177 0v1464h228v-1277h513v1277h228v-1277h513v1277h228v-1277h170v-453h-193l-10 266h-1677z" />
    <glyph glyph-name="uni042A" unicode="&#x42a;" horiz-adv-x="1507" 
d="M450 0v1278h-393v186h620v-574h226c305 0 530 -129 530 -436v-8c0 -305 -226 -446 -534 -446h-449zM677 179h229c202 0 302 91 302 267v8c0 176 -100 263 -303 263h-228v-538z" />
    <glyph glyph-name="uni042B" unicode="&#x42b;" horiz-adv-x="1729" 
d="M177 0v1464h228v-574h214c304 0 529 -129 529 -436v-8c0 -305 -226 -446 -533 -446h-438zM1321 0v1464h228v-1464h-228zM405 179h216c202 0 303 91 303 267v8c0 176 -101 263 -303 263h-216v-538z" />
    <glyph glyph-name="uni042C" unicode="&#x42c;" horiz-adv-x="1235" 
d="M177 0v1464h228v-574h226c305 0 529 -129 529 -436v-8c0 -305 -225 -446 -533 -446h-450zM405 179h228c202 0 303 91 303 267v8c0 176 -101 263 -304 263h-227v-538z" />
    <glyph glyph-name="uni042D" unicode="&#x42d;" horiz-adv-x="1525" 
d="M54 388l209 90c58 -172 234 -312 445 -312c289 0 449 212 468 490h-670v180h671c-27 296 -182 463 -449 463c-227 0 -385 -120 -455 -323l-200 85c118 288 338 424 658 424h3c438 -1 686 -310 686 -734v-17c0 -423 -251 -754 -712 -754c-301 0 -550 158 -654 408z" />
    <glyph glyph-name="uni042E" unicode="&#x42e;" horiz-adv-x="2160" 
d="M177 0v1464h228v-641h224c32 387 318 661 720 661c431 0 706 -316 706 -739v-17c0 -418 -273 -748 -711 -748c-395 0 -676 268 -716 655h-223v-635h-228zM1352 168c325 0 465 265 465 560v16c0 295 -146 556 -478 556c-320 0 -476 -240 -476 -559v-16
c0 -289 162 -557 489 -557z" />
    <glyph glyph-name="uni042F" unicode="&#x42f;" horiz-adv-x="1330" 
d="M40 -1l461 638h-1c-219 44 -337 177 -337 398v8c0 307 232 421 535 421h453v-1465h-227v610h-199l-432 -610h-253zM924 779v506h-231c-201 0 -304 -65 -304 -245v-8c0 -169 101 -253 304 -253h231z" />
    <glyph glyph-name="uni0430" unicode="&#x430;" horiz-adv-x="1135" 
d="M786 0v133h-2c-79 -101 -190 -153 -336 -153c-207 0 -358 103 -358 317c0 264 286 336 549 336h146v66c0 161 -85 227 -227 227c-146 0 -230 -70 -272 -171l-177 75c110 191 249 262 473 262c264 0 414 -122 414 -388v-704h-210zM785 494h-140c-228 0 -343 -61 -343 -199
c0 -102 63 -156 194 -156c167 0 289 89 289 236v119z" />
    <glyph glyph-name="uni0431" unicode="&#x431;" horiz-adv-x="1272" 
d="M261 820h13c77 147 224 236 418 236c309 0 496 -223 496 -524v-10c0 -322 -220 -542 -547 -542c-338 0 -543 207 -543 642v67c0 472 123 860 617 878l55 2c155 6 261 22 311 42l14 -170c-70 -28 -178 -46 -327 -56l-43 -2c-345 -16 -440 -246 -464 -563zM644 150
c203 0 325 133 325 370v7c0 225 -110 359 -314 359c-209 0 -338 -140 -338 -370v-6c0 -212 113 -360 327 -360z" />
    <glyph glyph-name="uni0432" unicode="&#x432;" horiz-adv-x="1100" 
d="M161 0v1071h411c253 0 389 -88 389 -269v-5c0 -113 -62 -202 -186 -234c157 -31 234 -111 234 -242v-5c0 -206 -145 -316 -396 -316h-452zM373 626h179c131 0 187 47 187 153v6c0 101 -59 135 -193 135h-173v-294zM373 151h206c141 0 209 48 209 159v5
c0 110 -66 159 -204 159h-211v-323z" />
    <glyph glyph-name="uni0433" unicode="&#x433;" horiz-adv-x="922" 
d="M161 0v1071h705v-166h-493v-905h-212z" />
    <glyph glyph-name="uni0434" unicode="&#x434;" horiz-adv-x="1218" 
d="M29 -260v426h70c70 20 96 98 116 244c34 217 42 441 46 661h757v-905h163v-426h-178l-10 260h-777l-9 -260h-178zM346 166h464v739h-364c-5 -170 -19 -592 -100 -739z" />
    <glyph glyph-name="uni0435" unicode="&#x435;" horiz-adv-x="1190" 
d="M947 318l180 -77c-96 -170 -263 -261 -494 -261c-325 0 -537 226 -537 543v19c0 307 203 550 523 550c330 0 502 -222 502 -536v-65h-805c9 -216 117 -346 327 -346c152 0 245 68 304 173zM321 646h586c-16 170 -109 283 -288 283c-160 0 -288 -119 -298 -283z" />
    <glyph glyph-name="uni0436" unicode="&#x436;" horiz-adv-x="1512" 
d="M32 0l418 571l-382 500h224l357 -491h2v491h208v-492h2l358 492h225l-383 -498l419 -573h-237l-382 539h-2v-539h-208v538h-2l-382 -538h-235z" />
    <glyph glyph-name="uni0437" unicode="&#x437;" horiz-adv-x="1044" 
d="M55 263l171 73c43 -113 123 -189 284 -189c139 0 224 56 224 166v6c0 108 -66 155 -204 155h-155v152h130c127 0 182 46 182 149v6c0 93 -73 140 -190 140c-112 0 -178 -43 -237 -154l-169 72c79 182 237 253 432 253c183 0 385 -81 385 -290v-6
c0 -114 -66 -207 -188 -233c148 -25 235 -107 235 -240v-7c0 -237 -219 -336 -437 -336c-232 0 -402 112 -463 283z" />
    <glyph glyph-name="uni0438" unicode="&#x438;" horiz-adv-x="1241" 
d="M161 0v1071h212v-788h2l510 788h211v-1071h-211v788h-2l-510 -788h-212z" />
    <glyph glyph-name="uni0439" unicode="&#x439;" horiz-adv-x="1241" 
d="M336 1534h170c8 -94 48 -142 121 -142c74 0 116 48 127 142h165c-12 -163 -129 -280 -293 -280c-167 0 -282 120 -290 280zM161 0v1071h212v-788h2l510 788h211v-1071h-211v788h-2l-510 -788h-212z" />
    <glyph glyph-name="uni043A" unicode="&#x43a;" horiz-adv-x="1097" 
d="M160 0v1071h213v-486h2l416 486h240l-442 -499l478 -572h-251l-441 533h-2v-533h-213z" />
    <glyph glyph-name="uni043B" unicode="&#x43b;" horiz-adv-x="1167" 
d="M44 -1v180c16 -5 34 -8 47 -8c108 0 137 199 139 270l21 630h754v-1071h-212v905h-355l-14 -482c-5 -184 -60 -436 -302 -436c-22 0 -55 2 -78 12z" />
    <glyph glyph-name="uni043C" unicode="&#x43c;" horiz-adv-x="1484" 
d="M162 0v1071h292l289 -756h2l296 756h278v-1071h-209v857h-2l-340 -857h-100l-336 857h-2v-857h-168z" />
    <glyph glyph-name="uni043D" unicode="&#x43d;" horiz-adv-x="1237" 
d="M161 0v1071h212v-440h491v440h212v-1071h-212v465h-491v-465h-212z" />
    <glyph glyph-name="uni043E" unicode="&#x43e;" horiz-adv-x="1260" 
d="M642 -20c-322 0 -546 232 -546 545v17c0 317 221 550 547 550c324 0 544 -228 544 -546v-17c0 -318 -222 -549 -545 -549zM641 150c218 0 327 163 327 377v15c0 215 -108 380 -324 380c-203 0 -328 -146 -328 -378v-17c0 -233 120 -377 325 -377z" />
    <glyph glyph-name="uni043F" unicode="&#x43f;" horiz-adv-x="1217" 
d="M161 0v1071h895v-1071h-212v905h-471v-905h-212z" />
    <glyph glyph-name="uni0440" unicode="&#x440;" horiz-adv-x="1306" 
d="M172 -370v1441h215v-177h2c69 121 216 198 359 198c320 0 485 -248 485 -543v-16c0 -295 -162 -553 -481 -553c-166 0 -291 70 -363 192h-2v-542h-215zM705 152c202 0 309 130 309 374v17c0 244 -127 377 -316 377c-187 0 -318 -131 -318 -377v-17
c0 -246 126 -374 325 -374z" />
    <glyph glyph-name="uni0441" unicode="&#x441;" horiz-adv-x="1187" 
d="M975 389l168 -71c-77 -205 -274 -338 -507 -338c-327 0 -540 223 -540 543v17c0 312 217 552 538 552c237 0 392 -95 500 -310l-177 -76c-57 134 -162 213 -309 213c-218 0 -332 -171 -332 -377v-17c0 -242 133 -376 334 -376c152 0 278 105 325 240z" />
    <glyph glyph-name="uni0442" unicode="&#x442;" horiz-adv-x="1001" 
d="M394 0v905h-341v166h895v-166h-341v-905h-213z" />
    <glyph glyph-name="uni0443" unicode="&#x443;" horiz-adv-x="1122" 
d="M284 -370l200 480l-427 961h229l309 -726h2l282 726h211l-595 -1441h-211z" />
    <glyph glyph-name="uni0444" unicode="&#x444;" horiz-adv-x="1516" 
d="M654 -370v353h-1c-325 16 -564 208 -564 542v17c0 336 236 532 564 547h1v485h209v-485h1c327 -16 564 -205 564 -542v-17c0 -335 -235 -533 -564 -547h-1v-353h-209zM654 141v791h-1c-208 -10 -347 -149 -347 -386v-15c0 -224 123 -383 347 -390h1zM863 931v-791h1
c222 7 347 167 347 386v16c0 242 -137 377 -347 389h-1z" />
    <glyph glyph-name="uni0445" unicode="&#x445;" horiz-adv-x="1126" 
d="M63 0l383 550l-358 521h247l245 -366h2l242 366h226l-355 -506l391 -565h-248l-272 408h-2l-277 -408h-224z" />
    <glyph glyph-name="uni0446" unicode="&#x446;" horiz-adv-x="1255" 
d="M161 0v1071h212v-905h471v905h212v-905h162v-426h-175l-12 260h-870z" />
    <glyph glyph-name="uni0447" unicode="&#x447;" horiz-adv-x="1167" 
d="M793 0v487h-2c-76 -82 -185 -114 -294 -119c-276 0 -377 166 -377 426v277h212v-276c0 -172 68 -253 222 -253c103 0 183 36 239 109v420h212v-1071h-212z" />
    <glyph glyph-name="uni0448" unicode="&#x448;" horiz-adv-x="1696" 
d="M161 0v1071h212v-905h369v905h212v-905h369v905h212v-1071h-1374z" />
    <glyph glyph-name="uni0449" unicode="&#x449;" horiz-adv-x="1735" 
d="M161 0v1071h212v-905h369v905h212v-905h369v905h212v-905h162v-426h-174l-13 260h-1349z" />
    <glyph glyph-name="uni044A" unicode="&#x44a;" horiz-adv-x="1236" 
d="M349 0v905h-296v166h507v-363h196c237 0 415 -105 415 -350v-6c0 -240 -177 -352 -418 -352h-404zM560 160h181c152 0 217 59 217 193v5c0 126 -65 189 -217 189h-181v-387z" />
    <glyph glyph-name="uni044B" unicode="&#x44b;" horiz-adv-x="1490" 
d="M161 0v1071h212v-363h190c238 0 416 -107 416 -350v-6c0 -241 -177 -352 -420 -352h-398zM1117 0v1071h211v-1071h-211zM373 160h176c152 0 216 60 216 193v5c0 127 -64 190 -216 190h-176v-388z" />
    <glyph glyph-name="uni044C" unicode="&#x44c;" horiz-adv-x="1050" 
d="M161 0v1071h212v-363h195c237 0 416 -114 416 -355v-6c0 -245 -175 -347 -419 -347h-404zM373 159h180c153 0 217 64 217 188v7c0 132 -66 195 -217 195h-180v-390z" />
    <glyph glyph-name="uni044D" unicode="&#x44d;" horiz-adv-x="1187" 
d="M56 286l179 76c39 -116 156 -213 331 -213c183 0 295 152 314 320h-503v153h503c-24 197 -142 298 -317 298c-158 0 -282 -83 -337 -232l-174 76c80 214 279 328 517 328c326 0 532 -212 532 -538v-16c0 -302 -207 -558 -524 -558c-242 0 -425 90 -521 306z" />
    <glyph glyph-name="uni044E" unicode="&#x44e;" horiz-adv-x="1652" 
d="M161 0v1071h212v-441h154c37 276 231 462 519 462c322 0 521 -232 521 -545v-17c0 -314 -199 -549 -517 -549c-293 0 -511 200 -525 484h-152v-465h-212zM1042 151c197 0 306 144 306 376v16c0 236 -109 378 -305 378c-195 0 -304 -140 -304 -375v-17
c0 -221 97 -378 303 -378z" />
    <glyph glyph-name="uni044F" unicode="&#x44f;" horiz-adv-x="1096" 
d="M44 0l313 445h-1c-157 38 -235 133 -235 285v6c0 235 181 335 417 335h402v-1071h-213v405h-168l-277 -405h-238zM727 556v355h-177c-145 0 -216 -59 -216 -177v-6c0 -114 65 -172 216 -172h177z" />
    <glyph glyph-name="uni0451" unicode="&#x451;" horiz-adv-x="1190" 
d="M408 1262c-69 0 -129 53 -129 125c0 69 54 124 124 124c69 0 130 -53 130 -124c0 -68 -55 -125 -125 -125zM828 1266c-66 0 -125 51 -125 121c0 67 55 120 123 120c67 0 122 -51 122 -120c0 -65 -50 -121 -120 -121zM952 316l176 -76c-96 -178 -262 -260 -495 -260
c-325 0 -537 225 -537 543v19c0 308 203 550 523 550c331 0 502 -222 502 -536v-65h-805c8 -228 117 -346 325 -346c154 0 256 64 311 171zM321 646h586c-13 190 -109 283 -288 283c-160 0 -269 -103 -298 -283z" />
    <glyph glyph-name="uni0452" unicode="&#x452;" horiz-adv-x="1252" 
d="M160 0v1248h-147v139h147v187h213v-187h360v-139h-360v-348h2c69 132 205 192 356 192c227 0 369 -136 369 -427v-705c0 -183 -57 -350 -363 -350h-4v169c114 10 155 59 155 168v713c0 174 -74 253 -236 253c-164 0 -279 -106 -279 -274v-639h-213z" />
    <glyph glyph-name="uni0453" unicode="&#x453;" horiz-adv-x="922" 
d="M436 1244l125 309h248l-216 -309h-157zM161 0v1071h705v-166h-493v-905h-212z" />
    <glyph glyph-name="uni0454" unicode="&#x454;" horiz-adv-x="1187" 
d="M310 624h498v-153h-501c17 -209 140 -322 326 -322c154 0 280 101 328 237l172 -74c-77 -209 -262 -332 -507 -332c-330 0 -542 224 -542 543v17c0 311 218 552 537 552c231 0 395 -96 501 -306l-183 -78c-49 129 -159 212 -307 212c-171 0 -294 -111 -322 -296z" />
    <glyph glyph-name="uni0455" unicode="&#x455;" horiz-adv-x="1009" 
d="M62 251l173 75c39 -95 149 -183 290 -183c136 0 216 50 216 153c0 95 -68 133 -243 162c-204 34 -384 84 -384 321c0 208 199 313 387 313c192 0 327 -65 426 -241l-169 -73c-47 84 -129 150 -257 150c-118 0 -190 -55 -190 -139c0 -108 118 -132 239 -150
c207 -39 395 -91 395 -330c0 -232 -178 -327 -418 -329c-226 0 -411 116 -465 271z" />
    <glyph glyph-name="uni0456" unicode="&#x456;" horiz-adv-x="544" 
d="M150 1398c0 73 59 129 132 129c74 0 132 -55 132 -130c0 -73 -58 -129 -132 -129c-73 0 -132 56 -132 130zM178 0v1071h212v-1071h-212z" />
    <glyph glyph-name="uni0457" unicode="&#x457;" horiz-adv-x="544" 
d="M321 1387c0 68 56 122 123 122c69 0 123 -54 123 -122c0 -67 -54 -122 -123 -122c-67 0 -123 55 -123 122zM110 1265c-67 0 -122 55 -122 122c0 68 55 122 122 122c69 0 124 -54 124 -122c0 -67 -55 -122 -124 -122zM168 0v1071h212v-1071h-212z" />
    <glyph glyph-name="uni0458" unicode="&#x458;" horiz-adv-x="544" 
d="M150 1398c0 73 59 129 132 129c74 0 132 -56 132 -130c0 -73 -58 -129 -132 -129c-72 0 -132 56 -132 130zM24 -388v169c113 9 154 58 154 158v1132h212v-1068l-2 -82c-8 -228 -146 -303 -364 -309z" />
    <glyph glyph-name="uni0459" unicode="&#x459;" horiz-adv-x="1638" 
d="M44 -1v181c9 -4 41 -8 56 -8c97 0 115 165 124 283c16 176 22 387 26 616h732v-363h175c237 0 416 -104 416 -349v-6c0 -242 -177 -353 -419 -353h-383v904h-333c-9 -244 -16 -403 -25 -474c-25 -305 -102 -443 -290 -443c-23 0 -44 2 -60 5zM982 160h160
c152 0 216 60 216 193v7c0 126 -64 189 -216 189h-160v-389z" />
    <glyph glyph-name="uni045A" unicode="&#x45a;" horiz-adv-x="1711" 
d="M161 0v1071h212v-440h469v440h214v-363h174c237 0 415 -103 415 -348v-7c0 -242 -176 -353 -418 -353h-385v465h-469v-465h-212zM1056 160h159c152 0 216 60 216 194v6c0 127 -64 189 -216 189h-159v-389z" />
    <glyph glyph-name="uni045B" unicode="&#x45b;" horiz-adv-x="1252" 
d="M160 0v1248h-147v139h147v187h214v-187h359v-139h-359v-347h2c60 116 178 191 350 191c232 0 374 -137 374 -427v-665h-213v660c0 174 -73 253 -235 253c-164 0 -278 -106 -278 -274v-639h-214z" />
    <glyph glyph-name="uni045C" unicode="&#x45c;" horiz-adv-x="1097" 
d="M508 1244l125 309h248l-216 -309h-157zM160 0v1071h213v-486h2l416 486h240l-442 -499l478 -572h-251l-441 533h-2v-533h-213z" />
    <glyph glyph-name="uni045D" unicode="&#x45d;" horiz-adv-x="1244" 
d="M567 1242l-215 309h246l126 -309h-157zM161 0v1071h212v-788h2l510 788h211v-1071h-211v788h-2l-510 -788h-212z" />
    <glyph glyph-name="uni045E" unicode="&#x45e;" horiz-adv-x="1122" 
d="M294 1534h169c8 -94 48 -142 120 -142c75 0 118 51 128 142h166c-15 -162 -130 -280 -294 -280c-166 0 -283 120 -289 280zM284 -370l200 480l-427 961h229l309 -726h2l282 726h211l-595 -1441h-211z" />
    <glyph glyph-name="uni045F" unicode="&#x45f;" horiz-adv-x="1217" 
d="M161 0v1071h212v-905h471v905h212v-1071h-357l-4 -260h-171l-7 260h-356z" />
    <glyph glyph-name="uni0490" unicode="&#x490;" horiz-adv-x="1127" 
d="M177 0v1464h669l11 275h193v-462h-645v-1277h-228z" />
    <glyph glyph-name="uni0491" unicode="&#x491;" horiz-adv-x="895" 
d="M161 0v1071h482l13 275h174v-441h-457v-905h-212z" />
    <glyph glyph-name="Wgrave" unicode="&#x1e80;" horiz-adv-x="1986" 
d="M915 1573l-201 268h248l112 -268h-159zM452 0l-394 1464h234l293 -1132l325 1132h185l325 -1136l295 1136h213l-387 -1464h-221l-324 1108l-331 -1108h-213z" />
    <glyph glyph-name="wgrave" unicode="&#x1e81;" horiz-adv-x="1670" 
d="M769 1244l-213 309h246l123 -309h-156zM386 0l-340 1072h227l240 -816l244 816h178l233 -816l244 816h211l-342 -1072h-223l-217 761l-234 -761h-221z" />
    <glyph glyph-name="Wacute" unicode="&#x1e82;" horiz-adv-x="1986" 
d="M933 1573l113 268h249l-202 -268h-160zM452 0l-394 1464h234l293 -1132l325 1132h185l325 -1136l295 1136h213l-387 -1464h-221l-324 1108l-331 -1108h-213z" />
    <glyph glyph-name="wacute" unicode="&#x1e83;" horiz-adv-x="1670" 
d="M769 1244l123 309h246l-213 -309h-156zM386 0l-340 1072h227l240 -816l244 816h178l233 -816l244 816h211l-342 -1072h-223l-217 761l-234 -761h-221z" />
    <glyph glyph-name="Wdieresis" unicode="&#x1e84;" horiz-adv-x="1986" 
d="M673 1724c0 68 55 121 123 121c67 0 123 -53 123 -121s-56 -122 -123 -122c-66 0 -123 54 -123 122zM1097 1724c0 68 55 121 123 121c67 0 123 -53 123 -121s-56 -122 -123 -122c-66 0 -123 54 -123 122zM452 0l-394 1464h234l293 -1132l325 1132h185l325 -1136l295 1136
h213l-387 -1464h-221l-324 1108l-331 -1108h-213z" />
    <glyph glyph-name="wdieresis" unicode="&#x1e85;" horiz-adv-x="1670" 
d="M914 1398c0 67 55 121 123 121c67 0 123 -52 123 -121c0 -68 -56 -121 -123 -121c-68 0 -123 53 -123 121zM519 1398c0 65 56 121 123 121c66 0 123 -54 123 -121c0 -66 -57 -121 -123 -121c-65 0 -123 55 -123 121zM386 0l-340 1072h227l240 -816l244 816h177l234 -816
l244 816h211l-342 -1072h-223l-217 761l-234 -761h-221z" />
    <glyph glyph-name="Ygrave" unicode="&#x1ef2;" horiz-adv-x="1240" 
d="M571 1573l-203 268h250l110 -268h-157zM517 0v629l-479 835h254l348 -647l336 647h225l-452 -835v-629h-232z" />
    <glyph glyph-name="ygrave" unicode="&#x1ef3;" horiz-adv-x="1105" 
d="M495 1244l-213 309h245l125 -309h-157zM265 -371l197 482l-422 961h229l306 -728l276 728h211l-588 -1443h-209z" />
    <glyph glyph-name="uni2009" unicode="&#x2009;" horiz-adv-x="187" 
 />
    <glyph glyph-name="endash" unicode="&#x2013;" horiz-adv-x="1458" 
d="M155 471v143h1149v-143h-1149z" />
    <glyph glyph-name="emdash" unicode="&#x2014;" horiz-adv-x="2050" 
d="M155 471v143h1741v-143h-1741z" />
    <glyph glyph-name="quoteleft" unicode="&#x2018;" horiz-adv-x="583" 
d="M104 1055l248 430l127 -57l-179 -455z" />
    <glyph glyph-name="quoteright" unicode="&#x2019;" horiz-adv-x="583" 
d="M104 1032l178 453l197 -80l-248 -432z" />
    <glyph glyph-name="quotesinglbase" unicode="&#x201a;" horiz-adv-x="608" 
d="M117 -172l179 457l196 -82l-248 -432z" />
    <glyph glyph-name="quotedblleft" unicode="&#x201c;" horiz-adv-x="946" 
d="M94 1055l248 430l127 -57l-179 -455zM479 1055l248 430l125 -57l-179 -455z" />
    <glyph glyph-name="quotedblright" unicode="&#x201d;" horiz-adv-x="946" 
d="M94 1032l178 453l197 -80l-248 -432zM479 1032l178 453l195 -80l-248 -432z" />
    <glyph glyph-name="quotedblbase" unicode="&#x201e;" horiz-adv-x="970" 
d="M105 -172l179 457l196 -82l-248 -432zM490 -172l179 457l196 -82l-250 -432z" />
    <glyph glyph-name="dagger" unicode="&#x2020;" horiz-adv-x="851" 
d="M334 -303v1337h-233v164h233v399h185v-399h231v-164h-231v-1337h-185z" />
    <glyph glyph-name="daggerdbl" unicode="&#x2021;" horiz-adv-x="851" 
d="M334 -303v399h-233v164h233v774h-233v164h233v399h185v-399h231v-164h-231v-774h231v-164h-231v-399h-185z" />
    <glyph glyph-name="bullet" unicode="&#x2022;" horiz-adv-x="741" 
d="M120 625c0 139 110 252 253 252c140 0 249 -109 249 -251c0 -143 -111 -251 -250 -251c-141 0 -252 111 -252 250z" />
    <glyph glyph-name="ellipsis" unicode="&#x2026;" horiz-adv-x="1736" 
d="M168 135c0 84 68 146 149 146c82 0 148 -65 148 -146c0 -82 -65 -147 -148 -147c-82 0 -149 63 -149 147zM721 134c0 83 67 147 149 147c81 0 148 -64 148 -146c0 -84 -67 -147 -148 -147c-82 0 -149 65 -149 146zM1272 135c0 84 68 146 149 146c82 0 147 -65 147 -146
c0 -82 -65 -147 -147 -147s-149 63 -149 147z" />
    <glyph glyph-name="perthousand" unicode="&#x2030;" horiz-adv-x="2393" 
d="M426 797c-187 0 -338 151 -338 339c0 187 148 341 338 341c188 0 338 -151 338 -339s-148 -341 -338 -341zM276 0l921 1464h165l-922 -1464h-164zM424 946c116 0 161 92 161 189c0 103 -50 193 -162 193c-111 0 -157 -89 -157 -193c0 -102 45 -189 158 -189zM1967 -18
c-187 0 -339 151 -339 341c0 187 146 340 337 340c188 0 339 -151 339 -341c0 -188 -149 -340 -337 -340zM860 325c0 187 148 338 337 338c190 0 339 -151 339 -339s-148 -342 -336 -342c-186 0 -340 151 -340 343zM1196 131c116 0 162 92 162 190c0 103 -50 193 -163 193
c-111 0 -157 -88 -157 -192c0 -105 46 -191 158 -191zM1965 131c115 0 161 89 161 187c0 106 -53 196 -164 196c-110 0 -156 -89 -156 -193c0 -103 45 -190 159 -190z" />
    <glyph glyph-name="minute" unicode="&#x2032;" horiz-adv-x="496" 
d="M112 950l50 514h217l-115 -514h-152z" />
    <glyph glyph-name="second" unicode="&#x2033;" horiz-adv-x="850" 
d="M467 950l49 514h219l-117 -514h-151zM112 950l50 514h217l-115 -514h-152z" />
    <glyph glyph-name="guilsinglleft" unicode="&#x2039;" horiz-adv-x="711" 
d="M396 164l-264 371l264 370h184l-254 -370l254 -371h-184z" />
    <glyph glyph-name="guilsinglright" unicode="&#x203a;" horiz-adv-x="711" 
d="M132 164l251 371l-251 370h184l264 -370l-264 -371h-184z" />
    <glyph glyph-name="fraction" unicode="&#x2044;" horiz-adv-x="257" 
d="M-477 0l1061 1464h147l-1061 -1464h-147z" />
    <glyph glyph-name="uni207D" unicode="&#x207d;" horiz-adv-x="397" 
d="M337 632h-148c-90 151 -129 287 -129 462c0 177 40 322 129 474h148c-80 -161 -128 -291 -128 -471c0 -181 49 -306 128 -465z" />
    <glyph glyph-name="uni207E" unicode="&#x207e;" horiz-adv-x="397" 
d="M208 632h-148c78 161 128 283 128 467c0 178 -47 308 -128 469h148c89 -152 129 -297 129 -473c0 -177 -41 -310 -129 -463z" />
    <glyph glyph-name="uni208D" unicode="&#x208d;" horiz-adv-x="397" 
d="M337 -318h-148c-90 151 -129 287 -129 462c0 177 40 322 129 474h148c-80 -161 -128 -291 -128 -471c0 -181 49 -306 128 -465z" />
    <glyph glyph-name="uni208E" unicode="&#x208e;" horiz-adv-x="397" 
d="M208 -318h-148c78 160 128 283 128 467c0 178 -47 308 -128 469h148c89 -152 129 -297 129 -473c0 -177 -41 -311 -129 -463z" />
    <glyph glyph-name="Euro" unicode="&#x20ac;" horiz-adv-x="1424" 
d="M71 528v125h140v148h-140v125h148c35 312 238 557 567 557c269 0 429 -128 518 -377l-184 -78c-53 171 -145 279 -334 279c-223 0 -323 -183 -344 -381h453l-23 -125h-436v-148h408l-23 -125h-379c24 -203 132 -364 350 -364c199 0 299 135 355 305l174 -76
c-72 -256 -257 -413 -524 -413c-328 0 -538 238 -578 548h-148z" />
    <glyph glyph-name="uni20B8" unicode="&#x20b8;" horiz-adv-x="1221" 
d="M76 1321v143h1068v-143h-1068zM496 0v964h-420v145h1068v-145h-405v-964h-243z" />
    <glyph glyph-name="uni20B9" unicode="&#x20b9;" horiz-adv-x="1147" 
d="M642 0l-350 549h-191v158h59c181 0 367 11 418 219h-477v155h479c-28 179 -168 228 -328 228h-151v155h944v-155h-377c75 -56 123 -136 136 -228h241v-155h-241c-32 -163 -154 -286 -312 -334l416 -592h-266z" />
    <glyph glyph-name="uni20BA" unicode="&#x20ba;" horiz-adv-x="1132" 
d="M289 0v798l-219 -53v125l219 53v134l-219 -53v127l219 53v280h219v-229l304 76v-127l-304 -76v-134l304 76v-125l-304 -76v-688c189 3 354 148 405 324l164 -71c-78 -251 -341 -432 -607 -432c-63 0 -121 3 -181 18z" />
    <glyph glyph-name="uni20BC" unicode="&#x20bc;" horiz-adv-x="1287" 
d="M83 0v616c0 302 166 584 483 616v232h153v-232c317 -32 484 -313 484 -615v-617h-229v623c0 199 -43 394 -255 428l1 -822h-153l-1 822c-210 -36 -254 -229 -254 -428v-623h-229z" />
    <glyph glyph-name="uni20BF" unicode="&#x20bf;" horiz-adv-x="1235" 
d="M120 0v1456h225v208h125v-200h126v200h125v-200c219 -19 373 -125 373 -393c0 -150 -74 -261 -223 -309c197 -43 288 -149 288 -347c0 -285 -190 -401 -438 -414v-203h-125v202h-126v-202h-125v202h-225zM338 832h277c175 0 270 63 270 234c0 193 -122 236 -273 232
l-274 -8v-458zM338 167h325c180 0 284 72 284 251c0 205 -136 252 -307 252h-302v-503z" />
    <glyph glyph-name="uni2105" unicode="&#x2105;" horiz-adv-x="1902" 
d="M466 0l869 1464h120l-863 -1464h-126zM679 950l107 -49c-56 -142 -180 -226 -334 -226c-226 0 -357 179 -357 384c0 219 149 398 372 398c141 0 249 -71 313 -204l-113 -52c-35 90 -111 155 -214 155c-160 0 -220 -157 -220 -299c0 -147 63 -282 219 -282
c117 0 195 76 227 175zM1439 -14c-222 0 -362 169 -362 381c0 221 152 386 371 386c222 0 366 -170 366 -381c0 -219 -155 -386 -375 -386zM1445 88c160 0 231 144 231 284c0 142 -74 279 -237 279c-164 0 -224 -139 -224 -288c0 -141 75 -275 230 -275z" />
    <glyph glyph-name="uni2116" unicode="&#x2116;" horiz-adv-x="2347" 
d="M191 0v1466h232l733 -1212v1212h170v-1466h-205l-760 1255v-1255h-170zM1849 304c-222 0 -363 170 -363 382c0 220 152 385 371 385c222 0 366 -170 366 -381c0 -219 -154 -386 -374 -386zM1855 406c163 0 214 149 214 285c0 139 -54 278 -219 278
c-167 0 -210 -143 -210 -288c0 -139 58 -275 215 -275zM1545 0v108h619v-108h-619z" />
    <glyph glyph-name="trademark" unicode="&#x2122;" horiz-adv-x="1510" 
d="M713 805v659h180l170 -434l167 434h183v-659h-138v485l-197 -485h-44l-198 485v-485h-123zM274 805v551h-194v108h524v-108h-192v-551h-138z" />
    <glyph glyph-name="estimated" unicode="&#x212e;" horiz-adv-x="1583" 
d="M342 687v-328c0 -19 6 -35 19 -48c109 -125 286 -199 450 -199c176 0 367 86 482 219l103 -51c-136 -179 -367 -280 -589 -280c-394 0 -739 318 -739 721c0 390 324 710 719 710c394 0 719 -320 719 -716v-28h-1164zM342 794h896v291c0 12 -18 40 -26 51
c-101 123 -265 187 -419 187c-159 0 -332 -68 -431 -193c-13 -15 -20 -32 -20 -49v-287z" />
    <glyph glyph-name="onethird" unicode="&#x2153;" horiz-adv-x="1521" 
d="M98 0l1061 1464h148l-1061 -1464h-148zM219 750v553l-166 -107v141l189 127h145v-714h-168zM897 166l121 51c22 -76 70 -108 145 -108c71 0 123 30 123 107c0 93 -78 97 -151 97h-21v107h23c70 0 141 5 141 89c0 64 -41 93 -100 93c-66 0 -114 -35 -135 -97l-119 51
c32 118 145 167 258 167c120 0 254 -55 254 -191c0 -83 -50 -133 -123 -157c87 -17 141 -79 141 -175c0 -154 -140 -212 -278 -212c-125 0 -247 47 -279 178z" />
    <glyph glyph-name="twothirds" unicode="&#x2154;" horiz-adv-x="1600" 
d="M20 752v43l263 258c53 53 116 120 116 200c0 60 -34 95 -94 95c-75 0 -115 -56 -131 -123l-135 28c27 149 123 222 272 222c139 0 250 -64 250 -209c0 -105 -58 -191 -226 -343l-54 -49h286v-122h-547zM207 0l1061 1464h147l-1061 -1464h-147zM979 167l119 51
c20 -76 71 -108 145 -108c69 0 125 28 125 107c0 92 -77 96 -150 96h-22v107h23c70 0 141 5 141 87c0 67 -47 97 -111 97s-106 -30 -131 -98l-117 51c40 121 143 166 258 166c125 0 259 -54 259 -193c0 -83 -47 -131 -123 -155c88 -19 141 -78 141 -174
c0 -156 -140 -213 -279 -213c-127 0 -246 47 -278 179z" />
    <glyph glyph-name="uni2155" unicode="&#x2155;" horiz-adv-x="1453" 
d="M45 0l1061 1464h147l-1061 -1464h-147zM225 750v553l-166 -97v142l189 116h145v-714h-168zM833 150l123 53c23 -59 79 -88 139 -88c80 0 115 52 115 125c0 75 -37 122 -117 122c-47 0 -94 -16 -125 -57h-102l10 410h461v-125h-338l-4 -182c41 51 100 69 164 69
c147 0 219 -96 219 -230c0 -174 -122 -257 -282 -257c-110 0 -228 39 -263 160z" />
    <glyph glyph-name="uni2156" unicode="&#x2156;" horiz-adv-x="1570" 
d="M27 750v41l262 260c53 53 117 121 117 205c0 58 -31 92 -91 92c-76 0 -128 -54 -151 -119l-117 51c37 128 139 193 275 193c134 0 247 -63 247 -207c0 -98 -53 -178 -218 -335l-62 -59h286v-122h-548zM162 0l1061 1464h147l-1061 -1464h-147zM950 150l123 53
c23 -59 79 -88 139 -88c80 0 115 52 115 125c0 75 -37 122 -117 122c-47 0 -94 -16 -125 -57h-102l10 410h461v-125h-338l-4 -182c41 51 100 69 164 69c147 0 219 -96 219 -230c0 -174 -122 -257 -282 -257c-110 0 -228 39 -263 160z" />
    <glyph glyph-name="uni2157" unicode="&#x2157;" horiz-adv-x="1619" 
d="M53 915l121 52c25 -71 81 -109 158 -109c66 0 117 28 117 106c0 95 -75 99 -149 99h-21v106h25c69 0 136 7 136 92c0 64 -39 93 -103 93c-69 0 -118 -34 -142 -103l-121 52c43 120 151 170 269 170c123 0 255 -54 255 -192c0 -81 -46 -132 -121 -157
c88 -19 141 -76 141 -172c0 -157 -140 -217 -280 -217c-124 0 -253 47 -285 180zM201 0l1060 1464h147l-1060 -1464h-147zM999 150l122 53c23 -59 79 -88 139 -88c80 0 115 52 115 125c0 75 -37 122 -116 122c-46 0 -95 -16 -126 -57h-101l9 410h462v-123h-339l-4 -184
c41 51 100 69 164 69c147 0 220 -96 220 -230c0 -174 -122 -257 -283 -257c-111 0 -227 39 -262 160z" />
    <glyph glyph-name="uni2158" unicode="&#x2158;" horiz-adv-x="1638" 
d="M45 891v59l315 514h203v-456h92v-117h-92v-141h-160v141h-358zM230 0l1061 1464h147l-1061 -1464h-147zM211 1008h197v335zM1018 150l123 53c23 -59 79 -88 139 -88c80 0 115 52 115 125c0 75 -37 122 -117 122c-47 0 -94 -16 -125 -57h-102l10 410h461v-125h-338
l-4 -181c41 51 100 70 164 70c147 0 219 -98 219 -232c0 -174 -122 -257 -282 -257c-110 0 -228 39 -263 160z" />
    <glyph glyph-name="uni2159" unicode="&#x2159;" horiz-adv-x="1492" 
d="M45 0l1060 1464h146l-1059 -1464h-147zM225 750v553l-166 -97v142l189 116h145v-714h-168zM1413 588l-125 -51c-27 43 -73 65 -122 65c-117 0 -147 -130 -152 -225c39 61 101 88 177 88c136 0 234 -85 234 -229c0 -166 -128 -246 -284 -246c-210 0 -291 145 -291 345
c0 202 82 390 309 390c108 0 206 -42 254 -137zM1143 106c74 0 118 53 118 128c0 72 -40 124 -117 124c-71 0 -122 -45 -122 -123c0 -71 43 -129 121 -129z" />
    <glyph glyph-name="uni215A" unicode="&#x215a;" horiz-adv-x="1642" 
d="M55 897l121 53c25 -57 83 -86 140 -86c78 0 116 54 116 125s-38 122 -119 122c-45 0 -90 -16 -123 -57h-102l10 410h461v-127h-338l-4 -179c41 51 101 69 164 69c147 0 219 -98 219 -233c0 -172 -117 -257 -276 -257c-114 0 -229 44 -269 160zM195 0l1060 1464h146
l-1059 -1464h-147zM1563 588l-125 -51c-27 43 -73 65 -122 65c-117 0 -147 -130 -152 -225c39 61 101 88 177 88c136 0 234 -85 234 -229c0 -166 -128 -246 -284 -246c-210 0 -291 145 -291 345c0 202 82 390 309 390c108 0 206 -42 254 -137zM1293 106c74 0 118 53 118 128
c0 72 -40 124 -117 124c-71 0 -122 -45 -122 -123c0 -71 43 -129 121 -129z" />
    <glyph glyph-name="oneeighth" unicode="&#x215b;" horiz-adv-x="1504" 
d="M94 0l1061 1464h147l-1060 -1464h-148zM219 750v553l-166 -107v141l189 127h145v-714h-168zM1008 381c-64 27 -105 76 -105 149c0 134 141 193 261 193c114 0 251 -54 251 -190c0 -74 -41 -123 -105 -150c80 -29 132 -90 132 -180c0 -154 -151 -213 -285 -213
c-131 0 -280 55 -280 211c0 88 48 153 131 180zM1059 517c0 -58 47 -91 102 -91c56 0 98 33 98 90c0 58 -45 94 -100 94c-54 0 -100 -35 -100 -93zM1042 217c0 -68 52 -108 120 -108c66 0 115 37 115 106c0 72 -53 113 -118 113c-67 0 -117 -43 -117 -111z" />
    <glyph glyph-name="threeeighths" unicode="&#x215c;" horiz-adv-x="1566" 
d="M47 915l119 52c20 -76 71 -109 145 -109c69 0 125 29 125 109c0 90 -71 96 -143 96h-29v106h25c72 0 139 7 139 89c0 67 -45 96 -108 96c-66 0 -107 -32 -132 -99l-116 52c40 118 141 166 257 166c123 0 257 -54 257 -193c0 -80 -46 -131 -121 -156
c88 -19 141 -76 141 -172c0 -156 -141 -213 -282 -213c-125 0 -245 44 -277 176zM180 0l1061 1464h148l-1061 -1464h-148zM1069 381c-64 27 -103 78 -103 149c0 134 140 193 259 193c116 0 252 -56 252 -193c0 -72 -38 -120 -105 -147c83 -29 133 -89 133 -179
c0 -156 -149 -214 -284 -214c-133 0 -283 55 -283 211c0 88 47 153 131 180zM1120 519c0 -58 52 -93 106 -93c53 0 97 33 97 90c0 58 -47 94 -102 94c-54 0 -101 -35 -101 -91zM1104 217c0 -71 52 -108 119 -108c68 0 116 39 116 107c0 71 -51 112 -118 112
c-66 0 -117 -40 -117 -111z" />
    <glyph glyph-name="fiveeighths" unicode="&#x215d;" horiz-adv-x="1553" 
d="M55 901l138 60c16 -68 56 -97 115 -97c83 0 118 57 118 125c0 72 -38 123 -117 123c-45 0 -94 -16 -125 -57h-102l10 409h461v-127h-338l-4 -180c41 49 101 70 164 70c142 0 219 -102 219 -235c0 -167 -122 -255 -277 -255c-113 0 -230 46 -262 164zM166 0l1060 1464h148
l-1061 -1464h-147zM1059 381c-64 27 -105 76 -105 149c0 133 139 193 259 193c114 0 253 -54 253 -191c0 -74 -41 -122 -106 -149c83 -29 133 -89 133 -179c0 -156 -150 -214 -285 -214c-132 0 -284 55 -284 209c0 90 52 155 135 182zM1110 516c0 -56 45 -90 100 -90
c56 0 100 33 100 92s-44 92 -98 92c-58 0 -102 -37 -102 -94zM1092 216c0 -68 51 -107 118 -107c68 0 119 38 119 107c0 71 -54 112 -119 112s-118 -43 -118 -112z" />
    <glyph glyph-name="seveneighths" unicode="&#x215e;" horiz-adv-x="1496" 
d="M70 0l1060 1464h146l-1059 -1464h-147zM141 750l234 581h-334v133h526v-65l-260 -649h-166zM999 381c-64 27 -104 76 -104 147c0 136 142 195 261 195c113 0 251 -54 251 -190c0 -74 -41 -123 -105 -150c80 -29 132 -90 132 -180c0 -154 -151 -213 -286 -213
c-130 0 -280 55 -280 211c0 87 48 153 131 180zM1051 518c0 -59 49 -92 102 -92c56 0 98 35 98 92c0 56 -43 92 -98 92c-56 0 -102 -35 -102 -92zM1034 219c0 -70 52 -110 121 -110c67 0 113 37 113 105c0 73 -52 114 -118 114c-67 0 -116 -42 -116 -109z" />
    <glyph glyph-name="arrowleft" unicode="&#x2190;" horiz-adv-x="1581" 
d="M397 640l539 -517l-136 -135l-759 744l759 744l139 -139l-543 -512l1143 6v-197z" />
    <glyph glyph-name="arrowup" unicode="&#x2191;" horiz-adv-x="1625" 
d="M207 600l-139 139l744 759l744 -759l-135 -135l-517 538l6 -1142h-197l6 1143z" />
    <glyph glyph-name="arrowright" unicode="&#x2192;" horiz-adv-x="1581" 
d="M645 123l538 517l-1142 -6v197l1143 -6l-543 512l139 139l759 -744l-759 -744z" />
    <glyph glyph-name="arrowdown" unicode="&#x2193;" horiz-adv-x="1625" 
d="M719 321l-6 1143h197l-6 -1142l517 539l135 -136l-744 -759l-744 759l139 139z" />
    <glyph glyph-name="arrowboth" unicode="&#x2194;" horiz-adv-x="2400" 
d="M381 640l551 -512l-138 -140l-744 744l744 744l138 -140l-552 -510h1648l-562 510l138 140l746 -744l-746 -744l-138 140l561 512h-1646z" />
    <glyph glyph-name="arrowupdn" unicode="&#x2195;" horiz-adv-x="1625" 
d="M68 353l140 129l512 -527v1546l-512 -518l-140 130l744 699l744 -699l-140 -130l-510 519v-1548l510 528l140 -129l-744 -701z" />
    <glyph glyph-name="uni2196" unicode="&#x2196;" horiz-adv-x="1625" 
d="M95 0v1464h1447v-196l-1138 4l1188 -1158l-141 -141l-1161 1171l4 -1144h-199z" />
    <glyph glyph-name="uni2197" unicode="&#x2197;" horiz-adv-x="1625" 
d="M176 -27l-141 141l1187 1158l-1138 -4v196h1448v-1464h-200l4 1144z" />
    <glyph glyph-name="uni2198" unicode="&#x2198;" horiz-adv-x="1625" 
d="M84 0v196l1138 -4l-1187 1158l141 141l1160 -1171l-4 1144h200v-1464h-1448z" />
    <glyph glyph-name="uni2199" unicode="&#x2199;" horiz-adv-x="1625" 
d="M90 0v1464h199l-4 -1144l1161 1171l141 -141l-1188 -1158l1138 4v-196h-1447z" />
    <glyph glyph-name="partialdiff" unicode="&#x2202;" horiz-adv-x="1227" 
d="M271 1102l-182 80c77 213 287 303 501 303c440 0 562 -378 562 -751c0 -387 -86 -752 -551 -752c-301 0 -527 185 -527 489c0 289 205 484 481 484c154 0 290 -61 373 -190c0 220 -56 538 -338 538c-144 0 -266 -62 -319 -201zM601 154c199 0 307 151 307 340
c0 179 -132 293 -305 293c-190 0 -299 -136 -299 -317c0 -180 108 -316 297 -316z" />
    <glyph glyph-name="product" unicode="&#x220f;" horiz-adv-x="1341" 
d="M199 0v1290h-150v174h1251v-174h-149v-1290h-219v1290h-514v-1290h-219z" />
    <glyph glyph-name="summation" unicode="&#x2211;" horiz-adv-x="1166" 
d="M79 -180v152l439 767l-430 706v184h964v-182h-730l426 -689l-426 -745h765v-193h-1008z" />
    <glyph glyph-name="minus" unicode="&#x2212;" horiz-adv-x="1106" 
d="M84 612v174h938v-174h-938z" />
    <glyph glyph-name="radical" unicode="&#x221a;" horiz-adv-x="1276" 
d="M474 -116l-288 654l-138 -60l-53 158l305 123l276 -650l513 1591h186l-599 -1816h-202z" />
    <glyph glyph-name="uni221B" unicode="&#x221b;" horiz-adv-x="1276" 
d="M474 -116l-288 654l-138 -60l-53 158l305 123l276 -650l513 1591h186l-599 -1816h-202zM158 1042l121 52c25 -71 81 -109 158 -109c66 0 117 28 117 106c0 95 -75 99 -149 99h-21v106h25c69 0 136 7 136 92c0 64 -39 93 -103 93c-69 0 -118 -34 -142 -103l-121 52
c43 120 151 170 269 170c123 0 255 -54 255 -192c0 -81 -46 -132 -121 -157c88 -19 141 -76 141 -172c0 -156 -140 -215 -280 -215c-124 0 -253 47 -285 178z" />
    <glyph glyph-name="infinity" unicode="&#x221e;" horiz-adv-x="1926" 
d="M960 590c-125 -135 -260 -268 -459 -268c-235 0 -376 184 -376 410c0 227 142 413 379 413c184 0 344 -149 456 -280c123 144 248 283 453 283c238 0 381 -189 381 -418c0 -231 -145 -413 -387 -413c-184 0 -335 142 -447 273zM1076 727c75 -93 196 -219 325 -219
c119 0 199 110 199 222c0 109 -75 226 -194 226c-129 0 -255 -138 -330 -229zM841 726c-72 88 -205 228 -328 228c-114 0 -201 -119 -201 -227c0 -113 94 -216 210 -216c128 0 246 124 319 215z" />
    <glyph glyph-name="integral" unicode="&#x222b;" horiz-adv-x="744" 
d="M20 -227v143h125c76 0 137 73 137 164v1322c0 160 107 277 253 277h158v-143h-125c-89 0 -137 -48 -137 -162v-1326c0 -147 -105 -275 -256 -275h-155z" />
    <glyph glyph-name="approxequal" unicode="&#x2248;" horiz-adv-x="1100" 
d="M256 715h-146c11 137 86 270 250 270c66 0 130 -22 193 -44c64 -22 129 -44 198 -44c56 0 88 39 93 92h145c-8 -135 -79 -268 -243 -268c-66 0 -129 21 -193 43c-102 34 -151 45 -203 45c-56 0 -86 -43 -94 -94zM256 319h-146c11 137 86 271 254 271c44 0 86 -9 189 -44
c99 -33 146 -44 198 -44c55 0 88 41 93 92h145c-8 -135 -79 -268 -243 -268c-66 0 -129 21 -193 43c-103 34 -151 45 -203 45c-56 0 -86 -43 -94 -95z" />
    <glyph glyph-name="notequal" unicode="&#x2260;" horiz-adv-x="1068" 
d="M266 180l76 199h-238v170h303l88 225h-391v170h457l76 199h174l-78 -199h231v-170h-297l-86 -225h383v-170h-448l-78 -199h-172z" />
    <glyph glyph-name="lessequal" unicode="&#x2264;" horiz-adv-x="1082" 
d="M127 696v47l803 428v-196l-492 -254l492 -254v-199zM127 0v164h803v-164h-803z" />
    <glyph glyph-name="greaterequal" unicode="&#x2265;" horiz-adv-x="1082" 
d="M151 268v199l492 254l-492 254v196l803 -428v-47zM151 0v164h803v-164h-803z" />
    <glyph glyph-name="uni2460" unicode="&#x2460;" horiz-adv-x="1798" 
d="M139 732c0 423 341 754 762 754s757 -328 757 -754c0 -425 -334 -754 -757 -754c-426 0 -762 333 -762 754zM896 69c373 0 656 296 656 668c0 370 -279 658 -651 658c-375 0 -656 -290 -656 -661c0 -370 280 -665 651 -665zM818 353v553l-166 -97v142l189 116h145v-714
h-168z" />
    <glyph glyph-name="uni2461" unicode="&#x2461;" horiz-adv-x="1798" 
d="M139 732c0 423 341 754 762 754s757 -328 757 -754c0 -425 -334 -754 -757 -754c-426 0 -762 333 -762 754zM896 69c373 0 656 296 656 668c0 370 -279 658 -651 658c-375 0 -656 -290 -656 -661c0 -370 280 -665 651 -665zM609 370v41l262 260c53 53 117 121 117 205
c0 58 -31 92 -91 92c-76 0 -128 -54 -151 -119l-117 51c37 128 139 193 275 193c134 0 247 -63 247 -207c0 -98 -53 -178 -218 -335l-62 -59h286v-122h-548z" />
    <glyph glyph-name="uni2462" unicode="&#x2462;" horiz-adv-x="1798" 
d="M139 732c0 423 341 754 762 754s757 -328 757 -754c0 -425 -334 -754 -757 -754c-426 0 -762 333 -762 754zM896 69c373 0 656 296 656 668c0 370 -279 658 -651 658c-375 0 -656 -290 -656 -661c0 -370 280 -665 651 -665zM616 532l121 52c25 -71 81 -109 158 -109
c66 0 117 28 117 106c0 95 -75 99 -149 99h-21v106h25c69 0 136 7 136 90c0 64 -39 93 -102 93c-69 0 -118 -34 -143 -102l-121 52c43 120 151 171 269 171c123 0 255 -55 255 -193c0 -81 -46 -131 -121 -156c88 -19 141 -76 141 -172c0 -156 -140 -215 -280 -215
c-124 0 -253 47 -285 178z" />
    <glyph glyph-name="uni2463" unicode="&#x2463;" horiz-adv-x="1798" 
d="M139 732c0 423 341 754 762 754s757 -328 757 -754c0 -425 -334 -754 -757 -754c-426 0 -762 333 -762 754zM896 69c373 0 656 296 656 668c0 370 -279 658 -651 658c-375 0 -656 -290 -656 -661c0 -370 280 -665 651 -665zM553 506v59l315 514h203v-456h92v-117h-92
v-141h-160v141h-358zM719 623h197v335z" />
    <glyph glyph-name="uni2464" unicode="&#x2464;" horiz-adv-x="1798" 
d="M139 732c0 423 341 754 762 754s757 -328 757 -754c0 -425 -334 -754 -757 -754c-426 0 -762 333 -762 754zM896 69c373 0 656 296 656 668c0 370 -279 658 -651 658c-375 0 -656 -290 -656 -661c0 -370 280 -665 651 -665zM636 498l121 53c25 -57 83 -86 139 -86
c79 0 117 57 117 127c0 71 -38 121 -119 121c-45 0 -90 -16 -123 -57h-102l10 409h461v-127h-338l-4 -178c41 49 101 68 165 68c146 0 218 -98 218 -233c0 -172 -117 -257 -276 -257c-114 0 -229 44 -269 160z" />
    <glyph glyph-name="uni2465" unicode="&#x2465;" horiz-adv-x="1798" 
d="M139 732c0 423 341 754 762 754s757 -328 757 -754c0 -425 -334 -754 -757 -754c-426 0 -762 333 -762 754zM896 69c373 0 656 296 656 668c0 370 -279 658 -651 658c-375 0 -656 -290 -656 -661c0 -370 280 -665 651 -665zM1174 954l-125 -53c-27 43 -73 66 -123 66
c-119 0 -146 -128 -151 -224c41 64 103 88 176 88c140 0 235 -88 235 -231c0 -165 -126 -246 -283 -246c-211 0 -292 146 -292 346c0 201 82 390 314 390c104 0 201 -38 249 -136zM903 473c75 0 119 53 119 128c0 72 -40 124 -117 124c-72 0 -122 -46 -122 -124
c0 -73 43 -128 120 -128z" />
    <glyph glyph-name="uni2466" unicode="&#x2466;" horiz-adv-x="1798" 
d="M139 732c0 423 341 754 762 754s757 -328 757 -754c0 -425 -334 -754 -757 -754c-426 0 -762 333 -762 754zM896 69c373 0 656 296 656 668c0 370 -279 658 -651 658c-375 0 -656 -290 -656 -661c0 -370 280 -665 651 -665zM745 325l232 581h-332v133h526v-59l-260 -655
h-166z" />
    <glyph glyph-name="uni2467" unicode="&#x2467;" horiz-adv-x="1798" 
d="M139 732c0 423 341 754 762 754s757 -328 757 -754c0 -425 -334 -754 -757 -754c-426 0 -762 333 -762 754zM896 69c373 0 656 296 656 668c0 370 -279 658 -651 658c-375 0 -656 -290 -656 -661c0 -370 280 -665 651 -665zM748 747c-64 29 -105 76 -105 149
c0 135 139 194 258 194c114 0 254 -54 254 -190c0 -75 -43 -122 -107 -150c80 -31 134 -91 134 -182c0 -153 -153 -214 -285 -214c-131 0 -283 61 -283 213c0 88 51 152 134 180zM799 883c0 -60 44 -90 100 -90c57 0 100 31 100 90c0 61 -45 92 -100 92
c-57 0 -100 -32 -100 -92zM780 584c0 -72 51 -109 119 -109c69 0 117 38 117 109c0 73 -52 110 -117 110c-68 0 -119 -39 -119 -110z" />
    <glyph glyph-name="uni2468" unicode="&#x2468;" horiz-adv-x="1798" 
d="M139 732c0 423 341 754 762 754s757 -328 757 -754c0 -425 -334 -754 -757 -754c-426 0 -762 333 -762 754zM896 69c373 0 656 296 656 668c0 370 -279 658 -651 658c-375 0 -656 -290 -656 -661c0 -370 280 -665 651 -665zM638 489l119 51c23 -55 83 -70 128 -70
c130 0 156 122 156 219c-41 -61 -98 -86 -173 -86c-137 0 -238 85 -238 234c0 163 122 244 280 244c210 0 297 -144 297 -340c0 -211 -63 -398 -305 -398c-108 0 -224 37 -264 146zM908 712c71 0 123 45 123 125c0 71 -40 127 -120 127c-79 0 -120 -54 -120 -128
c0 -73 41 -124 117 -124z" />
    <glyph glyph-name="uni24C5" unicode="&#x24c5;" horiz-adv-x="1754" 
d="M117 731c0 423 341 754 762 754s757 -328 757 -754c0 -425 -334 -754 -757 -754c-426 0 -762 333 -762 754zM874 68c373 0 656 296 656 668c0 370 -279 658 -651 658c-375 0 -656 -290 -656 -661c0 -370 280 -665 651 -665zM643 280v813h274c170 0 309 -67 309 -266
c0 -245 -211 -248 -407 -248v-299h-176zM819 704h96c88 0 143 32 143 127c0 96 -55 125 -143 125h-96v-252z" />
    <glyph glyph-name="filledbox" unicode="&#x25a0;" horiz-adv-x="1175" 
d="M134 273v918h907v-918h-907z" />
    <glyph glyph-name="uni25A1" unicode="&#x25a1;" horiz-adv-x="1175" 
d="M129 273v919h916v-919h-916zM271 411h633v643h-633v-643z" />
    <glyph glyph-name="lozenge" unicode="&#x25ca;" horiz-adv-x="951" 
d="M317 196l-235 531l235 541h157l-225 -541l225 -531h-157zM476 196l226 531l-226 541h157l235 -541l-235 -531h-157z" />
    <glyph glyph-name="circle" unicode="&#x25cb;" horiz-adv-x="1175" 
d="M115 732c0 279 194 473 473 473c278 0 471 -195 471 -473s-194 -472 -471 -472c-279 0 -473 194 -473 472zM255 730c0 -194 137 -331 331 -331c195 0 333 138 333 331c0 195 -138 333 -333 333c-194 0 -331 -137 -331 -333z" />
    <glyph glyph-name="uni25CF" unicode="&#x25cf;" horiz-adv-x="1175" 
d="M110 733c0 279 200 477 477 477c278 0 477 -200 477 -477s-199 -477 -476 -477c-278 0 -478 199 -478 477z" />
    <glyph glyph-name="f_f" unicode="&#xfb00;" horiz-adv-x="1328" 
d="M196 0v906h-150v165h150v179c18 224 119 334 334 334c59 0 112 -8 161 -27l-63 -151c-24 4 -48 8 -74 8c-104 0 -145 -66 -145 -164v-179h395v183c16 234 112 330 329 330c67 0 119 -9 169 -27l-66 -151c-24 4 -48 8 -72 8c-106 0 -147 -72 -147 -170v-173h252v-165h-252
v-906h-213v906h-395v-906h-213z" />
    <glyph glyph-name="fi" unicode="&#xfb01;" horiz-adv-x="1252" 
d="M196 0v906h-150v166h150c0 253 1 512 332 512c58 0 111 -8 160 -27l-65 -151c-25 6 -49 8 -67 8c-109 0 -147 -76 -147 -170v-172h251v-166h-251v-906h-213zM847 1378c0 72 60 129 132 129s132 -57 132 -129s-60 -129 -132 -129s-132 57 -132 129zM876 0v1072h213v-1072
h-213z" />
    <glyph glyph-name="fl" unicode="&#xfb02;" horiz-adv-x="1252" 
d="M878 0v1527l213 95v-1622h-213zM196 0v906h-150v166h150c0 253 1 512 333 512c58 0 111 -8 160 -27l-65 -151c-25 6 -49 8 -67 8c-108 0 -148 -76 -148 -170v-172h252v-166h-252v-906h-213z" />
    <glyph glyph-name="space.tab" horiz-adv-x="615" 
 />
    <glyph glyph-name="dollar.old" horiz-adv-x="1261" 
d="M563 -274v258c-221 16 -422 161 -483 385l176 78c37 -145 154 -280 307 -289v510c-232 41 -434 131 -434 407c0 247 215 390 434 406v183h127v-183c207 -20 361 -122 430 -328l-164 -74c-41 129 -134 216 -266 231v-464c245 -41 457 -125 457 -420
c0 -268 -212 -426 -457 -442v-258h-127zM563 868v442c-118 -12 -235 -79 -235 -215c0 -159 104 -199 235 -227zM690 647v-491c129 17 248 105 248 249c0 168 -108 212 -248 242z" />
    <glyph glyph-name="dollar.oldtab" 
d="M550 -274v260c-217 16 -418 161 -479 379l170 78c40 -143 158 -278 309 -286v511c-233 41 -434 129 -434 405c0 246 213 392 434 408v183h125v-183c209 -19 355 -126 430 -330l-164 -70c-41 127 -133 217 -266 229v-464c248 -41 454 -127 454 -420
c0 -265 -211 -427 -454 -443v-257h-125zM550 868v442c-120 -8 -236 -81 -236 -215c0 -158 104 -200 236 -227zM675 645v-490c129 16 248 111 248 252c0 170 -108 209 -248 238z" />
    <glyph glyph-name="dollar.tab" 
d="M547 -276v258c-239 19 -420 147 -484 383l173 73c48 -156 142 -267 311 -286v514c-236 43 -443 134 -443 409c0 247 216 390 443 406v183h129v-183c220 -19 358 -119 430 -330l-170 -74c-35 132 -124 214 -260 233v-466c256 -40 463 -126 463 -422
c0 -264 -215 -421 -463 -440v-258h-129zM547 866v444c-125 -11 -242 -77 -242 -216c0 -160 109 -199 242 -228zM676 643v-491c135 21 252 103 252 251c0 167 -109 214 -252 240z" />
    <glyph glyph-name="percent.tab" horiz-adv-x="1433" 
d="M379 805c-185 0 -285 164 -285 334c0 168 99 338 288 338c185 0 284 -162 284 -334c0 -171 -99 -338 -287 -338zM180 0l914 1464h163l-913 -1464h-164zM382 948c98 0 114 118 114 192c0 79 -18 194 -117 194s-115 -118 -115 -189c0 -78 19 -197 118 -197zM1050 -18
c-187 0 -284 161 -284 330c0 171 99 343 287 343c185 0 282 -165 282 -336c0 -172 -96 -337 -285 -337zM1054 125c99 0 113 117 113 189c0 81 -18 198 -114 198c-98 0 -117 -120 -117 -195s20 -192 118 -192z" />
    <glyph glyph-name="parenleft.tab" horiz-adv-x="615" 
d="M575 -303h-188c-189 285 -297 598 -297 944c0 343 106 660 297 947h188c-179 -293 -276 -605 -276 -947c0 -345 99 -652 276 -944z" />
    <glyph glyph-name="parenleft.uc" horiz-adv-x="675" 
d="M637 -201h-193c-211 249 -335 573 -335 903c0 327 122 645 335 895h193c-194 -258 -313 -572 -313 -897c0 -323 118 -645 313 -901z" />
    <glyph glyph-name="parenright.tab" horiz-adv-x="615" 
d="M227 -303h-188c179 292 276 599 276 943c0 343 -96 656 -276 948h188c195 -288 297 -601 297 -945c0 -351 -106 -659 -297 -946z" />
    <glyph glyph-name="parenright.uc" horiz-adv-x="675" 
d="M229 -201h-192c197 259 313 578 313 903s-115 638 -313 895h192c210 -249 336 -566 336 -897c0 -326 -122 -650 -336 -901z" />
    <glyph glyph-name="plus.sub" horiz-adv-x="728" 
d="M299 -111v213h-205v125h205v215h129v-215h205v-125h-205v-213h-129z" />
    <glyph glyph-name="plus.sup" horiz-adv-x="728" 
d="M299 950v213h-205v125h205v215h129v-215h205v-125h-205v-213h-129z" />
    <glyph glyph-name="plus.tab" 
d="M524 209v405h-374v170h374v406h181v-406h376v-170h-376v-405h-181z" />
    <glyph glyph-name="comma.tab" horiz-adv-x="615" 
d="M78 -188l190 467l203 -86l-260 -445z" />
    <glyph glyph-name="hyphen.uc" horiz-adv-x="765" 
d="M119 575v189h526v-189h-526z" />
    <glyph glyph-name="period.tab" horiz-adv-x="615" 
d="M160 135c0 84 65 146 146 146c83 0 149 -65 149 -146c0 -82 -65 -147 -148 -147s-147 64 -147 147z" />
    <glyph glyph-name="slash.alt" horiz-adv-x="257" 
d="M-477 0l1061 1464h147l-1061 -1464h-147z" />
    <glyph glyph-name="slash.uc" horiz-adv-x="841" 
d="M37 -201l569 1805h185l-570 -1805h-184z" />
    <glyph glyph-name="zero.den" horiz-adv-x="793" 
d="M395 -10c-213 0 -313 155 -313 354c0 205 86 381 311 381c212 0 319 -156 319 -352c0 -205 -87 -383 -317 -383zM397 121c125 0 149 124 149 225c0 107 -12 252 -148 252c-127 0 -150 -128 -150 -227c0 -104 12 -250 149 -250z" />
    <glyph glyph-name="zero.num" horiz-adv-x="793" 
d="M398 737c-215 0 -316 159 -316 355c0 205 86 381 312 381c211 0 318 -154 318 -351c0 -207 -86 -385 -314 -385zM397 868c126 0 149 127 149 228c0 107 -12 250 -147 250c-128 0 -151 -127 -151 -226c0 -103 12 -252 149 -252z" />
    <glyph glyph-name="zero.old" horiz-adv-x="1332" 
d="M669 -20c-363 0 -567 274 -567 618v70c0 347 200 620 565 620c363 0 562 -268 562 -614v-70c0 -345 -194 -624 -560 -624zM665 158c265 0 339 221 339 444c0 245 -42 512 -331 512c-263 0 -346 -221 -346 -442c0 -238 42 -514 338 -514z" />
    <glyph glyph-name="zero.oldtab" 
d="M616 -20c-326 0 -515 244 -515 555v200c0 312 189 553 514 553c323 0 510 -239 510 -549v-200c0 -312 -181 -559 -509 -559zM618 162c223 0 287 183 287 375v200c0 189 -71 375 -291 375c-219 0 -293 -183 -293 -375v-202c0 -193 76 -373 297 -373z" />
    <glyph glyph-name="zero.sub" horiz-adv-x="773" 
d="M387 -203c-215 0 -315 156 -315 355c0 205 86 380 311 380c212 0 319 -154 319 -350c0 -207 -86 -385 -315 -385zM387 -72c126 0 149 127 149 228c0 107 -12 250 -147 250c-128 0 -151 -127 -151 -226c0 -104 13 -252 149 -252z" />
    <glyph glyph-name="zero.sup" horiz-adv-x="773" 
d="M389 856c-214 0 -317 159 -317 354c0 205 86 381 312 381c211 0 318 -154 318 -350c0 -207 -86 -385 -313 -385zM387 987c125 0 149 127 149 227c0 107 -12 250 -147 250c-128 0 -151 -127 -151 -225c0 -103 12 -252 149 -252z" />
    <glyph glyph-name="zero.tab" 
d="M622 -20c-369 0 -522 277 -522 612v268c0 333 147 623 521 623c365 0 507 -277 507 -609v-276c0 -334 -132 -618 -506 -618zM626 164c260 0 279 229 279 434v276c0 197 -41 429 -290 429c-253 0 -289 -238 -289 -441v-268c0 -207 43 -430 300 -430z" />
    <glyph glyph-name="one.den" horiz-adv-x="545" 
d="M235 0v553l-166 -96v141l189 117h145v-715h-168z" />
    <glyph glyph-name="one.num" horiz-adv-x="543" 
d="M235 750v553l-166 -97v142l189 116h145v-714h-168z" />
    <glyph glyph-name="one.old" horiz-adv-x="814" 
d="M383 0v1049l-313 -215v198l333 236h199v-1268h-219z" />
    <glyph glyph-name="one.oldtab" 
d="M628 0v1049l-406 -289v198l426 310h199v-1268h-219z" />
    <glyph glyph-name="one.sub" horiz-adv-x="525" 
d="M225 -193v553l-166 -96v142l189 116h145v-715h-168z" />
    <glyph glyph-name="one.sup" horiz-adv-x="525" 
d="M225 868v553l-166 -96v141l189 117h145v-715h-168z" />
    <glyph glyph-name="one.tab" 
d="M616 0v1235l-405 -291v205l410 315h225v-1464h-230z" />
    <glyph glyph-name="two.den" horiz-adv-x="662" 
d="M37 0v42l262 260c53 53 117 121 117 205c0 59 -32 91 -91 91c-77 0 -128 -53 -151 -118l-117 50c37 128 139 193 275 193c134 0 247 -63 247 -205c0 -99 -55 -182 -216 -333l-64 -60h286v-125h-548z" />
    <glyph glyph-name="two.num" horiz-adv-x="660" 
d="M37 750v41l262 260c53 53 117 121 117 205c0 58 -31 92 -91 92c-76 0 -128 -54 -151 -119l-117 51c37 128 139 193 275 193c134 0 247 -63 247 -207c0 -98 -53 -178 -218 -335l-62 -59h286v-122h-548z" />
    <glyph glyph-name="two.old" horiz-adv-x="1129" 
d="M41 0v67l504 450c109 99 243 223 243 385c0 135 -93 210 -231 210c-182 0 -271 -130 -321 -292l-166 74c67 235 237 394 495 394c230 0 447 -127 447 -385c0 -208 -184 -359 -326 -485l-274 -242h612v-176h-983z" />
    <glyph glyph-name="two.oldtab" 
d="M95 0v67l504 450c109 98 244 223 244 382c0 135 -96 213 -236 213c-179 0 -269 -128 -317 -292l-168 74c69 235 238 394 496 394c231 0 448 -127 448 -385c0 -204 -185 -360 -326 -485l-274 -242h612v-176h-983z" />
    <glyph glyph-name="two.sub" horiz-adv-x="642" 
d="M27 -190v40l262 261c53 53 117 121 117 204c0 59 -32 91 -91 91c-76 0 -128 -54 -151 -119l-117 53c37 128 141 192 276 192c133 0 246 -62 246 -215c0 -128 -126 -243 -226 -335l-54 -50h286v-122h-548z" />
    <glyph glyph-name="two.sup" horiz-adv-x="642" 
d="M29 868v42l262 259c50 50 117 127 117 209c0 56 -32 86 -92 86c-75 0 -130 -49 -150 -116l-119 51c37 129 141 190 276 190s246 -61 246 -203c0 -101 -51 -186 -216 -335l-64 -58h286v-125h-546z" />
    <glyph glyph-name="two.tab" 
d="M78 0v92l510 506c125 125 260 279 260 469c0 149 -83 238 -231 238c-189 0 -262 -144 -310 -299l-176 77c64 243 226 400 485 400c263 0 461 -137 461 -416c0 -263 -212 -461 -391 -626l-276 -259h673v-182h-1005z" />
    <glyph glyph-name="three.den" horiz-adv-x="711" 
d="M63 166l121 51c25 -76 82 -106 154 -106c69 0 123 28 123 105c0 83 -64 100 -131 98l-41 -1v109h23c69 0 140 6 140 90c0 64 -42 92 -104 92c-68 0 -118 -33 -143 -100l-117 51c43 119 147 170 266 170c123 0 256 -54 256 -193c0 -82 -46 -132 -121 -155
c87 -21 142 -76 142 -174c0 -156 -141 -213 -282 -213c-123 0 -254 44 -286 176z" />
    <glyph glyph-name="three.num" horiz-adv-x="709" 
d="M63 915l121 52c25 -71 81 -109 158 -109c66 0 117 28 117 106c0 95 -75 99 -149 99h-21v106h25c69 0 136 7 136 90c0 64 -39 93 -102 93c-69 0 -118 -34 -143 -102l-121 52c43 120 151 171 269 171c123 0 255 -55 255 -193c0 -81 -46 -131 -121 -156
c88 -19 141 -76 141 -172c0 -156 -140 -215 -280 -215c-124 0 -253 47 -285 178z" />
    <glyph glyph-name="three.old" horiz-adv-x="1228" 
d="M80 158l172 73c53 -157 162 -270 336 -270c172 0 309 74 309 262c0 258 -199 260 -399 260v170c181 0 364 -1 364 234c0 151 -94 227 -239 227c-172 0 -270 -83 -326 -242l-166 72c72 227 262 344 485 344c241 0 461 -136 461 -387c0 -161 -90 -268 -235 -321
c187 -48 280 -172 280 -356c0 -307 -258 -437 -526 -437c-238 0 -455 132 -516 371z" />
    <glyph glyph-name="three.oldtab" 
d="M85 154l174 75c51 -157 160 -272 334 -272c172 0 309 76 309 264c0 260 -197 260 -399 260v170c181 0 366 -1 366 234c0 150 -96 227 -241 227c-172 0 -270 -83 -326 -242l-166 72c72 225 262 344 487 344c240 0 461 -135 461 -387c0 -163 -92 -266 -237 -321
c185 -47 280 -172 280 -357c0 -306 -258 -438 -526 -438c-236 0 -452 136 -516 371z" />
    <glyph glyph-name="three.sub" horiz-adv-x="691" 
d="M53 -25l117 50c25 -68 86 -107 160 -107c63 0 121 29 121 108c0 93 -79 97 -154 97h-18v106h25c70 0 138 7 138 92c0 64 -39 93 -102 93c-69 0 -119 -34 -145 -101l-117 49c43 119 147 170 266 170c122 0 256 -53 256 -192c0 -80 -46 -131 -121 -156
c88 -19 142 -77 142 -171c0 -156 -149 -216 -285 -216c-125 0 -243 50 -283 178z" />
    <glyph glyph-name="three.sup" horiz-adv-x="691" 
d="M53 1034l119 49c25 -73 80 -106 153 -106c68 0 126 29 126 108c0 93 -79 97 -154 97h-18v106h23c69 0 140 6 140 92c0 63 -38 93 -102 93c-69 0 -119 -34 -145 -101l-117 49c43 119 147 170 266 170c122 0 256 -53 256 -192c0 -80 -46 -131 -121 -156
c88 -19 142 -77 142 -172c0 -155 -146 -215 -285 -215c-123 0 -251 47 -283 178z" />
    <glyph glyph-name="three.tab" 
d="M86 350l176 78c48 -155 150 -270 322 -270c170 0 303 71 303 258c0 261 -189 260 -393 260v174h18c175 0 346 5 346 220c0 160 -95 235 -249 235c-162 0 -255 -82 -306 -242l-166 74c66 228 251 346 475 346c241 0 461 -136 461 -389c0 -161 -88 -264 -235 -320
c183 -45 278 -173 278 -358c0 -303 -253 -436 -524 -436c-236 0 -450 130 -506 370z" />
    <glyph glyph-name="four.den" horiz-adv-x="730" 
d="M55 141v60l315 514h203v-457h92v-117h-92v-141h-160v141h-358zM221 258h197v336z" />
    <glyph glyph-name="four.num" horiz-adv-x="728" 
d="M55 891v59l315 514h203v-456h92v-117h-92v-141h-160v141h-358zM221 1008h197v335z" />
    <glyph glyph-name="four.old" horiz-adv-x="1287" 
d="M63 119v84l660 1063h291v-979h200v-168h-200v-316h-219v316h-732zM315 287h482v809z" />
    <glyph glyph-name="four.oldtab" 
d="M65 111v77l614 1078h289v-994h182v-161h-182v-308h-213v308h-690zM302 272h455v822z" />
    <glyph glyph-name="four.sub" horiz-adv-x="710" 
d="M45 -49v57l315 516h203v-456h92v-117h-92v-141h-160v141h-358zM211 68h197v335z" />
    <glyph glyph-name="four.sup" horiz-adv-x="710" 
d="M45 1010v57l315 516h203v-457h92v-116h-92v-142h-160v142h-358zM211 1126h197v336z" />
    <glyph glyph-name="four.tab" 
d="M74 319v87l622 1058h287v-972h166v-173h-166v-319h-215v319h-694zM315 492h453v790z" />
    <glyph glyph-name="five.den" horiz-adv-x="695" 
d="M65 150l123 53c23 -59 79 -88 139 -88c80 0 115 52 115 125c0 75 -37 122 -117 122c-47 0 -94 -16 -125 -57h-102l10 410h461v-125h-338l-4 -182c41 51 100 69 164 69c147 0 219 -96 219 -230c0 -174 -122 -257 -282 -257c-110 0 -228 39 -263 160z" />
    <glyph glyph-name="five.num" horiz-adv-x="693" 
d="M65 897l121 53c25 -57 83 -86 139 -86c79 0 117 57 117 127c0 71 -38 121 -119 121c-45 0 -90 -16 -123 -57h-102l10 409h461v-127h-338l-4 -178c41 49 101 68 165 68c146 0 218 -98 218 -233c0 -172 -117 -257 -276 -257c-114 0 -229 44 -269 160z" />
    <glyph glyph-name="five.old" horiz-adv-x="1185" 
d="M84 123l174 74c45 -159 150 -238 313 -238c193 0 289 143 289 319s-97 318 -280 318c-125 0 -230 -37 -314 -133h-106l6 803h840v-185h-666l-2 -426c81 79 192 109 299 109c285 0 446 -213 446 -476c0 -304 -214 -505 -510 -505c-230 0 -433 102 -489 340z" />
    <glyph glyph-name="five.oldtab" 
d="M118 123l170 74c46 -159 152 -238 317 -238c193 0 289 143 289 319c0 178 -99 318 -283 318c-125 0 -228 -37 -311 -133h-108l6 803h839v-185h-665l-2 -426c81 79 192 109 299 109c285 0 446 -214 446 -476c0 -301 -214 -505 -508 -505c-229 0 -436 100 -489 340z" />
    <glyph glyph-name="five.sub" horiz-adv-x="675" 
d="M55 -43l125 55c21 -60 77 -88 137 -88c79 0 115 49 115 122c0 75 -37 126 -118 126c-46 0 -93 -16 -124 -57h-102l10 411h461v-127h-338l-4 -180c41 49 101 68 165 68c146 0 218 -98 218 -233c0 -174 -120 -257 -279 -257c-112 0 -232 41 -266 160z" />
    <glyph glyph-name="five.sup" horiz-adv-x="675" 
d="M55 1018l121 53c21 -61 80 -88 140 -88c80 0 116 49 116 122c0 75 -37 126 -116 126c-46 0 -95 -17 -126 -57h-102l10 409h461v-127h-338l-4 -178c41 49 101 68 165 68c146 0 218 -98 218 -231c0 -173 -122 -259 -281 -259c-111 0 -229 42 -264 162z" />
    <glyph glyph-name="five.tab" 
d="M100 326l179 75c45 -165 132 -239 305 -239c195 0 288 142 288 319c0 180 -96 316 -282 316c-128 0 -227 -33 -311 -133h-111l6 800h846v-186h-668l-2 -422c83 80 190 113 303 113c284 0 447 -212 447 -483c0 -307 -210 -506 -514 -506c-237 0 -433 101 -486 346z" />
    <glyph glyph-name="six.den" horiz-adv-x="734" 
d="M645 588l-125 -51c-27 43 -73 65 -122 65c-117 0 -147 -130 -152 -225c39 61 101 88 177 88c136 0 234 -85 234 -229c0 -166 -128 -246 -284 -246c-210 0 -291 145 -291 345c0 202 82 390 309 390c108 0 206 -42 254 -137zM375 106c74 0 118 53 118 128
c0 72 -40 124 -117 124c-71 0 -122 -45 -122 -123c0 -71 43 -129 121 -129z" />
    <glyph glyph-name="six.num" horiz-adv-x="732" 
d="M645 1337l-125 -53c-27 43 -73 66 -123 66c-119 0 -146 -128 -151 -224c41 64 103 88 176 88c140 0 235 -88 235 -231c0 -165 -126 -246 -283 -246c-211 0 -292 146 -292 346c0 201 82 390 314 390c104 0 201 -38 249 -136zM374 856c75 0 119 53 119 128
c0 72 -40 124 -117 124c-72 0 -122 -46 -122 -124c0 -73 43 -128 120 -128z" />
    <glyph glyph-name="six.old" horiz-adv-x="1269" 
d="M1141 1204l-178 -78c-48 120 -159 181 -281 181c-285 0 -346 -336 -350 -555c77 128 217 192 371 192c270 0 466 -196 466 -479c0 -301 -221 -485 -518 -485c-425 0 -540 327 -540 694c0 368 134 809 584 809c193 0 371 -81 446 -279zM647 150c187 0 297 137 297 319
c0 177 -103 313 -289 313c-178 0 -309 -125 -309 -299c0 -188 108 -333 301 -333z" />
    <glyph glyph-name="six.oldtab" 
d="M1105 1202l-170 -78c-47 119 -150 181 -270 181c-281 0 -336 -344 -340 -555c72 128 208 192 358 192c269 0 449 -204 449 -477c0 -291 -205 -488 -498 -488c-421 0 -520 354 -520 707c0 351 128 797 555 797c203 0 361 -84 436 -279zM630 153c186 0 291 137 291 314
c0 173 -101 315 -287 315c-176 0 -297 -126 -297 -298c0 -184 101 -331 293 -331z" />
    <glyph glyph-name="six.sub" horiz-adv-x="714" 
d="M633 395l-121 -51c-25 47 -73 66 -121 66c-123 0 -150 -128 -155 -224c41 64 103 88 176 88c140 0 235 -88 235 -230c0 -164 -126 -247 -284 -247c-210 0 -291 146 -291 346c0 201 82 389 322 389c100 0 193 -33 239 -137zM363 -84c76 0 120 53 120 128
c0 72 -40 124 -117 124c-72 0 -122 -46 -122 -125c0 -73 43 -127 119 -127z" />
    <glyph glyph-name="six.sup" horiz-adv-x="714" 
d="M633 1454l-125 -53c-21 47 -72 67 -119 67c-118 0 -148 -128 -153 -223c41 64 103 88 176 88c140 0 235 -88 235 -231c0 -165 -126 -246 -283 -246c-211 0 -292 145 -292 345c0 202 82 390 316 390c100 0 203 -34 245 -137zM364 975c75 0 119 53 119 128
c0 72 -40 124 -117 124c-72 0 -122 -46 -122 -124c0 -73 43 -128 120 -128z" />
    <glyph glyph-name="six.tab" 
d="M1116 1196l-174 -78c-47 129 -148 189 -273 189c-293 0 -350 -328 -354 -549c79 137 216 192 362 192c282 0 468 -205 468 -482c0 -297 -213 -488 -512 -488c-439 0 -537 341 -537 702c0 372 126 801 579 801c204 0 364 -87 441 -287zM627 156c188 0 299 132 299 316
c0 179 -105 312 -294 312c-178 0 -308 -119 -308 -297c0 -189 109 -331 303 -331z" />
    <glyph glyph-name="seven.den" horiz-adv-x="629" 
d="M157 0l232 582h-332v133h526v-60l-260 -655h-166z" />
    <glyph glyph-name="seven.num" horiz-adv-x="627" 
d="M157 750l232 581h-332v133h526v-59l-260 -655h-166z" />
    <glyph glyph-name="seven.old" horiz-adv-x="1093" 
d="M238 -197l548 1284h-731v179h992v-88l-580 -1375h-229z" />
    <glyph glyph-name="seven.oldtab" 
d="M286 -197l561 1284h-721v179h983v-88l-596 -1375h-227z" />
    <glyph glyph-name="seven.sub" horiz-adv-x="609" 
d="M147 -190l232 579h-332v135h526v-59l-260 -655h-166z" />
    <glyph glyph-name="seven.sup" horiz-adv-x="609" 
d="M147 868l232 582h-332v133h526v-59l-260 -656h-166z" />
    <glyph glyph-name="seven.tab" 
d="M315 0l537 1280h-723v184h991v-92l-571 -1372h-234z" />
    <glyph glyph-name="eight.den" horiz-adv-x="717" 
d="M207 381c-61 28 -105 76 -105 151c0 132 139 193 259 193c114 0 253 -56 253 -192c0 -75 -43 -121 -107 -150c80 -29 134 -88 134 -180c0 -154 -151 -213 -286 -213c-131 0 -282 55 -282 210c0 90 51 152 134 181zM258 518c0 -60 43 -92 100 -92s100 31 100 92
c0 60 -44 92 -100 92c-57 0 -100 -32 -100 -92zM239 217c0 -72 51 -108 119 -108c69 0 117 37 117 108c0 73 -50 111 -117 111c-68 0 -119 -39 -119 -111z" />
    <glyph glyph-name="eight.num" horiz-adv-x="715" 
d="M207 1130c-64 29 -105 76 -105 149c0 135 139 194 258 194c114 0 254 -54 254 -190c0 -75 -43 -122 -107 -150c80 -31 134 -91 134 -182c0 -153 -153 -214 -285 -214c-131 0 -283 61 -283 213c0 88 51 152 134 180zM258 1266c0 -60 44 -90 100 -90c57 0 100 31 100 90
c0 61 -45 92 -100 92c-57 0 -100 -32 -100 -92zM239 967c0 -72 51 -109 119 -109c69 0 117 38 117 109c0 73 -52 110 -117 110c-68 0 -119 -39 -119 -110z" />
    <glyph glyph-name="eight.old" horiz-adv-x="1238" 
d="M383 780c-138 51 -229 162 -229 316c0 249 237 387 466 387c227 0 463 -135 463 -382c0 -157 -96 -263 -233 -319c168 -59 289 -182 289 -374c0 -281 -260 -428 -519 -428s-522 147 -522 423c0 187 121 321 285 377zM371 1087c0 -145 117 -235 255 -235
c139 0 240 91 240 230c0 146 -112 235 -248 235c-135 0 -247 -88 -247 -230zM322 424c0 -169 138 -270 302 -270c162 0 291 99 291 270c0 173 -133 268 -291 268c-161 0 -302 -98 -302 -268z" />
    <glyph glyph-name="eight.oldtab" 
d="M388 780c-141 51 -217 163 -217 310c0 248 214 393 443 393c227 0 444 -142 444 -387c0 -151 -81 -258 -221 -314c168 -59 276 -186 276 -372c0 -276 -236 -430 -496 -430c-258 0 -501 152 -501 430c0 181 104 311 272 370zM382 1085c0 -139 102 -233 239 -233
c141 0 226 98 226 238c0 132 -102 227 -233 227c-133 0 -232 -96 -232 -232zM333 423c0 -165 123 -269 284 -269s279 104 279 271c0 165 -116 267 -277 267s-286 -102 -286 -269z" />
    <glyph glyph-name="eight.sub" horiz-adv-x="697" 
d="M197 190c-64 29 -105 76 -105 150c0 135 139 192 256 192c116 0 256 -55 256 -189c0 -75 -43 -122 -107 -150c80 -31 134 -91 134 -182c0 -153 -153 -214 -285 -214c-131 0 -283 61 -283 213c0 88 51 152 134 180zM248 326c0 -60 44 -90 100 -90c57 0 100 31 100 90
c0 61 -45 92 -100 92c-57 0 -100 -32 -100 -92zM229 26c0 -72 50 -108 119 -108s117 38 117 109c0 73 -52 110 -117 110c-68 0 -119 -39 -119 -111z" />
    <glyph glyph-name="eight.sup" horiz-adv-x="697" 
d="M197 1249c-64 29 -105 76 -105 150c0 135 139 192 256 192c116 0 256 -55 256 -189c0 -75 -43 -122 -107 -151c80 -31 134 -90 134 -182c0 -154 -151 -213 -285 -213c-133 0 -283 58 -283 211c0 90 51 154 134 182zM248 1384c0 -59 44 -90 100 -90c57 0 100 31 100 92
c0 60 -44 91 -100 91c-57 0 -100 -33 -100 -93zM229 1085c0 -71 52 -108 119 -108c69 0 117 37 117 108c0 73 -50 111 -117 111c-68 0 -119 -39 -119 -111z" />
    <glyph glyph-name="eight.tab" 
d="M369 791c-137 53 -215 156 -215 301c0 252 237 391 462 391c222 0 461 -135 461 -383c0 -149 -86 -247 -219 -307c172 -64 275 -186 275 -372c0 -291 -253 -441 -518 -441c-261 0 -517 147 -517 436c0 184 103 311 271 375zM371 1089c0 -142 119 -227 258 -227
c136 0 231 82 231 218c0 150 -115 233 -245 233c-133 0 -244 -87 -244 -224zM322 433c0 -171 134 -273 299 -273c161 0 288 97 288 271c0 172 -125 269 -289 269s-298 -96 -298 -267z" />
    <glyph glyph-name="nine.den" horiz-adv-x="734" 
d="M84 133l119 51c25 -49 85 -69 135 -69c123 0 149 122 149 219c-40 -63 -98 -86 -170 -86c-140 0 -241 84 -241 233c0 163 122 244 280 244c209 0 297 -141 297 -338c0 -211 -62 -397 -305 -397c-107 0 -224 36 -264 143zM354 356c72 0 123 47 123 124
c0 71 -43 128 -122 128c-77 0 -118 -55 -118 -127c0 -73 41 -125 117 -125z" />
    <glyph glyph-name="nine.num" horiz-adv-x="732" 
d="M84 883l119 51c23 -55 83 -70 128 -70c130 0 156 122 156 219c-41 -61 -98 -86 -173 -86c-137 0 -238 85 -238 234c0 163 122 244 280 244c210 0 297 -144 297 -340c0 -211 -63 -398 -305 -398c-108 0 -224 37 -264 146zM354 1106c71 0 123 45 123 125
c0 71 -40 127 -120 127c-79 0 -120 -54 -120 -128c0 -73 41 -124 117 -124z" />
    <glyph glyph-name="nine.old" horiz-adv-x="1269" 
d="M106 94l183 78c54 -136 175 -207 314 -207c298 0 335 327 339 551c-80 -131 -219 -190 -371 -190c-275 0 -477 193 -477 480c0 301 223 484 522 484c456 0 545 -359 545 -729c0 -378 -105 -774 -556 -774c-220 0 -422 94 -499 307zM618 489c172 0 308 116 308 293
c0 191 -109 338 -306 338c-188 0 -301 -135 -301 -316c0 -179 111 -315 299 -315z" />
    <glyph glyph-name="nine.oldtab" 
d="M112 96l170 78c49 -135 164 -209 298 -209c287 0 320 341 320 553c-71 -129 -202 -190 -349 -190c-269 0 -452 204 -452 471c0 299 199 493 496 493c438 0 516 -369 516 -729c0 -356 -93 -774 -530 -774c-210 0 -400 97 -469 307zM596 489c172 0 290 124 290 295
c0 180 -95 338 -289 338c-183 0 -287 -141 -287 -316c0 -171 100 -317 286 -317z" />
    <glyph glyph-name="nine.sub" horiz-adv-x="714" 
d="M74 -57l119 51c25 -51 84 -72 135 -72c123 0 149 124 149 221c-41 -61 -98 -86 -173 -86c-137 0 -238 85 -238 234c0 163 122 244 280 244c210 0 297 -144 297 -340c0 -211 -63 -398 -304 -398c-108 0 -225 38 -265 146zM344 166c71 0 123 45 123 125
c0 71 -40 127 -120 127c-79 0 -120 -54 -120 -128c0 -73 41 -124 117 -124z" />
    <glyph glyph-name="nine.sup" horiz-adv-x="714" 
d="M74 1001l119 52c23 -55 83 -70 128 -70c130 0 156 122 156 219c-41 -61 -98 -86 -173 -86c-137 0 -238 85 -238 234c0 163 122 243 279 243c211 0 298 -143 298 -340c0 -211 -62 -397 -304 -397c-109 0 -225 38 -265 145zM344 1225c71 0 123 44 123 125
c0 70 -39 127 -120 127c-79 0 -120 -54 -120 -128c0 -73 41 -124 117 -124z" />
    <glyph glyph-name="nine.tab" 
d="M102 289l177 78c53 -145 157 -209 309 -209c288 0 326 325 330 544c-77 -128 -218 -186 -368 -186c-274 0 -466 194 -466 477c0 299 213 492 512 492c412 0 537 -303 537 -666c0 -384 -60 -837 -550 -837c-218 0 -403 90 -481 307zM600 682c174 0 305 112 305 290
c0 189 -106 337 -305 337c-188 0 -297 -133 -297 -314c0 -180 107 -313 297 -313z" />
    <glyph glyph-name="colon.alt" horiz-adv-x="614" 
d="M158 1071c0 85 65 148 146 148c83 0 151 -67 151 -150c0 -82 -67 -145 -150 -145s-147 64 -147 147zM158 327c0 84 64 146 145 146c82 0 152 -65 152 -148c0 -82 -67 -145 -150 -145s-147 64 -147 147z" />
    <glyph glyph-name="colon.tab" horiz-adv-x="615" 
d="M306 953c-84 0 -146 64 -146 147c0 85 65 148 146 148c84 0 149 -67 149 -148c0 -82 -66 -147 -149 -147zM307 179c-83 0 -147 64 -147 147c0 84 65 146 146 146c83 0 149 -65 149 -146c0 -82 -65 -147 -148 -147z" />
    <glyph glyph-name="semicolon.tab" horiz-adv-x="615" 
d="M174 772c0 83 65 148 149 148c83 0 148 -63 148 -148c0 -84 -65 -147 -148 -147c-84 0 -149 65 -149 147zM37 -188l192 467l203 -86l-262 -445z" />
    <glyph glyph-name="less.tab" 
d="M197 641v47l813 467v-201l-514 -291l514 -292v-199z" />
    <glyph glyph-name="equal.tab" 
d="M186 782v168h856v-168h-856zM186 373v168h856v-168h-856z" />
    <glyph glyph-name="greater.tab" 
d="M221 166v199l512 294l-512 297v199l811 -471v-47z" />
    <glyph glyph-name="at.uc" horiz-adv-x="1877" 
d="M1419 168l125 -53c-146 -175 -383 -244 -603 -244c-479 0 -835 329 -835 804c0 491 380 867 871 867c419 0 792 -275 792 -723c0 -244 -110 -522 -387 -522c-118 0 -224 38 -243 170c-59 -107 -168 -182 -291 -182c-209 0 -322 153 -322 354c0 227 144 461 394 461
c97 0 195 -36 235 -131l14 114h197l-59 -510c-3 -15 -4 -29 -4 -42c0 -64 23 -111 100 -111c178 0 215 250 215 390c0 388 -285 593 -651 593c-419 0 -699 -304 -699 -718c0 -405 267 -675 674 -675c180 0 338 38 477 158zM900 434c155 0 233 170 233 309
c0 123 -62 203 -178 203c-170 0 -228 -173 -228 -294c0 -116 53 -218 173 -218z" />
    <glyph glyph-name="bracketleft.tab" horiz-adv-x="615" 
d="M129 -303v1898h424v-164h-219v-1577h219v-157h-424z" />
    <glyph glyph-name="bracketleft.uc" horiz-adv-x="753" 
d="M170 -201v1805h496v-173h-283v-1443h283v-189h-496z" />
    <glyph glyph-name="backslash.uc" horiz-adv-x="841" 
d="M614 -201l-567 1805h184l570 -1805h-187z" />
    <glyph glyph-name="bracketright.tab" horiz-adv-x="615" 
d="M61 -303v157h222v1577h-222v164h424v-1898h-424z" />
    <glyph glyph-name="bracketright.uc" horiz-adv-x="753" 
d="M88 -201v189h281v1443h-281v173h494v-1805h-494z" />
    <glyph glyph-name="grave.uc" horiz-adv-x="820" 
d="M348 1573l-203 268h250l111 -268h-158z" />
    <glyph glyph-name="a.alt" horiz-adv-x="1297" 
d="M919 0v178c-67 -118 -211 -198 -346 -198c-303 0 -467 256 -467 541c0 283 162 571 477 571c145 0 265 -61 336 -186v166h213v-1072h-213zM620 152c211 0 307 180 307 376c0 199 -66 392 -294 392c-225 0 -308 -187 -308 -383c0 -182 71 -385 295 -385z" />
    <glyph glyph-name="f_f.short" horiz-adv-x="1302" 
d="M196 0v906h-150v166h150c0 248 12 512 336 512c57 0 110 -8 159 -27l-63 -151c-24 4 -48 8 -72 8c-106 0 -147 -72 -147 -170v-172h395c0 253 1 512 333 512c58 0 111 -8 160 -27l-65 -151c-24 4 -48 8 -72 8c-103 0 -143 -76 -143 -170v-172h252v-166h-252v-906h-213
v906h-395v-906h-213z" />
    <glyph glyph-name="f.short" horiz-adv-x="708" 
d="M196 0v906h-150v166h150c0 253 1 512 346 512c48 0 102 -5 153 -27l-65 -151c-25 6 -50 8 -68 8c-113 0 -153 -76 -153 -170v-172h252v-166h-252v-906h-213z" />
    <glyph glyph-name="t.alt" horiz-adv-x="742" 
d="M228 0v906h-164v166h164v211l213 92v-303h225v-166h-225v-906h-213z" />
    <glyph glyph-name="braceleft.tab" horiz-adv-x="615" 
d="M549 -303h-31c-203 0 -343 135 -343 321c0 11 0 21 1 32l31 359c1 6 1 11 1 17c0 84 -54 143 -133 143h-26v158h26c80 0 133 58 133 147c0 1 0 6 -1 12l-33 371c-1 11 -1 21 -1 31c0 180 140 307 344 307h32v-164h-32c-88 0 -147 -61 -147 -168c0 -1 0 -7 1 -14l28 -355
c8 -97 -71 -200 -188 -246c117 -43 196 -147 188 -246l-28 -352c-1 -7 -1 -15 -1 -22c0 -103 60 -174 150 -174h29v-157z" />
    <glyph glyph-name="braceleft.uc" horiz-adv-x="776" 
d="M703 -23v-178c-213 0 -439 68 -439 348l27 306c0 139 -96 178 -219 178v155c123 0 219 40 219 198l-29 294c0 270 210 326 441 326v-166c-139 -3 -234 -25 -234 -192l25 -289c0 -144 -72 -217 -197 -248c147 -35 197 -116 197 -255l-25 -280c0 -172 91 -197 234 -197z
" />
    <glyph glyph-name="bar.uc" horiz-adv-x="525" 
d="M180 -201v1805h164v-1805h-164z" />
    <glyph glyph-name="braceright.tab" horiz-adv-x="615" 
d="M66 -303v157h30c89 0 149 71 149 181c0 1 0 8 -1 15l-28 352c-8 99 71 203 188 246c-117 46 -196 149 -188 246l28 355c1 7 1 14 1 21c0 100 -59 161 -147 161h-32v164h32c204 0 344 -127 344 -307c0 -10 0 -20 -1 -31l-33 -371c-1 -6 -1 -12 -1 -18
c0 -83 53 -141 133 -141h26v-158h-26c-71 0 -139 -81 -132 -160l31 -359l2 -34c0 -186 -141 -319 -344 -319h-31z" />
    <glyph glyph-name="braceright.uc" horiz-adv-x="776" 
d="M72 -201v178c166 0 231 35 231 214c0 45 -4 93 -12 140s-12 94 -12 142c0 133 74 207 199 236c-131 30 -197 112 -197 264c0 37 4 82 9 126l4 42c5 47 9 95 9 144c0 132 -127 150 -231 153v166c269 0 438 -69 438 -371c0 -46 -4 -91 -13 -135s-13 -88 -13 -133
c0 -139 96 -179 219 -179v-155c-123 0 -219 -39 -219 -187c0 -30 4 -68 9 -107l10 -76c5 -39 9 -77 9 -116c0 -277 -209 -346 -440 -346z" />
    <glyph glyph-name="exclamdown.uc" horiz-adv-x="611" 
d="M156 1331c0 80 68 146 148 146s151 -64 151 -146s-69 -147 -150 -147c-80 0 -149 66 -149 147zM184 0l35 1036h168l35 -1036h-238z" />
    <glyph glyph-name="cent.tab" 
d="M580 -276v260c-307 29 -467 260 -467 557c0 284 182 511 467 546v201h129v-201c188 -5 347 -128 411 -303l-166 -71c-40 109 -124 197 -245 205v-768c141 23 219 102 260 235l159 -70c-65 -195 -214 -312 -419 -331v-260h-129zM580 152v763c-192 -37 -252 -219 -252 -387
c0 -178 68 -339 252 -376z" />
    <glyph glyph-name="sterling.old" horiz-adv-x="1215" 
d="M246 0h-178c13 119 82 232 204 264c15 40 23 80 23 126c0 74 -20 167 -39 243h-164v151h121c-19 85 -33 188 -33 276c0 259 209 422 457 422c227 0 369 -108 450 -316l-188 -82c-37 123 -125 220 -263 220c-144 0 -235 -107 -235 -250c0 -85 13 -186 29 -270h406v-151
h-375c15 -76 24 -171 24 -250c0 -43 -8 -86 -24 -127c26 -7 54 -16 110 -39c62 -25 126 -51 191 -51c97 0 163 57 194 156l172 -76c-48 -155 -168 -264 -328 -264c-89 0 -168 34 -242 66c-65 28 -126 54 -186 54c-69 0 -119 -35 -126 -102z" />
    <glyph glyph-name="sterling.oldtab" 
d="M259 0h-178c11 117 82 228 199 260c15 42 22 84 22 130c0 74 -18 167 -39 243h-162v151h121c-20 84 -33 188 -33 276c0 256 210 422 455 422c228 0 367 -103 442 -318l-180 -80c-37 123 -125 220 -264 220c-145 0 -229 -107 -229 -250c0 -87 9 -189 28 -270h396v-151
h-367c15 -76 25 -171 25 -250c0 -43 -8 -85 -25 -127c25 -6 50 -16 106 -39c60 -24 127 -51 193 -51c95 0 162 57 193 156l167 -72c-48 -154 -164 -268 -324 -268c-87 0 -164 34 -236 66c-64 28 -124 54 -184 54c-69 0 -119 -35 -126 -102z" />
    <glyph glyph-name="sterling.tab" 
d="M254 0h-180c11 125 83 238 207 270c16 40 22 82 22 127c0 81 -20 157 -41 236h-166v151h125c-20 88 -35 175 -35 267c0 267 209 432 465 432c235 0 378 -99 449 -324l-174 -74c-50 141 -116 218 -273 218s-243 -107 -243 -259c0 -88 14 -173 30 -260h414v-151h-383
c16 -80 27 -159 27 -240c0 -43 -8 -88 -27 -127c29 -8 60 -20 93 -33l15 -6c70 -28 143 -57 205 -57c113 0 174 44 201 156l160 -70c-35 -170 -153 -274 -319 -274c-95 0 -172 34 -243 65s-136 59 -201 59c-73 0 -121 -35 -128 -106z" />
    <glyph glyph-name="yen.old" horiz-adv-x="1175" 
d="M158 305v125h331v147h-331v125h301l-410 762h240l317 -626l305 626h215l-389 -762h303v-125h-331v-147h331v-125h-331v-305h-220v305h-331z" />
    <glyph glyph-name="yen.oldtab" 
d="M192 305v125h325v147h-325v125h301l-390 762h234l297 -626l285 626h204l-368 -762h307v-125h-328v-147h328v-125h-328v-305h-217v305h-325z" />
    <glyph glyph-name="yen.tab" 
d="M178 305v125h336v147h-336v125h314l-396 762h242l297 -626l283 626h215l-373 -762h315v-125h-338v-147h338v-125h-338v-305h-223v305h-336z" />
    <glyph glyph-name="dieresis.uc" horiz-adv-x="820" 
d="M498 1715c0 66 57 120 123 120s122 -54 122 -120s-57 -123 -122 -123s-123 57 -123 123zM74 1715c0 66 57 120 123 120s122 -54 122 -120s-57 -123 -122 -123s-123 57 -123 123z" />
    <glyph glyph-name="guillemotleft.uc" horiz-adv-x="1017" 
d="M737 229l-264 387l264 388h183l-254 -388l254 -387h-183zM373 229l-264 387l264 388h182l-254 -388l254 -387h-182z" />
    <glyph glyph-name="registered.alt" horiz-adv-x="1730" 
d="M104 730c0 424 341 755 764 755c420 0 756 -326 756 -752c0 -425 -335 -756 -759 -756c-425 0 -761 332 -761 753zM862 68c374 0 656 296 656 667s-280 659 -653 659s-655 -291 -655 -663c0 -369 280 -663 652 -663zM575 332v813h288c160 0 313 -58 313 -244
c0 -116 -59 -190 -172 -221l219 -348h-187l-197 317h-87v-317h-177zM752 770h107c83 0 140 30 140 125c0 90 -52 115 -140 115h-107v-240z" />
    <glyph glyph-name="macron.uc" horiz-adv-x="820" 
d="M125 1601v149h569v-149h-569z" />
    <glyph glyph-name="plusminus.tab" 
d="M160 690v168h377v367h180v-367h379v-168h-379v-366h-180v366h-377zM160 0v164h938v-164h-938z" />
    <glyph glyph-name="acute.uc" horiz-adv-x="820" 
d="M313 1573l113 268h248l-203 -268h-158z" />
    <glyph glyph-name="guillemotright.uc" horiz-adv-x="1017" 
d="M96 229l252 387l-252 388h183l262 -388l-262 -387h-183zM461 229l254 387l-254 388h182l264 -388l-264 -387h-182z" />
    <glyph glyph-name="questiondown.uc" horiz-adv-x="1027" 
d="M426 1331c0 80 68 146 148 146s151 -64 151 -146s-69 -147 -150 -147c-80 0 -149 66 -149 147zM793 395l165 -71c-48 -217 -236 -342 -452 -342c-225 0 -412 108 -412 354c0 147 97 238 193 329c133 127 178 196 188 287l1 45v13l-1 26h193v-88
c0 -157 -103 -259 -196 -351c-83 -82 -159 -157 -159 -255c0 -125 78 -186 193 -186c151 0 253 104 287 239z" />
    <glyph glyph-name="multiply.tab" 
d="M299 250l-117 119l316 315l-316 315l117 119l315 -317l316 315l119 -119l-316 -313l316 -315l-119 -119l-316 317z" />
    <glyph glyph-name="germandbls.alt" horiz-adv-x="1323" 
d="M173 0v1113c0 286 205 471 485 471c196 0 416 -90 416 -309c0 -143 -93 -225 -174 -295c-61 -53 -115 -100 -115 -149c0 -55 67 -94 149 -142c133 -77 306 -178 306 -372c0 -218 -156 -335 -361 -335c-160 0 -319 72 -362 235l157 68c29 -82 108 -142 205 -142
s148 60 148 154c0 43 -11 73 -38 104c-39 44 -107 85 -183 126c-109 56 -222 140 -222 269c0 108 80 183 149 248c73 69 136 129 136 206c0 125 -102 166 -211 166c-185 0 -272 -121 -272 -297v-1119h-213z" />
    <glyph glyph-name="agrave.alt" horiz-adv-x="1297" 
d="M581 1244l-213 309h246l123 -309h-156zM919 0v178c-67 -118 -211 -198 -346 -198c-303 0 -467 256 -467 541c0 283 162 572 476 572c146 0 266 -62 337 -187v166h213v-1072h-213zM620 152c211 0 307 180 307 376c0 199 -66 393 -294 393c-225 0 -308 -188 -308 -384
c0 -182 71 -385 295 -385z" />
    <glyph glyph-name="aacute.alt" horiz-adv-x="1297" 
d="M552 1244l123 309h246l-213 -309h-156zM919 0v178c-67 -118 -211 -198 -346 -198c-303 0 -467 256 -467 541c0 283 162 572 476 572c146 0 266 -62 337 -187v166h213v-1072h-213zM620 152c211 0 307 180 307 376c0 199 -66 393 -294 393c-225 0 -308 -188 -308 -384
c0 -182 71 -385 295 -385z" />
    <glyph glyph-name="acircumflex.alt" horiz-adv-x="1297" 
d="M331 1244l228 303h178l223 -303h-154l-161 146l-164 -146h-150zM919 0v178c-67 -118 -211 -198 -346 -198c-303 0 -467 256 -467 541c0 283 162 572 476 572c146 0 266 -62 337 -187v166h213v-1072h-213zM620 152c211 0 307 180 307 376c0 199 -66 393 -294 393
c-225 0 -308 -188 -308 -384c0 -182 71 -385 295 -385z" />
    <glyph glyph-name="atilde.alt" horiz-adv-x="1297" 
d="M454 1252h-139c13 119 76 254 206 254c56 0 100 -25 139 -48c32 -19 62 -36 90 -36c48 0 73 51 81 88h139c-11 -117 -78 -256 -205 -256c-55 0 -101 26 -142 49c-49 27 -68 35 -88 35c-48 0 -73 -47 -81 -86zM919 0v178c-67 -118 -211 -198 -346 -198
c-303 0 -467 256 -467 541c0 283 162 572 476 572c146 0 266 -62 337 -187v166h213v-1072h-213zM620 152c211 0 307 180 307 376c0 199 -66 393 -294 393c-225 0 -308 -188 -308 -384c0 -182 71 -385 295 -385z" />
    <glyph glyph-name="adieresis.alt" horiz-adv-x="1297" 
d="M724 1388c0 67 57 121 124 121c66 0 122 -52 122 -121c0 -68 -56 -121 -123 -121s-123 55 -123 121zM329 1387c0 66 56 122 123 122c66 0 123 -54 123 -121c0 -66 -57 -121 -123 -121s-123 53 -123 120zM919 0v178c-67 -118 -211 -198 -346 -198
c-303 0 -467 256 -467 541c0 283 162 572 476 572c146 0 266 -62 337 -187v166h213v-1072h-213zM620 152c211 0 307 180 307 376c0 199 -66 393 -294 393c-225 0 -308 -188 -308 -384c0 -182 71 -385 295 -385z" />
    <glyph glyph-name="aring.alt" horiz-adv-x="1297" 
d="M411 1435c0 120 106 218 223 218c118 0 226 -98 226 -218c0 -121 -107 -217 -225 -217s-224 97 -224 217zM636 1320c62 0 105 53 105 115s-42 114 -105 114c-64 0 -106 -54 -106 -113s41 -116 106 -116zM919 0v178c-67 -118 -211 -198 -346 -198
c-303 0 -467 256 -467 541c0 283 162 572 476 572c146 0 266 -62 337 -187v166h213v-1072h-213zM620 152c211 0 307 180 307 376c0 199 -66 393 -294 393c-225 0 -308 -188 -308 -384c0 -182 71 -385 295 -385z" />
    <glyph glyph-name="divide.tab" 
d="M614 950c-81 0 -143 63 -143 144s62 143 143 143s144 -61 144 -143c0 -81 -63 -144 -144 -144zM147 616v166h936v-166h-936zM614 162c-80 0 -143 63 -143 143c0 81 63 144 143 144c81 0 144 -63 144 -144s-63 -143 -144 -143z" />
    <glyph glyph-name="amacron.alt" horiz-adv-x="1297" 
d="M368 1312v147h555v-147h-555zM919 0v178c-67 -118 -211 -198 -346 -198c-303 0 -467 256 -467 541c0 283 162 572 476 572c146 0 266 -62 337 -187v166h213v-1072h-213zM620 152c211 0 307 180 307 376c0 199 -66 393 -294 393c-225 0 -308 -188 -308 -384
c0 -182 71 -385 295 -385z" />
    <glyph glyph-name="abreve.alt" horiz-adv-x="1297" 
d="M358 1537h156c11 -74 49 -125 129 -125c79 0 127 49 139 125h151c-8 -159 -128 -283 -290 -283s-274 126 -285 283zM919 0v178c-67 -118 -211 -198 -346 -198c-303 0 -467 256 -467 541c0 283 162 572 476 572c146 0 266 -62 337 -187v166h213v-1072h-213zM620 152
c211 0 307 180 307 376c0 199 -66 393 -294 393c-225 0 -308 -188 -308 -384c0 -182 71 -385 295 -385z" />
    <glyph glyph-name="aogonek.alt" horiz-adv-x="1320" 
d="M919 29v149c-67 -118 -210 -196 -346 -196c-301 0 -467 254 -467 535c0 305 168 575 500 575c132 0 248 -70 313 -184v164h213v-1060c-64 -38 -149 -95 -149 -178c0 -47 28 -70 73 -70c35 0 67 4 99 19v-129c-48 -23 -92 -27 -144 -27c-101 0 -219 43 -219 161
c0 96 79 170 156 210zM619 152c212 0 308 182 308 377c0 199 -66 393 -295 393c-224 0 -307 -187 -307 -384c0 -183 71 -386 294 -386z" />
    <glyph glyph-name="tcaron.alt" horiz-adv-x="742" 
d="M560 1218l22 358h211l-100 -358h-133zM228 0v906h-164v166h164v211l213 92v-303h225v-166h-225v-906h-213z" />
    <glyph glyph-name="tbar.alt" horiz-adv-x="742" 
d="M228 0v552h-164v141h164v213h-164v166h164v211l213 92v-303h225v-166h-225v-213h225v-141h-225v-552h-213z" />
    <glyph glyph-name="florin.tab" horiz-adv-x="1223" 
d="M263 -373l160 1058h-209v162h234l15 114c33 254 66 523 401 523c46 0 94 -5 141 -23v-170c-42 16 -85 23 -121 23c-120 0 -166 -80 -182 -180l-43 -287h282v-162h-307l-158 -1058h-213z" />
    <glyph glyph-name="aringacute.alt" horiz-adv-x="1297" 
d="M567 1700l112 268h248l-203 -268h-157zM411 1400c0 120 106 218 225 218c117 0 224 -96 224 -218c0 -121 -107 -217 -225 -217s-224 97 -224 217zM636 1285c62 0 105 53 105 115s-42 114 -105 114c-64 0 -106 -54 -106 -113s41 -116 106 -116zM919 0v178
c-67 -118 -211 -198 -346 -198c-303 0 -467 256 -467 541c0 283 162 572 476 572c146 0 266 -62 337 -187v166h213v-1072h-213zM620 152c211 0 307 180 307 376c0 199 -66 393 -294 393c-225 0 -308 -188 -308 -384c0 -182 71 -385 295 -385z" />
    <glyph glyph-name="uni021B.alt" horiz-adv-x="742" 
d="M228 0v906h-164v166h164v211l213 92v-303h225v-166h-225v-906h-213zM146 -401l113 329l196 -47l-182 -338z" />
    <glyph glyph-name="circumflex.uc" horiz-adv-x="820" 
d="M94 1573l223 268h187l221 -268h-156l-161 117l-164 -117h-150z" />
    <glyph glyph-name="caron.alt" horiz-adv-x="845" 
d="M371 1217l24 358h209l-98 -358h-135z" />
    <glyph glyph-name="caron.uc" horiz-adv-x="820" 
d="M313 1573l-219 268h154l164 -115l161 115h152l-225 -268h-187z" />
    <glyph glyph-name="breve.uc" horiz-adv-x="820" 
d="M121 1843h158c11 -69 52 -123 131 -123c75 0 120 48 135 123h153c-11 -156 -133 -278 -292 -278c-160 0 -274 122 -285 278z" />
    <glyph glyph-name="dotaccent.uc" horiz-adv-x="820" 
d="M279 1726c0 70 61 127 130 127s130 -57 130 -126c0 -68 -60 -128 -130 -128c-67 0 -130 56 -130 127z" />
    <glyph glyph-name="ring.uc" horiz-adv-x="820" 
d="M184 1767c0 121 106 218 226 218c121 0 225 -97 225 -218c0 -122 -107 -219 -225 -219s-226 96 -226 219zM410 1651c64 0 106 52 106 114c0 61 -42 117 -108 117c-64 0 -105 -53 -105 -116c0 -62 42 -115 107 -115z" />
    <glyph glyph-name="tilde.uc" horiz-adv-x="820" 
d="M221 1595h-141c13 119 78 254 205 254c56 0 102 -26 142 -49c47 -27 68 -35 89 -35c49 0 77 47 82 86h141c-11 -117 -79 -252 -206 -252c-56 0 -101 26 -141 49c-47 27 -68 35 -88 35c-50 0 -78 -49 -83 -88z" />
    <glyph glyph-name="hungarumlaut.uc" horiz-adv-x="820" 
d="M172 1573l78 268h219l-147 -268h-150zM506 1573l76 268h221l-150 -268h-147z" />
    <glyph glyph-name="uni0326.alt" horiz-adv-x="845" 
d="M305 1264l184 338l125 -54l-110 -331z" />
    <glyph glyph-name="uni0414.bgr" horiz-adv-x="1427" 
d="M2 -266v453h125l445 1277h286l440 -1277h126v-453h-194l-10 266h-1012l-11 -266h-195zM344 187h718l-359 1069h-2z" />
    <glyph glyph-name="uni0416.bgr" horiz-adv-x="1887" 
d="M34 0l584 750l-564 714h248l523 -686h2v686h226v-686h2l525 686h244l-559 -703l587 -761h-261l-536 703h-2v-703h-226v701h-2l-537 -701h-254z" />
    <glyph glyph-name="uni041A.bgr" horiz-adv-x="1326" 
d="M177 0v1464h230v-679h2l604 679h252l-636 -703l667 -761h-274l-613 696h-2v-696h-230z" />
    <glyph glyph-name="uni041B.bgr" horiz-adv-x="1420" 
d="M65 0l504 1464h287l501 -1464h-236l-419 1256h-2l-419 -1256h-216z" />
    <glyph glyph-name="uni0424.bgr" horiz-adv-x="1777" 
d="M775 0v191h-1c-421 8 -668 197 -668 532v11c0 343 240 541 668 555h1v175h227v-175h1c437 -14 669 -201 669 -542v-17c0 -334 -248 -527 -669 -539h-1v-191h-227zM1002 1122v-762h1c299 9 437 120 437 372v17c0 250 -128 359 -437 373h-1zM775 358v762h-1
c-311 -15 -436 -126 -436 -387v-11c0 -247 140 -357 436 -364h1z" />
    <glyph glyph-name="uni0430.alt" horiz-adv-x="1283" 
d="M922 0v178h-2c-65 -114 -212 -198 -349 -198c-307 0 -474 255 -474 536v16c0 268 156 536 447 557l46 2h18c135 -5 240 -67 312 -185h2v165h213v-1071h-213zM619 152c205 0 310 164 310 377v17c0 249 -114 375 -299 375c-193 0 -313 -140 -313 -381v-17
c0 -199 92 -371 302 -371z" />
    <glyph glyph-name="uni0431.locl" horiz-adv-x="1260" 
d="M1074 1592l7 -168c-71 -18 -173 -27 -303 -30l-252 -1l-43 -1c-50 -1 -89 -20 -89 -67c0 -40 103 -107 236 -176l74 -38c251 -128 458 -240 470 -561v-41c0 -312 -234 -529 -545 -529c-315 0 -545 223 -545 536v5c0 292 223 495 510 495h1c-155 72 -233 116 -288 160
c-68 54 -111 116 -111 198c0 142 131 199 281 199h305c114 0 215 5 292 19zM634 150c212 0 322 159 322 366v5c0 205 -117 360 -327 360c-214 0 -325 -161 -325 -368v-6c0 -203 122 -357 330 -357z" />
    <glyph glyph-name="uni0432.bgr" horiz-adv-x="1085" 
d="M700 852c185 -26 303 -155 303 -385v-8c0 -260 -172 -481 -446 -481c-296 0 -442 192 -442 525v550c0 348 147 539 433 539c257 0 409 -153 409 -392v-10c0 -152 -99 -309 -257 -338zM330 925h166c163 0 243 105 243 261v9c0 140 -61 229 -192 229
c-149 0 -217 -115 -217 -348v-151zM330 768v-284c0 -225 70 -339 222 -339c153 0 236 115 236 316v9c0 201 -92 298 -291 298h-167z" />
    <glyph glyph-name="uni0433.bgr" horiz-adv-x="1005" 
d="M787 326l172 -74c-87 -187 -249 -272 -471 -272c-265 0 -414 121 -414 306c0 213 158 281 358 326c136 28 255 62 255 180c0 83 -59 133 -171 133c-126 0 -218 -63 -257 -151l-175 75c90 173 235 243 427 243c234 0 392 -104 392 -289c0 -225 -191 -280 -374 -323
c-137 -31 -234 -69 -234 -188c0 -98 66 -145 189 -145c160 0 260 78 303 179z" />
    <glyph glyph-name="uni0433.locl" horiz-adv-x="920" 
d="M161 0v1071h705v-166h-493v-905h-212z" />
    <glyph glyph-name="uni0434.bgr" horiz-adv-x="1305" 
d="M92 -149l179 77c72 -102 167 -154 337 -154c210 0 324 101 324 309v158h-2c-66 -117 -221 -202 -359 -202c-296 0 -487 227 -487 510v13c0 287 195 530 499 530c154 0 270 -63 347 -189h2v168h213v-995c-1 -315 -213 -468 -545 -468c-259 0 -416 93 -508 243zM621 208
c197 0 318 148 318 350v14c0 219 -117 350 -313 350c-212 0 -322 -153 -322 -354v-15c0 -189 116 -345 317 -345z" />
    <glyph glyph-name="uni0434.locl" horiz-adv-x="1213" 
d="M29 -260v426h70c70 20 96 98 116 244c34 217 42 441 46 661h757v-905h163v-426h-178l-10 260h-777l-9 -260h-178zM346 166h464v739h-364c-5 -169 -20 -592 -100 -739z" />
    <glyph glyph-name="uni0436.bgr" horiz-adv-x="1512" 
d="M32 0l418 571l-382 500h224l357 -491h2v994h208v-995h2l358 492h225l-383 -498l419 -573h-237l-382 539h-2v-539h-208v538h-2l-382 -538h-235z" />
    <glyph glyph-name="uni0437.bgr" horiz-adv-x="1017" 
d="M31 -128l183 79c28 -95 131 -176 264 -176c154 0 247 107 247 277v7c0 187 -89 278 -274 278h-97v160h95c149 0 223 72 223 218v9c0 134 -87 200 -198 200c-108 0 -189 -64 -231 -167l-176 75c79 179 230 260 419 260c245 0 405 -135 405 -363v-8
c0 -137 -89 -270 -232 -296c171 -35 279 -156 279 -367v-8c0 -268 -177 -442 -449 -442c-227 0 -378 94 -458 264z" />
    <glyph glyph-name="uni0438.bgr" horiz-adv-x="1244" 
d="M869 0v169h-2c-55 -115 -178 -189 -345 -189c-224 0 -371 133 -371 409v682h213v-663c0 -173 73 -253 222 -253c172 0 283 107 283 274v642h213v-1071h-213z" />
    <glyph glyph-name="uni0439.bgr" horiz-adv-x="1244" 
d="M327 1534h169c8 -94 47 -142 121 -142s117 48 127 142h166c-13 -163 -129 -280 -293 -280c-166 0 -284 120 -290 280zM869 0v169h-2c-55 -115 -178 -189 -345 -189c-224 0 -371 133 -371 409v682h213v-663c0 -173 73 -253 222 -253c172 0 283 107 283 274v642h213v-1071
h-213z" />
    <glyph glyph-name="uni043A.bgr" horiz-adv-x="1097" 
d="M160 0v1574h213v-989h2l416 486h240l-442 -499l478 -572h-251l-441 533h-2v-533h-213z" />
    <glyph glyph-name="uni043B.bgr" horiz-adv-x="1133" 
d="M45 0l391 1071h257l395 -1071h-229l-302 855h-2l-298 -855h-212z" />
    <glyph glyph-name="uni043D.bgr" horiz-adv-x="1237" 
d="M161 0v1071h212v-440h491v440h212v-1071h-212v465h-491v-465h-212z" />
    <glyph glyph-name="uni043F.bgr" horiz-adv-x="1252" 
d="M160 0v1071h213v-171h2c60 117 179 192 351 192c232 0 374 -136 374 -427v-665h-212v660c0 174 -74 253 -236 253c-164 0 -279 -106 -279 -274v-639h-213z" />
    <glyph glyph-name="uni043F.locl" horiz-adv-x="1217" 
d="M161 0v1071h895v-1071h-212v905h-471v-905h-212z" />
    <glyph glyph-name="uni0442.bgr" horiz-adv-x="1896" 
d="M160 0v1071h213v-164h2c55 109 174 185 333 185c148 0 254 -66 305 -196h2c77 129 217 196 369 196c245 0 361 -172 361 -421v-671h-213v668c0 163 -71 244 -208 244c-158 0 -265 -107 -265 -264v-648h-213v668c0 163 -71 244 -208 244c-157 0 -265 -107 -265 -264v-648
h-213z" />
    <glyph glyph-name="uni0442.locl" horiz-adv-x="1001" 
d="M394 0v905h-341v166h895v-166h-341v-905h-213z" />
    <glyph glyph-name="uni0446.bgr" horiz-adv-x="1281" 
d="M869 0v169h-2c-55 -115 -178 -189 -345 -189c-224 0 -371 133 -371 409v682h213v-663c0 -173 73 -253 222 -253c172 0 283 107 283 274v642h213v-905h161v-426h-174l-12 260h-188z" />
    <glyph glyph-name="uni0447.bgr" horiz-adv-x="1167" 
d="M793 0v487h-2c-76 -82 -185 -114 -294 -119c-276 0 -377 166 -377 426v277h212v-276c0 -172 68 -253 222 -253c103 0 183 36 239 109v420h212v-1071h-212z" />
    <glyph glyph-name="uni0448.bgr" horiz-adv-x="1896" 
d="M151 1071h213v-668c0 -163 70 -244 208 -244c158 0 265 107 265 264v648h213v-668c0 -163 70 -244 206 -244c160 0 267 112 267 269v643h212v-1071h-212v169h-2c-56 -109 -175 -189 -336 -189c-145 0 -250 65 -302 195h-2c-77 -130 -218 -195 -367 -195
c-244 0 -363 174 -363 420v671z" />
    <glyph glyph-name="uni0448.locl" horiz-adv-x="1696" 
d="M161 0v1071h212v-905h369v905h212v-905h369v905h212v-1071h-1374z" />
    <glyph glyph-name="uni0449.bgr" horiz-adv-x="1934" 
d="M151 1071h213v-668c0 -163 70 -244 208 -244c158 0 265 107 265 264v648h213v-668c0 -163 70 -244 206 -244c160 0 267 112 267 269v643h212v-905h161v-426h-174l-13 260h-186v169h-2c-56 -109 -175 -189 -336 -189c-145 0 -250 65 -302 195h-2
c-77 -130 -218 -195 -367 -195c-244 0 -363 174 -363 420v671z" />
    <glyph glyph-name="uni044A.bgr" horiz-adv-x="1218" 
d="M57 905v166h486v-377h1c52 9 112 14 170 14c276 0 438 -113 438 -345v-7c0 -241 -187 -373 -416 -373c-267 0 -405 137 -405 405v517h-274zM543 539v-169c0 -153 64 -231 192 -231c130 0 203 81 203 206v7c0 136 -71 199 -227 199h-16c-57 0 -106 -5 -151 -12h-1z" />
    <glyph glyph-name="uni044C.bgr" horiz-adv-x="1037" 
d="M151 1071h212v-377h1c52 9 111 14 170 14c276 0 438 -113 438 -345v-7c0 -241 -188 -373 -417 -373c-266 0 -404 137 -404 405v683zM363 539v-169c0 -153 63 -231 191 -231c132 0 204 81 204 206v7c0 136 -71 199 -227 199h-16c-57 0 -107 -5 -151 -12h-1z" />
    <glyph glyph-name="uni044E.bgr" horiz-adv-x="1652" 
d="M161 0v1574h212v-945h154c36 277 232 464 520 464c322 0 520 -235 520 -547v-17c0 -313 -198 -548 -519 -548c-296 0 -501 199 -523 484h-152v-465h-212zM1042 150c197 0 306 144 306 377v15c0 237 -109 381 -305 381c-195 0 -304 -141 -304 -378v-17
c0 -221 96 -378 303 -378z" />
    <glyph glyph-name="uni045D.bgr" horiz-adv-x="1260" 
d="M547 1242l-216 309h247l125 -309h-156zM883 0v169h-2c-56 -115 -179 -189 -347 -189c-254 0 -371 167 -371 409v682h213v-663c0 -173 73 -253 222 -253c172 0 285 107 285 274v642h212v-1071h-212z" />
    <glyph glyph-name="endash.uc" horiz-adv-x="1084" 
d="M92 590v158h899v-158h-899z" />
    <glyph glyph-name="emdash.uc" horiz-adv-x="1840" 
d="M92 590v158h1655v-158h-1655z" />
    <glyph glyph-name="perthousand.tab" horiz-adv-x="2051" 
d="M379 805c-185 0 -285 164 -285 334c0 168 99 338 288 338c185 0 284 -162 284 -334c0 -171 -99 -338 -287 -338zM180 0l914 1464h163l-913 -1464h-164zM382 948c98 0 114 118 114 192c0 79 -18 194 -117 194s-115 -118 -115 -189c0 -78 19 -197 118 -197zM1692 -18
c-186 0 -285 161 -285 331s100 342 289 342c185 0 282 -165 282 -336c0 -170 -96 -337 -286 -337zM1050 -18c-187 0 -284 161 -284 330c0 171 99 343 287 343c185 0 282 -165 282 -336c0 -172 -96 -337 -285 -337zM1694 125c97 0 114 119 114 197c0 73 -15 190 -114 190
s-117 -118 -117 -192c0 -78 20 -195 117 -195zM1054 125c99 0 113 117 113 189c0 81 -18 198 -114 198c-98 0 -117 -120 -117 -195s20 -192 118 -192z" />
    <glyph glyph-name="guilsinglleft.uc" horiz-adv-x="654" 
d="M373 229l-264 387l264 388h184l-254 -388l254 -387h-184z" />
    <glyph glyph-name="guilsinglright.uc" horiz-adv-x="654" 
d="M96 229l252 387l-252 388h185l264 -388l-264 -387h-185z" />
    <glyph glyph-name="Euro.old" horiz-adv-x="1359" 
d="M61 530v124h136v147h-136v125h142c32 308 228 559 545 559c263 0 413 -132 501 -380l-180 -80c-48 171 -140 281 -315 281c-225 0 -317 -184 -338 -380h436l-25 -125h-415v-147h389l-23 -124h-360c21 -198 122 -365 336 -365c191 0 289 134 340 310l172 -78
c-69 -255 -247 -417 -510 -417c-317 0 -518 238 -553 550h-142z" />
    <glyph glyph-name="Euro.oldtab" 
d="M62 529v126h119v145h-119v127h123c24 336 221 558 492 558c253 0 376 -138 448 -375l-161 -75c-40 154 -117 273 -284 273c-214 0 -285 -197 -298 -381h399l-18 -127h-383v-145h356l-20 -126h-332c13 -184 91 -366 300 -366c182 0 259 138 304 301l156 -74
c-56 -241 -207 -410 -458 -410c-310 0 -477 259 -501 549h-123z" />
    <glyph glyph-name="Euro.tab" 
d="M31 528v125h121v148h-121v125h121c16 307 180 557 519 557c244 0 388 -129 445 -369l-170 -74c-40 156 -105 269 -280 269c-229 0 -289 -192 -297 -383h417l-22 -125h-397v-148h368l-22 -125h-344c8 -195 74 -368 298 -368c191 0 263 127 306 291l164 -72
c-51 -253 -212 -399 -476 -399c-334 0 -490 235 -509 548h-121z" />
    <glyph glyph-name="uni20B8.old" horiz-adv-x="1093" 
d="M56 1321v143h980v-143h-980zM443 0v964h-387v145h980v-145h-368v-964h-225z" />
    <glyph glyph-name="uni20B8.oldtab" 
d="M91 1321v143h1039v-143h-1039zM508 0v964h-417v145h1039v-145h-398v-964h-224z" />
    <glyph glyph-name="uni20B8.tab" 
d="M91 1321v143h1039v-143h-1039zM508 0v964h-417v145h1039v-145h-398v-964h-224z" />
    <glyph glyph-name="uni20B9.old" horiz-adv-x="1127" 
d="M632 0l-350 549h-191v158h59c181 0 367 11 418 219h-477v155h479c-28 179 -168 228 -328 228h-151v155h944v-155h-377c75 -56 123 -136 136 -228h241v-155h-241c-32 -163 -154 -286 -312 -334l416 -592h-266z" />
    <glyph glyph-name="uni20B9.oldtab" 
d="M121 549v158h28l54 -1c177 0 367 18 415 222h-497v153h500c-33 202 -194 229 -361 229l-63 -1l-59 -2h-17v157h985v-157h-397c73 -56 122 -135 135 -226h262v-153h-262c-32 -163 -153 -288 -312 -336l416 -592h-266l-350 549h-211z" />
    <glyph glyph-name="uni20B9.tab" 
d="M122 549v158h75c178 0 373 15 424 221h-499v153h502c-37 211 -226 229 -401 229l-101 -1v155l983 -2v-153h-391c75 -56 126 -136 141 -228h250v-153h-250c-35 -171 -163 -288 -328 -336l437 -594h-277l-367 551h-198z" />
    <glyph glyph-name="uni20BA.old" horiz-adv-x="1112" 
d="M269 0v798l-209 -53v125l209 53v134l-209 -53v127l209 53v280h219v-229l314 76v-127l-314 -76v-134l314 76v-125l-314 -76v-688c189 3 364 148 415 324l164 -71c-78 -251 -341 -432 -607 -432c-63 0 -131 3 -191 18z" />
    </font>
</defs>
</svg>
