<?xml version="1.0" encoding="UTF-8"?>
<!DOCTYPE svg PUBLIC "-//W3C//DTD SVG 1.1//EN" "http://www.w3.org/Graphics/SVG/1.1/DTD/svg11.dtd">
<!-- Creator: CorelDRAW X5 -->
<svg xmlns="http://www.w3.org/2000/svg" xml:space="preserve" width="56.3389mm" height="34.6572mm" style="shape-rendering:geometricPrecision; text-rendering:geometricPrecision; image-rendering:optimizeQuality; fill-rule:evenodd; clip-rule:evenodd"
viewBox="0 0 56.339 34.6573"
 xmlns:xlink="http://www.w3.org/1999/xlink">
 <defs>
  <style type="text/css">
   <![CDATA[
    .fil9 {fill:black;fill-rule:nonzero}
    .fil36 {fill:#02070A;fill-rule:nonzero}
    .fil32 {fill:#020C12;fill-rule:nonzero}
    .fil35 {fill:#0E273B;fill-rule:nonzero}
    .fil12 {fill:#103754;fill-rule:nonzero}
    .fil33 {fill:#112C45;fill-rule:nonzero}
    .fil13 {fill:#1A5078;fill-rule:nonzero}
    .fil19 {fill:#1A6796;fill-rule:nonzero}
    .fil3 {fill:#244869;fill-rule:nonzero}
    .fil14 {fill:#265782;fill-rule:nonzero}
    .fil18 {fill:#356C9C;fill-rule:nonzero}
    .fil15 {fill:#386F9E;fill-rule:nonzero}
    .fil7 {fill:#3E6880;fill-rule:nonzero}
    .fil29 {fill:#3F5A73;fill-rule:nonzero}
    .fil20 {fill:#4291CC;fill-rule:nonzero}
    .fil8 {fill:#497891;fill-rule:nonzero}
    .fil30 {fill:#546F86;fill-rule:nonzero}
    .fil16 {fill:#5580AD;fill-rule:nonzero}
    .fil5 {fill:#5A6A78;fill-rule:nonzero}
    .fil6 {fill:#657786;fill-rule:nonzero}
    .fil17 {fill:#6898C9;fill-rule:nonzero}
    .fil24 {fill:#BABABA;fill-rule:nonzero}
    .fil26 {fill:#C2832E;fill-rule:nonzero}
    .fil31 {fill:#C3CED6;fill-rule:nonzero}
    .fil10 {fill:#D15500;fill-rule:nonzero}
    .fil25 {fill:#D6D6D6;fill-rule:nonzero}
    .fil21 {fill:#E05C00;fill-rule:nonzero}
    .fil11 {fill:#E65D00;fill-rule:nonzero}
    .fil27 {fill:#E69C37;fill-rule:nonzero}
    .fil28 {fill:#E6E6E6;fill-rule:nonzero}
    .fil34 {fill:#EFEFEF;fill-rule:nonzero}
    .fil4 {fill:#F06407;fill-rule:nonzero}
    .fil22 {fill:#F26C0F;fill-rule:nonzero}
    .fil2 {fill:#F5C39E;fill-rule:nonzero}
    .fil0 {fill:#F5C7A0;fill-rule:nonzero}
    .fil23 {fill:#FAECE3;fill-rule:nonzero}
    .fil1 {fill:#FCD6B7;fill-rule:nonzero}
   ]]>
  </style>
 </defs>
 <g id="Layer_x0020_1">
  <metadata id="CorelCorpID_0Corel-Layer"/>
  <g id="_714409880">
   <path id="_714406112" class="fil0" d="M31.1474 15.9835c-0.1041,0 -0.2082,-0.0395001 -0.287501,-0.1185 -0.1602,-0.1591 -0.1612,-0.417701 -0.0021,-0.577501l0.605001 -0.609601c0.1587,-0.1598 0.417701,-0.1612 0.577101,-0.0021 0.1602,0.1587 0.1612,0.417701 0.0025,0.577501l-0.605001 0.609601c-0.0801001,0.0804001 -0.1849,0.1206 -0.290001,0.1206z"/>
   <path id="_714402800" class="fil1" d="M13.121 22.5469c0.0296001,-0.614501 0.1107,-0.883002 -0.0886002,-1.6351 -0.1347,-0.508701 -0.2617,-0.762301 -0.388701,-1.5494 -0.0656001,-0.401401 -0.709501,-2.1713 -0.768701,-2.6254 0.936602,-0.808201 1.7515,2.0659 2.1886,2.8149 0.206,0.353401 2.2941,-1.5872 2.2941,-1.5872l1.9431 3.40471c-0.525601,0.573201 -0.889702,1.028 -1.4877,1.391 -0.325601,0.1972 -0.706201,0.326601 -1.0114,0.557401 -0.301901,0.2286 -0.498801,0.760201 -0.648401,1.1038l-2.0323 -1.8747z"/>
   <path id="_714402968" class="fil2" d="M12.1744 17.8084c0.2392,-0.2276 0.0868002,-0.738801 -0.0532001,-1.2122 -0.0773001,0.0261 -0.1588,0.0702001 -0.2463,0.1408 0.0223,0.1711 0.1408,0.646301 0.299501,1.0714z"/>
   <path id="_714402656" class="fil3" d="M12.6804 16.4869c0.00350001,0.0444001 0.0434001,0.0783001 0.0882002,0.0748001l0.366201 -0.0300001c0.0448001,-0.00350001 0.0786001,-0.0434001 0.0748001,-0.0879002l-0.0614001 -0.752801c-0.00360001,-0.0448001 -0.0434001,-0.0786001 -0.0879002,-0.0751001l-0.366501 0.0300001c-0.0448001,0.00350001 -0.0783001,0.0434001 -0.0748001,0.0882002l0.0614001 0.752801z"/>
   <path id="_714402512" class="fil4" d="M12.9244 17.4675c0.00390001,0.0445001 0.0431001,0.0783001 0.0879002,0.0744001l0.2035 -0.0165c0.0448001,-0.00390001 0.0787001,-0.0434001 0.0748001,-0.0879002l-0.0614001 -0.753201c-0.00350001,-0.0448001 -0.0433001,-0.0783001 -0.0878002,-0.0744001l-0.2039 0.0166c-0.0445001,0.00350001 -0.0783001,0.0434001 -0.0744001,0.0878002l0.0613001 0.753201z"/>
   <path id="_714402320" class="fil5" d="M17.3902 14.7097c0.224,-0.018 0.421901,0.1499 0.440201,0.373601l0.568001 6.95961c0.018,0.2237 -0.1503,0.421901 -0.374001,0.439901l-0.312201 0.0258 -0.633901 -7.77351 0.311901 -0.0254z"/>
   <path id="_714402368" class="fil6" d="M13.3341 15.0403l3.74411 -0.305101 0.634301 7.77311 -3.74441 0.305801c-0.2237,0.018 -0.421601,-0.1503 -0.439901,-0.373901l-0.568001 -6.95961c-0.0184,-0.2237 0.1499,-0.421601 0.373901,-0.440301z"/>
   <path id="_714402008" class="fil7" d="M16.1132 15.0351l0.2368 -0.0194c0.224,-0.018 0.422201,0.1499 0.440201,0.373901l0.361601 4.43021c0.0184,0.224 -0.1503,0.422301 -0.373901,0.440601l-1.469 0.1196c0.681201,-1.9639 0.807901,-4.04071 0.804301,-5.34491z"/>
   <path id="_714401960" class="fil8" d="M13.7527 20.5071l-0.427901 -5.24471 2.7883 -0.2272c0.00360001,1.3042 -0.1231,3.38101 -0.804301,5.34491l-1.5561 0.127z"/>
   <path id="_714401792" class="fil3" d="M14.3514 16.6308c0.0388001,0.475501 0.455801,0.829701 0.931702,0.790901 0.475901,-0.0388001 0.830101,-0.456101 0.791301,-0.931702 -0.0388001,-0.475501 -0.456201,-0.830101 -0.931702,-0.791301 -0.475901,0.0392001 -0.830101,0.455801 -0.791301,0.932102z"/>
   <path id="_714402176" class="fil3" d="M14.5095 18.9871c0.0389001,0.475901 0.455801,0.830101 0.931702,0.791301 0.475901,-0.0392001 0.830101,-0.456201 0.791301,-0.932102 -0.0388001,-0.475501 -0.456101,-0.830101 -0.932002,-0.791201 -0.475601,0.0391001 -0.829801,0.456101 -0.791001,0.932002z"/>
   <path id="_714401504" class="fil9" d="M16.9793 20.4716c0.00420001,0.0529001 0.0501001,0.0917002 0.1027,0.0875002 0.0525001,-0.00430001 0.0917002,-0.0505001 0.0875002,-0.103 -0.00430001,-0.0523001 -0.0505001,-0.0914002 -0.1027,-0.0872002 -0.0526001,0.00460001 -0.0917002,0.0505001 -0.0875002,0.1027z"/>
   <path id="_714401672" class="fil9" d="M17.0126 20.8788c0.00420001,0.0526001 0.0504001,0.0917002 0.103,0.0875002 0.0522001,-0.00430001 0.0914002,-0.0505001 0.0868002,-0.103 -0.00390001,-0.0522001 -0.0501001,-0.0914002 -0.1027,-0.0872002 -0.0526001,0.00430001 -0.0914002,0.0505001 -0.0871002,0.1027z"/>
   <path id="_714401360" class="fil9" d="M17.0457 21.2859c0.00430001,0.0525001 0.0501001,0.0913002 0.1027,0.0871002 0.0526001,-0.00420001 0.0917002,-0.0501001 0.0871002,-0.1027 -0.00420001,-0.0525001 -0.0501001,-0.0913002 -0.1023,-0.0871002 -0.0525001,0.00420001 -0.0917002,0.0501001 -0.0875002,0.1027z"/>
   <path id="_714401216" class="fil9" d="M17.079 21.6928c0.00420001,0.0526001 0.0501001,0.0918002 0.103,0.0875002 0.0522001,-0.00460001 0.0914002,-0.0504001 0.0868002,-0.103 -0.00420001,-0.0526001 -0.0501001,-0.0914002 -0.1027,-0.0871002 -0.0522001,0.00420001 -0.0913002,0.0501001 -0.0871002,0.1026z"/>
   <path id="_714401024" class="fil9" d="M17.1124 22.0999c0.00420001,0.0522001 0.0501001,0.0917002 0.1026,0.0875002 0.0526001,-0.00430001 0.0914002,-0.0505001 0.0872002,-0.1031 -0.00460001,-0.0525001 -0.0501001,-0.0917002 -0.1027,-0.0871002 -0.0526001,0.00420001 -0.0914002,0.0501001 -0.0871002,0.1027z"/>
   <path id="_714401072" class="fil9" d="M16.5318 20.5084c0.00420001,0.0525001 0.0505001,0.0917002 0.1027,0.0875002 0.0525001,-0.00460001 0.0917002,-0.0505001 0.0871002,-0.103 -0.00420001,-0.0526001 -0.0501001,-0.0918002 -0.1027,-0.0872002 -0.0525001,0.00430001 -0.0913002,0.0501001 -0.0871002,0.1027z"/>
   <path id="_714400880" class="fil9" d="M16.565 20.9155c0.00420001,0.0522001 0.0501001,0.0914002 0.1026,0.0871002 0.0526001,-0.00420001 0.0914002,-0.0501001 0.0872002,-0.1026 -0.00430001,-0.0526001 -0.0501001,-0.0914002 -0.1027,-0.0872002 -0.0522001,0.00430001 -0.0914002,0.0501001 -0.0871002,0.1027z"/>
   <path id="_714400568" class="fil9" d="M16.5981 21.3224c0.00420001,0.0523001 0.0504001,0.0914002 0.103,0.0872002 0.0522001,-0.00460001 0.0914002,-0.0501001 0.0871002,-0.103 -0.00450001,-0.0522001 -0.0504001,-0.0914002 -0.103,-0.0868002 -0.0522001,0.00420001 -0.0913002,0.0501001 -0.0871002,0.1026z"/>
   <path id="_714400520" class="fil9" d="M16.6313 21.7294c0.00420001,0.0525001 0.0501001,0.0917002 0.103,0.0871002 0.0522001,-0.00420001 0.0913002,-0.0501001 0.0868002,-0.103 -0.00430001,-0.0522001 -0.0498001,-0.0914002 -0.1024,-0.0868002 -0.0525001,0.00430001 -0.0917002,0.0501001 -0.0874002,0.1027z"/>
   <path id="_714400352" class="fil9" d="M16.6645 22.1362c0.00430001,0.0526001 0.0505001,0.0918002 0.103,0.0875002 0.0522001,-0.00460001 0.0914002,-0.0504001 0.0872002,-0.103 -0.00460001,-0.0522001 -0.0505001,-0.0914002 -0.103,-0.0871002 -0.0523001,0.00420001 -0.0914002,0.0501001 -0.0872002,0.1026z"/>
   <path id="_714400304" class="fil9" d="M16.0841 20.545c0.00420001,0.0525001 0.0501001,0.0917002 0.1026,0.0871002 0.0526001,-0.00420001 0.0917002,-0.0505001 0.0872002,-0.103 -0.00430001,-0.0522001 -0.0501001,-0.0914002 -0.1027,-0.0868002 -0.0526001,0.00420001 -0.0914002,0.0501001 -0.0871002,0.1027z"/>
   <path id="_714400136" class="fil9" d="M16.1174 20.9519c0.00430001,0.0526001 0.0501001,0.0914002 0.1023,0.0875002 0.0526001,-0.00460001 0.0918002,-0.0504001 0.0875002,-0.103 -0.00420001,-0.0526001 -0.0501001,-0.0914002 -0.1026,-0.0871002 -0.0526001,0.00420001 -0.0917002,0.0501001 -0.0872002,0.1026z"/>
   <path id="_714400088" class="fil9" d="M16.1504 21.3586c0.00420001,0.0526001 0.0504001,0.0918002 0.103,0.0875002 0.0525001,-0.00420001 0.0913002,-0.0501001 0.0871002,-0.103 -0.00460001,-0.0522001 -0.0504001,-0.0913002 -0.1027,-0.0871002 -0.0525001,0.00460001 -0.0917002,0.0504001 -0.0874002,0.1026z"/>
   <path id="_714399920" class="fil9" d="M16.1835 21.7659c0.00460001,0.0525001 0.0501001,0.0917002 0.103,0.0874002 0.0522001,-0.00420001 0.0914002,-0.0504001 0.0872002,-0.103 -0.00430001,-0.0525001 -0.0501001,-0.0917002 -0.1027,-0.0871002 -0.0526001,0.00420001 -0.0917002,0.0504001 -0.0875002,0.1027z"/>
   <path id="_714400712" class="fil9" d="M16.2168 22.1728c0.00420001,0.0525001 0.0504001,0.0917002 0.103,0.0871002 0.0522001,-0.00420001 0.0914002,-0.0501001 0.0871002,-0.1026 -0.00420001,-0.0526001 -0.0501001,-0.0914002 -0.1026,-0.0872002 -0.0526001,0.00430001 -0.0918002,0.0501001 -0.0875002,0.1027z"/>
   <path id="_714399800" class="fil9" d="M15.6365 20.5814c0.00430001,0.0526001 0.0501001,0.0918002 0.1027,0.0875002 0.0526001,-0.00420001 0.0917002,-0.0504001 0.0871002,-0.103 -0.00420001,-0.0522001 -0.0504001,-0.0914002 -0.103,-0.0871002 -0.0522001,0.00460001 -0.0914002,0.0501001 -0.0868002,0.1026z"/>
   <path id="_714399488" class="fil9" d="M15.6696 20.9886c0.00420001,0.0522001 0.0504001,0.0914002 0.1026,0.0871002 0.0526001,-0.00450001 0.0918002,-0.0504001 0.0875002,-0.103 -0.00460001,-0.0518001 -0.0504001,-0.0913002 -0.103,-0.0871002 -0.0525001,0.00460001 -0.0913002,0.0504001 -0.0871002,0.103z"/>
   <path id="_714399656" class="fil9" d="M15.7026 21.3954c0.00420001,0.0522001 0.0505001,0.0914002 0.103,0.0872002 0.0522001,-0.00430001 0.0914002,-0.0505001 0.0872002,-0.1027 -0.00460001,-0.0525001 -0.0505001,-0.0917002 -0.1027,-0.0875002 -0.0526001,0.00460001 -0.0917002,0.0505001 -0.0875002,0.103z"/>
   <path id="_714399344" class="fil9" d="M15.736 21.8023c0.00420001,0.0526001 0.0501001,0.0917002 0.1027,0.0875002 0.0525001,-0.00420001 0.0917002,-0.0505001 0.0871002,-0.103 -0.00420001,-0.0526001 -0.0501001,-0.0914002 -0.1027,-0.0872002 -0.0525001,0.00460001 -0.0913002,0.0501001 -0.0871002,0.1027z"/>
   <path id="_714399200" class="fil9" d="M15.769 22.2093c0.00430001,0.0525001 0.0505001,0.0917002 0.1027,0.0874002 0.0526001,-0.00420001 0.0914002,-0.0504001 0.0875002,-0.103 -0.00460001,-0.0522001 -0.0505001,-0.0913002 -0.1027,-0.0871002 -0.0525001,0.00420001 -0.0917002,0.0501001 -0.0875002,0.1027z"/>
   <path id="_714399008" class="fil9" d="M15.1888 20.618c0.00420001,0.0525001 0.0501001,0.0914002 0.1026,0.0871002 0.0526001,-0.00420001 0.0914002,-0.0504001 0.0872002,-0.1026 -0.00430001,-0.0526001 -0.0501001,-0.0918002 -0.1027,-0.0872002 -0.0525001,0.00430001 -0.0913002,0.0501001 -0.0871002,0.1027z"/>
   <path id="_714399056" class="fil9" d="M15.2221 21.0248c0.00420001,0.0526001 0.0504001,0.0918002 0.1026,0.0875002 0.0526001,-0.00420001 0.0917002,-0.0504001 0.0875002,-0.103 -0.00460001,-0.0522001 -0.0504001,-0.0913002 -0.103,-0.0871002 -0.0526001,0.00460001 -0.0917002,0.0504001 -0.0871002,0.1026z"/>
   <path id="_714398864" class="fil9" d="M15.2551 21.4317c0.00420001,0.0526001 0.0501001,0.0917002 0.103,0.0875002 0.0526001,-0.00420001 0.0914002,-0.0505001 0.0872002,-0.103 -0.00460001,-0.0522001 -0.0505001,-0.0914002 -0.1027,-0.0872002 -0.0529001,0.00460001 -0.0917002,0.0505001 -0.0875002,0.1027z"/>
   <path id="_714398552" class="fil9" d="M15.2883 21.8389c0.00420001,0.0525001 0.0501001,0.0917002 0.1026,0.0875002 0.0526001,-0.00430001 0.0917002,-0.0505001 0.0875002,-0.103 -0.00420001,-0.0526001 -0.0501001,-0.0914002 -0.1026,-0.0872002 -0.0526001,0.00430001 -0.0918002,0.0501001 -0.0875002,0.1027z"/>
   <path id="_714398504" class="fil9" d="M15.3214 22.2458c0.00420001,0.0526001 0.0504001,0.0918002 0.103,0.0875002 0.0522001,-0.00460001 0.0914002,-0.0504001 0.0871002,-0.103 -0.00420001,-0.0525001 -0.0504001,-0.0913002 -0.1026,-0.0871002 -0.0526001,0.00420001 -0.0917002,0.0501001 -0.0875002,0.1026z"/>
   <path id="_714398336" class="fil9" d="M14.7412 20.6542c0.00420001,0.0529001 0.0504001,0.0917002 0.1026,0.0875002 0.0526001,-0.00420001 0.0914002,-0.0501001 0.0872002,-0.103 -0.00430001,-0.0522001 -0.0501001,-0.0914002 -0.103,-0.0868002 -0.0522001,0.00420001 -0.0914002,0.0501001 -0.0868002,0.1023z"/>
   <path id="_714398288" class="fil9" d="M14.7743 21.0613c0.00420001,0.0525001 0.0505001,0.0917002 0.1027,0.0875002 0.0525001,-0.00430001 0.0917002,-0.0505001 0.0875002,-0.103 -0.00460001,-0.0522001 -0.0505001,-0.0914002 -0.1031,-0.0872002 -0.0525001,0.00460001 -0.0913002,0.0501001 -0.0871002,0.1027z"/>
   <path id="_714398120" class="fil9" d="M14.8074 21.4685c0.00420001,0.0522001 0.0504001,0.0914002 0.1026,0.0871002 0.0526001,-0.00460001 0.0917002,-0.0501001 0.0872002,-0.1026 -0.00390001,-0.0522001 -0.0501001,-0.0917002 -0.1024,-0.0875002 -0.0525001,0.00420001 -0.0917002,0.0504001 -0.0874002,0.103z"/>
   <path id="_714398624" class="fil9" d="M14.8407 21.8753c0.00430001,0.0526001 0.0501001,0.0917002 0.1027,0.0872002 0.0526001,-0.00430001 0.0914002,-0.0501001 0.0871002,-0.1027 -0.00420001,-0.0526001 -0.0501001,-0.0914002 -0.1026,-0.0871002 -0.0526001,0.00420001 -0.0914002,0.0501001 -0.0872002,0.1026z"/>
   <path id="_714404960" class="fil9" d="M14.8738 22.2824c0.00420001,0.0526001 0.0501001,0.0917002 0.1026,0.0871002 0.0526001,-0.00420001 0.0918002,-0.0501001 0.0872002,-0.1026 -0.00420001,-0.0522001 -0.0498001,-0.0918002 -0.1023,-0.0872002 -0.0526001,0.00430001 -0.0917002,0.0501001 -0.0875002,0.1027z"/>
   <path id="_714397760" class="fil9" d="M14.2933 20.691c0.00460001,0.0526001 0.0501001,0.0914002 0.103,0.0872002 0.0522001,-0.00430001 0.0914002,-0.0501001 0.0871002,-0.103 -0.00450001,-0.0522001 -0.0501001,-0.0914002 -0.103,-0.0868002 -0.0522001,0.00420001 -0.0913002,0.0501001 -0.0871002,0.1026z"/>
   <path id="_714397712" class="fil9" d="M14.3265 21.0979c0.00420001,0.0525001 0.0504001,0.0917002 0.103,0.0875002 0.0522001,-0.00430001 0.0917002,-0.0505001 0.0871002,-0.1031 -0.00420001,-0.0525001 -0.0504001,-0.0913002 -0.103,-0.0867002 -0.0522001,0.00380001 -0.0914002,0.0501001 -0.0871002,0.1023z"/>
   <path id="_714397544" class="fil9" d="M14.3598 21.5047c0.00430001,0.0526001 0.0501001,0.0917002 0.103,0.0875002 0.0522001,-0.00420001 0.0914002,-0.0504001 0.0868002,-0.103 -0.00420001,-0.0526001 -0.0501001,-0.0914002 -0.1026,-0.0871002 -0.0526001,0.00460001 -0.0914002,0.0504001 -0.0872002,0.1026z"/>
   <path id="_714397496" class="fil9" d="M14.3929 21.9119c0.00420001,0.0526001 0.0504001,0.0917002 0.103,0.0875002 0.0522001,-0.00420001 0.0914002,-0.0505001 0.0871002,-0.1034 -0.00460001,-0.0518001 -0.0504001,-0.0910002 -0.1026,-0.0868002 -0.0526001,0.00430001 -0.0918002,0.0501001 -0.0875002,0.1027z"/>
   <path id="_714397328" class="fil9" d="M14.4261 22.3188c0.00430001,0.0525001 0.0505001,0.0917002 0.1027,0.0875002 0.0526001,-0.00430001 0.0917002,-0.0501001 0.0875002,-0.1031 -0.00420001,-0.0522001 -0.0505001,-0.0913002 -0.103,-0.0871002 -0.0526001,0.00420001 -0.0914002,0.0505001 -0.0872002,0.1027z"/>
   <path id="_714397280" class="fil9" d="M13.8458 20.7275c0.00420001,0.0526001 0.0501001,0.0917002 0.1027,0.0871002 0.0522001,-0.00420001 0.0913002,-0.0501001 0.0871002,-0.1026 -0.00420001,-0.0526001 -0.0501001,-0.0914002 -0.1027,-0.0872002 -0.0522001,0.00430001 -0.0913002,0.0501001 -0.0871002,0.1027z"/>
   <path id="_714397112" class="fil9" d="M13.8791 21.1347c0.00420001,0.0522001 0.0501001,0.0913002 0.1026,0.0871002 0.0526001,-0.00420001 0.0914002,-0.0504001 0.0872002,-0.103 -0.00430001,-0.0522001 -0.0501001,-0.0914002 -0.1027,-0.0868002 -0.0526001,0.00420001 -0.0914002,0.0501001 -0.0871002,0.1027z"/>
   <path id="_714397064" class="fil9" d="M13.9121 21.5413c0.00420001,0.0525001 0.0501001,0.0917002 0.1026,0.0871002 0.0526001,-0.00420001 0.0918002,-0.0501001 0.0872002,-0.1026 -0.00430001,-0.0523001 -0.0501001,-0.0914002 -0.1023,-0.0872002 -0.0526001,0.00460001 -0.0918002,0.0505001 -0.0875002,0.1027z"/>
   <path id="_714396896" class="fil9" d="M13.9453 21.9483c0.00430001,0.0526001 0.0505001,0.0918002 0.1027,0.0872002 0.0526001,-0.00430001 0.0917002,-0.0501001 0.0875002,-0.1027 -0.00460001,-0.0522001 -0.0505001,-0.0917002 -0.103,-0.0871002 -0.0526001,0.00460001 -0.0914002,0.0501001 -0.0872002,0.1026z"/>
   <path id="_714396848" class="fil9" d="M13.9784 22.3553c0.00420001,0.0526001 0.0505001,0.0917002 0.103,0.0875002 0.0522001,-0.00420001 0.0914002,-0.0504001 0.0872002,-0.103 -0.00430001,-0.0522001 -0.0505001,-0.0914002 -0.1027,-0.0871002 -0.0526001,0.00420001 -0.0917002,0.0500001 -0.0875002,0.1026z"/>
   <path id="_714396680" class="fil1" d="M16.4057 18.0107c0.489301,-0.2491 2.4556,-1.5081 2.6857,-0.796201 0.2049,0.633901 -0.519701,0.879502 -0.830101,1.0305 -0.433901,0.2102 -1.0605,0.518201 -1.5233,0.677601 -0.2519,0.0868002 -0.638901,0.2392 -0.816401,-0.1241 -0.1471,-0.302401 0.2375,-0.649501 0.484101,-0.787801z"/>
   <path id="_714396632" class="fil2" d="M16.0388 18.7681c0.0896002,0.1694 0.2068,0.283301 0.383501,0.1789 0.1764,-0.1037 0.2466,-0.325601 0.157,-0.494601 -0.0893002,-0.169 -0.304801,-0.2216 -0.481201,-0.1175 -0.1764,0.1041 -0.1489,0.2646 -0.0593001,0.433201z"/>
   <path id="_714427352" class="fil1" d="M16.8305 18.9151c0.520701,-0.1432 2.7855,-0.884402 2.90901,-0.1817 0.1171,0.666801 -0.854102,0.794801 -1.1832,0.878402 -0.459301,0.1171 -1.0777,0.2128 -1.5568,0.2727 -0.2607,0.0328001 -0.664601,0.102 -0.776101,-0.293801 -0.0928002,-0.328801 0.342501,-0.590901 0.607101,-0.675601z"/>
   <path id="_714396560" class="fil2" d="M16.357 19.5932c0.0512001,0.1863 0.1429,0.327001 0.336201,0.2663 0.1941,-0.0603001 0.309401,-0.2607 0.2579,-0.446601 -0.0508001,-0.1862 -0.2494,-0.288201 -0.443101,-0.2272 -0.194,0.0611001 -0.2021,0.2219 -0.151,0.407501z"/>
   <path id="_714396104" class="fil1" d="M17.7313 19.8015c0.531901,-0.0582001 1.7363,-0.419101 1.6933,0.299801 -0.0275,0.463601 -0.524601,0.549301 -0.859702,0.579301 -0.468501,0.0416001 -1.0097,0.1298 -1.4898,0.1125 -0.2614,-0.00950002 -0.738001,0.000700001 -0.726701,-0.417301 0.0151,-0.544001 1.1109,-0.532701 1.3829,-0.574301z"/>
   <path id="_714395960" class="fil2" d="M16.477 20.4174c0.0169,0.1933 0.1058,0.335801 0.306601,0.313901 0.2007,-0.0215 0.349901,-0.1958 0.333001,-0.389101 -0.017,-0.193 -0.193,-0.332301 -0.393701,-0.310401 -0.2008,0.0215 -0.2625,0.1926 -0.2459,0.385601z"/>
   <path id="_714395816" class="fil1" d="M17.4954 20.9291c0.532001,0.0212 1.76,-0.1379 1.6436,0.505901 -0.0751001,0.414901 -0.575001,0.423401 -0.909802,0.403901 -0.467401,-0.0268 -1.0118,-0.0225 -1.4852,-0.1044 -0.2572,-0.0451001 -0.729501,-0.1019 -0.675201,-0.477601 0.0709001,-0.489301 1.1536,-0.327801 1.4266,-0.327801z"/>
   <path id="_714396248" class="fil2" d="M16.1572 21.2341c-0.0261,0.1782 0.0197,0.366901 0.2173,0.380001 0.1976,0.0134 0.378901,-0.1203 0.405001,-0.298801 0.0265,-0.1778 -0.1125,-0.333401 -0.310101,-0.346801 -0.1972,-0.0134 -0.286101,0.0875002 -0.312201,0.2656z"/>
   <path id="_714427832" class="fil10" d="M15.9026 25.2011c-0.0963002,0.489401 -2.017,5.34901 -3.68471,9.45612l-1.2685 0 4.40181 -10.1836c0.1492,0.1708 0.539701,0.536601 0.551401,0.727501z"/>
   <path id="_714427928" class="fil11" d="M12.897 22.1436c0.0176,0.00920002 0.0381001,0.0209 0.0592001,0.0343001 0.471001,0.293101 1.518,1.2925 2.3947,2.2955l-4.40181 10.1838 -3.63661 0c1.9267,-4.32621 5.42951,-12.3388 5.58451,-12.5136z"/>
   <path id="_714427808" class="fil1" d="M6.26451 27.4268c-0.0169,-0.615201 -0.0303001,-1.8535 -0.1563,-2.5354 -0.0762001,-0.412401 -0.2077,-1.1458 -0.339701,-1.7988 -0.0808001,-0.399001 0.1475,-2.6307 0.2159,-3.08331 -1.1634,-0.977202 -1.458,2.3837 -1.6721,3.13691 -0.1119,0.393701 -1.1896,-0.367201 -1.1896,-0.367201l-2.013 3.36371c0.514001,0.583801 0.868602,1.0463 1.4591,1.4213 0.321101,0.2039 0.699201,0.341201 0.999402,0.577901 0.297401,0.2349 0.483401,0.770801 0.625901,1.1172l2.0704 -1.8323z"/>
   <path id="_714427736" class="fil12" d="M3.05921 15.9103c0.2815,-1.3498 1.3423,-2.3217 2.563,-2.4825 -0.1524,-0.0625001 -0.312301,-0.1126 -0.478401,-0.1475 -1.5713,-0.327701 -3.12951,0.768701 -3.47981,2.449 -0.350701,1.6803 0.638901,3.30831 2.2101,3.63611 0.309401,0.0645001 0.618101,0.0734001 0.917302,0.0338001 -1.287,-0.526701 -2.0454,-1.9864 -1.7322,-3.48891z"/>
   <path id="_714395408" class="fil13" d="M7.35441 16.9165c0.313301,-1.5024 -0.444801,-2.96191 -1.7325,-3.48891 -1.2206,0.1612 -2.281,1.1331 -2.5625,2.4828 -0.313701,1.5025 0.444801,2.96191 1.7321,3.48901 1.2206,-0.1612 2.2814,-1.1331 2.5629,-2.4829z"/>
   <path id="_714427640" class="fil14" d="M2.7935 18.7383l-2.0044 10.6119c-0.0727001,0.386301 0.0677001,0.757801 0.324201,0.929602l2.4465 -11.7274c-0.402201,-0.0346001 -0.733401,0.0113 -0.766301,0.1859z"/>
   <path id="_714427544" class="fil15" d="M3.55981 18.5522l-2.4465 11.7274c0.0617001,0.0416001 0.1305,0.0716001 0.2046,0.0872002l0.501301 0.1044c0.380601,0.0793001 0.781701,-0.2449 0.891102,-0.720001l2.4056 -10.5283c0.0695001,-0.302701 -0.852702,-0.610401 -1.5561,-0.670701z"/>
   <path id="_714427448" class="fil16" d="M3.10891 15.7076l-1.2919 -0.2695c-0.1337,-0.0279 -0.2663,0.0589001 -0.294201,0.1926l-0.0275 0.133c-0.0279,0.1337 0.0586001,0.266 0.1926,0.293901l1.3116 0.2737c0.011,-0.1393 0.0304001,-0.2801 0.0597001,-0.420901 0.0144,-0.0691001 0.0314001,-0.1361 0.0497001,-0.2028z"/>
   <path id="_714426920" class="fil17" d="M7.49541 17.0153l0.0279 -0.133c0.0279,-0.1337 -0.0589001,-0.266 -0.1926,-0.293801l-4.22171 -0.880902c-0.0183,0.0666001 -0.0353001,0.134 -0.0497001,0.2028 -0.0293001,0.1408 -0.0487001,0.2815 -0.0597001,0.420901l4.20161 0.876602c0.1341,0.0279 0.2664,-0.0589001 0.294201,-0.1926z"/>
   <path id="_714395624" class="fil2" d="M5.86421 21.0851c-0.2346,-0.2325 -0.2727,-0.751401 -0.1231,-1.2217 0.0769001,0.0275 0.1574,0.0738001 0.2434,0.1457 -0.0257,0.1708 -0.0744001,0.593801 -0.1203,1.076z"/>
   <path id="_714427208" class="fil1" d="M3.69381 23.0267c-0.383501,-0.393001 -1.8415,-2.2165 -2.2881,-1.6164 -0.397601,0.534801 0.2099,1.0001 0.455401,1.2425 0.343201,0.338601 0.838201,0.831501 1.2252,1.131 0.2106,0.163 0.528101,0.431401 0.812801,0.1443 0.2363,-0.2389 -0.0162,-0.691101 -0.2053,-0.901402z"/>
   <path id="_714427256" class="fil2" d="M3.79791 23.8619c-0.139,0.1313 -0.286801,0.2015 -0.420501,0.0462001 -0.1337,-0.1552 -0.1291,-0.387701 0.00990002,-0.518901 0.139,-0.1312 0.360201,-0.1118 0.493901,0.0434001 0.1337,0.1552 0.0557001,0.298101 -0.0833001,0.429301z"/>
   <path id="_714426992" class="fil1" d="M3.00121 23.7467c-0.447301,-0.302601 -2.3541,-1.7318 -2.6966,-1.1063 -0.325301,0.594101 0.553101,1.0273 0.838201,1.2122 0.397501,0.2582 0.952102,0.547501 1.3867,0.758401 0.2367,0.1143 0.596901,0.309801 0.829801,-0.0296001 0.1929,-0.2815 -0.1348,-0.669201 -0.358101,-0.834701z"/>
   <path id="_714426392" class="fil2" d="M3.23171 24.5411c-0.1083,0.1598 -0.2403,0.2638 -0.404301,0.1442 -0.1637,-0.1199 -0.2089,-0.346401 -0.1006,-0.505801 0.1083,-0.1599 0.328801,-0.1927 0.492901,-0.0727001 0.1637,0.1196 0.1203,0.2748 0.012,0.434301z"/>
   <path id="_714426752" class="fil1" d="M1.8634 24.2969c-0.485101,-0.2257 -1.5099,-0.954202 -1.7,-0.2596 -0.1228,0.448001 0.320301,0.689001 0.628301,0.824801 0.430001,0.1901 0.914402,0.446901 1.3748,0.584901 0.2504,0.0748001 0.698501,0.2374 0.821901,-0.1619 0.1605,-0.520001 -0.880902,-0.861502 -1.125,-0.988202z"/>
   <path id="_714426680" class="fil2" d="M2.85351 25.2829c-0.0780001,0.1778 -0.2082,0.284001 -0.391201,0.1993 -0.1831,-0.0850002 -0.2685,-0.298101 -0.1905,-0.475601 0.0779001,-0.1774 0.289601,-0.2529 0.472701,-0.1679 0.1831,0.0850002 0.1869,0.2667 0.109,0.444201z"/>
   <path id="_714426608" class="fil1" d="M1.7247 25.4408c-0.510501,-0.1507 -1.6228,-0.695701 -1.7191,-0.0491001 -0.0621001,0.417401 0.408901,0.586401 0.732001,0.675301 0.451201,0.1245 0.965202,0.303301 1.44,0.377401 0.2579,0.0402001 0.723601,0.138 0.793101,-0.2353 0.0899002,-0.486101 -0.987402,-0.680501 -1.246,-0.768301z"/>
   <path id="_714426536" class="fil2" d="M2.89411 26.1591c-0.0324001,0.1774 -0.1369,0.340801 -0.327701,0.290301 -0.1916,-0.0511001 -0.320301,-0.2356 -0.287901,-0.413101 0.0325001,-0.1771 0.2138,-0.2797 0.405401,-0.2289 0.1908,0.0508001 0.2427,0.1746 0.2102,0.351701z"/>
   <path id="_714426224" class="fil14" d="M4.48501 32.8939c-0.2695,0.316501 -0.442701,0.550401 -0.444501,0.623801 0.0305001,0.1739 0.1837,0.587901 0.410601,1.1396l1.4442 0 -0.996802 -2.2308c-0.1527,0.1679 -0.292801,0.326301 -0.413501,0.467401z"/>
   <path id="_714426296" class="fil18" d="M7.67491 29.8031c-0.018,0.00850002 -0.0384001,0.0202 -0.0599001,0.0325001 -0.476601,0.283601 -1.8193,1.6062 -2.7164,2.5912l0.996702 2.2305 3.93311 0c-0.965202,-2.2275 -2.0387,-4.71931 -2.1535,-4.85421z"/>
   <path id="_714426176" class="fil19" d="M3.22531 30.0701c0.1379,0.370701 0.919302,2.0923 1.2597,2.82391 0.1849,-0.2169 0.416001,-0.473401 0.668901,-0.744301l-1.2379 -2.7146c-0.298101,0.2723 -0.547801,0.502001 -0.690701,0.635001z"/>
   <path id="_714427112" class="fil20" d="M7.61501 29.8357c-0.299201,-0.589401 -1.0587,-2.2711 -1.2982,-2.517 -0.389501,0.294901 -1.5812,1.368 -2.4007,2.1163l1.2379 2.715c0.879102,-0.940902 2.0278,-2.0567 2.461,-2.3143z"/>
   <path id="_714425696" class="fil3" d="M4.74601 31.9069c-0.0343001,0.164 -0.1951,0.2691 -0.358801,0.2349 -0.1641,-0.0342001 -0.2692,-0.1947 -0.235,-0.358801 0.0343001,-0.164 0.1948,-0.2691 0.358801,-0.2349 0.1641,0.0342001 0.2692,0.1947 0.235,0.358801z"/>
   <path id="_714425960" class="fil1" d="M49.3995 22.8043c-0.0769001,-0.610301 -0.2106,-1.8415 -0.402501,-2.5079 -0.1157,-0.402801 -0.318501,-1.12 -0.513301,-1.7572 -0.1192,-0.389101 -0.1093,-2.6324 -0.0850002,-3.08961 -1.2531,-0.859002 -1.2192,2.5143 -1.3592,3.28471 -0.0731001,0.402901 -1.2192,-0.2497 -1.2192,-0.2497l-1.0767 2.3477 -1.0012 0.844501c0.568301,0.531301 1.3681,1.3085 1.9921,1.6239 0.339801,0.1718 0.729601,0.2716 1.0513,0.478401 0.318601,0.2046 0.556001,0.719601 0.731701,1.0505l1.882 -2.0253z"/>
   <path id="_714425888" class="fil2" d="M48.3834 16.5318c-0.2558,-0.2085 -0.344301,-0.721101 -0.2413,-1.2037 0.0790001,0.0201 0.164,0.0579001 0.2565,0.1214 -0.00920002,0.1721 -0.0163,0.597901 -0.0152,1.0823z"/>
   <path id="_714425816" class="fil12" d="M44.687 8.08721c-0.012,-1.5621 0.772301,-2.89171 1.868,-3.36091 -0.1535,-0.0328001 -0.311201,-0.0505001 -0.472001,-0.0494001 -1.518,0.012 -2.7369,1.5981 -2.7221,3.54291 0.0152,1.9452 1.258,3.51231 2.7764,3.50101 0.298801,-0.0025 0.585601,-0.0667001 0.854402,-0.1817 -1.2957,-0.2762 -2.2913,-1.7127 -2.3047,-3.45191z"/>
   <path id="_714425744" class="fil13" d="M48.8596 8.17751c-0.013,-1.7388 -1.0086,-3.17501 -2.3047,-3.45121 -1.0954,0.469201 -1.8799,1.7988 -1.8679,3.36091 0.0134,1.7392 1.0089,3.17571 2.3047,3.45191 1.096,-0.469501 1.8799,-1.7991 1.8679,-3.36161z"/>
   <path id="_714425312" class="fil14" d="M45.0125 11.3571l0.293601 13.0281c0.0105,0.371801 0.2148,0.686801 0.486101,0.794101l-0.1087 -14.1475c-0.378501,0.0487001 -0.675501,0.1574 -0.671001,0.325301z"/>
   <path id="_714425576" class="fil15" d="M45.6837 11.0319l0.1087 14.1475c0.0652001,0.0257 0.1347,0.0398001 0.2063,0.0391001l0.484401 -0.00350001c0.367901,-0.0028 0.673401,-0.382801 0.679401,-0.844201l0.0942002 -13.0309c0.00360001,-0.293901 -0.910502,-0.393401 -1.573,-0.308001z"/>
   <path id="_714425504" class="fil16" d="M44.6921 7.85111l-1.2484 0.00950002c-0.1291,0.000700001 -0.2339,0.1288 -0.2329,0.283701l0.0011 0.1538c0.0014,0.1548 0.1083,0.2808 0.2374,0.2801l1.2675 -0.00990002c-0.0176,-0.1573 -0.0285001,-0.317501 -0.0299001,-0.481201 -0.000400001,-0.0790001 0.0021,-0.158 0.00520001,-0.236z"/>
   <path id="_714425432" class="fil17" d="M49.0101 8.25361l-0.001 -0.1538c-0.0011,-0.1549 -0.1083,-0.2812 -0.2375,-0.2801l-4.07951 0.0314001c-0.00320001,0.0780001 -0.00560001,0.157 -0.00490001,0.236 0.001,0.1637 0.012,0.323901 0.0300001,0.481201l4.06011 -0.0310001c0.1291,-0.0011 0.2342,-0.1288 0.2328,-0.283701z"/>
   <polygon id="_714425360" class="fil21" points="42.9674,11.0097 42.9998,15.2561 44.6544,15.2434 44.6219,10.997 "/>
   <polygon id="_714426008" class="fil22" points="49.2962,10.9612 44.6219,10.9972 44.6544,15.2436 49.3287,15.2076 "/>
   <polygon id="_714424304" class="fil23" points="44.8415,14.233 44.8253,12.1178 45.1156,12.1157 45.1294,13.8714 45.8519,13.8661 45.8543,14.2253 "/>
   <polygon id="_714424184" class="fil23" points="46.0526,14.2237 46.0364,12.0911 46.3267,12.089 46.3433,14.2216 "/>
   <polygon id="_714424088" class="fil23" points="46.9872,14.2166 46.4566,12.088 46.7713,12.0855 47.1477,13.661 47.4881,12.0802 47.7961,12.0777 47.2973,14.2142 "/>
   <polygon id="_714424928" class="fil23" points="47.9608,14.2092 47.9446,12.0767 49.011,12.0686 49.0139,12.4291 48.2377,12.4351 48.2413,12.9078 48.9634,12.9025 48.9666,13.2617 48.2441,13.2673 48.2483,13.8476 49.0527,13.8413 49.0551,14.2007 "/>
   <path id="_714425168" class="fil1" d="M46.2485 18.1016c-0.466801,-0.289601 -2.3196,-1.7102 -2.6088,-1.0206 -0.2583,0.614601 0.443401,0.920102 0.739701,1.0968 0.414601,0.247 1.0132,0.606401 1.4605,0.804701 0.2435,0.1076 0.616301,0.292101 0.823801,-0.0550001 0.1725,-0.288601 -0.1813,-0.666801 -0.415201,-0.825901z"/>
   <path id="_714425000" class="fil2" d="M46.5498 18.8876c-0.1037,0.1609 -0.2304,0.2643 -0.397201,0.1457 -0.1669,-0.1185 -0.2187,-0.345001 -0.115,-0.506201 0.1033,-0.1609 0.322801,-0.1951 0.490001,-0.0762001 0.1668,0.1185 0.1256,0.2759 0.0222,0.436701z"/>
   <path id="_714425072" class="fil1" d="M45.7485 18.9669c-0.506501,-0.1866 -2.7008,-1.1169 -2.88321,-0.427601 -0.1736,0.654801 0.783501,0.864702 1.1042,0.975802 0.448001,0.1556 1.0562,0.303101 1.5286,0.403601 0.2568,0.0550001 0.653701,0.1581 0.798001,-0.2275 0.1199,-0.319601 -0.291401,-0.617401 -0.547601,-0.724301z"/>
   <path id="_714414656" class="fil2" d="M46.1627 19.6827c-0.0667001,0.181 -0.1701,0.313701 -0.357701,0.2367 -0.1877,-0.0769001 -0.286201,-0.285701 -0.2191,-0.466701 0.0667001,-0.1813 0.273,-0.2656 0.461101,-0.1891 0.1876,0.0773001 0.1827,0.2382 0.1157,0.419101z"/>
   <path id="_714425240" class="fil1" d="M44.784 19.8334c-0.525001,-0.103 -1.6948,-0.564501 -1.7128,0.1555 -0.0116,0.464301 0.476301,0.591701 0.807501,0.650201 0.463201,0.0815001 0.994902,0.2142 1.4754,0.2378 0.261,0.0127 0.735201,0.0631001 0.759101,-0.353801 0.0311001,-0.543701 -1.0618,-0.625501 -1.3292,-0.689701z"/>
   <path id="_714422840" class="fil2" d="M45.9815 20.5529c-0.0328001,0.1916 -0.1337,0.326001 -0.331601,0.287201 -0.1986,-0.0381001 -0.332301,-0.2244 -0.299201,-0.415901 0.0329001,-0.1909 0.2205,-0.314701 0.419101,-0.2759 0.1976,0.0384001 0.2449,0.2138 0.2117,0.404601z"/>
   <path id="_714423128" class="fil1" d="M44.9154 20.9174c-0.532001,-0.024 -1.7421,-0.286401 -1.6807,0.364401 0.0395001,0.420201 0.537301,0.471401 0.872102,0.480501 0.468101,0.0124 1.0103,0.0628001 1.4891,0.0208 0.26,-0.0229 0.735501,-0.0391001 0.713301,-0.418401 -0.0293001,-0.493101 -1.1219,-0.424301 -1.3938,-0.447301z"/>
   <path id="_714417200" class="fil2" d="M46.2228 21.3346c0.011,0.1799 -0.0508001,0.363401 -0.2487,0.360201 -0.1979,-0.00350001 -0.367201,-0.152 -0.378201,-0.332001 -0.0109,-0.1799 0.1404,-0.322801 0.338701,-0.319201 0.1976,0.00350001 0.2773,0.1115 0.288201,0.291001z"/>
   <path id="_714426056" class="fil14" d="M48.1608 28.4191c-0.2375,0.340801 -0.387001,0.590601 -0.381701,0.664001 0.1229,0.441501 1.5829,3.11021 2.97621,5.57421l1.5167 0 -3.74511 -6.74371c-0.1358,0.182 -0.2599,0.353101 -0.366101,0.505501z"/>
   <path id="_714399872" class="fil18" d="M51.0346 25.0322c-0.0173,0.0103 -0.0363001,0.0233 -0.0564001,0.0385001 -0.447301,0.328401 -1.6545,1.7752 -2.4515,2.84301l3.74541 6.74351 4.06691 0c-1.3686,-2.4457 -5.11361,-9.44072 -5.30441,-9.62502z"/>
   <path id="_714427136" class="fil24" d="M46.632 25.7312c0.1736,0.355601 1.1187,1.9928 1.5286,2.6878 0.163,-0.2339 0.368001,-0.511501 0.593701,-0.805701l-1.4968 -2.5817c-0.2702,0.300201 -0.496001,0.553201 -0.625501,0.699601z"/>
   <path id="_714396320" class="fil25" d="M50.9783 25.0706c-0.355301,-0.557701 -1.275,-2.1576 -1.5374,-2.3791 -0.358801,0.331601 -1.4404,1.5155 -2.1834,2.3403l1.4968 2.5816c0.783201,-1.022 1.8176,-2.2443 2.224,-2.5428z"/>
   <path id="_714424880" class="fil3" d="M48.3242 27.411c-0.0179,0.1668 -0.1675,0.286801 -0.334001,0.2688 -0.1665,-0.018 -0.287201,-0.1676 -0.2689,-0.334101 0.018,-0.1669 0.1676,-0.286801 0.334101,-0.2688 0.1665,0.018 0.286801,0.1679 0.2688,0.334101z"/>
   <path id="_714396536" class="fil1" d="M37.0795 20.7857c-0.1422,-0.598701 -0.787401,-2.5375 -1.0499,-3.17921 -0.1591,-0.388101 -0.437401,-1.0792 -0.700201,-1.6916 -0.0798001,-0.1859 -0.728901,-1.5071 -1.3318,-1.9152 -0.555301,-0.376101 -1.3222,-0.855502 -1.7889,-0.710201 -0.530201,0.709501 0.450501,0.798701 1.0693,1.6239 0.1749,0.2335 0.660401,1.0258 0.637101,1.3514 -0.0293001,0.408601 -1.2397,-0.1164 -1.2397,-0.1164l-1.2834 3.70381c0.622301,0.466801 1.0636,0.847102 1.7184,1.0933 0.356301,0.1344 0.754601,0.1912 1.0964,0.362001 0.339001,0.1689 0.679101,0.830401 0.889402,1.1408l1.9833 -1.6626z"/>
   <path id="_714401168" class="fil26" d="M35.3507 25.9656c-0.272,0.314001 -0.447301,0.546501 -0.449801,0.619901 0.0808001,0.485401 1.9461,4.56761 3.59351,8.07171l1.4705 0 -4.19651 -9.15512c-0.1545,0.1661 -0.296001,0.323501 -0.417701,0.463501z"/>
   <path id="_714404984" class="fil27" d="M38.5669 22.9023c-0.018,0.00810001 -0.0384001,0.0197 -0.0603001,0.0321001 -0.479101,0.2797 -1.833,1.5903 -2.7382,2.5675l4.19661 9.15532 3.94831 0c-1.7155,-3.77031 -5.19061,-11.5685 -5.34641,-11.7549z"/>
   <path id="_714401288" class="fil12" d="M34.1152 23.1311c0.1348,0.372101 0.901402,2.1001 1.2355,2.83451 0.1869,-0.2152 0.419801,-0.469501 0.675501,-0.738301l-1.2149 -2.7252c-0.300601,0.2695 -0.551801,0.497401 -0.696101,0.629001z"/>
   <path id="_714403256" class="fil13" d="M38.5068 22.9344c-0.294201,-0.591901 -1.0393,-2.2803 -1.2764,-2.5283 -0.392201,0.291701 -1.5931,1.3546 -2.4193,2.0958l1.215 2.7256c0.887202,-0.933102 2.0454,-2.0391 2.4807,-2.2931z"/>
   <path id="_714399152" class="fil28" d="M35.6202 24.9809c-0.0357001,0.1636 -0.1973,0.2674 -0.360901,0.2321 -0.1637,-0.0360001 -0.2674,-0.1976 -0.2318,-0.361301 0.0353001,-0.1633 0.1968,-0.2674 0.360501,-0.2317 0.1641,0.0356001 0.2678,0.1972 0.2322,0.360901z"/>
   <path id="_714402464" class="fil3" d="M33.0473 14.1024c0.0515001,0 0.0935002,0.0419001 0.0935002,0.0931002l0 0.420101c0,0.0516001 -0.0420001,0.0932002 -0.0935002,0.0932002l-0.863302 0c-0.0515001,0 -0.0931002,-0.0416001 -0.0931002,-0.0932002l0 -0.420101c0,-0.0512001 0.0416001,-0.0931002 0.0931002,-0.0931002l0.863302 0z"/>
   <path id="_714415136" class="fil29" d="M31.4607 19.632c0,0.2569 0.2102,0.466801 0.466701,0.466801l7.58301 0c0.2564,0 0.466701,-0.2099 0.466701,-0.466801l0 -0.357701 -8.51642 0 0 0.357701z"/>
   <polygon id="_714404912" class="fil30" points="31.4608,19.2743 39.9772,19.2743 39.9772,16.1519 31.4608,16.1519 "/>
   <path id="_714409016" class="fil31" d="M39.977 14.9809c0,-0.2564 -0.2099,-0.466701 -0.466801,-0.466701l-7.58291 0c-0.2565,0 -0.466801,0.2103 -0.466801,0.466701l0 1.1709 8.51652 0 0 -1.1709z"/>
   <path id="_714408656" class="fil32" d="M39.5736 17.7964c-0.1033,-1.2404 -1.1409,-2.2151 -2.408,-2.2151 -1.3357,0 -2.4183,1.0823 -2.4183,2.4176 0,0.643501 0.2529,1.2266 0.662501,1.6602 0.441001,0.466001 1.0636,0.758401 1.7558,0.758401 1.3356,0 2.4183,-1.0826 2.4183,-2.4186 0,-0.0684001 -0.00460001,-0.1355 -0.0103,-0.2025z"/>
   <path id="_714411104" class="fil3" d="M39.1723 17.8301c-0.0861002,-1.0336 -0.950802,-1.8457 -2.0066,-1.8457 -1.113,0 -2.0154,0.902002 -2.0154,2.0147 0,0.535901 0.2109,1.022 0.552001,1.3832 1.0369,-0.0331001 2.3481,-0.369701 3.47001,-1.5522z"/>
   <path id="_714409376" class="fil33" d="M35.7025 19.3823c0.367301,0.388401 0.886202,0.632201 1.463,0.632201 1.113,0 2.0154,-0.902402 2.0154,-2.0154 0,-0.0572001 -0.00390001,-0.1133 -0.00850002,-0.169 -1.1221,1.1825 -2.4331,1.519 -3.46991,1.5522z"/>
   <polygon id="_714413168" class="fil34" points="39.7808,14.8976 40.1332,17.3247 38.9726,15.4408 38.11,15.9033 38.2007,14.9035 35.4384,15.892 37.1244,14.5945 36.3423,14.2516 37.4722,13.715 36.7772,12.0704 38.2906,12.9774 38.63,12.0683 39.2121,13.0737 40.3854,12.6373 39.9441,13.8138 42.0819,14.149 "/>
   <path id="_714418352" class="fil1" d="M33.2851 16.2743c-0.455701,-0.306601 -2.2553,-1.7939 -2.5699,-1.1151 -0.2801,0.604601 0.409501,0.935902 0.699501,1.1232 0.405401,0.2614 0.990302,0.642801 1.4302,0.856902 0.2395,0.1168 0.605301,0.314701 0.825101,-0.025 0.1831,-0.281901 -0.157,-0.673101 -0.384901,-0.840001z"/>
   <path id="_714415904" class="fil2" d="M33.5577 17.0707c-0.1094,0.1566 -0.2396,0.2557 -0.402201,0.1308 -0.1626,-0.1245 -0.2057,-0.352701 -0.0963002,-0.509701 0.109,-0.157 0.329501,-0.1831 0.492101,-0.0582001 0.1627,0.1245 0.1154,0.2801 0.00640001,0.437101z"/>
   <path id="_714417992" class="fil1" d="M32.7541 17.1206c-0.499501,-0.205 -2.6582,-1.2146 -2.86561,-0.532001 -0.1972,0.647701 0.751401,0.892202 1.0679,1.0149 0.442001,0.1718 1.0442,0.341501 1.5127,0.459401 0.2547,0.0638001 0.647301,0.1813 0.805701,-0.1983 0.132,-0.315001 -0.2685,-0.628001 -0.520701,-0.744001z"/>
   <path id="_714417632" class="fil2" d="M33.1421 17.8511c-0.0734001,0.1785 -0.1814,0.307201 -0.366201,0.2236 -0.1849,-0.0836001 -0.2755,-0.296301 -0.2018,-0.474401 0.0730001,-0.1789 0.282601,-0.2558 0.467401,-0.1722 0.1849,0.0840001 0.1739,0.2445 0.1006,0.423001z"/>
   <path id="_714418808" class="fil1" d="M31.7527 17.8914c-0.521101,-0.122 -1.6732,-0.625801 -1.7173,0.0932002 -0.0286001,0.463501 0.454301,0.608501 0.783501,0.679101 0.460001,0.0980002 0.986702,0.2504 1.4654,0.291701 0.2604,0.0219 0.732401,0.0896002 0.771501,-0.326301 0.0508001,-0.541901 -1.0382,-0.663201 -1.3031,-0.737701z"/>
   <path id="_714420584" class="fil2" d="M32.9233 18.6545c-0.0402001,0.1902 -0.1457,0.320701 -0.342201,0.2748 -0.1968,-0.0455001 -0.323801,-0.2367 -0.283601,-0.426501 0.0398001,-0.1898 0.2318,-0.306901 0.428601,-0.2607 0.1965,0.0455001 0.2371,0.223 0.1972,0.412401z"/>
   <path id="_714421256" class="fil1" d="M31.8505 19.0396c-0.530501,-0.0434001 -1.7307,-0.349601 -1.6929,0.303101 0.0243,0.421201 0.520001,0.490301 0.854402,0.511501 0.467401,0.0296001 1.0072,0.0998002 1.4869,0.0755001 0.2608,-0.0134 0.736601,-0.0127 0.728201,-0.392701 -0.0113,-0.493901 -1.1056,-0.464201 -1.3766,-0.497401z"/>
   <path id="_714422648" class="fil2" d="M33.1421 19.504c0.00420001,0.1803 -0.0642001,0.361601 -0.2618,0.351001 -0.1976,-0.0109 -0.361601,-0.1655 -0.365801,-0.345701 -0.00460001,-0.1799 0.152,-0.317201 0.349901,-0.306901 0.1972,0.0109 0.2731,0.1217 0.2777,0.301601z"/>
   <path id="_714423512" class="fil1" d="M26.7837 20.8732c-0.1422,-0.598701 -0.408201,-1.8084 -0.671001,-2.4501 -0.1584,-0.388001 -0.437501,-1.0791 -0.699901,-1.6915 -0.1602,-0.374001 -0.392701,-2.6053 -0.418101,-3.06251 -1.3384,-0.719001 -0.940802,2.6314 -0.996602,3.41241 -0.0289001,0.408501 -1.2393,-0.1167 -1.2393,-0.1167l-1.2834 3.70411c0.622301,0.466801 1.0637,0.846702 1.7181,1.0933 0.356601,0.134 0.754501,0.1912 1.0967,0.361901 0.339101,0.169 0.630501,0.655501 0.840701,0.965602l1.6528 -2.2165z"/>
   <path id="_714423392" class="fil2" d="M25.0967 14.747c-0.2773,-0.18 -0.420501,-0.679901 -0.370001,-1.1709 0.0807001,0.0116 0.1693,0.0398001 0.2681,0.0931002 0.00950002,0.1722 0.0487001,0.596201 0.1019,1.0778z"/>
   <path id="_714418952" class="fil14" d="M21.6976 12.2202l0.1937 13.0299c0.00740001,0.371801 0.2095,0.688601 0.479801,0.797901l0 -14.1481c-0.379301,0.0459001 -0.677001,0.1527 -0.673501,0.320301z"/>
   <path id="_714419816" class="fil15" d="M22.3712 11.9001l0 14.1481c0.0652001,0.0265 0.1344,0.0409001 0.206,0.0409001l0.484701 0c0.367601,0 0.676301,-0.377401 0.685801,-0.838901l0.194 -13.0298c0.00570001,-0.293501 -0.907302,-0.400401 -1.5705,-0.320301z"/>
   <path id="_714418448" class="fil35" d="M24.1453 0l-2.3883 0 0 12.7166 2.3883 0c0.538301,0 0.978602,-0.421601 0.978602,-0.936302l0 -10.844c0,-0.515101 -0.440301,-0.936302 -0.978602,-0.936302z"/>
   <path id="_714414416" class="fil36" d="M21.4939 0c-0.538301,0 -0.978202,0.421201 -0.978202,0.936302l0 10.844c0,0.514701 0.439901,0.936302 0.978202,0.936302l0.2632 0 0 -12.7166 -0.2632 0z"/>
   <polygon id="_714414632" class="fil26" points="20.5302,15.5984 21.7272,15.5984 21.7272,12.6933 20.5302,12.6933 "/>
   <polygon id="_714411776" class="fil27" points="25.1093,12.6936 21.7272,12.6936 21.7272,15.5987 25.1093,15.5987 "/>
   <polygon id="_714406808" class="fil23" points="22.3322,15.0304 22.3322,13.6426 21.8366,13.6426 21.8366,13.3604 23.1641,13.3604 23.1641,13.6426 22.6695,13.6426 22.6695,15.0304 "/>
   <polygon id="_714407672" class="fil23" points="23.8076,15.0304 23.2107,13.3604 23.5762,13.3604 23.9992,14.5965 24.408,13.3604 24.7657,13.3604 24.1678,15.0304 "/>
   <path id="_714404144" class="fil1" d="M23.3685 17.0908c-0.455801,-0.306201 -2.2553,-1.7938 -2.5699,-1.1151 -0.2802,0.604701 0.409501,0.936302 0.699501,1.1233 0.405401,0.2614 0.990302,0.642701 1.4302,0.857202 0.2395,0.1164 0.605301,0.314301 0.825101,-0.025 0.1831,-0.281901 -0.157,-0.673101 -0.384901,-0.840401z"/>
   <path id="_714402704" class="fil2" d="M23.6411 17.8872c-0.1094,0.157 -0.2396,0.2558 -0.402201,0.1312 -0.1626,-0.1248 -0.2057,-0.353101 -0.0963002,-0.510101 0.109,-0.157 0.329501,-0.1831 0.492101,-0.0585001 0.1626,0.1248 0.1157,0.2804 0.00640001,0.437401z"/>
   <path id="_714399320" class="fil1" d="M22.8375 17.9372c-0.499501,-0.2049 -2.6582,-1.2146 -2.86561,-0.532001 -0.1972,0.647701 0.751401,0.892202 1.0678,1.015 0.442401,0.1714 1.0443,0.341501 1.5128,0.458901 0.2547,0.0642001 0.647701,0.1817 0.806101,-0.1979 0.1315,-0.315001 -0.2689,-0.627901 -0.521101,-0.744001z"/>
   <path id="_714398240" class="fil2" d="M23.2254 18.6678c-0.0734001,0.1785 -0.1813,0.307201 -0.366201,0.2236 -0.1848,-0.0836001 -0.2755,-0.296301 -0.2018,-0.474501 0.0731001,-0.1788 0.282601,-0.2557 0.467501,-0.1721 0.1848,0.0839001 0.1739,0.2445 0.1005,0.423001z"/>
   <path id="_714396800" class="fil1" d="M21.836 18.7081c-0.521001,-0.1221 -1.6728,-0.625801 -1.7173,0.0931002 -0.0282001,0.463601 0.454401,0.608601 0.783901,0.679101 0.459701,0.0981002 0.986402,0.2505 1.4654,0.291401 0.26,0.0222 0.732001,0.0900002 0.771501,-0.326301 0.0508001,-0.541501 -1.0385,-0.662901 -1.3035,-0.737301z"/>
   <path id="_714396008" class="fil2" d="M23.0067 19.4712c-0.0399001,0.1901 -0.1457,0.320701 -0.342201,0.2748 -0.1969,-0.0459001 -0.323901,-0.2367 -0.283701,-0.426501 0.0402001,-0.1898 0.2322,-0.306901 0.428701,-0.2607 0.1965,0.0455001 0.237,0.2229 0.1972,0.412401z"/>
   <path id="_714417584" class="fil1" d="M21.934 19.8563c-0.530501,-0.0434001 -1.7307,-0.349601 -1.6929,0.303001 0.0243,0.421201 0.519601,0.490401 0.854402,0.511501 0.467401,0.0297001 1.0072,0.0999002 1.4869,0.0755001 0.2607,-0.0134 0.736601,-0.0127 0.728201,-0.392601 -0.0113,-0.494301 -1.1056,-0.464601 -1.3766,-0.497401z"/>
   <path id="_714405320" class="fil2" d="M23.2254 20.3206c0.00460001,0.1803 -0.0642001,0.361601 -0.2617,0.351001 -0.1976,-0.0109 -0.361301,-0.1654 -0.365901,-0.345701 -0.00420001,-0.1799 0.1521,-0.317101 0.350001,-0.306901 0.1972,0.0109 0.273,0.1214 0.2776,0.301601z"/>
   <path id="_706697448" class="fil14" d="M24.4601 24.2175c0.1955,0.490601 3.64531,6.07981 6.38861,10.4397l1.4525 0 -7.31621 -11.4895c-0.1154,0.1954 -0.538001,0.977502 -0.524901,1.0498z"/>
   <path id="_706698048" class="fil18" d="M26.91 20.5426c-0.0158,0.012 -0.0377001,0.0236 -0.0518001,0.0441001 -0.327401,0.480801 -1.1963,1.4336 -1.8733,2.5809l7.31631 11.4896 4.09671 0c-2.4978,-3.68461 -9.28062,-13.9538 -9.48792,-14.1146z"/>
  </g>
 </g>
</svg>
