<?xml version="1.0" encoding="UTF-8"?>
<!DOCTYPE svg PUBLIC "-//W3C//DTD SVG 1.1//EN" "http://www.w3.org/Graphics/SVG/1.1/DTD/svg11.dtd">
<!-- Creator: CorelDRAW X5 -->
<svg xmlns="http://www.w3.org/2000/svg" xml:space="preserve" width="23.4601mm" height="30.4472mm" style="shape-rendering:geometricPrecision; text-rendering:geometricPrecision; image-rendering:optimizeQuality; fill-rule:evenodd; clip-rule:evenodd"
viewBox="0 0 23.6379 30.678"
 xmlns:xlink="http://www.w3.org/1999/xlink">
 <defs>
  <style type="text/css">
   <![CDATA[
    .str1 {stroke:#96918A;stroke-width:0.192649}
    .str0 {stroke:#969696;stroke-width:0.192649}
    .str2 {stroke:#96918A;stroke-width:0.225698}
    .fil1 {fill:none;fill-rule:nonzero}
    .fil4 {fill:#009FDB;fill-rule:nonzero}
    .fil2 {fill:#00AEEF;fill-rule:nonzero}
    .fil3 {fill:#2C4954;fill-rule:nonzero}
    .fil22 {fill:#494949;fill-rule:nonzero}
    .fil9 {fill:#82181B;fill-rule:nonzero}
    .fil11 {fill:#991D1F;fill-rule:nonzero}
    .fil10 {fill:#AD2024;fill-rule:nonzero}
    .fil8 {fill:#B52126;fill-rule:nonzero}
    .fil21 {fill:#B5B5BF;fill-rule:nonzero}
    .fil13 {fill:#BD351C;fill-rule:nonzero}
    .fil15 {fill:#BFBFC9;fill-rule:nonzero}
    .fil20 {fill:#C6C6D1;fill-rule:nonzero}
    .fil14 {fill:#D13B1F;fill-rule:nonzero}
    .fil12 {fill:#D4AC8A;fill-rule:nonzero}
    .fil18 {fill:#D9D2C5;fill-rule:nonzero}
    .fil0 {fill:#D9D9E6;fill-rule:nonzero}
    .fil7 {fill:#DBA707;fill-rule:nonzero}
    .fil16 {fill:#DED7CA;fill-rule:nonzero}
    .fil17 {fill:#EDE6D8;fill-rule:nonzero}
    .fil5 {fill:#EEC19C;fill-rule:nonzero}
    .fil19 {fill:#F5C7A0;fill-rule:nonzero}
    .fil6 {fill:#FFC208;fill-rule:nonzero}
   ]]>
  </style>
 </defs>
 <g id="Layer_x0020_1">
  <metadata id="CorelCorpID_0Corel-Layer"/>
  <path class="fil0" d="M23.5416 26.8134c0,0.298143 -0.243834,0.542381 -0.542481,0.542381l-22.3603 0c-0.298244,0 -0.542481,-0.244237 -0.542481,-0.542381l0 -15.6535c0,-0.298143 0.244237,-0.541978 0.542481,-0.541978l22.3603 0c0.298647,0 0.542481,0.243834 0.542481,0.541978l0 15.6535z"/>
  <path class="fil1 str0" d="M23.5416 26.8134c0,0.298143 -0.243834,0.542381 -0.542481,0.542381l-22.3603 0c-0.298244,0 -0.542481,-0.244237 -0.542481,-0.542381l0 -15.6535c0,-0.298143 0.244237,-0.541978 0.542481,-0.541978l22.3603 0c0.298647,0 0.542481,0.243834 0.542481,0.541978l0 15.6535z"/>
  <path class="fil2" d="M0.963751 25.2186c-0.119801,0 -0.216831,-0.0967277 -0.216831,-0.216428l0 -13.5659c0,-0.119398 0.09703,-0.216529 0.216831,-0.216529l21.7103 0c0.119701,0 0.216831,0.0971308 0.216831,0.216529l0 13.5659c0,0.119701 -0.0971308,0.216428 -0.216831,0.216428l-21.7103 0z"/>
  <path class="fil3" d="M22.6742 11.003l-21.7103 0c-0.239502,0 -0.433663,0.19406 -0.433663,0.43326l0 13.5659c0,0.2392 0.194161,0.43326 0.433663,0.43326l21.7103 0c0.2392,0 0.43326,-0.19406 0.43326,-0.43326l0 -13.5659c0,-0.2392 -0.19406,-0.43326 -0.43326,-0.43326zm0 13.9991l-21.7103 0 0 -13.5655 21.7103 0 0 13.5655zm0 -13.5659l0 13.5659z"/>
  <polygon class="fil4" points="22.6742,25.002 11.5575,25.002 15.6416,11.4365 22.6742,11.4365 "/>
  <path class="fil5" d="M11.6801 17.5653l-2.17718 4.00987 -2.17144 -0.868736c0,0 0.368271,-1.24587 0.478802,-2.22796 0.109121,-0.967882 -0.275472,-1.84407 -0.275472,-1.84407l1.5018 -0.9039 2.64349 1.8348z"/>
  <polygon class="fil6" points="5.34451,23.7413 8.14981,25.002 8.39153,25.002 10.4872,20.3392 7.48078,18.9879 "/>
  <polygon class="fil7" points="7.19695,24.5739 8.14971,25.002 8.39184,25.002 10.4874,20.339 9.33322,19.8207 "/>
  <polygon class="fil8" points="8.93573,25.002 10.4589,21.6131 6.79391,19.966 4.53079,25.002 "/>
  <polygon class="fil9" points="8.93583,25.002 10.4589,21.6131 8.58529,20.7714 6.68389,25.002 "/>
  <polygon class="fil10" points="9.72889,22.4449 9.42823,22.3101 9.48405,22.1868 9.78401,22.3215 "/>
  <path class="fil11" d="M9.14551 22.1087c0.0473563,-0.105191 0.170684,-0.152044 0.276178,-0.104788 0.105292,0.0468525 0.152145,0.170986 0.104889,0.275775 -0.0472555,0.105594 -0.170986,0.152548 -0.276178,0.105191 -0.105594,-0.0475578 -0.152447,-0.170886 -0.104889,-0.276178z"/>
  <polygon class="fil10" points="9.51106,22.9286 9.2111,22.7938 9.26682,22.6705 9.56688,22.8052 "/>
  <path class="fil11" d="M8.92817 22.5925c0.0472555,-0.105594 0.170583,-0.152145 0.275876,-0.105191 0.105494,0.0479608 0.152145,0.171289 0.104788,0.276883 -0.0472555,0.104889 -0.170583,0.151742 -0.275775,0.104486 -0.105594,-0.0472555 -0.152145,-0.170986 -0.104889,-0.276178z"/>
  <polygon class="fil10" points="9.29402,23.4125 8.99336,23.2778 9.04878,23.1541 9.34914,23.2891 "/>
  <path class="fil11" d="M8.71053 23.0761c0.0476586,-0.105191 0.170583,-0.152145 0.276178,-0.104486 0.105191,0.0465502 0.152145,0.170281 0.105191,0.275876 -0.0475578,0.105191 -0.170986,0.152145 -0.27648,0.104486 -0.105191,-0.0465502 -0.152145,-0.170281 -0.104889,-0.275876z"/>
  <polygon class="fil10" points="9.07659,23.8962 8.77653,23.7615 8.83195,23.6377 9.132,23.7733 "/>
  <path class="fil11" d="M8.4933 23.5601c0.0472555,-0.105494 0.170583,-0.152447 0.276178,-0.105191 0.105191,0.0472555 0.152145,0.171289 0.104486,0.276178 -0.0469532,0.105594 -0.170583,0.152548 -0.275775,0.105191 -0.105292,-0.0472555 -0.152548,-0.170886 -0.104889,-0.276178z"/>
  <path class="fil12" d="M11.6265 14.8912c0.99025,0.76032 0.963247,1.46089 0.776643,1.72004 -0.84274,1.16869 -3.14859,0.892918 -3.87798,0.309932 -0.729387,-0.583288 0.811808,-2.6445 1.01121,-2.89438 0.199501,-0.249175 1.34895,0.295725 2.09012,0.864403z"/>
  <path class="fil13" d="M5.16466 12.0162c-1.06713,0.794376 -1.53878,1.967 -1.05322,2.6189 0.485553,0.651905 1.74422,0.536033 2.81095,-0.258747 1.06733,-0.794779 2.21799,-2.4729 1.73243,-3.12511 -0.485553,-0.651502 -2.42313,-0.0302274 -3.49016,0.764955z"/>
  <path class="fil14" d="M11.8955 18.1815c-0.200105,0 -0.401319,-0.0675079 -0.566562,-0.206856l-4.92022 -4.13783c-0.372099,-0.313156 -0.420161,-0.868736 -0.107307,-1.24084 0.313156,-0.3722 0.868736,-0.420161 1.24084,-0.107005l4.92052 4.13813c0.3722,0.312854 0.420161,0.868333 0.107005,1.24053 -0.17411,0.207259 -0.423285,0.313861 -0.674273,0.313861z"/>
  <path class="fil15" d="M14.0064 5.43086c-0.98894,0.736138 -1.39691,1.86181 -0.911457,2.51341 0.485553,0.652207 1.68064,0.583288 2.66948,-0.15285 0.988839,-0.736541 2.02604,-2.33074 1.54019,-2.98264 -0.48515,-0.651502 -2.30937,-0.114461 -3.29821,0.62208z"/>
  <path class="fil16" d="M13.7158 5.64709c-0.988839,0.736138 -1.39651,1.86181 -0.911357,2.51341 0.485956,0.651804 1.68064,0.583288 2.66948,-0.15285 0.988839,-0.736541 2.02645,-2.33043 1.54049,-2.98264 -0.485553,-0.651905 -2.30968,-0.114461 -3.29862,0.62208z"/>
  <path class="fil17" d="M16.5334 5.3306l-2.98758 -4.01128c0,0 -1.85445,5.47217 -6.04518,8.59335 -0.382478,0.284742 -1.53021,1.13957 -1.53021,1.13957l1.02763 1.38028 9.53534 -7.10193z"/>
  <path class="fil18" d="M16.5334 5.3306l2.98788 4.01158c0,0 -5.77434,0.209073 -9.96507,3.33025 -0.382478,0.285045 -1.53021,1.13998 -1.53021,1.13998l-1.02793 -1.37988 9.53534 -7.10193z"/>
  <polygon class="fil14" points="16.6575,5.23821 13.511,1.01332 13.0643,1.34603 16.2108,5.57091 "/>
  <polygon class="fil14" points="7.84139,11.8449 6.73094,10.3538 3.72241,12.5938 4.83316,14.085 "/>
  <polygon class="fil13" points="16.6575,5.23821 19.8043,9.4635 19.3575,9.7958 16.2108,5.57091 "/>
  <polygon class="fil13" points="7.82195,11.8187 8.91316,13.2842 5.90533,15.5243 4.81372,14.0592 "/>
  <path class="fil5" d="M7.75867 14.064c0,0 0.00493714,0.0277085 0.0146099,0.0792966 0.00775837,0.0515881 0.0163228,0.12756 0.0116879,0.227512 -0.00251895,0.202624 -0.0927982,0.496233 -0.274767,0.940173 -0.304592,0.743191 -0.32696,1.47258 0.00926974,2.20489 0.177334,0.387717 0.321317,0.847677 0.54631,1.1961 0.286153,0.442529 0.851305,0.207864 1.04365,-0.190936 0.19406,-0.403435 0.538854,-0.737952 0.409481,-1.17121 -0.170986,-0.572608 -0.824302,-0.88254 -0.999621,-1.45525 -0.125746,-0.409078 0.000403032,-0.916697 0.00826216,-0.952264 0.0550139,-0.260157 0.00846368,-0.567268 -0.156477,-0.730395 -0.16343,-0.16887 -0.39346,-0.201516 -0.612407,-0.147913z"/>
  <path class="fil19" d="M9.41987 15.2294c-0.0429229,0 -0.0863496,-0.00675079 -0.129373,-0.0209577 -0.215723,-0.0714375 -0.332703,-0.303886 -0.261568,-0.520012l0.284339 -0.860574c0.0714375,-0.215723 0.303886,-0.332703 0.520012,-0.261568 0.215824,0.0714375 0.333106,0.304189 0.261669,0.520012l-0.28444 0.860574c-0.0572306,0.173102 -0.217839,0.282526 -0.390639,0.282526z"/>
  <path class="fil19" d="M10.0987 15.7628c-0.0603541,0 -0.121514,-0.0135016 -0.17945,-0.0416131 -0.204438,-0.0991459 -0.289679,-0.345499 -0.19013,-0.549837l0.533816 -1.09877c0.0992467,-0.204337 0.345499,-0.289679 0.549937,-0.19013 0.204337,0.0991459 0.289679,0.345499 0.19013,0.549837l-0.533917 1.09877c-0.0710344,0.146401 -0.217537,0.231744 -0.370387,0.231744z"/>
  <path class="fil19" d="M10.7638 16.2761c-0.0910853,0 -0.182775,-0.0302274 -0.25915,-0.0920929 -0.17673,-0.143278 -0.20333,-0.402327 -0.0600518,-0.578653l0.748532 -0.92244c0.14358,-0.176629 0.40273,-0.20333 0.579056,-0.0600518 0.176327,0.142875 0.20333,0.402327 0.0600518,0.578653l-0.748935 0.92244c-0.0814125,0.100254 -0.199803,0.152145 -0.319504,0.152145z"/>
  <path class="fil19" d="M11.409 16.8038c-0.104788,0 -0.209677,-0.0397994 -0.289982,-0.119398 -0.161112,-0.160306 -0.16212,-0.420866 -0.00181364,-0.581878l0.609586 -0.614221c0.160004,-0.161011 0.420866,-0.162422 0.581575,-0.00211592 0.161314,0.159903 0.162422,0.420766 0.00241819,0.581878l-0.609586 0.614221c-0.0807072,0.0810095 -0.186201,0.121514 -0.292198,0.121514z"/>
  <path class="fil20" d="M14.256 30.0776c0.0043326,0.0888686 -0.0649889,0.161414 -0.153858,0.161414l-4.56615 0c-0.0888686,0 -0.15819,-0.0725458 -0.154261,-0.161414l0.173102 -3.68926c0.00423184,-0.0888686 0.0803042,-0.161314 0.169173,-0.161314l4.19012 0c0.0887678,0 0.16484,0.072445 0.169173,0.161314l0.172699 3.68926z"/>
  <path class="fil1 str1" d="M14.256 30.0776c0.0043326,0.0888686 -0.0649889,0.161414 -0.153858,0.161414l-4.56615 0c-0.0888686,0 -0.15819,-0.0725458 -0.154261,-0.161414l0.173102 -3.68926c0.00423184,-0.0888686 0.0803042,-0.161314 0.169173,-0.161314l4.19012 0c0.0887678,0 0.16484,0.072445 0.169173,0.161314l0.172699 3.68926z"/>
  <path class="fil21" d="M11.8066 29.9083c-0.0401017,0.0690193 -0.13824,0.125141 -0.218242,0.125141l-1.82846 0c-0.0795989,0 -0.141767,-0.0649889 -0.13824,-0.144689l0.155369 -3.31172c0.00392956,-0.0795989 0.0721428,-0.144689 0.151742,-0.144689l3.7611 0c0.0795989,0 0.111942,0.056223 0.0717397,0.125141l-1.95501 3.35081z"/>
  <path class="fil0" d="M15.4548 30.4856c0,0.043729 -0.0358699,0.0795989 -0.0791958,0.0795989l-7.11301 0c-0.043729,0 -0.0791958,-0.0358699 -0.0791958,-0.0795989l0 -0.493412c0,-0.043729 0.0354668,-0.0791958 0.0791958,-0.0791958l7.11301 0c0.043326,0 0.0791958,0.0354668 0.0791958,0.0791958l0 0.493412z"/>
  <path class="fil1 str2" d="M15.4548 30.4856c0,0.043729 -0.0358699,0.0795989 -0.0791958,0.0795989l-7.11301 0c-0.043729,0 -0.0791958,-0.0358699 -0.0791958,-0.0795989l0 -0.493412c0,-0.043729 0.0354668,-0.0791958 0.0791958,-0.0791958l7.11301 0c0.043326,0 0.0791958,0.0354668 0.0791958,0.0791958l0 0.493412z"/>
  <polygon class="fil22" points="18.5264,4.05813 18.3679,3.84382 21.7755,1.32084 21.9341,1.53515 "/>
  <polygon class="fil22" points="17.5684,3.29821 17.3722,3.11766 20.246,0 20.4419,0.180558 "/>
  <polygon class="fil22" points="18.9306,5.22249 18.8152,4.98218 22.6356,3.14345 22.7511,3.38366 "/>
 </g>
</svg>
