<?xml version="1.0" standalone="no"?>
<!DOCTYPE svg PUBLIC "-//W3C//DTD SVG 1.1//EN" "http://www.w3.org/Graphics/SVG/1.1/DTD/svg11.dtd" >
<svg xmlns="http://www.w3.org/2000/svg" xmlns:xlink="http://www.w3.org/1999/xlink" version="1.1">
<metadata>
Created by FontForge 20200511 at Mon Nov 22 02:30:19 2021
 By convertio
\(c\) 2021 Zoho Corporation Pvt. Ltd. All rights reserved.
</metadata>
<defs>
<font id="ZohoPuvi-Bold" horiz-adv-x="1228" >
  <font-face 
    font-family="Zoho Puvi"
    font-weight="700"
    font-stretch="normal"
    units-per-em="2048"
    panose-1="2 1 8 3 2 2 1 1 2 4"
    ascent="1638"
    descent="-410"
    x-height="1071"
    cap-height="1464"
    bbox="-493 -467 2394 2310"
    underline-thickness="164"
    underline-position="-205"
    stemh="211"
    stemv="295"
    unicode-range="U+000D-FB02"
  />
<missing-glyph horiz-adv-x="1016" 
 />
    <glyph glyph-name=".notdef" horiz-adv-x="1016" 
 />
    <glyph glyph-name="uni0000" horiz-adv-x="0" 
 />
    <glyph glyph-name="uni0000" horiz-adv-x="0" 
 />
    <glyph glyph-name="uni000D" unicode="&#xd;" horiz-adv-x="512" 
 />
    <glyph glyph-name="space" unicode=" " horiz-adv-x="450" 
 />
    <glyph glyph-name="exclam" unicode="!" horiz-adv-x="683" 
d="M223 457l-45 1007h332l-45 -1007h-242zM155 158c0 101 88 178 189 178c99 0 184 -74 184 -176c0 -103 -87 -178 -186 -178s-187 74 -187 176z" />
    <glyph glyph-name="quotedbl" unicode="&#x22;" horiz-adv-x="865" 
d="M528 924l-39 540h286l-36 -540h-211zM130 924l-39 540h287l-39 -540h-209z" />
    <glyph glyph-name="numbersign" unicode="#" horiz-adv-x="1218" 
d="M203 0l55 410h-176v209h203l30 227h-184v209h213l55 409h207l-55 -409h198l58 409h207l-58 -409h181v-209h-207l-31 -227h188v-209h-217l-55 -410h-207l55 410h-198l-55 -410h-207zM467 601h239l43 263h-241z" />
    <glyph glyph-name="dollar" unicode="$" horiz-adv-x="1317" 
d="M586 -276v256c-230 16 -451 114 -512 356l254 108c34 -129 129 -205 258 -227v395c-266 40 -482 135 -482 441c0 275 234 411 482 430v182h145v-184c210 -18 378 -103 455 -310l-238 -104c-38 97 -115 160 -217 178v-366c263 -40 496 -126 496 -435
c0 -287 -230 -446 -496 -464v-256h-145zM586 903v346c-95 -10 -187 -64 -187 -170c0 -124 82 -155 187 -176zM731 590v-373c100 22 193 80 193 198c0 116 -90 154 -193 175z" />
    <glyph glyph-name="percent" unicode="%" horiz-adv-x="1677" 
d="M65 1115c0 210 169 364 372 364c201 0 366 -150 366 -358c0 -206 -162 -359 -370 -359c-207 0 -368 149 -368 353zM262 0l973 1464h184l-973 -1464h-184zM434 944c103 0 141 90 141 178s-37 175 -139 175c-101 0 -143 -86 -143 -178c0 -89 40 -175 141 -175zM874 333
c0 210 167 365 372 365c200 0 366 -147 366 -358c0 -206 -159 -363 -370 -363c-207 0 -368 150 -368 356zM1245 164c101 0 139 85 139 178c0 90 -36 174 -139 174c-105 0 -143 -87 -143 -175c0 -91 41 -177 143 -177z" />
    <glyph glyph-name="ampersand" unicode="&#x26;" horiz-adv-x="1502" 
d="M1062 0l-106 131c-116 -104 -243 -151 -399 -151c-267 0 -496 138 -496 428c0 214 147 342 326 430c-58 80 -103 175 -103 283c0 234 210 358 428 358c201 0 400 -106 400 -330c0 -187 -140 -296 -299 -365l198 -239l131 256l219 -94l-194 -367l274 -340h-379zM671 915
c94 47 176 104 176 220c0 75 -53 131 -135 131c-88 0 -139 -66 -139 -150c0 -59 25 -110 98 -201zM802 322l-278 337c-91 -48 -152 -111 -152 -222c0 -136 93 -214 219 -214c88 0 162 38 211 99z" />
    <glyph glyph-name="quotesingle" unicode="'" horiz-adv-x="531" 
d="M157 924l-39 540h295l-39 -540h-217z" />
    <glyph glyph-name="parenleft" unicode="(" horiz-adv-x="777" 
d="M692 -303h-243c-230 272 -363 584 -363 944s133 671 363 944h243c-203 -283 -317 -594 -317 -945c0 -356 117 -652 317 -943z" />
    <glyph glyph-name="parenright" unicode=")" horiz-adv-x="756" 
d="M320 -299h-244c203 283 315 595 315 946c0 352 -112 656 -315 942h244c229 -273 360 -585 360 -944c0 -358 -131 -672 -360 -944z" />
    <glyph glyph-name="asterisk" unicode="*" horiz-adv-x="961" 
d="M171 918l178 198l-243 39l61 211l230 -104l-35 260h239l-37 -260l230 104l61 -211l-245 -39l178 -198l-183 -132l-127 240l-124 -240z" />
    <glyph glyph-name="plus" unicode="+" horiz-adv-x="1145" 
d="M453 186v400h-369v223h369v399h241v-399h369v-223h-369v-400h-241z" />
    <glyph glyph-name="comma" unicode="," horiz-adv-x="629" 
d="M70 -176l180 506l279 -105l-279 -477z" />
    <glyph glyph-name="hyphen" unicode="-" horiz-adv-x="781" 
d="M129 459v235h524v-235h-524z" />
    <glyph glyph-name="period" unicode="." horiz-adv-x="674" 
d="M154 161c0 103 82 179 182 179s184 -77 184 -180c0 -102 -81 -178 -184 -178c-102 0 -182 77 -182 179z" />
    <glyph glyph-name="slash" unicode="/" horiz-adv-x="922" 
d="M25 -303l629 1900h244l-631 -1900h-242z" />
    <glyph glyph-name="zero" unicode="0" horiz-adv-x="1485" 
d="M145 395c-39 120 -45 246 -45 371c0 397 220 721 643 721c281 0 503 -142 594 -410c41 -122 47 -246 47 -372c0 -404 -209 -728 -636 -728c-288 0 -514 148 -603 418zM749 238c293 0 306 311 306 530c0 208 -52 463 -316 463c-290 0 -307 -309 -307 -533
c0 -212 56 -460 317 -460z" />
    <glyph glyph-name="one" unicode="1" horiz-adv-x="899" 
d="M371 0v1137l-297 -185v283l338 229h290v-1464h-331z" />
    <glyph glyph-name="two" unicode="2" horiz-adv-x="1231" 
d="M33 0v126l536 496c116 107 232 244 232 409c0 126 -68 202 -187 202c-154 0 -241 -126 -272 -255l-254 109c56 273 265 400 528 400c283 0 512 -146 512 -445c0 -216 -120 -391 -278 -527l-305 -261h594v-254h-1106z" />
    <glyph glyph-name="three" unicode="3" horiz-adv-x="1311" 
d="M74 342l252 111c35 -136 140 -232 284 -232c135 0 264 58 264 211c0 201 -147 211 -298 211h-52v221h55c146 0 275 15 275 195c0 123 -113 184 -229 184c-134 0 -214 -81 -256 -209l-242 105c69 242 293 348 528 348c248 0 512 -118 512 -394c0 -166 -95 -270 -241 -323
c176 -40 284 -161 284 -344c0 -328 -279 -449 -566 -449c-254 0 -506 95 -570 365z" />
    <glyph glyph-name="four" unicode="4" horiz-adv-x="1360" 
d="M61 301v121l633 1042h408v-925h192v-238h-192v-301h-322v301h-719zM393 539h393v675z" />
    <glyph glyph-name="five" unicode="5" horiz-adv-x="1255" 
d="M74 311l254 111c48 -131 106 -191 251 -191c156 0 244 111 244 259c0 157 -98 258 -254 258c-111 0 -192 -31 -264 -117h-184l20 833h928v-252h-680l-6 -366c79 98 204 135 326 135c293 0 448 -217 448 -485c0 -339 -248 -519 -568 -519c-227 0 -448 90 -515 334z" />
    <glyph glyph-name="six" unicode="6" horiz-adv-x="1356" 
d="M1241 1202l-248 -110c-57 101 -137 145 -252 145c-242 0 -309 -267 -313 -463c81 130 205 182 354 182c283 0 484 -189 484 -480c0 -326 -253 -499 -564 -499c-466 0 -602 323 -602 736c0 391 188 774 636 774c210 0 401 -84 505 -285zM695 217c155 0 245 114 245 264
c0 146 -85 256 -240 256c-150 0 -252 -102 -252 -257c0 -146 90 -263 247 -263z" />
    <glyph glyph-name="seven" unicode="7" horiz-adv-x="1159" 
d="M254 0l481 1196h-672v268h1061v-133l-528 -1331h-342z" />
    <glyph glyph-name="eight" unicode="8" horiz-adv-x="1325" 
d="M360 780c-133 55 -213 159 -213 306c0 275 279 401 522 401c239 0 511 -121 511 -394c0 -152 -84 -253 -213 -311c165 -56 268 -183 268 -367c0 -312 -294 -438 -575 -438c-272 0 -570 118 -570 433c0 185 102 312 270 370zM457 1066c0 -123 99 -194 214 -194
c116 0 201 71 201 188c0 122 -95 195 -210 195c-112 0 -205 -70 -205 -189zM420 444c0 -144 105 -225 245 -225c139 0 242 80 242 227c0 146 -101 224 -241 224c-139 0 -246 -79 -246 -226z" />
    <glyph glyph-name="nine" unicode="9" horiz-adv-x="1358" 
d="M110 266l250 109c48 -115 159 -147 273 -147c246 0 293 261 297 456c-82 -128 -202 -178 -351 -178c-286 0 -489 181 -489 476c0 330 255 505 567 505c476 0 598 -347 598 -760c0 -404 -159 -750 -617 -750c-208 0 -445 71 -528 289zM657 727c144 0 246 96 246 255
c0 146 -86 265 -247 265c-156 0 -244 -113 -244 -260c0 -146 89 -260 245 -260z" />
    <glyph glyph-name="colon" unicode=":" horiz-adv-x="695" 
d="M345 575c-102 0 -180 79 -180 181c0 101 79 178 180 178c100 0 185 -76 185 -179c0 -102 -83 -180 -185 -180zM165 160c0 103 79 180 180 180c100 0 185 -76 185 -180c0 -102 -82 -178 -185 -178s-180 77 -180 178z" />
    <glyph glyph-name="semicolon" unicode=";" horiz-adv-x="695" 
d="M412 575c-102 0 -180 79 -180 181c0 101 79 178 180 178c100 0 184 -77 184 -180c0 -101 -82 -179 -184 -179zM99 -176l180 506l276 -105l-278 -477z" />
    <glyph glyph-name="less" unicode="&#x3c;" horiz-adv-x="1059" 
d="M102 631v59l836 492v-271l-445 -249l445 -259v-266z" />
    <glyph glyph-name="equal" unicode="=" horiz-adv-x="1102" 
d="M88 766v211h926v-211h-926zM88 354v211h926v-211h-926z" />
    <glyph glyph-name="greater" unicode="&#x3e;" horiz-adv-x="1059" 
d="M123 139v271l442 249l-442 259v266l835 -494v-59z" />
    <glyph glyph-name="question" unicode="?" horiz-adv-x="1090" 
d="M365 457v61c0 155 104 257 197 348c110 108 145 162 145 226c0 104 -53 151 -158 151c-131 0 -206 -72 -243 -196l-238 102c64 230 276 336 508 336c230 0 447 -104 447 -369c0 -163 -112 -267 -215 -363c-131 -121 -168 -176 -168 -245v-51h-275zM312 158
c0 105 86 178 185 178c101 0 190 -77 190 -178c0 -102 -89 -176 -189 -176c-99 0 -186 72 -186 176z" />
    <glyph glyph-name="at" unicode="@" horiz-adv-x="1971" 
d="M1500 0l131 -57c-158 -185 -409 -258 -643 -258c-498 0 -872 330 -872 838c0 503 403 890 903 890c444 0 836 -274 836 -749c0 -260 -118 -545 -422 -545c-123 0 -249 33 -277 171c-55 -114 -161 -179 -295 -179c-213 0 -323 165 -323 371c0 235 143 479 406 479
c95 0 191 -32 231 -130l14 113h254l-66 -542v-1l-1 -1v-1v-5v-1l-1 -2v-1v-6c-1 -8 -2 -17 -2 -28c0 -61 30 -98 99 -98c186 0 225 267 225 410c0 396 -301 606 -676 606c-435 0 -737 -325 -737 -760c0 -421 282 -690 712 -690c180 0 365 47 504 176zM944 312
c114 0 202 122 202 272c0 114 -51 176 -140 176c-120 0 -208 -112 -208 -257c0 -118 58 -191 146 -191z" />
    <glyph glyph-name="A" unicode="A" horiz-adv-x="1448" 
d="M33 0l481 1464h433l475 -1464h-346l-93 305h-544l-95 -305h-311zM510 541h400l-199 653z" />
    <glyph glyph-name="B" unicode="B" horiz-adv-x="1371" 
d="M148 0v1464h616c266 0 486 -86 486 -390c0 -163 -80 -268 -238 -312c198 -38 293 -149 293 -350c0 -318 -237 -412 -514 -412h-643zM471 862h240c143 0 223 42 223 196c0 143 -100 177 -225 177h-238v-373zM471 229h269c147 0 237 60 237 211c0 167 -111 209 -254 209
h-252v-420z" />
    <glyph glyph-name="C" unicode="C" horiz-adv-x="1498" 
d="M1180 512l270 -117c-85 -291 -357 -418 -643 -418c-480 0 -735 292 -735 762c0 425 295 746 727 746c284 0 521 -119 633 -389l-270 -117c-58 138 -185 244 -340 244c-287 0 -400 -245 -400 -495c0 -258 120 -482 403 -482c185 0 294 95 355 266z" />
    <glyph glyph-name="D" unicode="D" horiz-adv-x="1508" 
d="M148 0v1464h520c480 0 768 -240 768 -733c0 -482 -304 -731 -770 -731h-518zM480 258h176c320 0 434 186 434 478c0 308 -127 470 -438 470h-172v-948z" />
    <glyph glyph-name="E" unicode="E" horiz-adv-x="1240" 
d="M148 0v1464h995v-258h-665v-342h540v-241h-540v-365h698v-258h-1028z" />
    <glyph glyph-name="F" unicode="F" horiz-adv-x="1182" 
d="M148 0v1464h981v-260h-649v-387h522v-250h-522v-567h-332z" />
    <glyph glyph-name="G" unicode="G" horiz-adv-x="1547" 
d="M848 543v241h627v-548c-171 -176 -415 -259 -662 -259c-467 0 -741 297 -741 762c0 435 309 748 745 748c291 0 502 -110 625 -381l-272 -119c-69 160 -171 238 -341 238c-303 0 -411 -246 -411 -507c0 -266 112 -485 417 -485c117 0 242 32 343 109v201h-330z" />
    <glyph glyph-name="H" unicode="H" horiz-adv-x="1565" 
d="M148 0v1464h332v-598h608v598h332v-1464h-332v604h-608v-604h-332z" />
    <glyph glyph-name="I" unicode="I" horiz-adv-x="646" 
d="M156 0v1464h334v-1464h-334z" />
    <glyph glyph-name="J" unicode="J" horiz-adv-x="916" 
d="M62 27v254c59 -23 121 -40 185 -40c150 0 206 95 206 236v987h334v-991c0 -318 -161 -496 -485 -496c-81 0 -164 11 -240 50z" />
    <glyph glyph-name="K" unicode="K" horiz-adv-x="1406" 
d="M148 0v1464h332v-630l532 630h352l-600 -692l629 -772h-387l-526 657v-657h-332z" />
    <glyph glyph-name="L" unicode="L" horiz-adv-x="1148" 
d="M148 0v1464h332v-1204h616v-260h-948z" />
    <glyph glyph-name="M" unicode="M" horiz-adv-x="1887" 
d="M148 0v1464h438l365 -958l356 958h430v-1464h-330v1028l-405 -1028h-150l-407 1028v-1028h-297z" />
    <glyph glyph-name="N" unicode="N" horiz-adv-x="1553" 
d="M148 0v1464h385l577 -964v964h295v-1464h-332l-630 1042v-1042h-295z" />
    <glyph glyph-name="O" unicode="O" horiz-adv-x="1651" 
d="M820 -23c-452 0 -748 310 -748 762c0 436 320 748 754 748c450 0 753 -306 753 -752c0 -450 -309 -758 -759 -758zM833 242c287 0 400 245 400 492c0 263 -128 491 -414 491c-291 0 -401 -235 -401 -500c0 -252 137 -483 415 -483z" />
    <glyph glyph-name="P" unicode="P" horiz-adv-x="1283" 
d="M148 0v1464h526c320 0 559 -123 559 -469c0 -404 -326 -464 -640 -464h-115v-531h-330zM478 764h188c160 0 248 64 248 222c0 169 -100 226 -248 226h-188v-448z" />
    <glyph glyph-name="Q" unicode="Q" horiz-adv-x="1651" 
d="M1299 -190l-199 210c-89 -28 -182 -43 -281 -43c-451 0 -747 310 -747 762c0 436 320 748 754 748c450 0 753 -306 753 -752c0 -220 -74 -435 -241 -579l149 -160zM768 381l193 180l172 -186c78 107 100 238 100 368c0 254 -128 482 -414 482c-291 0 -401 -235 -401 -500
c0 -254 132 -492 417 -492c18 0 41 1 64 5z" />
    <glyph glyph-name="R" unicode="R" horiz-adv-x="1377" 
d="M148 0v1464h545c302 0 565 -108 565 -452c0 -202 -109 -335 -301 -389l387 -623h-352l-351 565h-163v-565h-330zM478 791h196c149 0 260 54 260 214c0 167 -122 205 -260 205h-196v-419z" />
    <glyph glyph-name="S" unicode="S" horiz-adv-x="1281" 
d="M56 332l266 116c50 -161 197 -227 360 -227c119 0 241 61 241 194c0 145 -146 170 -314 198c-226 38 -509 83 -509 436c0 294 256 438 519 438c229 0 450 -85 535 -318l-230 -108c-62 121 -171 182 -303 182c-109 0 -207 -42 -207 -160c0 -151 163 -184 331 -201
c228 -23 496 -80 496 -436c0 -309 -280 -469 -559 -469c-256 0 -549 80 -626 355z" />
    <glyph glyph-name="T" unicode="T" horiz-adv-x="1203" 
d="M435 0v1206h-396v258h1125v-258h-396v-1206h-333z" />
    <glyph glyph-name="U" unicode="U" horiz-adv-x="1494" 
d="M136 1464h334v-872c0 -198 42 -350 275 -350c237 0 279 157 279 362v860h334v-880c0 -404 -220 -607 -614 -607c-392 0 -608 201 -608 594v893z" />
    <glyph glyph-name="V" unicode="V" horiz-adv-x="1416" 
d="M518 0l-489 1464h350l348 -1124l349 1124h311l-488 -1464h-381z" />
    <glyph glyph-name="W" unicode="W" horiz-adv-x="2051" 
d="M410 0l-377 1464h336l250 -1011l270 1011h283l280 -1018l258 1018h308l-377 -1464h-338l-285 1012l-289 -1012h-319z" />
    <glyph glyph-name="X" unicode="X" horiz-adv-x="1453" 
d="M52 0l464 752l-430 712h375l279 -487l276 487h340l-418 -702l463 -762h-377l-317 545l-315 -545h-340z" />
    <glyph glyph-name="Y" unicode="Y" horiz-adv-x="1287" 
d="M490 0v621l-473 843h364l287 -571l281 571h321l-446 -843v-621h-334z" />
    <glyph glyph-name="Z" unicode="Z" horiz-adv-x="1240" 
d="M27 0v129l729 1075h-651v260h1089v-130l-714 -1074h690v-260h-1143z" />
    <glyph glyph-name="bracketleft" unicode="[" horiz-adv-x="834" 
d="M125 -303v1900h585v-221h-288v-1460h288v-219h-585z" />
    <glyph glyph-name="backslash" unicode="\" horiz-adv-x="920" 
d="M654 -303l-630 1900h241l631 -1900h-242z" />
    <glyph glyph-name="bracketright" unicode="]" horiz-adv-x="834" 
d="M125 -303v219h287v1460h-287v221h584v-1900h-584z" />
    <glyph glyph-name="asciicircum" unicode="^" horiz-adv-x="1037" 
d="M58 817l327 647h267l329 -647h-264l-201 406l-202 -406h-256z" />
    <glyph glyph-name="underscore" unicode="_" horiz-adv-x="899" 
d="M18 -328v162h862v-162h-862z" />
    <glyph glyph-name="grave" unicode="`" horiz-adv-x="807" 
d="M312 1217l-213 325h311l117 -325h-215z" />
    <glyph glyph-name="a" unicode="a" horiz-adv-x="1159" 
d="M744 0v129c-76 -113 -189 -152 -316 -152c-208 0 -364 104 -364 318c0 272 254 345 485 345h192c0 144 -14 241 -182 241c-94 0 -187 -43 -219 -138l-227 99c70 193 287 254 480 254c259 0 441 -111 441 -398v-698h-290zM741 465h-114c-106 0 -273 -8 -273 -152
c0 -95 71 -129 157 -129c116 0 230 61 230 191v90z" />
    <glyph glyph-name="b" unicode="b" horiz-adv-x="1325" 
d="M131 0v1556h297v-653c72 122 212 193 352 193c327 0 478 -269 478 -558c0 -300 -162 -561 -469 -561c-149 0 -297 62 -361 193v-170h-297zM692 209c205 0 265 158 265 336c0 170 -78 323 -271 323c-199 0 -268 -162 -268 -332c0 -185 81 -327 274 -327z" />
    <glyph glyph-name="c" unicode="c" horiz-adv-x="1166" 
d="M891 395l219 -96c-64 -227 -272 -322 -495 -322c-342 0 -549 222 -549 562c0 322 229 557 562 557c203 0 407 -87 474 -303l-229 -101c-42 114 -127 170 -243 170c-201 0 -261 -168 -261 -336c0 -173 65 -325 264 -325c133 0 216 68 258 194z" />
    <glyph glyph-name="d" unicode="d" horiz-adv-x="1325" 
d="M897 0v178c-65 -127 -214 -201 -354 -201c-325 0 -475 264 -475 550c0 300 165 569 479 569c144 0 278 -57 350 -185v645h295v-1556h-295zM635 209c199 0 270 159 270 335c0 177 -72 324 -268 324c-206 0 -266 -162 -266 -342c0 -168 72 -317 264 -317z" />
    <glyph glyph-name="e" unicode="e" horiz-adv-x="1202" 
d="M893 326l219 -97c-83 -193 -294 -252 -477 -252c-354 0 -569 219 -569 562c0 321 228 557 553 557c208 0 395 -96 475 -292c45 -110 45 -223 45 -335h-772c8 -165 91 -281 266 -281c116 0 204 30 260 138zM371 651h479c-8 147 -79 240 -227 240
c-154 0 -233 -102 -252 -240z" />
    <glyph glyph-name="f" unicode="f" horiz-adv-x="780" 
d="M180 0v860h-141v211h141v123c0 249 139 375 383 375c60 0 118 -15 172 -39l-84 -195c-14 7 -28 8 -41 8c-130 0 -135 -99 -135 -200v-72h234v-211h-234v-860h-295z" />
    <glyph glyph-name="g" unicode="g" horiz-adv-x="1303" 
d="M105 -137l233 102c45 -109 159 -143 270 -143c173 0 269 83 269 262v162c-70 -120 -205 -199 -344 -199c-304 0 -467 242 -467 526c0 276 179 523 479 523c139 0 259 -53 332 -185v160h295v-987c0 -349 -250 -479 -564 -479c-201 0 -423 53 -503 258zM628 270
c177 0 257 140 257 305c0 167 -81 295 -260 295c-187 0 -256 -141 -256 -311c0 -155 85 -289 259 -289z" />
    <glyph glyph-name="h" unicode="h" horiz-adv-x="1280" 
d="M131 0v1556h297v-655c69 132 215 195 363 195c248 0 366 -178 366 -414v-682h-297v639c0 137 -69 215 -205 215c-150 0 -227 -94 -227 -236v-618h-297z" />
    <glyph glyph-name="i" unicode="i" horiz-adv-x="576" 
d="M117 1381c0 94 75 159 168 159c94 0 170 -67 170 -162s-77 -161 -168 -161c-93 0 -170 68 -170 164zM139 0v1069h295v-1069h-295z" />
    <glyph glyph-name="j" unicode="j" horiz-adv-x="576" 
d="M117 1381c0 94 75 159 168 159c94 0 170 -67 170 -162s-77 -161 -168 -161c-93 0 -170 68 -170 164zM-2 -383v221c93 5 141 46 141 142v1089h295v-1087c0 -286 -182 -365 -436 -365z" />
    <glyph glyph-name="k" unicode="k" horiz-adv-x="1137" 
d="M131 0v1556h297v-938l344 453h316l-390 -487l420 -584h-336l-354 506v-506h-297z" />
    <glyph glyph-name="l" unicode="l" horiz-adv-x="574" 
d="M139 0v1475l295 129v-1604h-295z" />
    <glyph glyph-name="m" unicode="m" horiz-adv-x="1911" 
d="M131 0v1071h297v-164c64 121 204 189 346 189c129 0 238 -56 291 -187c85 122 224 187 371 187c248 0 352 -183 352 -410v-686h-295v653c0 118 -52 199 -178 199c-133 0 -207 -90 -207 -219v-633h-295v653c0 118 -52 199 -178 199c-133 0 -207 -90 -207 -219v-633h-297z
" />
    <glyph glyph-name="n" unicode="n" horiz-adv-x="1270" 
d="M131 0v1071h297v-170c69 132 215 195 362 195c250 0 357 -181 357 -414v-682h-297v639c0 133 -60 215 -198 215c-147 0 -224 -94 -224 -236v-618h-297z" />
    <glyph glyph-name="o" unicode="o" horiz-adv-x="1262" 
d="M66 532c0 337 240 564 571 564c332 0 557 -229 557 -559c0 -338 -237 -560 -568 -560c-334 0 -560 227 -560 555zM633 203c201 0 260 166 260 330c0 179 -70 337 -265 337c-199 0 -259 -166 -259 -332c0 -179 69 -335 264 -335z" />
    <glyph glyph-name="p" unicode="p" horiz-adv-x="1325" 
d="M131 -365v1436h297v-168c72 122 212 193 352 193c327 0 478 -269 478 -558c0 -299 -162 -561 -478 -561c-138 0 -283 62 -352 187v-529h-297zM692 209c205 0 265 158 265 336c0 170 -78 323 -271 323c-199 0 -268 -162 -268 -332c0 -185 81 -327 274 -327z" />
    <glyph glyph-name="q" unicode="q" horiz-adv-x="1325" 
d="M897 -365v537c-64 -122 -220 -195 -354 -195c-325 0 -475 264 -475 550c0 300 165 569 479 569c144 0 278 -57 350 -185v160h295v-1436h-295zM640 209c194 0 265 159 265 335c0 177 -72 324 -268 324c-206 0 -266 -162 -266 -342c0 -163 78 -317 269 -317z" />
    <glyph glyph-name="r" unicode="r" horiz-adv-x="838" 
d="M131 0v1071h297v-205c71 149 182 221 346 221v-276c-194 0 -346 -52 -346 -274v-537h-297z" />
    <glyph glyph-name="s" unicode="s" horiz-adv-x="1066" 
d="M53 223l226 99c41 -97 178 -138 281 -138c74 0 164 21 164 109c0 94 -103 114 -231 139c-185 37 -409 83 -409 323c0 236 219 341 420 341c168 0 384 -48 448 -226l-217 -94c-35 91 -141 117 -229 117c-68 0 -148 -30 -148 -100c0 -78 103 -101 231 -127
c188 -39 420 -87 420 -350c0 -255 -218 -339 -448 -339c-184 0 -441 54 -508 246z" />
    <glyph glyph-name="t" unicode="t" horiz-adv-x="776" 
d="M705 238v-230c-58 -19 -120 -28 -184 -28c-222 0 -343 108 -343 337v543h-137v211h137v233l295 128v-361h225v-211h-225v-516c0 -79 36 -127 128 -127c30 0 69 5 104 21z" />
    <glyph glyph-name="u" unicode="u" horiz-adv-x="1264" 
d="M838 0v168c-70 -132 -205 -191 -350 -191c-248 0 -365 171 -365 404v690h295v-649c0 -125 50 -215 190 -215s230 91 230 235v629h295v-1071h-295z" />
    <glyph glyph-name="v" unicode="v" horiz-adv-x="1172" 
d="M420 0l-391 1071h317l256 -766l254 766h287l-389 -1071h-334z" />
    <glyph glyph-name="w" unicode="w" horiz-adv-x="1700" 
d="M361 0l-328 1071h311l193 -721l209 721h243l191 -721l205 721h284l-340 -1071h-291l-184 672l-199 -672h-294z" />
    <glyph glyph-name="x" unicode="x" horiz-adv-x="1176" 
d="M35 0l367 547l-343 524h340l201 -321l197 321h307l-342 -502l377 -569h-342l-226 360l-231 -360h-305z" />
    <glyph glyph-name="y" unicode="y" horiz-adv-x="1157" 
d="M262 -365l189 474l-422 962h319l256 -643l240 643h285l-580 -1436h-287z" />
    <glyph glyph-name="z" unicode="z" horiz-adv-x="1022" 
d="M29 0v115l553 727h-500v229h905v-115l-557 -727h537v-229h-938z" />
    <glyph glyph-name="braceleft" unicode="{" horiz-adv-x="877" 
d="M777 -84v-217c-258 0 -500 59 -500 363c0 55 8 109 16 161v4c12 84 15 114 15 149c0 127 -95 165 -207 165v211c112 0 207 38 207 166c0 46 -6 92 -13 138l-2 18c-8 53 -16 106 -16 160c0 305 245 363 500 363v-221c-131 0 -207 -33 -207 -191c0 -45 6 -94 11 -135
c7 -59 13 -111 13 -163c0 -132 -74 -208 -198 -240c129 -29 198 -104 198 -250c0 -30 -3 -67 -12 -146c-9 -76 -12 -112 -12 -144c0 -157 73 -191 207 -191z" />
    <glyph glyph-name="bar" unicode="|" horiz-adv-x="615" 
d="M201 -303v1900h213v-1900h-213z" />
    <glyph glyph-name="braceright" unicode="}" horiz-adv-x="877" 
d="M101 -301v217c134 0 209 34 209 181l-25 311c0 135 70 210 199 239c-126 32 -199 106 -199 240l25 311c0 149 -76 178 -209 178v221c255 0 502 -58 502 -363l-31 -316c0 -127 93 -166 205 -166v-211c-112 0 -205 -39 -205 -165l31 -314c0 -305 -243 -363 -502 -363z" />
    <glyph glyph-name="asciitilde" unicode="~" horiz-adv-x="996" 
d="M264 445h-200c11 160 81 354 265 354c68 0 130 -27 185 -53c72 -33 100 -43 125 -43c58 0 84 50 92 100h201c0 -155 -85 -354 -264 -354c-68 0 -132 28 -193 56c-67 30 -96 40 -121 40c-56 0 -82 -46 -90 -100z" />
    <glyph glyph-name="uni00A0" unicode="&#xa0;" horiz-adv-x="557" 
 />
    <glyph glyph-name="exclamdown" unicode="&#xa1;" horiz-adv-x="713" 
d="M170 1064c0 103 92 179 191 179c97 0 183 -73 183 -176s-85 -178 -186 -178c-100 0 -188 75 -188 175zM190 -240l45 1008h242l45 -1008h-332z" />
    <glyph glyph-name="cent" unicode="&#xa2;" horiz-adv-x="1194" 
d="M565 -276v258c-318 29 -491 243 -491 557c0 298 194 519 491 553v196h146v-196c191 -16 359 -109 417 -301l-225 -97c-29 91 -100 151 -192 172v-671c112 22 186 86 213 198l213 -92c-61 -197 -227 -300 -426 -319v-258h-146zM565 199v665c-154 -42 -196 -195 -196 -332
c0 -145 47 -293 196 -333z" />
    <glyph glyph-name="sterling" unicode="&#xa3;" horiz-adv-x="1298" 
d="M311 0h-252c13 140 78 271 217 322c13 37 19 77 19 117c0 57 -12 112 -29 167h-178v205h117c-21 72 -31 146 -31 221c0 299 246 453 522 453c234 0 430 -91 496 -330l-254 -111c-33 125 -102 187 -234 187c-127 0 -200 -91 -200 -213c0 -69 8 -139 20 -207h391v-205h-350
c8 -56 14 -111 14 -168c0 -43 -9 -85 -24 -125l73 -26c86 -32 130 -43 185 -43c85 0 149 27 170 127l246 -107c-49 -183 -177 -282 -367 -282c-85 0 -165 32 -240 62c-67 27 -131 52 -192 52c-68 0 -113 -31 -119 -96z" />
    <glyph glyph-name="yen" unicode="&#xa5;" horiz-adv-x="1268" 
d="M143 322v137h336v123h-336v137h295l-395 745h360l254 -545l248 545h318l-373 -745h297v-137h-336v-123h336v-137h-336v-322h-332v322h-336z" />
    <glyph glyph-name="brokenbar" unicode="&#xa6;" horiz-adv-x="631" 
d="M209 758v831h213v-831h-213zM209 -303v917h213v-917h-213z" />
    <glyph glyph-name="section" unicode="&#xa7;" horiz-adv-x="1227" 
d="M167 -33l196 86c40 -93 142 -125 226 -125c91 0 162 37 162 118c0 104 -117 137 -254 175c-191 53 -420 117 -420 377c0 144 95 237 225 279c-74 65 -104 148 -104 239c0 243 217 369 442 369c162 0 356 -66 412 -246l-201 -88c-35 86 -139 121 -222 121
c-85 0 -153 -37 -153 -119c0 -109 119 -140 248 -174c199 -52 426 -112 426 -377c0 -140 -99 -233 -223 -280c71 -64 102 -150 102 -240c0 -239 -220 -363 -432 -363c-174 0 -374 64 -430 248zM486 768c-72 -12 -123 -57 -123 -133c0 -108 203 -160 322 -190l55 -15
c70 16 123 54 123 131c0 130 -334 207 -377 207z" />
    <glyph glyph-name="dieresis" unicode="&#xa8;" horiz-adv-x="832" 
d="M473 1376c0 83 70 148 152 148s151 -65 151 -148c0 -82 -69 -147 -150 -147c-82 0 -153 64 -153 147zM56 1376c0 81 68 148 150 148c81 0 153 -64 153 -148c0 -83 -71 -147 -152 -147c-82 0 -151 64 -151 147z" />
    <glyph glyph-name="copyright" unicode="&#xa9;" horiz-adv-x="1881" 
d="M121 731c0 454 370 805 826 805c449 0 813 -341 813 -801s-367 -807 -819 -807c-453 0 -820 350 -820 803zM939 63c380 0 660 294 660 675c0 377 -276 663 -657 663c-384 0 -660 -291 -660 -667c0 -377 278 -671 657 -671zM1145 616l168 -73
c-48 -163 -200 -232 -360 -232c-279 0 -418 153 -418 427c0 239 171 415 412 415c155 0 306 -58 356 -219l-176 -75c-26 92 -90 118 -180 118c-148 0 -183 -131 -183 -246c0 -130 45 -244 187 -244c98 0 164 30 194 129z" />
    <glyph glyph-name="ordfeminine" unicode="&#xaa;" horiz-adv-x="983" 
d="M622 610v101c-60 -87 -153 -121 -255 -121c-161 0 -289 85 -289 256c0 262 302 270 503 270h37c1 103 -29 176 -142 176c-70 0 -139 -28 -169 -92l-190 82c67 152 212 201 370 201c209 0 391 -85 391 -322v-551h-256zM618 973h-88c-74 0 -190 -7 -190 -111
c0 -66 47 -88 110 -88c85 0 168 39 168 135v64z" />
    <glyph glyph-name="guillemotleft" unicode="&#xab;" horiz-adv-x="1158" 
d="M420 154l-260 381l260 380h211l-249 -380l249 -381h-211zM787 154l-260 381l260 380h211l-250 -380l250 -381h-211z" />
    <glyph glyph-name="registered" unicode="&#xae;" horiz-adv-x="1070" 
d="M70 1028c0 256 212 457 465 457c252 0 463 -200 463 -457c0 -255 -209 -453 -463 -453c-253 0 -465 196 -465 453zM158 1031c0 -220 161 -378 377 -378c217 0 375 160 375 382c0 218 -153 372 -372 372c-223 0 -380 -159 -380 -376zM367 811v449h174
c95 0 182 -32 182 -137c0 -62 -31 -104 -82 -128l109 -184h-131l-92 162h-33v-162h-127zM494 1055h41c37 0 65 14 65 55c0 42 -28 53 -65 53h-41v-108z" />
    <glyph glyph-name="macron" unicode="&#xaf;" horiz-adv-x="832" 
d="M117 1286v178h596v-178h-596z" />
    <glyph glyph-name="degree" unicode="&#xb0;" horiz-adv-x="953" 
d="M139 1153c0 185 153 330 338 330c186 0 338 -147 338 -331c0 -186 -156 -328 -337 -328s-339 141 -339 329zM478 976c102 0 171 75 171 175c0 99 -68 180 -171 180c-101 0 -173 -78 -173 -180s72 -175 173 -175z" />
    <glyph glyph-name="plusminus" unicode="&#xb1;" horiz-adv-x="1169" 
d="M96 709v221h369v352h241v-352h369v-221h-369v-351h-241v351h-369zM96 0v205h983v-205h-983z" />
    <glyph glyph-name="twosuperior" unicode="&#xb2;" horiz-adv-x="687" 
d="M19 721v80l262 223c56 47 129 128 129 206c0 49 -30 79 -80 79c-63 0 -119 -45 -141 -103l-156 70c37 142 173 199 312 199c147 0 282 -63 282 -232c0 -88 -53 -164 -204 -302l-66 -60h276v-160h-614z" />
    <glyph glyph-name="threesuperior" unicode="&#xb3;" horiz-adv-x="732" 
d="M45 885l158 67c24 -66 81 -88 141 -88c61 0 105 23 105 88c0 71 -53 82 -102 81l-35 -1h-25v130h36c60 0 122 7 122 77c0 54 -36 79 -91 79c-51 0 -108 -22 -128 -84l-160 72c47 124 179 169 303 169c129 0 287 -48 287 -202c0 -88 -51 -143 -131 -163
c86 -16 149 -78 149 -168c0 -177 -160 -235 -310 -235c-127 0 -279 42 -319 178z" />
    <glyph glyph-name="acute" unicode="&#xb4;" horiz-adv-x="832" 
d="M293 1217l117 325h311l-213 -325h-215z" />
    <glyph glyph-name="paragraph" unicode="&#xb6;" horiz-adv-x="1328" 
d="M669 -205v891c-251 0 -469 100 -469 383c0 270 198 395 449 395h479v-1669h-152v1544h-155v-1544h-152z" />
    <glyph glyph-name="periodcentered" unicode="&#xb7;" horiz-adv-x="701" 
d="M167 670c0 103 83 178 182 178c101 0 185 -77 185 -178s-85 -181 -185 -181c-101 0 -182 79 -182 181z" />
    <glyph glyph-name="cedilla" unicode="&#xb8;" horiz-adv-x="832" 
d="M187 -330l116 51c16 -37 76 -55 112 -55c42 0 73 25 73 68c0 42 -31 63 -71 63c-22 0 -44 -6 -62 -20l-74 71l92 152h133l-59 -98c9 1 17 1 26 1c105 0 187 -63 187 -174c0 -133 -117 -184 -232 -184c-93 0 -204 33 -241 125z" />
    <glyph glyph-name="onesuperior" unicode="&#xb9;" horiz-adv-x="558" 
d="M217 721v528l-168 -90v182l199 123h195v-743h-226z" />
    <glyph glyph-name="ordmasculine" unicode="&#xba;" horiz-adv-x="1087" 
d="M86 1024c0 279 180 459 453 459c265 0 462 -170 462 -446c0 -266 -183 -447 -453 -447c-262 0 -462 170 -462 434zM545 791c143 0 186 118 186 247c0 120 -37 244 -185 244c-142 0 -190 -115 -190 -245c0 -119 40 -246 189 -246z" />
    <glyph glyph-name="guillemotright" unicode="&#xbb;" horiz-adv-x="1158" 
d="M528 154l248 381l-248 380h211l258 -380l-258 -381h-211zM161 154l248 381l-248 380h211l258 -380l-258 -381h-211z" />
    <glyph glyph-name="onequarter" unicode="&#xbc;" horiz-adv-x="1530" 
d="M117 0l1106 1464h172l-1106 -1464h-172zM211 721v528l-168 -90v182l199 123h194v-743h-225zM807 152v81l318 510h268v-440h96v-151h-96v-152h-215v152h-371zM1010 303h174v289z" />
    <glyph glyph-name="onehalf" unicode="&#xbd;" horiz-adv-x="1545" 
d="M90 0l1106 1464h172l-1106 -1464h-172zM211 721v528l-168 -90v182l199 123h194v-743h-225zM881 0v81l262 225c51 44 129 135 129 209c0 45 -28 75 -87 75c-66 0 -96 -38 -118 -104l-159 69c38 142 158 199 298 199c148 0 283 -64 283 -232c0 -92 -57 -179 -215 -327
l-33 -31h254v-164h-614z" />
    <glyph glyph-name="threequarters" unicode="&#xbe;" horiz-adv-x="1559" 
d="M39 885l154 67c26 -69 68 -88 139 -88c55 0 98 24 98 85c0 77 -69 83 -130 83h-31v130h36c60 0 121 8 121 78c0 53 -36 78 -91 78c-52 0 -97 -22 -122 -80l-149 66c45 123 161 171 288 171s285 -48 285 -204c0 -87 -49 -142 -131 -161c85 -16 150 -79 150 -168
c0 -177 -161 -235 -315 -235c-127 0 -262 39 -302 178zM193 0l1106 1464h172l-1106 -1464h-172zM832 152v81l317 510h268v-440h97v-151h-97v-152h-215v152h-370zM1034 303h175v289z" />
    <glyph glyph-name="questiondown" unicode="&#xbf;" horiz-adv-x="1148" 
d="M431 1067c0 100 89 176 189 176c97 0 184 -72 184 -174c0 -103 -89 -180 -186 -180c-98 0 -187 79 -187 178zM837 172l219 -96c-58 -229 -286 -334 -515 -334c-226 0 -448 103 -448 369c0 156 99 247 196 337c95 88 189 175 189 320h275v-22c0 -190 -111 -301 -207 -396
c-103 -103 -135 -153 -135 -223c0 -94 56 -145 154 -145c119 0 240 75 272 190z" />
    <glyph glyph-name="Agrave" unicode="&#xc0;" horiz-adv-x="1463" 
d="M633 1563l-203 284h320l106 -284h-223zM37 0l481 1464h433l475 -1464h-346l-93 305h-544l-95 -305h-311zM514 541h400l-199 653z" />
    <glyph glyph-name="Aacute" unicode="&#xc1;" horiz-adv-x="1463" 
d="M602 1563l109 284h321l-206 -284h-224zM37 0l481 1464h433l475 -1464h-346l-93 305h-544l-95 -305h-311zM514 541h400l-199 653z" />
    <glyph glyph-name="Acircumflex" unicode="&#xc2;" horiz-adv-x="1463" 
d="M377 1563l229 284h252l222 -284h-213l-140 108l-141 -108h-209zM37 0l481 1464h433l475 -1464h-346l-93 305h-544l-95 -305h-311zM514 541h400l-199 653z" />
    <glyph glyph-name="Atilde" unicode="&#xc3;" horiz-adv-x="1463" 
d="M547 1563h-176c11 137 77 288 224 288c56 0 103 -22 152 -46c48 -24 69 -31 89 -31c47 0 68 40 76 75h178c-11 -134 -82 -286 -228 -286c-56 0 -105 22 -162 50c-41 20 -62 27 -81 27c-42 0 -65 -38 -72 -77zM37 0l481 1462h433l475 -1462h-346l-93 305h-544l-95 -305
h-311zM514 541h400l-199 652z" />
    <glyph glyph-name="Adieresis" unicode="&#xc4;" horiz-adv-x="1463" 
d="M357 1725c0 82 69 147 150 147c82 0 153 -67 153 -148c0 -82 -71 -149 -152 -149s-151 68 -151 150zM948 1575c-81 0 -149 68 -149 149c0 82 67 148 149 148s152 -65 152 -148c0 -82 -71 -149 -152 -149zM37 0l481 1464h433l475 -1464h-346l-93 305h-544l-95 -305h-311z
M514 541h400l-199 653z" />
    <glyph glyph-name="Aring" unicode="&#xc5;" horiz-adv-x="1463" 
d="M494 1765c0 126 108 228 235 228c126 0 236 -102 236 -228c0 -128 -113 -229 -236 -229s-235 101 -235 229zM729 1655c60 0 101 50 101 109s-40 110 -101 110c-62 0 -100 -54 -100 -111c0 -58 39 -108 100 -108zM37 0l481 1464h433l475 -1464h-346l-93 305h-544l-95 -305
h-311zM514 541h400l-199 653z" />
    <glyph glyph-name="AE" unicode="&#xc6;" horiz-adv-x="2001" 
d="M29 0l696 1464h1176v-258h-615v-342h490v-241h-490v-365h650v-258h-981v344h-447l-158 -344h-321zM615 573h340v633h-50z" />
    <glyph glyph-name="Ccedilla" unicode="&#xc7;" horiz-adv-x="1506" 
d="M531 -268h151c6 -39 39 -64 80 -64c40 0 70 24 70 66c0 43 -32 65 -72 65c-21 0 -43 -6 -61 -20l-74 71l80 132c-429 42 -629 346 -629 757c0 425 295 748 727 748c283 0 521 -121 633 -391l-270 -117c-59 139 -184 246 -340 246c-287 0 -400 -247 -400 -497
c0 -258 120 -482 402 -482c185 0 295 96 356 266l270 -117c-85 -280 -339 -413 -618 -418l-45 -73c9 1 17 1 26 1c106 0 187 -62 187 -173c0 -133 -116 -185 -230 -185c-121 0 -227 59 -243 185z" />
    <glyph glyph-name="Egrave" unicode="&#xc8;" horiz-adv-x="1248" 
d="M568 1563l-203 284h319l107 -284h-223zM152 0v1464h995v-258h-665v-342h540v-241h-540v-365h698v-258h-1028z" />
    <glyph glyph-name="Eacute" unicode="&#xc9;" horiz-adv-x="1248" 
d="M537 1563l108 284h322l-207 -284h-223zM152 0v1464h995v-258h-665v-342h540v-241h-540v-365h698v-258h-1028z" />
    <glyph glyph-name="Ecircumflex" unicode="&#xca;" horiz-adv-x="1248" 
d="M312 1563l229 284h252l221 -284h-213l-139 108l-142 -108h-208zM152 0v1464h995v-258h-665v-342h540v-241h-540v-365h698v-258h-1028z" />
    <glyph glyph-name="Edieresis" unicode="&#xcb;" horiz-adv-x="1248" 
d="M291 1726c0 81 70 146 152 146c81 0 151 -66 151 -148s-69 -149 -150 -149s-153 68 -153 151zM733 1724c0 82 69 148 150 148c82 0 151 -65 151 -147c0 -81 -68 -150 -150 -150c-80 0 -151 66 -151 149zM152 0v1464h995v-258h-665v-342h540v-241h-540v-365h698v-258
h-1028z" />
    <glyph glyph-name="Igrave" unicode="&#xcc;" horiz-adv-x="654" 
d="M230 1563l-203 284h319l107 -284h-223zM160 0v1464h334v-1464h-334z" />
    <glyph glyph-name="Iacute" unicode="&#xcd;" horiz-adv-x="654" 
d="M199 1563l108 284h322l-207 -284h-223zM160 0v1464h334v-1464h-334z" />
    <glyph glyph-name="Icircumflex" unicode="&#xce;" horiz-adv-x="654" 
d="M-26 1563l229 284h252l221 -284h-213l-139 108l-141 -108h-209zM160 0v1464h334v-1464h-334z" />
    <glyph glyph-name="Idieresis" unicode="&#xcf;" horiz-adv-x="654" 
d="M-17 1726c0 81 70 146 152 146c81 0 151 -66 151 -148s-69 -149 -150 -149s-153 68 -153 151zM376 1724c0 82 67 148 149 148s152 -65 152 -148c0 -82 -70 -149 -152 -149c-81 0 -149 68 -149 149zM160 0v1464h334v-1464h-334z" />
    <glyph glyph-name="Eth" unicode="&#xd0;" horiz-adv-x="1571" 
d="M191 0v621h-133v229h133v614h520c464 0 768 -232 768 -716c0 -491 -287 -748 -770 -748h-518zM518 258h181c307 0 434 177 434 469c0 305 -112 479 -436 479h-179v-356h310v-229h-310v-363z" />
    <glyph glyph-name="Ntilde" unicode="&#xd1;" horiz-adv-x="1561" 
d="M629 1563h-176c11 137 77 288 224 288c56 0 103 -22 152 -46c48 -24 69 -31 89 -31c47 0 68 40 76 75h178c-11 -134 -82 -286 -228 -286c-56 0 -105 22 -162 50c-41 20 -62 27 -81 27c-42 0 -65 -38 -72 -77zM152 -2v1464h385l577 -964v964h295v-1464h-332l-630 1042
v-1042h-295z" />
    <glyph glyph-name="Ograve" unicode="&#xd2;" horiz-adv-x="1659" 
d="M731 1563l-202 284h319l107 -284h-224zM76 724c0 444 306 761 757 761c434 0 750 -294 750 -737c0 -453 -296 -771 -753 -771c-445 0 -754 301 -754 747zM834 242c281 0 403 232 403 493c0 253 -115 488 -407 488c-284 0 -408 -224 -408 -481c0 -258 125 -500 412 -500z
" />
    <glyph glyph-name="Oacute" unicode="&#xd3;" horiz-adv-x="1659" 
d="M701 1563l108 284h322l-207 -284h-223zM76 724c0 444 306 761 757 761c434 0 750 -294 750 -737c0 -453 -296 -771 -753 -771c-445 0 -754 301 -754 747zM834 242c281 0 403 232 403 493c0 253 -115 488 -407 488c-284 0 -408 -224 -408 -481c0 -258 125 -500 412 -500z
" />
    <glyph glyph-name="Ocircumflex" unicode="&#xd4;" horiz-adv-x="1659" 
d="M475 1563l230 284h252l221 -284h-213l-139 108l-142 -108h-209zM76 724c0 444 306 761 757 761c434 0 750 -294 750 -737c0 -453 -296 -771 -753 -771c-445 0 -754 301 -754 747zM834 242c281 0 403 232 403 493c0 253 -115 488 -407 488c-284 0 -408 -224 -408 -481
c0 -258 125 -500 412 -500z" />
    <glyph glyph-name="Otilde" unicode="&#xd5;" horiz-adv-x="1659" 
d="M645 1563h-176c11 138 77 288 224 288c56 0 103 -22 140 -40c60 -30 81 -37 101 -37c47 0 68 40 76 75h178c-11 -133 -82 -286 -228 -286c-56 0 -105 22 -162 50c-41 20 -62 27 -81 27c-42 0 -64 -39 -72 -77zM76 722c0 444 306 761 757 761c434 0 750 -294 750 -737
c0 -453 -296 -771 -753 -771c-445 0 -754 301 -754 747zM834 240c281 0 403 232 403 493c0 253 -115 488 -407 488c-284 0 -408 -224 -408 -481c0 -258 125 -500 412 -500z" />
    <glyph glyph-name="Odieresis" unicode="&#xd6;" horiz-adv-x="1659" 
d="M455 1726c0 80 69 146 150 146s153 -66 153 -148s-71 -149 -151 -149c-81 0 -152 69 -152 151zM897 1724c0 82 69 148 150 148c82 0 151 -65 151 -147c0 -81 -68 -150 -150 -150c-80 0 -151 66 -151 149zM76 724c0 444 306 761 757 761c434 0 750 -294 750 -737
c0 -453 -296 -771 -753 -771c-445 0 -754 301 -754 747zM834 242c281 0 403 232 403 493c0 253 -115 488 -407 488c-284 0 -408 -224 -408 -481c0 -258 125 -500 412 -500z" />
    <glyph glyph-name="multiply" unicode="&#xd7;" horiz-adv-x="1110" 
d="M84 373l313 313l-317 315l157 160l316 -317l315 313l158 -158l-313 -313l317 -315l-162 -160l-315 317l-311 -313z" />
    <glyph glyph-name="Oslash" unicode="&#xd8;" horiz-adv-x="1659" 
d="M62 43l178 190c-114 136 -164 315 -164 493c0 442 306 759 751 759c164 0 323 -43 457 -133l156 166l111 -111l-150 -160c124 -137 182 -316 182 -499c0 -456 -294 -771 -749 -771c-176 0 -346 47 -484 148l-178 -191zM465 475l621 664c-72 59 -164 84 -259 84
c-282 0 -409 -222 -409 -490c0 -83 12 -174 47 -258zM1184 1014l-627 -670c76 -72 174 -102 276 -102c282 0 408 231 408 485c0 99 -14 198 -57 287z" />
    <glyph glyph-name="Ugrave" unicode="&#xd9;" horiz-adv-x="1502" 
d="M652 1563l-203 284h319l107 -284h-223zM140 1464h333v-872c0 -198 42 -350 276 -350c237 0 279 156 279 362v860h334v-880c0 -400 -224 -607 -614 -607c-389 0 -608 205 -608 594v893z" />
    <glyph glyph-name="Uacute" unicode="&#xda;" horiz-adv-x="1502" 
d="M621 1563l108 284h322l-207 -284h-223zM140 1464h333v-872c0 -198 42 -350 276 -350c237 0 279 156 279 362v860h334v-880c0 -400 -224 -607 -614 -607c-389 0 -608 205 -608 594v893z" />
    <glyph glyph-name="Ucircumflex" unicode="&#xdb;" horiz-adv-x="1502" 
d="M396 1563l229 284h252l221 -284h-213l-139 108l-142 -108h-208zM140 1464h333v-872c0 -198 42 -350 276 -350c237 0 279 156 279 362v860h334v-880c0 -400 -224 -607 -614 -607c-389 0 -608 205 -608 594v893z" />
    <glyph glyph-name="Udieresis" unicode="&#xdc;" horiz-adv-x="1502" 
d="M375 1725c0 82 70 147 151 147c82 0 152 -67 152 -148s-69 -149 -150 -149c-80 0 -153 67 -153 150zM817 1724c0 82 69 148 150 148c82 0 151 -65 151 -147c0 -81 -68 -150 -150 -150c-80 0 -151 66 -151 149zM140 1464h333v-872c0 -198 42 -350 276 -350
c237 0 279 156 279 362v860h334v-880c0 -400 -224 -607 -614 -607c-389 0 -608 205 -608 594v893z" />
    <glyph glyph-name="Yacute" unicode="&#xdd;" horiz-adv-x="1315" 
d="M549 1563l108 284h322l-207 -284h-223zM504 0v631l-483 833h364l297 -561l291 561h322l-457 -833v-631h-334z" />
    <glyph glyph-name="Thorn" unicode="&#xde;" horiz-adv-x="1270" 
d="M152 0v1464h330v-252h176c306 0 559 -105 559 -451c0 -339 -244 -462 -549 -462h-186v-299h-330zM482 532h167c148 0 248 61 248 227c0 160 -93 212 -248 212h-167v-439z" />
    <glyph glyph-name="germandbls" unicode="&#xdf;" horiz-adv-x="1260" 
d="M127 0v1130c0 300 225 453 509 453c236 0 452 -105 452 -373c0 -150 -106 -264 -244 -309c211 -48 356 -210 356 -430c0 -297 -149 -491 -460 -491c-63 0 -128 8 -191 26l90 207c15 -2 31 -3 46 -3c158 0 214 122 214 264c0 212 -124 296 -325 296v225
c124 0 233 63 233 199c0 125 -64 184 -188 184c-133 0 -197 -102 -197 -225v-1153h-295z" />
    <glyph glyph-name="agrave" unicode="&#xe0;" horiz-adv-x="1147" 
d="M481 1217l-213 327h312l117 -327h-216zM740 0v129c-78 -113 -191 -152 -318 -152c-208 0 -364 104 -364 318c0 287 282 341 525 344l152 2c1 142 -14 240 -182 240c-94 0 -187 -43 -219 -138l-227 99c70 193 287 254 480 254c260 0 441 -111 441 -398v-698h-288zM735 465
h-114c-106 0 -273 -8 -273 -152c0 -94 72 -129 157 -129c115 0 230 63 230 191v90z" />
    <glyph glyph-name="aacute" unicode="&#xe1;" horiz-adv-x="1147" 
d="M459 1217l117 327h311l-213 -327h-215zM740 0v129c-78 -113 -191 -152 -318 -152c-208 0 -364 104 -364 318c0 303 316 343 567 345l110 1c1 142 -14 240 -182 240c-94 0 -187 -43 -219 -138l-227 99c70 193 287 254 480 254c260 0 441 -111 441 -398v-698h-288zM735 465
h-114c-106 0 -273 -8 -273 -152c0 -94 72 -129 157 -129c115 0 230 63 230 191v90z" />
    <glyph glyph-name="acircumflex" unicode="&#xe2;" horiz-adv-x="1147" 
d="M215 1219l240 319h223l234 -319h-209l-142 129l-143 -129h-203zM740 0v129c-78 -113 -191 -152 -318 -152c-208 0 -364 104 -364 318c0 298 304 343 550 345l127 1c1 142 -14 240 -182 240c-94 0 -187 -43 -219 -138l-227 99c70 193 287 254 480 254
c260 0 441 -111 441 -398v-698h-288zM735 465h-114c-106 0 -273 -8 -273 -152c0 -94 72 -129 157 -129c115 0 230 63 230 191v90z" />
    <glyph glyph-name="atilde" unicode="&#xe3;" horiz-adv-x="1147" 
d="M398 1227h-170c10 129 70 289 218 289c54 0 100 -21 143 -43c53 -26 73 -33 93 -33c47 0 68 41 76 76h172c-11 -132 -74 -291 -222 -291c-55 0 -101 22 -149 46c-46 23 -67 30 -86 30c-44 0 -68 -40 -75 -74zM740 0v129c-78 -113 -191 -152 -318 -152
c-208 0 -364 104 -364 318c0 299 306 343 556 345l121 1c1 142 -14 240 -182 240c-94 0 -187 -43 -219 -138l-227 99c70 193 287 254 480 254c260 0 441 -111 441 -398v-698h-288zM735 465h-114c-106 0 -273 -8 -273 -152c0 -94 72 -129 157 -129c115 0 230 63 230 191v90z
" />
    <glyph glyph-name="adieresis" unicode="&#xe4;" horiz-adv-x="1147" 
d="M635 1369c0 83 70 148 152 148s151 -65 151 -148c0 -82 -69 -147 -150 -147c-82 0 -153 64 -153 147zM217 1369c0 83 70 148 152 148s151 -65 151 -148c0 -82 -69 -147 -150 -147c-82 0 -153 64 -153 147zM740 0v129c-78 -113 -191 -152 -318 -152
c-208 0 -364 104 -364 318c0 293 294 343 541 345l136 1c1 142 -14 240 -182 240c-94 0 -187 -43 -219 -138l-227 99c70 193 287 254 480 254c260 0 441 -111 441 -398v-698h-288zM735 465h-114c-106 0 -273 -8 -273 -152c0 -94 72 -129 157 -129c115 0 230 63 230 191v90z
" />
    <glyph glyph-name="aring" unicode="&#xe5;" horiz-adv-x="1147" 
d="M344 1424c0 126 110 227 234 227c125 0 233 -101 233 -225c0 -126 -110 -228 -233 -228c-124 0 -234 101 -234 226zM578 1317c60 0 98 51 98 107c0 57 -37 108 -98 108s-99 -51 -99 -108c0 -56 39 -107 99 -107zM740 0v129c-78 -113 -191 -152 -318 -152
c-208 0 -364 104 -364 318c0 295 298 343 547 345l130 1c1 142 -14 240 -182 240c-94 0 -187 -43 -219 -138l-227 99c70 193 287 254 480 254c260 0 441 -111 441 -398v-698h-288zM735 465h-114c-106 0 -273 -8 -273 -152c0 -94 72 -129 157 -129c115 0 230 63 230 191v90z
" />
    <glyph glyph-name="ae" unicode="&#xe6;" horiz-adv-x="1827" 
d="M336 743l-227 99c70 194 271 254 461 254c127 0 266 -27 340 -144c92 99 217 144 350 144c334 0 510 -223 510 -545v-80h-752c8 -161 92 -283 270 -283c110 0 204 47 261 150l208 -90c-69 -203 -281 -271 -469 -271c-172 0 -336 57 -430 199
c-103 -147 -247 -199 -422 -199c-204 0 -380 94 -380 321c0 292 289 340 536 348l143 1c1 144 -20 234 -186 234c-96 0 -181 -43 -213 -138zM1022 647h459c-10 138 -68 244 -216 244c-150 0 -227 -110 -243 -244zM735 469h-120c-105 0 -269 -8 -269 -157
c0 -93 65 -128 156 -128c119 0 233 58 233 191v94z" />
    <glyph glyph-name="ccedilla" unicode="&#xe7;" horiz-adv-x="1154" 
d="M332 -268h152c6 -38 39 -64 79 -64c39 0 70 25 70 68c0 41 -31 63 -72 63c-21 0 -43 -6 -61 -20l-74 71l80 134c-295 45 -446 266 -446 555c0 322 229 557 562 557c203 0 407 -87 474 -303l-229 -101c-44 113 -127 170 -244 170c-200 0 -260 -168 -260 -336
c0 -174 65 -325 264 -325c134 0 214 68 258 194l219 -96c-59 -216 -256 -314 -467 -322l-45 -73c9 1 17 1 26 1c107 0 187 -61 187 -173c0 -134 -116 -185 -230 -185c-122 0 -227 58 -243 185z" />
    <glyph glyph-name="egrave" unicode="&#xe8;" horiz-adv-x="1190" 
d="M508 1217l-213 327h311l117 -327h-215zM887 326l219 -97c-83 -193 -294 -252 -477 -252c-354 0 -569 219 -569 562c0 321 228 557 553 557c208 0 395 -96 475 -292c45 -110 45 -223 45 -335h-772c8 -165 91 -281 266 -281c116 0 204 30 260 138zM365 651h479
c-8 147 -78 240 -225 240c-155 0 -233 -104 -254 -240z" />
    <glyph glyph-name="eacute" unicode="&#xe9;" horiz-adv-x="1190" 
d="M486 1217l116 327h312l-213 -327h-215zM887 326l219 -97c-83 -193 -294 -252 -477 -252c-354 0 -569 219 -569 562c0 321 228 557 553 557c208 0 395 -96 475 -292c45 -110 45 -223 45 -335h-772c8 -165 91 -281 266 -281c116 0 204 30 260 138zM365 651h479
c-8 147 -78 240 -225 240c-155 0 -233 -104 -254 -240z" />
    <glyph glyph-name="ecircumflex" unicode="&#xea;" horiz-adv-x="1190" 
d="M256 1219l240 319h223l234 -319h-209l-142 129l-143 -129h-203zM887 326l219 -97c-83 -193 -294 -252 -477 -252c-354 0 -569 219 -569 562c0 321 228 557 553 557c208 0 395 -96 475 -292c45 -110 45 -223 45 -335h-772c8 -165 91 -281 266 -281c116 0 204 30 260 138z
M365 651h479c-8 147 -78 240 -225 240c-155 0 -233 -104 -254 -240z" />
    <glyph glyph-name="edieresis" unicode="&#xeb;" horiz-adv-x="1190" 
d="M244 1369c0 83 70 148 152 148c81 0 151 -66 151 -148s-70 -147 -151 -147c-82 0 -152 64 -152 147zM662 1369c0 81 68 148 150 148c81 0 153 -64 153 -148c0 -83 -71 -147 -152 -147c-82 0 -151 64 -151 147zM887 326l219 -97c-83 -193 -294 -252 -477 -252
c-354 0 -569 219 -569 562c0 321 228 557 553 557c208 0 395 -96 475 -292c45 -110 45 -223 45 -335h-772c8 -165 91 -281 266 -281c116 0 204 30 260 138zM365 651h479c-8 147 -78 240 -225 240c-155 0 -233 -104 -254 -240z" />
    <glyph glyph-name="igrave" unicode="&#xec;" horiz-adv-x="564" 
d="M187 1217l-213 327h311l117 -327h-215zM133 0v1071h295v-1071h-295z" />
    <glyph glyph-name="iacute" unicode="&#xed;" horiz-adv-x="564" 
d="M164 1217l117 327h311l-213 -327h-215zM133 0v1071h295v-1071h-295z" />
    <glyph glyph-name="icircumflex" unicode="&#xee;" horiz-adv-x="564" 
d="M-65 1219l239 319h224l233 -319h-209l-141 129l-144 -129h-202zM133 0v1071h295v-1071h-295z" />
    <glyph glyph-name="idieresis" unicode="&#xef;" horiz-adv-x="564" 
d="M-53 1377c0 79 64 140 141 140c79 0 145 -63 145 -141c0 -79 -68 -139 -145 -139c-76 0 -141 61 -141 140zM314 1376c0 78 65 141 142 141s144 -63 144 -141s-67 -139 -144 -139s-142 61 -142 139zM133 0v1071h295v-1071h-295z" />
    <glyph glyph-name="eth" unicode="&#xf0;" horiz-adv-x="1250" 
d="M316 1151l-54 117l217 94c-79 70 -165 133 -251 194h337c51 -28 99 -60 144 -96l203 88l51 -118l-142 -62c213 -197 367 -464 367 -760v-45c0 -343 -220 -586 -566 -586c-334 0 -562 227 -562 555c0 289 176 553 483 553c104 0 183 -31 252 -110
c-52 110 -128 205 -213 291zM623 203c194 0 264 156 264 325c0 173 -57 342 -259 342c-192 0 -265 -153 -265 -323c0 -175 58 -344 260 -344z" />
    <glyph glyph-name="ntilde" unicode="&#xf1;" horiz-adv-x="1258" 
d="M443 1227h-170c10 129 70 289 218 289c54 0 100 -21 143 -43c53 -26 73 -33 93 -33c47 0 68 41 76 76h172c-11 -132 -74 -291 -222 -291c-55 0 -101 22 -149 46c-46 23 -67 30 -86 30c-44 0 -68 -40 -75 -74zM125 0v1071h297v-170c68 131 204 195 354 195
c248 0 365 -176 365 -414v-682h-297v639c0 136 -57 215 -193 215c-150 0 -229 -96 -229 -236v-618h-297z" />
    <glyph glyph-name="ograve" unicode="&#xf2;" horiz-adv-x="1250" 
d="M527 1217l-213 327h311l117 -327h-215zM60 524c0 339 224 572 561 572c328 0 567 -221 567 -549c0 -338 -225 -570 -561 -570c-326 0 -567 219 -567 547zM625 203c192 0 262 156 262 334c0 165 -60 333 -261 333c-192 0 -263 -154 -263 -333c0 -163 59 -334 262 -334z
" />
    <glyph glyph-name="oacute" unicode="&#xf3;" horiz-adv-x="1250" 
d="M504 1217l117 327h311l-213 -327h-215zM60 524c0 339 224 572 561 572c328 0 567 -221 567 -549c0 -338 -225 -570 -561 -570c-326 0 -567 219 -567 547zM625 203c192 0 262 156 262 334c0 165 -60 333 -261 333c-192 0 -263 -154 -263 -333c0 -163 59 -334 262 -334z
" />
    <glyph glyph-name="ocircumflex" unicode="&#xf4;" horiz-adv-x="1250" 
d="M275 1219l239 319h224l233 -319h-209l-141 129l-144 -129h-202zM60 524c0 339 224 572 561 572c328 0 567 -221 567 -549c0 -338 -225 -570 -561 -570c-326 0 -567 219 -567 547zM625 203c192 0 262 156 262 334c0 165 -60 333 -261 333c-192 0 -263 -154 -263 -333
c0 -163 59 -334 262 -334z" />
    <glyph glyph-name="otilde" unicode="&#xf5;" horiz-adv-x="1250" 
d="M443 1227h-170c10 129 70 289 218 289c54 0 100 -21 143 -43c53 -26 73 -33 93 -33c47 0 68 41 76 76h172c-11 -132 -74 -291 -222 -291c-55 0 -101 22 -149 46c-46 23 -67 30 -86 30c-44 0 -68 -40 -75 -74zM60 524c0 339 224 572 561 572c328 0 567 -221 567 -549
c0 -338 -225 -570 -561 -570c-326 0 -567 219 -567 547zM625 203c192 0 262 156 262 334c0 165 -60 333 -261 333c-192 0 -263 -154 -263 -333c0 -163 59 -334 262 -334z" />
    <glyph glyph-name="odieresis" unicode="&#xf6;" horiz-adv-x="1250" 
d="M262 1369c0 83 70 148 152 148s151 -65 151 -148c0 -82 -69 -147 -150 -147c-82 0 -153 64 -153 147zM680 1369c0 83 70 148 152 148s151 -65 151 -148c0 -82 -69 -147 -150 -147c-82 0 -153 64 -153 147zM60 524c0 339 224 572 561 572c328 0 567 -221 567 -549
c0 -338 -225 -570 -561 -570c-326 0 -567 219 -567 547zM625 203c192 0 262 156 262 334c0 165 -60 333 -261 333c-192 0 -263 -154 -263 -333c0 -163 59 -334 262 -334z" />
    <glyph glyph-name="divide" unicode="&#xf7;" horiz-adv-x="1149" 
d="M403 1106c0 94 76 168 172 168c94 0 170 -70 170 -167s-77 -169 -171 -169c-95 0 -171 74 -171 168zM84 592v213h981v-213h-981zM403 291c0 94 77 168 170 168c94 0 172 -73 172 -168c0 -96 -77 -168 -171 -168c-95 0 -171 74 -171 168z" />
    <glyph glyph-name="oslash" unicode="&#xf8;" horiz-adv-x="1250" 
d="M39 12l144 156c-85 101 -123 227 -123 364c0 331 224 564 563 564c119 0 234 -29 332 -95l135 146l100 -90l-133 -144c91 -100 131 -232 131 -371c0 -331 -225 -565 -562 -565c-123 0 -243 31 -343 100l-143 -155zM381 383l404 434c-45 37 -103 53 -164 53
c-187 0 -260 -152 -260 -322c0 -56 1 -112 20 -165zM862 703l-409 -441c47 -42 111 -59 174 -59c191 0 262 156 262 334c0 52 -6 109 -27 166z" />
    <glyph glyph-name="ugrave" unicode="&#xf9;" horiz-adv-x="1252" 
d="M533 1217l-213 327h311l117 -327h-215zM832 0v168c-69 -131 -195 -191 -343 -191c-246 0 -372 166 -372 404v690h295v-649c0 -131 57 -215 194 -215c146 0 226 95 226 235v629h295v-1071h-295z" />
    <glyph glyph-name="uacute" unicode="&#xfa;" horiz-adv-x="1252" 
d="M510 1217l117 327h311l-213 -327h-215zM832 0v168c-69 -131 -195 -191 -343 -191c-246 0 -372 166 -372 404v690h295v-649c0 -131 57 -215 194 -215c146 0 226 95 226 235v629h295v-1071h-295z" />
    <glyph glyph-name="ucircumflex" unicode="&#xfb;" horiz-adv-x="1252" 
d="M281 1219l239 319h224l233 -319h-209l-141 129l-143 -129h-203zM832 0v168c-69 -131 -195 -191 -343 -191c-246 0 -372 166 -372 404v690h295v-649c0 -131 57 -215 194 -215c146 0 226 95 226 235v629h295v-1071h-295z" />
    <glyph glyph-name="udieresis" unicode="&#xfc;" horiz-adv-x="1252" 
d="M686 1369c0 83 70 148 152 148s151 -65 151 -148c0 -82 -69 -147 -150 -147c-82 0 -153 64 -153 147zM269 1369c0 81 68 148 150 148c81 0 153 -64 153 -148c0 -83 -71 -147 -152 -147c-82 0 -151 64 -151 147zM832 0v168c-69 -131 -195 -191 -343 -191
c-246 0 -372 166 -372 404v690h295v-649c0 -131 57 -215 194 -215c146 0 226 95 226 235v629h295v-1071h-295z" />
    <glyph glyph-name="yacute" unicode="&#xfd;" horiz-adv-x="1149" 
d="M475 1217l117 327h311l-213 -327h-215zM260 -365l189 474l-426 962h319l260 -643l240 643h285l-580 -1436h-287z" />
    <glyph glyph-name="thorn" unicode="&#xfe;" horiz-adv-x="1293" 
d="M125 -365v1921h297v-653c71 118 205 193 342 193c316 0 467 -261 467 -549c0 -295 -137 -570 -467 -570c-139 0 -272 63 -342 187v-529h-297zM673 209c196 0 257 150 257 321c0 167 -58 338 -257 338c-189 0 -261 -154 -261 -323c0 -177 60 -336 261 -336z" />
    <glyph glyph-name="ydieresis" unicode="&#xff;" horiz-adv-x="1149" 
d="M652 1369c0 81 68 148 150 148c81 0 153 -64 153 -148c0 -83 -71 -147 -152 -147c-82 0 -151 64 -151 147zM234 1369c0 81 68 148 150 148c81 0 153 -64 153 -148c0 -83 -71 -147 -152 -147c-82 0 -151 64 -151 147zM260 -365l189 474l-426 962h319l260 -643l240 643h285
l-580 -1436h-287z" />
    <glyph glyph-name="Amacron" unicode="&#x100;" horiz-adv-x="1463" 
d="M420 1591v187h619v-187h-619zM37 0l481 1464h433l475 -1464h-346l-93 305h-544l-95 -305h-311zM514 541h400l-199 653z" />
    <glyph glyph-name="amacron" unicode="&#x101;" horiz-adv-x="1147" 
d="M277 1280v178h596v-178h-596zM740 0v129c-78 -113 -191 -152 -318 -152c-208 0 -364 104 -364 318c0 298 301 345 549 347l128 1c1 141 -14 238 -182 238c-94 0 -187 -43 -219 -137l-227 98c70 193 287 254 480 254c260 0 441 -111 441 -396v-700h-288zM735 465h-114
c-106 0 -273 -8 -273 -152c0 -95 71 -129 157 -129c116 0 230 61 230 191v90z" />
    <glyph glyph-name="Abreve" unicode="&#x102;" horiz-adv-x="1463" 
d="M414 1849h199c10 -63 47 -106 114 -106s109 42 121 106h197c-11 -178 -140 -299 -320 -299c-179 0 -300 120 -311 299zM37 0l481 1464h433l475 -1464h-346l-93 305h-544l-95 -305h-311zM514 541h400l-199 653z" />
    <glyph glyph-name="abreve" unicode="&#x103;" horiz-adv-x="1147" 
d="M260 1530h195c8 -68 47 -111 117 -111c71 0 112 43 125 111h190c-11 -179 -133 -305 -319 -305c-183 0 -295 123 -308 305zM740 0v129c-78 -113 -191 -152 -318 -152c-208 0 -364 104 -364 318c0 303 316 343 567 345l110 1c1 142 -14 240 -182 240
c-94 0 -187 -43 -219 -138l-227 99c70 193 287 254 480 254c260 0 441 -111 441 -398v-698h-288zM735 465h-114c-106 0 -273 -8 -273 -152c0 -95 71 -129 157 -129c116 0 230 61 230 191v90z" />
    <glyph glyph-name="Aogonek" unicode="&#x104;" horiz-adv-x="1463" 
d="M37 0l481 1464h433l469 -1444c-99 -62 -140 -109 -140 -161c0 -43 27 -62 72 -62c23 0 49 5 74 15v-154c-55 -25 -106 -31 -166 -31c-105 0 -240 38 -240 161c0 101 91 175 170 212h-110l-93 305h-544l-95 -305h-311zM514 541h400l-199 653z" />
    <glyph glyph-name="aogonek" unicode="&#x105;" horiz-adv-x="1147" 
d="M740 0v129c-79 -112 -191 -152 -319 -152c-207 0 -363 104 -363 317c0 303 316 344 563 346l114 1c0 137 -7 240 -167 240c-103 0 -188 -43 -220 -138l-227 99c73 193 269 254 464 254c262 0 443 -111 443 -398v-682c-54 -35 -131 -90 -131 -162c0 -42 26 -63 72 -63
c23 0 49 5 74 14v-147c-55 -25 -107 -31 -166 -31c-104 0 -230 39 -230 162c0 102 88 171 170 211h-77zM735 465h-114c-106 0 -273 -8 -273 -152c0 -94 72 -129 157 -129c115 0 230 63 230 191v90z" />
    <glyph glyph-name="Cacute" unicode="&#x106;" horiz-adv-x="1506" 
d="M674 1563l109 284h321l-207 -284h-223zM1184 512l270 -117c-85 -291 -357 -418 -643 -418c-480 0 -735 292 -735 762c0 425 295 748 727 748c284 0 521 -121 633 -391l-270 -117c-58 138 -185 246 -340 246c-287 0 -400 -247 -400 -497c0 -258 120 -482 403 -482
c185 0 294 95 355 266z" />
    <glyph glyph-name="cacute" unicode="&#x107;" horiz-adv-x="1154" 
d="M471 1217l117 327h311l-213 -327h-215zM885 395l219 -96c-64 -227 -272 -322 -495 -322c-342 0 -549 222 -549 562c0 322 229 557 562 557c203 0 407 -87 474 -303l-229 -101c-42 114 -127 170 -243 170c-201 0 -261 -168 -261 -336c0 -173 65 -325 264 -325
c133 0 216 68 258 194z" />
    <glyph glyph-name="Ccircumflex" unicode="&#x108;" horiz-adv-x="1506" 
d="M449 1563l229 284h252l221 -284h-213l-139 108l-141 -108h-209zM1184 512l270 -117c-85 -291 -357 -418 -643 -418c-480 0 -735 292 -735 762c0 425 295 748 727 748c284 0 521 -121 633 -391l-270 -117c-58 138 -185 246 -340 246c-287 0 -400 -247 -400 -497
c0 -258 120 -482 403 -482c185 0 294 95 355 266z" />
    <glyph glyph-name="ccircumflex" unicode="&#x109;" horiz-adv-x="1154" 
d="M230 1219l239 319h223l234 -319h-209l-141 129l-144 -129h-202zM885 395l219 -96c-64 -227 -272 -322 -495 -322c-342 0 -549 222 -549 562c0 322 229 557 562 557c203 0 407 -87 474 -303l-229 -101c-42 114 -127 170 -243 170c-201 0 -261 -168 -261 -336
c0 -173 65 -325 264 -325c133 0 216 68 258 194z" />
    <glyph glyph-name="Cdotaccent" unicode="&#x10a;" horiz-adv-x="1506" 
d="M631 1731c0 92 77 157 164 157c89 0 166 -68 166 -157c0 -90 -76 -158 -166 -158c-88 0 -164 66 -164 158zM1184 512l270 -117c-85 -291 -357 -418 -643 -418c-480 0 -735 292 -735 762c0 425 295 748 727 748c284 0 521 -121 633 -391l-270 -117
c-58 138 -185 246 -340 246c-287 0 -400 -247 -400 -497c0 -258 120 -482 403 -482c185 0 294 95 355 266z" />
    <glyph glyph-name="cdotaccent" unicode="&#x10b;" horiz-adv-x="1154" 
d="M412 1382c0 92 76 158 166 158s164 -66 164 -158c0 -91 -75 -157 -164 -157s-166 65 -166 157zM885 395l219 -96c-64 -227 -272 -322 -495 -322c-342 0 -549 222 -549 562c0 322 229 557 562 557c203 0 407 -87 474 -303l-229 -101c-42 114 -127 170 -243 170
c-201 0 -261 -168 -261 -336c0 -173 65 -325 264 -325c133 0 216 68 258 194z" />
    <glyph glyph-name="Ccaron" unicode="&#x10c;" horiz-adv-x="1506" 
d="M670 1563l-221 284h213l141 -106l139 106h209l-229 -284h-252zM1184 512l270 -117c-85 -291 -357 -418 -643 -418c-480 0 -735 292 -735 762c0 425 295 748 727 748c284 0 521 -121 633 -391l-270 -117c-58 138 -185 246 -340 246c-287 0 -400 -247 -400 -497
c0 -258 120 -482 403 -482c185 0 294 95 355 266z" />
    <glyph glyph-name="ccaron" unicode="&#x10d;" horiz-adv-x="1154" 
d="M463 1219l-233 319h209l141 -129l141 129h205l-240 -319h-223zM885 395l219 -96c-64 -227 -272 -322 -495 -322c-342 0 -549 222 -549 562c0 322 229 557 562 557c203 0 407 -87 474 -303l-229 -101c-42 114 -127 170 -243 170c-201 0 -261 -168 -261 -336
c0 -173 65 -325 264 -325c133 0 216 68 258 194z" />
    <glyph glyph-name="Dcaron" unicode="&#x10e;" horiz-adv-x="1516" 
d="M557 1563l-221 284h213l141 -106l140 106h209l-230 -284h-252zM152 0v1464h520c464 0 768 -232 768 -716c0 -491 -287 -748 -770 -748h-518zM484 258h176c305 0 434 178 434 469c0 305 -115 479 -438 479h-172v-948z" />
    <glyph glyph-name="dcaron" unicode="&#x10f;" horiz-adv-x="1517" 
d="M891 0v178c-65 -126 -204 -201 -344 -201c-314 0 -485 249 -485 549c0 293 164 570 491 570c144 0 267 -54 338 -185v645h295v-1556h-295zM1270 1200l20 356h244l-100 -356h-164zM637 209c190 0 262 150 262 321c0 175 -50 338 -254 338c-195 0 -280 -150 -280 -329
c0 -169 76 -330 272 -330z" />
    <glyph glyph-name="Dcroat" unicode="&#x110;" horiz-adv-x="1571" 
d="M191 0v621h-133v229h133v614h520c464 0 768 -232 768 -716c0 -491 -287 -748 -770 -748h-518zM518 258h181c307 0 434 177 434 469c0 305 -112 479 -436 479h-179v-356h310v-229h-310v-363z" />
    <glyph glyph-name="dcroat" unicode="&#x111;" horiz-adv-x="1313" 
d="M891 0v178c-65 -126 -204 -201 -344 -201c-314 0 -485 249 -485 549c0 293 164 570 491 570c144 0 267 -54 338 -185v312h-334v170h334v163h295v-163h131v-170h-131v-1223h-295zM637 209c190 0 262 150 262 321c0 175 -50 338 -254 338c-195 0 -280 -150 -280 -329
c0 -169 76 -330 272 -330z" />
    <glyph glyph-name="Emacron" unicode="&#x112;" horiz-adv-x="1248" 
d="M355 1591v187h618v-187h-618zM152 0v1464h995v-258h-665v-342h540v-241h-540v-365h698v-258h-1028z" />
    <glyph glyph-name="emacron" unicode="&#x113;" horiz-adv-x="1190" 
d="M305 1280v178h596v-178h-596zM881 326l219 -97c-85 -191 -287 -252 -471 -252c-341 0 -569 209 -569 549c0 327 212 570 558 570c328 0 515 -218 515 -545v-82h-772c5 -163 95 -281 266 -281c115 0 201 30 254 138zM365 651h479c-8 147 -78 240 -225 240
c-155 0 -233 -104 -254 -240z" />
    <glyph glyph-name="Ebreve" unicode="&#x114;" horiz-adv-x="1248" 
d="M352 1849h199c10 -64 48 -106 115 -106s108 43 121 106h196c-11 -178 -138 -299 -319 -299c-180 0 -299 120 -312 299zM152 0v1464h995v-258h-665v-342h540v-241h-540v-365h698v-258h-1028z" />
    <glyph glyph-name="ebreve" unicode="&#x115;" horiz-adv-x="1190" 
d="M283 1530h194c8 -68 47 -111 117 -111s115 43 125 111h191c-11 -178 -135 -305 -321 -305c-182 0 -295 122 -306 305zM887 326l219 -97c-83 -193 -294 -252 -477 -252c-354 0 -569 219 -569 562c0 321 228 557 553 557c208 0 395 -96 475 -292c45 -110 45 -223 45 -335
h-772c8 -165 91 -281 266 -281c116 0 204 30 260 138zM365 651h479c-8 147 -79 240 -227 240c-154 0 -233 -102 -252 -240z" />
    <glyph glyph-name="Edotaccent" unicode="&#x116;" horiz-adv-x="1248" 
d="M498 1731c0 92 77 157 164 157c89 0 166 -68 166 -157c0 -90 -76 -158 -166 -158c-88 0 -164 66 -164 158zM152 0v1464h995v-258h-665v-342h540v-241h-540v-365h698v-258h-1028z" />
    <glyph glyph-name="edotaccent" unicode="&#x117;" horiz-adv-x="1190" 
d="M441 1384c0 91 74 156 165 156c90 0 166 -65 166 -155c0 -92 -80 -160 -168 -160c-86 0 -163 66 -163 159zM881 326l219 -97c-85 -191 -287 -252 -471 -252c-341 0 -569 209 -569 549c0 327 212 570 558 570c328 0 515 -218 515 -545v-82h-772c5 -163 95 -281 266 -281
c115 0 201 30 254 138zM365 651h479c-8 147 -78 240 -225 240c-155 0 -233 -104 -254 -240z" />
    <glyph glyph-name="Eogonek" unicode="&#x118;" horiz-adv-x="1248" 
d="M152 0v1464h995v-258h-665v-342h540v-241h-540v-365h698v-258h-70c-44 -33 -104 -81 -104 -143c0 -41 26 -60 73 -60c21 0 48 4 72 15v-154c-53 -25 -112 -31 -170 -31c-105 0 -235 40 -235 161c0 101 91 175 170 212h-764z" />
    <glyph glyph-name="eogonek" unicode="&#x119;" horiz-adv-x="1190" 
d="M973 -195v-147c-50 -25 -106 -31 -162 -31c-103 0 -231 37 -231 155c0 97 87 164 158 204c-39 -8 -79 -9 -119 -9c-331 0 -559 209 -559 549c0 327 212 570 558 570c328 0 515 -218 515 -545v-82h-772c8 -161 95 -281 266 -281c114 0 227 39 270 154l221 -98
c-22 -50 -78 -109 -135 -169c-118 -126 -155 -179 -155 -225c0 -38 25 -59 71 -59c23 0 49 5 74 14zM365 651h479c-8 147 -78 240 -225 240c-155 0 -233 -104 -254 -240z" />
    <glyph glyph-name="Ecaron" unicode="&#x11a;" horiz-adv-x="1248" 
d="M537 1563l-221 284h213l141 -106l139 106h209l-229 -284h-252zM152 0v1464h995v-258h-665v-342h540v-241h-540v-365h698v-258h-1028z" />
    <glyph glyph-name="ecaron" unicode="&#x11b;" horiz-adv-x="1190" 
d="M490 1219l-234 319h209l141 -129l142 129h205l-240 -319h-223zM881 326l219 -97c-85 -191 -287 -252 -471 -252c-341 0 -569 209 -569 549c0 327 212 570 558 570c328 0 515 -218 515 -545v-82h-772c5 -163 95 -281 266 -281c115 0 201 30 254 138zM365 651h479
c-8 147 -78 240 -225 240c-155 0 -233 -104 -254 -240z" />
    <glyph glyph-name="Gcircumflex" unicode="&#x11c;" horiz-adv-x="1555" 
d="M461 1563l229 284h252l222 -284h-213l-140 108l-141 -108h-209zM852 543v241h627v-548c-171 -176 -415 -259 -662 -259c-467 0 -741 297 -741 762c0 435 309 748 745 748c291 0 502 -110 625 -381l-272 -119c-69 160 -171 238 -341 238c-303 0 -411 -246 -411 -507
c0 -266 112 -485 417 -485c117 0 242 32 343 109v201h-330z" />
    <glyph glyph-name="gcircumflex" unicode="&#x11d;" horiz-adv-x="1291" 
d="M262 1219l240 319h223l234 -319h-209l-142 129l-143 -129h-203zM99 -137l233 102c45 -109 159 -143 268 -143c173 0 271 86 271 262v162c-70 -120 -205 -199 -344 -199c-293 0 -467 234 -467 517c0 278 167 532 474 532c143 0 263 -55 337 -185v160h295v-987
c0 -346 -252 -479 -566 -479c-199 0 -421 53 -501 258zM617 270c171 0 262 130 262 293c0 170 -69 307 -253 307c-181 0 -263 -132 -263 -298c0 -157 73 -302 254 -302z" />
    <glyph glyph-name="Gbreve" unicode="&#x11e;" horiz-adv-x="1555" 
d="M498 1849h199c10 -63 47 -106 114 -106s109 42 121 106h197c-11 -178 -140 -299 -320 -299c-179 0 -300 120 -311 299zM852 543v241h627v-548c-171 -176 -415 -259 -662 -259c-467 0 -741 297 -741 762c0 435 309 748 745 748c291 0 502 -110 625 -381l-272 -119
c-69 160 -171 238 -341 238c-303 0 -411 -246 -411 -507c0 -266 112 -485 417 -485c117 0 242 32 343 109v201h-330z" />
    <glyph glyph-name="gbreve" unicode="&#x11f;" horiz-adv-x="1291" 
d="M332 1530h195c8 -67 46 -111 118 -111c70 0 111 42 123 111h191c-11 -179 -134 -305 -319 -305c-183 0 -297 123 -308 305zM99 -137l233 102c45 -109 159 -143 270 -143c173 0 269 83 269 262v162c-70 -120 -205 -199 -344 -199c-304 0 -467 242 -467 526
c0 276 179 523 479 523c139 0 259 -53 332 -185v160h295v-987c0 -349 -250 -479 -564 -479c-201 0 -423 53 -503 258zM622 270c177 0 257 140 257 305c0 167 -81 295 -260 295c-187 0 -256 -141 -256 -311c0 -155 85 -289 259 -289z" />
    <glyph glyph-name="Gdotaccent" unicode="&#x120;" horiz-adv-x="1555" 
d="M647 1731c0 92 77 157 164 157c89 0 166 -68 166 -157c0 -90 -76 -158 -166 -158c-88 0 -164 66 -164 158zM852 543v241h627v-548c-171 -176 -415 -259 -662 -259c-467 0 -741 297 -741 762c0 435 309 748 745 748c291 0 502 -110 625 -381l-272 -119
c-69 160 -171 238 -341 238c-303 0 -411 -246 -411 -507c0 -266 112 -485 417 -485c117 0 242 32 343 109v201h-330z" />
    <glyph glyph-name="gdotaccent" unicode="&#x121;" horiz-adv-x="1291" 
d="M445 1384c0 92 75 156 165 156c91 0 166 -66 166 -156c0 -91 -78 -159 -167 -159c-87 0 -164 65 -164 159zM99 -137l233 102c45 -109 159 -143 268 -143c173 0 271 86 271 262v162c-70 -120 -205 -199 -344 -199c-293 0 -467 234 -467 517c0 278 167 532 474 532
c143 0 263 -55 337 -185v160h295v-987c0 -346 -252 -479 -566 -479c-199 0 -421 53 -501 258zM617 270c171 0 262 130 262 293c0 170 -69 307 -253 307c-181 0 -263 -132 -263 -298c0 -157 73 -302 254 -302z" />
    <glyph glyph-name="uni0122" unicode="&#x122;" horiz-adv-x="1555" 
d="M852 543v241h627v-548c-171 -176 -415 -259 -662 -259c-467 0 -741 297 -741 762c0 435 309 748 745 748c291 0 502 -110 625 -381l-272 -119c-69 160 -171 238 -341 238c-303 0 -411 -246 -411 -507c0 -266 112 -485 417 -485c117 0 242 32 343 109v201h-330zM600 -412
l97 349l266 -43l-195 -361z" />
    <glyph glyph-name="uni0123" unicode="&#x123;" horiz-adv-x="1291" 
d="M482 1218l194 358l168 -53l-96 -348zM99 -137l233 102c45 -109 159 -143 268 -143c173 0 271 86 271 262v162c-70 -120 -205 -199 -344 -199c-293 0 -467 234 -467 517c0 278 167 532 474 532c143 0 263 -55 337 -185v160h295v-987c0 -346 -252 -479 -566 -479
c-199 0 -421 53 -501 258zM617 270c171 0 262 130 262 293c0 170 -69 307 -253 307c-181 0 -263 -132 -263 -298c0 -157 73 -302 254 -302z" />
    <glyph glyph-name="Hcircumflex" unicode="&#x124;" horiz-adv-x="1573" 
d="M434 1563l230 284h252l221 -284h-213l-139 108l-142 -108h-209zM152 0v1464h332v-598h608v598h332v-1464h-332v604h-608v-604h-332z" />
    <glyph glyph-name="hcircumflex" unicode="&#x125;" horiz-adv-x="1248" 
d="M283 1642l239 304h224l233 -304h-209l-141 156l-143 -156h-203zM125 0v1556h297v-655c68 131 204 195 353 195c249 0 356 -180 356 -414v-682h-297v639c0 131 -48 215 -186 215c-147 0 -226 -96 -226 -236v-618h-297z" />
    <glyph glyph-name="Hbar" unicode="&#x126;" horiz-adv-x="1573" 
d="M152 0v1047h-131v174h131v243h332v-243h608v243h332v-243h131v-174h-131v-1047h-332v604h-608v-604h-332zM484 866h608v181h-608v-181z" />
    <glyph glyph-name="hbar" unicode="&#x127;" horiz-adv-x="1248" 
d="M125 0v1223h-129v170h129v163h297v-163h334v-170h-334v-322c68 131 204 195 353 195c249 0 356 -180 356 -414v-682h-297v639c0 131 -48 215 -186 215c-147 0 -226 -96 -226 -236v-618h-297z" />
    <glyph glyph-name="Itilde" unicode="&#x128;" horiz-adv-x="654" 
d="M148 1563h-176c11 137 76 288 223 288c56 0 104 -22 153 -46s70 -31 90 -31c46 0 66 40 74 75h178c-11 -133 -82 -286 -228 -286c-56 0 -104 22 -158 49c-44 21 -65 28 -84 28c-43 0 -65 -39 -72 -77zM160 -2v1464h334v-1464h-334z" />
    <glyph glyph-name="itilde" unicode="&#x129;" horiz-adv-x="564" 
d="M103 1227h-170c10 129 70 289 218 289c54 0 100 -21 143 -43c53 -26 73 -33 93 -33c47 0 68 41 76 76h172c-11 -132 -74 -291 -222 -291c-55 0 -101 22 -149 46c-46 23 -67 30 -86 30c-44 0 -68 -40 -75 -74zM133 0v1071h295v-1071h-295z" />
    <glyph glyph-name="Imacron" unicode="&#x12a;" horiz-adv-x="654" 
d="M17 1591v187h618v-187h-618zM160 0v1464h334v-1464h-334z" />
    <glyph glyph-name="imacron" unicode="&#x12b;" horiz-adv-x="564" 
d="M49 1280v178h463v-178h-463zM133 0v1071h295v-1071h-295z" />
    <glyph glyph-name="Ibreve" unicode="&#x12c;" horiz-adv-x="654" 
d="M15 1849h198c10 -64 48 -106 115 -106s108 43 121 106h196c-11 -178 -138 -299 -318 -299s-301 120 -312 299zM160 0v1464h334v-1464h-334z" />
    <glyph glyph-name="ibreve" unicode="&#x12d;" horiz-adv-x="564" 
d="M-30 1530h194c8 -68 47 -111 117 -111s113 44 125 111h190c-11 -179 -133 -305 -317 -305c-183 0 -298 125 -309 305zM133 0v1071h295v-1071h-295z" />
    <glyph glyph-name="Iogonek" unicode="&#x12e;" horiz-adv-x="654" 
d="M180 0v1464h335v-1446c-53 -36 -150 -87 -150 -159c0 -43 26 -62 73 -62c21 0 48 4 72 15v-154c-55 -25 -108 -31 -168 -31c-104 0 -237 40 -237 161c0 101 91 175 170 212h-95z" />
    <glyph glyph-name="iogonek" unicode="&#x12f;" horiz-adv-x="564" 
d="M111 1380c0 93 75 160 168 160s170 -66 170 -160c0 -95 -80 -163 -170 -163c-91 0 -168 68 -168 163zM133 0v1071h295v-1057c-51 -35 -125 -90 -125 -159c0 -44 29 -64 80 -64c16 0 42 2 66 14v-147c-51 -25 -107 -31 -164 -31c-107 0 -229 39 -229 161
c0 103 88 175 170 212h-93z" />
    <glyph glyph-name="Idotaccent" unicode="&#x130;" horiz-adv-x="654" 
d="M162 1731c0 92 77 157 164 157c89 0 166 -68 166 -157c0 -90 -76 -158 -166 -158c-88 0 -164 66 -164 158zM160 0v1464h334v-1464h-334z" />
    <glyph glyph-name="dotlessi" unicode="&#x131;" horiz-adv-x="564" 
d="M133 0v1071h295v-1071h-295z" />
    <glyph glyph-name="IJ" unicode="&#x132;" horiz-adv-x="1524" 
d="M666 27v254c59 -23 121 -35 178 -35c156 0 213 91 213 231v987h334v-991c0 -314 -164 -491 -481 -491c-83 0 -169 5 -244 45zM160 0v1464h334v-1464h-334z" />
    <glyph glyph-name="ij" unicode="&#x133;" horiz-adv-x="1137" 
d="M684 1380c0 93 75 160 168 160s170 -66 170 -160c0 -95 -80 -163 -170 -163c-91 0 -168 68 -168 163zM111 1380c0 93 75 160 168 160s170 -66 170 -160c0 -95 -80 -163 -170 -163c-91 0 -168 68 -168 163zM565 -383v221c92 5 142 47 142 142v1091h295v-1089
c0 -287 -182 -362 -437 -365zM133 0v1071h295v-1071h-295z" />
    <glyph glyph-name="Jcircumflex" unicode="&#x134;" horiz-adv-x="924" 
d="M266 1563l230 284h252l221 -284h-213l-139 108l-142 -108h-209zM66 27v254c59 -23 121 -35 178 -35c156 0 213 91 213 231v987h334v-991c0 -315 -164 -491 -482 -491c-83 0 -168 6 -243 45z" />
    <glyph glyph-name="jcircumflex" unicode="&#x135;" horiz-adv-x="564" 
d="M-67 1219l239 319h224l233 -319h-209l-141 129l-144 -129h-202zM-8 -383v221c92 5 141 47 141 142v1091h295v-1089c0 -287 -181 -362 -436 -365z" />
    <glyph glyph-name="uni0136" unicode="&#x136;" horiz-adv-x="1414" 
d="M152 0v1464h332v-630l532 632h352l-600 -694l629 -772h-387l-526 657v-657h-332zM506 -412l96 349l267 -43l-195 -361z" />
    <glyph glyph-name="uni0137" unicode="&#x137;" horiz-adv-x="1125" 
d="M125 0v1556h297v-938l344 453h316l-390 -487l420 -584h-336l-354 506v-506h-297zM375 -412l96 349l267 -43l-195 -361z" />
    <glyph glyph-name="kgreenlandic" unicode="&#x138;" horiz-adv-x="1125" 
d="M125 0v1071h297v-493l344 493h316l-390 -527l420 -544h-336l-354 466v-466h-297z" />
    <glyph glyph-name="Lacute" unicode="&#x139;" horiz-adv-x="1156" 
d="M197 1563l108 284h322l-207 -284h-223zM152 0v1464h332v-1204h616v-260h-948z" />
    <glyph glyph-name="lacute" unicode="&#x13a;" horiz-adv-x="575" 
d="M144 1563l116 284h312l-213 -284h-215zM133 0v1381l295 129v-1510h-295z" />
    <glyph glyph-name="uni013B" unicode="&#x13b;" horiz-adv-x="1156" 
d="M152 0v1464h332v-1204h616v-260h-948zM410 -412l96 349l266 -43l-194 -361z" />
    <glyph glyph-name="uni013C" unicode="&#x13c;" horiz-adv-x="562" 
d="M133 0v1485l295 129v-1614h-295zM70 -412l96 349l266 -43l-194 -361z" />
    <glyph glyph-name="Lcaron" unicode="&#x13d;" horiz-adv-x="1156" 
d="M152 0v1464h332v-1204h616v-260h-948zM680 1118l39 346h262l-123 -346h-178z" />
    <glyph glyph-name="lcaron" unicode="&#x13e;" horiz-adv-x="770" 
d="M133 0v1485l295 129v-1614h-295zM512 1200l21 356h243l-100 -356h-164z" />
    <glyph glyph-name="Ldot" unicode="&#x13f;" horiz-adv-x="1190" 
d="M152 0v1464h332v-1204h616v-260h-948zM748 807c0 102 83 180 183 180c99 0 183 -76 183 -178s-84 -180 -184 -180c-101 0 -182 78 -182 178z" />
    <glyph glyph-name="ldot" unicode="&#x140;" horiz-adv-x="826" 
d="M133 0v1485l295 129v-1614h-295zM512 741c0 100 84 179 185 179c99 0 182 -77 182 -179s-84 -180 -184 -180s-183 79 -183 180z" />
    <glyph glyph-name="Lslash" unicode="&#x141;" horiz-adv-x="1194" 
d="M191 0v532l-133 -47v191l133 47v741h331v-624l383 137v-193l-383 -135v-389h617v-260h-948z" />
    <glyph glyph-name="lslash" unicode="&#x142;" horiz-adv-x="629" 
d="M166 0v639l-135 -68v203l135 68v643l295 129v-621l143 74v-203l-143 -73v-791h-295z" />
    <glyph glyph-name="Nacute" unicode="&#x143;" horiz-adv-x="1561" 
d="M684 1563l109 284h321l-206 -284h-224zM152 0v1464h385l577 -964v964h295v-1464h-332l-630 1042v-1042h-295z" />
    <glyph glyph-name="nacute" unicode="&#x144;" horiz-adv-x="1258" 
d="M504 1219l117 325h311l-213 -325h-215zM125 0v1071h297v-170c68 131 204 195 354 195c248 0 365 -176 365 -414v-682h-297v639c0 136 -57 215 -193 215c-150 0 -229 -96 -229 -236v-618h-297z" />
    <glyph glyph-name="uni0145" unicode="&#x145;" horiz-adv-x="1561" 
d="M152 0v1464h385l577 -964v964h295v-1464h-332l-630 1042v-1042h-295zM553 -412l96 349l267 -43l-195 -361z" />
    <glyph glyph-name="uni0146" unicode="&#x146;" horiz-adv-x="1258" 
d="M125 0v1071h297v-170c68 131 204 195 354 195c248 0 365 -176 365 -414v-682h-297v639c0 136 -57 215 -193 215c-150 0 -229 -96 -229 -236v-618h-297zM410 -412l96 349l266 -43l-194 -361z" />
    <glyph glyph-name="Ncaron" unicode="&#x147;" horiz-adv-x="1561" 
d="M680 1563l-221 284h213l141 -106l140 106h208l-229 -284h-252zM152 0v1464h385l577 -964v964h295v-1464h-332l-630 1042v-1042h-295z" />
    <glyph glyph-name="ncaron" unicode="&#x148;" horiz-adv-x="1258" 
d="M508 1219l-233 319h209l141 -129l141 129h205l-240 -319h-223zM125 0v1071h297v-170c68 131 204 195 354 195c248 0 365 -176 365 -414v-682h-297v639c0 136 -57 215 -193 215c-150 0 -229 -96 -229 -236v-618h-297z" />
    <glyph glyph-name="napostrophe" unicode="&#x149;" horiz-adv-x="1412" 
d="M-80 991l170 498l265 -94l-265 -473zM279 0v1071h297v-170c69 132 203 195 352 195c250 0 367 -176 367 -414v-682h-297v639c0 135 -57 215 -193 215c-150 0 -229 -96 -229 -236v-618h-297z" />
    <glyph glyph-name="Eng" unicode="&#x14a;" horiz-adv-x="1541" 
d="M152 0v1464h389l547 -960v960h301v-1427c0 -287 -185 -432 -471 -432c-71 0 -152 9 -226 45v244c57 -22 110 -35 167 -35c112 0 188 50 200 161l-606 1043v-1063h-301z" />
    <glyph glyph-name="eng" unicode="&#x14b;" horiz-adv-x="1258" 
d="M125 0v1071h297v-170c69 132 215 195 363 195c250 0 356 -180 356 -414v-700c0 -287 -181 -362 -436 -365v221c93 5 139 48 139 142v659c0 130 -47 215 -187 215c-145 0 -235 -92 -235 -236v-618h-297z" />
    <glyph glyph-name="Omacron" unicode="&#x14c;" horiz-adv-x="1659" 
d="M518 1591v187h619v-187h-619zM76 724c0 444 306 761 757 761c434 0 750 -294 750 -737c0 -453 -296 -771 -753 -771c-445 0 -754 301 -754 747zM834 242c281 0 403 232 403 493c0 253 -115 488 -407 488c-284 0 -408 -224 -408 -481c0 -258 125 -500 412 -500z" />
    <glyph glyph-name="omacron" unicode="&#x14d;" horiz-adv-x="1250" 
d="M324 1280v178h596v-178h-596zM60 524c0 339 224 572 561 572c328 0 567 -221 567 -549c0 -338 -225 -570 -561 -570c-326 0 -567 219 -567 547zM625 203c192 0 262 156 262 334c0 165 -60 333 -261 333c-192 0 -263 -154 -263 -333c0 -163 59 -334 262 -334z" />
    <glyph glyph-name="Obreve" unicode="&#x14e;" horiz-adv-x="1659" 
d="M512 1849h199c10 -64 48 -106 115 -106s108 42 120 106h197c-11 -178 -138 -299 -319 -299c-180 0 -299 120 -312 299zM76 724c0 444 306 761 757 761c434 0 750 -294 750 -737c0 -453 -296 -771 -753 -771c-445 0 -754 301 -754 747zM834 242c281 0 403 232 403 493
c0 253 -115 488 -407 488c-284 0 -408 -224 -408 -481c0 -258 125 -500 412 -500z" />
    <glyph glyph-name="obreve" unicode="&#x14f;" horiz-adv-x="1250" 
d="M309 1530h195c8 -68 47 -111 117 -111s113 44 125 111h190c-11 -179 -133 -305 -317 -305s-297 125 -310 305zM60 524c0 339 224 572 561 572c328 0 567 -221 567 -549c0 -338 -225 -570 -561 -570c-326 0 -567 219 -567 547zM625 203c192 0 262 156 262 334
c0 165 -60 333 -261 333c-192 0 -263 -154 -263 -333c0 -163 59 -334 262 -334z" />
    <glyph glyph-name="Ohungarumlaut" unicode="&#x150;" horiz-adv-x="1659" 
d="M525 1563l79 284h271l-150 -284h-200zM893 1563l80 284h270l-151 -284h-199zM76 724c0 444 306 761 757 761c434 0 750 -294 750 -737c0 -453 -296 -771 -753 -771c-445 0 -754 301 -754 747zM834 242c281 0 403 232 403 493c0 253 -115 488 -407 488
c-284 0 -408 -224 -408 -481c0 -258 125 -500 412 -500z" />
    <glyph glyph-name="ohungarumlaut" unicode="&#x151;" horiz-adv-x="1250" 
d="M684 1217l86 325h254l-155 -325h-185zM340 1217l86 325h252l-156 -325h-182zM60 524c0 339 224 572 561 572c328 0 567 -221 567 -549c0 -338 -225 -570 -561 -570c-326 0 -567 219 -567 547zM625 203c192 0 262 156 262 334c0 165 -60 333 -261 333
c-192 0 -263 -154 -263 -333c0 -163 59 -334 262 -334z" />
    <glyph glyph-name="OE" unicode="&#x152;" horiz-adv-x="1995" 
d="M1282 258h647v-258h-1087c-464 0 -766 234 -766 725c0 480 288 739 768 739h1051v-258h-613v-342h488v-241h-488v-365zM953 258v948h-99c-305 0 -432 -178 -432 -469c0 -305 113 -479 436 -479h95z" />
    <glyph glyph-name="oe" unicode="&#x153;" horiz-adv-x="2014" 
d="M1721 324l217 -95c-83 -192 -295 -252 -488 -252c-158 0 -322 55 -420 185c-98 -127 -249 -185 -412 -185c-318 0 -558 219 -558 547c0 339 224 572 557 572c168 0 319 -59 417 -189c97 128 241 189 400 189c336 0 522 -217 522 -545v-82h-774c8 -164 105 -281 285 -281
c98 0 203 35 254 136zM1188 651h477c-8 145 -78 240 -224 240c-153 0 -232 -105 -253 -240zM623 203c194 0 264 156 264 334c0 165 -60 333 -261 333c-192 0 -263 -154 -263 -323c0 -175 58 -344 260 -344z" />
    <glyph glyph-name="Racute" unicode="&#x154;" horiz-adv-x="1385" 
d="M547 1563l109 284h321l-207 -284h-223zM152 0v1464h545c293 0 565 -107 565 -445c0 -207 -102 -338 -301 -396l387 -623h-352l-351 565h-163v-565h-330zM482 791h206c143 0 250 52 250 218c0 160 -100 201 -250 201h-206v-419z" />
    <glyph glyph-name="racute" unicode="&#x155;" horiz-adv-x="826" 
d="M252 1219l117 325h311l-213 -325h-215zM125 0v1071h297v-205c70 152 180 219 346 221v-276c-193 0 -346 -52 -346 -274v-537h-297z" />
    <glyph glyph-name="uni0156" unicode="&#x156;" horiz-adv-x="1385" 
d="M152 0v1464h545c293 0 565 -107 565 -445c0 -207 -102 -338 -301 -396l387 -623h-352l-351 565h-163v-565h-330zM482 791h206c143 0 250 52 250 218c0 160 -100 201 -250 201h-206v-419zM500 -412l96 349l266 -43l-194 -361z" />
    <glyph glyph-name="uni0157" unicode="&#x157;" horiz-adv-x="826" 
d="M125 0v1071h297v-205c70 152 180 219 346 221v-276c-193 0 -346 -52 -346 -274v-537h-297zM64 -412l96 349l266 -43l-194 -361z" />
    <glyph glyph-name="Rcaron" unicode="&#x158;" horiz-adv-x="1385" 
d="M543 1563l-221 284h213l141 -106l139 106h209l-229 -284h-252zM152 0v1464h545c293 0 565 -107 565 -445c0 -207 -102 -338 -301 -396l387 -623h-352l-351 565h-163v-565h-330zM482 791h206c143 0 250 52 250 218c0 160 -100 201 -250 201h-206v-419z" />
    <glyph glyph-name="rcaron" unicode="&#x159;" horiz-adv-x="826" 
d="M336 1219l-233 319h209l141 -129l141 129h205l-240 -319h-223zM125 0v1071h297v-205c70 152 180 219 346 221v-276c-193 0 -346 -52 -346 -274v-537h-297z" />
    <glyph glyph-name="Sacute" unicode="&#x15a;" horiz-adv-x="1363" 
d="M510 1563l109 284h321l-207 -284h-223zM60 332l266 116c50 -161 229 -227 392 -227c119 0 241 61 241 194c0 146 -147 170 -315 198c-268 45 -536 102 -536 436c0 294 252 438 515 438c229 0 450 -85 535 -318l-230 -108c-62 121 -171 180 -303 180
c-109 0 -203 -40 -203 -150c0 -152 178 -180 335 -206c286 -46 520 -96 520 -439c0 -309 -280 -469 -559 -469c-256 0 -581 80 -658 355z" />
    <glyph glyph-name="sacute" unicode="&#x15b;" horiz-adv-x="1044" 
d="M385 1219l117 325h311l-213 -325h-215zM47 223l226 99c41 -97 170 -138 273 -138c74 0 164 21 164 109c0 94 -103 114 -228 139c-187 37 -408 83 -408 321s223 343 424 343c168 0 384 -48 448 -226l-217 -94c-35 91 -141 117 -229 117c-68 0 -152 -30 -152 -101
c0 -80 105 -102 230 -128c186 -39 417 -88 417 -349c0 -254 -218 -338 -448 -338c-184 0 -433 54 -500 246z" />
    <glyph glyph-name="Scircumflex" unicode="&#x15c;" horiz-adv-x="1323" 
d="M285 1563l229 284h252l221 -284h-213l-139 108l-141 -108h-209zM60 332l266 116c50 -161 197 -227 360 -227c119 0 241 61 241 195c0 145 -145 169 -314 198l-76 13c-205 35 -437 107 -437 422c0 294 260 438 523 438c229 0 450 -85 535 -318l-230 -108
c-62 121 -171 180 -293 180c-119 0 -225 -57 -225 -172c0 -136 147 -159 318 -185c236 -36 517 -79 517 -438c0 -309 -280 -469 -559 -469c-256 0 -549 80 -626 355z" />
    <glyph glyph-name="scircumflex" unicode="&#x15d;" horiz-adv-x="1048" 
d="M154 1219l239 319h224l233 -319h-209l-141 129l-143 -129h-203zM47 223l226 99c41 -97 178 -138 281 -138c74 0 164 21 164 109c0 94 -103 114 -231 139c-185 37 -409 83 -409 323c0 236 219 341 420 341c168 0 384 -48 448 -226l-217 -94c-35 91 -141 117 -229 117
c-68 0 -148 -30 -148 -97c0 -85 130 -111 205 -125l23 -5c188 -39 423 -87 423 -351c0 -254 -218 -338 -448 -338c-184 0 -441 54 -508 246z" />
    <glyph glyph-name="Scedilla" unicode="&#x15e;" horiz-adv-x="1323" 
d="M367 -270h151c7 -39 40 -64 80 -64c41 0 70 25 70 66c0 43 -32 65 -72 65c-21 0 -43 -6 -61 -20l-74 71l82 136c-221 19 -422 119 -483 348l266 116c52 -160 196 -227 360 -227c119 0 241 61 241 187c0 155 -186 186 -314 206l-45 7c-217 34 -464 99 -464 428
c0 293 256 436 519 436c229 0 450 -83 535 -316l-230 -108c-64 120 -169 180 -303 180c-110 0 -207 -40 -207 -160c0 -147 147 -170 320 -197c233 -37 507 -80 507 -438c0 -302 -302 -465 -577 -469h4l-45 -75c9 1 17 1 26 1c107 0 187 -62 187 -173
c0 -133 -116 -185 -230 -185c-121 0 -227 59 -243 185z" />
    <glyph glyph-name="scedilla" unicode="&#x15f;" horiz-adv-x="1036" 
d="M236 -270h151c9 -38 38 -64 78 -64c41 0 72 25 72 68c0 41 -31 63 -72 63c-21 0 -43 -6 -61 -20l-74 71l82 136h6c-154 19 -316 81 -371 239l226 99c40 -96 167 -138 269 -138c73 0 164 22 164 109c0 93 -103 114 -233 140c-186 37 -395 84 -395 318
c0 240 219 345 420 345c168 0 384 -48 448 -226l-217 -94c-35 90 -142 117 -229 117c-68 0 -148 -30 -148 -98c0 -89 137 -116 216 -129l24 -4c180 -30 399 -78 399 -332c0 -258 -226 -350 -454 -353h4l-45 -75c9 1 17 1 26 1c107 0 187 -62 187 -173
c0 -133 -116 -185 -230 -185c-121 0 -227 59 -243 185z" />
    <glyph glyph-name="Scaron" unicode="&#x160;" horiz-adv-x="1315" 
d="M506 1563l-221 284h213l141 -106l139 106h209l-229 -284h-252zM60 332l266 116c50 -161 213 -227 376 -227c119 0 241 61 241 196c0 115 -131 163 -296 196l-105 21c-263 53 -434 188 -434 423c0 286 252 428 515 428c229 0 450 -83 535 -316l-230 -108
c-62 121 -171 180 -308 180c-131 0 -198 -54 -198 -165c0 -104 119 -148 370 -188c326 -52 469 -193 469 -442c0 -309 -328 -469 -607 -469c-256 0 -517 80 -594 355z" />
    <glyph glyph-name="scaron" unicode="&#x161;" horiz-adv-x="1038" 
d="M387 1219l-233 319h209l141 -129l141 129h205l-239 -319h-224zM47 223l226 99c41 -97 146 -138 249 -138c74 0 180 21 180 113c0 90 -103 110 -228 135c-172 34 -400 77 -400 330c0 229 223 334 424 334c168 0 384 -48 448 -226l-217 -94c-35 91 -141 117 -229 117
c-68 0 -152 -30 -152 -103c0 -82 105 -103 230 -127c183 -35 409 -79 409 -338c0 -264 -234 -348 -464 -348c-184 0 -409 54 -476 246z" />
    <glyph glyph-name="uni0162" unicode="&#x162;" horiz-adv-x="1211" 
d="M369 -330l116 51c16 -37 76 -55 112 -55c42 0 73 25 73 68c0 42 -31 63 -71 63c-22 0 -44 -6 -62 -20l-74 71l92 152h-116v1206h-396v258h1125v-258h-396v-1206h-84l-59 -98c9 1 17 1 26 1c105 0 187 -63 187 -174c0 -133 -117 -184 -232 -184c-93 0 -204 33 -241 125z
" />
    <glyph glyph-name="uni0163" unicode="&#x163;" horiz-adv-x="760" 
d="M160 -322l116 51c15 -37 76 -55 112 -55c42 0 73 25 73 68c0 42 -31 63 -71 63c-22 0 -44 -6 -62 -20l-74 71l92 152c-115 45 -176 147 -176 309v543h-137v211h137v233l295 128v-361h225v-211h-225v-516c0 -79 36 -127 128 -127c30 0 69 5 104 21v-230
c-53 -18 -110 -28 -165 -28h-14l-55 2l-43 -72c8 1 17 1 26 1c105 0 187 -63 187 -174c0 -133 -117 -184 -233 -184c-93 0 -203 33 -240 125z" />
    <glyph glyph-name="Tcaron" unicode="&#x164;" horiz-adv-x="1211" 
d="M473 1563l-221 284h213l141 -106l140 106h209l-230 -284h-252zM439 0v1206h-396v258h1125v-258h-396v-1206h-333z" />
    <glyph glyph-name="tcaron" unicode="&#x165;" horiz-adv-x="764" 
d="M580 1200l20 356h244l-100 -356h-164zM699 238v-230c-59 -20 -119 -28 -179 -28c-223 0 -348 112 -348 337v543h-137v211h137v233l295 128v-361h225v-211h-225v-516c0 -79 37 -127 126 -127c32 0 70 6 106 21z" />
    <glyph glyph-name="Tbar" unicode="&#x166;" horiz-adv-x="1211" 
d="M439 0v614h-273v217h273v375h-396v258h1125v-258h-396v-375h273v-217h-273v-614h-333z" />
    <glyph glyph-name="tbar" unicode="&#x167;" horiz-adv-x="764" 
d="M35 512v174h137v174h-137v211h137v233l295 128v-361h225v-211h-225v-174h225v-174h-225v-168c0 -79 37 -127 119 -127c38 0 77 3 113 19v-230c-60 -16 -121 -26 -186 -26c-219 0 -341 113 -341 337v195h-137z" />
    <glyph glyph-name="Utilde" unicode="&#x168;" horiz-adv-x="1502" 
d="M565 1563h-176c13 137 76 288 224 288c56 0 103 -22 140 -40c60 -30 81 -37 101 -37c47 0 68 40 76 75h178c-11 -133 -82 -286 -229 -286c-56 0 -103 22 -153 47c-48 23 -69 30 -88 30c-43 0 -65 -39 -73 -77zM140 1462h333v-872c0 -198 42 -350 276 -350
c237 0 279 156 279 362v860h334v-880c0 -400 -224 -607 -614 -607c-389 0 -608 205 -608 594v893z" />
    <glyph glyph-name="utilde" unicode="&#x169;" horiz-adv-x="1252" 
d="M449 1227h-170c10 129 70 289 218 289c57 0 105 -24 147 -45c48 -24 70 -31 90 -31c48 0 67 41 75 76h172c-11 -133 -73 -291 -222 -291c-55 0 -101 22 -149 46c-46 23 -67 30 -86 30c-44 0 -68 -40 -75 -74zM832 0v168c-69 -131 -195 -191 -343 -191
c-246 0 -372 166 -372 404v690h295v-649c0 -131 57 -215 194 -215c146 0 226 95 226 235v629h295v-1071h-295z" />
    <glyph glyph-name="Umacron" unicode="&#x16a;" horiz-adv-x="1502" 
d="M439 1591v187h618v-187h-618zM140 1464h333v-872c0 -198 42 -350 276 -350c237 0 279 156 279 362v860h334v-880c0 -400 -224 -607 -614 -607c-389 0 -608 205 -608 594v893z" />
    <glyph glyph-name="umacron" unicode="&#x16b;" horiz-adv-x="1252" 
d="M330 1280v178h596v-178h-596zM832 0v168c-69 -131 -195 -191 -343 -191c-246 0 -372 166 -372 404v690h295v-649c0 -131 57 -215 194 -215c146 0 226 95 226 235v629h295v-1071h-295z" />
    <glyph glyph-name="Ubreve" unicode="&#x16c;" horiz-adv-x="1502" 
d="M432 1849h199c10 -64 48 -106 115 -106s108 43 121 106h196c-11 -178 -138 -299 -319 -299c-180 0 -299 120 -312 299zM140 1464h333v-872c0 -198 42 -350 276 -350c237 0 279 156 279 362v860h334v-880c0 -400 -224 -607 -614 -607c-389 0 -608 205 -608 594v893z" />
    <glyph glyph-name="ubreve" unicode="&#x16d;" horiz-adv-x="1252" 
d="M316 1530h194c8 -68 47 -111 117 -111s115 43 125 111h190c-11 -179 -133 -305 -316 -305s-299 125 -310 305zM832 0v168c-69 -131 -195 -191 -343 -191c-246 0 -372 166 -372 404v690h295v-649c0 -131 57 -215 194 -215c146 0 226 95 226 235v629h295v-1071h-295z" />
    <glyph glyph-name="Uring" unicode="&#x16e;" horiz-adv-x="1502" 
d="M512 1724c0 126 110 228 236 228s235 -102 235 -228c0 -128 -112 -229 -235 -229s-236 101 -236 229zM746 1614c61 0 101 51 101 109s-39 110 -100 110c-62 0 -99 -54 -99 -111c0 -59 38 -108 98 -108zM140 1464h333v-872c0 -198 42 -350 276 -350c237 0 279 156 279 362
v860h334v-880c0 -400 -224 -607 -614 -607c-389 0 -608 205 -608 594v893z" />
    <glyph glyph-name="uring" unicode="&#x16f;" horiz-adv-x="1252" 
d="M391 1374c0 127 110 225 234 225s233 -98 233 -224s-110 -228 -233 -228c-124 0 -234 101 -234 227zM625 1266c59 0 97 51 97 108s-37 109 -97 109c-61 0 -98 -51 -98 -109c0 -57 37 -108 98 -108zM832 0v168c-70 -131 -196 -191 -344 -191c-245 0 -371 166 -371 404v690
h295v-649c0 -131 57 -215 194 -215c145 0 226 95 226 235v629h295v-1071h-295z" />
    <glyph glyph-name="Uhungarumlaut" unicode="&#x170;" horiz-adv-x="1502" 
d="M813 1563l80 284h271l-152 -284h-199zM445 1563l80 284h270l-150 -284h-200zM140 1464h333v-872c0 -198 42 -350 276 -350c237 0 279 156 279 362v860h334v-880c0 -400 -224 -607 -614 -607c-389 0 -608 205 -608 594v893z" />
    <glyph glyph-name="uhungarumlaut" unicode="&#x171;" horiz-adv-x="1252" 
d="M690 1217l86 325h254l-155 -325h-185zM346 1217l86 325h252l-155 -325h-183zM832 0v168c-69 -131 -195 -191 -343 -191c-246 0 -372 166 -372 404v690h295v-649c0 -131 57 -215 194 -215c146 0 226 95 226 235v629h295v-1071h-295z" />
    <glyph glyph-name="Uogonek" unicode="&#x172;" horiz-adv-x="1502" 
d="M998 -188v-154c-53 -25 -112 -31 -170 -31c-103 0 -234 39 -234 161c0 85 64 149 129 189c-378 8 -583 215 -583 594v893h333v-872c0 -198 42 -350 276 -350c237 0 279 156 279 362v860h334v-880c0 -401 -209 -502 -359 -575c-85 -41 -151 -73 -151 -144
c0 -47 29 -68 73 -68c22 0 48 5 73 15z" />
    <glyph glyph-name="uogonek" unicode="&#x173;" horiz-adv-x="1252" 
d="M832 0v168c-69 -130 -196 -191 -344 -191c-244 0 -371 167 -371 404v690h295v-649c0 -129 60 -215 195 -215c143 0 225 97 225 235v629h295v-1053c-52 -36 -129 -93 -129 -163c0 -42 29 -64 69 -64c26 0 52 2 76 14v-147c-52 -25 -107 -31 -164 -31
c-106 0 -229 39 -229 161c0 103 88 175 170 212h-88z" />
    <glyph glyph-name="Wcircumflex" unicode="&#x174;" horiz-adv-x="2059" 
d="M678 1563l230 284h251l222 -284h-213l-140 108l-141 -108h-209zM414 0l-377 1464h336l250 -1011l270 1011h283l280 -1018l258 1018h308l-377 -1464h-338l-285 1012l-289 -1012h-319z" />
    <glyph glyph-name="wcircumflex" unicode="&#x175;" horiz-adv-x="1680" 
d="M490 1219l239 319h224l233 -319h-209l-141 129l-144 -129h-202zM352 0l-325 1071h311l191 -721l206 721h244l189 -721l202 721h285l-338 -1071h-291l-182 672l-197 -672h-295z" />
    <glyph glyph-name="Ycircumflex" unicode="&#x176;" horiz-adv-x="1315" 
d="M314 1563l229 284h252l221 -284h-213l-139 108l-142 -108h-208zM504 0v631l-483 833h364l297 -561l291 561h322l-457 -833v-631h-334z" />
    <glyph glyph-name="ycircumflex" unicode="&#x177;" horiz-adv-x="1149" 
d="M236 1219l239 319h224l233 -319h-209l-141 129l-143 -129h-203zM260 -365l189 474l-426 962h319l260 -643l240 643h285l-580 -1436h-287z" />
    <glyph glyph-name="Ydieresis" unicode="&#x178;" horiz-adv-x="1315" 
d="M293 1726c0 81 70 146 152 146c81 0 151 -66 151 -148s-69 -149 -150 -149s-153 68 -153 151zM735 1724c0 82 69 148 150 148c82 0 152 -65 152 -148c0 -81 -69 -149 -151 -149c-80 0 -151 66 -151 149zM504 0v631l-483 833h364l297 -561l291 561h322l-457 -833v-631
h-334z" />
    <glyph glyph-name="Zacute" unicode="&#x179;" horiz-adv-x="1248" 
d="M504 1563l109 284h321l-207 -284h-223zM31 0v129l729 1077h-651v258h1089v-129l-714 -1075h690v-260h-1143z" />
    <glyph glyph-name="zacute" unicode="&#x17a;" horiz-adv-x="1010" 
d="M383 1219l116 325h312l-213 -325h-215zM23 0v115l553 727h-500v229h905v-115l-557 -727h537v-229h-938z" />
    <glyph glyph-name="Zdotaccent" unicode="&#x17b;" horiz-adv-x="1248" 
d="M467 1731c0 92 77 157 164 157c89 0 166 -68 166 -157c0 -90 -76 -158 -166 -158c-88 0 -164 66 -164 158zM31 0v129l729 1077h-651v258h1089v-129l-714 -1075h690v-260h-1143z" />
    <glyph glyph-name="zdotaccent" unicode="&#x17c;" horiz-adv-x="1010" 
d="M340 1382c0 92 76 158 166 158s164 -66 164 -158c0 -91 -75 -157 -164 -157s-166 65 -166 157zM23 0v115l553 727h-500v229h905v-115l-557 -727h537v-229h-938z" />
    <glyph glyph-name="Zcaron" unicode="&#x17d;" horiz-adv-x="1248" 
d="M500 1563l-221 284h213l141 -106l139 106h209l-229 -284h-252zM31 0v129l729 1077h-651v258h1089v-129l-714 -1075h690v-260h-1143z" />
    <glyph glyph-name="zcaron" unicode="&#x17e;" horiz-adv-x="1010" 
d="M402 1219l-234 319h209l141 -129l142 129h204l-239 -319h-223zM23 0v115l553 727h-500v229h905v-115l-557 -727h537v-229h-938z" />
    <glyph glyph-name="longs" unicode="&#x17f;" horiz-adv-x="665" 
d="M182 0v860h-149v211h149v123c0 249 138 375 383 375c60 0 118 -15 172 -39l-84 -195c-14 7 -28 8 -41 8c-130 0 -137 -99 -137 -200l2 -1143h-295z" />
    <glyph glyph-name="florin" unicode="&#x192;" horiz-adv-x="895" 
d="M72 -373l147 1012h-160v209h191l14 101c36 277 70 534 438 534c52 0 105 -3 154 -23v-225c-37 15 -77 18 -117 18c-100 0 -143 -61 -157 -153l-37 -252h245v-209h-276l-148 -1012h-294z" />
    <glyph glyph-name="uni01F4" unicode="&#x1f4;" horiz-adv-x="1555" 
d="M628 1563l108 284h322l-207 -284h-223zM852 543v241h627v-548c-171 -176 -415 -259 -662 -259c-467 0 -741 297 -741 762c0 435 309 748 745 748c291 0 502 -110 625 -381l-272 -119c-69 160 -171 238 -341 238c-303 0 -411 -246 -411 -507c0 -266 112 -485 417 -485
c117 0 242 32 343 109v201h-330z" />
    <glyph glyph-name="uni01F5" unicode="&#x1f5;" horiz-adv-x="1291" 
d="M432 1217l117 325h311l-213 -325h-215zM99 -137l233 102c45 -109 159 -143 270 -143c173 0 269 83 269 262v162c-70 -120 -205 -199 -344 -199c-304 0 -467 242 -467 526c0 276 179 523 479 523c139 0 259 -53 332 -185v160h295v-987c0 -349 -250 -479 -564 -479
c-201 0 -423 53 -503 258zM622 270c177 0 257 140 257 305c0 167 -81 295 -260 295c-187 0 -256 -141 -256 -311c0 -155 85 -289 259 -289z" />
    <glyph glyph-name="Aringacute" unicode="&#x1fa;" horiz-adv-x="1463" 
d="M625 2025l108 285h322l-207 -285h-223zM504 1755c0 126 110 227 236 227c127 0 235 -101 235 -226c0 -128 -113 -230 -235 -230c-123 0 -236 102 -236 229zM740 1645c60 0 100 50 100 108c0 57 -40 111 -102 111c-60 0 -99 -52 -99 -111s40 -108 101 -108zM37 0l481 1464
h433l475 -1464h-346l-93 305h-544l-95 -305h-311zM514 541h400l-199 653z" />
    <glyph glyph-name="aringacute" unicode="&#x1fb;" horiz-adv-x="1147" 
d="M477 1696l109 284h321l-206 -284h-224zM346 1403c0 126 110 225 234 225s233 -99 233 -225c0 -125 -110 -227 -233 -227c-124 0 -234 101 -234 227zM580 1294c60 0 98 50 98 107s-38 109 -98 109s-99 -50 -99 -107s39 -109 99 -109zM740 0v129
c-77 -110 -193 -152 -322 -152c-204 0 -360 104 -360 317c0 287 285 342 528 345l149 2c1 136 -8 240 -167 240c-103 0 -188 -43 -220 -138l-227 99c73 193 269 254 464 254c262 0 443 -111 443 -398v-698h-288zM735 465h-114c-106 0 -273 -8 -273 -152
c0 -94 72 -129 157 -129c115 0 230 63 230 191v90z" />
    <glyph glyph-name="AEacute" unicode="&#x1fc;" horiz-adv-x="2001" 
d="M1120 1563l109 284h322l-207 -284h-224zM29 0l696 1464h1176v-258h-615v-342h490v-241h-490v-365h650v-258h-981v344h-447l-158 -344h-321zM615 573h340v633h-50z" />
    <glyph glyph-name="aeacute" unicode="&#x1fd;" horiz-adv-x="1827" 
d="M817 1219l117 325h311l-213 -325h-215zM316 743l-228 99c72 193 270 254 465 254c125 0 280 -25 357 -144c92 99 217 144 350 144c334 0 510 -223 510 -545v-80h-752c8 -159 80 -283 259 -283c110 0 205 47 261 150l209 -90c-69 -203 -281 -271 -471 -271
c-173 0 -322 57 -418 199c-103 -147 -247 -199 -422 -199c-204 0 -380 94 -380 321c0 292 290 340 536 348l143 1c1 151 -43 234 -206 234c-96 0 -181 -43 -213 -138zM1022 647h459c-10 138 -68 244 -216 244c-150 0 -227 -110 -243 -244zM735 469h-120
c-105 0 -269 -8 -269 -157c0 -93 65 -128 156 -128c119 0 233 58 233 191v94z" />
    <glyph glyph-name="Oslashacute" unicode="&#x1fe;" horiz-adv-x="1659" 
d="M703 1563l108 284h322l-207 -284h-223zM62 43l178 190c-114 136 -164 315 -164 493c0 442 306 759 751 759c164 0 323 -43 457 -133l156 166l111 -111l-150 -160c124 -137 182 -316 182 -499c0 -456 -294 -771 -749 -771c-176 0 -346 47 -484 148l-178 -191zM465 475
l621 664c-72 59 -164 84 -259 84c-282 0 -409 -222 -409 -490c0 -83 12 -174 47 -258zM1184 1014l-627 -670c76 -72 174 -102 276 -102c282 0 408 231 408 485c0 99 -14 198 -57 287z" />
    <glyph glyph-name="oslashacute" unicode="&#x1ff;" horiz-adv-x="1250" 
d="M504 1219l117 325h311l-213 -325h-215zM39 12l144 156c-85 101 -123 227 -123 364c0 331 224 564 563 564c119 0 234 -29 332 -95l135 146l100 -90l-133 -144c91 -100 131 -232 131 -371c0 -331 -225 -565 -562 -565c-123 0 -243 31 -343 100l-143 -155zM381 383l404 434
c-45 37 -103 53 -164 53c-187 0 -260 -152 -260 -322c0 -56 1 -112 20 -165zM862 703l-409 -441c47 -42 111 -59 174 -59c191 0 262 156 262 334c0 52 -6 109 -27 166z" />
    <glyph glyph-name="uni0218" unicode="&#x218;" horiz-adv-x="1331" 
d="M60 332l266 116c50 -161 197 -227 360 -227c119 0 241 61 241 187c0 153 -182 183 -309 205l-46 8c-341 59 -482 185 -482 428c0 294 270 436 533 436c229 0 470 -83 555 -316l-250 -108c-62 121 -171 180 -303 180c-109 0 -221 -40 -221 -164c0 -144 152 -167 326 -193
c353 -53 515 -191 515 -438c0 -309 -312 -469 -591 -469c-256 0 -517 80 -594 355zM424 -412l96 349l267 -43l-195 -361z" />
    <glyph glyph-name="uni0219" unicode="&#x219;" horiz-adv-x="1032" 
d="M47 223l226 99c41 -97 146 -138 249 -138c74 0 180 21 180 113c0 90 -103 110 -228 135c-172 34 -400 77 -400 330c0 229 223 334 424 334c168 0 384 -48 448 -226l-217 -94c-35 91 -141 117 -229 117c-68 0 -152 -30 -152 -103c0 -82 105 -103 230 -127
c183 -35 409 -79 409 -338c0 -264 -234 -348 -464 -348c-184 0 -409 54 -476 246zM289 -412l96 349l267 -43l-195 -361z" />
    <glyph glyph-name="uni021A" unicode="&#x21a;" horiz-adv-x="1213" 
d="M439 0v1206h-396v258h1125v-258h-396v-1206h-333zM391 -412l97 349l266 -43l-195 -361z" />
    <glyph glyph-name="uni021B" unicode="&#x21b;" horiz-adv-x="764" 
d="M699 238v-230c-59 -20 -119 -28 -179 -28c-223 0 -348 112 -348 337v543h-137v211h137v233l295 128v-361h225v-211h-225v-516c0 -79 37 -127 126 -127c32 0 70 6 106 21zM199 -412l96 349l266 -43l-194 -361z" />
    <glyph glyph-name="uni0237" unicode="&#x237;" horiz-adv-x="564" 
d="M-8 -383v221c92 5 141 47 141 142v1091h295v-1089c0 -287 -181 -362 -436 -365z" />
    <glyph glyph-name="circumflex" unicode="&#x2c6;" horiz-adv-x="832" 
d="M68 1219l239 319h224l233 -319h-209l-141 129l-143 -129h-203z" />
    <glyph glyph-name="caron" unicode="&#x2c7;" horiz-adv-x="832" 
d="M301 1219l-233 319h209l141 -129l141 129h205l-239 -319h-224z" />
    <glyph glyph-name="breve" unicode="&#x2d8;" horiz-adv-x="832" 
d="M103 1530h194c8 -68 47 -111 118 -111s112 42 124 111h190c-11 -179 -133 -305 -318 -305c-183 0 -297 123 -308 305z" />
    <glyph glyph-name="dotaccent" unicode="&#x2d9;" horiz-adv-x="832" 
d="M250 1382c0 92 76 158 166 158s164 -66 164 -158c0 -91 -75 -157 -164 -157s-166 65 -166 157z" />
    <glyph glyph-name="ring" unicode="&#x2da;" horiz-adv-x="832" 
d="M183 1425c0 127 111 230 236 230c124 0 235 -104 235 -230s-113 -227 -235 -227c-124 0 -236 101 -236 227zM418 1317c60 0 100 51 100 109s-39 110 -99 110c-62 0 -100 -54 -100 -111c0 -58 39 -108 99 -108z" />
    <glyph glyph-name="ogonek" unicode="&#x2db;" horiz-adv-x="832" 
d="M373 0h184c-78 -61 -106 -100 -106 -146c0 -48 30 -63 74 -63c24 0 50 0 71 14v-147c-52 -25 -109 -31 -166 -31c-101 0 -229 40 -229 160c0 101 91 174 172 213z" />
    <glyph glyph-name="tilde" unicode="&#x2dc;" horiz-adv-x="832" 
d="M236 1227h-170c11 132 66 289 218 289c54 0 97 -20 144 -43c34 -17 66 -33 95 -33c47 0 65 40 73 76h172c-11 -133 -73 -291 -220 -291c-57 0 -105 24 -147 45c-47 24 -68 31 -88 31c-46 0 -71 -40 -77 -74z" />
    <glyph glyph-name="hungarumlaut" unicode="&#x2dd;" horiz-adv-x="832" 
d="M494 1217l86 325h254l-156 -325h-184zM150 1217l86 325h252l-156 -325h-182z" />
    <glyph glyph-name="uni0326" unicode="&#x326;" horiz-adv-x="832" 
d="M228 -412l96 349l266 -43l-194 -361z" />
    <glyph glyph-name="uni0394" unicode="&#x394;" horiz-adv-x="1532" 
d="M58 73l459 1391h483l453 -1391v-73h-1395v73zM454 267h582l-290 945z" />
    <glyph glyph-name="Sigma" unicode="&#x3a3;" horiz-adv-x="1270" 
d="M94 0v202l385 535l-378 484v243h1030v-257h-633l362 -447l-363 -488h667v-272h-1070z" />
    <glyph glyph-name="uni03A9" unicode="&#x3a9;" horiz-adv-x="1690" 
d="M92 0v269h238c-155 107 -242 301 -242 487c0 440 332 729 765 729c419 0 757 -270 757 -710c0 -193 -77 -395 -241 -506h237v-269h-657v175c201 133 291 314 291 548c0 257 -109 480 -392 480c-274 0 -389 -209 -389 -459c0 -248 84 -424 288 -569v-175h-655z" />
    <glyph glyph-name="lambda" unicode="&#x3bb;" horiz-adv-x="1251" 
d="M36 0l415 1058l-17 50c-33 101 -70 213 -198 213c-38 0 -78 -10 -116 -22v236c65 24 134 31 203 31c229 0 301 -134 372 -326l337 -910c16 -44 47 -88 99 -88c27 0 53 3 79 9v-244c-46 -15 -93 -20 -134 -20c-186 0 -268 100 -323 259l-156 451l-231 -697h-330z" />
    <glyph glyph-name="uni03BC" unicode="&#x3bc;" horiz-adv-x="1282" 
d="M131 -362v1433h317v-657c0 -120 48 -197 176 -197c138 0 211 92 211 225v629h317v-1071h-313v152c-40 -102 -122 -155 -223 -155c-73 0 -133 28 -168 85v-444h-317z" />
    <glyph glyph-name="pi" unicode="&#x3c0;" horiz-adv-x="1327" 
d="M181 0v836h-139v235h1241v-235h-140v-836h-318v836h-326v-836h-318z" />
    <glyph glyph-name="uni0401" unicode="&#x401;" horiz-adv-x="1222" 
d="M732 1724c0 82 67 148 151 148s151 -66 151 -148s-67 -149 -151 -149s-151 67 -151 149zM290 1724c0 82 67 148 150 148c84 0 152 -66 152 -148s-68 -149 -152 -149c-83 0 -150 67 -150 149zM171 0v1464h955v-258h-626v-342h501v-241h-501v-365h659v-258h-988z" />
    <glyph glyph-name="uni0402" unicode="&#x402;" horiz-adv-x="1662" 
d="M446 0v1206h-397v258h1133v-258h-403v-405h1c82 82 235 110 352 110c299 0 455 -180 455 -473c0 -309 -149 -473 -427 -473c-84 0 -151 15 -209 43v254c41 -22 86 -33 142 -33c106 0 161 70 161 207c0 139 -77 211 -231 211c-114 0 -210 -57 -243 -100h-1v-547h-333z" />
    <glyph glyph-name="uni0403" unicode="&#x403;" horiz-adv-x="1144" 
d="M514 1563l109 284h321l-207 -284h-223zM159 0v1464h920v-262h-590v-1202h-330z" />
    <glyph glyph-name="uni0404" unicode="&#x404;" horiz-adv-x="1536" 
d="M442 868h566v-247h-568c4 -240 171 -377 388 -377c193 0 324 108 396 264l268 -117c-100 -248 -352 -414 -673 -414c-471 0 -737 281 -737 746v16c0 424 293 748 729 748c316 0 538 -119 666 -393l-303 -131c-58 149 -182 258 -366 258c-201 0 -351 -131 -366 -353z" />
    <glyph glyph-name="uni0405" unicode="&#x405;" horiz-adv-x="1331" 
d="M57 332l275 119c51 -139 191 -230 354 -230c153 0 260 80 260 193c0 136 -154 174 -276 192c-388 50 -549 181 -549 443c0 297 268 436 533 436c283 0 413 -82 546 -318l-257 -118c-35 81 -142 192 -289 192c-139 0 -216 -65 -216 -172c0 -103 72 -146 318 -185
c359 -57 507 -185 507 -438c0 -330 -313 -469 -603 -469c-297 0 -528 106 -603 355z" />
    <glyph glyph-name="uni0406" unicode="&#x406;" horiz-adv-x="667" 
d="M179 0v1464h333v-1464h-333z" />
    <glyph glyph-name="uni0407" unicode="&#x407;" horiz-adv-x="667" 
d="M413 1724c0 82 69 148 151 148c84 0 152 -66 152 -148s-68 -149 -152 -149c-82 0 -151 67 -151 149zM-29 1724c0 82 67 148 151 148c83 0 151 -66 151 -148s-68 -149 -151 -149c-84 0 -151 67 -151 149zM179 0v1464h333v-1464h-333z" />
    <glyph glyph-name="uni0408" unicode="&#x408;" horiz-adv-x="938" 
d="M84 27v254c61 -23 123 -35 179 -35c143 0 214 78 214 231v987h333v-991c0 -328 -172 -491 -482 -491c-105 0 -187 14 -244 45z" />
    <glyph glyph-name="uni0409" unicode="&#x409;" horiz-adv-x="2111" 
d="M45 0v258c24 -13 43 -18 61 -18c20 0 38 6 55 14c64 32 110 97 127 387c12 208 22 461 22 823h1022v-544h169c346 0 548 -148 548 -449v-8c0 -309 -196 -463 -560 -463h-486v1202h-395c-10 -319 -19 -514 -24 -586c-19 -273 -74 -639 -416 -639c-40 0 -69 5 -93 11z
M1332 252h151c167 0 249 72 249 213v8c0 141 -85 213 -251 213h-149v-434z" />
    <glyph glyph-name="uni040A" unicode="&#x40a;" horiz-adv-x="2140" 
d="M159 0v1464h330v-598h543v598h331v-544h167c346 0 550 -148 550 -449v-8c0 -309 -194 -463 -563 -463h-485v604h-543v-604h-330zM1363 252h150c165 0 248 72 248 213v8c0 141 -83 213 -250 213h-148v-434z" />
    <glyph glyph-name="uni040B" unicode="&#x40b;" horiz-adv-x="1682" 
d="M446 0v1204h-397v260h1133v-260h-403v-399h1c80 74 235 106 339 106c308 0 460 -170 460 -510v-401h-334v389c0 180 -58 262 -224 262c-81 0 -185 -30 -241 -94h-1v-557h-333z" />
    <glyph glyph-name="uni040C" unicode="&#x40c;" horiz-adv-x="1409" 
d="M616 1563l110 284h321l-207 -284h-224zM171 0v1464h331v-630h1l514 632h353l-582 -694l611 -772h-388l-508 657h-1v-657h-331z" />
    <glyph glyph-name="uni040D" unicode="&#x40d;" horiz-adv-x="1598" 
d="M717 1563l-204 284h319l107 -284h-222zM159 0v1464h330v-1024h2l617 1024h331v-1464h-331v1032h-2l-617 -1032h-330z" />
    <glyph glyph-name="uni040E" unicode="&#x40e;" horiz-adv-x="1303" 
d="M370 1849h210c8 -82 44 -123 105 -123c62 0 100 41 111 123h207c-12 -184 -135 -299 -320 -299c-186 0 -303 117 -313 299zM212 6v264l9 -2c18 -4 58 -12 94 -12c88 0 160 49 213 150l-503 1058h347l310 -696h2l293 696h318l-487 -1102c-96 -218 -205 -380 -467 -380
c-58 0 -101 8 -129 24z" />
    <glyph glyph-name="uni040F" unicode="&#x40f;" horiz-adv-x="1548" 
d="M159 0v1464h330v-1202h572v1202h331v-1464h-473l-5 -266h-279l-4 266h-472z" />
    <glyph glyph-name="uni0410" unicode="&#x410;" horiz-adv-x="1479" 
d="M55 0l484 1464h431l477 -1464h-345l-101 326h-534l-101 -326h-311zM539 561h390l-193 633h-2z" />
    <glyph glyph-name="uni0411" unicode="&#x411;" horiz-adv-x="1313" 
d="M159 0v1464h955v-258h-627l-2 -307h222c347 0 538 -145 538 -438v-8c0 -293 -185 -453 -550 -453h-536zM485 252h198c163 0 246 67 246 203v8c0 135 -85 203 -254 203h-190v-414z" />
    <glyph glyph-name="uni0412" unicode="&#x412;" horiz-adv-x="1352" 
d="M171 0v1464h579c322 0 483 -129 483 -383v-8c0 -162 -79 -266 -237 -311c195 -39 293 -154 293 -344v-8c0 -273 -172 -410 -513 -410h-605zM498 862h197c161 0 223 56 223 187v8c0 123 -70 178 -225 178h-195v-373zM498 229h227c156 0 236 70 236 207v8
c0 140 -76 205 -252 205h-211v-420z" />
    <glyph glyph-name="uni0413" unicode="&#x413;" horiz-adv-x="1144" 
d="M159 0v1464h920v-262h-590v-1202h-330z" />
    <glyph glyph-name="uni0414" unicode="&#x414;" horiz-adv-x="1520" 
d="M-4 -266v528h91c94 39 135 156 160 387c16 197 24 469 24 815h1055v-1202h178v-528h-288l-10 266h-912l-10 -266h-288zM453 262h544v940h-428c-10 -252 -18 -442 -28 -571c-17 -166 -45 -289 -88 -369z" />
    <glyph glyph-name="uni0415" unicode="&#x415;" horiz-adv-x="1222" 
d="M171 0v1464h955v-258h-626v-342h501v-241h-501v-365h659v-258h-988z" />
    <glyph glyph-name="uni0416" unicode="&#x416;" horiz-adv-x="1999" 
d="M24 0l538 764l-514 700h345l440 -641h1v641h325v-643h1l447 643h338l-514 -688l543 -776h-367l-447 670h-1v-670h-325v666h-1l-450 -666h-359z" />
    <glyph glyph-name="uni0417" unicode="&#x417;" horiz-adv-x="1325" 
d="M43 369l267 116c23 -118 176 -239 336 -239c163 0 256 76 256 209s-66 190 -237 190h-155v219h146c147 0 205 60 205 180c0 111 -77 173 -205 173c-147 0 -251 -82 -294 -216l-279 119c115 252 302 365 584 365c248 0 527 -117 527 -408c0 -159 -83 -274 -246 -317
c200 -33 299 -144 299 -328c0 -328 -315 -455 -594 -455c-295 0 -526 142 -610 392z" />
    <glyph glyph-name="uni0418" unicode="&#x418;" horiz-adv-x="1598" 
d="M159 0v1464h330v-1024h2l617 1024h331v-1464h-331v1032h-2l-617 -1032h-330z" />
    <glyph glyph-name="uni0419" unicode="&#x419;" horiz-adv-x="1598" 
d="M481 1849h209c9 -82 46 -123 107 -123c62 0 97 41 107 123h208c-14 -180 -136 -299 -321 -299c-184 0 -300 117 -310 299zM159 0v1464h330v-1024h2l617 1024h331v-1464h-331v1032h-2l-617 -1032h-330z" />
    <glyph glyph-name="uni041A" unicode="&#x41a;" horiz-adv-x="1409" 
d="M171 0v1464h331v-630h1l514 632h353l-582 -694l611 -772h-388l-508 657h-1v-657h-331z" />
    <glyph glyph-name="uni041B" unicode="&#x41b;" horiz-adv-x="1499" 
d="M45 0v269c1 -1 3 -1 5 -1c2 -2 4 -2 6 -2c24 -3 32 -4 42 -4c111 0 161 111 186 354c18 179 26 463 26 848h1032v-1464h-330v1202h-404c-10 -328 -22 -549 -33 -659c-25 -252 -96 -566 -407 -566c-40 0 -69 5 -93 11z" />
    <glyph glyph-name="uni041C" unicode="&#x41c;" horiz-adv-x="1872" 
d="M171 0v1464h437l343 -911h2l340 911h429v-1464h-328v1028h-2l-407 -1028h-108l-408 1028h-2v-1028h-296z" />
    <glyph glyph-name="uni041D" unicode="&#x41d;" horiz-adv-x="1569" 
d="M171 0v1464h331v-598h592v598h330v-1464h-330v604h-592v-604h-331z" />
    <glyph glyph-name="uni041E" unicode="&#x41e;" horiz-adv-x="1676" 
d="M94 723v14c0 439 318 748 763 748c435 0 749 -295 749 -740v-14c0 -448 -308 -754 -758 -754c-447 0 -754 302 -754 746zM854 242c279 0 406 233 406 485v14c0 256 -129 480 -413 480c-283 0 -407 -222 -407 -482v-14c0 -252 136 -483 414 -483z" />
    <glyph glyph-name="uni041F" unicode="&#x41f;" horiz-adv-x="1548" 
d="M159 0v1464h1233v-1464h-331v1202h-572v-1202h-330z" />
    <glyph glyph-name="uni0420" unicode="&#x420;" horiz-adv-x="1285" 
d="M171 0v1464h506c364 0 560 -157 560 -467v-8c0 -333 -247 -457 -550 -457h-187v-532h-329zM500 764h169c167 0 249 74 249 223v8c0 146 -82 217 -249 217h-169v-448z" />
    <glyph glyph-name="uni0421" unicode="&#x421;" horiz-adv-x="1536" 
d="M1199 526l297 -129c-96 -256 -356 -420 -665 -420c-469 0 -737 283 -737 746v16c0 428 293 748 729 748c310 0 517 -129 656 -397l-313 -136c-52 162 -184 271 -341 271c-232 0 -381 -181 -381 -484v-16c0 -305 139 -479 383 -479c165 0 320 121 372 280z" />
    <glyph glyph-name="uni0422" unicode="&#x422;" horiz-adv-x="1226" 
d="M459 0v1206h-398v258h1127v-258h-396v-1206h-333z" />
    <glyph glyph-name="uni0423" unicode="&#x423;" horiz-adv-x="1303" 
d="M212 6v264l37 -7c18 -3 43 -7 68 -7c86 0 158 49 211 150l-503 1058h347l310 -696h2l293 696h318l-487 -1102c-97 -219 -205 -380 -467 -380c-58 0 -101 8 -129 24z" />
    <glyph glyph-name="uni0424" unicode="&#x424;" horiz-adv-x="1836" 
d="M753 0v168h-1c-359 10 -678 166 -678 563v12c0 394 323 560 678 570h1v151h328v-151h1c358 -10 677 -166 677 -565v-15c0 -391 -328 -555 -677 -565h-1v-168h-328zM753 408v665h-1c-233 -12 -350 -123 -350 -330v-12c0 -219 136 -317 350 -323h1zM1081 1071v-665h1
c208 6 348 106 348 327v15c0 202 -115 311 -348 323h-1z" />
    <glyph glyph-name="uni0425" unicode="&#x425;" horiz-adv-x="1477" 
d="M74 0l467 752l-432 712h374l280 -487h2l277 487h339l-419 -702l464 -762h-375l-319 545h-2l-317 -545h-339z" />
    <glyph glyph-name="uni0426" unicode="&#x426;" horiz-adv-x="1583" 
d="M159 0v1464h330v-1202h572v1202h331v-1202h177v-528h-288l-10 266h-1112z" />
    <glyph glyph-name="uni0427" unicode="&#x427;" horiz-adv-x="1470" 
d="M981 0v614h-1c-102 -75 -233 -102 -361 -102c-340 0 -510 193 -510 578v374h331v-381c0 -215 81 -309 253 -309c114 0 203 28 287 103h1v587h331v-1464h-331z" />
    <glyph glyph-name="uni0428" unicode="&#x428;" horiz-adv-x="2144" 
d="M159 0v1464h330v-1202h419v1202h331v-1202h418v1202h330v-1464h-1828z" />
    <glyph glyph-name="uni0429" unicode="&#x429;" horiz-adv-x="2180" 
d="M159 0v1464h330v-1202h417v1202h331v-1202h420v1202h330v-1202h178v-528h-288l-10 266h-1708z" />
    <glyph glyph-name="uni042A" unicode="&#x42a;" horiz-adv-x="1538" 
d="M411 0v1204h-362v260h691v-530h188c346 0 550 -154 550 -455v-8c0 -309 -198 -471 -563 -471h-504zM740 252h171c165 0 248 74 248 219v8c0 148 -83 221 -250 221h-169v-448z" />
    <glyph glyph-name="uni042B" unicode="&#x42b;" horiz-adv-x="1832" 
d="M159 0v1464h330v-530h171c344 0 548 -154 548 -455v-8c0 -309 -197 -471 -560 -471h-489zM1344 0v1464h331v-1464h-331zM489 252h153c165 0 248 74 248 219v8c0 148 -83 221 -248 221h-153v-448z" />
    <glyph glyph-name="uni042C" unicode="&#x42c;" horiz-adv-x="1285" 
d="M159 0v1464h328v-530h188c346 0 550 -154 550 -455v-8c0 -309 -198 -471 -560 -471h-506zM487 252h171c165 0 248 74 248 219v8c0 148 -83 221 -250 221h-169v-448z" />
    <glyph glyph-name="uni042D" unicode="&#x42d;" horiz-adv-x="1536" 
d="M47 381l301 131c36 -129 181 -268 373 -268c207 0 344 129 375 372h-568v250h570c-31 228 -164 355 -361 355c-187 0 -309 -80 -383 -263l-286 123c121 277 342 406 673 406c429 0 712 -303 712 -725v-17c0 -460 -264 -768 -730 -768c-330 0 -570 154 -676 404z" />
    <glyph glyph-name="uni042E" unicode="&#x42e;" horiz-adv-x="2198" 
d="M159 0v1464h330v-598h177c54 374 343 619 729 619c430 0 720 -303 720 -737v-17c0 -435 -285 -754 -733 -754c-388 0 -669 240 -721 627h-172v-604h-330zM1001 725c0 -241 116 -483 391 -483c276 0 377 243 377 485v16c0 244 -105 480 -383 480
c-244 0 -385 -181 -385 -482v-16z" />
    <glyph glyph-name="uni042F" unicode="&#x42f;" horiz-adv-x="1386" 
d="M39 0l409 618h-1c-187 44 -303 175 -303 390v8c0 301 214 448 567 448h516v-1464h-329v557h-152l-354 -557h-353zM898 782v430h-179c-165 0 -252 -59 -252 -206v-9c0 -143 85 -215 254 -215h177z" />
    <glyph glyph-name="uni0430" unicode="&#x430;" horiz-adv-x="1158" 
d="M759 0v129h-1c-73 -100 -182 -152 -326 -152c-201 0 -358 101 -358 313c0 306 327 351 558 351h123v43c0 137 -82 197 -196 197c-105 0 -186 -50 -215 -148l-247 107c104 180 249 256 500 256c267 0 449 -111 449 -398v-698h-287zM755 465h-117
c-178 0 -272 -43 -272 -155c0 -83 53 -126 155 -126c133 0 234 74 234 191v90z" />
    <glyph glyph-name="uni0431" unicode="&#x431;" horiz-adv-x="1269" 
d="M296 854h13c82 143 214 215 390 215c316 0 503 -233 503 -532v-15c0 -332 -242 -545 -566 -545c-360 0 -564 213 -564 670v68c0 532 213 809 637 831l79 2c162 8 270 21 314 39v-225c-69 -31 -176 -49 -322 -57l-67 -2c-261 -17 -390 -170 -417 -449zM636 203
c167 0 264 114 264 317v12c0 199 -91 312 -258 312c-168 0 -268 -117 -268 -316v-10c0 -199 94 -315 262 -315z" />
    <glyph glyph-name="uni0432" unicode="&#x432;" horiz-adv-x="1117" 
d="M133 0v1071h468c251 0 402 -84 402 -262v-4c0 -129 -67 -209 -206 -242c168 -28 249 -110 249 -244v-2c0 -204 -141 -317 -412 -317h-501zM426 641h118c104 0 157 43 157 129v2c0 88 -55 115 -170 115h-105v-246zM426 184h142c117 0 176 45 176 135v3
c0 90 -53 135 -161 135h-157v-273z" />
    <glyph glyph-name="uni0433" unicode="&#x433;" horiz-adv-x="913" 
d="M133 0v1071h736v-211h-443v-860h-293z" />
    <glyph glyph-name="uni0434" unicode="&#x434;" horiz-adv-x="1246" 
d="M25 -260v471h60c92 41 110 200 121 291c14 137 24 327 24 569h835v-860h151v-471h-255l-4 260h-673l-4 -260h-255zM406 211h369v649h-290c-2 -161 -10 -506 -79 -649z" />
    <glyph glyph-name="uni0435" unicode="&#x435;" horiz-adv-x="1205" 
d="M911 338l247 -107c-111 -165 -275 -254 -520 -254c-331 0 -560 211 -560 545v17c0 323 225 557 561 557c324 0 514 -217 514 -545v-82h-775c8 -180 104 -281 272 -281c126 0 198 56 261 150zM382 651h483c-10 160 -89 240 -226 240c-142 0 -234 -86 -257 -240z" />
    <glyph glyph-name="uni0436" unicode="&#x436;" horiz-adv-x="1582" 
d="M17 0l366 575l-339 496h306l292 -465h1v465h290v-467h1l294 467h305l-340 -489l371 -582h-326l-304 516h-1v-516h-290v512h-1l-306 -512h-319z" />
    <glyph glyph-name="uni0437" unicode="&#x437;" horiz-adv-x="1076" 
d="M42 260l222 96c49 -112 129 -161 251 -161c115 0 190 45 190 135v6c0 80 -55 121 -159 121h-139v184h120c92 0 141 39 141 115v4c0 71 -69 108 -162 108c-98 0 -174 -41 -221 -131l-223 97c85 184 272 262 471 262c182 0 437 -66 437 -289v-4c0 -129 -67 -209 -204 -240
c162 -26 242 -106 242 -239v-7c0 -243 -252 -340 -460 -340c-251 0 -436 103 -506 283z" />
    <glyph glyph-name="uni0438" unicode="&#x438;" horiz-adv-x="1263" 
d="M133 0v1071h293v-715h1l415 715h293v-1071h-292v715h-1l-415 -715h-294z" />
    <glyph glyph-name="uni0439" unicode="&#x439;" horiz-adv-x="1263" 
d="M312 1526h212c8 -82 43 -123 104 -123c62 0 100 41 110 123h207c-12 -184 -134 -299 -320 -299s-298 116 -313 299zM133 0v1071h293v-715h1l415 715h293v-1071h-292v715h-1l-415 -715h-294z" />
    <glyph glyph-name="uni043A" unicode="&#x43a;" horiz-adv-x="1140" 
d="M131 0v1071h295v-459h1l347 459h316l-392 -489l423 -582h-337l-357 506h-1v-506h-295z" />
    <glyph glyph-name="uni043B" unicode="&#x43b;" horiz-adv-x="1201" 
d="M47 -4v235c11 -6 31 -8 42 -8c90 0 116 128 121 192c21 262 31 446 31 656h826v-1071h-292v860h-279c-2 -139 -8 -257 -21 -420c-17 -207 -67 -460 -328 -460c-37 0 -65 5 -100 16z" />
    <glyph glyph-name="uni043C" unicode="&#x43c;" horiz-adv-x="1522" 
d="M131 0v1071h392l245 -659l251 659h364v-1071h-289v766h-1l-296 -766h-151l-292 766h-1v-766h-222z" />
    <glyph glyph-name="uni043D" unicode="&#x43d;" horiz-adv-x="1252" 
d="M133 0v1071h293v-420h400v420h292v-1071h-292v440h-400v-440h-293z" />
    <glyph glyph-name="uni043E" unicode="&#x43e;" horiz-adv-x="1263" 
d="M78 524v17c0 331 235 555 566 555c327 0 564 -219 564 -549v-17c0 -331 -237 -553 -566 -553c-327 0 -564 218 -564 547zM641 203c168 0 265 121 265 325v15c0 205 -97 327 -263 327c-163 0 -263 -118 -263 -323v-17c0 -206 94 -327 261 -327z" />
    <glyph glyph-name="uni043F" unicode="&#x43f;" horiz-adv-x="1232" 
d="M133 0v1071h965v-1071h-292v860h-380v-860h-293z" />
    <glyph glyph-name="uni0440" unicode="&#x440;" horiz-adv-x="1309" 
d="M144 -365v1436h300v-172h1c64 115 191 197 341 197c317 0 465 -265 465 -551v-17c0 -286 -148 -551 -456 -551c-167 0 -292 78 -350 187h-1v-529h-300zM697 209c164 0 254 108 254 317v17c0 211 -101 321 -258 321s-259 -112 -259 -321v-17c0 -209 100 -317 263 -317z
" />
    <glyph glyph-name="uni0441" unicode="&#x441;" horiz-adv-x="1187" 
d="M926 401l232 -100c-80 -205 -275 -324 -526 -324c-335 0 -554 211 -554 545v17c0 329 223 557 554 557c261 0 395 -78 518 -305l-251 -109c-43 106 -141 180 -261 180c-150 0 -258 -117 -258 -319v-17c0 -213 119 -325 285 -325c125 0 230 100 261 200z" />
    <glyph glyph-name="uni0442" unicode="&#x442;" horiz-adv-x="1002" 
d="M353 0v860h-318v211h931v-211h-319v-860h-294z" />
    <glyph glyph-name="uni0443" unicode="&#x443;" horiz-adv-x="1164" 
d="M279 -365l189 474l-428 962h320l262 -643l240 643h286l-582 -1436h-287z" />
    <glyph glyph-name="uni0444" unicode="&#x444;" horiz-adv-x="1600" 
d="M655 -365v345h-1c-326 16 -574 202 -574 544v17c0 340 248 540 574 553h1v462h290v-462h1c330 -17 575 -197 575 -543v-16c0 -340 -245 -543 -575 -555h-1v-345h-290zM655 193v688h-1c-170 -11 -274 -131 -274 -334v-15c0 -204 102 -325 274 -339h1zM945 881v-688h1
c171 14 275 137 275 333v17c0 202 -102 323 -275 338h-1z" />
    <glyph glyph-name="uni0445" unicode="&#x445;" horiz-adv-x="1179" 
d="M46 0l368 547l-343 524h341l201 -321l198 321h308l-343 -502l378 -569h-343l-226 360l-233 -360h-306z" />
    <glyph glyph-name="uni0446" unicode="&#x446;" horiz-adv-x="1278" 
d="M133 0v1071h293v-860h380v860h292v-860h151v-471h-246l-12 260h-858z" />
    <glyph glyph-name="uni0447" unicode="&#x447;" horiz-adv-x="1185" 
d="M757 0v461h-1c-73 -83 -210 -121 -321 -121c-210 0 -343 133 -343 401v330h294v-289c0 -149 49 -213 171 -213c85 0 152 31 199 90h1v412h294v-1071h-294z" />
    <glyph glyph-name="uni0448" unicode="&#x448;" horiz-adv-x="1711" 
d="M133 0v1071h293v-860h284v860h291v-860h284v860h292v-1071h-1444z" />
    <glyph glyph-name="uni0449" unicode="&#x449;" horiz-adv-x="1758" 
d="M133 0v1071h293v-860h284v860h291v-860h284v860h292v-860h151v-471h-246l-13 260h-1336z" />
    <glyph glyph-name="uni044A" unicode="&#x44a;" horiz-adv-x="1258" 
d="M300 0v860h-265v211h557v-340h196c257 0 414 -131 414 -364v-7c0 -233 -150 -360 -422 -360h-480zM592 211h131c125 0 181 41 181 151v5c0 102 -60 153 -181 153h-131v-309z" />
    <glyph glyph-name="uni044B" unicode="&#x44b;" horiz-adv-x="1548" 
d="M133 0v1071h293v-340h181c255 0 415 -135 415 -364v-7c0 -235 -152 -360 -425 -360h-464zM1122 0v1071h292v-1071h-292zM426 209h118c123 0 180 45 180 153v5c0 104 -61 155 -180 155h-118v-313z" />
    <glyph glyph-name="uni044C" unicode="&#x44c;" horiz-adv-x="1093" 
d="M133 0v1071h293v-340h196c257 0 414 -133 414 -369v-6c0 -235 -151 -356 -423 -356h-480zM426 207h130c121 0 182 51 182 151v7c0 106 -61 159 -182 159h-130v-317z" />
    <glyph glyph-name="uni044D" unicode="&#x44d;" horiz-adv-x="1187" 
d="M42 279l226 98c43 -119 155 -176 280 -176c131 0 239 88 264 243h-403v195h403c-23 149 -123 225 -262 225c-125 0 -233 -61 -276 -174l-232 101c74 202 275 305 526 305c335 0 552 -213 552 -547v-17c0 -323 -215 -555 -544 -555c-267 0 -462 101 -534 302z" />
    <glyph glyph-name="uni044E" unicode="&#x44e;" horiz-adv-x="1688" 
d="M133 0v1071h293v-418h123c45 271 254 445 538 445c320 0 535 -221 535 -547v-16c0 -326 -217 -555 -548 -555c-277 0 -476 161 -523 430l-4 32h-121v-442h-293zM1078 207c156 0 244 121 244 323v17c0 203 -88 323 -244 323c-154 0 -243 -116 -243 -319v-16
c0 -158 58 -328 243 -328z" />
    <glyph glyph-name="uni044F" unicode="&#x44f;" horiz-adv-x="1111" 
d="M26 0l275 436c-135 47 -203 142 -203 283v6c0 219 152 346 421 346h476v-1071h-298v375h-125l-224 -375h-322zM697 571v291h-121c-118 0 -180 -47 -180 -141v-6c0 -97 62 -144 180 -144h121z" />
    <glyph glyph-name="uni0451" unicode="&#x451;" horiz-adv-x="1205" 
d="M415 1229c-83 0 -151 64 -151 147c0 84 67 148 150 148c84 0 152 -64 152 -148s-68 -147 -151 -147zM835 1229c-83 0 -152 64 -152 147c0 84 68 148 151 148c84 0 151 -64 151 -148c0 -85 -67 -147 -150 -147zM924 332l236 -103c-117 -182 -275 -252 -522 -252
c-331 0 -560 211 -560 545v17c0 323 225 557 561 557c324 0 514 -217 514 -545v-82h-775c8 -180 104 -281 273 -281c125 0 213 54 273 144zM382 651h483c-10 160 -89 240 -226 240c-142 0 -234 -86 -257 -240z" />
    <glyph glyph-name="uni0452" unicode="&#x452;" horiz-adv-x="1263" 
d="M131 0v1223h-129v170h129v163h295v-163h337v-170h-337v-324h1c68 131 184 197 344 197c229 0 368 -135 368 -414v-682c0 -268 -125 -387 -436 -387v221c105 8 142 51 142 172v633c0 147 -61 215 -188 215c-138 0 -231 -82 -231 -236v-618h-295z" />
    <glyph glyph-name="uni0453" unicode="&#x453;" horiz-adv-x="913" 
d="M404 1219l118 325h311l-214 -325h-215zM133 0v1071h736v-211h-443v-860h-293z" />
    <glyph glyph-name="uni0454" unicode="&#x454;" horiz-adv-x="1187" 
d="M378 639h399v-193h-403c22 -163 123 -245 270 -245c130 0 232 86 267 190l237 -102c-82 -203 -265 -312 -533 -312c-332 0 -549 213 -549 545v17c0 325 225 557 553 557c237 0 420 -103 519 -293l-255 -111c-45 107 -142 172 -259 172c-129 0 -222 -80 -246 -225z" />
    <glyph glyph-name="uni0455" unicode="&#x455;" horiz-adv-x="1047" 
d="M46 225l222 97c49 -84 154 -138 283 -138c109 0 166 39 166 114c0 77 -61 107 -219 130c-214 32 -412 84 -412 334c0 233 219 334 425 334c196 0 325 -39 456 -226l-226 -98c-52 70 -122 117 -225 117c-100 0 -157 -43 -157 -106c0 -68 67 -95 225 -117
c214 -29 417 -82 417 -331c0 -235 -180 -353 -468 -358h-7c-221 0 -418 88 -480 248z" />
    <glyph glyph-name="uni0456" unicode="&#x456;" horiz-adv-x="574" 
d="M129 1379c0 94 76 162 170 162c92 0 168 -66 168 -161s-77 -163 -169 -163c-91 0 -169 68 -169 162zM153 0v1071h293v-1071h-293z" />
    <glyph glyph-name="uni0457" unicode="&#x457;" horiz-adv-x="574" 
d="M353 1376c0 82 68 148 150 148c84 0 150 -66 150 -148s-66 -147 -150 -147c-82 0 -150 65 -150 147zM-55 1376c0 82 67 148 150 148c84 0 150 -66 150 -148s-66 -147 -150 -147c-83 0 -150 65 -150 147zM153 0v1071h293v-1071h-293z" />
    <glyph glyph-name="uni0458" unicode="&#x458;" horiz-adv-x="574" 
d="M129 1380c0 94 75 161 168 161c95 0 170 -67 170 -161c0 -95 -77 -163 -169 -163s-169 68 -169 163zM10 -383v221c101 8 143 51 143 142v1091h293v-1089c0 -283 -174 -362 -436 -365z" />
    <glyph glyph-name="uni0459" unicode="&#x459;" horiz-adv-x="1688" 
d="M47 -4v234s2 -1 5 -2c1 0 2 0 4 -1c11 -2 23 -4 35 -4c81 0 117 92 131 293c10 107 17 293 17 555h805v-340h176c257 0 414 -131 414 -366v-7c0 -233 -151 -358 -423 -358h-458v860h-257c-2 -145 -9 -280 -19 -399c-26 -324 -115 -481 -327 -481c-38 0 -65 2 -79 8z
M1044 209h110c124 0 180 45 180 151v7c0 102 -60 153 -180 153h-110v-311z" />
    <glyph glyph-name="uni045A" unicode="&#x45a;" horiz-adv-x="1742" 
d="M133 0v1071h293v-420h374v420h298v-340h174c256 0 413 -129 413 -364v-7c0 -235 -150 -360 -421 -360h-464v440h-374v-440h-293zM1098 209h109c124 0 180 45 180 153v7c0 104 -60 155 -180 155h-109v-315z" />
    <glyph glyph-name="uni045B" unicode="&#x45b;" horiz-adv-x="1263" 
d="M131 0v1223h-129v170h129v163h297v-163h335v-170h-335v-322h1c68 129 182 195 341 195c230 0 369 -138 369 -414v-682h-296v639c0 147 -59 215 -186 215c-138 0 -229 -82 -229 -236v-618h-297z" />
    <glyph glyph-name="uni045C" unicode="&#x45c;" horiz-adv-x="1140" 
d="M494 1219l116 325h312l-213 -325h-215zM131 0v1071h295v-459h1l347 459h316l-392 -489l423 -582h-337l-357 506h-1v-506h-295z" />
    <glyph glyph-name="uni045D" unicode="&#x45d;" horiz-adv-x="1269" 
d="M562 1217l-214 325h311l118 -325h-215zM133 0v1071h293v-715h1l415 715h293v-1071h-292v715h-1l-415 -715h-294z" />
    <glyph glyph-name="uni045E" unicode="&#x45e;" horiz-adv-x="1164" 
d="M290 1526h210c8 -82 44 -123 103 -123c64 0 105 49 113 123h205c-15 -183 -135 -299 -320 -299s-301 116 -311 299zM279 -365l189 474l-428 962h320l262 -643l240 643h286l-582 -1436h-287z" />
    <glyph glyph-name="uni045F" unicode="&#x45f;" horiz-adv-x="1232" 
d="M133 0v1071h293v-860h380v860h292v-1071h-356l-4 -260h-242l-7 260h-356z" />
    <glyph glyph-name="uni0490" unicode="&#x490;" horiz-adv-x="1148" 
d="M159 0v1464h626l13 275h285v-537h-594v-1202h-330z" />
    <glyph glyph-name="uni0491" unicode="&#x491;" horiz-adv-x="899" 
d="M133 0v1071h451l10 275h249v-486h-417v-860h-293z" />
    <glyph glyph-name="Wgrave" unicode="&#x1e80;" horiz-adv-x="2059" 
d="M938 1563l-203 284h320l106 -284h-223zM414 0l-377 1464h336l250 -1011l270 1011h283l280 -1018l258 1018h308l-377 -1464h-338l-285 1012l-289 -1012h-319z" />
    <glyph glyph-name="wgrave" unicode="&#x1e81;" horiz-adv-x="1680" 
d="M760 1217l-213 325h311l117 -325h-215zM352 0l-325 1071h311l191 -721l206 721h244l189 -721l202 721h285l-338 -1071h-291l-182 672l-197 -672h-295z" />
    <glyph glyph-name="Wacute" unicode="&#x1e82;" horiz-adv-x="2059" 
d="M920 1563l108 284h322l-207 -284h-223zM414 0l-377 1464h336l250 -1011l270 1011h283l280 -1018l258 1018h308l-377 -1464h-338l-285 1012l-289 -1012h-319z" />
    <glyph glyph-name="wacute" unicode="&#x1e83;" horiz-adv-x="1680" 
d="M748 1219l116 325h312l-213 -325h-215zM352 0l-325 1071h311l191 -721l206 721h244l189 -721l202 721h285l-338 -1071h-291l-182 672l-197 -672h-295z" />
    <glyph glyph-name="Wdieresis" unicode="&#x1e84;" horiz-adv-x="2059" 
d="M662 1725c0 82 69 147 150 147c82 0 153 -67 153 -148c0 -82 -71 -149 -152 -149s-151 68 -151 150zM1104 1724c0 82 69 148 150 148c82 0 151 -65 151 -147c0 -81 -68 -150 -150 -150c-80 0 -151 66 -151 149zM414 0l-377 1464h336l250 -1011l270 1011h283l280 -1018
l258 1018h308l-377 -1464h-338l-285 1012l-289 -1012h-319z" />
    <glyph glyph-name="wdieresis" unicode="&#x1e85;" horiz-adv-x="1680" 
d="M494 1376c0 81 68 148 150 148c81 0 153 -64 153 -148c0 -83 -71 -147 -152 -147c-82 0 -151 64 -151 147zM912 1376c0 81 68 148 150 148c81 0 153 -64 153 -148c0 -83 -71 -147 -152 -147c-82 0 -151 64 -151 147zM352 0l-325 1071h311l191 -721l206 721h244l189 -721
l202 721h285l-338 -1071h-291l-182 672l-197 -672h-295z" />
    <glyph glyph-name="Ygrave" unicode="&#x1ef2;" horiz-adv-x="1315" 
d="M570 1563l-203 284h320l106 -284h-223zM504 0v631l-483 833h364l297 -561l291 561h322l-457 -833v-631h-334z" />
    <glyph glyph-name="ygrave" unicode="&#x1ef3;" horiz-adv-x="1149" 
d="M494 1219l-213 325h311l117 -325h-215zM260 -365l189 474l-426 962h319l260 -643l240 643h285l-580 -1436h-287z" />
    <glyph glyph-name="uni2009" unicode="&#x2009;" horiz-adv-x="207" 
 />
    <glyph glyph-name="endash" unicode="&#x2013;" horiz-adv-x="1496" 
d="M174 471v209h1149v-209h-1149z" />
    <glyph glyph-name="emdash" unicode="&#x2014;" horiz-adv-x="2088" 
d="M174 471v209h1741v-209h-1741z" />
    <glyph glyph-name="quoteleft" unicode="&#x2018;" horiz-adv-x="621" 
d="M94 1018l264 471l170 -70l-170 -497z" />
    <glyph glyph-name="quoteright" unicode="&#x2019;" horiz-adv-x="621" 
d="M94 991l170 498l264 -94l-264 -473z" />
    <glyph glyph-name="quotesinglbase" unicode="&#x201a;" horiz-adv-x="646" 
d="M106 -154l170 500l265 -96l-267 -473z" />
    <glyph glyph-name="quotedblleft" unicode="&#x201c;" horiz-adv-x="984" 
d="M61 1018l264 471l170 -70l-170 -497zM489 1018l264 471l170 -70l-170 -497z" />
    <glyph glyph-name="quotedblright" unicode="&#x201d;" horiz-adv-x="984" 
d="M61 991l170 498l264 -94l-264 -473zM489 991l170 498l264 -94l-266 -473z" />
    <glyph glyph-name="quotedblbase" unicode="&#x201e;" horiz-adv-x="1008" 
d="M73 -154l170 498l265 -94l-265 -473zM501 -154l170 498l265 -94l-267 -473z" />
    <glyph glyph-name="dagger" unicode="&#x2020;" horiz-adv-x="889" 
d="M323 -302v1270h-225v216h225v413h246v-413h223v-216h-223v-1270h-246z" />
    <glyph glyph-name="daggerdbl" unicode="&#x2021;" horiz-adv-x="889" 
d="M323 -303v414h-225v216h225v641h-225v216h225v413h246v-413h223v-216h-223v-641h223v-216h-223v-414h-246z" />
    <glyph glyph-name="bullet" unicode="&#x2022;" horiz-adv-x="779" 
d="M112 623c0 155 125 276 279 276s276 -122 276 -276c0 -155 -121 -277 -276 -277s-279 122 -279 277z" />
    <glyph glyph-name="ellipsis" unicode="&#x2026;" horiz-adv-x="1774" 
d="M121 162c0 103 83 178 182 178c101 0 185 -77 185 -178s-85 -180 -186 -180s-181 78 -181 180zM1286 162c0 103 84 178 183 178c100 0 184 -78 184 -178s-85 -180 -186 -180c-100 0 -181 77 -181 180zM705 162c0 103 83 178 182 178c100 0 184 -78 184 -178
s-85 -180 -186 -180c-100 0 -180 77 -180 180z" />
    <glyph glyph-name="perthousand" unicode="&#x2030;" horiz-adv-x="2472" 
d="M78 1121c0 206 165 358 369 358c196 0 358 -141 358 -349c0 -206 -158 -356 -365 -356c-204 0 -362 145 -362 347zM264 0l973 1464h184l-973 -1464h-184zM442 956c100 0 135 87 135 171c0 88 -38 170 -135 170c-99 0 -137 -84 -137 -169c0 -87 40 -172 137 -172zM868 328
c0 208 163 358 366 358c198 0 359 -142 359 -352c0 -205 -153 -357 -362 -357c-206 0 -363 147 -363 351zM1669 328c0 208 163 358 366 358c198 0 359 -142 359 -351c0 -205 -154 -358 -363 -358c-205 0 -362 147 -362 351zM2034 162c99 0 135 84 135 169
c0 89 -40 173 -139 173c-98 0 -136 -83 -136 -169c0 -89 41 -173 140 -173zM1233 162c99 0 133 85 133 169c0 88 -38 173 -136 173s-136 -84 -136 -169c0 -88 41 -173 139 -173z" />
    <glyph glyph-name="minute" unicode="&#x2032;" horiz-adv-x="524" 
d="M100 924l45 540h287l-123 -540h-209z" />
    <glyph glyph-name="second" unicode="&#x2033;" horiz-adv-x="921" 
d="M100 924l45 540h287l-123 -540h-209zM498 924l45 540h286l-123 -540h-208z" />
    <glyph glyph-name="guilsinglleft" unicode="&#x2039;" horiz-adv-x="783" 
d="M412 154l-260 381l260 380h220l-250 -380l250 -381h-220z" />
    <glyph glyph-name="guilsinglright" unicode="&#x203a;" horiz-adv-x="783" 
d="M153 154l248 381l-248 380h219l258 -380l-258 -381h-219z" />
    <glyph glyph-name="fraction" unicode="&#x2044;" horiz-adv-x="291" 
d="M-493 0l1106 1464h172l-1106 -1464h-172z" />
    <glyph glyph-name="uni207D" unicode="&#x207d;" horiz-adv-x="416" 
d="M377 632h-208c-90 151 -129 287 -129 462c0 177 40 322 129 474h208c-81 -161 -128 -291 -128 -470c0 -183 49 -306 128 -466z" />
    <glyph glyph-name="uni207E" unicode="&#x207e;" horiz-adv-x="416" 
d="M248 632h-208c78 160 128 283 128 466c0 179 -48 309 -128 470h208c89 -152 129 -297 129 -473s-40 -312 -129 -463z" />
    <glyph glyph-name="uni208D" unicode="&#x208d;" horiz-adv-x="416" 
d="M377 -318h-208c-90 151 -129 287 -129 462c0 177 40 322 129 474h208c-81 -161 -128 -291 -128 -470c0 -183 49 -307 128 -466z" />
    <glyph glyph-name="uni208E" unicode="&#x208e;" horiz-adv-x="416" 
d="M248 -318h-208c78 159 128 283 128 466c0 179 -48 309 -128 470h208c89 -152 129 -297 129 -473s-40 -312 -129 -463z" />
    <glyph glyph-name="Euro" unicode="&#x20ac;" horiz-adv-x="1433" 
d="M61 528v136h129v126h-129v136h138c45 324 266 559 604 559c259 0 469 -115 538 -377l-256 -111c-42 148 -123 236 -284 236c-180 0 -260 -148 -281 -307h381l-25 -136h-362v-126h340l-25 -136h-309c21 -164 103 -292 285 -292c167 0 257 108 297 262l252 -111
c-77 -278 -271 -410 -557 -410c-342 0 -553 222 -598 551h-138z" />
    <glyph glyph-name="uni20B8" unicode="&#x20b8;" horiz-adv-x="1254" 
d="M72 1303v161h1111v-161h-1111zM474 0v939h-402v164h1111v-164h-387v-939h-322z" />
    <glyph glyph-name="uni20B9" unicode="&#x20b9;" horiz-adv-x="1219" 
d="M94 550v183l111 -1c159 -1 296 22 346 190h-457v182h459c-25 160 -184 180 -327 180l-132 -2v182h1055v-182h-356c51 -50 77 -110 98 -178h258v-182h-260c-32 -146 -140 -271 -281 -321l433 -600h-390l-356 549h-201z" />
    <glyph glyph-name="uni20BA" unicode="&#x20ba;" horiz-adv-x="1242" 
d="M334 1v760l-220 -52v136l220 52v142l-220 -52v143l220 52v282h300v-213l293 69v-143l-293 -69v-142l293 69v-136l-293 -68v-599c141 5 288 162 314 291l208 -91c-77 -275 -355 -449 -644 -449c-60 0 -120 4 -178 18z" />
    <glyph glyph-name="uni20BC" unicode="&#x20bc;" horiz-adv-x="1404" 
d="M96 0v617c0 342 169 601 526 632v215h158l1 -215c356 -30 527 -289 527 -631v-618h-300v641c0 174 -36 352 -227 380l1 -797h-159l-1 797c-191 -28 -226 -208 -226 -381v-640h-300z" />
    <glyph glyph-name="uni20BF" unicode="&#x20bf;" horiz-adv-x="1276" 
d="M119 -2v1466h278v214h127v-214h128v214h127v-214c234 -21 371 -143 371 -388c0 -159 -72 -280 -228 -324c188 -38 281 -144 281 -339c0 -263 -170 -399 -424 -415v-207h-127v207h-128v-207h-127v207h-278zM430 867h219c143 0 219 38 219 191c0 147 -93 189 -222 189h-216
v-380zM430 217h248c153 0 234 79 234 236c0 156 -117 209 -252 209h-230v-445z" />
    <glyph glyph-name="uni2105" unicode="&#x2105;" horiz-adv-x="1901" 
d="M444 0l870 1464h130l-864 -1464h-136zM664 963l137 -60c-50 -156 -190 -226 -346 -226c-236 0 -378 160 -378 391c0 222 158 388 390 388c144 0 274 -64 330 -211l-145 -63c-30 83 -103 132 -193 132c-145 0 -198 -127 -198 -255c0 -132 57 -246 202 -246
c102 0 171 57 201 150zM1057 367c0 227 156 387 386 387c224 0 382 -151 382 -380c0 -225 -152 -388 -383 -388c-225 0 -385 152 -385 381zM1443 119c142 0 213 120 213 250c0 129 -70 253 -214 253c-141 0 -215 -116 -215 -248s73 -255 216 -255z" />
    <glyph glyph-name="uni2116" unicode="&#x2116;" horiz-adv-x="2354" 
d="M106 0v1464h336l636 -1046v1046h255v-1464h-292l-679 1114v-1114h-256zM1484 685c0 227 155 386 385 386c224 0 382 -151 382 -380c0 -225 -152 -387 -384 -387c-224 0 -383 151 -383 381zM1870 437c141 0 212 119 212 248c0 130 -70 255 -215 255
c-140 0 -214 -117 -214 -248c0 -132 73 -255 217 -255zM1547 0v123h655v-123h-655z" />
    <glyph glyph-name="trademark" unicode="&#x2122;" horiz-adv-x="1536" 
d="M707 805v659h223l143 -374l146 374h227v-659h-182v426l-172 -426h-58l-170 426v-426h-157zM250 805v516h-180v143h543v-143h-181v-516h-182z" />
    <glyph glyph-name="estimated" unicode="&#x212e;" horiz-adv-x="1516" 
d="M318 669v-320c0 -21 7 -35 20 -51c104 -122 284 -196 444 -196c178 0 368 91 486 225l108 -56c-138 -180 -374 -286 -601 -286c-395 0 -745 319 -745 728c0 395 327 717 726 717s727 -322 727 -722v-39h-1165zM318 785h886v295c0 12 -22 43 -30 53
c-102 120 -259 180 -413 180c-155 0 -323 -61 -418 -181c-15 -18 -25 -34 -25 -53v-294z" />
    <glyph glyph-name="onethird" unicode="&#x2153;" horiz-adv-x="1586" 
d="M103 0l1106 1464h172l-1106 -1464h-172zM211 721v528l-168 -100v182l199 133h194v-743h-225zM916 164l153 67c27 -68 69 -88 140 -88c55 0 98 24 98 85c0 77 -67 83 -128 83h-34v130h37c59 0 121 7 121 77c0 54 -36 79 -82 79c-62 0 -109 -19 -137 -77l-144 63
c45 124 162 171 290 171c127 0 284 -46 284 -203c0 -89 -50 -141 -131 -162c86 -16 149 -78 149 -168c0 -176 -160 -235 -315 -235c-126 0 -261 39 -301 178z" />
    <glyph glyph-name="twothirds" unicode="&#x2154;" horiz-adv-x="1676" 
d="M13 721v29l262 274c94 100 129 156 129 208c0 46 -28 77 -76 77c-68 0 -93 -61 -98 -117h-203c8 186 128 283 309 283c149 0 285 -65 285 -222c0 -141 -109 -243 -203 -330l-45 -42h254v-160h-614zM223 0l1106 1464h172l-1105 -1464h-173zM1006 164l153 67
c27 -68 69 -88 140 -88c55 0 98 24 98 85c0 77 -67 83 -128 83h-34v130h37c59 0 121 7 121 77c0 54 -36 79 -82 79c-61 0 -107 -20 -131 -80l-150 66c45 125 163 171 290 171c128 0 284 -46 284 -203c0 -89 -50 -141 -131 -162c86 -16 149 -78 149 -168
c0 -177 -160 -235 -314 -235c-127 0 -262 39 -302 178z" />
    <glyph glyph-name="uni2155" unicode="&#x2155;" horiz-adv-x="1566" 
d="M65 0l1104 1464h173l-1105 -1464h-172zM217 721v528l-168 -90v182l199 123h195v-743h-226zM895 147l158 68c22 -42 83 -63 131 -63c64 0 97 38 97 101s-32 103 -96 103c-40 0 -78 -16 -101 -53h-160l16 442h524v-159h-367l-5 -172c43 63 109 84 182 84
c153 0 233 -93 233 -236c0 -189 -140 -274 -314 -274c-115 0 -253 37 -298 159z" />
    <glyph glyph-name="uni2156" unicode="&#x2156;" horiz-adv-x="1695" 
d="M25 721v80l262 223c56 47 129 128 129 206c0 49 -28 79 -78 79c-63 0 -121 -45 -143 -103l-156 70c37 142 173 199 312 199c147 0 282 -63 282 -232c0 -88 -53 -164 -204 -302l-66 -60h276v-160h-614zM194 0l1106 1464h172l-1106 -1464h-172zM1010 149l158 67
c23 -41 84 -62 132 -62c64 0 97 38 97 101c0 62 -32 101 -95 101c-41 0 -80 -16 -103 -52h-160l16 441h523v-160h-365l-6 -171c44 63 110 84 182 84c153 0 232 -93 232 -235c0 -189 -139 -275 -312 -275c-115 0 -254 38 -299 161z" />
    <glyph glyph-name="uni2157" unicode="&#x2157;" horiz-adv-x="1714" 
d="M54 885l154 65c32 -65 78 -86 149 -86c53 0 101 24 101 90c0 69 -52 80 -101 79l-36 -1h-25v131h36c60 0 122 7 122 79c0 54 -35 77 -82 77c-64 0 -117 -19 -144 -80l-153 66c42 125 180 170 304 170c127 0 286 -47 286 -201c0 -88 -52 -144 -131 -164
c86 -16 149 -77 149 -168c0 -177 -160 -235 -310 -235c-127 0 -279 42 -319 178zM203 0l1105 1464h172l-1105 -1464h-172zM1044 147l157 68c23 -42 84 -63 132 -63c64 0 97 38 97 101s-32 103 -96 103c-40 0 -79 -16 -102 -53h-159l16 442h523v-159h-366l-6 -172
c44 63 110 84 182 84c153 0 233 -93 233 -236c0 -189 -139 -274 -313 -274c-115 0 -254 37 -298 159z" />
    <glyph glyph-name="uni2158" unicode="&#x2158;" horiz-adv-x="1770" 
d="M35 862v74l317 528h269v-452h96v-150h-96v-141h-215v141h-371zM269 0l1106 1464h172l-1106 -1464h-172zM238 1012h174v301zM1100 147l158 68c23 -42 84 -63 132 -63c64 0 97 38 97 101s-32 103 -96 103c-40 0 -79 -16 -102 -53h-160l16 442h523v-159h-365l-6 -172
c44 63 110 84 182 84c153 0 232 -93 232 -236c0 -189 -139 -274 -313 -274c-114 0 -253 37 -298 159z" />
    <glyph glyph-name="uni2159" unicode="&#x2159;" horiz-adv-x="1574" 
d="M65 0l1106 1464h172l-1106 -1464h-172zM217 721v528l-168 -90v182l199 123h195v-743h-226zM1487 614l-157 -67c-23 36 -66 49 -105 49c-111 0 -144 -109 -149 -199c42 64 104 86 178 86c145 0 250 -82 250 -233c0 -180 -150 -262 -322 -262c-226 0 -327 143 -327 363
c0 225 106 405 353 405c103 0 234 -31 279 -142zM1188 139c63 0 101 46 101 107c0 62 -37 106 -99 106s-102 -43 -102 -106c0 -58 35 -107 100 -107z" />
    <glyph glyph-name="uni215A" unicode="&#x215a;" horiz-adv-x="1688" 
d="M51 866l158 68c23 -41 84 -64 133 -64c64 0 96 40 96 103c0 62 -31 102 -95 102c-41 0 -80 -16 -103 -53h-160l16 442h523v-159h-365l-6 -172c44 63 111 84 184 84c151 0 230 -93 230 -236c0 -189 -139 -274 -313 -274c-114 0 -253 37 -298 159zM186 0l1106 1464h172
l-1106 -1464h-172zM1608 614l-157 -67c-23 36 -66 49 -105 49c-111 0 -144 -109 -149 -199c43 64 104 86 178 86c145 0 250 -82 250 -233c0 -180 -150 -262 -322 -262c-226 0 -327 143 -327 363c0 225 106 405 354 405c103 0 233 -31 278 -142zM1309 139
c63 0 101 46 101 107c0 62 -37 106 -99 106c-61 0 -102 -43 -102 -106c0 -58 35 -107 100 -107z" />
    <glyph glyph-name="oneeighth" unicode="&#x215b;" horiz-adv-x="1571" 
d="M92 0l1106 1464h172l-1106 -1464h-172zM211 721v528l-168 -100v182l199 133h194v-743h-225zM1022 391c-67 28 -106 80 -106 154c0 152 164 209 294 209c126 0 285 -53 285 -207c0 -74 -38 -126 -106 -154c85 -26 135 -88 135 -182c0 -174 -173 -223 -322 -223
c-142 0 -317 45 -317 217c0 94 52 160 137 186zM1118 527c0 -50 43 -81 89 -81c47 0 86 34 86 83s-38 79 -86 79s-89 -32 -89 -81zM1104 232c0 -58 46 -93 102 -93s99 34 99 94c0 61 -43 93 -98 93c-59 0 -103 -37 -103 -94z" />
    <glyph glyph-name="threeeighths" unicode="&#x215c;" horiz-adv-x="1635" 
d="M39 885l154 67c26 -69 68 -88 139 -88c55 0 98 24 98 85c0 77 -69 83 -130 83h-31v130h36c60 0 121 8 121 78c0 53 -36 78 -91 78c-52 0 -97 -22 -122 -80l-149 66c45 123 161 171 288 171s285 -48 285 -204c0 -87 -49 -142 -131 -161c85 -16 150 -79 150 -168
c0 -177 -161 -235 -315 -235c-127 0 -262 39 -302 178zM178 0l1106 1464h171l-1105 -1464h-172zM1086 391c-68 28 -107 80 -107 154c0 152 164 209 294 209c125 0 286 -53 286 -207c0 -75 -39 -126 -108 -154c86 -26 136 -88 136 -182c0 -174 -173 -223 -321 -223
c-142 0 -318 45 -318 217c0 94 53 160 138 186zM1182 527c0 -50 42 -81 88 -81c47 0 86 34 86 83s-38 79 -86 79s-88 -32 -88 -81zM1168 232c0 -58 47 -93 102 -93c56 0 97 35 97 95s-41 92 -96 92c-59 0 -103 -37 -103 -94z" />
    <glyph glyph-name="fiveeighths" unicode="&#x215d;" horiz-adv-x="1622" 
d="M43 874l170 74c26 -50 68 -78 119 -78c67 0 96 49 96 105c0 60 -32 100 -97 100c-40 0 -79 -15 -101 -53h-160l16 442h522v-159h-364l-6 -172c46 62 111 84 182 84c149 0 232 -98 232 -240c0 -183 -141 -270 -310 -270c-119 0 -259 42 -299 167zM166 0l1106 1464h172
l-1106 -1464h-172zM1075 391c-67 28 -106 80 -106 154c0 152 164 209 294 209c126 0 286 -53 286 -207c0 -75 -38 -126 -107 -154c85 -26 135 -88 135 -182c0 -174 -172 -223 -321 -223c-142 0 -318 45 -318 217c0 94 52 160 137 186zM1172 527c0 -50 42 -81 88 -81
c47 0 86 34 86 83s-38 79 -86 79s-88 -32 -88 -81zM1157 233c0 -59 46 -94 101 -94c57 0 100 35 100 95s-42 92 -98 92c-59 0 -103 -36 -103 -93z" />
    <glyph glyph-name="seveneighths" unicode="&#x215e;" horiz-adv-x="1563" 
d="M66 0l1106 1464h172l-1106 -1464h-172zM133 721l234 567h-330v176h590v-88l-270 -655h-224zM1014 391c-69 28 -107 80 -107 154c0 152 163 209 294 209c126 0 286 -53 286 -207c0 -74 -38 -126 -106 -154c85 -26 135 -88 135 -182c0 -174 -173 -223 -322 -223
c-142 0 -317 45 -317 218c0 93 51 159 137 185zM1110 527c0 -50 42 -81 88 -81c47 0 86 34 86 83s-38 79 -86 79s-88 -32 -88 -81zM1096 232c0 -58 46 -93 102 -93s99 34 99 94c0 61 -43 93 -98 93c-59 0 -103 -37 -103 -94z" />
    <glyph glyph-name="arrowleft" unicode="&#x2190;" horiz-adv-x="1579" 
d="M46 732l758 744l193 -193l-462 -423l998 9v-274l-996 10l455 -430l-188 -187z" />
    <glyph glyph-name="arrowup" unicode="&#x2191;" horiz-adv-x="1624" 
d="M255 552l-187 187l744 759l744 -759l-193 -193l-423 463l9 -1009h-274l10 1007z" />
    <glyph glyph-name="arrowright" unicode="&#x2192;" horiz-adv-x="1580" 
d="M593 175l455 430l-1007 -10v274l1009 -9l-463 423l193 193l759 -744l-759 -744z" />
    <glyph glyph-name="arrowdown" unicode="&#x2193;" horiz-adv-x="1624" 
d="M812 -34l-744 759l193 193l423 -463l-9 1009h274l-10 -1007l430 456l187 -188z" />
    <glyph glyph-name="arrowboth" unicode="&#x2194;" horiz-adv-x="2400" 
d="M790 -12l-740 744l740 744l188 -193l-451 -423h1346l-451 423l188 193l740 -744l-740 -744l-184 187l445 430h-1342l445 -430z" />
    <glyph glyph-name="arrowupdn" unicode="&#x2195;" horiz-adv-x="1624" 
d="M68 344l187 172l430 -416v1264l-430 -416l-187 172l744 692l744 -692l-193 -176l-423 422v-1268l423 422l193 -176l-744 -692z" />
    <glyph glyph-name="uni2196" unicode="&#x2196;" horiz-adv-x="1624" 
d="M109 0v1464h1447v-303l-974 4l1042 -991l-209 -209l-1006 1021l4 -986h-304z" />
    <glyph glyph-name="uni2197" unicode="&#x2197;" horiz-adv-x="1624" 
d="M0 174l1042 992l-975 -5v303h1448v-1464h-305l5 986l-1006 -1021z" />
    <glyph glyph-name="uni2198" unicode="&#x2198;" horiz-adv-x="1624" 
d="M67 0v303l975 -4l-1042 991l209 209l1005 -1021l-4 986h305v-1464h-1448z" />
    <glyph glyph-name="uni2199" unicode="&#x2199;" horiz-adv-x="1624" 
d="M109 0v1464h304l-4 -986l1005 1021l210 -209l-1042 -991l974 4v-303h-1447z" />
    <glyph glyph-name="partialdiff" unicode="&#x2202;" horiz-adv-x="1204" 
d="M328 1084l-234 102c66 225 261 301 478 301c427 0 573 -345 573 -720v-127c0 -375 -145 -660 -559 -660c-309 0 -524 193 -524 503c0 277 171 470 444 470c144 0 264 -54 338 -176c0 187 -30 469 -276 469c-127 0 -196 -40 -240 -162zM592 224c158 0 244 116 244 268
c0 144 -102 238 -244 238c-152 0 -235 -108 -235 -254c0 -144 83 -252 235 -252z" />
    <glyph glyph-name="product" unicode="&#x220f;" horiz-adv-x="1379" 
d="M169 0v1229h-139v235h1321v-235h-140v-1229h-318v1229h-406v-1229h-318z" />
    <glyph glyph-name="summation" unicode="&#x2211;" horiz-adv-x="1208" 
d="M69 -180v202l385 715l-378 649v243h1030v-257h-633l362 -612l-363 -668h667v-272h-1070z" />
    <glyph glyph-name="minus" unicode="&#x2212;" horiz-adv-x="1149" 
d="M84 582v231h981v-231h-981z" />
    <glyph glyph-name="radical" unicode="&#x221a;" horiz-adv-x="1360" 
d="M470 -116l-268 644l-138 -50l-63 158l394 123l256 -650l522 1591h246l-608 -1816h-341z" />
    <glyph glyph-name="uni221B" unicode="&#x221b;" horiz-adv-x="1360" 
d="M470 -116l-258 634l-148 -40l-63 158l394 123l256 -650l522 1591h246l-608 -1816h-341zM208 1042l129 52c26 -70 87 -109 167 -109c70 0 125 29 125 107c0 94 -80 98 -159 98h-22v106h27c74 0 144 7 144 91c0 65 -42 94 -108 94c-73 0 -127 -35 -152 -103l-129 52
c46 120 161 170 286 170c131 0 271 -54 271 -191c0 -82 -50 -133 -129 -158c93 -18 150 -77 150 -173c0 -155 -150 -214 -297 -214c-131 0 -269 46 -303 178z" />
    <glyph glyph-name="infinity" unicode="&#x221e;" horiz-adv-x="1835" 
d="M910 549c-123 -137 -259 -269 -462 -269c-254 0 -401 207 -401 453s146 454 400 454c203 0 345 -134 463 -276c125 155 241 278 447 278c270 0 415 -210 415 -457c0 -251 -148 -457 -413 -457c-193 0 -335 134 -449 274zM1046 729c65 -85 170 -199 286 -199
c108 0 175 101 175 201c0 98 -64 203 -172 203c-115 0 -224 -122 -289 -205zM770 728c-63 80 -176 205 -288 205c-103 0 -177 -107 -177 -203c0 -101 79 -198 185 -198c114 0 217 113 280 196z" />
    <glyph glyph-name="integral" unicode="&#x222b;" horiz-adv-x="823" 
d="M36 -247v216h112c98 0 159 64 159 162v1173c0 239 116 395 365 395h114v-216h-105c-96 0 -153 -86 -153 -175v-1222c0 -238 -172 -333 -389 -333h-103z" />
    <glyph glyph-name="approxequal" unicode="&#x2248;" horiz-adv-x="1165" 
d="M283 721h-181c13 157 80 319 272 319c68 0 136 -20 203 -41c106 -32 159 -43 213 -43s85 41 93 91h180c-8 -154 -84 -320 -271 -320c-47 0 -98 11 -202 42c-69 21 -139 42 -213 42c-58 0 -86 -37 -94 -90zM283 281h-181c13 159 81 321 273 321c68 0 135 -20 196 -39
c115 -35 164 -45 219 -45c57 0 85 39 93 90h180c-8 -152 -85 -319 -268 -319c-65 0 -135 21 -205 42c-69 21 -140 42 -213 42c-58 0 -86 -38 -94 -92z" />
    <glyph glyph-name="notequal" unicode="&#x2260;" horiz-adv-x="1126" 
d="M268 162l74 192h-242v211h324l76 201h-400v211h482l75 192h207l-76 -192h238v-211h-320l-75 -201h395v-211h-477l-74 -192h-207z" />
    <glyph glyph-name="lessequal" unicode="&#x2264;" horiz-adv-x="1083" 
d="M115 741v60l835 446v-266l-409 -209l409 -207v-270zM115 0v205h835v-205h-835z" />
    <glyph glyph-name="greaterequal" unicode="&#x2265;" horiz-adv-x="1083" 
d="M135 295v270l410 207l-410 209v266l836 -446v-60zM135 0v205h836v-205h-836z" />
    <glyph glyph-name="uni2460" unicode="&#x2460;" horiz-adv-x="1831" 
d="M94 732c0 458 369 812 824 812s819 -351 819 -809c0 -460 -364 -815 -820 -815c-455 0 -823 355 -823 812zM918 66c377 0 653 293 653 668c0 376 -276 664 -655 664s-656 -288 -656 -662c0 -377 280 -670 658 -670zM822 351v528l-168 -90v182l199 123h195v-743h-226z" />
    <glyph glyph-name="uni2461" unicode="&#x2461;" horiz-adv-x="1831" 
d="M94 732c0 458 369 812 824 812s819 -351 819 -809c0 -460 -364 -815 -820 -815c-455 0 -823 355 -823 812zM918 66c377 0 653 293 653 668c0 376 -276 664 -655 664s-656 -288 -656 -662c0 -377 280 -670 658 -670zM615 376v80l262 223c56 47 129 128 129 206
c0 49 -28 79 -78 79c-63 0 -121 -45 -143 -103l-156 70c37 142 173 199 312 199c147 0 282 -63 282 -232c0 -88 -53 -164 -204 -302l-66 -60h276v-160h-614z" />
    <glyph glyph-name="uni2462" unicode="&#x2462;" horiz-adv-x="1831" 
d="M94 732c0 458 369 812 824 812s819 -351 819 -809c0 -460 -364 -815 -820 -815c-455 0 -823 355 -823 812zM918 66c377 0 653 293 653 668c0 376 -276 664 -655 664s-656 -288 -656 -662c0 -377 280 -670 658 -670zM605 531l154 65c33 -65 78 -86 149 -86
c54 0 101 24 101 90c0 69 -52 80 -101 79l-36 -1h-25v130h36c60 0 122 7 122 79c0 54 -34 77 -82 77c-63 0 -116 -19 -144 -80l-153 66c43 126 180 171 304 171c128 0 286 -48 286 -202c0 -88 -51 -143 -131 -163c86 -16 149 -78 149 -168c0 -177 -160 -235 -310 -235
c-127 0 -279 42 -319 178z" />
    <glyph glyph-name="uni2463" unicode="&#x2463;" horiz-adv-x="1831" 
d="M94 732c0 458 369 812 824 812s819 -351 819 -809c0 -460 -364 -815 -820 -815c-455 0 -823 355 -823 812zM918 66c377 0 653 293 653 668c0 376 -276 664 -655 664s-656 -288 -656 -662c0 -377 280 -670 658 -670zM533 497v74l317 528h269v-452h96v-150h-96v-141h-215
v141h-371zM736 647h174v301z" />
    <glyph glyph-name="uni2464" unicode="&#x2464;" horiz-adv-x="1831" 
d="M94 732c0 458 369 812 824 812s819 -351 819 -809c0 -460 -364 -815 -820 -815c-455 0 -823 355 -823 812zM918 66c377 0 653 293 653 668c0 376 -276 664 -655 664s-656 -288 -656 -662c0 -377 280 -670 658 -670zM625 482l158 68c23 -41 84 -64 132 -64
c64 0 97 40 97 103c0 62 -32 102 -96 102c-40 0 -79 -16 -102 -53h-160l16 442h523v-159h-365l-6 -172c44 63 110 84 182 84c153 0 232 -93 232 -236c0 -189 -139 -274 -313 -274c-114 0 -253 37 -298 159z" />
    <glyph glyph-name="uni2465" unicode="&#x2465;" horiz-adv-x="1831" 
d="M94 732c0 458 369 812 824 812s819 -351 819 -809c0 -460 -364 -815 -820 -815c-455 0 -823 355 -823 812zM918 66c377 0 653 293 653 668c0 376 -276 664 -655 664s-656 -288 -656 -662c0 -377 280 -670 658 -670zM1213 969l-157 -67c-23 36 -66 49 -105 49
c-111 0 -144 -109 -149 -199c42 64 104 86 180 86c145 0 248 -80 248 -232c0 -182 -149 -263 -320 -263c-227 0 -329 143 -329 363c0 225 106 405 353 405c103 0 234 -31 279 -142zM914 494c63 0 101 46 101 107c0 62 -37 106 -99 106c-61 0 -102 -43 -102 -106
c0 -58 35 -107 100 -107z" />
    <glyph glyph-name="uni2466" unicode="&#x2466;" horiz-adv-x="1831" 
d="M94 732c0 458 369 812 824 812s819 -351 819 -809c0 -460 -364 -815 -820 -815c-455 0 -823 355 -823 812zM918 66c377 0 653 293 653 668c0 376 -276 664 -655 664s-656 -288 -656 -662c0 -377 280 -670 658 -670zM726 309l231 567h-328v176h590v-84l-270 -659h-223z
" />
    <glyph glyph-name="uni2467" unicode="&#x2467;" horiz-adv-x="1831" 
d="M94 732c0 458 369 812 824 812s819 -351 819 -809c0 -460 -364 -815 -820 -815c-455 0 -823 355 -823 812zM918 66c377 0 653 293 653 668c0 376 -276 664 -655 664s-656 -288 -656 -662c0 -377 280 -670 658 -670zM729 747c-68 28 -107 80 -107 154
c0 151 164 209 295 209c126 0 285 -53 285 -209c0 -76 -39 -123 -108 -152c83 -28 136 -90 136 -185c0 -171 -172 -222 -322 -222c-141 0 -317 45 -317 217c0 95 54 159 138 188zM825 882c0 -49 42 -80 88 -80c47 0 86 31 86 80c0 50 -38 80 -86 80c-47 0 -88 -30 -88 -80z
M811 588c0 -60 44 -93 100 -93c58 0 99 34 99 94s-41 93 -99 93s-100 -35 -100 -94z" />
    <glyph glyph-name="uni2468" unicode="&#x2468;" horiz-adv-x="1831" 
d="M94 732c0 458 369 812 824 812s819 -351 819 -809c0 -460 -364 -815 -820 -815c-455 0 -823 355 -823 812zM918 66c377 0 653 293 653 668c0 376 -276 664 -655 664s-656 -288 -656 -662c0 -377 280 -670 658 -670zM611 483l153 66c25 -41 79 -48 123 -48
c109 0 142 98 142 191c-44 -59 -97 -82 -175 -82c-143 0 -254 76 -254 233c0 181 148 263 317 263c224 0 335 -143 335 -363c0 -233 -88 -405 -341 -405c-113 0 -252 34 -300 145zM909 743c62 0 105 41 105 107c0 58 -33 106 -99 106s-102 -48 -102 -110
c0 -61 34 -103 96 -103z" />
    <glyph glyph-name="uni24C5" unicode="&#x24c5;" horiz-adv-x="1881" 
d="M121 731c0 454 370 805 826 805c449 0 813 -341 813 -801s-367 -807 -819 -807c-453 0 -820 350 -820 803zM939 63c380 0 660 294 660 675c0 377 -276 663 -657 663c-384 0 -660 -291 -660 -667c0 -377 278 -671 657 -671zM682 296v821h303c180 0 326 -68 326 -277
c0 -248 -207 -260 -408 -260v-284h-221zM903 730h74c74 0 125 31 125 113c0 80 -49 106 -125 106h-74v-219z" />
    <glyph glyph-name="filledbox" unicode="&#x25a0;" horiz-adv-x="1276" 
d="M161 249v966h955v-966h-955z" />
    <glyph glyph-name="uni25A1" unicode="&#x25a1;" horiz-adv-x="1276" 
d="M156 249v967h964v-967h-964zM344 435h588v596h-588v-596z" />
    <glyph glyph-name="lozenge" unicode="&#x25ca;" horiz-adv-x="1034" 
d="M309 197l-236 532l236 539h207l-227 -539l227 -532h-207zM519 197l227 532l-227 539h206l236 -539l-236 -532h-206z" />
    <glyph glyph-name="circle" unicode="&#x25cb;" horiz-adv-x="1276" 
d="M141 732c0 299 199 498 498 498c297 0 496 -199 496 -498c0 -297 -199 -497 -496 -497c-299 0 -498 200 -498 497zM322 730c0 -190 126 -316 316 -316s316 127 316 317s-125 318 -315 318c-191 0 -317 -127 -317 -319z" />
    <glyph glyph-name="uni25CF" unicode="&#x25cf;" horiz-adv-x="1276" 
d="M136 733c0 293 210 502 503 502c292 0 501 -210 501 -502s-209 -502 -501 -502c-293 0 -503 209 -503 502z" />
    <glyph glyph-name="f_f" unicode="&#xfb00;" horiz-adv-x="1393" 
d="M174 0v860h-141v211h141v111c0 245 140 387 381 387c59 0 118 -14 172 -38l-84 -196c-14 7 -28 8 -41 8c-122 0 -133 -103 -133 -193v-79h350v123c0 245 141 375 383 375c60 0 118 -15 172 -39l-84 -196c-14 8 -28 9 -41 9c-121 0 -137 -88 -137 -180l2 -92h234v-211
h-234v-860h-295v860h-350v-860h-295z" />
    <glyph glyph-name="fi" unicode="&#xfb01;" horiz-adv-x="1313" 
d="M174 0v860h-141v211h141v123c0 245 138 375 381 375c60 0 118 -15 172 -39l-84 -195c-14 7 -28 8 -41 8c-120 0 -137 -90 -135 -181l2 -91h232v-211h-232v-860h-295zM858 1380c0 93 75 160 168 160s170 -66 170 -160c0 -95 -80 -163 -170 -163c-91 0 -168 68 -168 163z
M881 0v1071h295v-1071h-295z" />
    <glyph glyph-name="fl" unicode="&#xfb02;" horiz-adv-x="1311" 
d="M881 0v1475l295 129v-1604h-295zM174 0v860h-141v211h141v123c0 245 138 375 381 375c60 0 118 -15 172 -39l-84 -195c-14 7 -28 8 -41 8c-120 0 -137 -90 -135 -181l2 -91h232v-211h-232v-860h-295z" />
    <glyph glyph-name="space.tab" horiz-adv-x="614" 
 />
    <glyph glyph-name="dollar.old" horiz-adv-x="1274" 
d="M561 -268v245c-233 23 -449 126 -512 375l254 111c34 -134 126 -211 258 -233v389c-259 41 -460 135 -460 411c0 291 225 438 460 455v183h146v-183c208 -16 380 -99 454 -311l-237 -108c-38 99 -115 162 -217 181v-363c255 -41 479 -127 479 -454
c0 -268 -220 -424 -479 -450v-248h-146zM561 908v343c-89 -12 -178 -65 -178 -203c0 -87 76 -119 178 -140zM707 594v-372c97 18 184 83 184 175c0 144 -82 172 -184 197z" />
    <glyph glyph-name="dollar.oldtab" 
d="M548 -268v257c-222 16 -433 115 -494 354l234 108c35 -118 140 -212 260 -227v396c-258 41 -455 136 -455 438c0 265 218 411 455 427v183h141v-183c215 -18 356 -110 451 -311l-238 -104c-38 96 -109 169 -213 177v-362c255 -40 469 -131 469 -436
c0 -282 -211 -444 -469 -462v-255h-141zM548 909v342c-90 -11 -176 -65 -176 -167c0 -122 75 -154 176 -175zM689 594v-372c97 19 183 84 183 193c0 128 -79 155 -183 179z" />
    <glyph glyph-name="dollar.tab" 
d="M537 -276v256c-230 16 -425 123 -486 358l242 104c38 -128 109 -205 244 -227v397c-262 45 -463 142 -463 441c0 265 220 413 463 432v183h143v-183c202 -18 373 -114 432 -320l-229 -100c-26 106 -97 165 -203 182v-368c264 -42 477 -132 477 -437
c0 -283 -211 -441 -477 -462v-256h-143zM537 903v348c-94 -11 -183 -68 -183 -172c0 -121 79 -155 183 -176zM680 588v-373c104 19 184 83 184 203c0 117 -76 148 -184 170z" />
    <glyph glyph-name="percent.tab" horiz-adv-x="1432" 
d="M396 799c-196 0 -300 156 -300 337c0 185 109 343 303 343c192 0 301 -153 301 -337c0 -181 -105 -343 -304 -343zM163 0l954 1464h181l-954 -1464h-181zM399 967c87 0 96 109 96 176c0 63 -8 172 -96 172c-87 0 -98 -109 -98 -173c0 -66 12 -175 98 -175zM1053 -23
c-197 0 -300 158 -300 337c0 185 109 343 303 343c190 0 299 -151 299 -337c0 -180 -102 -343 -302 -343zM1054 145c87 0 96 112 96 177c0 66 -9 172 -95 172s-97 -108 -97 -175c0 -61 9 -174 96 -174z" />
    <glyph glyph-name="parenleft.tab" horiz-adv-x="614" 
d="M592 -303h-225c-193 284 -291 600 -291 946c0 343 96 669 291 954h225c-165 -294 -244 -618 -244 -958c0 -339 79 -643 244 -942z" />
    <glyph glyph-name="parenleft.uc" horiz-adv-x="691" 
d="M668 -201h-244c-212 254 -336 571 -336 906c0 332 122 636 336 892h244c-184 -264 -293 -572 -293 -895c0 -322 107 -640 293 -903z" />
    <glyph glyph-name="parenright.tab" horiz-adv-x="614" 
d="M258 -303h-226c165 296 244 606 244 944c0 337 -79 662 -244 956h226c193 -285 291 -611 291 -956c0 -344 -98 -659 -291 -944z" />
    <glyph glyph-name="parenright.uc" horiz-adv-x="691" 
d="M266 -201h-241c184 267 291 578 291 903s-107 629 -291 895h241c219 -256 338 -558 338 -891c0 -339 -124 -651 -338 -907z" />
    <glyph glyph-name="plus.sub" horiz-adv-x="732" 
d="M283 -129v207h-201v160h201v208h164v-208h202v-160h-202v-207h-164z" />
    <glyph glyph-name="plus.sup" horiz-adv-x="732" 
d="M283 930v207h-201v159h201v209h164v-209h202v-159h-202v-207h-164z" />
    <glyph glyph-name="plus.tab" 
d="M489 195v391h-359v223h359v391h241v-391h361v-223h-361v-391h-241z" />
    <glyph glyph-name="comma.tab" horiz-adv-x="614" 
d="M41 -176l180 506l277 -105l-279 -477z" />
    <glyph glyph-name="hyphen.uc" horiz-adv-x="787" 
d="M105 547v244h577v-244h-577z" />
    <glyph glyph-name="period.tab" horiz-adv-x="614" 
d="M123 160c0 103 79 180 180 180c100 0 185 -76 185 -180c0 -102 -82 -178 -185 -178s-180 77 -180 178z" />
    <glyph glyph-name="slash.alt" horiz-adv-x="291" 
d="M-493 0l1106 1464h172l-1106 -1464h-172z" />
    <glyph glyph-name="slash.uc" horiz-adv-x="854" 
d="M6 -172l590 1769h244l-590 -1769h-244z" />
    <glyph glyph-name="zero.den" horiz-adv-x="832" 
d="M415 -12c-233 0 -351 153 -351 381c0 220 110 387 350 387c227 0 354 -150 354 -369c0 -231 -109 -399 -353 -399zM416 160c113 0 129 117 129 205c0 93 -8 223 -128 223c-114 0 -130 -119 -130 -205c0 -90 9 -223 129 -223z" />
    <glyph glyph-name="zero.num" horiz-adv-x="832" 
d="M415 707c-233 0 -351 153 -351 381c0 220 110 387 350 387c227 0 354 -150 354 -369c0 -231 -109 -399 -353 -399zM416 879c112 0 129 116 129 204c0 93 -7 224 -127 224c-115 0 -131 -119 -131 -205c0 -90 9 -223 129 -223z" />
    <glyph glyph-name="zero.old" horiz-adv-x="1346" 
d="M672 -23c-376 0 -598 261 -598 627v58c0 365 226 628 602 628c371 0 596 -255 596 -620v-58c0 -368 -219 -635 -600 -635zM671 221c230 0 284 200 284 387c0 200 -24 443 -278 443c-228 0 -286 -196 -286 -385c0 -201 26 -445 280 -445z" />
    <glyph glyph-name="zero.oldtab" 
d="M613 -23c-341 0 -528 241 -528 568v182c0 323 196 563 535 563c331 0 526 -230 526 -557v-182c0 -330 -189 -574 -533 -574zM620 229c186 0 221 166 221 318v180c0 151 -39 317 -225 317c-184 0 -226 -161 -226 -315v-184c0 -154 46 -316 230 -316z" />
    <glyph glyph-name="zero.sub" horiz-adv-x="824" 
d="M408 -233c-233 0 -348 150 -348 378c0 223 110 390 350 390c227 0 354 -150 354 -369c0 -232 -109 -399 -356 -399zM412 -61c112 0 129 116 129 204c0 93 -7 224 -127 224c-115 0 -131 -119 -131 -205c0 -90 9 -223 129 -223z" />
    <glyph glyph-name="zero.sup" horiz-adv-x="824" 
d="M410 825c-233 0 -350 154 -350 380c0 221 111 388 351 388c226 0 353 -149 353 -368c0 -231 -109 -400 -354 -400zM411 997c113 0 130 118 130 205c0 93 -8 223 -128 223c-114 0 -130 -118 -130 -204c0 -91 8 -224 128 -224z" />
    <glyph glyph-name="zero.tab" 
d="M611 -23c-369 0 -536 259 -536 605v292c0 343 173 611 547 611c363 0 530 -252 530 -598v-297c0 -346 -166 -613 -541 -613zM620 236c210 0 219 189 219 350v297c0 156 -23 348 -223 348c-201 0 -228 -196 -228 -354v-293c0 -165 25 -348 232 -348z" />
    <glyph glyph-name="one.den" horiz-adv-x="568" 
d="M221 0v528l-168 -90v183l199 122h195v-743h-226z" />
    <glyph glyph-name="one.num" horiz-adv-x="566" 
d="M221 721v528l-168 -90v182l199 123h195v-743h-226z" />
    <glyph glyph-name="one.old" horiz-adv-x="844" 
d="M352 0v958l-290 -188v268l329 230h273v-1268h-312z" />
    <glyph glyph-name="one.oldtab" 
d="M579 0v958l-381 -260v271l418 299h274v-1268h-311z" />
    <glyph glyph-name="one.sub" horiz-adv-x="560" 
d="M217 -221v528l-168 -90v182l199 123h195v-743h-226z" />
    <glyph glyph-name="one.sup" horiz-adv-x="560" 
d="M217 840v528l-168 -90v182l199 123h195v-743h-226z" />
    <glyph glyph-name="one.tab" 
d="M562 0v1135l-377 -263v283l408 309h301v-1464h-332z" />
    <glyph glyph-name="two.den" horiz-adv-x="695" 
d="M23 0v80l262 223c56 47 129 128 129 206c0 49 -28 79 -78 79c-63 0 -121 -45 -143 -103l-156 70c37 142 173 199 312 199c147 0 282 -63 282 -232c0 -88 -53 -164 -204 -302l-66 -60h276v-160h-614z" />
    <glyph glyph-name="two.num" horiz-adv-x="695" 
d="M23 721v80l262 223c56 47 129 128 129 206c0 49 -28 79 -78 79c-63 0 -121 -45 -143 -103l-156 70c37 142 173 199 312 199c147 0 282 -63 282 -232c0 -88 -53 -164 -204 -302l-66 -60h276v-160h-614z" />
    <glyph glyph-name="two.old" horiz-adv-x="1156" 
d="M25 0v51l483 457c96 91 244 224 244 366c0 119 -75 177 -185 177c-150 0 -245 -109 -282 -242l-227 98c69 251 266 383 522 383c245 0 485 -120 485 -395c0 -202 -165 -345 -301 -471l-205 -191h518v-233h-1052z" />
    <glyph glyph-name="two.oldtab" 
d="M71 0v51l483 457c98 93 244 219 244 374c0 111 -75 169 -185 169c-150 0 -245 -109 -282 -242l-227 98c69 251 266 383 522 383c245 0 485 -120 485 -395c0 -197 -168 -347 -301 -471l-205 -191h518v-233h-1052z" />
    <glyph glyph-name="two.sub" horiz-adv-x="687" 
d="M19 -221v80l262 223c56 47 129 128 129 206c0 49 -28 79 -78 79c-63 0 -121 -45 -143 -103l-156 70c37 141 174 198 312 198c146 0 282 -63 282 -231c0 -90 -56 -171 -205 -304l-65 -58h276v-160h-614z" />
    <glyph glyph-name="two.sup" horiz-adv-x="687" 
d="M21 840v80l262 223c54 46 129 130 129 205c0 48 -29 75 -80 75c-60 0 -120 -40 -141 -98l-158 70c40 143 174 194 311 194c148 0 285 -60 285 -218c0 -98 -53 -176 -207 -315l-63 -57h276v-159h-614z" />
    <glyph glyph-name="two.tab" 
d="M63 0v131l493 487c98 97 232 282 232 424c0 114 -58 191 -179 191c-155 0 -206 -127 -237 -258l-256 112c53 272 236 398 506 398c274 0 493 -130 493 -428c0 -165 -102 -341 -245 -482l-322 -317h569v-258h-1054z" />
    <glyph glyph-name="three.den" horiz-adv-x="740" 
d="M49 166l154 65c33 -65 78 -86 149 -86c54 0 101 24 101 90c0 69 -52 80 -101 79l-36 -1h-25v130h36c60 0 122 7 122 79c0 54 -34 77 -82 77c-64 0 -116 -18 -144 -80l-153 66c43 126 180 171 306 171c127 0 284 -46 284 -201c0 -89 -52 -143 -131 -164
c86 -16 149 -78 149 -168c0 -177 -160 -235 -310 -235c-127 0 -279 42 -319 178z" />
    <glyph glyph-name="three.num" horiz-adv-x="740" 
d="M49 885l154 65c33 -65 78 -86 149 -86c54 0 101 24 101 90c0 69 -52 80 -101 79l-36 -1h-25v130h36c60 0 122 7 122 79c0 54 -34 77 -82 77c-63 0 -116 -19 -144 -80l-153 66c43 126 180 171 304 171c128 0 286 -48 286 -202c0 -88 -51 -143 -131 -163
c86 -16 149 -78 149 -168c0 -177 -160 -235 -310 -235c-127 0 -279 42 -319 178z" />
    <glyph glyph-name="three.old" horiz-adv-x="1240" 
d="M58 152l235 102c53 -151 150 -234 313 -234c147 0 246 69 246 229c0 194 -145 206 -294 206h-64v211h34c150 0 298 9 298 190c0 132 -79 199 -204 199c-135 0 -236 -79 -284 -208l-233 102c79 236 293 341 527 341c248 0 491 -117 491 -391c0 -165 -88 -267 -236 -324
c183 -45 279 -158 279 -346c0 -316 -269 -444 -553 -444c-253 0 -478 102 -555 367z" />
    <glyph glyph-name="three.oldtab" 
d="M63 152l235 102c53 -151 150 -234 313 -234c147 0 246 69 246 229c0 194 -145 206 -294 206h-64v211h34c150 0 298 9 298 190c0 132 -79 199 -204 199c-135 0 -236 -79 -284 -208l-233 102c79 236 293 341 527 341c248 0 491 -117 491 -391c0 -165 -88 -267 -236 -324
c183 -45 279 -158 279 -346c0 -316 -269 -444 -553 -444c-253 0 -478 102 -555 367z" />
    <glyph glyph-name="three.sub" horiz-adv-x="732" 
d="M45 -55l154 65c33 -65 78 -86 149 -86c54 0 101 24 101 90c0 69 -52 80 -101 79l-36 -1h-25v131h36c60 0 122 7 122 79c0 54 -34 77 -82 77c-63 0 -116 -19 -144 -80l-153 66c42 125 181 171 305 171c127 0 285 -48 285 -202c0 -88 -51 -144 -131 -164
c86 -16 149 -77 149 -168c0 -177 -160 -235 -310 -235c-127 0 -279 42 -319 178z" />
    <glyph glyph-name="three.sup" horiz-adv-x="732" 
d="M45 1004l154 65c33 -65 78 -86 149 -86c54 0 101 24 101 90c0 69 -52 80 -101 79l-36 -1h-25v131h36c60 0 122 7 122 79c0 54 -34 77 -82 77c-63 0 -116 -19 -144 -80l-153 65c43 125 180 170 305 170c127 0 285 -46 285 -200c0 -88 -51 -144 -131 -164
c86 -17 149 -77 149 -168c0 -178 -159 -236 -309 -236c-129 0 -280 43 -320 179z" />
    <glyph glyph-name="three.tab" 
d="M67 345l245 107c40 -147 118 -227 276 -227c140 0 228 63 228 217c0 191 -134 201 -283 201h-55v221h44c145 0 280 11 280 187c0 129 -73 186 -193 186c-136 0 -225 -74 -258 -207l-237 105c64 238 268 350 506 350c247 0 483 -120 483 -391c0 -166 -88 -273 -236 -324
c176 -40 273 -161 273 -341c0 -320 -251 -452 -541 -452c-253 0 -471 101 -532 368z" />
    <glyph glyph-name="four.den" horiz-adv-x="772" 
d="M39 141v74l317 528h269v-452h96v-150h-96v-141h-215v141h-371zM242 291h174v301z" />
    <glyph glyph-name="four.num" horiz-adv-x="770" 
d="M39 862v74l317 528h269v-452h96v-150h-96v-141h-215v141h-371zM242 1012h174v301z" />
    <glyph glyph-name="four.old" horiz-adv-x="1319" 
d="M35 96v105l643 1065h397v-955h195v-215h-195v-289h-309v289h-731zM357 311h415v717z" />
    <glyph glyph-name="four.oldtab" 
d="M48 96v103l565 1067h383v-957h168v-213h-168v-289h-296v289h-652zM333 309h373v709z" />
    <glyph glyph-name="four.sub" horiz-adv-x="764" 
d="M35 -80v74l317 528h269v-452h96v-150h-96v-141h-215v141h-371zM238 70h174v301z" />
    <glyph glyph-name="four.sup" horiz-adv-x="764" 
d="M35 981v74l317 528h269v-453h96v-149h-96v-141h-215v141h-371zM238 1130h174v302z" />
    <glyph glyph-name="four.tab" 
d="M55 301v111l570 1052h383v-936h155v-227h-155v-301h-299v301h-654zM350 528h363v680z" />
    <glyph glyph-name="five.den" horiz-adv-x="725" 
d="M51 147l158 68c23 -42 84 -63 132 -63c64 0 97 38 97 101s-32 103 -96 103c-40 0 -79 -16 -102 -53h-160l16 442h523v-159h-365l-6 -172c44 63 110 84 182 84c153 0 232 -93 232 -236c0 -189 -139 -274 -313 -274c-114 0 -253 37 -298 159z" />
    <glyph glyph-name="five.num" horiz-adv-x="723" 
d="M51 866l158 68c23 -41 84 -64 132 -64c64 0 97 40 97 103c0 62 -32 102 -96 102c-40 0 -79 -16 -102 -53h-160l16 442h523v-159h-365l-6 -172c44 63 110 84 182 84c153 0 232 -93 232 -236c0 -189 -139 -274 -313 -274c-114 0 -253 37 -298 159z" />
    <glyph glyph-name="five.old" horiz-adv-x="1211" 
d="M56 113l235 100c53 -132 159 -188 297 -188c155 0 236 119 236 260c0 152 -93 258 -244 258c-108 0 -207 -33 -277 -119h-176l19 844h907v-248h-672l-6 -387c80 93 205 129 324 129c282 0 438 -204 438 -469c0 -328 -238 -508 -554 -508c-222 0 -458 89 -527 328z" />
    <glyph glyph-name="five.oldtab" 
d="M93 113l226 100c49 -130 148 -188 284 -188c151 0 226 126 226 263c0 144 -84 255 -234 255c-105 0 -199 -34 -264 -119h-170l18 844h871v-248h-645l-7 -387c77 92 195 129 312 129c279 0 420 -212 420 -469c0 -319 -217 -508 -530 -508c-220 0 -443 94 -507 328z" />
    <glyph glyph-name="five.sub" horiz-adv-x="717" 
d="M47 -74l158 68c22 -43 84 -64 131 -64c65 0 98 39 98 102s-32 103 -96 103c-40 0 -79 -16 -102 -53h-160l16 442h523v-159h-365l-6 -172c44 63 110 83 182 83c153 0 232 -92 232 -236c0 -190 -137 -273 -310 -273c-117 0 -256 37 -301 159z" />
    <glyph glyph-name="five.sup" horiz-adv-x="717" 
d="M47 985l158 68c23 -41 84 -64 132 -64c64 0 97 40 97 103c0 62 -32 102 -96 102c-40 0 -79 -16 -102 -53h-160l16 442h523v-160h-365l-6 -172c43 64 110 84 182 84c153 0 232 -92 232 -235c0 -189 -138 -275 -312 -275c-116 0 -254 38 -299 160z" />
    <glyph glyph-name="five.tab" 
d="M95 322l244 106c36 -146 109 -192 256 -192c160 0 219 118 219 253c0 155 -78 259 -231 259c-107 0 -197 -33 -265 -119h-178l19 835h890v-252h-651l-6 -372c80 94 187 137 315 137c281 0 426 -209 426 -478c0 -327 -215 -522 -536 -522c-241 0 -447 91 -502 345z" />
    <glyph glyph-name="six.den" horiz-adv-x="770" 
d="M696 614l-157 -67c-23 36 -66 49 -105 49c-111 0 -144 -109 -149 -199c42 64 104 86 178 86c145 0 250 -82 250 -233c0 -181 -149 -262 -320 -262c-227 0 -329 143 -329 363c0 225 106 405 353 405c103 0 234 -31 279 -142zM397 139c63 0 101 46 101 107
c0 62 -37 106 -99 106c-61 0 -102 -43 -102 -106c0 -58 35 -107 100 -107z" />
    <glyph glyph-name="six.num" horiz-adv-x="768" 
d="M696 1333l-157 -67c-23 36 -66 49 -105 49c-111 0 -144 -109 -149 -199c42 64 104 86 180 86c145 0 248 -80 248 -232c0 -182 -149 -263 -320 -263c-227 0 -329 143 -329 363c0 225 106 405 353 405c103 0 234 -31 279 -142zM397 858c63 0 101 46 101 107
c0 62 -37 106 -99 106c-61 0 -102 -43 -102 -106c0 -58 35 -107 100 -107z" />
    <glyph glyph-name="six.old" horiz-adv-x="1291" 
d="M1186 1202l-235 -102c-53 98 -152 145 -251 145c-254 0 -298 -307 -302 -493c77 125 204 180 353 180c271 0 468 -183 468 -468c0 -321 -249 -487 -563 -487c-417 0 -574 293 -574 686c0 387 152 822 618 822c198 0 411 -78 486 -283zM660 209c153 0 248 111 248 259
c0 145 -91 255 -241 255c-146 0 -255 -104 -255 -258c0 -143 94 -256 248 -256z" />
    <glyph glyph-name="six.oldtab" 
d="M1128 1196l-220 -102c-46 96 -138 145 -234 145c-244 0 -280 -318 -284 -494c70 120 188 181 335 181c264 0 433 -197 433 -467c0 -305 -216 -488 -517 -488c-419 0 -546 354 -546 715c0 356 150 793 583 793c189 0 383 -83 450 -283zM639 211c147 0 235 115 235 257
c0 138 -82 255 -234 255c-143 0 -239 -105 -239 -252c0 -140 87 -260 238 -260z" />
    <glyph glyph-name="six.sub" horiz-adv-x="762" 
d="M692 393l-157 -67c-23 35 -67 49 -107 49c-109 0 -142 -109 -147 -199c42 64 104 86 180 86c145 0 248 -80 248 -232c0 -182 -149 -263 -320 -263c-227 0 -329 143 -329 363c0 225 106 405 353 405c103 0 234 -31 279 -142zM393 -82c63 0 101 46 101 107
c0 62 -37 106 -99 106c-61 0 -102 -43 -102 -106c0 -58 35 -107 100 -107z" />
    <glyph glyph-name="six.sup" horiz-adv-x="762" 
d="M692 1452l-157 -70c-22 37 -66 52 -106 52c-108 0 -143 -110 -148 -199c43 63 104 86 181 86c144 0 247 -81 247 -233c0 -182 -149 -263 -320 -263c-228 0 -329 145 -329 364c0 225 107 404 355 404c100 0 234 -29 277 -141zM393 977c62 0 101 46 101 109
c0 60 -35 104 -98 104c-62 0 -103 -44 -103 -106c0 -58 35 -107 100 -107z" />
    <glyph glyph-name="six.tab" 
d="M1115 1194l-231 -102c-35 108 -108 151 -219 151c-242 0 -281 -285 -285 -471c73 123 190 178 335 178c273 0 443 -195 443 -470c0 -311 -216 -503 -524 -503c-477 0 -559 354 -559 740c0 384 149 768 596 768c203 0 386 -79 444 -291zM625 223c152 0 238 112 238 255
c0 141 -84 251 -236 251c-142 0 -243 -95 -243 -249c0 -143 87 -257 241 -257z" />
    <glyph glyph-name="seven.den" horiz-adv-x="668" 
d="M144 0l231 567h-328v176h590v-84l-270 -659h-223z" />
    <glyph glyph-name="seven.num" horiz-adv-x="668" 
d="M144 721l231 567h-328v176h590v-84l-270 -659h-223z" />
    <glyph glyph-name="seven.old" horiz-adv-x="1123" 
d="M211 -193l510 1205h-678v254h1053v-127l-555 -1332h-330z" />
    <glyph glyph-name="seven.oldtab" 
d="M255 -193l512 1205h-668v254h1037v-127l-557 -1332h-324z" />
    <glyph glyph-name="seven.sub" horiz-adv-x="660" 
d="M140 -221l231 567h-328v176h590v-84l-270 -659h-223z" />
    <glyph glyph-name="seven.sup" horiz-adv-x="660" 
d="M140 840l231 567h-328v176h590v-84l-270 -659h-223z" />
    <glyph glyph-name="seven.tab" 
d="M262 0l500 1200h-662v264h1043v-131l-543 -1333h-338z" />
    <glyph glyph-name="eight.den" horiz-adv-x="750" 
d="M193 393c-68 28 -107 80 -107 154c0 151 164 209 295 209c126 0 285 -53 285 -209c0 -76 -39 -123 -108 -152c83 -26 136 -90 136 -185c0 -171 -172 -222 -322 -222c-141 0 -317 45 -317 216c0 95 54 161 138 189zM289 528c0 -49 42 -79 88 -79c47 0 86 30 86 79
c0 50 -38 80 -86 80c-47 0 -88 -30 -88 -80zM275 234c0 -60 44 -93 100 -93c58 0 99 35 99 94c0 60 -43 93 -99 93c-58 0 -100 -35 -100 -94z" />
    <glyph glyph-name="eight.num" horiz-adv-x="750" 
d="M193 1112c-68 28 -107 80 -107 154c0 151 164 209 295 209c126 0 285 -53 285 -209c0 -76 -39 -123 -108 -152c83 -28 136 -90 136 -185c0 -171 -172 -222 -322 -222c-141 0 -317 45 -317 217c0 95 54 159 138 188zM289 1247c0 -49 42 -80 88 -80c47 0 86 31 86 80
c0 50 -38 80 -86 80c-47 0 -88 -30 -88 -80zM275 953c0 -60 44 -93 100 -93c58 0 99 34 99 94s-41 93 -99 93s-100 -35 -100 -94z" />
    <glyph glyph-name="eight.old" horiz-adv-x="1264" 
d="M352 774c-132 54 -223 160 -223 307c0 277 262 404 506 404c243 0 502 -125 502 -392c0 -158 -91 -259 -223 -317c159 -55 278 -181 278 -356c0 -314 -286 -443 -561 -443c-269 0 -561 123 -561 433c0 179 118 308 282 364zM424 1066c0 -122 99 -200 215 -200
s205 78 205 197c0 122 -94 197 -209 197c-117 0 -211 -75 -211 -194zM385 438c0 -143 113 -227 248 -227c137 0 246 84 246 227s-107 226 -244 226c-136 0 -250 -82 -250 -226z" />
    <glyph glyph-name="eight.oldtab" 
d="M350 774c-136 54 -209 161 -209 309c0 265 233 402 476 402c242 0 471 -135 471 -396c0 -151 -76 -255 -209 -313c162 -57 262 -181 262 -365c0 -292 -253 -434 -526 -434c-267 0 -529 134 -529 425c0 182 102 314 264 372zM622 866c117 0 189 85 189 196
c0 117 -81 200 -195 200s-196 -82 -196 -195c0 -116 85 -201 202 -201zM383 439c0 -137 100 -228 235 -228c134 0 226 89 226 227c0 137 -91 226 -227 226s-234 -90 -234 -225z" />
    <glyph glyph-name="eight.sub" horiz-adv-x="742" 
d="M189 172c-68 28 -107 80 -107 154c0 151 164 209 295 209c126 0 285 -53 285 -209c0 -76 -39 -123 -108 -152c83 -28 136 -90 136 -185c0 -171 -172 -222 -322 -222c-141 0 -317 45 -317 217c0 95 54 159 138 188zM285 307c0 -49 42 -80 88 -80c47 0 86 31 86 80
c0 50 -38 80 -86 80c-47 0 -88 -30 -88 -80zM271 13c0 -60 44 -93 100 -93c58 0 99 34 99 94s-41 92 -99 92s-100 -34 -100 -93z" />
    <glyph glyph-name="eight.sup" horiz-adv-x="742" 
d="M189 1231c-68 26 -107 80 -107 153c0 152 164 209 296 209c126 0 284 -52 284 -207c0 -77 -39 -125 -108 -153c83 -28 136 -90 136 -185c0 -171 -171 -223 -321 -223c-142 0 -318 47 -318 218c0 95 54 159 138 188zM285 1366c0 -49 42 -80 88 -80c47 0 86 31 86 80
c0 50 -38 80 -86 80c-47 0 -88 -30 -88 -80zM271 1072c0 -60 44 -93 100 -93c58 0 99 34 99 94s-41 92 -99 92s-100 -34 -100 -93z" />
    <glyph glyph-name="eight.tab" 
d="M332 780c-129 57 -201 161 -201 304c0 266 248 401 490 401c240 0 481 -132 481 -395c0 -148 -76 -249 -203 -308c164 -60 256 -184 256 -364c0 -305 -264 -441 -539 -441c-272 0 -540 133 -540 436c0 178 93 303 256 367zM418 1063c0 -116 91 -191 204 -191
s197 74 197 188c0 117 -90 189 -201 189c-110 0 -200 -70 -200 -186zM381 449c0 -144 103 -224 238 -224s231 81 231 224c0 139 -92 219 -231 219c-140 0 -238 -79 -238 -219z" />
    <glyph glyph-name="nine.den" horiz-adv-x="770" 
d="M68 133l153 66c25 -41 79 -47 123 -47c109 0 142 98 142 190c-45 -58 -97 -82 -177 -82c-142 0 -252 76 -252 233c0 182 148 263 317 263c224 0 335 -143 335 -363c0 -233 -88 -405 -341 -405c-113 0 -251 34 -300 145zM367 393c62 0 104 41 104 106
c0 59 -33 107 -99 107c-65 0 -102 -48 -102 -110c0 -61 34 -103 97 -103z" />
    <glyph glyph-name="nine.num" horiz-adv-x="768" 
d="M68 852l153 66c25 -41 79 -48 123 -48c109 0 142 98 142 191c-44 -59 -97 -82 -175 -82c-143 0 -254 76 -254 233c0 181 148 263 317 263c224 0 335 -143 335 -363c0 -233 -88 -405 -341 -405c-113 0 -252 34 -300 145zM366 1112c62 0 105 41 105 107
c0 58 -33 106 -99 106s-102 -48 -102 -110c0 -61 34 -103 96 -103z" />
    <glyph glyph-name="nine.old" horiz-adv-x="1291" 
d="M90 82l244 104c48 -106 165 -161 278 -161c263 0 279 296 283 493c-78 -123 -204 -182 -355 -182c-265 0 -466 180 -466 457c0 327 245 497 553 497c433 0 582 -299 582 -690c0 -417 -111 -815 -599 -815c-220 0 -443 81 -520 297zM625 545c145 0 254 104 254 248
c0 154 -93 266 -247 266c-152 0 -249 -110 -249 -258c0 -143 91 -256 242 -256z" />
    <glyph glyph-name="nine.oldtab" 
d="M91 82l226 104c45 -103 147 -161 256 -161c252 0 263 311 266 493c-71 -119 -185 -182 -334 -182c-260 0 -430 193 -430 466c0 302 209 488 521 488c413 0 534 -326 534 -690c0 -386 -89 -815 -556 -815c-214 0 -414 90 -483 297zM588 545c143 0 234 111 234 257
c0 135 -78 257 -229 257c-149 0 -231 -118 -231 -258c0 -135 76 -256 226 -256z" />
    <glyph glyph-name="nine.sub" horiz-adv-x="762" 
d="M64 -88l153 65c23 -35 83 -51 125 -51c108 0 140 103 140 195c-44 -59 -97 -82 -175 -82c-143 0 -254 76 -254 233c0 181 148 263 317 263c224 0 335 -143 335 -363c0 -234 -88 -405 -341 -405c-113 0 -252 34 -300 145zM363 172c62 0 104 41 104 107
c0 58 -32 106 -99 106c-66 0 -102 -48 -102 -109c0 -63 36 -104 97 -104z" />
    <glyph glyph-name="nine.sup" horiz-adv-x="762" 
d="M64 971l153 65c25 -41 79 -47 123 -47c110 0 142 98 142 191c-44 -59 -97 -82 -175 -82c-143 0 -254 76 -254 233c0 181 148 262 317 262c224 0 335 -142 335 -362c0 -234 -87 -406 -342 -406c-113 0 -251 34 -299 146zM363 1231c62 0 104 41 104 107
c0 58 -32 106 -99 106c-66 0 -102 -48 -102 -109c0 -63 36 -104 97 -104z" />
    <glyph glyph-name="nine.tab" 
d="M99 281l234 102c44 -122 113 -162 240 -162c246 0 276 282 276 469c-74 -122 -194 -176 -338 -176c-273 0 -444 193 -444 470c0 310 215 503 524 503c414 0 559 -285 559 -660v-127c0 -375 -146 -720 -573 -720c-217 0 -412 76 -478 301zM597 737c142 0 244 94 244 238
c0 152 -86 268 -244 268c-152 0 -235 -108 -235 -252c0 -146 83 -254 235 -254z" />
    <glyph glyph-name="colon.alt" horiz-adv-x="613" 
d="M304 893c-102 0 -180 79 -180 181c0 101 79 178 180 178c100 0 185 -76 185 -179c0 -102 -83 -180 -185 -180zM124 340c0 103 79 180 180 180c100 0 185 -76 185 -180c0 -102 -82 -178 -185 -178s-180 77 -180 178z" />
    <glyph glyph-name="colon.tab" horiz-adv-x="614" 
d="M299 904c-102 0 -180 79 -180 181c0 101 79 178 180 178c100 0 185 -76 185 -179c0 -102 -83 -180 -185 -180zM119 341c0 103 79 180 180 180c100 0 185 -76 185 -180c0 -102 -82 -178 -185 -178s-180 77 -180 178z" />
    <glyph glyph-name="semicolon.tab" horiz-adv-x="614" 
d="M325 575c-102 0 -180 79 -180 181c0 101 79 178 180 178c100 0 185 -76 185 -179c0 -102 -83 -180 -185 -180zM20 -176l181 506l276 -105l-278 -477z" />
    <glyph glyph-name="less.tab" 
d="M176 631v59l862 492v-271l-462 -249l462 -259v-266z" />
    <glyph glyph-name="equal.tab" 
d="M159 766v211h909v-211h-909zM159 354v211h909v-211h-909z" />
    <glyph glyph-name="greater.tab" 
d="M190 129v270l460 260l-460 269v266l860 -504v-59z" />
    <glyph glyph-name="at.uc" horiz-adv-x="1870" 
d="M1440 162l133 -58c-156 -177 -407 -251 -639 -251c-485 0 -856 322 -856 822c0 496 397 873 889 873c438 0 823 -266 823 -733c0 -257 -118 -536 -416 -536c-118 0 -243 33 -272 166c-56 -110 -158 -175 -289 -175c-208 0 -317 164 -317 366c0 230 141 470 395 470
c94 0 192 -33 229 -127l15 111h252l-64 -533v-3c-1 -10 -2 -21 -2 -36c0 -52 13 -104 94 -104c182 0 215 265 215 397c0 395 -296 598 -652 598c-439 0 -730 -310 -730 -738c0 -416 276 -679 696 -679c177 0 359 47 496 170zM896 469c110 0 196 118 196 263
c0 113 -53 175 -141 175c-115 0 -197 -108 -197 -250c0 -117 56 -188 142 -188z" />
    <glyph glyph-name="bracketleft.tab" horiz-adv-x="614" 
d="M105 -303v1900h456v-213h-184v-1474h184v-213h-456z" />
    <glyph glyph-name="bracketleft.uc" horiz-adv-x="787" 
d="M146 -184v1781h565v-213h-268v-1355h268v-213h-565z" />
    <glyph glyph-name="backslash.uc" horiz-adv-x="854" 
d="M602 -172l-587 1769h241l590 -1769h-244z" />
    <glyph glyph-name="bracketright.tab" horiz-adv-x="614" 
d="M53 -303v213h185v1474h-185v213h457v-1900h-457z" />
    <glyph glyph-name="bracketright.uc" horiz-adv-x="787" 
d="M78 -184v213h266v1355h-266v213h563v-1781h-563z" />
    <glyph glyph-name="grave.uc" horiz-adv-x="807" 
d="M312 1563l-203 284h319l107 -284h-223z" />
    <glyph glyph-name="a.alt" horiz-adv-x="1300" 
d="M866 0v174c-64 -120 -198 -197 -334 -197c-307 0 -456 265 -456 549c0 279 144 570 465 570c141 0 256 -57 325 -183v158h295v-1071h-295zM623 209c180 0 251 158 251 321c0 166 -46 338 -242 338c-191 0 -253 -163 -253 -329c0 -152 52 -330 244 -330z" />
    <glyph glyph-name="f_f.short" horiz-adv-x="1371" 
d="M174 0v860h-141v211h141v111c0 245 140 387 381 387c59 0 120 -17 172 -39l-84 -195c-14 7 -28 8 -41 8c-122 0 -133 -103 -133 -193v-79h350v123c0 245 138 375 381 375c60 0 118 -15 172 -39l-84 -196c-13 8 -28 9 -40 9c-93 0 -134 -55 -134 -141v-131h232v-211h-232
v-860h-295v860h-350v-860h-295z" />
    <glyph glyph-name="f.short" horiz-adv-x="773" 
d="M174 0v860h-141v211h141v123c0 245 138 375 386 375c65 0 123 -9 188 -35l-86 -197c-20 4 -41 6 -59 6c-121 0 -138 -90 -136 -181l2 -91h232v-211h-232v-860h-295z" />
    <glyph glyph-name="t.alt" horiz-adv-x="762" 
d="M201 0v860h-154v211h154v233l297 128v-361h208v-211h-208v-860h-297z" />
    <glyph glyph-name="braceleft.tab" horiz-adv-x="614" 
d="M561 -90v-211c-243 0 -424 60 -424 330l46 386c0 90 -72 123 -150 137v191c78 14 150 46 150 136l-46 388c0 270 185 330 424 330v-213c-111 -2 -161 -28 -161 -155l36 -330c0 -147 -74 -206 -196 -251c124 -40 196 -102 196 -247l-36 -337c0 -125 45 -152 161 -154z" />
    <glyph glyph-name="braceleft.uc" horiz-adv-x="762" 
d="M719 29v-217c-236 0 -500 44 -500 331c0 53 9 106 19 158c9 48 18 96 18 145c0 123 -110 156 -213 156v211c102 0 213 34 213 156c0 49 -9 99 -17 142c-11 57 -20 109 -20 163c0 288 264 323 500 323v-213c-111 -2 -207 -18 -207 -162c0 -29 4 -63 14 -134
c11 -72 14 -105 14 -131c0 -144 -89 -219 -209 -248c121 -24 209 -105 209 -246c0 -26 -3 -60 -14 -131c-7 -47 -14 -95 -14 -135c0 -146 93 -163 207 -168z" />
    <glyph glyph-name="bar.uc" horiz-adv-x="525" 
d="M156 -172v1769h213v-1769h-213z" />
    <glyph glyph-name="braceright.tab" horiz-adv-x="614" 
d="M53 -301v211c118 2 162 28 162 156c0 38 -4 81 -20 182c-13 79 -17 116 -17 151c0 147 74 208 197 249c-122 39 -197 109 -197 254c0 33 4 68 16 147l3 18c14 83 18 124 18 161c0 129 -50 154 -162 156v213c241 0 424 -59 424 -331c0 -67 -11 -132 -23 -198
c-17 -95 -22 -141 -22 -189c0 -90 72 -122 150 -136v-191c-78 -14 -150 -47 -150 -137c0 -63 11 -125 22 -187c12 -66 23 -131 23 -198c0 -271 -180 -331 -424 -331z" />
    <glyph glyph-name="braceright.uc" horiz-adv-x="764" 
d="M44 -188v217c112 5 207 20 207 165l-29 271c0 139 92 218 211 244c-119 29 -211 105 -211 245l29 281c0 133 -99 147 -207 149v213c236 0 502 -36 502 -326l-35 -302c0 -122 105 -156 209 -156v-211c-105 0 -209 -32 -209 -166l35 -288c0 -290 -264 -336 -502 -336z" />
    <glyph glyph-name="exclamdown.uc" horiz-adv-x="637" 
d="M131 1305c0 102 93 178 189 178c97 0 186 -76 186 -177c0 -100 -87 -178 -185 -178c-99 0 -190 77 -190 177zM152 0l45 1008h242l45 -1008h-332z" />
    <glyph glyph-name="cent.tab" 
d="M581 -276v258c-319 29 -492 242 -492 557c0 298 195 519 492 553v196h145v-196c191 -16 355 -112 416 -301l-223 -97c-31 97 -94 151 -193 172v-671c112 22 177 94 211 200l213 -94c-56 -196 -229 -301 -424 -319v-258h-145zM581 199v665c-155 -43 -197 -194 -197 -330
c0 -146 49 -296 197 -335z" />
    <glyph glyph-name="sterling.old" horiz-adv-x="1266" 
d="M289 1h-246c13 136 77 268 209 319c12 38 19 77 19 119c0 54 -12 112 -27 167h-172v205h113c-20 72 -29 142 -29 218c0 292 241 456 506 456c232 0 431 -94 495 -339l-254 -112c-32 128 -102 190 -233 190c-122 0 -195 -91 -195 -212c0 -69 9 -133 21 -201h379v-205h-342
c8 -56 14 -113 14 -171c0 -41 -8 -83 -22 -123l57 -20c84 -31 127 -41 164 -41c100 0 172 18 196 131l246 -111c-49 -187 -177 -289 -367 -289c-90 0 -173 34 -249 65c-92 38 -132 50 -170 50c-65 0 -107 -35 -113 -96z" />
    <glyph glyph-name="sterling.oldtab" 
d="M298 1h-250c8 125 78 254 193 307c15 41 20 85 20 125c0 60 -11 118 -26 173h-160v205h102c-18 71 -26 142 -26 216c0 284 233 458 495 458c237 0 416 -95 467 -347l-231 -103c-31 128 -94 189 -225 189c-128 0 -185 -89 -185 -212c0 -68 5 -134 17 -201h350v-205h-316
c9 -56 13 -113 13 -171c0 -41 -9 -83 -21 -123l54 -20c50 -19 104 -39 151 -39c98 0 169 25 195 131l225 -102c-41 -185 -158 -300 -348 -300c-84 0 -159 32 -234 66c-57 26 -108 49 -156 49c-59 0 -98 -35 -104 -96z" />
    <glyph glyph-name="sterling.tab" 
d="M296 0h-240c13 127 68 266 195 317c14 39 18 80 18 118c0 63 -11 113 -26 171h-160v205h109c-20 75 -29 144 -29 221c0 284 217 453 489 453c237 0 416 -92 467 -338l-231 -100c-32 123 -94 184 -225 184c-130 0 -195 -89 -195 -213c0 -72 10 -136 23 -207h368v-205h-336
c13 -59 17 -110 17 -170c0 -42 -6 -84 -23 -123l70 -25c55 -21 110 -42 178 -42c85 0 142 33 168 127l225 -99c-41 -180 -158 -292 -348 -292c-80 0 -154 30 -226 60c-68 29 -128 54 -184 54c-63 0 -100 -31 -104 -96z" />
    <glyph glyph-name="yen.old" horiz-adv-x="1221" 
d="M135 322v137h326v123h-326v137h287l-393 745h346l258 -545l252 545h309l-375 -745h289v-137h-325v-123h325v-137h-325v-322h-322v322h-326z" />
    <glyph glyph-name="yen.oldtab" 
d="M157 348v111h309v123h-309v137h289l-369 745h328l233 -545l225 545h287l-352 -745h297v-137h-316v-123h316v-111h-316v-348h-313v348h-309z" />
    <glyph glyph-name="yen.tab" 
d="M143 322v137h318v123h-318v137h297l-366 745h336l229 -545l219 545h297l-352 -745h305v-137h-324v-123h324v-137h-324v-322h-323v322h-318z" />
    <glyph glyph-name="dieresis.uc" horiz-adv-x="807" 
d="M31 1725c0 82 70 147 151 147c82 0 152 -67 152 -148s-69 -149 -150 -149c-80 0 -153 67 -153 150zM473 1724c0 82 69 148 150 148c82 0 151 -65 151 -147c0 -81 -68 -150 -150 -150c-80 0 -151 66 -151 149z" />
    <glyph glyph-name="guillemotleft.uc" horiz-adv-x="986" 
d="M705 223l-260 393l260 394h211l-250 -394l250 -393h-211zM338 223l-260 393l260 394h211l-250 -394l250 -393h-211z" />
    <glyph glyph-name="registered.alt" horiz-adv-x="1881" 
d="M121 731c0 454 370 805 826 805c449 0 813 -341 813 -801s-367 -807 -819 -807c-453 0 -820 350 -820 803zM939 63c380 0 660 294 660 675c0 377 -276 663 -657 663c-384 0 -660 -291 -660 -667c0 -377 278 -671 657 -671zM623 328v821h313c172 0 328 -57 328 -254
c0 -111 -49 -187 -154 -223l203 -344h-227l-176 301h-68v-301h-219zM842 774h84c70 0 123 28 123 110c0 77 -47 97 -121 97h-86v-207z" />
    <glyph glyph-name="macron.uc" horiz-adv-x="807" 
d="M94 1582v187h619v-187h-619z" />
    <glyph glyph-name="plusminus.tab" 
d="M136 709v221h369v352h242v-352h368v-221h-368v-351h-242v351h-369zM136 0v205h983v-205h-983z" />
    <glyph glyph-name="acute.uc" horiz-adv-x="807" 
d="M273 1563l108 284h322l-207 -284h-223z" />
    <glyph glyph-name="guillemotright.uc" horiz-adv-x="986" 
d="M439 223l247 393l-247 394h210l259 -394l-259 -393h-210zM72 223l248 393l-248 394h211l258 -394l-258 -393h-211z" />
    <glyph glyph-name="questiondown.uc" horiz-adv-x="1063" 
d="M408 1306c0 101 89 177 187 177c97 0 186 -74 186 -176c0 -100 -88 -179 -187 -179c-98 0 -186 77 -186 178zM776 428l242 -104c-69 -221 -264 -344 -491 -344c-233 0 -457 104 -457 368c0 158 110 264 213 362c90 86 174 166 174 269c0 11 -1 20 -2 29h274v-62
c0 -156 -104 -257 -197 -348c-76 -74 -145 -141 -145 -225c0 -103 58 -152 158 -152c117 0 194 108 231 207z" />
    <glyph glyph-name="multiply.tab" 
d="M302 215l-158 158l314 313l-316 315l158 160l315 -317l314 313l160 -158l-316 -313l318 -315l-160 -160l-316 317z" />
    <glyph glyph-name="germandbls.alt" horiz-adv-x="1376" 
d="M139 0v1098c0 311 239 475 532 475c209 0 461 -83 461 -325c0 -147 -93 -231 -169 -300c-74 -67 -95 -95 -95 -121c0 -44 61 -78 138 -120c130 -71 305 -167 305 -375c0 -234 -169 -350 -394 -350c-158 0 -320 57 -376 225l206 92c28 -70 84 -115 162 -115
c79 0 117 45 117 123c0 61 -42 102 -180 172c-120 61 -256 131 -256 282c0 113 76 192 145 264c57 59 109 113 109 177c0 112 -79 146 -174 146c-158 0 -236 -95 -236 -244v-1104h-295z" />
    <glyph glyph-name="agrave.alt" horiz-adv-x="1300" 
d="M555 1217l-213 325h311l117 -325h-215zM866 0v174c-64 -120 -198 -197 -334 -197c-307 0 -456 265 -456 549c0 279 144 570 465 570c141 0 256 -57 325 -183v158h295v-1071h-295zM623 209c180 0 251 158 251 321c0 166 -46 338 -242 338c-191 0 -253 -163 -253 -329
c0 -152 52 -330 244 -330z" />
    <glyph glyph-name="aacute.alt" horiz-adv-x="1300" 
d="M530 1217l117 325h311l-213 -325h-215zM866 0v174c-64 -120 -198 -197 -334 -197c-307 0 -456 265 -456 549c0 279 144 570 465 570c141 0 256 -57 325 -183v158h295v-1071h-295zM623 209c180 0 251 158 251 321c0 166 -46 338 -242 338c-191 0 -253 -163 -253 -329
c0 -152 52 -330 244 -330z" />
    <glyph glyph-name="acircumflex.alt" horiz-adv-x="1300" 
d="M303 1219l240 319h223l233 -319h-209l-141 129l-143 -129h-203zM866 0v174c-64 -120 -198 -197 -334 -197c-307 0 -456 265 -456 549c0 279 144 570 465 570c141 0 256 -57 325 -183v158h295v-1071h-295zM623 209c180 0 251 158 251 321c0 166 -46 338 -242 338
c-191 0 -253 -163 -253 -329c0 -152 52 -330 244 -330z" />
    <glyph glyph-name="atilde.alt" horiz-adv-x="1300" 
d="M469 1227h-170c10 129 70 289 218 289c57 0 105 -24 147 -45c48 -24 70 -31 90 -31c48 0 67 41 75 76h172c-11 -133 -73 -291 -222 -291c-56 0 -102 22 -149 45c-33 17 -60 31 -86 31c-43 0 -68 -39 -75 -74zM866 0v174c-64 -120 -198 -197 -334 -197
c-307 0 -456 265 -456 549c0 279 144 570 465 570c141 0 256 -57 325 -183v158h295v-1071h-295zM623 209c180 0 251 158 251 321c0 166 -46 338 -242 338c-191 0 -253 -163 -253 -329c0 -152 52 -330 244 -330z" />
    <glyph glyph-name="adieresis.alt" horiz-adv-x="1300" 
d="M711 1376c0 81 68 148 150 148c81 0 153 -64 153 -148c0 -83 -71 -147 -152 -147c-82 0 -151 64 -151 147zM293 1376c0 81 68 148 150 148c81 0 153 -64 153 -148c0 -83 -71 -147 -152 -147c-82 0 -151 64 -151 147zM866 0v174c-64 -120 -198 -197 -334 -197
c-307 0 -456 265 -456 549c0 279 144 570 465 570c141 0 256 -57 325 -183v158h295v-1071h-295zM623 209c180 0 251 158 251 321c0 166 -46 338 -242 338c-191 0 -253 -163 -253 -329c0 -152 52 -330 244 -330z" />
    <glyph glyph-name="aring.alt" horiz-adv-x="1300" 
d="M410 1425c0 125 109 226 233 226c125 0 233 -101 233 -225c0 -126 -110 -228 -233 -228s-233 102 -233 227zM643 1317c60 0 98 51 98 107c0 57 -37 108 -98 108c-60 0 -98 -52 -98 -108s38 -107 98 -107zM866 0v174c-64 -120 -198 -197 -334 -197
c-307 0 -456 265 -456 549c0 279 144 570 465 570c141 0 256 -57 325 -183v158h295v-1071h-295zM623 209c180 0 251 158 251 321c0 166 -46 338 -242 338c-191 0 -253 -163 -253 -329c0 -152 52 -330 244 -330z" />
    <glyph glyph-name="divide.tab" 
d="M442 1106c0 95 75 168 169 168c95 0 170 -72 170 -168c0 -95 -75 -168 -170 -168c-94 0 -169 73 -169 168zM122 592v213h981v-213h-981zM442 291c0 94 75 168 169 168c95 0 170 -73 170 -168s-75 -168 -170 -168c-94 0 -169 73 -169 168z" />
    <glyph glyph-name="amacron.alt" horiz-adv-x="1300" 
d="M352 1280v178h596v-178h-596zM866 0v174c-64 -120 -198 -197 -334 -197c-307 0 -456 265 -456 549c0 279 144 570 465 570c141 0 256 -57 325 -183v158h295v-1071h-295zM623 209c180 0 251 158 251 321c0 166 -46 338 -242 338c-191 0 -253 -163 -253 -329
c0 -152 52 -330 244 -330z" />
    <glyph glyph-name="abreve.alt" horiz-adv-x="1300" 
d="M338 1530h194c9 -67 46 -111 117 -111c70 0 115 43 125 111h191c-11 -178 -135 -305 -318 -305c-182 0 -298 125 -309 305zM866 0v174c-64 -120 -198 -197 -334 -197c-307 0 -456 265 -456 549c0 279 144 570 465 570c141 0 256 -57 325 -183v158h295v-1071h-295z
M623 209c180 0 251 158 251 321c0 166 -46 338 -242 338c-191 0 -253 -163 -253 -329c0 -152 52 -330 244 -330z" />
    <glyph glyph-name="aogonek.alt" horiz-adv-x="1300" 
d="M866 0v174c-62 -121 -200 -197 -334 -197c-307 0 -456 265 -456 549c0 279 144 570 469 570c142 0 247 -56 321 -183v158h295v-1053c-54 -35 -131 -92 -131 -164c0 -42 26 -63 73 -63c21 0 48 4 72 14v-147c-52 -25 -106 -31 -163 -31c-106 0 -230 39 -230 161
c0 103 88 175 170 212h-86zM623 209c180 0 251 158 251 321c0 166 -46 338 -242 338c-191 0 -253 -163 -253 -329c0 -152 52 -330 244 -330z" />
    <glyph glyph-name="tcaron.alt" horiz-adv-x="762" 
d="M598 1200l20 356h244l-100 -356h-164zM201 0v860h-154v211h154v233l297 128v-361h208v-211h-208v-860h-297z" />
    <glyph glyph-name="tbar.alt" horiz-adv-x="762" 
d="M201 0v512h-154v174h154v174h-154v211h154v233l297 128v-361h208v-211h-208v-174h208v-174h-208v-512h-297z" />
    <glyph glyph-name="florin.tab" 
d="M237 -373l147 1012h-192v209h223l18 141c34 262 86 494 434 494c52 0 105 -3 154 -23v-225c-37 15 -77 18 -117 18c-98 0 -144 -63 -157 -153l-37 -252h266v-209h-297l-147 -1012h-295z" />
    <glyph glyph-name="aringacute.alt" horiz-adv-x="1300" 
d="M543 1696l108 284h322l-207 -284h-223zM410 1403c0 126 109 225 233 225s233 -99 233 -225c0 -125 -110 -227 -233 -227s-233 102 -233 227zM643 1294c60 0 98 50 98 107s-37 109 -98 109c-59 0 -98 -52 -98 -108s38 -108 98 -108zM866 0v174
c-64 -120 -198 -197 -334 -197c-307 0 -456 265 -456 549c0 279 144 570 465 570c141 0 256 -57 325 -183v158h295v-1071h-295zM623 209c180 0 251 158 251 321c0 166 -46 338 -242 338c-191 0 -253 -163 -253 -329c0 -152 52 -330 244 -330z" />
    <glyph glyph-name="uni021B.alt" horiz-adv-x="762" 
d="M201 0v860h-154v211h154v233l297 128v-361h208v-211h-208v-860h-297zM137 -412l96 349l267 -43l-195 -361z" />
    <glyph glyph-name="circumflex.uc" horiz-adv-x="807" 
d="M51 1563l230 284h252l221 -284h-213l-139 108l-142 -108h-209z" />
    <glyph glyph-name="caron.alt" horiz-adv-x="832" 
d="M338 1200l21 356h243l-100 -356h-164z" />
    <glyph glyph-name="caron.uc" horiz-adv-x="807" 
d="M273 1563l-222 284h213l142 -106l139 106h209l-229 -284h-252z" />
    <glyph glyph-name="breve.uc" horiz-adv-x="807" 
d="M88 1849h199c10 -64 48 -106 115 -106s108 42 120 106h197c-11 -178 -138 -299 -319 -299c-180 0 -299 120 -312 299z" />
    <glyph glyph-name="dotaccent.uc" horiz-adv-x="807" 
d="M238 1731c0 92 77 157 164 157c89 0 166 -68 166 -157c0 -90 -76 -158 -166 -158c-88 0 -164 66 -164 158z" />
    <glyph glyph-name="ring.uc" horiz-adv-x="807" 
d="M168 1765c0 126 110 228 236 228s235 -102 235 -228c0 -128 -112 -229 -235 -229s-236 101 -236 229zM402 1655c61 0 101 51 101 109s-39 110 -100 110c-62 0 -99 -54 -99 -111c0 -59 38 -108 98 -108z" />
    <glyph glyph-name="tilde.uc" horiz-adv-x="807" 
d="M221 1563h-176c13 137 76 288 224 288c56 0 103 -22 140 -40c60 -30 81 -37 101 -37c47 0 68 40 76 75h178c-11 -133 -82 -286 -228 -286c-56 0 -105 22 -162 50c-41 20 -62 27 -81 27c-42 0 -64 -39 -72 -77z" />
    <glyph glyph-name="hungarumlaut.uc" horiz-adv-x="807" 
d="M117 1563l80 284h270l-149 -284h-201zM486 1563l79 284h271l-152 -284h-198z" />
    <glyph glyph-name="uni0326.alt" horiz-adv-x="832" 
d="M271 1229l194 358l168 -53l-96 -348z" />
    <glyph glyph-name="uni0414.bgr" horiz-adv-x="1477" 
d="M6 -266v528h123l414 1202h388l415 -1202h123v-528h-285l-11 266h-869l-10 -266h-288zM440 262h555l-277 871h-2z" />
    <glyph glyph-name="uni0416.bgr" horiz-adv-x="1999" 
d="M24 0l538 764l-514 700h345l440 -641h1v641h325v-643h1l447 643h338l-514 -688l543 -776h-367l-447 670h-1v-670h-325v666h-1l-450 -666h-359z" />
    <glyph glyph-name="uni041A.bgr" horiz-adv-x="1409" 
d="M159 0v1464h330v-628h1l514 628h354l-582 -690l610 -774h-388l-508 659h-1v-659h-330z" />
    <glyph glyph-name="uni041B.bgr" horiz-adv-x="1454" 
d="M43 0l489 1464h389l491 -1464h-351l-351 1133h-2l-355 -1133h-310z" />
    <glyph glyph-name="uni0424.bgr" horiz-adv-x="1851" 
d="M763 0v168h-1c-432 13 -678 218 -678 563v14c0 344 249 552 678 565h1v154h329v-154h1c434 -13 676 -214 676 -560v-17c0 -340 -254 -552 -676 -565h-1v-168h-329zM763 407v666h-1c-239 -12 -349 -115 -349 -328v-14c0 -213 115 -317 349 -324h1zM1092 1071v-666h1
c232 7 348 115 348 328v17c0 212 -104 308 -348 321h-1z" />
    <glyph glyph-name="uni0430.alt" horiz-adv-x="1288" 
d="M873 0v174h-1c-59 -113 -187 -197 -334 -197c-307 0 -458 264 -458 543v17c0 281 153 559 464 559c143 0 255 -59 328 -183h1v158h294v-1071h-294zM628 209c151 0 254 110 254 321v17c0 213 -94 321 -248 321c-158 0 -252 -114 -252 -325v-17c0 -207 97 -317 246 -317z
" />
    <glyph glyph-name="uni0431.locl" horiz-adv-x="1263" 
d="M1104 1579v-219c-57 -23 -168 -35 -330 -35h-290c-53 0 -82 -18 -82 -46c0 -48 84 -101 246 -167c283 -106 548 -237 548 -586v-16c0 -324 -252 -533 -566 -533c-311 0 -564 205 -564 527v16c0 244 172 430 410 461l37 6c4 2 12 2 25 2c-130 49 -225 96 -279 137
c-66 50 -96 111 -96 192c0 150 105 238 303 238h310c158 0 267 9 328 23zM629 203c166 0 265 119 265 305v14c0 189 -99 307 -264 307c-162 0 -262 -114 -262 -303v-16c0 -191 98 -307 261 -307z" />
    <glyph glyph-name="uni0432.bgr" horiz-adv-x="1101" 
d="M743 827c199 -30 297 -153 297 -364v-12c0 -275 -207 -478 -480 -478c-302 0 -474 174 -474 519v522c0 379 176 563 472 563c280 0 441 -139 441 -393v-17c0 -155 -96 -311 -256 -340zM388 920h113c137 0 207 77 207 233v16c0 127 -52 191 -150 191
c-121 0 -170 -96 -170 -299v-141zM388 719v-254c0 -180 47 -275 170 -275c121 0 180 89 180 267v16c0 172 -65 246 -235 246h-115z" />
    <glyph glyph-name="uni0433.bgr" horiz-adv-x="1063" 
d="M806 332l222 -96c-93 -168 -258 -259 -517 -259c-274 0 -456 119 -456 331c0 190 147 270 388 319c178 35 241 67 241 147c0 70 -49 105 -137 105c-104 0 -187 -48 -234 -119l-222 96c97 170 244 240 471 240c244 0 407 -113 407 -312c0 -229 -173 -288 -362 -326
c-179 -36 -254 -73 -254 -157c0 -70 53 -106 155 -106c128 0 257 57 298 137z" />
    <glyph glyph-name="uni0433.locl" horiz-adv-x="907" 
d="M133 0v1071h736v-211h-443v-860h-293z" />
    <glyph glyph-name="uni0434.bgr" horiz-adv-x="1307" 
d="M67 -156l244 107c54 -84 159 -129 291 -129c186 0 278 88 278 262v164h-1c-66 -115 -198 -201 -346 -201c-297 0 -467 234 -467 514v12c0 279 178 523 476 523c149 0 265 -62 337 -185h1v160h293v-987c-2 -313 -204 -479 -566 -479c-271 0 -421 69 -540 239zM625 272
c155 0 263 113 263 293v13c0 182 -95 292 -259 292c-165 0 -261 -114 -261 -295v-14c0 -178 104 -289 257 -289z" />
    <glyph glyph-name="uni0434.locl" horiz-adv-x="1232" 
d="M25 -260v471h60c92 41 110 200 121 291c14 137 24 327 24 569h835v-860h151v-471h-255l-4 260h-673l-4 -260h-255zM406 211h369v649h-290c-2 -161 -10 -506 -79 -649z" />
    <glyph glyph-name="uni0436.bgr" horiz-adv-x="1582" 
d="M17 0l366 575l-339 496h306l292 -465h1v950h290v-952h1l294 467h305l-340 -489l371 -582h-326l-304 516h-1v-516h-290v512h-1l-306 -512h-319z" />
    <glyph glyph-name="uni0437.bgr" horiz-adv-x="1047" 
d="M9 -125l245 107c31 -107 129 -160 228 -160c133 0 210 98 210 231v10c0 154 -66 228 -220 228h-100v209h98c121 0 181 61 181 186v16c0 117 -87 177 -186 177c-100 0 -164 -60 -205 -168l-226 98c86 195 236 287 475 287c241 0 440 -125 440 -379v-12
c0 -138 -89 -267 -226 -297c178 -43 268 -158 268 -347v-12c0 -293 -203 -444 -488 -444c-241 0 -412 82 -494 270z" />
    <glyph glyph-name="uni0438.bgr" horiz-adv-x="1256" 
d="M830 0v168h-1c-65 -127 -179 -191 -334 -191c-227 0 -372 136 -372 404v690h295v-649c0 -143 62 -215 186 -215c133 0 226 82 226 235v629h294v-1071h-294z" />
    <glyph glyph-name="uni0439.bgr" horiz-adv-x="1256" 
d="M302 1526h210c8 -82 45 -123 106 -123c62 0 100 41 110 123h207c-12 -184 -135 -299 -320 -299c-186 0 -303 116 -313 299zM830 0v168h-1c-65 -127 -179 -191 -334 -191c-227 0 -372 136 -372 404v690h295v-649c0 -143 62 -215 186 -215c133 0 226 82 226 235v629h294
v-1071h-294z" />
    <glyph glyph-name="uni043A.bgr" horiz-adv-x="1140" 
d="M131 0v1556h295v-944h1l347 459h316l-392 -489l423 -582h-337l-357 506h-1v-506h-295z" />
    <glyph glyph-name="uni043B.bgr" horiz-adv-x="1174" 
d="M29 0l391 1071h333l392 -1071h-315l-259 766h-2l-255 -766h-285z" />
    <glyph glyph-name="uni043D.bgr" horiz-adv-x="1252" 
d="M133 0v1071h293v-420h400v420h292v-1071h-292v440h-400v-440h-293z" />
    <glyph glyph-name="uni043F.bgr" horiz-adv-x="1263" 
d="M131 0v1071h295v-172h1c68 131 184 197 344 197c229 0 368 -135 368 -414v-682h-294v639c0 147 -61 215 -188 215c-138 0 -231 -82 -231 -236v-618h-295z" />
    <glyph glyph-name="uni043F.locl" horiz-adv-x="1232" 
d="M133 0v1071h965v-1071h-292v860h-380v-860h-293z" />
    <glyph glyph-name="uni0442.bgr" horiz-adv-x="1896" 
d="M131 0v1071h295v-164h1c59 113 176 189 335 189c143 0 247 -62 296 -187c84 125 203 187 351 187c222 0 362 -138 362 -410v-686h-293v653c0 133 -59 199 -168 199c-121 0 -212 -80 -212 -219v-633h-294v653c0 133 -59 199 -168 199c-119 0 -210 -80 -210 -219v-633h-295
z" />
    <glyph glyph-name="uni0442.locl" horiz-adv-x="1002" 
d="M353 0v860h-318v211h931v-211h-319v-860h-294z" />
    <glyph glyph-name="uni0446.bgr" horiz-adv-x="1304" 
d="M830 0v168h-1c-65 -127 -179 -191 -334 -191c-227 0 -372 136 -372 404v690h295v-649c0 -143 62 -215 186 -215c133 0 226 82 226 235v629h294v-860h151v-471h-247l-12 260h-186z" />
    <glyph glyph-name="uni0447.bgr" horiz-adv-x="1185" 
d="M757 0v461h-1c-73 -83 -210 -121 -321 -121c-210 0 -343 133 -343 401v330h294v-289c0 -149 49 -213 171 -213c85 0 152 31 199 90h1v412h294v-1071h-294z" />
    <glyph glyph-name="uni0448.bgr" horiz-adv-x="1896" 
d="M123 1071h295v-653c0 -133 58 -199 167 -199c122 0 213 80 213 219v633h294v-653c0 -133 58 -199 166 -199c120 0 211 82 211 221v631h294v-1071h-294v166h-1c-59 -113 -174 -191 -333 -191c-141 0 -244 62 -297 187c-84 -125 -204 -187 -351 -187
c-221 0 -364 138 -364 410v686z" />
    <glyph glyph-name="uni0448.locl" horiz-adv-x="1711" 
d="M133 0v1071h293v-860h284v860h291v-860h284v860h292v-1071h-1444z" />
    <glyph glyph-name="uni0449.bgr" horiz-adv-x="1943" 
d="M123 1071h295v-653c0 -133 58 -199 167 -199c122 0 213 80 213 219v633h294v-653c0 -133 58 -199 166 -199c120 0 211 82 211 221v631h294v-860h151v-471h-247l-12 260h-186v166h-1c-59 -113 -174 -191 -333 -191c-141 0 -244 62 -297 187c-84 -125 -204 -187 -351 -187
c-221 0 -364 138 -364 410v686z" />
    <glyph glyph-name="uni044A.bgr" horiz-adv-x="1242" 
d="M45 860v211h537v-348h1c40 6 79 9 121 9l33 -1c296 0 451 -125 451 -354v-10c0 -267 -215 -387 -459 -387c-306 2 -439 143 -439 438v442h-245zM582 522v-157c0 -121 50 -183 148 -183c99 0 158 64 158 168v10c0 111 -61 168 -181 168l-40 1h-14c-23 0 -47 -2 -70 -7h-1z
" />
    <glyph glyph-name="uni044C.bgr" horiz-adv-x="1076" 
d="M123 1071h292v-348h1c41 7 81 9 121 9l33 -1c296 0 452 -125 452 -354v-10c0 -267 -215 -387 -460 -387c-306 2 -439 143 -439 438v653zM415 522v-157c0 -121 51 -183 149 -183c99 0 158 64 158 168v10c0 111 -62 168 -182 168l-39 1h-14c-23 0 -47 -2 -71 -7h-1z" />
    <glyph glyph-name="uni044E.bgr" horiz-adv-x="1688" 
d="M133 0v1556h293v-905h123c44 272 253 447 537 447c321 0 536 -223 536 -549v-17c0 -327 -216 -552 -546 -552c-287 0 -496 172 -529 460h-121v-440h-293zM1078 203c156 0 244 121 244 325v17c0 205 -88 325 -244 325c-154 0 -243 -116 -243 -321v-17
c0 -158 56 -329 243 -329z" />
    <glyph glyph-name="uni045D.bgr" horiz-adv-x="1256" 
d="M542 1217l-214 325h311l118 -325h-215zM843 0v168h-1c-64 -127 -179 -191 -335 -191c-255 0 -372 168 -372 404v690h295v-649c0 -143 63 -215 187 -215c133 0 226 82 226 235v629h294v-1071h-294z" />
    <glyph glyph-name="endash.uc" horiz-adv-x="1084" 
d="M86 578v188h912v-188h-912z" />
    <glyph glyph-name="emdash.uc" horiz-adv-x="1881" 
d="M86 578v188h1708v-188h-1708z" />
    <glyph glyph-name="perthousand.tab" horiz-adv-x="2050" 
d="M365 799c-196 0 -300 156 -300 337c0 185 109 343 303 343c192 0 301 -153 301 -337c0 -181 -105 -343 -304 -343zM132 0l954 1464h181l-954 -1464h-181zM368 967c87 0 96 109 96 176c0 63 -8 172 -96 172c-87 0 -98 -109 -98 -173c0 -66 12 -175 98 -175zM1685 -23
c-197 0 -299 157 -299 337c0 187 110 344 303 344c192 0 301 -153 301 -338c0 -180 -104 -343 -305 -343zM1022 -23c-197 0 -300 158 -300 337c0 185 109 344 303 344c190 0 299 -152 299 -338c0 -180 -102 -343 -302 -343zM1689 145c88 0 96 112 96 177
c0 66 -8 172 -96 172c-87 0 -98 -106 -98 -172c0 -65 11 -177 98 -177zM1023 145c87 0 96 112 96 177c0 66 -9 172 -95 172s-97 -108 -97 -175c0 -61 9 -174 96 -174z" />
    <glyph glyph-name="guilsinglleft.uc" horiz-adv-x="627" 
d="M338 223l-260 393l260 394h219l-250 -394l250 -393h-219z" />
    <glyph glyph-name="guilsinglright.uc" horiz-adv-x="627" 
d="M72 223l248 393l-248 394h219l258 -394l-258 -393h-219z" />
    <glyph glyph-name="Euro.old" horiz-adv-x="1385" 
d="M45 522v137h127v122h-127v137h133c45 318 260 567 586 567c261 0 467 -118 539 -388l-256 -113c-42 152 -124 242 -285 242c-176 0 -251 -148 -272 -308h370l-24 -137h-352v-122h329l-22 -137h-301c18 -155 95 -279 262 -279c177 0 272 98 313 270l252 -114
c-77 -287 -272 -422 -557 -422c-330 0 -542 215 -582 545h-133z" />
    <glyph glyph-name="Euro.oldtab" 
d="M56 525v137h105v123h-105v137h105c13 310 192 563 512 563c246 0 411 -118 463 -372l-232 -103c-31 132 -87 224 -225 224c-182 0 -226 -161 -231 -312h344l-23 -137h-321v-123h297l-23 -137h-274c5 -146 44 -293 215 -293c165 0 229 92 260 248l229 -103
c-51 -272 -218 -400 -485 -400c-328 0 -490 232 -506 548h-105z" />
    <glyph glyph-name="Euro.tab" 
d="M38 530v137h108v124h-108v137h108c13 313 196 557 527 557c247 0 410 -115 463 -361l-232 -100c-31 128 -87 217 -222 217c-186 0 -233 -167 -241 -313h355l-25 -137h-330v-124h308l-25 -137h-283c8 -156 51 -305 234 -305c155 0 217 106 248 240l229 -100
c-51 -265 -219 -388 -485 -388c-339 0 -505 235 -521 553h-108z" />
    <glyph glyph-name="uni20B8.old" horiz-adv-x="1220" 
d="M62 1303v161h1096v-161h-1096zM460 0v939h-398v164h1096v-164h-382v-939h-316z" />
    <glyph glyph-name="uni20B8.oldtab" 
d="M68 1303v161h1097v-161h-1097zM467 0v939h-399v164h1097v-164h-383v-939h-315z" />
    <glyph glyph-name="uni20B8.tab" 
d="M66 1303v161h1097v-161h-1097zM465 0v939h-399v164h1097v-164h-383v-939h-315z" />
    <glyph glyph-name="uni20B9.old" horiz-adv-x="1191" 
d="M80 550v183l111 -1c159 -1 296 22 346 190h-457v182h459c-25 160 -184 180 -327 180l-132 -2v182h1055v-182h-356c51 -50 77 -110 98 -178h258v-182h-260c-32 -146 -140 -271 -281 -321l433 -600h-390l-356 549h-201z" />
    <glyph glyph-name="uni20B9.oldtab" 
d="M80 550v183l111 -1c158 -1 296 22 346 190h-457v182h459c-25 160 -184 180 -327 180l-132 -2v182h1055v-182h-357c53 -50 77 -110 99 -178h258v-182h-260c-32 -146 -140 -271 -281 -321l432 -600h-389l-356 549h-201z" />
    <glyph glyph-name="uni20B9.tab" 
d="M80 550v183l112 -1c158 -1 296 22 346 190h-458v182h460c-25 160 -184 182 -327 180l-133 -2v182h1056v-182h-357c53 -50 77 -110 99 -178h258v-182h-260c-32 -146 -140 -271 -281 -321l432 -600h-389l-356 549h-202z" />
    <glyph glyph-name="uni20BA.old" horiz-adv-x="1214" 
d="M320 1v760l-220 -52v136l220 52v142l-220 -52v143l220 52v282h300v-213l293 69v-143l-293 -69v-142l293 69v-136l-293 -68v-599c141 5 288 162 314 291l208 -91c-77 -275 -355 -449 -644 -449c-60 0 -120 4 -178 18z" />
    <glyph glyph-name="uni20BA.oldtab" 
d="M320 1v760l-220 -52v136l220 52v142l-220 -52v143l220 52v282h300v-213l293 69v-143l-293 -69v-142l293 69v-136l-293 -68v-599c141 5 288 162 314 291l208 -91c-77 -275 -355 -449 -644 -449c-60 0 -120 4 -178 18z" />
    <glyph glyph-name="uni20BA.tab" 
d="M320 1v760l-220 -52v136l220 52v142l-220 -52v143l220 52v282h300v-213l293 69v-143l-293 -69v-142l293 69v-136l-293 -68v-599c141 5 288 162 314 291l208 -91c-77 -275 -355 -449 -644 -449c-60 0 -120 4 -178 18z" />
    </font>
</defs>
</svg>
