<?xml version="1.0" encoding="UTF-8"?><svg id="Layer_2" xmlns="http://www.w3.org/2000/svg" xmlns:xlink="http://www.w3.org/1999/xlink" viewBox="0 0 4475.72 4482.44"><defs><style>.cls-1,.cls-2,.cls-3{fill:none;}.cls-4{fill:url(#linear-gradient);}.cls-5{clip-path:url(#clippath);}.cls-6{fill:#f4af8d;}.cls-7{fill:#f7d4c6;}.cls-8{fill:#010e21;}.cls-9{fill:#002b6e;}.cls-10{fill:#0af;}.cls-11{fill:#012257;}.cls-12,.cls-13{fill:#006f72;}.cls-14{fill:#043c3d;}.cls-15{fill:#68d484;}.cls-16{fill:#ef8024;}.cls-17{fill:#ef8070;}.cls-18{fill:#ff9d00;}.cls-19{fill:#fff;}.cls-20{fill:#f39a80;}.cls-21{fill:#fcd4a6;}.cls-22{fill:#ffd400;}.cls-23{fill:#67360d;}.cls-24{fill:#a24c17;}.cls-25{fill:#665852;}.cls-26{fill:#31ad4b;}.cls-27{fill:#a9c3f7;}.cls-28{fill:#d9e1f9;}.cls-29{fill:#c6c6c6;}.cls-30{fill:#c7dcf9;}.cls-31{fill:#123991;}.cls-32{fill:#1f7aff;}.cls-33{fill:#0fba37;}.cls-34{fill:#06605e;}.cls-35{fill:#1d1d1b;}.cls-36{fill:#884016;}.cls-37{fill:#2c8d8a;}.cls-38{fill:#38b1b1;}.cls-39{fill:#4c2c12;}.cls-40{clip-path:url(#clippath-1);}.cls-2{stroke:#1f7aff;stroke-linecap:round;stroke-width:4.63px;}.cls-2,.cls-3{stroke-miterlimit:10;}.cls-41{fill:url(#linear-gradient-3);}.cls-42{fill:url(#linear-gradient-4);}.cls-43{fill:url(#linear-gradient-5);}.cls-3{stroke:#fa0;}.cls-44,.cls-45{opacity:.19;}.cls-46{opacity:.4;}.cls-13,.cls-47{fill-rule:evenodd;}.cls-47{fill:#028e8e;}.cls-48{fill:#01050c;isolation:isolate;}.cls-45{fill:url(#linear-gradient-2);}</style><linearGradient id="linear-gradient" x1="1121.82" y1="5889.64" x2="2659.07" y2="-1885.87" gradientUnits="userSpaceOnUse"><stop offset=".42" stop-color="#1f7aff"/><stop offset=".46" stop-color="#1e77fa" stop-opacity=".96"/><stop offset=".54" stop-color="#1c6fed" stop-opacity=".84"/><stop offset=".65" stop-color="#1a62d8" stop-opacity=".65"/><stop offset=".78" stop-color="#1651ba" stop-opacity=".38"/><stop offset=".93" stop-color="#123c96" stop-opacity=".05"/><stop offset=".95" stop-color="#123991" stop-opacity="0"/></linearGradient><clipPath id="clippath"><path class="cls-1" d="M4209.49,3695.97l-346.19-396.39c-385.55,403.58-929.04,654.98-1531.25,654.98s-1091.39-226.97-1472.45-595.79l-9.96-23.5-381.35,381.35c477.52,473.4,1134.75,765.81,1860.29,765.81s1401.77-300.93,1880.9-786.47Z"/></clipPath><linearGradient id="linear-gradient-2" x1="3889.56" y1="4168.51" x2="4352.53" y2="1826.81" xlink:href="#linear-gradient"/><linearGradient id="linear-gradient-3" x1="200.29" y1="1837.9" x2="353.51" y2="1691.86" gradientUnits="userSpaceOnUse"><stop offset=".31" stop-color="#ef2f0f"/><stop offset=".36" stop-color="#f02b15" stop-opacity=".92"/><stop offset=".92" stop-color="#ff0857" stop-opacity=".1"/></linearGradient><linearGradient id="linear-gradient-4" x1="3309.17" y1="1851.4" x2="3570.54" y2="1602.29" xlink:href="#linear-gradient-3"/><linearGradient id="linear-gradient-5" x1="3776.23" y1="3186.86" x2="4131.18" y2="1391.54" gradientTransform="translate(4045.12 -2016.1) rotate(57.19)" xlink:href="#linear-gradient"/><clipPath id="clippath-1"><path class="cls-1" d="M2441.01,1490.42c39.07,0,76.99-7.66,112.69-22.76,22.18-9.38,42.9-21.39,61.94-35.82l-18.95-9.6-17.9-9.07c-40.65,26.5-88.12,40.73-137.78,40.73-58.44,0-113.85-19.7-158.67-55.93-4.72,2.27-9.61,4.28-14.64,6.01-1.11,.39-2.22,.77-3.34,1.15-7.11,2.42-14.29,4.67-21.54,6.78,25.08,23.59,53.8,42.34,85.5,55.74,35.7,15.1,73.61,22.76,112.69,22.76Z"/></clipPath></defs><g id="Layer_4"><g><g><g><path class="cls-10" d="M1122.2,571.29c-.65,0-1.31-.06-1.96-.19-.63-.13-1.26-.32-1.87-.57-.6-.25-1.18-.56-1.72-.92-.55-.36-1.06-.78-1.52-1.25-.46-.45-.88-.97-1.25-1.51-.36-.55-.67-1.13-.92-1.73-.25-.6-.44-1.23-.57-1.87-.13-.65-.2-1.3-.2-1.96s.07-1.3,.2-1.95c.13-.64,.32-1.27,.57-1.87,.25-.6,.56-1.18,.92-1.72,.37-.55,.79-1.06,1.25-1.52,.46-.47,.97-.88,1.52-1.25,.54-.36,1.12-.67,1.72-.92,.61-.25,1.24-.44,1.87-.57,1.29-.26,2.62-.26,3.91,0,.64,.13,1.27,.32,1.87,.57,.6,.25,1.19,.56,1.73,.92,.55,.37,1.06,.78,1.52,1.25,.46,.46,.88,.97,1.24,1.52,.36,.54,.67,1.12,.92,1.72,.25,.61,.44,1.23,.57,1.87,.13,.65,.2,1.3,.2,1.95,0,2.64-1.07,5.21-2.93,7.07-.46,.47-.97,.89-1.52,1.25-.54,.36-1.12,.67-1.73,.92-.6,.25-1.23,.44-1.87,.57-.64,.13-1.3,.19-1.95,.19Z"/><path class="cls-10" d="M1165.39,519.97c-3.72-4.08-3.44-10.41,.64-14.13h0c4.08-3.73,10.4-3.44,14.13,.64h0c3.72,4.07,3.44,10.39-.64,14.12h0c-1.92,1.76-4.33,2.62-6.74,2.62h0c-2.71,0-5.42-1.09-7.39-3.25Zm52.17-46.35c-3.56-4.22-3.03-10.53,1.2-14.09h0c4.22-3.56,10.53-3.03,14.09,1.19h0c3.56,4.22,3.03,10.53-1.19,14.09h0c-1.88,1.59-4.17,2.36-6.45,2.36h0c-2.84,0-5.67-1.2-7.65-3.55Zm53.96-44.25c-3.4-4.36-2.61-10.64,1.74-14.03h0c4.36-3.4,10.64-2.62,14.04,1.74h0c3.39,4.36,2.61,10.64-1.75,14.03h0c-1.83,1.42-3.99,2.11-6.14,2.11h0c-2.97,0-5.92-1.32-7.89-3.85Z"/><path class="cls-10" d="M1335.3,391.44c-.65,0-1.31-.06-1.95-.19-.64-.13-1.27-.32-1.87-.57-.61-.25-1.19-.56-1.73-.92-.55-.37-1.06-.79-1.52-1.25s-.88-.97-1.24-1.52c-.36-.54-.67-1.12-.92-1.73-.25-.6-.44-1.23-.57-1.87-.13-.64-.2-1.3-.2-1.95s.07-1.31,.2-1.95c.13-.64,.32-1.27,.57-1.87,.25-.61,.56-1.19,.92-1.73,.36-.55,.78-1.06,1.24-1.52,.46-.46,.97-.88,1.52-1.24,.54-.36,1.12-.67,1.73-.92,.6-.25,1.23-.44,1.87-.57,1.29-.26,2.61-.26,3.9,0,.64,.13,1.27,.32,1.88,.57,.6,.25,1.18,.56,1.72,.92,.55,.36,1.06,.78,1.52,1.24,.47,.46,.88,.97,1.25,1.52,.36,.54,.67,1.12,.92,1.73,.25,.6,.44,1.23,.57,1.87,.13,.64,.19,1.3,.19,1.95s-.06,1.31-.19,1.95c-.13,.64-.32,1.27-.57,1.87-.25,.61-.56,1.19-.92,1.73-.37,.55-.79,1.06-1.25,1.52-1.86,1.86-4.44,2.93-7.07,2.93Z"/></g><g><path class="cls-10" d="M602.91,1699.98c-.65,0-1.3-.06-1.95-.19-.64-.13-1.27-.32-1.87-.57s-1.18-.56-1.73-.92c-.54-.36-1.06-.78-1.52-1.24-.46-.46-.88-.98-1.24-1.52-.36-.55-.67-1.13-.92-1.73-.25-.61-.44-1.23-.57-1.87-.13-.65-.19-1.31-.19-1.96s.06-1.31,.19-1.95c.13-.64,.32-1.27,.57-1.87s.56-1.18,.92-1.73c.36-.54,.78-1.06,1.24-1.52,.46-.46,.98-.88,1.52-1.24,.55-.36,1.13-.67,1.73-.92s1.23-.44,1.87-.57c1.29-.26,2.62-.26,3.91,0,.64,.13,1.27,.32,1.87,.57s1.18,.56,1.73,.92c.54,.36,1.06,.78,1.52,1.24,.46,.46,.88,.98,1.24,1.52,.36,.55,.67,1.13,.92,1.73s.44,1.23,.57,1.87c.13,.64,.19,1.3,.19,1.95s-.06,1.31-.19,1.96c-.13,.64-.32,1.26-.57,1.87-.25,.6-.56,1.18-.92,1.73-.37,.54-.79,1.06-1.25,1.52-.46,.46-.97,.88-1.52,1.24-.54,.36-1.12,.67-1.72,.92-.61,.25-1.23,.44-1.87,.57-.65,.13-1.3,.19-1.96,.19Z"/><path class="cls-10" d="M607.57,1635.45c-5.5-.6-9.47-5.52-8.89-11.02h0c.59-5.49,5.52-9.46,11.01-8.87h0c5.49,.58,9.47,5.51,8.88,11h0c-.55,5.14-4.89,8.94-9.93,8.94h0c-.36,0-.71-.02-1.07-.05Zm7.7-64.29c-5.47-.78-9.26-5.86-8.47-11.32h0c.79-5.47,5.86-9.26,11.33-8.47h0c5.46,.79,9.25,5.86,8.46,11.33h0c-.71,4.97-4.99,8.57-9.88,8.57h0c-.47,0-.96-.04-1.44-.11Zm10.05-63.94c-5.43-.99-9.03-6.2-8.04-11.63h0c.99-5.43,6.19-9.04,11.63-8.05h0c5.43,.99,9.03,6.2,8.05,11.63h0c-.88,4.83-5.09,8.21-9.83,8.21h0c-.59,0-1.2-.05-1.81-.16Zm12.41-63.54c-5.39-1.19-8.8-6.52-7.61-11.92h.01c1.18-5.39,6.52-8.8,11.91-7.61h0c5.39,1.18,8.8,6.52,7.61,11.92h0c-1.02,4.67-5.16,7.85-9.75,7.85h0c-.71,0-1.44-.08-2.17-.24Zm14.75-63.03c-5.35-1.39-8.56-6.85-7.17-12.19h0c1.39-5.35,6.85-8.56,12.19-7.17h0c5.35,1.39,8.56,6.85,7.17,12.19h0c-1.17,4.5-5.23,7.49-9.67,7.49h0c-.83,0-1.68-.11-2.52-.32Z"/><path class="cls-10" d="M672.41,1318.63c-.65,0-1.31-.06-1.95-.19-.64-.13-1.27-.33-1.87-.58-.61-.25-1.19-.55-1.73-.92-.55-.36-1.06-.78-1.52-1.24-.46-.46-.88-.97-1.24-1.52-.36-.54-.67-1.12-.92-1.72-.25-.61-.44-1.24-.57-1.88-.13-.64-.2-1.3-.2-1.95s.07-1.3,.2-1.95c.13-.64,.32-1.27,.57-1.87,.25-.6,.56-1.19,.92-1.73,.36-.55,.78-1.06,1.24-1.52,2.33-2.32,5.78-3.38,9.03-2.73,.63,.12,1.26,.32,1.87,.57,.6,.25,1.18,.56,1.72,.92,.55,.36,1.06,.78,1.52,1.24,.46,.46,.88,.97,1.25,1.52,.36,.54,.67,1.13,.92,1.73,.24,.6,.44,1.23,.56,1.87,.13,.65,.2,1.3,.2,1.95s-.07,1.31-.2,1.95c-.12,.64-.32,1.27-.56,1.88-.25,.6-.56,1.18-.92,1.72-.37,.55-.79,1.06-1.25,1.52-.46,.46-.97,.88-1.52,1.24-.54,.37-1.12,.67-1.72,.92-.61,.25-1.24,.45-1.87,.58-.65,.13-1.31,.19-1.96,.19Z"/></g><g><path class="cls-10" d="M4004.31,1182.21c-.65,0-1.31-.07-1.96-.2-.63-.13-1.26-.32-1.87-.57-.6-.25-1.18-.56-1.72-.92-.55-.36-1.06-.78-1.52-1.24-.46-.46-.88-.97-1.24-1.52-.37-.54-.68-1.12-.93-1.73-.25-.6-.44-1.23-.57-1.87-.13-.64-.19-1.3-.19-1.95s.06-1.31,.19-1.96c.13-.63,.32-1.26,.57-1.87,.25-.6,.56-1.18,.92-1.72,.37-.55,.79-1.06,1.25-1.52,.46-.47,.97-.88,1.52-1.25,.54-.36,1.12-.67,1.72-.92,.61-.25,1.24-.44,1.87-.57,1.29-.26,2.62-.26,3.91,0,.64,.13,1.27,.32,1.87,.57,.61,.25,1.19,.56,1.73,.92,.55,.37,1.06,.78,1.52,1.25,.46,.46,.88,.97,1.24,1.52,.36,.54,.67,1.12,.92,1.72,.25,.61,.44,1.23,.57,1.87,.13,.65,.2,1.31,.2,1.96s-.07,1.31-.2,1.95c-.13,.64-.32,1.27-.57,1.87-.25,.61-.56,1.19-.92,1.73-.36,.55-.78,1.06-1.24,1.52-1.86,1.86-4.44,2.93-7.07,2.93Z"/><path class="cls-10" d="M4105.82,1632.27c-.57-5.49,3.42-10.4,8.92-10.98h0c5.49-.57,10.41,3.43,10.98,8.92h0c.56,5.49-3.43,10.41-8.92,10.98h0c-.35,.04-.7,.05-1.04,.05h0c-5.06,0-9.4-3.83-9.94-8.97Zm-8.22-66.79h0c-.78-5.47,3.02-10.53,8.48-11.31h0c5.48-.78,10.54,3.02,11.32,8.49h0c.78,5.46-3.02,10.53-8.49,11.31h0c-.47,.07-.95,.1-1.42,.1h0c-4.9,0-9.18-3.6-9.89-8.59Zm-10.78-66.43c-1-5.43,2.61-10.64,8.04-11.63h0c5.43-.99,10.64,2.61,11.63,8.05h0c.99,5.43-2.61,10.64-8.05,11.63h0c-.6,.11-1.2,.16-1.79,.16h0c-4.74,0-8.96-3.38-9.83-8.21Zm-13.34-65.96c-1.2-5.39,2.2-10.73,7.59-11.93h0c5.39-1.2,10.74,2.2,11.93,7.59h0c1.2,5.39-2.2,10.74-7.59,11.93h0c-.73,.17-1.46,.24-2.18,.24h0c-4.58,0-8.71-3.17-9.75-7.83Zm-15.87-65.4c-1.41-5.34,1.78-10.81,7.12-12.21h0c5.34-1.41,10.81,1.78,12.22,7.12h0c1.4,5.34-1.78,10.81-7.12,12.22h0c-.86,.22-1.71,.33-2.56,.33h0c-4.43,0-8.48-2.97-9.66-7.46Zm-18.39-64.73c-1.61-5.29,1.36-10.87,6.64-12.48h0c5.29-1.62,10.87,1.36,12.49,6.64h0c1.61,5.29-1.36,10.87-6.65,12.49h0c-.97,.29-1.95,.43-2.92,.43h0c-4.28,0-8.25-2.77-9.56-7.08Zm-20.88-63.98c-1.82-5.21,.94-10.91,6.16-12.73h0c5.21-1.81,10.91,.95,12.73,6.16h0c1.81,5.22-.95,10.92-6.16,12.74h0c-1.09,.37-2.19,.55-3.28,.55h0c-4.14,0-8.01-2.59-9.45-6.72Z"/><path class="cls-10" d="M4121.48,1708.75c-.66,0-1.32-.07-1.96-.19-.64-.13-1.27-.32-1.87-.57-.61-.25-1.19-.56-1.73-.92-.55-.36-1.06-.78-1.52-1.24-.46-.46-.88-.98-1.24-1.53-.36-.54-.67-1.12-.92-1.72-.25-.61-.44-1.24-.57-1.87-.13-.65-.2-1.31-.2-1.96s.07-1.31,.2-1.95c.13-.64,.32-1.27,.57-1.87s.56-1.18,.92-1.73c.36-.54,.78-1.06,1.24-1.52s.97-.88,1.52-1.24c.54-.36,1.12-.67,1.73-.92,.6-.25,1.23-.44,1.87-.57,1.29-.26,2.62-.26,3.91,0,.63,.13,1.26,.32,1.87,.57,.6,.25,1.18,.56,1.72,.92,.55,.36,1.06,.78,1.52,1.24s.88,.98,1.25,1.52c.36,.55,.66,1.13,.91,1.73s.45,1.23,.57,1.87c.13,.64,.2,1.3,.2,1.95s-.07,1.31-.2,1.96c-.12,.63-.32,1.26-.57,1.87-.25,.6-.55,1.18-.91,1.72-.37,.55-.79,1.07-1.25,1.53-.46,.46-.97,.88-1.52,1.24-.54,.36-1.12,.67-1.72,.92-.61,.25-1.24,.44-1.87,.57-.65,.12-1.3,.19-1.95,.19Z"/></g><g><path class="cls-10" d="M2591.09,76.73c-.65,0-1.31-.07-1.95-.2-.64-.13-1.27-.32-1.87-.57-.61-.25-1.19-.56-1.73-.92-.55-.36-1.06-.78-1.52-1.24-.46-.46-.88-.97-1.24-1.52-.36-.54-.67-1.12-.92-1.73-.25-.6-.44-1.23-.57-1.87s-.2-1.3-.2-1.95,.07-1.31,.2-1.96c.13-.64,.32-1.27,.57-1.87,.25-.6,.56-1.18,.91-1.73,.37-.54,.79-1.06,1.25-1.52,2.32-2.32,5.77-3.39,9.03-2.73,.63,.13,1.26,.32,1.87,.57,.6,.25,1.18,.56,1.72,.92,.55,.36,1.06,.78,1.52,1.24,.46,.46,.88,.98,1.25,1.52,.36,.55,.67,1.13,.92,1.73,.25,.6,.44,1.24,.57,1.87,.13,.65,.19,1.31,.19,1.96s-.06,1.31-.19,1.95-.32,1.27-.57,1.87c-.25,.61-.56,1.19-.92,1.73-.37,.55-.79,1.06-1.25,1.52-.46,.46-.97,.88-1.52,1.24-.54,.36-1.12,.67-1.72,.92-.61,.25-1.24,.44-1.87,.57-.65,.13-1.31,.2-1.96,.2Z"/><path class="cls-10" d="M2986.78,176.59c-5.16-1.97-7.75-7.75-5.77-12.91h0c1.96-5.16,7.74-7.75,12.9-5.78h0c5.16,1.97,7.75,7.74,5.78,12.91h0c-1.52,3.99-5.32,6.44-9.35,6.44h0c-1.18,0-2.39-.22-3.56-.66Zm-64.35-23.12c-5.24-1.77-8.05-7.43-6.29-12.67h0c1.77-5.23,7.44-8.05,12.68-6.28h0c5.23,1.76,8.04,7.44,6.28,12.67h0c-1.41,4.18-5.3,6.81-9.47,6.81h0c-1.06,0-2.14-.17-3.2-.53Zm-65.21-20.57h0c-5.29-1.56-8.33-7.11-6.77-12.41h0c1.56-5.3,7.12-8.33,12.41-6.77h0c5.3,1.55,8.33,7.11,6.78,12.41h0c-1.28,4.36-5.27,7.18-9.59,7.18h0c-.93,0-1.88-.13-2.82-.41Zm-65.98-17.99h0c-5.36-1.35-8.61-6.78-7.26-12.14h0c1.35-5.35,6.78-8.6,12.14-7.25h0c5.35,1.35,8.6,6.78,7.25,12.14h0c-1.14,4.53-5.21,7.56-9.69,7.56h0c-.81,0-1.63-.1-2.45-.31Zm-66.62-15.38h0c-5.41-1.14-8.87-6.45-7.73-11.85h0c1.14-5.4,6.44-8.86,11.84-7.73h0c5.41,1.14,8.87,6.44,7.73,11.85h0c-.99,4.71-5.15,7.95-9.78,7.95h0c-.68,0-1.37-.08-2.06-.22Zm-67.18-12.77c-5.45-.92-9.12-6.08-8.19-11.53h0c.92-5.44,6.09-9.11,11.53-8.18h0c5.45,.93,9.11,6.08,8.19,11.53h0c-.83,4.88-5.07,8.33-9.85,8.33h0c-.56,0-1.12-.05-1.68-.15Z"/><path class="cls-10" d="M3054.1,203.01c-2.63,0-5.21-1.06-7.07-2.93-1.86-1.86-2.93-4.44-2.93-7.07,0-.65,.07-1.31,.2-1.95,.12-.64,.32-1.27,.57-1.87s.56-1.19,.92-1.73c.36-.55,.78-1.06,1.24-1.52,2.32-2.32,5.77-3.39,9.03-2.73,.63,.13,1.26,.32,1.87,.57,.6,.25,1.18,.56,1.72,.92,.55,.36,1.06,.78,1.52,1.24,.46,.46,.88,.97,1.25,1.52,.36,.54,.67,1.13,.92,1.73s.44,1.23,.57,1.87c.13,.64,.19,1.3,.19,1.95,0,2.63-1.07,5.21-2.93,7.07-.46,.47-.97,.88-1.52,1.25-.54,.36-1.12,.67-1.72,.92-.61,.25-1.24,.44-1.87,.57-.65,.13-1.31,.19-1.96,.19Z"/></g></g><g><g><path class="cls-10" d="M3768.35,2939.04c-.66,0-1.31-.06-1.96-.19-.64-.13-1.26-.32-1.87-.57-.6-.25-1.18-.56-1.72-.92-.55-.37-1.06-.79-1.52-1.25-.47-.46-.88-.97-1.25-1.51-.36-.55-.67-1.13-.92-1.73s-.44-1.24-.57-1.87c-.13-.65-.2-1.31-.2-1.96s.07-1.31,.2-1.95,.32-1.27,.57-1.87c.25-.61,.56-1.19,.92-1.73,.37-.55,.78-1.06,1.25-1.52,.46-.46,.97-.88,1.52-1.24,.54-.36,1.12-.67,1.72-.92,.61-.25,1.23-.44,1.87-.57,1.29-.26,2.62-.26,3.91,0,.64,.13,1.27,.32,1.87,.57,.6,.25,1.18,.56,1.73,.92,.54,.36,1.05,.78,1.51,1.24,.47,.46,.88,.97,1.25,1.52,.36,.54,.67,1.12,.92,1.73,.25,.6,.44,1.23,.57,1.87s.2,1.3,.2,1.95-.07,1.31-.2,1.96c-.13,.63-.32,1.27-.57,1.87s-.56,1.18-.92,1.73c-.37,.54-.78,1.05-1.25,1.51-.46,.46-.97,.88-1.51,1.25-.55,.36-1.13,.67-1.73,.92-.6,.25-1.23,.44-1.87,.57-.65,.13-1.3,.19-1.95,.19Z"/><path class="cls-10" d="M2377.39,3623.35c-.05-5.53,4.39-10.04,9.91-10.09h0c5.52-.05,10.04,4.38,10.09,9.91h0c.05,5.51-4.39,10.03-9.91,10.08h0s-.06,0-.1,0h0c-5.48,0-9.94-4.42-9.99-9.91Zm-59.92,9.19c-5.52-.17-9.86-4.78-9.7-10.3h0c.16-5.52,4.77-9.86,10.3-9.69h0c5.52,.16,9.86,4.76,9.7,10.29h0c-.17,5.42-4.61,9.7-9.99,9.7h-.31Zm129.53-10.8c-.27-5.52,3.98-10.21,9.5-10.47h0c5.52-.27,10.21,3.99,10.47,9.5h0c.27,5.52-3.98,10.21-9.5,10.47h0c-.17,0-.34,0-.5,0h0c-5.3,0-9.72-4.16-9.97-9.51Zm-199.46,7.34c-5.51-.38-9.67-5.15-9.29-10.67h0c.38-5.51,5.16-9.66,10.67-9.28h0c5.5,.38,9.66,5.16,9.28,10.67h0c-.36,5.27-4.75,9.31-9.96,9.31h0c-.23,0-.47,0-.7-.03Zm268.94-11.68c-.48-5.5,3.59-10.35,9.09-10.83h0c5.5-.49,10.35,3.58,10.83,9.09h0c.49,5.49-3.58,10.34-9.08,10.83h0c-.3,.03-.59,.04-.88,.04h0c-5.13,0-9.5-3.92-9.96-9.13Zm-338.75,5.47c-5.49-.6-9.45-5.54-8.85-11.03h0c.59-5.49,5.53-9.45,11.02-8.85h0c5.48,.59,9.45,5.53,8.85,11.02h0c-.55,5.12-4.88,8.92-9.92,8.92h0c-.36,0-.73-.02-1.1-.06Zm408.01-12.54c-.7-5.48,3.17-10.49,8.65-11.19h0c5.48-.7,10.49,3.17,11.19,8.65h0c.7,5.48-3.17,10.49-8.65,11.19h0c-.43,.05-.86,.08-1.28,.08h0c-4.95,0-9.26-3.68-9.91-8.73Zm-477.51,3.57c-5.47-.82-9.23-5.91-8.42-11.37h0c.82-5.47,5.91-9.23,11.37-8.42h0c5.47,.82,9.23,5.91,8.42,11.37h0c-.74,4.96-5.01,8.53-9.89,8.53h0c-.49,0-.98-.04-1.48-.11Zm546.34-13.37c-.92-5.45,2.76-10.61,8.2-11.52h0c5.45-.92,10.61,2.76,11.52,8.2h0c.92,5.44-2.75,10.6-8.2,11.52h0c-.56,.1-1.12,.14-1.67,.14h0c-4.8,0-9.03-3.45-9.85-8.34Zm-615.43,1.63c-5.42-1.03-8.98-6.27-7.95-11.69h0c1.03-5.43,6.27-8.99,11.7-7.95h0c5.42,1.03,8.98,6.27,7.95,11.69h0c-.92,4.79-5.11,8.13-9.82,8.13h0c-.62,0-1.25-.06-1.88-.18Zm683.82-14.15c-1.13-5.41,2.33-10.71,7.74-11.84h0c5.4-1.14,10.7,2.32,11.84,7.73h0c1.13,5.4-2.33,10.71-7.73,11.84h0c-.69,.14-1.38,.21-2.06,.21h0c-4.64,0-8.79-3.23-9.79-7.94Zm-752.37-.32c-5.38-1.26-8.73-6.63-7.48-12.01h0c1.25-5.38,6.62-8.73,12-7.47h0c5.38,1.24,8.73,6.61,7.48,11.99h0c-1.07,4.62-5.19,7.74-9.74,7.74h0c-.74,0-1.5-.08-2.26-.25Zm820.22-14.93c-1.34-5.36,1.91-10.79,7.26-12.14h0c5.35-1.35,10.79,1.9,12.14,7.25h0c1.35,5.36-1.9,10.8-7.25,12.14h0c-.82,.21-1.64,.31-2.45,.31h0c-4.47,0-8.55-3.03-9.7-7.56Zm-888.14-2.28c-5.33-1.47-8.46-6.97-6.99-12.3h0c1.46-5.32,6.96-8.46,12.29-6.99h0c5.32,1.46,8.45,6.96,6.99,12.29h0c-1.22,4.44-5.25,7.36-9.64,7.36h0c-.88,0-1.77-.12-2.65-.36Zm955.34-15.67c-1.56-5.29,1.47-10.86,6.77-12.42h0c5.3-1.56,10.85,1.47,12.42,6.77h0c1.56,5.29-1.47,10.85-6.76,12.41h0c-.95,.28-1.9,.41-2.84,.41h0c-4.32,0-8.3-2.82-9.59-7.17Zm-1022.51-4.24c-5.26-1.68-8.17-7.3-6.5-12.57h0c1.68-5.26,7.3-8.17,12.57-6.49h0c5.26,1.67,8.17,7.3,6.49,12.56h0c-1.35,4.26-5.29,6.97-9.53,6.97h0c-1,0-2.03-.15-3.03-.47Zm1088.95-16.38c-1.77-5.23,1.03-10.91,6.26-12.68h0c5.23-1.77,10.91,1.03,12.68,6.26h0c1.77,5.23-1.03,10.91-6.26,12.68h0c-1.06,.36-2.14,.53-3.21,.53h0c-4.17,0-8.06-2.62-9.47-6.79Zm-1155.27-6.21h0c-5.19-1.89-7.87-7.62-5.98-12.81h0c1.88-5.19,7.62-7.87,12.8-5.99h0c5.2,1.88,7.88,7.62,5.99,12.82h0c-1.47,4.06-5.31,6.59-9.4,6.59h0c-1.13,0-2.29-.2-3.41-.61Zm1220.83-17.05c-1.98-5.16,.6-10.95,5.75-12.93h0c5.16-1.97,10.94,.6,12.92,5.75h0c1.98,5.16-.59,10.94-5.74,12.93h0c-1.18,.45-2.4,.66-3.59,.66h0c-4.02,0-7.81-2.44-9.34-6.41Zm-1286.18-8.16c-5.12-2.09-7.57-7.93-5.48-13.05h0c2.1-5.11,7.94-7.56,13.05-5.46h0c5.11,2.09,7.56,7.93,5.47,13.04h0c-1.59,3.87-5.32,6.21-9.26,6.21h0c-1.26,0-2.54-.24-3.78-.74Zm1350.77-17.71c-2.18-5.08,.16-10.96,5.24-13.14h0c5.06-2.19,10.95,.16,13.13,5.22h0c2.19,5.08-.15,10.96-5.23,13.14h0c-1.29,.56-2.63,.83-3.94,.83h0c-3.88,0-7.57-2.27-9.2-6.05Zm-1415.07-10.11c-5.02-2.29-7.23-8.22-4.94-13.24h0c2.29-5.03,8.22-7.24,13.25-4.95h0c5.02,2.3,7.24,8.23,4.94,13.25h0c-1.68,3.68-5.31,5.85-9.1,5.85h0c-1.39,0-2.8-.29-4.15-.91Zm1478.58-18.32c-2.38-4.98-.28-10.96,4.71-13.34h0c4.98-2.39,10.95-.28,13.33,4.7h0c2.39,4.98,.29,10.95-4.69,13.34h0c-1.4,.66-2.87,.98-4.32,.98h0c-3.73,0-7.31-2.1-9.03-5.68Zm-1541.71-12.03c-4.92-2.49-6.9-8.5-4.41-13.43h0c2.5-4.93,8.51-6.91,13.44-4.41h0c4.93,2.49,6.9,8.5,4.41,13.43h0c-1.76,3.49-5.28,5.49-8.93,5.49h0c-1.52,0-3.06-.34-4.51-1.08Zm1604.05-18.91c-2.58-4.89-.72-10.94,4.17-13.52h0c4.88-2.58,10.93-.72,13.51,4.17h0c2.58,4.87,.72,10.93-4.17,13.51h0c-1.49,.79-3.09,1.16-4.66,1.16h0c-3.59,0-7.06-1.93-8.85-5.32Zm-1665.91-13.92h0c-4.82-2.7-6.56-8.79-3.87-13.61h0c2.69-4.83,8.77-6.56,13.6-3.87h0c4.82,2.68,6.56,8.77,3.87,13.6h0c-1.82,3.29-5.23,5.14-8.75,5.14h0c-1.64,0-3.31-.41-4.85-1.26Zm1726.97-19.49c-2.78-4.77-1.15-10.9,3.62-13.67h0c4.78-2.77,10.9-1.15,13.67,3.63h0c2.78,4.78,1.16,10.89-3.62,13.67h0c-1.58,.92-3.3,1.35-5.01,1.35h0c-3.45,0-6.8-1.78-8.66-4.98Zm-1787.47-15.8c-4.72-2.87-6.21-9.02-3.33-13.74h0c2.87-4.71,9.02-6.2,13.74-3.33h0c4.72,2.88,6.2,9.03,3.33,13.74h0c-1.88,3.09-5.18,4.8-8.55,4.8h0c-1.77,0-3.57-.47-5.19-1.47Zm1847.16-20c-2.96-4.66-1.59-10.84,3.08-13.8h0c4.67-2.97,10.85-1.59,13.81,3.08h0c2.96,4.66,1.58,10.84-3.08,13.8h0c-1.66,1.05-3.52,1.56-5.35,1.56h0c-3.31,0-6.55-1.64-8.45-4.64Zm-1906.22-17.64c-4.6-3.07-5.84-9.27-2.78-13.87h0c3.06-4.6,9.26-5.84,13.86-2.78h0c4.6,3.06,5.85,9.26,2.79,13.86h0c-1.93,2.9-5.1,4.46-8.34,4.46h0c-1.9,0-3.83-.54-5.53-1.67Zm1964.44-20.51c-3.14-4.54-2.01-10.77,2.53-13.91h0c4.54-3.15,10.77-2.02,13.92,2.53h0c3.14,4.54,2,10.76-2.53,13.91h0c-1.74,1.2-3.73,1.78-5.69,1.78h0c-3.17,0-6.28-1.51-8.23-4.31Zm-2021.95-19.46h0c-4.47-3.24-5.46-9.49-2.22-13.96h0c3.24-4.47,9.49-5.47,13.96-2.23h0c4.47,3.24,5.47,9.49,2.23,13.96h0c-1.95,2.7-5.01,4.14-8.1,4.14h0c-2.04,0-4.09-.62-5.86-1.91Zm2078.62-20.96c-3.32-4.42-2.43-10.69,1.98-14.01h0c4.41-3.32,10.68-2.43,14,1.98h0c3.33,4.41,2.44,10.68-1.97,14h0c-1.81,1.36-3.92,2.01-6.01,2.01h0c-3.04,0-6.03-1.37-8-3.98Zm-2134.5-21.23c-4.35-3.42-5.1-9.71-1.68-14.05h0c3.41-4.34,9.7-5.09,14.04-1.67h0c4.34,3.41,5.09,9.69,1.68,14.04h0c-1.98,2.51-4.91,3.81-7.87,3.81h0c-2.16,0-4.34-.7-6.17-2.13Zm2189.53-21.41c-3.49-4.28-2.85-10.58,1.43-14.08h0c4.27-3.49,10.57-2.84,14.07,1.43h0c3.49,4.28,2.85,10.58-1.43,14.07h0c-1.85,1.51-4.09,2.25-6.31,2.25h0c-2.9,0-5.78-1.25-7.76-3.67Zm-2243.71-22.98h0c-4.2-3.58-4.7-9.89-1.12-14.09h0c3.58-4.2,9.9-4.7,14.1-1.12h0c4.2,3.58,4.7,9.9,1.12,14.1h0c-1.98,2.31-4.79,3.5-7.61,3.5h0c-2.3,0-4.6-.78-6.49-2.39Zm2297.02-21.81c-3.66-4.13-3.27-10.45,.86-14.11h0c4.14-3.66,10.46-3.27,14.12,.87h0c3.66,4.13,3.27,10.45-.87,14.11h0c-1.9,1.69-4.26,2.51-6.62,2.51h0c-2.76,0-5.52-1.14-7.49-3.38Zm-2349.39-24.67c-4.06-3.75-4.31-10.07-.57-14.13h0c3.75-4.06,10.08-4.31,14.13-.56h0c4.06,3.74,4.32,10.07,.57,14.13h0c-1.97,2.13-4.66,3.22-7.35,3.22h0c-2.43,0-4.86-.88-6.78-2.66Zm2400.89-22.18c-3.82-3.99-3.68-10.32,.31-14.14h0c3.99-3.82,10.32-3.68,14.14,.31h0c3.82,3.99,3.68,10.32-.31,14.14h0c-1.94,1.85-4.43,2.78-6.92,2.78h0c-2.63,0-5.26-1.04-7.22-3.09Zm49.61-48.85c-3.97-3.84-4.08-10.17-.25-14.14h0c3.84-3.98,10.17-4.09,14.15-.25h0c3.96,3.83,4.08,10.17,.24,14.14h0c-1.96,2.03-4.58,3.05-7.2,3.05h0c-2.49,0-5-.93-6.94-2.8Zm47.65-50.77c-4.12-3.68-4.48-10-.81-14.12h0c3.68-4.13,10-4.49,14.12-.81h0c4.13,3.67,4.49,9.99,.81,14.12h0c-1.97,2.21-4.71,3.34-7.46,3.34h0c-2.37,0-4.75-.84-6.66-2.53Zm45.61-52.62c-4.26-3.52-4.87-9.82-1.36-14.08h0c3.51-4.26,9.82-4.87,14.08-1.36h0c4.26,3.5,4.87,9.81,1.36,14.07h0c-1.97,2.4-4.84,3.65-7.73,3.65h0c-2.23,0-4.49-.75-6.35-2.28Z"/><path class="cls-10" d="M1131.21,3119.82c-.66,0-1.31-.06-1.96-.2-.64-.12-1.27-.32-1.87-.57-.6-.24-1.19-.55-1.73-.91-.54-.37-1.06-.78-1.52-1.24-.46-.46-.87-.98-1.24-1.52-.36-.55-.67-1.13-.92-1.73-.25-.6-.44-1.23-.57-1.87-.13-.65-.19-1.3-.19-1.95s.06-1.31,.19-1.96c.13-.64,.32-1.27,.57-1.87,.25-.61,.56-1.19,.92-1.73,.37-.55,.78-1.06,1.24-1.52,.46-.46,.98-.88,1.52-1.24s1.13-.67,1.73-.92c.6-.25,1.23-.44,1.87-.57,1.29-.26,2.62-.26,3.91,0,.64,.13,1.27,.32,1.87,.57s1.18,.56,1.73,.92c.54,.36,1.05,.78,1.52,1.24,.46,.46,.88,.97,1.24,1.52,.36,.54,.67,1.12,.92,1.73,.25,.6,.44,1.23,.57,1.87,.13,.65,.2,1.3,.2,1.96s-.07,1.3-.2,1.95c-.13,.64-.32,1.27-.57,1.87-.25,.6-.56,1.18-.92,1.73-.36,.54-.78,1.06-1.24,1.52-.47,.46-.98,.87-1.52,1.24-.55,.36-1.13,.67-1.73,.91-.6,.25-1.23,.45-1.87,.57-.65,.14-1.3,.2-1.95,.2Z"/></g><g><g class="cls-46"><path class="cls-4" d="M921.07,1844.36c0-783.55,635.19-1418.74,1418.74-1418.74,390.77,0,744.64,157.99,1001.23,413.58l300.96-300.96C3308.39,205.63,2848.12,0,2339.81,0,1321.2,0,495.45,825.75,495.45,1844.36c0,508.31,205.63,968.58,538.24,1302.19l300.96-300.96c-255.59-256.58-413.58-610.45-413.58-1001.23Z"/></g><g class="cls-5"><g><g><rect class="cls-9" x="-550.61" y="3856.5" width="1942.26" height="16.1" transform="translate(-2609.38 1429.12) rotate(-45)"/><rect class="cls-9" x="-508.44" y="3899.87" width="1936.49" height="16.1" transform="translate(-2628.54 1469.61) rotate(-45)"/><rect class="cls-9" x="-516.13" y="3822.85" width="2271.26" height="16.1" transform="translate(-2527.31 1559.96) rotate(-45)"/><rect class="cls-9" x="-458.94" y="3902.46" width="2162.97" height="16.1" transform="translate(-2582.71 1585.43) rotate(-45)"/><rect class="cls-9" x="-417.61" y="3943.79" width="2162.97" height="16.1" transform="translate(-2599.83 1626.76) rotate(-45)"/><rect class="cls-9" x="-386.86" y="3959.59" width="2235.19" height="16.1" transform="translate(-2591.42 1678.66) rotate(-45)"/><rect class="cls-9" x="-342.64" y="4007.91" width="2215.42" height="16.1" transform="translate(-2615.53 1717.09) rotate(-45)"/><rect class="cls-9" x="-308.28" y="4032.4" width="2263.04" height="16.1" transform="translate(-2615.81 1765.39) rotate(-45)"/><rect class="cls-9" x="-279.59" y="4043.22" width="2349.33" height="16.1" transform="translate(-2602.43 1819.36) rotate(-45)"/><rect class="cls-9" x="-241.94" y="4075.67" width="2374.47" height="16.1" transform="translate(-2610.66 1864.37) rotate(-45)"/><rect class="cls-9" x="-221.51" y="4066.54" width="2517.19" height="16.1" transform="translate(-2577.32 1926.6) rotate(-45)"/><rect class="cls-9" x="-180.18" y="4107.87" width="2517.19" height="16.1" transform="translate(-2594.44 1967.92) rotate(-45)"/><rect class="cls-9" x="-138.85" y="4149.2" width="2517.19" height="16.1" transform="translate(-2611.56 2009.25) rotate(-45)"/><rect class="cls-9" x="-105.68" y="4170.83" width="2572.9" height="16.1" transform="translate(-2608.99 2058.74) rotate(-45)"/><rect class="cls-9" x="-60.27" y="4222.01" width="2545.05" height="16.1" transform="translate(-2635.95 2095.99) rotate(-45)"/><rect class="cls-9" x="-9.25" y="4286.73" width="2478.9" height="16.1" transform="translate(-2676.46 2127.63) rotate(-45)"/><rect class="cls-9" x="25.46" y="4312.07" width="2524.13" height="16.1" transform="translate(-2677.59 2175.58) rotate(-45)"/><rect class="cls-9" x="49.69" y="4312.12" width="2640.86" height="16.1" transform="translate(-2653.44 2234) rotate(-45)"/><rect class="cls-9" x="86.44" y="4342.4" width="2672.12" height="16.1" transform="translate(-2659.5 2279.91) rotate(-45)"/><rect class="cls-9" x="125.25" y="4377.64" width="2689.35" height="16.1" transform="translate(-2670.53 2323.76) rotate(-45)"/><rect class="cls-9" x="146.15" y="4369.64" width="2828.87" height="16.1" transform="translate(-2638.33 2385.52) rotate(-45)"/><rect class="cls-9" x="172.21" y="4374.1" width="2933.15" height="16.1" transform="translate(-2618.58 2442.12) rotate(-45)"/><rect class="cls-9" x="202.6" y="4389.03" width="3007.83" height="16.1" transform="translate(-2609.3 2494.38) rotate(-45)"/><rect class="cls-9" x="229.49" y="4395.49" width="3106.46" height="16.1" transform="translate(-2591.55 2550.15) rotate(-45)"/><rect class="cls-9" x="255.24" y="4399.22" width="3212.81" height="16.1" transform="translate(-2571.07 2607.05) rotate(-45)"/><rect class="cls-9" x="275.32" y="4389.24" width="3357.93" height="16.1" transform="translate(-2536.89 2669.63) rotate(-45)"/></g><g><rect class="cls-9" x="898.73" y="4128.12" width="2806.55" height="16.1" transform="translate(-2250.47 2839.22) rotate(-45)"/><rect class="cls-9" x="843.04" y="3935.22" width="3469.05" height="16.1" transform="translate(-2033.32 2977.37) rotate(-45)"/><rect class="cls-9" x="950.58" y="4136.38" width="3016.98" height="16.1" transform="translate(-2210.32 2952.7) rotate(-45)"/><rect class="cls-9" x="1063.07" y="4349.52" width="2531.03" height="16.1" transform="translate(-2399.18 2922.66) rotate(-45)"/><rect class="cls-9" x="1093.32" y="4364.1" width="2606.69" height="16.1" transform="translate(-2389.55 2975.07) rotate(-45)"/><rect class="cls-9" x="1118.11" y="4365.49" width="2719.67" height="16.1" transform="translate(-2366.73 3032.94) rotate(-45)"/><rect class="cls-9" x="1159.44" y="4406.82" width="2719.67" height="16.1" transform="translate(-2383.85 3074.27) rotate(-45)"/><rect class="cls-9" x="1173.57" y="4382.49" width="2905.37" height="16.1" transform="translate(-2335.32 3142.79) rotate(-45)"/><rect class="cls-9" x="1199.52" y="4386.68" width="3010.43" height="16.1" transform="translate(-2315.35 3199.72) rotate(-45)"/><rect class="cls-9" x="1238.54" y="4422.44" width="3026.17" height="16.1" transform="translate(-2326.9 3243.36) rotate(-45)"/><rect class="cls-9" x="1299.38" y="4510.87" width="2892.96" height="16.1" transform="translate(-2391.01 3264.74) rotate(-45)"/><rect class="cls-9" x="1349.12" y="4572.51" width="2835.52" height="16.1" transform="translate(-2428.49 3297.87) rotate(-45)"/><rect class="cls-9" x="1395.07" y="4625" width="2803.97" height="16.1" transform="translate(-2456.82 3334.8) rotate(-45)"/><rect class="cls-9" x="1438.4" y="4671.16" width="2790.3" height="16.1" transform="translate(-2478.71 3373.91) rotate(-45)"/><rect class="cls-9" x="1479.67" y="4712.32" width="2790.76" height="16.1" transform="translate(-2495.67 3415.3) rotate(-45)"/><rect class="cls-9" x="1518.85" y="4748.47" width="2805.43" height="16.1" transform="translate(-2507.6 3458.78) rotate(-45)"/><rect class="cls-9" x="1556.04" y="4779.8" width="2833.71" height="16.1" transform="translate(-2514.73 3504.25) rotate(-45)"/><rect class="cls-9" x="1588.81" y="4800.46" width="2892.16" height="16.1" transform="translate(-2511.24 3554.37) rotate(-45)"/><rect class="cls-9" x="1612.43" y="4799.04" width="3013.08" height="16.1" transform="translate(-2485.61 3613.41) rotate(-45)"/><rect class="cls-9" x="1701.17" y="4954.83" width="2689.35" height="16.1" transform="translate(-2617.12 3607.09) rotate(-45)"/><rect class="cls-9" x="1754.74" y="5025.7" width="2605.79" height="16.1" transform="translate(-2663.78 3636.18) rotate(-45)"/><rect class="cls-9" x="1785.59" y="5041.73" width="2677.34" height="16.1" transform="translate(-2655.6 3687.99) rotate(-45)"/><rect class="cls-9" x="1826.92" y="5083.06" width="2677.34" height="16.1" transform="translate(-2672.72 3729.31) rotate(-45)"/><rect class="cls-9" x="1859.56" y="5103.43" width="2736.66" height="16.1" transform="translate(-2668.88 3779.33) rotate(-45)"/><rect class="cls-9" x="1909.58" y="5165.72" width="2677.35" height="16.1" transform="translate(-2706.96 3811.97) rotate(-45)"/><rect class="cls-9" x="1931.79" y="5160.89" width="2807.91" height="16.1" transform="translate(-2677.93 3872.42) rotate(-45)"/></g></g></g><g><g><path class="cls-32" d="M4457.22,1832.59c-1.28,0-2.31-1.04-2.31-2.31,0-143.51-14.46-286.92-42.97-426.27-27.79-135.8-69.25-269.38-123.24-397.02-53.01-125.33-118.62-246.21-195.01-359.28-75.66-112-162.56-217.32-258.27-313.03-.9-.9-.9-2.37,0-3.27,.9-.9,2.37-.9,3.27,0,95.92,95.92,183.01,201.47,258.83,313.71,76.56,113.32,142.31,234.46,195.44,360.06,54.11,127.93,95.66,261.8,123.51,397.89,28.58,139.65,43.07,283.38,43.07,427.2,0,1.28-1.04,2.31-2.31,2.31Z"/><path class="cls-32" d="M2339.81,3966.19v-37.02c142.42,0,284.74-14.35,423.02-42.64,134.75-27.57,267.3-68.72,393.96-122.29,124.36-52.6,244.32-117.71,356.52-193.51,111.14-75.09,215.66-161.32,310.64-256.3,94.98-94.98,181.22-199.5,256.3-310.64,75.8-112.21,140.91-232.16,193.51-356.52,53.57-126.66,94.72-259.21,122.29-393.96,28.3-138.28,42.64-280.6,42.64-423.02h37.02c0,144.91-14.6,289.73-43.39,430.44-28.06,137.15-69.94,272.05-124.46,400.96-53.53,126.57-119.79,248.64-196.93,362.82-76.41,113.1-164.15,219.45-260.8,316.1-96.65,96.65-203,184.4-316.1,260.8-114.19,77.14-236.26,143.4-362.82,196.93-128.91,54.52-263.81,96.4-400.96,124.46-140.71,28.79-285.53,43.39-430.44,43.39Z"/><path class="cls-32" d="M2339.81,3949.99c-140.77,0-281.52-13.89-418.33-41.27-133.39-26.7-264.76-66.57-390.45-118.49-123.41-50.98-242.71-114.14-354.57-187.72-110.76-72.85-215.29-156.61-310.7-248.96-.92-.89-.94-2.35-.05-3.27,.89-.92,2.35-.94,3.27-.05,95.2,92.14,199.51,175.72,310.03,248.42,111.62,73.42,230.65,136.44,353.79,187.31,125.41,51.81,256.49,91.59,389.59,118.23,136.52,27.33,276.96,41.18,417.43,41.18,1.28,0,2.31,1.04,2.31,2.31s-1.04,2.31-2.31,2.31Z"/></g><g><path class="cls-2" d="M4457.22,1832.59c-1.28,0-2.31-1.04-2.31-2.31,0-143.51-14.46-286.92-42.97-426.27-27.79-135.8-69.25-269.38-123.24-397.02-53.01-125.33-118.62-246.21-195.01-359.28-75.66-112-162.56-217.32-258.27-313.03-.9-.9-.9-2.37,0-3.27,.9-.9,2.37-.9,3.27,0,95.92,95.92,183.01,201.47,258.83,313.71,76.56,113.32,142.31,234.46,195.44,360.06,54.11,127.93,95.66,261.8,123.51,397.89,28.58,139.65,43.07,283.38,43.07,427.2,0,1.28-1.04,2.31-2.31,2.31Z"/><path class="cls-2" d="M2339.81,3966.19v-37.02c142.42,0,284.74-14.35,423.02-42.64,134.75-27.57,267.3-68.72,393.96-122.29,124.36-52.6,244.32-117.71,356.52-193.51,111.14-75.09,215.66-161.32,310.64-256.3,94.98-94.98,181.22-199.5,256.3-310.64,75.8-112.21,140.91-232.16,193.51-356.52,53.57-126.66,94.72-259.21,122.29-393.96,28.3-138.28,42.64-280.6,42.64-423.02h37.02c0,144.91-14.6,289.73-43.39,430.44-28.06,137.15-69.94,272.05-124.46,400.96-53.53,126.57-119.79,248.64-196.93,362.82-76.41,113.1-164.15,219.45-260.8,316.1-96.65,96.65-203,184.4-316.1,260.8-114.19,77.14-236.26,143.4-362.82,196.93-128.91,54.52-263.81,96.4-400.96,124.46-140.71,28.79-285.53,43.39-430.44,43.39Z"/><path class="cls-2" d="M2339.81,3949.99c-140.77,0-281.52-13.89-418.33-41.27-133.39-26.7-264.76-66.57-390.45-118.49-123.41-50.98-242.71-114.14-354.57-187.72-110.76-72.85-215.29-156.61-310.7-248.96-.92-.89-.94-2.35-.05-3.27,.89-.92,2.35-.94,3.27-.05,95.2,92.14,199.51,175.72,310.03,248.42,111.62,73.42,230.65,136.44,353.79,187.31,125.41,51.81,256.49,91.59,389.59,118.23,136.52,27.33,276.96,41.18,417.43,41.18,1.28,0,2.31,1.04,2.31,2.31s-1.04,2.31-2.31,2.31Z"/></g></g><rect class="cls-9" x="133.96" y="3524.61" width="1092.92" height="9.25" transform="translate(-2296.41 1515.04) rotate(-45)"/><circle class="cls-45" cx="4014.44" cy="3536.9" r="249.09"/><path class="cls-32" d="M2356.71,3160.19c-337.45,0-659.24-126.55-906.08-356.35-3.25-3.03-3.44-8.12-.41-11.38,3.03-3.26,8.12-3.44,11.38-.41,243.85,227.01,561.74,352.03,895.11,352.03,350.98,0,680.95-136.68,929.13-384.86,248.18-248.18,384.85-578.15,384.85-929.12s-127.42-657.45-358.77-902.29c-3.06-3.23-2.91-8.33,.32-11.38,3.23-3.05,8.32-2.91,11.38,.32,234.2,247.84,363.17,572.21,363.17,913.35s-138.36,689.29-389.57,940.51c-251.22,251.22-585.23,389.57-940.51,389.57Z"/><path class="cls-32" d="M3108.69,1122.48c-9.95,0-19.31-3.88-26.34-10.92-14.53-14.53-14.53-38.16,0-52.69l280.28-280.28c14.53-14.53,38.16-14.53,52.69,0,14.53,14.53,14.53,38.16,0,52.69l-280.28,280.28c-7.03,7.04-16.39,10.92-26.34,10.92Zm280.28-338.68c-5.42,0-10.83,2.06-14.96,6.18l-280.28,280.28c-8.25,8.25-8.25,21.67,0,29.92,7.99,7.99,21.93,7.99,29.92,0l280.28-280.28c8.25-8.25,8.25-21.67,0-29.92-4.13-4.12-9.54-6.18-14.96-6.18Z"/><path class="cls-32" d="M1426.31,2818.19c-27.9,0-50.59-22.69-50.59-50.59s22.69-50.59,50.59-50.59,50.59,22.7,50.59,50.59-22.7,50.59-50.59,50.59Zm0-85.08c-19.02,0-34.49,15.47-34.49,34.49s15.47,34.49,34.49,34.49,34.49-15.47,34.49-34.49-15.47-34.49-34.49-34.49Z"/><circle class="cls-9" cx="2300.93" cy="1798.15" r="881.35"/><path class="cls-22" d="M875.71,2719.88c-2.45,0-4.91-.94-6.78-2.81-28.42-28.42-44.07-66.2-44.07-106.39,0-52.4,26.61-100.22,71.18-127.9,4.49-2.79,10.4-1.42,13.2,3.09,2.79,4.49,1.41,10.4-3.09,13.2-38.9,24.16-62.12,65.88-62.12,111.61,0,35.07,13.66,68.03,38.45,92.84,3.74,3.74,3.74,9.81,0,13.55-1.87,1.87-4.32,2.81-6.78,2.81Z"/><path class="cls-10" d="M975.33,2761.14c-40.19,0-77.97-15.65-106.39-44.07-3.74-3.74-3.74-9.81,0-13.55,3.74-3.74,9.81-3.74,13.55,0,24.8,24.8,57.76,38.45,92.84,38.45,25.59,0,50.39-7.36,71.71-21.3,4.44-2.9,10.37-1.65,13.27,2.78,2.9,4.43,1.65,10.37-2.78,13.27-24.45,15.98-52.87,24.42-82.2,24.42Z"/><ellipse class="cls-9" cx="2380.48" cy="3887.25" rx="535.93" ry="82.36"/><path class="cls-7" d="M2404.03,1099.54h54.36l-19.56-36.52c-3.26-6.08-11.97-6.08-15.23,0l-19.56,36.52Z"/><path class="cls-15" d="M2359.54,691.53c-4.44,0-8.05-3.6-8.05-8.05v-112.13c0-4.45,3.61-8.05,8.05-8.05s8.05,3.6,8.05,8.05v112.13c0,4.45-3.61,8.05-8.05,8.05Z"/><path class="cls-32" d="M2359.64,780.58c-12.88,0-23.37-10.48-23.37-23.37s10.48-23.37,23.37-23.37,23.37,10.49,23.37,23.37-10.48,23.37-23.37,23.37Zm0-30.64c-4,0-7.26,3.26-7.26,7.27s3.26,7.27,7.26,7.27,7.27-3.26,7.27-7.27-3.26-7.27-7.27-7.27Z"/><path class="cls-32" d="M4314.06,1846.28c-15.42,0-27.96-12.55-27.96-27.96s12.54-27.97,27.96-27.97,27.96,12.55,27.96,27.97-12.54,27.96-27.96,27.96Zm0-39.83c-6.54,0-11.86,5.32-11.86,11.86s5.32,11.86,11.86,11.86,11.86-5.32,11.86-11.86-5.32-11.86-11.86-11.86Z"/><path class="cls-15" d="M1355.11,1856.02h-150.41c-20.54,0-37.26-16.71-37.26-37.26s16.72-37.26,37.26-37.26h150.41c20.54,0,37.26,16.72,37.26,37.26s-16.71,37.26-37.26,37.26Zm-150.41-58.41c-11.66,0-21.16,9.49-21.16,21.16s9.49,21.15,21.16,21.15h150.41c11.66,0,21.15-9.49,21.15-21.15s-9.49-21.16-21.15-21.16h-150.41Z"/><path class="cls-41" d="M302.18,1826.82H138.53c-4.45,0-8.05-3.6-8.05-8.05s3.6-8.05,8.05-8.05h163.65c4.45,0,8.05,3.6,8.05,8.05s-3.6,8.05-8.05,8.05Z"/><path class="cls-32" d="M138.53,1826.82H8.05c-4.45,0-8.05-3.6-8.05-8.05s3.6-8.05,8.05-8.05H138.53c4.45,0,8.05,3.6,8.05,8.05s-3.6,8.05-8.05,8.05Z"/><path class="cls-31" d="M1737.04,2449.32c-2.06,0-4.12-.79-5.69-2.36-3.14-3.14-3.14-8.24,0-11.38l225.07-225.07c3.14-3.14,8.24-3.14,11.38,0,3.14,3.14,3.14,8.24,0,11.38l-225.07,225.07c-1.57,1.57-3.63,2.36-5.69,2.36Z"/><path class="cls-15" d="M3442.08,2909.36c-2.06,0-4.12-.79-5.69-2.36l-454.24-454.24c-3.14-3.14-3.14-8.24,0-11.38,3.14-3.14,8.24-3.14,11.38,0l454.24,454.24c3.14,3.14,3.14,8.24,0,11.38-1.57,1.57-3.63,2.36-5.69,2.36Z"/><path class="cls-32" d="M3896.32,3363.6c-2.06,0-4.12-.79-5.69-2.36l-454.24-454.24c-3.14-3.14-3.14-8.24,0-11.38,3.14-3.14,8.24-3.14,11.38,0l454.24,454.24c3.14,3.14,3.14,8.24,0,11.38-1.57,1.57-3.63,2.36-5.69,2.36Z"/><path class="cls-32" d="M3601.56,1826.82h-588.58c-4.44,0-8.05-3.6-8.05-8.05s3.61-8.05,8.05-8.05h588.58c4.44,0,8.05,3.6,8.05,8.05s-3.61,8.05-8.05,8.05Z"/><path class="cls-42" d="M3490.84,1826.82h-294.87c-4.44,0-8.05-3.6-8.05-8.05s3.61-8.05,8.05-8.05h294.87c4.44,0,8.05,3.6,8.05,8.05s-3.61,8.05-8.05,8.05Z"/><path class="cls-32" d="M3668.37,517.98c-2.06,0-4.12-.79-5.69-2.36-3.14-3.14-3.14-8.24,0-11.38l173.89-173.89c3.14-3.14,8.24-3.14,11.38,0,3.14,3.14,3.14,8.24,0,11.38l-173.89,173.89c-1.57,1.57-3.63,2.36-5.69,2.36Z"/><rect class="cls-29" x="2338.41" y="2092.77" width="45.37" height="14.6" rx="7.3" ry="7.3"/><g><path class="cls-22" d="M3782.03,864.28l.71,234.49,.29,.29,165.51-166.52c-46.06-45.78-106.33-68.51-166.52-68.26Z"/><path class="cls-22" d="M3782.03,864.28l.71,234.49,.29,.29,165.51-166.52c-46.06-45.78-106.33-68.51-166.52-68.26Z"/></g><circle class="cls-19" cx="2361" cy="2100.07" r="7.3"/><path class="cls-10" d="M3782.06,1342.75c-61.94,0-123.88-23.48-171.18-70.49-46-45.73-71.45-106.63-71.65-171.49-.19-64.86,24.88-125.92,70.61-171.93,11.6-11.68,24.38-22.18,37.99-31.23,3.7-2.45,8.7-1.46,11.16,2.25,2.46,3.7,1.46,8.7-2.25,11.16-12.7,8.45-24.64,18.26-35.49,29.17-42.69,42.95-66.11,99.96-65.92,160.53,.18,60.56,23.94,117.43,66.9,160.12,88.67,88.14,232.52,87.69,320.66-.97,88.13-88.67,87.69-232.51-.98-320.65-56.66-56.32-136.85-78.48-214.49-59.27-4.32,1.07-8.68-1.56-9.75-5.88-1.07-4.32,1.57-8.68,5.88-9.75,83.14-20.57,169.03,3.16,229.71,63.48,94.97,94.39,95.44,248.45,1.04,343.42-47.38,47.67-109.81,71.53-172.24,71.53Z"/><path class="cls-15" d="M2193.57,3415.96c-.28,0-.56-.01-.83-.04-302.49-31.09-588.56-147.69-827.29-337.19-3.48-2.76-4.06-7.83-1.3-11.31,2.76-3.49,7.83-4.06,11.31-1.3,236.31,187.59,519.49,303.01,818.92,333.79,4.42,.46,7.64,4.41,7.19,8.83-.42,4.14-3.92,7.23-8,7.23Z"/><path class="cls-10" d="M3139.91,685.42l-193.39-118.13,77.4-126.69c14.06-23.01,19.28-49.98,14.71-75.93-8.47-48.07,1.41-97.21,27.82-138.38,57.14-89.08,172.89-115.96,263.5-61.2,72.06,43.54,107.69,127.86,88.69,209.81-1.31,5.64-2.87,11.25-4.66,16.67l-45.94,164.3-42.12-25.73c-3.79-2.32-4.99-7.28-2.67-11.07,2.32-3.8,7.28-4.98,11.07-2.68l23.95,14.63,40.31-144.14c1.74-5.31,3.18-10.45,4.38-15.62,17.43-75.15-15.26-152.47-81.33-192.4-83.11-50.21-189.23-25.57-241.62,56.12-24.22,37.75-33.28,82.82-25.52,126.89,5.25,29.82-.72,60.75-16.83,87.12l-69,112.95,165.9,101.34,30.18-49.4c7.82-12.81,24.3-17.31,37.56-10.23l52.09,27.8c3.93,2.09,5.41,6.97,3.31,10.89-2.09,3.93-6.97,5.41-10.89,3.31l-52.1-27.8c-5.72-3.06-12.85-1.11-16.23,4.42l-38.57,63.14Z"/><path class="cls-10" d="M2236.41,471.3l42.84-67.57,102.02-1.42,44.69,66.35-189.55,2.63Zm51.77-51.59l-22.24,35.08,130.04-1.81-23.2-34.44-84.6,1.17Z"/><path class="cls-10" d="M2070.72,422.73c-13.22,0-24.06-10.66-24.25-23.93l-4.78-344.14c-.19-13.38,10.55-24.41,23.92-24.6l512.37-7.11c6.45,.09,12.61,2.35,17.26,6.87,4.65,4.52,7.25,10.58,7.34,17.06l.41,81.37c.02,4.44-3.56,8.07-8.01,8.09h-.04c-4.43,0-8.03-3.58-8.05-8.01l-.41-81.3c-.03-2.11-.91-4.15-2.47-5.67-1.56-1.52-3.68-2.51-5.8-2.31l-512.37,7.11c-4.5,.06-8.11,3.78-8.05,8.28l4.78,344.14c.06,4.46,3.71,8.05,8.16,8.05,.04,0,.08,0,.12,0l455.65-6.32c4.65,.1,8.1,3.49,8.16,7.94,.06,4.45-3.49,8.1-7.94,8.16l-455.64,6.32c-.12,0-.23,0-.35,0Z"/><circle class="cls-10" cx="2331.99" cy="356.32" r="16.68"/><path class="cls-22" d="M2542,416.68c-5.5,0-10.69-2.1-14.64-5.95-4.03-3.92-6.29-9.16-6.37-14.78l-2.84-205.03c-.08-5.62,2.03-10.92,5.95-14.95,3.92-4.03,9.16-6.29,14.78-6.37l93.3-1.29h.29c11.46,0,20.86,9.24,21.02,20.73l2.85,205.03c.16,11.59-9.14,21.15-20.73,21.31l-93.31,1.29h-.3Zm90.47-232.27h-.07l-93.3,1.29c-1.31,.02-2.54,.55-3.46,1.49-.91,.94-1.41,2.19-1.39,3.5l2.84,205.03c.02,1.32,.55,2.54,1.49,3.46,.94,.92,2.08,1.39,3.5,1.39l93.31-1.29c2.71-.04,4.89-2.27,4.85-4.99l-2.85-205.03c-.02-1.32-.55-2.54-1.49-3.46-.92-.9-2.14-1.39-3.43-1.39Z"/><path class="cls-22" d="M2576.22,215.15c-2.94,0-5.34-2.37-5.37-5.32-.03-2.96,2.35-5.39,5.31-5.42l22.4-.21h.05c2.94,0,5.34,2.37,5.37,5.32,.03,2.96-2.35,5.39-5.31,5.42l-22.4,.21h-.05Z"/><g><path class="cls-22" d="M3228.87,264.7c2.37,1.45,4.49,3.15,6.34,5.06l74.79-122.43c2.32-3.79,1.12-8.75-2.67-11.07-3.79-2.31-8.75-1.12-11.07,2.68l-74.79,122.43c2.54,.78,5.03,1.89,7.4,3.34h0Z"/><path class="cls-22" d="M3324.9,592.8l-146.67-89.6c-16.66-10.17-28.35-26.22-32.93-45.19-2.77-11.48-2.72-23.19,0-34.35-3.77-.7-7.48-2.08-10.95-4.2h0c-1.37-.84-2.66-1.77-3.86-2.77-4.12,14.55-4.48,29.99-.83,45.1,5.59,23.15,19.87,42.74,40.19,55.15l146.67,89.6c1.31,.8,2.76,1.18,4.19,1.18,2.71,0,5.36-1.37,6.88-3.85,2.32-3.79,1.12-8.75-2.67-11.07Z"/><path class="cls-22" d="M3235.21,269.76c-1.85-1.9-3.97-3.61-6.34-5.06-2.37-1.45-4.86-2.56-7.4-3.34-13.8-4.24-29.24,1.2-37.12,14.09l-60.77,99.49c-8.48,13.89-5.26,31.64,6.89,41.75,1.2,1,2.49,1.93,3.86,2.77h0c3.47,2.12,7.18,3.5,10.95,4.2,12.82,2.38,26.36-3.16,33.56-14.96l60.77-99.49c7.87-12.89,5.66-29.11-4.41-39.46Z"/></g><path class="cls-22" d="M3855.68,1825.4c11.97-.07,21.62-9.84,21.55-21.81-.07-11.97-9.84-21.62-21.81-21.55-8.7,.05-16.15,5.23-19.56,12.65l-38.35,.23,.11,18.31,38.35-.23c3.5,7.37,11.01,12.46,19.71,12.41Z"/><circle class="cls-22" cx="3331.72" cy="606.4" r="25.72"/><path class="cls-10" d="M4026.68,1902.12c-4.42,0-8.02-3.57-8.05-8-.03-4.44,3.55-8.07,8-8.1l98.43-.59c22.76-.14,44.1-9.13,60.09-25.32,15.99-16.19,24.72-37.64,24.59-60.4-.14-22.76-9.13-44.1-25.32-60.09-16.19-16-37.84-24.66-60.39-24.59l-98.43,.59h-.05c-4.42,0-8.02-3.57-8.05-8-.03-4.44,3.55-8.07,8-8.1l98.43-.59c.2,0,.41,0,.62,0,55.58,0,100.95,45.04,101.29,100.69,.16,27.06-10.22,52.56-29.24,71.81-19.02,19.25-44.39,29.94-71.45,30.1l-98.43,.59h-.05Z"/><path class="cls-10" d="M3735.84,1974.39l-2.04-339.95,299.35-1.8,2.04,339.95-299.35,1.8Zm14.15-323.95l1.86,307.75,267.15-1.61-1.86-307.75-267.15,1.61Z"/><circle class="cls-32" cx="980.35" cy="2613.37" r="31.16"/><path class="cls-10" d="M980.58,2620.41c-.81,0-1.64-.12-2.45-.38l-122.48-39.06c-4.24-1.35-6.58-5.88-5.23-10.12,1.35-4.24,5.88-6.58,10.12-5.23l122.48,39.06c4.24,1.35,6.58,5.88,5.23,10.12-1.09,3.42-4.26,5.61-7.67,5.61Z"/><path class="cls-10" d="M1569.32,646.46l-.61-.05c-49.41-3.75-95.21-30.67-122.52-72.01l-66.64-100.9c-2.45-3.71-1.43-8.7,2.28-11.15s8.71-1.43,11.15,2.28l66.64,100.9c24.48,37.05,65.45,61.24,109.71,64.79l140.23-10.62,64.81-124.81c14.12-42.09,7.95-89.28-16.53-126.33l-130.34-197.34-178.41,54.12-119.81,142.85,10.32,15.63c2.45,3.71,1.43,8.7-2.28,11.15-3.7,2.46-8.71,1.43-11.15-2.28l-16.94-25.65,130.6-155.72,194.48-59,136.96,207.36c27.31,41.35,34.1,94.04,18.14,140.96l-.48,1.12-69.22,133.31-150.39,11.39Z"/><g><g><path class="cls-9" d="M675.95,1286.26c-5.63-1.82-8.69-7.89-6.87-13.53h0c1.88-5.63,7.94-8.7,13.58-6.87h0c5.58,1.88,8.7,7.94,6.82,13.53v.05c-1.45,4.51-5.69,7.35-10.2,7.35h0c-1.07,0-2.2-.16-3.33-.54Zm22.81-66.5c-5.53-2.04-8.37-8.27-6.28-13.79h0c2.04-5.53,8.27-8.37,13.8-6.28h0c5.58,2.04,8.37,8.21,6.33,13.79h0c-1.61,4.29-5.74,6.98-10.09,6.98h0c-1.23,0-2.52-.21-3.76-.7Zm25.49-65.53c-5.47-2.25-8.05-8.53-5.74-14.01h0c2.31-5.47,8.59-8.05,14.06-5.8h0c5.47,2.31,8.05,8.59,5.74,14.06h0c-1.72,4.13-5.69,6.6-9.93,6.6h0c-1.34,0-2.79-.27-4.13-.86Zm28.07-64.46c-5.37-2.47-7.67-8.86-5.15-14.23h0c2.47-5.37,8.91-7.73,14.28-5.2h0c5.37,2.52,7.68,8.91,5.15,14.28h0c-1.82,3.92-5.69,6.17-9.72,6.17h0c-1.56,0-3.06-.32-4.56-1.02Zm30.65-63.28c-5.26-2.68-7.3-9.18-4.62-14.44h0c2.74-5.26,9.23-7.35,14.49-4.62h0c5.26,2.74,7.3,9.18,4.62,14.49h0c-1.93,3.65-5.69,5.8-9.55,5.8h0c-1.66,0-3.38-.38-4.94-1.23Zm33.17-61.99c-5.15-2.9-6.98-9.45-4.03-14.6h0c2.9-5.15,9.45-6.98,14.6-4.03h0c5.15,2.9,6.98,9.45,4.03,14.6h0c-1.99,3.49-5.58,5.42-9.34,5.42h0c-1.77,0-3.6-.43-5.26-1.4Zm35.58-60.6c-5.04-3.17-6.6-9.77-3.49-14.81h0c3.17-5.04,9.77-6.55,14.82-3.44h0c5.04,3.11,6.6,9.77,3.43,14.76h0c-2.04,3.28-5.53,5.1-9.12,5.1h0c-1.93,0-3.92-.54-5.64-1.61Zm37.95-59.2c-4.89-3.33-6.17-9.98-2.85-14.92h0c3.33-4.89,9.99-6.17,14.92-2.85h0c4.88,3.33,6.17,10.04,2.84,14.92h0c-2.09,3.06-5.47,4.72-8.91,4.72h0c-2.09,0-4.19-.64-6.01-1.88Zm40.31-57.59c-4.78-3.54-5.8-10.25-2.31-15.03h0c3.54-4.78,10.25-5.8,15.03-2.26h0c4.78,3.54,5.8,10.25,2.25,15.03h0c-2.09,2.84-5.31,4.35-8.64,4.35h0c-2.2,0-4.46-.7-6.33-2.09Zm42.51-55.98c-4.62-3.7-5.37-10.46-1.66-15.08h0c3.71-4.62,10.47-5.37,15.08-1.66h0c4.62,3.7,5.37,10.46,1.66,15.08h0c-2.09,2.63-5.2,4.03-8.37,4.03h0c-2.36,0-4.72-.75-6.71-2.36Zm44.71-54.26c-4.46-3.86-4.94-10.63-1.02-15.13h0c3.87-4.46,10.63-4.94,15.13-1.02h0c4.46,3.86,4.94,10.63,1.07,15.13h0c-2.15,2.42-5.15,3.7-8.1,3.7h0c-2.52,0-5.05-.91-7.09-2.68Zm46.86-52.38c-4.29-4.08-4.51-10.84-.48-15.19h0c4.08-4.3,10.89-4.51,15.19-.48h0c4.35,4.08,4.51,10.9,.48,15.19h0c-2.15,2.25-4.99,3.38-7.84,3.38h0c-2.63,0-5.26-.97-7.35-2.9Z"/><path class="cls-9" d="M1120.58,577.19c-2.85,0-5.64-1.18-7.62-3.17-1.99-1.98-3.11-4.78-3.11-7.57,0-.7,.05-1.4,.21-2.09,.11-.7,.32-1.39,.59-2.04,.27-.64,.59-1.23,.97-1.83,.43-.59,.86-1.18,1.34-1.66,.48-.48,1.07-.91,1.66-1.34,.54-.38,1.18-.7,1.83-.97,.64-.27,1.34-.48,2.04-.59,3.44-.7,7.19,.43,9.66,2.9,.48,.48,.97,1.07,1.34,1.66,.38,.59,.7,1.18,.97,1.83s.48,1.34,.64,2.04c.11,.7,.21,1.39,.21,2.09,0,2.79-1.18,5.58-3.17,7.57-1.98,1.99-4.78,3.17-7.57,3.17Z"/></g><path class="cls-16" d="M1120.58,577.19c-2.85,0-5.64-1.18-7.62-3.17-1.99-1.98-3.11-4.78-3.11-7.57,0-.7,.05-1.4,.21-2.09,.11-.7,.32-1.39,.59-2.04,.27-.64,.59-1.23,.97-1.83,.43-.59,.86-1.18,1.34-1.66,.48-.48,1.07-.91,1.66-1.34,.54-.38,1.18-.7,1.83-.97,.64-.27,1.34-.48,2.04-.59,3.44-.7,7.19,.43,9.66,2.9,.48,.48,.97,1.07,1.34,1.66,.38,.59,.7,1.18,.97,1.83s.48,1.34,.64,2.04c.11,.7,.21,1.39,.21,2.09,0,2.79-1.18,5.58-3.17,7.57-1.98,1.99-4.78,3.17-7.57,3.17Z"/></g><path class="cls-15" d="M1105.89,3080.47c-2.07,0-4.13-.79-5.71-2.37-80.46-80.87-153.42-169.84-216.85-264.44-2.48-3.69-1.49-8.7,2.2-11.17,3.69-2.48,8.7-1.49,11.17,2.2,62.86,93.75,135.17,181.91,214.9,262.05,3.13,3.15,3.12,8.25-.03,11.39-1.57,1.56-3.62,2.34-5.68,2.34Z"/><g><path class="cls-10" d="M901.11,2474.32c-.7,0-1.4-.06-2.09-.21-.7-.11-1.34-.32-1.99-.59-.64-.27-1.29-.59-1.88-1.02-.59-.37-1.13-.8-1.61-1.29-.54-.54-.96-1.07-1.34-1.66-.37-.59-.7-1.18-.96-1.82-.32-.64-.48-1.34-.64-2.04-.16-.7-.21-1.39-.21-2.09s.05-1.4,.21-2.09c.16-.7,.32-1.34,.64-1.99,.27-.64,.59-1.29,.96-1.88,.38-.59,.8-1.13,1.34-1.61,.48-.48,1.02-.97,1.61-1.34,.59-.37,1.23-.7,1.88-.97,.64-.27,1.29-.48,1.99-.64,1.4-.27,2.79-.27,4.19,0,.7,.16,1.39,.37,2.04,.64,.64,.27,1.23,.59,1.82,.97,.59,.37,1.13,.86,1.66,1.34,.48,.48,.91,1.02,1.29,1.61,.43,.59,.75,1.24,1.02,1.88,.27,.64,.48,1.29,.59,1.99,.16,.7,.21,1.4,.21,2.09s-.06,1.39-.21,2.09c-.11,.7-.32,1.4-.59,2.04-.27,.64-.59,1.23-1.02,1.82-.38,.59-.81,1.13-1.29,1.66-.54,.48-1.07,.91-1.66,1.29-.59,.43-1.18,.75-1.82,1.02-.64,.27-1.34,.48-2.04,.59-.7,.16-1.4,.21-2.09,.21Z"/><path class="cls-10" d="M862.73,2398.16h0c-2.15-5.53,.64-11.7,6.17-13.85h0c5.53-2.09,11.75,.64,13.85,6.22h0c2.15,5.53-.64,11.7-6.17,13.85h0c-1.29,.48-2.58,.7-3.87,.7h0c-4.29,0-8.37-2.63-9.98-6.92Zm-25.23-70.96h-.05c-1.83-5.63,1.23-11.7,6.87-13.58h0c5.64-1.83,11.7,1.23,13.53,6.87h0c1.88,5.63-1.18,11.7-6.82,13.53h0c-1.13,.37-2.25,.54-3.38,.54h0c-4.51,0-8.7-2.85-10.14-7.35Zm-21.84-72.14c-1.61-5.69,1.77-11.59,7.46-13.2h0c5.69-1.56,11.65,1.77,13.2,7.51h0c1.61,5.69-1.77,11.59-7.46,13.2h0c-.97,.27-1.93,.38-2.9,.38h0c-4.67,0-9.02-3.11-10.3-7.89Zm-18.41-73.05h0c-1.34-5.8,2.31-11.54,8.11-12.83h0c5.79-1.29,11.54,2.31,12.83,8.1h0c1.29,5.8-2.31,11.54-8.1,12.83h0c-.8,.21-1.61,.27-2.36,.27h0c-4.94,0-9.34-3.38-10.47-8.37Zm-14.92-73.86c-1.02-5.8,2.84-11.38,8.69-12.4h0c5.85-1.07,11.43,2.85,12.45,8.7h0c1.02,5.8-2.85,11.38-8.7,12.4h0c-.64,.16-1.29,.21-1.88,.21h0c-5.1,0-9.66-3.7-10.57-8.91Zm-11.38-74.45c-.8-5.85,3.38-11.27,9.23-12.02h0c5.9-.75,11.27,3.38,12.02,9.29h0c.75,5.85-3.38,11.27-9.29,12.02h0c-.43,.06-.91,.06-1.34,.06h0c-5.31,0-9.93-3.92-10.63-9.34Zm-7.89-74.93v.06h0c-.53-5.96,3.87-11.11,9.82-11.59h0c5.9-.48,11.06,3.92,11.54,9.82h0c.48,5.9-3.92,11.11-9.82,11.59h-.86c-5.53,0-10.25-4.24-10.68-9.88Z"/></g><path class="cls-10" d="M988.32,2836.39c-74.83,0-147.66-37.43-190.53-105.36-66.36-105.13-34.82-244.66,70.31-311.02,50.93-32.15,111.33-42.54,170.07-29.26,58.74,13.28,108.8,48.64,140.95,99.57,50.5,80.01,45.47,183.95-12.52,258.66-2.73,3.51-7.78,4.15-11.3,1.42-3.51-2.73-4.15-7.79-1.42-11.3,53.85-69.37,58.52-165.89,11.62-240.18-29.85-47.29-76.33-80.13-130.88-92.46-54.54-12.33-110.63-2.68-157.92,27.17-97.63,61.62-126.92,191.18-65.29,288.81,60.1,95.23,183.62,125.92,281.2,69.88,3.85-2.21,8.78-.89,10.99,2.97,2.21,3.86,.88,8.78-2.97,10.99-35.48,20.38-74.15,30.11-112.3,30.11Z"/><path class="cls-22" d="M1539.38,512.71l34.48-168.62-88.96,58.75c-3.71,2.46-8.71,1.43-11.15-2.28-2.45-3.71-1.43-8.7,2.28-11.15l121.4-80.18-34.48,168.62,87.81-58c3.71-2.45,8.7-1.44,11.16,2.28,2.45,3.71,1.43,8.7-2.28,11.15l-120.25,79.43Z"/><path class="cls-10" d="M1370.45,3080.47c-1.75,0-3.52-.57-5-1.75-101.02-80.19-192.28-172.54-271.26-274.5-2.72-3.51-2.08-8.57,1.44-11.3,3.51-2.72,8.57-2.08,11.3,1.44,78.18,100.94,168.53,192.36,268.54,271.75,3.48,2.76,4.06,7.83,1.3,11.31-1.59,2-3.94,3.05-6.31,3.05Z"/><g><path class="cls-10" d="M3404.05,640.47c-2.85,0-5.58-1.13-7.62-3.11-.48-.48-.91-1.02-1.34-1.61-.38-.59-.7-1.23-.97-1.88-.27-.64-.48-1.34-.59-1.99-.16-.7-.21-1.4-.21-2.15,0-.7,.05-1.4,.21-2.09,.1-.64,.32-1.34,.59-1.99,.27-.64,.59-1.29,.97-1.88,.43-.53,.86-1.13,1.34-1.61,.53-.48,1.07-.97,1.66-1.34,.59-.37,1.18-.7,1.82-.97,.64-.27,1.34-.48,2.04-.64,1.39-.27,2.79-.27,4.18,0,.7,.16,1.34,.37,1.99,.64,.64,.27,1.29,.59,1.88,.97,.59,.37,1.13,.86,1.61,1.34,1.99,1.99,3.17,4.78,3.17,7.57,0,.75-.11,1.45-.21,2.15-.16,.64-.38,1.34-.64,1.99-.27,.64-.59,1.29-.96,1.88-.38,.59-.86,1.13-1.34,1.61-1.99,1.99-4.78,3.11-7.57,3.11Z"/><path class="cls-10" d="M3601.4,853.6c-3.65-4.67-2.84-11.38,1.83-15.08h0c4.66-3.65,11.43-2.85,15.08,1.82h0c3.65,4.67,2.85,11.43-1.82,15.08h0c-1.99,1.56-4.29,2.31-6.6,2.31h0c-3.22,0-6.33-1.45-8.48-4.13Zm-47.23-57.48c-3.92-4.46-3.38-11.27,1.07-15.14h0c4.51-3.86,11.27-3.38,15.19,1.13h0c3.86,4.51,3.33,11.27-1.13,15.14h0c-2.04,1.77-4.57,2.63-7.03,2.63h0c-3,0-6.01-1.29-8.1-3.76Zm-49.91-55.18c-4.08-4.29-3.92-11.11,.38-15.19h0c4.35-4.08,11.11-3.92,15.19,.43h0c4.08,4.3,3.92,11.06-.38,15.14h0c-2.09,1.98-4.78,2.95-7.41,2.95h0c-2.85,0-5.69-1.13-7.78-3.33Zm-52.44-52.81c-4.29-4.08-4.4-10.9-.32-15.19h0c4.14-4.24,10.95-4.4,15.19-.27h0c4.29,4.08,4.4,10.89,.32,15.19h0c-2.09,2.15-4.94,3.28-7.73,3.28h0c-2.68,0-5.37-1.02-7.46-3.01Z"/><path class="cls-10" d="M3654.7,917.8c-.7,0-1.4-.11-2.1-.21-.7-.16-1.34-.38-2.04-.64-.64-.27-1.23-.59-1.82-.97-.59-.37-1.13-.86-1.61-1.34-2.04-1.98-3.17-4.78-3.17-7.57,0-.7,.05-1.4,.21-2.09,.16-.7,.32-1.39,.59-2.04s.64-1.29,1.02-1.83c.38-.59,.8-1.18,1.34-1.66,3.97-3.97,11.16-3.97,15.14,0,.53,.48,.96,1.07,1.34,1.66,.37,.54,.75,1.18,1.02,1.83s.48,1.34,.59,2.04c.16,.7,.21,1.4,.21,2.09,0,2.79-1.13,5.58-3.17,7.57-1.99,1.99-4.73,3.17-7.57,3.17Z"/></g><path class="cls-31" d="M1887.17,1354.44c-2.06,0-4.12-.79-5.69-2.36l-154.33-154.33c-3.14-3.14-3.14-8.24,0-11.38,3.14-3.14,8.24-3.14,11.38,0l154.33,154.33c3.14,3.14,3.14,8.24,0,11.38-1.57,1.57-3.63,2.36-5.69,2.36Z"/><path class="cls-32" d="M1732.84,1200.12c-2.06,0-4.12-.79-5.69-2.36l-495.33-495.33c-3.14-3.14-3.14-8.24,0-11.38,3.14-3.14,8.24-3.14,11.38,0l495.33,495.33c3.14,3.14,3.14,8.24,0,11.38-1.57,1.57-3.63,2.36-5.69,2.36Z"/><path class="cls-15" d="M1237.51,704.78c-2.06,0-4.12-.79-5.69-2.36l-297.17-297.17c-3.14-3.14-3.14-8.24,0-11.38,3.14-3.14,8.24-3.14,11.38,0l297.17,297.17c3.14,3.14,3.14,8.24,0,11.38-1.57,1.57-3.63,2.36-5.69,2.36Z"/><g><path class="cls-28" d="M2404.07,3830.65s43.55,5.53,48.06-24.28c-7.27-68.29-18.16-131.92-18.16-131.92l-56.29,19.81,26.39,136.4Z"/><path class="cls-6" d="M2397.45,3764.28c9.31,25.94,28.1,35.58,36.25,30.36,5.48-3.51,16.91,.63,16.02-5.82l-22.2-161.22c-.1-.75-.16-1.51-.16-2.27v-9.24c0-5.35-.94-10.65-2.79-15.67h0c-1.97-5.34-2.75-11.05-2.31-16.72l11.85-151.64c.73-9.32-6.34-17.41-15.67-17.94l-45.1-2.56c-10.11-.57-18.39,7.92-17.56,18.01l31.27,378.08c.9,10.86,6.71-53.63,10.39-43.36Z"/><polygon class="cls-27" points="2397.45 3658.53 2403.23 3903.92 2358.2 3900.27 2397.45 3658.53"/><path class="cls-19" d="M2377.68,3692.24c17.09,60.54,24.19,106.08,47.67,88.24,7.93-6.03,12.44-15.57,12.44-25.53,.05-54.44-5.37-93.76-5.37-93.76l17.49,127.05c.94,6.81-1.25,13.68-5.94,18.71-6.21,6.65-16.29,13.53-29.57,9.51-17.29-5.23-36.73-124.22-36.73-124.22Z"/><path class="cls-21" d="M2294.13,3421.43c-11.57,7.31-17.5,20.94-14.95,34.39,9.18,48.4,30.22,159.64,31.66,169.72,1.5,10.53-42.81,180.74-56.36,242.49-3.17,14.44-4.15,24.71-16.6,32.69h0c-6.23,4.03-5.39,17.81,.96,21.65,14.32,8.66,38.39,19.92,60.92,15.17,14.83-3.12,26.37-5.92,34.74-8.1,10.52-2.74,19.04-10.42,22.85-20.6l48.79-130.64c1.68-4.49,2.37-9.29,2.02-14.07l-8.52-117.54c-.12-1.72-.12-3.45,.03-5.18l.05-.59c1.04-12.46-.99-24.98-5.92-36.48l-1.35-3.16c-1.47-3.43-2.36-7.09-2.61-10.82l-11.39-164.06c-1.75-25.16-29.72-39.34-51.04-25.88l-33.26,21Z"/><polygon class="cls-19" points="2419.94 3884.33 2403.23 3903.92 2397.45 3776.73 2408.89 3752.76 2419.94 3884.33"/><path class="cls-19" d="M2216.55,3895.96c17.05-38.57,47.82-70.45,47.82-70.45,0,0-26.51,75.2,56.55,35.1,53.9-26.02,81.85-104.99,81.85-104.99l-27.93,97.77-67.84,70.5-68.18-1.53-22.27-26.4Z"/><path class="cls-28" d="M2218.39,3933.9l-1.84-37.94s45.23,22.61,81.14,9.31c35.91-13.3,97.1-109.07,99.76-141s1.99-120.28,1.99-120.28c0,0,11.14,94.59,9.23,127.38-1.47,25.26-34.63,102.51-49.79,136.68-4.83,10.88-13.88,19.3-25.06,23.37-15.61,5.67-38.22,12.95-53.42,13.75-25.27,1.33-62.01-11.28-62.01-11.28Z"/></g><g class="cls-44"><rect class="cls-43" x="3700.44" y="2617.01" width="343.05" height="171.21" transform="translate(-497.66 4492.22) rotate(-57.19)"/></g><path class="cls-10" d="M3558.18,2784.83c-1.5,0-3.01-.41-4.36-1.28l-102.91-66.35,64.95-100.73c2.42-3.74,7.41-4.81,11.13-2.4,3.74,2.41,4.82,7.39,2.41,11.13l-56.23,87.2,89.37,57.63c3.74,2.41,4.82,7.39,2.41,11.13-1.54,2.39-4.13,3.69-6.77,3.69Z"/><path class="cls-10" d="M3647.62,2435.02c-1.5,0-3.01-.41-4.36-1.28-3.74-2.41-4.82-7.39-2.41-11.13l70.76-109.74,131.98,85.1c3.74,2.41,4.82,7.39,2.41,11.13-2.42,3.75-7.41,4.81-11.13,2.4l-118.44-76.37-62.03,96.21c-1.54,2.39-4.13,3.69-6.77,3.69Z"/><path class="cls-10" d="M3855.25,2977.9l-100.34-64.7c-3.74-2.41-4.82-7.39-2.41-11.13,2.42-3.74,7.41-4.81,11.13-2.4l86.81,55.97,56.23-87.2c2.42-3.74,7.41-4.81,11.13-2.4,3.74,2.41,4.82,7.39,2.41,11.13l-64.95,100.73Z"/><path class="cls-10" d="M4038.42,2687c-1.5,0-3.01-.41-4.36-1.28-3.74-2.41-4.82-7.39-2.41-11.13l62.04-96.21-86.81-55.98c-3.74-2.41-4.82-7.39-2.41-11.13,2.42-3.74,7.41-4.8,11.13-2.4l100.34,64.7-70.76,109.74c-1.54,2.39-4.13,3.69-6.77,3.69Z"/><path class="cls-10" d="M843.33,2159.16c-70.65,0-130.9-53.28-140.06-122.76-94.09-16.5-164.71-99.56-165.3-195.76-.31-50.1,18.01-98.14,51.58-135.28,14.13-15.64,30.54-28.89,48.77-39.38,3.85-2.22,8.77-.89,10.99,2.96,2.22,3.86,.89,8.78-2.96,10.99-16.76,9.65-31.85,21.84-44.86,36.23-30.86,34.15-47.7,78.32-47.42,124.39,.55,90.38,68.34,168.15,157.68,180.9l6.33,.9,.55,6.37c5.55,64.51,60.66,114.83,125.47,114.33,33.44-.2,64.81-13.42,88.31-37.21,23.5-23.79,36.33-55.32,36.13-88.76l-2.45-399.07c-.06-10.6-1.45-21.12-4.13-31.27-.53-2-1.11-3.98-1.72-5.94-2.46-7.72-5.69-15.25-9.62-22.38-.97-1.77-1.99-3.51-3.05-5.22-23.03-37.39-62.86-59.64-106.66-59.64-.27,0-.53,0-.79,0-2.17,.01-4.32,.08-6.45,.2-4.22,.24-8.47,.7-12.62,1.36-2.07,.33-4.12,.71-6.16,1.14-18.08,3.82-34.74,11.43-49.53,22.63-1.6,1.21-3.17,2.46-4.71,3.75-10.83,9.05-20,19.77-27.25,31.87-1.03,1.72-2.03,3.48-2.98,5.26-3.84,7.17-6.98,14.74-9.34,22.5-.6,1.97-1.15,3.95-1.65,5.95-2.56,10.18-3.82,20.72-3.75,31.32l.19,30.24c.03,4.45-3.55,8.07-8,8.1h-.05c-4.42,0-8.02-3.57-8.05-8l-.19-30.24c-.07-11.95,1.35-23.84,4.23-35.34,.57-2.26,1.19-4.5,1.87-6.72,2.67-8.76,6.21-17.31,10.55-25.41,1.07-2.01,2.2-3.98,3.36-5.93,8.18-13.65,18.52-25.74,30.74-35.95,1.74-1.45,3.51-2.86,5.31-4.23,16.69-12.64,35.51-21.24,55.93-25.55,2.3-.48,4.61-.91,6.95-1.29,4.69-.74,9.48-1.26,14.24-1.53,2.41-.14,4.83-.21,7.27-.23,.3,0,.6,0,.89,0,49.43,0,94.38,25.11,120.37,67.29,1.19,1.93,2.34,3.9,3.44,5.89,4.43,8.05,8.09,16.55,10.86,25.28,.7,2.21,1.35,4.44,1.94,6.7,3.02,11.46,4.59,23.33,4.66,35.29l2.45,399.07c.23,37.74-14.25,73.32-40.77,100.18-26.53,26.85-61.92,41.77-99.67,42-.29,0-.58,0-.86,0Z"/><g><path class="cls-22" d="M768.79,1837.83c-4.42,0-8.02-3.57-8.05-8-.03-4.45,3.56-8.07,8-8.1l253.42-1.55h.05c4.42,0,8.02,3.57,8.05,8,.03,4.45-3.56,8.07-8,8.1l-253.42,1.55h-.05Z"/><polygon class="cls-22" points="774.48 1892.83 710.06 1829.19 773.7 1767.39 774.07 1827.78 774.48 1892.83"/></g><path class="cls-39" d="M2479.25,902.31c-8.66-14.32-17.89-23.28-27.26-28.24l-6.21,8.68-82.77,34.01s-121.47,86.41-50.92,395.75h0c52.72,55.58,127.32,90.2,210,90.07,24.17-.04,47.66-3.08,70.11-8.75q-.74-28.38-.74-28.39l8.75,26.24c34.58-9.81,66.54-25.93,94.56-47.01-38.23-19.77-38.23-24.87-38.23-24.87,0,0,21.76,13.26,46.25,18.62,12.05-9.75,23.31-20.44,33.66-31.97-191.98-9.59-217.69-338.8-257.2-404.13Z"/><path class="cls-21" d="M2597.36,1423.17l-24.8-12.56c-43.38-21.97-71.78-65.38-74.53-113.93l-5.79-102.2h-127.08l-5.05,89.22c-3.13,55.28-39.39,103.18-91.74,121.21-1.11,.39-2.22,.77-3.34,1.15,46.73,42.26,108.68,68.01,176.65,68.01,58.24,0,112.06-18.91,155.68-50.91Z"/><path class="cls-6" d="M2430.89,1296.38c24.43,.82,50.5-16.42,65.16-47.23l-4.11-47.29h-127.08l-2.66,47.02c15.6,31.08,42.3,46.61,68.7,47.5h0Z"/><path class="cls-21" d="M2597.63,1085.42h0c-6.11-1.36-12.2-.84-17.66,1.19v-47.19c0-79.33-64.31-143.63-143.63-143.63h0c-79.32,0-143.63,64.31-143.63,143.63v41.24c-1.99-.5-4.07-.77-6.22-.77h0c-13.95,0-25.25,11.31-25.25,25.25v28.17c0,13.95,11.31,25.25,25.25,25.25h0c5.47,0,10.53-1.74,14.66-4.7,19.92,55.4,72.93,95.02,135.19,95.02h0c55.94,0,104.41-31.98,128.12-78.66,3.63,2.93,7.97,5.1,12.83,6.19h0c16.87,3.77,33.61-6.85,37.38-23.72l6.68-29.89c3.77-16.87-6.85-33.61-23.72-37.38Z"/><g><g><path class="cls-21" d="M2364.57,916.14c5.71-3.42,11.68-6.47,17.87-9.08-6.26,1.95-12.26,5.14-17.87,9.08Z"/><path class="cls-21" d="M2566.42,1170.22c3.63,2.93,7.97,5.1,12.83,6.19h0c16.87,3.77,33.61-6.85,37.38-23.72l6.68-29.89c3.77-16.87-6.85-33.61-23.72-37.38h0c-6.11-1.36-12.2-.84-17.66,1.19v-47.19c0-79.33-64.31-143.63-143.63-143.63h0c-19.81,0-38.69,4.01-55.86,11.27,18.38-5.72,35.25,2.53,59.52,26.83,46.29,46.33,54.09,122.29,99.88,231.24,0,0-29.39,83.76-103.55,83.76,55.94,0,104.41-31.98,128.12-78.66Z"/></g><path class="cls-6" d="M2566.42,1170.22c3.63,2.93,7.97,5.1,12.83,6.19h0c16.87,3.77,33.61-6.85,37.38-23.72l6.68-29.89c3.77-16.87-6.85-33.61-23.72-37.38h0c-6.11-1.36-12.2-.84-17.66,1.19v-47.19c0-79.33-64.31-143.63-143.63-143.63h0c-19.81,0-38.69,4.01-55.86,11.27,18.38-5.72,35.25,2.53,59.52,26.83,46.29,46.33,54.09,122.29,99.88,231.24,0,0-29.39,83.76-103.55,83.76,55.94,0,104.41-31.98,128.12-78.66Z"/></g><path class="cls-35" d="M2740.87,1165.33l-12.54-34.2,1.13-.45c.06,.14,5.98,13.98,12.56,34.25l-1.15,.4Z"/><g><path class="cls-39" d="M2318.43,980.21l6.74-15.42c23.04-6.54,46.9-17.43,70.97-19.42,2.19-.18,4.08,1.53,4.17,3.72l.53,13.33c.09,2.14-1.57,3.93-3.7,4.04-22.46,1.18-57.23,7.65-78.71,13.75Z"/><path class="cls-39" d="M2563.81,989.92l-6.74-15.42c-23.04-6.54-46.9-17.43-70.97-19.42-2.19-.18-4.08,1.53-4.17,3.72l-.53,13.33c-.09,2.14,1.57,3.93,3.7,4.04,22.46,1.18,57.23,7.65,78.71,13.75Z"/></g><path class="cls-36" d="M2363.02,916.75l41.01-24.8,47.97-17.89c-30.67-16.26-62.81,10.33-81.18,32.14-1.7,2.02-4.96,.33-4.29-2.23,0,0,3.71-14.08,3.71-14.08-7.02,.55-13.83,1.84-20.36,3.79-17.46,5.21-32.89,15.61-44.94,29.28-44.85,50.88-72.06,117.69-72.06,190.85,0,76.98,30.13,146.92,79.23,198.68h0c-70.55-309.34,50.92-395.75,50.92-395.75Z"/><g><path class="cls-39" d="M2504.91,1041.53c16.6,5.67,33.37,8.63,50.79,6.83,5.72-.5,11.42-1.55,17.44-2.67-19.38,15.39-50.86,13.45-68.23-4.16h0Z"/><path class="cls-39" d="M2404.03,1018.02c-19.39,15.36-50.87,13.48-68.23-4.16,5.84,1.85,11.38,3.56,16.99,4.77,17.07,3.91,34.08,2.97,51.24-.61h0Z"/></g><path class="cls-23" d="M2363.02,916.75s52.66-42.69,149.58,0c83.73-47.71,13.8-47.71,13.8-47.71l-89.35-20.31-55.36,34.01-18.66,34.01Z"/><path class="cls-24" d="M2759.06,1249.99c-2.3-29.91-10.66-61.01-18.05-83.76l-12.54-34.2s5.88,13.72,12.54,34.2l10.77,29.37s5.83-56.33-21.85-104.41c0,0-7.28-8.74,67.02,80.13,0,0-14.57-50.99-84.5-155.89-202.5-260.78-313.87-158.57-313.87-158.57-.3,.25-.61,.5-.93,.74-11.58,8.88-21.13,20.28-27.83,33.38l-6.79,25.76c20.17-28.06,74.48-81.65,115.8-13.34,39.51,65.33,65.22,394.54,257.2,404.13,9.06-10.09,17.42-20.81,25-32.1l-1.96-25.45Z"/><path class="cls-17" d="M2467.4,1153.22c-15.92,25.14-59.84,23.01-73.17-3.63,24.9,7.54,47.66,8.75,73.17,3.63h0Z"/><path class="cls-22" d="M2936.54,1886.68l-243.22-407.12c-4.36-7.3-10.7-13.21-18.29-17.05l-77.68-39.33c-43.62,32-97.44,50.91-155.68,50.91-67.97,0-129.92-25.75-176.65-68.01-181.47,61.77-413.65,17.64-413.65,17.64l-245.36-9.78c1.34,18.12,1.36,39.02-1.34,61.98-2.48,21.08-6.8,39.94-11.75,56.28l7.87,2.02c88.49,19.96,151.83,36.23,188.2,43.98,17.12,3.65,28.27,5.42,33.24,4.8,9.77-1.22,25.68-5.51,36.15-8.53,7.07-2.04,14.46-2.66,21.77-1.81,52.76,6.14,245.81,28.8,257.42,29.7,26.37,110.12,86.83,250.99,99.28,302.18,3.02,12.4-.2,25.47-8.6,35.07-25.22,28.81-78.65,96.72-99.11,175.63,217.24,25.25,466.2,0,466.2,0,0,0-54.39-192.31,56.33-444.83,0,0,127.33,231.16,145.25,246.7-7.32,10.16-17.05,24.09-28.24,40.33,13.08,11.5,27.01,25.6,40.52,42.72,10.48,13.28,19.14,26.38,26.3,38.78l94.42-96.5c14.6-14.93,17.32-37.82,6.61-55.75Z"/><g><path class="cls-26" d="M2652.43,1670.16s127.33,231.16,145.25,246.7c-7.32,10.16-17.05,24.09-28.24,40.33,13.08,11.5,27.01,25.6,40.52,42.72,10.48,13.28,19.14,26.38,26.3,38.78l94.42-96.5c14.6-14.93,17.32-37.82,6.61-55.75l-243.22-407.12c-4.36-7.3-10.7-13.21-18.29-17.05l-64.88-32.85-56.45,38.01c31.94,177.24,35.9,207.05,37.62,247.77,1.33,31.66-27.76,56.75-58.86,62.85-50.39,9.89-135.56,20.17-235.48,6.02l203.09,28.75c33.47,4.74,57.8,34.25,56.03,68-4.02,76.64-23.26,154.01-23.26,154.01l-6.03,85.53c42.54-2.72,68.56-5.36,68.56-5.36,0,0-54.39-192.31,56.33-444.83Z"/><path class="cls-18" d="M2652.43,1670.16s127.33,231.16,145.25,246.7c-7.32,10.16-17.05,24.09-28.24,40.33,13.08,11.5,27.01,25.6,40.52,42.72,10.48,13.28,19.14,26.38,26.3,38.78l94.42-96.5c14.6-14.93,17.32-37.82,6.61-55.75l-243.22-407.12c-4.36-7.3-10.7-13.21-18.29-17.05l-64.88-32.85-56.45,38.01c31.94,177.24,35.9,207.05,37.62,247.77,1.33,31.66-27.76,56.75-58.86,62.85-50.39,9.89-135.56,20.17-235.48,6.02l203.09,28.75c33.47,4.74,57.8,34.25,56.03,68-4.02,76.64-23.26,154.01-23.26,154.01l-6.03,85.53c42.54-2.72,68.56-5.36,68.56-5.36,0,0-54.39-192.31,56.33-444.83Z"/></g><path class="cls-21" d="M1606.02,1413.93l-284.94-11.36-46.41-37.88c-8.43-6.88-20.96-4.97-26.96,4.11l-56.78,85.99,43.34,18.96c11.69,5.11,25.19,3.77,35.64-3.55l22.02-15.42,300.99,77.4c4.95-16.34,9.27-35.2,11.75-56.28,2.7-22.96,2.68-43.87,1.34-61.98Z"/><path class="cls-6" d="M2768.7,1957.43c-59.35,86.17-159.75,237.44-159.75,237.44l5.67,74.28,220.9-230.22c-7.16-12.4-15.82-25.5-26.3-38.78-13.51-17.12-27.44-31.22-40.52-42.72Z"/><path class="cls-11" d="M2220.45,3463.32s-52.45-536.13-55.36-606.06c-2.91-69.93-101.01-407.92-100.52-512.55,.25-52.77,41.28-213.79,106.79-326.99,142.33,23.69,412.91,26.89,412.91,26.89,0,0,24.86,95.89,56.79,279.16-1.93,134.3-25.93,187.58-43.7,271.25-47.66,224.36-53.49,262.24-53.49,262.24l-72.84,571.09s-75.76,14.57-96.15-5.83c-37.2,26.22-64.1,32.05-154.43,40.79Z"/><path class="cls-8" d="M2474.2,3428.07l72.84-571.09s5.83-37.88,53.49-262.24c15.81-74.41,50.09-137.73,50.02-251.92-36.04-202.32-63.11-298.49-63.11-298.49,0,0-15.09-.18-40-.76,13.64,140.12,32.25,356.54,25.71,436.06-4.89,59.44-44.4,275.37-58.13,363.97-5.54,35.75-32.75,64.63-68.31,71.28-27.56,5.16-58.76-3.14-81.35-50.13,1.84,128.61,13.02,431.93,17.93,561.38,25.71,14.48,90.91,1.94,90.91,1.94Z"/><polygon class="cls-48" points="2372.69 3422.59 2336.34 2042.08 2340.73 2041.97 2382.44 3422.47 2372.69 3422.59"/><path class="cls-48" d="M2356.35,2416.52c-2.49,0-5.25-.33-8.28-1.07l.52-2.13c21.51,5.31,27.51-11.79,28.1-13.68v-357.62h2.19l-.04,358.08c-.05,.19-4.92,16.41-22.5,16.41Z"/><path class="cls-48" d="M2215.72,2458.19l-2.18-.21,18.24-186.48c0-1.34,.07-146.2,6.59-243.64l2.18,.15c-6.51,97.36-6.58,242.15-6.58,243.6l-18.25,186.58Z"/><path class="cls-48" d="M2533.11,2457.19l-31.51-184.7c-.09-1.44-7.86-133.67-21.3-230.31l2.17-.3c13.45,96.73,21.22,229.04,21.3,230.37l31.49,184.58-2.16,.37Z"/><path class="cls-17" d="M1236.98,1480.28l-112.04-11.84,59.68-73.19s85.96-18.17,85.96-15.25,32.36,15.31,32.36,15.31l-10.99,59.47-25.57,17.9c-8.56,5.99-19,8.69-29.39,7.59Z"/><path class="cls-11" d="M1383.22,1435.99l-609.88-102.09h0s-102.47-17.15-102.47-17.15c-10.25-1.74-19.92,5.22-21.63,15.43-.83,4.95,.32,9.92,3.23,14.01,2.91,4.09,7.24,6.79,12.19,7.62l91.88,15.38h0s620.47,103.86,620.47,103.86c1.05,.18,2.1,.26,3.14,.26,3.88,0,7.65-1.2,10.87-3.5,4.08-2.91,6.79-7.24,7.62-12.19,1.71-10.22-5.22-19.92-15.43-21.63Zm-624.9-77.39l-91.88-15.38c-4.38-.73-7.34-4.89-6.61-9.27,.66-3.93,4.08-6.72,7.94-6.72,.44,0,.89,.03,1.33,.11l91.88,15.38-1.33,7.94-1.33,7.94Z"/><path class="cls-21" d="M1120.03,1385.71c4.91,24.55,34.77,29.45,34.77,29.45h71s13.6,14.62,47.69,15.67c34.08,1.05,47.59-28.27,47.59-28.27l-54.74-44.68c-4.58-3.74-10.83-4.72-16.33-2.56l-77.53,30.38h-52.45Z"/><path class="cls-21" d="M1176.62,1427.25h0c2.04,4.07,.7,9.02-3.11,11.51l-46.31,30.22c-4.48,2.92-10.5,1.29-12.89-3.49l-2.81-5.61c-2.21-4.42-.43-9.8,3.99-12.01l49.12-24.62c4.42-2.21,9.8-.43,12.01,3.99Z"/><path class="cls-21" d="M1231.94,1425.72h0c2.81,3.58,1.97,9.1-1.95,12.84l-47.64,45.41c-4.6,4.39-11.54,4.55-14.84,.35l-3.87-4.93c-3.05-3.89-1.77-9.99,2.86-13.63l51.51-40.48c4.63-3.64,10.87-3.44,13.92,.44Z"/><path class="cls-21" d="M1246.02,1434.79h0c3.21,3.23,3.34,8.5,.3,12.25l-36.95,45.63c-3.57,4.41-10.01,4.96-13.78,1.17l-4.42-4.44c-3.49-3.5-3.3-9.35,.43-13.05l41.37-41.19c3.72-3.71,9.57-3.87,13.05-.37Z"/><path class="cls-21" d="M1257.68,1446.41h0c2.88,2.37,3.41,6.67,1.24,9.98l-26.47,40.24c-2.56,3.89-7.77,4.86-11.15,2.07l-3.97-3.27c-3.13-2.58-3.45-7.36-.71-10.69l30.44-36.98c2.74-3.33,7.5-3.93,10.63-1.36Z"/><path class="cls-47" d="M1622.4,1548.17l-62.31-15.42c-6.29-1.56-10.43-7.57-9.64-14.01l12.55-101.86c.77-6.24,5.94-11,12.22-11.24l64.51-2.5c7.89-.31,14.18,6.53,13.21,14.37l-14.76,119.78c-.94,7.63-8.34,12.72-15.8,10.87Z"/><path class="cls-20" d="M2404.03,1099.54l16.26,10.9c6.6,4.42,15.22,4.43,21.82,0l16.28-10.9c-5.32-2.39-15.25-6.02-28.14-5.83-11.85,.17-21.02,3.49-26.21,5.83Z"/><g><g><g><path class="cls-22" d="M2117.06,1538.46l-257.91-22.76s-71.33-42.32-35.02-92.48l-171.08-6.82c0,.57-.02,1.14-.09,1.72l-14.76,119.78c-.23,1.86-.85,3.56-1.75,5.06,70.02,16.2,121.27,29.16,152.55,35.84,17.12,3.65,28.27,5.42,33.24,4.8,9.77-1.22,25.68-5.51,36.15-8.53,7.07-2.04,14.46-2.66,21.77-1.81,38.59,4.49,152.24,17.82,215.04,25.01l42.68,4.43-20.83-64.23Z"/><path class="cls-22" d="M2117.06,1538.46l-257.91-22.76s-71.33-42.32-35.02-92.48l-171.08-6.82c0,.57-.02,1.14-.09,1.72l-14.76,119.78c-.23,1.86-.85,3.56-1.75,5.06,70.02,16.2,121.27,29.16,152.55,35.84,17.12,3.65,28.27,5.42,33.24,4.8,9.77-1.22,25.68-5.51,36.15-8.53,7.07-2.04,14.46-2.66,21.77-1.81,38.59,4.49,152.24,17.82,215.04,25.01l42.68,4.43-20.83-64.23Z"/><path class="cls-22" d="M2117.06,1538.46l-257.91-22.76s-71.33-42.32-35.02-92.48l-171.08-6.82c0,.57-.02,1.14-.09,1.72l-14.76,119.78c-.23,1.86-.85,3.56-1.75,5.06,70.02,16.2,121.27,29.16,152.55,35.84,17.12,3.65,28.27,5.42,33.24,4.8,9.77-1.22,25.68-5.51,36.15-8.53,7.07-2.04,14.46-2.66,21.77-1.81,38.59,4.49,152.24,17.82,215.04,25.01l42.68,4.43-20.83-64.23Z"/></g><path class="cls-22" d="M1639.74,1403.75l-64.51,2.5c-6.28,.24-11.45,5-12.22,11.24l-12.55,101.86c-.79,6.44,3.35,12.45,9.64,14.01l62.31,15.42c5.64,1.4,11.24-1.18,14.05-5.81,.9-1.49,1.52-3.2,1.75-5.06l14.76-119.78c.07-.58,.1-1.15,.09-1.72-.07-7.09-6-12.93-13.31-12.65Z"/></g><g><g><path class="cls-18" d="M2117.06,1538.46l-257.91-22.76s-71.33-42.32-35.02-92.48l-171.08-6.82c0,.57-.02,1.14-.09,1.72l-14.76,119.78c-.23,1.86-.85,3.56-1.75,5.06,70.02,16.2,121.27,29.16,152.55,35.84,17.12,3.65,28.27,5.42,33.24,4.8,9.77-1.22,25.68-5.51,36.15-8.53,7.07-2.04,14.46-2.66,21.77-1.81,38.59,4.49,152.24,17.82,215.04,25.01l42.68,4.43-20.83-64.23Z"/><path class="cls-3" d="M2117.06,1538.46l-257.91-22.76s-71.33-42.32-35.02-92.48l-171.08-6.82c0,.57-.02,1.14-.09,1.72l-14.76,119.78c-.23,1.86-.85,3.56-1.75,5.06,70.02,16.2,121.27,29.16,152.55,35.84,17.12,3.65,28.27,5.42,33.24,4.8,9.77-1.22,25.68-5.51,36.15-8.53,7.07-2.04,14.46-2.66,21.77-1.81,38.59,4.49,152.24,17.82,215.04,25.01l42.68,4.43-20.83-64.23Z"/></g><path class="cls-18" d="M1639.74,1403.75l-64.51,2.5c-6.28,.24-11.45,5-12.22,11.24l-12.55,101.86c-.79,6.44,3.35,12.45,9.64,14.01l62.31,15.42c5.64,1.4,11.24-1.18,14.05-5.81,.9-1.49,1.52-3.2,1.75-5.06l14.76-119.78c.07-.58,.1-1.15,.09-1.72-.07-7.09-6-12.93-13.31-12.65Z"/></g></g><g><g><g><path class="cls-34" d="M2335.39,1818.77c0-75.92-61.76-137.68-137.68-137.68-12.74,0-25.09,1.75-36.81,5,.75,2.32,1.5,4.64,2.26,6.95,11.01-3.03,22.59-4.65,34.55-4.65,71.89,0,130.38,58.49,130.38,130.38,0,64.18-46.61,117.67-107.76,128.41-2.18,2.59-4.47,5.38-6.88,8.36,68.53-7.84,121.93-66.18,121.93-136.78Z"/><path class="cls-34" d="M2212.61,1956l.56-.69c2.2-2.73,4.45-5.47,6.88-8.37l.08-.1,.13-.02c29.72-5.22,56.92-20.86,76.59-44.04,19.9-23.45,30.86-53.29,30.86-84.01,0-71.69-58.32-130.02-130.01-130.02-11.66,0-23.25,1.56-34.45,4.64l-.33,.09-.11-.33c-.76-2.32-1.51-4.63-2.26-6.95l-.12-.36,.37-.1c11.99-3.33,24.4-5.02,36.91-5.02,76.12,0,138.05,61.93,138.05,138.05,0,34.06-12.56,66.79-35.36,92.16-22.63,25.18-53.49,41.15-86.89,44.97l-.89,.1Zm7.91-8.49c-2.19,2.61-4.23,5.09-6.23,7.56,32.89-3.98,63.24-19.81,85.55-44.63,22.69-25.24,35.18-57.8,35.18-91.68,0-75.72-61.6-137.32-137.31-137.32-12.31,0-24.54,1.65-36.34,4.89,.67,2.09,1.35,4.17,2.03,6.26,11.15-3.04,22.7-4.58,34.31-4.58,72.09,0,130.74,58.65,130.74,130.75,0,30.89-11.02,60.9-31.04,84.48-19.76,23.28-47.06,38.99-76.89,44.26Z"/></g><path class="cls-34" d="M2785.26,1678.4c0,53.25,38.77,97.44,89.62,105.9l-83.92-140.48c-3.69,10.85-5.69,22.48-5.69,34.58Z"/><path class="cls-34" d="M2892.63,1835.81c-42.05,0-81.57-16.37-111.3-46.1-29.73-29.73-46.1-69.26-46.1-111.31,0-30.84,8.82-60.33,25.25-85.59l-4.15-6.95c-18.47,27.08-28.41,59.04-28.41,92.53,0,44,17.13,85.36,48.24,116.47,31.11,31.11,72.47,48.24,116.47,48.24,5.67,0,11.3-.29,16.87-.85l-4.16-6.96c-4.21,.33-8.44,.51-12.71,.51Z"/><path class="cls-34" d="M2562.09,1818.04c-18.71-44.22-28.19-91.2-28.19-139.63s9.48-95.41,28.19-139.63c15.74-37.2,37.39-71.1,64.48-101l-6.75-3.42c-27.02,30.14-48.66,64.22-64.46,101.57-19.09,45.13-28.77,93.07-28.77,142.48s9.68,97.35,28.77,142.48c9.23,21.82,20.46,42.53,33.59,62,.52-3.56,1.07-7.15,1.65-10.78-10.99-17.11-20.52-35.16-28.51-54.06Z"/><path class="cls-34" d="M2834.62,2038.28l4.92-5.03c-2.92-.43-5.84-.9-8.74-1.41,1.32,2.16,2.59,4.31,3.82,6.44Z"/><path class="cls-34" d="M1820.59,1476.76c35.39,0,66.6-18.27,84.69-45.87-2.56-.29-5.04-.58-7.45-.88-17.14,24.23-45.37,40.09-77.24,40.09-36.68,0-68.54-20.99-84.21-51.6l-7.55-.3c16.12,34.55,51.19,58.55,91.76,58.55Z"/><path class="cls-34" d="M2347.44,1496.19c19.49,0,36.39-11.06,44.8-27.23-33.84-6.31-65.39-19.08-93.35-36.99-1.24,4.37-1.91,8.98-1.91,13.76,0,27.87,22.6,50.47,50.47,50.47Z"/></g><g><path class="cls-38" d="M2335.39,1818.77c0-75.92-61.76-137.68-137.68-137.68-12.74,0-25.09,1.75-36.81,5,.75,2.32,1.5,4.64,2.26,6.95,11.01-3.03,22.59-4.65,34.55-4.65,71.89,0,130.38,58.49,130.38,130.38,0,64.18-46.61,117.67-107.76,128.41-2.18,2.59-4.47,5.38-6.88,8.36,68.53-7.84,121.93-66.18,121.93-136.78Z"/><path class="cls-33" d="M2785.26,1678.4c0,53.25,38.77,97.44,89.62,105.9l-83.92-140.48c-3.69,10.85-5.69,22.48-5.69,34.58Z"/><path class="cls-33" d="M2892.63,1835.81c-42.05,0-81.57-16.37-111.3-46.1-29.73-29.73-46.1-69.26-46.1-111.31,0-30.84,8.82-60.33,25.25-85.59l-4.15-6.95c-18.47,27.08-28.41,59.04-28.41,92.53,0,44,17.13,85.36,48.24,116.47,31.11,31.11,72.47,48.24,116.47,48.24,5.67,0,11.3-.29,16.87-.85l-4.16-6.96c-4.21,.33-8.44,.51-12.71,.51Z"/><path class="cls-33" d="M2562.09,1818.04c-18.71-44.22-28.19-91.2-28.19-139.63s9.48-95.41,28.19-139.63c15.74-37.2,37.39-71.1,64.48-101l-6.75-3.42c-27.02,30.14-48.66,64.22-64.46,101.57-19.09,45.13-28.77,93.07-28.77,142.48s9.68,97.35,28.77,142.48c9.23,21.82,20.46,42.53,33.59,62,.52-3.56,1.07-7.15,1.65-10.78-10.99-17.11-20.52-35.16-28.51-54.06Z"/><path class="cls-33" d="M2834.62,2038.28l4.92-5.03c-2.92-.43-5.84-.9-8.74-1.41,1.32,2.16,2.59,4.31,3.82,6.44Z"/><path class="cls-33" d="M1820.59,1476.76c35.39,0,66.6-18.27,84.69-45.87-2.56-.29-5.04-.58-7.45-.88-17.14,24.23-45.37,40.09-77.24,40.09-36.68,0-68.54-20.99-84.21-51.6l-7.55-.3c16.12,34.55,51.19,58.55,91.76,58.55Z"/><path class="cls-33" d="M2347.44,1496.19c19.49,0,36.39-11.06,44.8-27.23-33.84-6.31-65.39-19.08-93.35-36.99-1.24,4.37-1.91,8.98-1.91,13.76,0,27.87,22.6,50.47,50.47,50.47Z"/></g></g><rect class="cls-14" x="2133.53" y="1535.02" width="3.65" height="120.66" transform="translate(-383.28 722.79) rotate(-17.66)"/><rect class="cls-14" x="2637.3" y="1616.03" width="3.65" height="57.27" transform="translate(-453.91 1323.68) rotate(-26.01)"/><g><path class="cls-14" d="M2440.78,1490.85c39.07,0,76.99-7.66,112.69-22.76,22.18-9.38,42.9-21.39,61.94-35.82l-18.95-9.6-17.9-9.07c-40.65,26.5-88.12,40.73-137.78,40.73-58.44,0-113.85-19.7-158.67-55.93-4.72,2.27-9.61,4.28-14.64,6.01-1.11,.39-2.22,.77-3.34,1.15-7.11,2.42-14.29,4.67-21.54,6.78,25.08,23.59,53.8,42.34,85.5,55.74,35.7,15.1,73.61,22.76,112.69,22.76Z"/><g class="cls-40"><g><rect class="cls-12" x="2183.42" y="1301.82" width="347.38" height="7.3" transform="translate(77.5 2742.01) rotate(-61.2)"/><rect class="cls-12" x="2203.15" y="1311.11" width="347.38" height="7.3" transform="translate(279.31 3040.55) rotate(-68.4)"/><rect class="cls-12" x="2223.9" y="1317.85" width="347.38" height="7.3" transform="translate(521.44 3315.21) rotate(-75.6)"/><rect class="cls-12" x="2245.32" y="1321.94" width="347.38" height="7.3" transform="translate(800.59 3559.31) rotate(-82.8)"/><rect class="cls-12" x="2437.13" y="1153.27" width="7.3" height="347.38"/><rect class="cls-12" x="2458.9" y="1151.9" width="7.3" height="347.38" transform="translate(-146.72 319.09) rotate(-7.2)"/><rect class="cls-12" x="2480.33" y="1147.81" width="7.3" height="347.38" transform="translate(-250.61 659.26) rotate(-14.4)"/><rect class="cls-12" x="2501.07" y="1141.07" width="7.3" height="347.38" transform="translate(-308.11 1014.37) rotate(-21.6)"/><rect class="cls-12" x="2520.81" y="1131.79" width="7.3" height="347.38" transform="translate(-316.66 1377.64) rotate(-28.8)"/></g></g></g><path class="cls-18" d="M2869.41,2039.7l-44.45,46.31c-4.49,4.68-11.77,5.27-16.95,1.37l-82.02-61.69c-5.02-3.78-6.56-10.64-3.64-16.2l30.02-57.16c3.67-6.99,12.74-9.03,19.05-4.28l96.45,72.54c6.14,4.62,6.86,13.57,1.54,19.12Z"/><g><path class="cls-21" d="M2597.13,2137.84s24.26,24.37,40.1,122.36c-35.83-12.78-54.04-23.58-54.04-23.58,0,0-59.18-63.82-60-74.25,20.02-12.28,73.94-24.53,73.94-24.53Z"/><g><path class="cls-17" d="M2537.66,2185.45c-.35,.04-.68-.18-.78-.53-.11-.39,.11-.79,.5-.9l62.47-17.57c.38-.08,.8,.12,.9,.51,.11,.39-.11,.79-.5,.9l-62.47,17.57s-.08,.02-.12,.02Z"/><path class="cls-17" d="M2554.56,2205.33c-.35,.04-.69-.19-.78-.55-.1-.39,.14-.79,.53-.89l57.18-14.36c.44-.11,.79,.14,.89,.53,.1,.39-.14,.79-.53,.89l-57.18,14.36s-.07,.02-.1,.02Z"/><path class="cls-17" d="M2615.39,2222.19h0l-42.09,4.21c-.4,.04-.76-.25-.8-.66-.04-.4,.25-.76,.65-.8h0l42.09-4.21c.4-.04,.76,.25,.8,.66,.04,.4-.25,.76-.65,.8Z"/></g></g><g><g><path class="cls-13" d="M2790.7,1644.57l83.92,140.48c-50.85-8.46-89.62-52.65-89.62-105.9,0-12.1,2-23.73,5.69-34.58Zm101.68,199.29c-44,0-85.36-17.13-116.47-48.24-31.11-31.11-48.24-72.47-48.24-116.47,0-33.49,9.94-65.46,28.41-92.53l4.15,6.95c-16.43,25.26-25.25,54.74-25.25,85.59,0,42.05,16.37,81.57,46.1,111.31,29.73,29.73,69.26,46.1,111.3,46.1,4.26,0,8.5-.18,12.71-.51l4.16,6.96c-5.57,.56-11.19,.85-16.87,.85Z"/><path class="cls-13" d="M2874.62,1785.06l-83.92-140.48c-3.69,10.85-5.69,22.48-5.69,34.58,0,53.25,38.77,97.44,89.62,105.9Z"/><path class="cls-13" d="M2892.38,1836.56c-42.05,0-81.57-16.37-111.3-46.1-29.73-29.73-46.1-69.26-46.1-111.31,0-30.84,8.82-60.33,25.25-85.59l-4.15-6.95c-18.47,27.08-28.41,59.04-28.41,92.53,0,44,17.13,85.36,48.24,116.47,31.11,31.11,72.47,48.24,116.47,48.24,5.67,0,11.3-.29,16.87-.85l-4.16-6.96c-4.21,.33-8.44,.51-12.71,.51Z"/><path class="cls-13" d="M2588.7,1883.63c.52-3.56,1.07-7.15,1.65-10.78-10.99-17.11-20.52-35.16-28.51-54.06-6.09-14.4-11.2-29.1-15.33-44.05-2.25,.91-4.55,1.72-6.91,2.41,4.19,15.09,9.36,29.93,15.51,44.48,9.23,21.82,20.46,42.53,33.59,62Z"/><path class="cls-13" d="M2830.55,2032.6c1.32,2.16,2.59,4.31,3.82,6.44l.88-.9c-1.02-1.75-2.07-3.51-3.15-5.28-.52-.09-1.03-.17-1.55-.26Z"/><path class="cls-13" d="M2832.1,2032.86c1.08,1.77,2.13,3.53,3.15,5.28l4.05-4.13c-2.4-.36-4.8-.74-7.19-1.15Z"/></g><g><path class="cls-38" d="M2830.55,2032.6c1.32,2.16,2.59,4.31,3.82,6.44l.88-.9c-1.02-1.75-2.07-3.51-3.15-5.28-.52-.09-1.03-.17-1.55-.26Z"/><path class="cls-38" d="M2832.1,2032.86c1.08,1.77,2.13,3.53,3.15,5.28l4.05-4.13c-2.4-.36-4.8-.74-7.19-1.15Z"/></g></g><g><path class="cls-37" d="M1736.38,1418.51l-7.55-.3c.19,.42,.4,.82,.6,1.24l7.6,.3c-.22-.41-.45-.82-.66-1.24Z"/><path class="cls-37" d="M1820.4,1476.76c-1.17-2.17-2.21-4.41-3.11-6.71-34.79-1.2-64.85-21.29-80.25-50.3l-7.6-.3c16.35,33.83,50.97,57.24,90.97,57.31Z"/></g><path class="cls-17" d="M1191.59,1477.07c-.19,0-.37-.07-.52-.21-.29-.29-.29-.75,0-1.03l41.28-41.28c.28-.28,.75-.28,1.03,0s.29,.75,0,1.03l-41.28,41.28c-.14,.14-.33,.21-.52,.21Z"/><path class="cls-17" d="M1220.09,1481.25c-.16,0-.32-.05-.46-.16-.31-.25-.37-.71-.12-1.03l25.81-32.29c.25-.31,.72-.36,1.03-.12,.31,.25,.37,.71,.12,1.03l-25.81,32.29c-.14,.18-.36,.28-.57,.28Z"/><path class="cls-39" d="M2755.37,1277.6c-68.98,.01-136.34-143.08-201.53-281.59-9.97-21.18-19.39-41.19-28.89-60.84-22.78-47.16-48.72-72.1-77.09-74.14-41.7-2.95-75.19,45.69-75.53,46.18l-3.07-1.98c22.68-36.38,47.87-55.16,77.01-57.44,44.77-3.5,98.32,32.66,168.51,113.79,99.88,115.42,127.69,203.22,127.96,204.1,.29,.96-.25,1.98-1.21,2.28-.99,.31-1.99-.24-2.29-1.21-.27-.86-27.91-88-127.23-202.78-69.38-80.18-121.89-115.93-165.47-112.54-18.16,1.42-34.78,9.63-50.25,24.94,13.67-10.91,31.6-20.46,51.8-18.97,29.77,2.13,56.73,27.76,80.13,76.19,9.5,19.66,18.92,39.68,28.9,60.87,63.39,134.67,135.25,287.27,203.66,279.17,1.07-.11,1.91,.6,2.03,1.6,.12,1-.6,1.91-1.6,2.03-1.96,.23-3.92,.35-5.87,.35Z"/><path class="cls-39" d="M2729.92,1091.92c-.27,0-.52-.15-.65-.4-.16-.31-16.31-31.98-40.53-69.98-.22-.34-.12-.79,.22-1.01,.34-.22,.8-.12,1.01,.22,24.26,38.07,40.44,69.79,40.6,70.11,.18,.36,.04,.8-.32,.98-.1,.06-.22,.08-.33,.08Z"/><g><path class="cls-25" d="M2603.96,2099.95c-20.57,0-416.29-28.86-461.62-32.17l1.46-19.95c177.42,12.96,445.09,32.12,459.81,32.12,.09,0,.16,0,.23,0l.47,20c-.1,0-.22,0-.35,0Z"/><g><path class="cls-30" d="M2324.18,2106.69c-1.38,0-2.5-1.12-2.5-2.5s1.12-2.5,2.5-2.5c14.68,0,26.63-11.95,26.63-26.63s-11.95-26.63-26.63-26.63c-1.38,0-2.5-1.12-2.5-2.5s1.12-2.5,2.5-2.5c17.44,0,31.63,14.19,31.63,31.63s-14.19,31.63-31.63,31.63Z"/><path class="cls-30" d="M2354.08,2106.69c-17.44,0-31.63-14.19-31.63-31.63s14.19-31.63,31.63-31.63,31.63,14.19,31.63,31.63-14.19,31.63-31.63,31.63Zm0-58.27c-14.69,0-26.63,11.95-26.63,26.63s11.95,26.63,26.63,26.63,26.63-11.95,26.63-26.63-11.95-26.63-26.63-26.63Z"/></g></g><g><path class="cls-22" d="M3864.59,2730.67c.51-.93,1.28-1.72,2.28-2.27,36.57-19.95,46.2-54.94,46.29-55.3,.81-3.05,3.94-4.89,7-4.08,3.06,.8,4.89,3.92,4.1,6.98-.42,1.62-10.82,40.05-51.89,62.46-2.78,1.52-6.26,.49-7.78-2.29-.97-1.78-.9-3.85,0-5.51Z"/><path class="cls-22" d="M3689.79,2705.54c1.48-2.69,4.83-3.75,7.59-2.36,58.47,29.3,104.82,26.97,150.31-7.55,44.61-33.85,43.51-84.33,43.5-84.84-.1-3.16,2.37-5.81,5.54-5.92,3.16-.11,5.81,2.36,5.92,5.52,.08,2.3,1.47,56.82-48.02,94.38-48.76,36.99-100.35,39.75-162.38,8.67-2.83-1.42-3.98-4.86-2.56-7.69,.03-.07,.07-.13,.1-.19Z"/><path class="cls-22" d="M3663.78,2635.33c.2-.36,.44-.71,.73-1.04,2.09-2.38,5.72-2.61,8.09-.51,17.83,15.71,37.13,28.03,57.37,36.62,20.49,8.7,42.95,9.48,63.24,2.19,20.94-7.52,37.46-23.18,46.53-44.07,18.87-43.48-8.4-79.26-9.57-80.76-1.94-2.5-1.51-6.1,.99-8.04,2.49-1.95,6.08-1.52,8.04,.97,1.35,1.71,32.71,42.53,11.06,92.4-20.73,47.75-75.53,68.78-124.77,47.87-21.37-9.08-41.71-22.05-60.46-38.57-2.05-1.81-2.5-4.76-1.24-7.06Z"/><path class="cls-22" d="M3672.16,2573.83c.35-.64,.83-1.22,1.43-1.7,2.47-1.99,6.08-1.6,8.06,.87,26.06,32.36,49.88,52.68,68.9,58.78,23.71,7.6,41.65-5.37,48.95-21.6,6.51-14.5,5.33-33.7-11.95-43.91-23.66-13.97-43.09-34.83-55.22-49.86-1.99-2.46-1.6-6.07,.86-8.06,2.46-1.99,6.07-1.6,8.06,.86,11.54,14.3,29.95,34.09,52.13,47.19,23.26,13.74,24.9,39.94,16.58,58.47-9.06,20.21-32.63,37.54-62.92,27.83-21.46-6.88-46.47-27.91-74.33-62.51-1.5-1.86-1.65-4.38-.56-6.36Z"/><path class="cls-22" d="M3695.8,2536.42c.33-.6,.78-1.16,1.34-1.63,2.42-2.04,6.04-1.73,8.08,.7,16.87,20.04,37.99,39.01,62.78,56.37,2.59,1.82,3.22,5.38,1.41,7.99-1.82,2.59-5.39,3.22-7.99,1.41-25.61-17.93-47.47-37.57-64.98-58.38-1.57-1.87-1.75-4.44-.64-6.45Z"/></g></g><g><path class="cls-10" d="M3942.55,1983.14c-.65,0-1.31-.06-1.95-.19-.64-.13-1.27-.32-1.88-.57-.6-.26-1.18-.56-1.72-.93-.55-.36-1.06-.78-1.52-1.24-.46-.46-.88-.97-1.25-1.52-.35-.54-.66-1.12-.91-1.72-.25-.61-.45-1.24-.57-1.87-.13-.65-.2-1.31-.2-1.96s.07-1.31,.2-1.95c.12-.64,.32-1.27,.57-1.87,.25-.61,.56-1.19,.91-1.73,.37-.55,.79-1.06,1.25-1.52,.46-.46,.97-.88,1.52-1.24,.54-.36,1.12-.67,1.72-.92,.61-.25,1.24-.44,1.88-.57,1.29-.26,2.62-.26,3.9,0,.64,.13,1.27,.32,1.87,.57,.61,.25,1.19,.56,1.73,.92,.55,.36,1.06,.78,1.52,1.24,.46,.46,.88,.97,1.24,1.52,.36,.54,.67,1.12,.92,1.73,.25,.6,.45,1.23,.57,1.87,.14,.64,.2,1.3,.2,1.95,0,2.63-1.07,5.21-2.93,7.07-1.87,1.87-4.44,2.93-7.07,2.93Z"/><path class="cls-10" d="M3865.22,2335.45c-5.24-1.75-8.07-7.41-6.32-12.65h0c1.74-5.24,7.4-8.08,12.64-6.33h0c5.24,1.75,8.08,7.41,6.33,12.65h0c-1.4,4.19-5.3,6.84-9.49,6.84h0c-1.05,0-2.11-.17-3.16-.51Zm21.71-68.92c-5.31-1.51-8.4-7.03-6.89-12.35h0c1.5-5.31,7.03-8.4,12.34-6.89h0c5.31,1.5,8.4,7.02,6.9,12.34h0c-1.25,4.4-5.26,7.28-9.62,7.28h0c-.9,0-1.82-.13-2.73-.38Zm18.53-69.85c-5.38-1.25-8.72-6.63-7.46-12.02h0c1.27-5.37,6.64-8.71,12.02-7.45h0c5.38,1.26,8.72,6.64,7.46,12.02h0c-1.08,4.6-5.19,7.72-9.73,7.72h0c-.76,0-1.52-.09-2.29-.27Zm15.31-70.62c-5.43-1.01-9.02-6.23-8-11.66h0c1.01-5.43,6.23-9.01,11.66-8h0c5.43,1.01,9.01,6.24,8,11.66h0c-.9,4.82-5.1,8.18-9.82,8.18h0c-.61,0-1.23-.06-1.84-.18Zm12.05-71.24c-5.47-.76-9.28-5.82-8.52-11.29h0c.76-5.46,5.81-9.28,11.28-8.52h0c5.47,.76,9.29,5.81,8.53,11.28h0c-.7,5.01-4.98,8.63-9.89,8.63h0c-.46,0-.93-.04-1.4-.1Z"/><path class="cls-10" d="M3843.97,2403.95c-.65,0-1.31-.07-1.96-.2-.63-.12-1.26-.32-1.87-.57-.6-.24-1.18-.55-1.73-.91-.54-.37-1.06-.78-1.52-1.25-.46-.46-.87-.97-1.24-1.52-.36-.54-.67-1.12-.92-1.72-.25-.61-.44-1.24-.57-1.87-.13-.65-.19-1.3-.19-1.95s.06-1.32,.19-1.96,.32-1.27,.57-1.87c.25-.61,.56-1.19,.92-1.73,.36-.55,.78-1.06,1.24-1.52,.46-.46,.98-.88,1.52-1.24,.55-.36,1.13-.67,1.73-.92,.61-.25,1.24-.44,1.87-.57,1.29-.27,2.62-.27,3.91,0,.64,.13,1.27,.32,1.87,.57,.6,.25,1.18,.56,1.73,.92,.54,.36,1.06,.78,1.52,1.24,.46,.46,.88,.97,1.24,1.52,.36,.54,.67,1.12,.92,1.73,.25,.6,.44,1.23,.57,1.87,.13,.65,.2,1.3,.2,1.96s-.07,1.3-.2,1.95c-.13,.63-.32,1.26-.57,1.87-.25,.6-.56,1.18-.92,1.72-.36,.55-.78,1.06-1.24,1.52-.46,.47-.98,.88-1.52,1.25-.55,.36-1.13,.67-1.73,.91-.6,.25-1.23,.45-1.87,.57-.64,.13-1.3,.2-1.95,.2Z"/></g><g><path class="cls-10" d="M1760.55,366.32c-.65,0-1.31-.07-1.95-.2-.64-.12-1.27-.32-1.87-.57-.61-.25-1.19-.56-1.73-.92-.55-.36-1.06-.78-1.52-1.24-.46-.46-.88-.97-1.24-1.52-.36-.54-.67-1.12-.92-1.73-.25-.6-.44-1.23-.57-1.87s-.2-1.3-.2-1.95,.07-1.31,.2-1.96c.13-.63,.32-1.26,.57-1.86,.25-.61,.56-1.19,.92-1.73,.36-.55,.78-1.06,1.24-1.52,1.86-1.86,4.43-2.93,7.07-2.93s5.21,1.07,7.07,2.93c.46,.46,.88,.97,1.24,1.52,.36,.54,.67,1.12,.92,1.73,.25,.6,.44,1.23,.57,1.86,.13,.65,.2,1.3,.2,1.96s-.07,1.31-.2,1.95c-.13,.64-.32,1.27-.57,1.87-.25,.61-.56,1.19-.92,1.73-.36,.55-.78,1.06-1.24,1.52-.46,.46-.97,.88-1.52,1.24-.54,.36-1.12,.67-1.72,.92-.61,.25-1.24,.45-1.88,.57-.64,.13-1.3,.2-1.95,.2Z"/><path class="cls-10" d="M1820.3,333.13c-1.85-5.21,.86-10.93,6.06-12.78h0c5.2-1.86,10.92,.85,12.78,6.05h0c1.85,5.2-.86,10.92-6.05,12.78h0c-1.12,.4-2.25,.59-3.37,.59h0c-4.11,0-7.96-2.55-9.42-6.64Zm70.2-23.72c-1.61-5.29,1.36-10.88,6.65-12.49h0c5.28-1.6,10.87,1.37,12.48,6.66h0c1.61,5.28-1.37,10.87-6.65,12.48h0c-.97,.29-1.95,.44-2.91,.44h0c-4.29,0-8.26-2.78-9.57-7.09Zm71.24-20.39c-1.37-5.36,1.87-10.8,7.22-12.16h0c5.36-1.36,10.8,1.88,12.16,7.23h0c1.36,5.35-1.88,10.8-7.23,12.16h0c-.83,.21-1.65,.31-2.47,.31h0c-4.46,0-8.53-3.02-9.68-7.54Z"/><path class="cls-10" d="M2043.66,280c-.65,0-1.31-.07-1.95-.2-.64-.13-1.27-.32-1.87-.57-.61-.25-1.19-.56-1.73-.92-.55-.36-1.06-.78-1.52-1.24-.46-.46-.88-.98-1.24-1.52-.36-.55-.67-1.13-.92-1.73s-.44-1.23-.57-1.87c-.13-.64-.2-1.3-.2-1.95s.07-1.31,.2-1.96c.13-.63,.32-1.26,.57-1.87,.25-.6,.56-1.18,.92-1.72,.36-.55,.78-1.06,1.24-1.53,.46-.46,.97-.87,1.52-1.24,.54-.36,1.12-.67,1.73-.92,.6-.25,1.23-.44,1.87-.57,1.29-.26,2.62-.26,3.91,0,.63,.13,1.26,.32,1.87,.57,.6,.25,1.18,.56,1.72,.92,.55,.36,1.06,.78,1.52,1.24,.47,.47,.88,.98,1.25,1.53,.36,.54,.67,1.12,.92,1.72,.25,.61,.44,1.24,.57,1.87,.13,.65,.2,1.31,.2,1.96s-.07,1.31-.2,1.95c-.13,.64-.32,1.27-.57,1.87s-.56,1.18-.93,1.73c-.36,.54-.78,1.06-1.24,1.52-.46,.46-.97,.88-1.52,1.24-.54,.36-1.12,.67-1.72,.92-.61,.25-1.24,.44-1.87,.57-.65,.13-1.31,.2-1.96,.2Z"/></g></g></g></g></svg>