<?xml version="1.0" encoding="UTF-8"?>
<svg id="Layer_1" data-name="Layer 1" xmlns="http://www.w3.org/2000/svg" version="1.1" viewBox="0 0 483 180.5">
  <defs>
    <style>
      .cls-1 {
        fill: #a0adbc;
      }

      .cls-1, .cls-2, .cls-3, .cls-4, .cls-5, .cls-6, .cls-7, .cls-8, .cls-9, .cls-10, .cls-11, .cls-12, .cls-13, .cls-14, .cls-15, .cls-16, .cls-17, .cls-18, .cls-19, .cls-20, .cls-21, .cls-22, .cls-23, .cls-24, .cls-25, .cls-26, .cls-27, .cls-28, .cls-29, .cls-30, .cls-31, .cls-32, .cls-33, .cls-34, .cls-35, .cls-36, .cls-37, .cls-38, .cls-39, .cls-40, .cls-41 {
        stroke-width: 0px;
      }

      .cls-42, .cls-43, .cls-44, .cls-45, .cls-46, .cls-47, .cls-48, .cls-49, .cls-50, .cls-51, .cls-52, .cls-53, .cls-54, .cls-55, .cls-56 {
        stroke-miterlimit: 10;
      }

      .cls-42, .cls-19 {
        fill: #93caee;
      }

      .cls-42, .cls-53 {
        stroke: #1085bc;
      }

      .cls-43, .cls-57, .cls-44, .cls-58, .cls-59, .cls-5, .cls-46, .cls-60, .cls-50, .cls-51, .cls-61, .cls-52, .cls-53, .cls-62, .cls-63 {
        fill: none;
      }

      .cls-43, .cls-64 {
        stroke: #3db87f;
      }

      .cls-2 {
        fill: #20735a;
      }

      .cls-57 {
        stroke: #00c152;
      }

      .cls-57, .cls-58, .cls-59, .cls-60, .cls-65, .cls-66, .cls-61, .cls-64, .cls-62, .cls-63 {
        stroke-linecap: round;
      }

      .cls-57, .cls-58, .cls-59, .cls-60, .cls-65, .cls-66, .cls-61, .cls-64, .cls-62, .cls-63, .cls-67 {
        stroke-linejoin: round;
      }

      .cls-44 {
        stroke-width: 1px;
      }

      .cls-44, .cls-47 {
        stroke: #cc8736;
      }

      .cls-58, .cls-66, .cls-56 {
        stroke: #ef7273;
      }

      .cls-3 {
        fill: #14a88c;
      }

      .cls-4 {
        fill: #0d9bcf;
      }

      .cls-59, .cls-45, .cls-48, .cls-51 {
        stroke: #14a88c;
      }

      .cls-59, .cls-68 {
        display: none;
      }

      .cls-45, .cls-55, .cls-32 {
        fill: #fff;
      }

      .cls-46 {
        stroke-width: 1px;
      }

      .cls-46, .cls-61 {
        stroke: #a0adbc;
      }

      .cls-47 {
        stroke-width: .9px;
      }

      .cls-47, .cls-65 {
        fill: #ffc41d;
      }

      .cls-6 {
        fill: #3bb878;
      }

      .cls-7 {
        fill: #fcb216;
      }

      .cls-8 {
        fill: #ffbd03;
      }

      .cls-48 {
        fill: #aaf7e8;
      }

      .cls-9 {
        fill: #f88f26;
      }

      .cls-60, .cls-65 {
        stroke: #e29700;
      }

      .cls-10 {
        fill: #ebb72e;
      }

      .cls-49 {
        fill: #e8af93;
        stroke: #c07a61;
      }

      .cls-11 {
        fill: #ef7273;
      }

      .cls-12 {
        fill: #9fa8b8;
      }

      .cls-50, .cls-62 {
        stroke: #9cacbd;
      }

      .cls-13 {
        fill: #69c6b5;
      }

      .cls-14 {
        fill: #a0aebd;
      }

      .cls-15, .cls-64 {
        fill: #9dd3aa;
      }

      .cls-16 {
        fill: #e29926;
      }

      .cls-17 {
        fill: #cf3e4a;
      }

      .cls-18 {
        fill: #9facbb;
      }

      .cls-20 {
        fill: #9cadbe;
      }

      .cls-21 {
        fill: #6279bb;
      }

      .cls-66, .cls-29, .cls-56 {
        fill: #f8afb3;
      }

      .cls-22 {
        fill: #f79029;
      }

      .cls-52, .cls-63 {
        stroke: #a0aebd;
      }

      .cls-23 {
        fill: #f8b785;
      }

      .cls-24 {
        fill: #43b649;
      }

      .cls-25 {
        fill: #f3dc8a;
      }

      .cls-54 {
        fill: #ffe08a;
      }

      .cls-54, .cls-55 {
        stroke: #ffbb12;
      }

      .cls-26 {
        fill: #c7b3d7;
      }

      .cls-27 {
        fill: #76bcab;
      }

      .cls-28 {
        fill: #ffda3e;
      }

      .cls-30 {
        fill: #fcb41f;
      }

      .cls-31, .cls-67 {
        fill: #fedf8a;
      }

      .cls-67 {
        stroke: #febb19;
      }

      .cls-33 {
        fill: #ffc521;
      }

      .cls-34 {
        fill: #febb19;
      }

      .cls-35 {
        fill: #f8b684;
      }

      .cls-36 {
        fill: #edb2b4;
      }

      .cls-37 {
        fill: #3969b3;
      }

      .cls-38 {
        fill: #957dba;
      }

      .cls-39 {
        fill: #967ab7;
      }

      .cls-40 {
        fill: #31a48e;
      }

      .cls-41 {
        fill: #92a3d3;
      }
    </style>
  </defs>
  <path class="cls-14" d="M24.6,33h-9.6v-1.1h9.6c2.4,0,4.3-1.9,4.3-4.3h0v-14c0-6.9-5.6-12.5-12.4-12.6-6.9.1-12.5,5.7-12.5,12.6v1.8h-1.1v-1.8C2.7,6.1,8.6-.1,16.1-.3c7.5-.2,13.7,5.7,13.9,13.2v14.7c0,3-2.4,5.4-5.4,5.4.1,0,0,0,0,0Z"/>
  <path class="cls-15" d="M15.4,31.2h3.4c.6,0,1,.4,1,1h0v.6c0,.6-.5,1.1-1.1,1.1h-3.2c-.6,0-1.1-.5-1.1-1.1h0v-.6c0-.6.5-1,1-1Z"/>
  <path class="cls-6" d="M18.6,34.4h-3.1c-.9,0-1.6-.7-1.6-1.6v-.8c.1-.8.8-1.4,1.6-1.4h3.4c.8,0,1.5.7,1.5,1.5h0v.6c-.1.9-.8,1.6-1.8,1.7q0,0,0,0ZM14.9,32.2v.5c0,.3.3.6.6.6h3.1c.3,0,.6-.3.6-.6v-.6c0-.2-.2-.4-.4-.4h-3.4c-.2,0-.4.2-.5.5Z"/>
  <path class="cls-15" d="M7.9,14.3v11.1c0,.3-.2.6-.6.6h-2c-.3,0-.6-.3-.6-.6h0v-.7h-1.4c-.8.1-1.5-.4-1.6-1.2h0v-7.1c0-.8.7-1.5,1.6-1.4h1.4v-.7c0-.3.3-.6.6-.6h2.1c.3-.2.6.1.5.6h0Z"/>
  <path class="cls-6" d="M7.4,26.5h-2.1c-.6,0-1.2-.5-1.2-1.1h0v-.2h-.8c-1.1.1-2-.7-2.2-1.8v-7c0-1.1.9-2,2.1-1.9h.9v-.2c0-.7.5-1.2,1.2-1.2h2c.3-.1.6,0,.7.2.3.2.5.6.4,1v11c.2.7-.3,1.2-1,1.2h0ZM4.7,24.1h.6v1.3h2.2v-11.1h0c0-.1-2.3-.1-2.3-.1v1.3h-2.1c-.5,0-1,.4-1.1.9v6.8c.2.5.6.8,1.1.8h1.6Z"/>
  <line class="cls-5" x1="4.7" y1="15" x2="4.7" y2="24.7"/>
  <rect class="cls-6" x="4.1" y="15" width="1.1" height="9.6"/>
  <path class="cls-15" d="M24.9,14.3c0-.5.3-.7.6-.6h2.1c.3,0,.6.3.6.6h0v.7h1.4c.8,0,1.5.6,1.6,1.4v7h0c-.1.8-.8,1.4-1.6,1.3h-1.5v.7h0c0,.3-.3.6-.6.6h-2.1c-.3,0-.6-.2-.6-.6h0v-11.1s.1,0,.1,0Z"/>
  <path class="cls-6" d="M27.6,26.5h-2.1c-.6,0-1.1-.5-1.1-1.1h0v-11.1c0-.4.1-.8.5-1s.5-.2.7-.2h2c.6,0,1.1.5,1.1,1.1h0v.2h.9c.5-.1,1.1.1,1.4.5.4.4.6.9.7,1.4v7c0,.5-.3,1-.7,1.4-.4.3-1,.4-1.5.4h-.7c.1.7-.3,1.3-.9,1.4,0,0-.3,0-.3,0ZM25.5,14.2h0v11.1h2.1v-1.3h1.9c.5.1,1-.2,1.1-.7h0v-6.9c0-.2-.1-.5-.3-.7-.2-.2-.4-.2-.6-.2h-2v-1.4h-2.2Z"/>
  <line class="cls-5" x1="28.2" y1="24.7" x2="28.2" y2="15"/>
  <rect class="cls-6" x="27.6" y="15" width="1.1" height="9.6"/>
  <g id="Layer_2" data-name="Layer 2">
    <g id="Layer_1-2" data-name="Layer 1-2">
      <g id="Layer_2-2" data-name="Layer 2-2">
        <g id="Layer_1-2-2" data-name="Layer 1-2-2">
          <path class="cls-14" d="M77.9,36.5h-18.6c-1.4,0-2.5-1.1-2.5-2.5V5.2c0-.6.2-1.2.6-1.7.5-.5,1.2-.8,1.9-.8h6.9v1.2h-6.9c-.4,0-.7,0-1,.4-.2.2-.3.5-.3.8v28.9c0,.7.6,1.3,1.4,1.3h18.6c.7,0,1.3-.6,1.3-1.3V5.2c0-.7-.6-1.3-1.3-1.3h-7v-1.2h6.9c1.4,0,2.5,1.1,2.5,2.4h0v28.8c0,1.4-1.1,2.6-2.5,2.6Z"/>
          <circle class="cls-19" cx="63.7" cy="27.5" r=".6"/>
          <path class="cls-4" d="M63.7,28.6c-.6,0-1-.4-1-1s.4-1,1-1,1,.4,1,1-.5.9-1,1ZM63.7,27.3s-.2.1-.2.2,0,.2.2.2.2-.1.2-.2h0c0-.1,0-.2-.2-.2h0Z"/>
          <circle class="cls-19" cx="65.7" cy="27.5" r=".6"/>
          <path class="cls-4" d="M65.7,28.6c-.6,0-1-.4-1-1s.4-1,1-1,1,.4,1,1-.4.9-1,1ZM65.7,27.3s-.2.1-.2.2,0,.2.2.2.2-.1.2-.2h0c0-.1,0-.2-.2-.2q0,0,0,0Z"/>
          <circle class="cls-19" cx="67.8" cy="27.5" r=".6"/>
          <path class="cls-4" d="M67.8,28.6c-.6,0-1-.5-1-1s.5-1,1-1,1,.5,1,1-.4,1-1,1ZM67.8,27.3s-.2.1-.2.2,0,.2.2.2.2-.1.2-.2h0c0-.1,0-.2-.2-.2h0Z"/>
          <circle class="cls-19" cx="69.9" cy="27.5" r=".6"/>
          <path class="cls-4" d="M69.9,28.6c-.6,0-1-.4-1-1s.4-1,1-1,1,.4,1,1-.5.9-1,1ZM69.9,27.3s-.2.1-.2.2,0,.2.2.2.2-.1.2-.2h0c0-.1,0-.2-.2-.2h0Z"/>
          <circle class="cls-19" cx="71.9" cy="27.5" r=".6"/>
          <path class="cls-4" d="M71.9,28.6c-.6,0-1-.4-1-1s.4-1,1-1,1,.4,1,1-.4.9-1,1ZM71.9,27.3s-.2.1-.2.2,0,.2.2.2.2-.1.2-.2,0-.2-.2-.2Z"/>
          <circle class="cls-19" cx="74" cy="27.5" r=".6"/>
          <path class="cls-4" d="M74,28.6c-.6,0-1-.4-1-1s.4-1,1-1,1,.4,1,1-.4.9-1,1ZM74,27.3s-.2.1-.2.2,0,.2.2.2.2-.1.2-.2h0c0-.1,0-.2-.2-.2t0,0Z"/>
          <path class="cls-14" d="M71.6,7.7h-6V.1h6v7.6ZM66.8,6.5h3.6V1.3h-3.6v5.2Z"/>
          <circle class="cls-19" cx="68.6" cy="15.5" r="2.8"/>
          <path class="cls-4" d="M68.6,18.8c-1.8.1-3.4-1.3-3.5-3.2s1.3-3.4,3.2-3.5h.4c1.8-.1,3.4,1.3,3.5,3.2s-1.3,3.4-3.2,3.5h-.4ZM68.6,13.3c-1.2,0-2.2,1-2.2,2.2h0c0,1.2.9,2.2,2.1,2.2h0c1.2-.1,2.2-1.2,2.1-2.4,0-1.1-1-2-2.1-2h0Z"/>
          <path class="cls-19" d="M73.9,24.3h-10.1c0-2.8,2.2-5.1,5-5.1h0c2.8-.1,5,2.1,5.1,4.9v.2h0Z"/>
          <path class="cls-4" d="M73.9,25h-10.1c-.3,0-.6-.3-.6-.6h0c0-3.1,2.5-5.7,5.7-5.7s5.6,2.5,5.7,5.5v.2c-.2.3-.4.5-.7.6ZM64.4,23.8h8.8c-.3-2.4-2.5-4.2-4.9-3.9-2.1.2-3.7,1.8-3.9,3.9Z"/>
        </g>
      </g>
    </g>
  </g>
  <g id="Layer_2-2-2" data-name="Layer 2-2-2">
    <g id="Layer_1-2-2-2" data-name="Layer 1-2-2-2">
      <g id="Layer_2-2-3" data-name="Layer 2-2-3">
        <g id="Layer_1-2-2-3" data-name="Layer 1-2-2-3">
          <path class="cls-14" d="M116.4,37.6h-.7c-3.9-1-7.5-3.1-10.4-6-.3-.3-.5-.6-.8-.9-.2-.2-.2-.3-.4-.5-2.6-3.2-4-7.2-4-11.3V6.6l.3-.2c9.4-5.6,21.1-5.6,30.6,0l.3.2v13.2c0,8.3-6,15.6-14.9,17.8h0ZM116,36.3h.3c8.2-2,13.8-8.8,13.8-16.6V7.2c-8.9-5.2-19.9-5.2-28.8,0v11.7c0,3.8,1.3,7.5,3.6,10.5.2.2.2.3.4.5.2.3.4.6.7.8,2.7,2.8,6.2,4.8,10,5.6Z"/>
          <path class="cls-14" d="M116.3,33.5h-.5c-3.1-.8-5.9-2.3-8.1-4.6-.2-.2-.3-.4-.5-.5l-.5-.5c-2-2.5-3-5.6-3-8.8v-9.5h.3c7.3-4.4,16.3-4.4,23.6-.1h.3v10.3c0,6.5-4.8,12.1-11.6,13.7h0ZM116,32.3h.2c6.2-1.5,10.5-6.6,10.5-12.5v-9.6c-6.8-3.9-15.1-3.9-21.8,0v8.9c0,2.9.9,5.8,2.7,8.1.2.1.3.3.5.5l.5.5c1.9,2,4.5,3.5,7.4,4.1Z"/>
          <path class="cls-29" d="M114.8,20.3v3.9h2.4v-3.9c1.3-.7,1.7-2.2,1.1-3.5-.7-1.3-2.2-1.7-3.5-1.1-1.2.7-1.7,2.2-1.1,3.4.2.6.6,1,1.1,1.2Z"/>
          <path class="cls-11" d="M117.7,24.7h-3.5v-4c-.5-.3-.9-.8-1.1-1.3-.8-1.6,0-3.5,1.4-4.3,1.6-.8,3.5-.1,4.3,1.4h0c.7,1.4.3,3.2-1.1,4.1v4.1h0ZM115.3,23.7h1.2v-3.7h.3c1-.6,1.4-1.8.8-2.8-.5-1-1.7-1.4-2.7-.8-1,.5-1.3,1.7-.8,2.7.2.4.5.7.8.9h.4c0,.1,0,3.7,0,3.7Z"/>
        </g>
      </g>
    </g>
  </g>
  <g id="Layer_2-3" data-name="Layer 2-3">
    <g id="Layer_1-2-3" data-name="Layer 1-2-3">
      <g id="Layer_2-2-4" data-name="Layer 2-2-4">
        <g id="Layer_1-2-2-4" data-name="Layer 1-2-2-4">
          <path class="cls-14" d="M176.8,30.8h-25.8c-1.9-.1-3.4-1.6-3.4-3.5V7.3c0-1.9,1.6-3.4,3.5-3.4h30c1.9,0,3.5,1.6,3.4,3.5v8.5h-1.2V7.4c0-1.3-1-2.3-2.3-2.3h-30c-1.3,0-2.3,1-2.3,2.3v20c0,1.3,1,2.3,2.3,2.3h25.8s0,1.1,0,1.1Z"/>
          <path class="cls-14" d="M173.1,33.9h-14l4.4-4.4h5.4l4.2,4.4h0ZM161.8,32.7h8.4l-2-2h-4.4l-2,2Z"/>
          <path class="cls-14" d="M185.6,33.7h-7.5c-1,0-1.9-.8-1.9-1.9v-14.6c0-1,.8-1.9,1.9-1.9h7.5c1,0,1.9.9,1.8,1.9v14.6c0,1-.7,1.9-1.8,1.9h0ZM178.2,16.4c-.4,0-.7.3-.7.7h0v14.7c0,.4.3.7.7.7h7.5c.4,0,.7-.3.7-.7v-14.6c0-.4-.3-.7-.7-.7h-7.5Z"/>
          <circle class="cls-14" cx="181.9" cy="31.2" r=".7"/>
          <path class="cls-23" d="M161,12.4c2.7-1.5,6-1.5,8.7,0v3.9c0,1.7-.8,3.3-2.1,4.3l-2,1.4c-.1.1-.4.2-.5,0h0l-2-1.6c-1.3-1-2.1-2.6-2.1-4.2v-3.8h0Z"/>
          <path class="cls-22" d="M165.3,22.8c-.2,0-.4-.1-.6-.2l-2-1.6c-1.4-1.1-2.3-2.9-2.3-4.7v-4.2l.3-.2c2.9-1.6,6.3-1.6,9.2,0l.3.2v4.2c0,1.9-.9,3.6-2.3,4.8l-2,1.4c0,.1-.3.3-.6.3h0ZM161.6,12.8v3.5c0,1.5.7,2.9,1.9,3.8l1.9,1.5,1.9-1.3c1.2-.9,1.9-2.3,1.9-3.8v-3.5c-2.4-1.4-5.2-1.4-7.6-.2h0Z"/>
          <rect class="cls-14" x="181.1" y="17.1" width="1.6" height="1.2"/>
        </g>
      </g>
    </g>
  </g>
  <g id="Layer_2-4" data-name="Layer 2-4">
    <g id="Layer_1-2-4" data-name="Layer 1-2-4">
      <circle class="cls-31" cx="204.6" cy="27.7" r=".6"/>
      <path class="cls-34" d="M204.6,28.9c-.6,0-1.2-.5-1.2-1.2s.5-1.2,1.2-1.2,1.2.5,1.2,1.2h0c0,.6-.5,1.1-1.2,1.2h0ZM204.6,27.6h0q0,.2,0,0c0,.1,0,0,0,0Z"/>
      <circle class="cls-31" cx="208.7" cy="27.7" r=".6"/>
      <path class="cls-34" d="M208.7,28.9c-.6,0-1.2-.5-1.2-1.2s.5-1.2,1.2-1.2,1.2.5,1.2,1.2h0c0,.6-.6,1.1-1.2,1.2h0ZM208.7,27.6s0,.1,0,0q0,.2,0,0Z"/>
      <circle class="cls-31" cx="204.6" cy="18.2" r=".6"/>
      <path class="cls-34" d="M204.6,19.4c-.6,0-1.2-.5-1.2-1.2s.5-1.2,1.2-1.2,1.2.5,1.2,1.2h0c0,.7-.6,1.2-1.2,1.2h0ZM204.6,18.2h0Z"/>
      <circle class="cls-31" cx="208.7" cy="18.2" r=".6"/>
      <path class="cls-34" d="M208.7,19.4c-.6,0-1.2-.5-1.2-1.2s.5-1.2,1.2-1.2,1.2.5,1.2,1.2h0c0,.7-.6,1.2-1.2,1.2h0ZM208.7,18.2h0Z"/>
      <circle class="cls-31" cx="204.6" cy="8.2" r=".6"/>
      <path class="cls-34" d="M204.6,9.4c-.6,0-1.2-.5-1.2-1.1h0c0-.6.5-1.1,1.2-1.2.6,0,1.1.6,1.1,1.3-.1.5-.5.9-1.1,1h0ZM204.6,8.1h0q0,.2,0,0h0Z"/>
      <circle class="cls-31" cx="208.7" cy="8.2" r=".6"/>
      <path class="cls-34" d="M208.7,9.4c-.6,0-1.2-.5-1.2-1.2s.5-1.2,1.2-1.2,1.2.5,1.2,1.2h0c0,.6-.6,1.1-1.2,1.2h0ZM208.7,8.1h0q0,.2,0,0Z"/>
      <path class="cls-14" d="M226.1,33.4h-25.5c-1,0-1.8-.8-1.8-1.8h0V4.5c0-1,.8-1.8,1.8-1.8h25.5c1,0,1.8.8,1.8,1.8h0v27.1c0,.9-.8,1.8-1.8,1.8h0ZM200.5,3.8c-.4,0-.7.3-.7.7v27.1c0,.4.3.7.7.7h25.5c.4,0,.7-.3.7-.7V4.5c0-.4-.3-.7-.7-.7h-25.5Z"/>
      <path class="cls-14" d="M227.4,13.8h-28.1c-.3,0-.6-.2-.6-.6h0c0-.3.2-.6.5-.6h28.2c.3,0,.6.3.5.7,0,.3-.3.5-.5.5h0Z"/>
      <path class="cls-14" d="M227.4,23.2h-28.1c-.3,0-.6-.2-.6-.6h0c0-.3.2-.6.5-.6h28.2c.3,0,.6.3.6.6-.1.3-.3.6-.6.6h0Z"/>
      <circle class="cls-31" cx="227.4" cy="24.8" r="8.1"/>
      <path class="cls-34" d="M227.4,33.4c-4.8,0-8.7-3.9-8.7-8.7s3.9-8.7,8.7-8.7,8.7,3.9,8.7,8.7-3.9,8.7-8.7,8.7h0ZM227.4,17.3c-4.1,0-7.5,3.3-7.6,7.4,0,4.1,3.3,7.5,7.4,7.6,4.1,0,7.5-3.3,7.6-7.4v-.2c0-4.1-3.3-7.4-7.4-7.4h0Z"/>
      <path class="cls-34" d="M227.6,28h0c-.3,0-.5-.2-.6-.4l-1-3.4-.4,1c-.1.2-.3.4-.5.4h-3.8c-.3,0-.6-.3-.6-.6s.3-.6.6-.6h3.4l1-2c.1-.2.3-.4.6-.4s.5.2.5.4l1.1,3.6.7-1.2c.1-.2.3-.3.5-.3h4.2c.3-.1.6.1.6.5h0c0,.3-.2.6-.6.6h-3.9c0,.1-1.3,2.1-1.3,2.1,0,.2-.2.3-.5.3Z"/>
    </g>
  </g>
  <g id="Layer_2-5" data-name="Layer 2-5">
    <g id="Layer_1-2-5" data-name="Layer 1-2-5">
      <g id="Layer_2-2-5" data-name="Layer 2-2-5">
        <g id="Layer_1-2-2-5" data-name="Layer 1-2-2-5">
          <g id="Group_1976" data-name="Group 1976">
            <path class="cls-14" d="M266.9,35.7c-9.3,0-16.8-7.5-16.8-16.8s7.5-16.8,16.8-16.8,16.8,7.5,16.8,16.8h0c0,9.2-7.5,16.8-16.8,16.8ZM266.9,3.3c-8.6,0-15.5,7-15.5,15.5s7,15.5,15.5,15.5,15.5-7,15.5-15.5h0c.1-8.5-6.9-15.4-15.5-15.5Z"/>
            <path id="Path_113" data-name="Path 113" class="cls-26" d="M266.9,18.9l-5.5-15.2c8.4-3.1,17.7,1.3,20.8,9.7h0c.7,1.8,1,3.6,1,5.5h-16.3Z"/>
            <path class="cls-39" d="M283.2,19.6h-16.2c-.3,0-.5-.2-.6-.4l-5.5-15.2c-.1-.3.1-.7.4-.8C270,0,279.7,4.5,282.9,13.2c.8,1.8,1.1,3.8,1,5.8-.1.2-.4.5-.7.6h0ZM267.4,18.2h15.1c-.1-1.6-.4-3.2-.9-4.7-2.9-7.8-11.4-11.9-19.3-9.4l5.1,14.1h0Z"/>
            <path id="Path_114" data-name="Path 114" class="cls-26" d="M266.9,18.9l3.4-15.7c7.4,1.6,12.7,8.1,12.8,15.7h-16.2,0Z"/>
            <path class="cls-39" d="M283.2,19.6h-16.2c-.2,0-.4-.1-.5-.3-.1-.1-.1-.3-.1-.5l3.4-15.7c0-.2.2-.3.2-.4h.5c7.7,1.6,13.2,8.4,13.2,16.3s-.1.3-.2.4c0,.2-.2.3-.3.3h0ZM267.7,18.2h14.8c-.3-6.8-5-12.7-11.7-14.4l-3.1,14.4h0Z"/>
          </g>
        </g>
      </g>
    </g>
  </g>
  <g id="Layer_2-6" data-name="Layer 2-6">
    <g id="Layer_1-2-6" data-name="Layer 1-2-6">
      <g id="Group_102" data-name="Group 102">
        <path class="cls-14" d="M305.5,33.7c-4.6,0-8.3-3.7-8.3-8.3s3.1-7.7,7.2-8.2c.4-3.5,2-6.7,4.7-9,2.7-2.4,6.3-3.7,10-3.4,5.4.4,10.1,3.9,12,8.9,5.5,0,10,4.4,10,10s-4.4,10-10,10h-25.6ZM318,5.9c-3.1,0-6,1.1-8.3,3.1-2.5,2.2-4.1,5.4-4.3,8.7v.5h-.4c-3.7.3-6.6,3.4-6.6,7.2s3.2,7.1,7.1,7.1h25.7c4.6-.4,8.2-4.2,8.2-8.8h0c0-4.8-3.8-8.7-8.6-8.9h-.4l-.2-.3c-1.6-4.9-6-8.2-11.1-8.6h-1.1Z"/>
        <circle id="Ellipse_59" data-name="Ellipse 59" class="cls-41" cx="318.2" cy="20" r="6.9"/>
        <path class="cls-21" d="M318.2,27.5c-4.1,0-7.5-3.4-7.5-7.5s3.4-7.5,7.5-7.5,7.5,3.4,7.5,7.5h0c0,4.1-3.4,7.5-7.5,7.5ZM318.2,13.7c-3.5,0-6.3,2.8-6.3,6.3s2.8,6.3,6.3,6.3,6.3-2.8,6.3-6.3h0c0-3.4-2.8-6.3-6.3-6.3h0Z"/>
        <polygon class="cls-32" points="317.2 22.8 314.8 20.5 315.5 19.7 317.1 21.2 320.6 17.6 321.5 18.4 317.2 22.8"/>
      </g>
    </g>
  </g>
  <g id="Layer_2-7" data-name="Layer 2-7">
    <g id="Layer_1-2-7" data-name="Layer 1-2-7">
      <g id="Group_1970" data-name="Group 1970">
        <g id="Group_125" data-name="Group 125">
          <g id="Group_114" data-name="Group 114">
            <g id="Group_86" data-name="Group 86">
              <g id="Group_84" data-name="Group 84">
                <circle id="Ellipse_33" data-name="Ellipse 33" class="cls-63" cx="369.4" cy="5.3" r="2.3"/>
                <circle id="Ellipse_34" data-name="Ellipse 34" class="cls-63" cx="369.4" cy="31.9" r="2.3"/>
              </g>
              <g id="Group_85" data-name="Group 85">
                <circle id="Ellipse_35" data-name="Ellipse 35" class="cls-63" cx="382.7" cy="18.6" r="2.3"/>
                <circle id="Ellipse_36" data-name="Ellipse 36" class="cls-63" cx="356.1" cy="18.6" r="2.3"/>
              </g>
              <line id="Line_1" data-name="Line 1" class="cls-63" x1="369.4" y1="7.7" x2="369.4" y2="29.6"/>
              <line id="Line_2" data-name="Line 2" class="cls-63" x1="358.5" y1="18.6" x2="380.4" y2="18.6"/>
            </g>
            <circle id="Ellipse_37" data-name="Ellipse 37" class="cls-49" cx="369.4" cy="18.6" r="5.4"/>
          </g>
        </g>
      </g>
    </g>
  </g>
  <g id="Layer_1-2-8" data-name="Layer 1-2-8">
    <g id="Layer_2-2-6" data-name="Layer 2-2-6">
      <g id="Layer_1-2-2-6" data-name="Layer 1-2-2-6">
        <path class="cls-14" d="M424.1,35.5h-14l4.4-4.4h5.4l4.2,4.4ZM412.8,34.4h8.4l-2-2h-4.4l-2,2Z"/>
      </g>
    </g>
  </g>
  <path class="cls-14" d="M432.1,32.4h-30.1c-1.9,0-3.4-1.6-3.4-3.5V8.9c0-1.9,1.5-3.4,3.4-3.4h30.1c1.9,0,3.4,1.5,3.4,3.4v20c.1,1.9-1.5,3.5-3.4,3.5ZM402,6.7c-1.2,0-2.3,1-2.3,2.3h0v20c0,1.2,1,2.2,2.3,2.2h30.1c1.2,0,2.3-1,2.3-2.3V8.9c0-1.2-1-2.3-2.3-2.3h-30.1Z"/>
  <path id="Path_8604" data-name="Path 8604" class="cls-13" d="M420.5,17.3c1.4.2,2.5,1.4,2.5,2.9,0,0,.1,2.4-2.9,5.5,0,0-1-1.3-2.1-2.6"/>
  <path class="cls-40" d="M420.1,26.6l-2.5-3.1.9-.7,1.6,2.1c2.3-2.6,2.3-4.5,2.3-4.5,0-1.2-.8-2.1-2-2.3v-1.2c1.8.2,3.1,1.7,3.1,3.4s.1,2.6-3,5.8c0,0-.4.5-.4.5Z"/>
  <path id="Path_8605" data-name="Path 8605" class="cls-32" d="M421.2,20.3c.1.6-.4,1.1-1,1.2h0c-.4,0-.7-.1-.9-.4.3-.6.6-1.3.8-2h0c.5.1,1.1.6,1.1,1.2h0Z"/>
  <path class="cls-40" d="M420.1,22.1c-.5,0-1-.2-1.3-.5l-.2-.2.2-.4c.1-.2.2-.5.3-.7.2-.4.3-.8.5-1.2v-.5h.6c1,0,1.8.8,1.8,1.8-.2.9-1,1.7-1.9,1.7ZM419.9,20.9h.2c.4,0,.5-.5.5-.6,0-.2-.1-.3-.2-.5-.1.3-.2.5-.4.8,0,.1-.1.2-.1.3Z"/>
  <path id="Path_8603" data-name="Path 8603" class="cls-13" d="M415.7,25.6s4.9-5.1,4.5-8.8c0-2.5-2-4.5-4.5-4.5h0c-2.5,0-4.5,2-4.5,4.5h0c-.3,3.8,4.5,8.8,4.5,8.8Z"/>
  <path class="cls-40" d="M415.7,26.5l-.4-.5c-.2-.2-5-5.3-4.7-9.3,0-2.8,2.3-5.1,5.1-5.1h.1c2.8,0,5.1,2.3,5.1,5.1.4,3.9-4.5,9-4.7,9.3l-.5.5ZM415.7,12.9c-2.2-.1-3.9,1.6-4,3.8v.2c-.2,2.9,2.8,6.6,4,8,1.2-1.3,4.3-5.1,4-7.9,0-2.3-1.8-4.1-4-4.1Z"/>
  <ellipse id="Ellipse_584" data-name="Ellipse 584" class="cls-32" cx="415.7" cy="17.1" rx="2.3" ry="2.5"/>
  <path class="cls-40" d="M415.7,20.1c-1.7,0-3-1.3-3-3h0c0-1.8,1.3-3.1,3-3.1s3,1.3,3,3-1.3,3.1-3,3.1ZM415.7,15.2c-1,.1-1.8.9-1.8,1.9-.1,1,.7,1.9,1.7,1.9,1,.1,1.9-.7,1.9-1.7v-.3c0-.9-.8-1.7-1.8-1.8h0Z"/>
  <g id="Group_2037" data-name="Group 2037">
    <g id="Group_2021" data-name="Group 2021">
      <path id="Path_2367" data-name="Path 2367" class="cls-12" d="M467.1,35.8l-10.3-5.9c-2.1-1.4-3.5-3.7-3.5-6.3V2.8h27.6v20.8c0,2.5-1.4,4.9-3.5,6.3l-10.3,5.9h0ZM454.5,4v19.6c.1,2.2,1.2,4.1,3,5.3l9.7,5.6,9.7-5.6c1.8-1.2,2.9-3.1,2.9-5.3V4h-25.3Z"/>
    </g>
    <g id="Group_2036" data-name="Group 2036">
      <g id="Group_2022" data-name="Group 2022">
        <rect id="Rectangle_2337" data-name="Rectangle 2337" class="cls-25" x="463.5" y="8.4" width="7.6" height="6.8"/>
        <path id="Path_2368" data-name="Path 2368" class="cls-10" d="M471.7,15.8h-8.8V7.8h8.8v8ZM464,14.7h6.5v-5.7h-6.5v5.7Z"/>
      </g>
      <g id="Group_2023" data-name="Group 2023">
        <rect id="Rectangle_2338" data-name="Rectangle 2338" class="cls-25" x="459.1" y="11.5" width="8" height="15"/>
        <path id="Path_2369" data-name="Path 2369" class="cls-10" d="M467.7,27.1h-9.1V10.9h9.1v16.2ZM459.7,25.9h6.8v-13.9h-6.8v13.9Z"/>
      </g>
      <g id="Group_2024" data-name="Group 2024">
        <rect id="Rectangle_2339" data-name="Rectangle 2339" class="cls-25" x="467.1" y="15.3" width="8" height="11.2"/>
        <path id="Path_2370" data-name="Path 2370" class="cls-10" d="M475.6,27.1h-9.1v-12.4h9.1v12.4ZM467.6,25.9h6.8v-10.1h-6.8v10.1Z"/>
      </g>
      <g id="Group_2025" data-name="Group 2025">
        <line id="Line_597" data-name="Line 597" class="cls-5" x1="461" y1="14.2" x2="464.9" y2="14.2"/>
        <rect id="Rectangle_2340" data-name="Rectangle 2340" class="cls-10" x="461" y="13.6" width="3.9" height="1.1"/>
      </g>
      <g id="Group_2026" data-name="Group 2026">
        <line id="Line_598" data-name="Line 598" class="cls-5" x1="461" y1="16.6" x2="464.9" y2="16.6"/>
        <rect id="Rectangle_2341" data-name="Rectangle 2341" class="cls-10" x="461" y="16" width="3.9" height="1.1"/>
      </g>
      <g id="Group_2027" data-name="Group 2027">
        <line id="Line_599" data-name="Line 599" class="cls-5" x1="461" y1="19" x2="464.9" y2="19"/>
        <rect id="Rectangle_2342" data-name="Rectangle 2342" class="cls-10" x="461" y="18.4" width="3.9" height="1.1"/>
      </g>
      <g id="Group_2028" data-name="Group 2028">
        <line id="Line_600" data-name="Line 600" class="cls-5" x1="461" y1="21.4" x2="464.9" y2="21.4"/>
        <rect id="Rectangle_2343" data-name="Rectangle 2343" class="cls-10" x="461" y="20.8" width="3.9" height="1.1"/>
      </g>
      <g id="Group_2029" data-name="Group 2029">
        <line id="Line_601" data-name="Line 601" class="cls-5" x1="461" y1="23.8" x2="464.9" y2="23.8"/>
        <rect id="Rectangle_2344" data-name="Rectangle 2344" class="cls-10" x="461" y="23.2" width="3.9" height="1.1"/>
      </g>
      <g id="Group_2030" data-name="Group 2030">
        <line id="Line_602" data-name="Line 602" class="cls-5" x1="470" y1="17.4" x2="470" y2="19"/>
        <rect id="Rectangle_2345" data-name="Rectangle 2345" class="cls-10" x="469.4" y="17.4" width="1.1" height="1.6"/>
      </g>
      <g id="Group_2031" data-name="Group 2031">
        <line id="Line_603" data-name="Line 603" class="cls-5" x1="472.4" y1="17.4" x2="472.4" y2="19"/>
        <rect id="Rectangle_2346" data-name="Rectangle 2346" class="cls-10" x="471.9" y="17.4" width="1.1" height="1.6"/>
      </g>
      <g id="Group_2032" data-name="Group 2032">
        <line id="Line_604" data-name="Line 604" class="cls-5" x1="470" y1="20.1" x2="470" y2="21.7"/>
        <rect id="Rectangle_2347" data-name="Rectangle 2347" class="cls-10" x="469.4" y="20.1" width="1.1" height="1.6"/>
      </g>
      <g id="Group_2033" data-name="Group 2033">
        <line id="Line_605" data-name="Line 605" class="cls-5" x1="472.4" y1="20.1" x2="472.4" y2="21.7"/>
        <rect id="Rectangle_2348" data-name="Rectangle 2348" class="cls-10" x="471.9" y="20.1" width="1.1" height="1.6"/>
      </g>
      <g id="Group_2034" data-name="Group 2034">
        <line id="Line_606" data-name="Line 606" class="cls-5" x1="470" y1="22.7" x2="470" y2="24.3"/>
        <rect id="Rectangle_2349" data-name="Rectangle 2349" class="cls-10" x="469.4" y="22.7" width="1.1" height="1.6"/>
      </g>
      <g id="Group_2035" data-name="Group 2035">
        <line id="Line_607" data-name="Line 607" class="cls-5" x1="472.4" y1="22.7" x2="472.4" y2="24.3"/>
        <rect id="Rectangle_2350" data-name="Rectangle 2350" class="cls-10" x="471.9" y="22.7" width="1.1" height="1.6"/>
      </g>
    </g>
  </g>
  <g id="Layer_2-8" data-name="Layer 2-8">
    <g id="Layer_1-2-9" data-name="Layer 1-2-9">
      <g id="Group_3" data-name="Group 3">
        <path id="Path_17" data-name="Path 17" class="cls-63" d="M18.3,82.2C2,70.6.9,63.6.9,63.4c-.3-.9-.4-1.8-.4-2.8,0-5,4.1-9.1,9.2-9,4.1,0,7.6,2.8,8.7,6.7,1.3-4.8,6.4-7.7,11.2-6.3,3.9,1.1,6.7,4.7,6.7,8.8s0,1.9-.4,2.8h0c0-.2-.8,6.8-17.6,18.6"/>
        <path id="Path_18" data-name="Path 18" class="cls-58" d="M10.2,67h5l2-4.3,2.5,8.3,2.4-4h6.8"/>
      </g>
    </g>
  </g>
  <g id="Layer_2-9" data-name="Layer 2-9">
    <g id="Layer_1-2-10" data-name="Layer 1-2-10">
      <g id="Group_4" data-name="Group 4">
        <path id="Path_19" data-name="Path 19" class="cls-63" d="M52.9,81.5l.3-19.8,10.6,6.3v-6.8l11.8,6.3v-6.3l10.3,6.6v13.7h-33Z"/>
        <path id="Path_20" data-name="Path 20" class="cls-63" d="M78.2,62.9l.8-12.5h3l.8,15.5s-4.6-3-4.6-3Z"/>
        <rect id="Rectangle_11" data-name="Rectangle 11" class="cls-64" x="57.4" y="77.2" width="2.7" height="4.3"/>
        <rect id="Rectangle_12" data-name="Rectangle 12" class="cls-64" x="68" y="77.2" width="2.7" height="4.3"/>
        <rect id="Rectangle_13" data-name="Rectangle 13" class="cls-64" x="79.2" y="77.2" width="2.7" height="4.3"/>
      </g>
    </g>
  </g>
  <g id="Layer_2-10" data-name="Layer 2-10">
    <g id="Layer_1-2-11" data-name="Layer 1-2-11">
      <line class="cls-63" x1="134.2" y1="62" x2="134.2" y2="74"/>
      <polygon class="cls-63" points="115.2 54.1 96.5 62.1 115.2 69.9 134.2 62 115.2 54.1"/>
      <polyline class="cls-63" points="128.9 64.2 128.9 73.8 115.3 79.1 102.3 73.7 102.3 64.5"/>
      <circle class="cls-42" cx="134.2" cy="77.1" r="3.1"/>
    </g>
  </g>
  <g id="Layer_2-11" data-name="Layer 2-11">
    <g id="Layer_1-2-12" data-name="Layer 1-2-12">
      <polyline class="cls-67" points="168.2 55.2 176.8 55.2 174.6 52.7 176.8 50.1 168.2 50.1 168.2 58"/>
      <path class="cls-63" d="M168.2,58h0c6,0,10.9,4.8,10.9,10.8v10.2h-21.9v-10.2c.1-6,5-10.8,11-10.8Z"/>
      <line class="cls-63" x1="155.3" y1="69" x2="181.1" y2="69"/>
      <polyline class="cls-63" points="181.4 82.4 181.4 79 155.3 79 155.3 82.4"/>
      <rect class="cls-63" x="153.4" y="82.4" width="29.8" height="3"/>
      <line class="cls-63" x1="161.9" y1="69" x2="161.9" y2="79"/>
      <line class="cls-63" x1="166" y1="69" x2="166" y2="79"/>
      <line class="cls-63" x1="170.3" y1="69" x2="170.3" y2="79"/>
      <line class="cls-63" x1="174.5" y1="69" x2="174.5" y2="79"/>
    </g>
  </g>
  <g id="Layer_2-12" data-name="Layer 2-12">
    <g id="Layer_1-2-13" data-name="Layer 1-2-13">
      <polygon class="cls-63" points="202.1 63.9 233.4 63.9 217.8 55.1 202.1 63.9"/>
      <line class="cls-63" x1="206.9" y1="63.9" x2="206.9" y2="77.2"/>
      <line class="cls-63" x1="214.4" y1="63.9" x2="214.4" y2="77.2"/>
      <line class="cls-63" x1="221.9" y1="63.9" x2="221.9" y2="77.2"/>
      <line class="cls-63" x1="228.8" y1="63.9" x2="228.8" y2="77.2"/>
      <polyline class="cls-63" points="231.9 81 231.9 77.2 203.6 77.2 203.6 81"/>
      <rect class="cls-63" x="201.5" y="81" width="32.5" height="3.3"/>
      <circle class="cls-56" cx="217.8" cy="59.8" r="1.1"/>
    </g>
  </g>
  <g id="Layer_2-13" data-name="Layer 2-13">
    <g id="Layer_1-2-14" data-name="Layer 1-2-14">
      <path class="cls-14" d="M279.5,63.3h-2.1v-4c0-5.3-4.3-9.7-9.7-9.7s-9.7,4.3-9.7,9.7h0v4h-2c-.7,0-1.2.6-1.2,1.3h0v20.7c0,.7.5,1.3,1.2,1.3h23.6c.7,0,1.3-.6,1.3-1.2h0v-20.9c0-.7-.6-1.2-1.4-1.2h0ZM259.5,59.3c0-4.5,3.7-8.2,8.2-8.2s8.2,3.7,8.2,8.2h0v4h-16.4v-4h0ZM279.3,85h-23.1v-20.3h23.1v20.3Z"/>
      <line class="cls-5" x1="268.2" y1="73" x2="268.2" y2="76.9"/>
      <rect class="cls-38" x="267.5" y="73" width="1.5" height="4"/>
      <path class="cls-14" d="M268.2,82c-4,0-7.2-3.2-7.2-7.2s3.2-7.2,7.2-7.2,4.3,1,5.6,2.7l-1.1.9c-2-2.5-5.5-2.9-8-.9s-2.9,5.5-.9,8,5.5,2.9,8,.9c.5-.4,1-1,1.4-1.6l1.3.7c-1.4,2.3-3.8,3.7-6.3,3.7Z"/>
    </g>
  </g>
  <g id="Layer_2-14" data-name="Layer 2-14">
    <g id="Layer_1-2-15" data-name="Layer 1-2-15">
      <g id="Layer_2-2-7" data-name="Layer 2-2-7">
        <g id="Layer_1-2-2-7" data-name="Layer 1-2-2-7">
          <circle class="cls-63" cx="317.7" cy="64" r="12"/>
          <circle class="cls-63" cx="317.7" cy="64" r="8.5"/>
          <circle class="cls-63" cx="317.7" cy="64" r="4.9"/>
          <polygon class="cls-66" points="308.4 79.6 309.9 85.2 313.9 78.3 306.7 74.1 302.7 81.1 308.4 79.6"/>
          <polygon class="cls-66" points="327 79.6 332.7 81.1 328.7 74.1 321.5 78.3 325.5 85.2 327 79.6"/>
        </g>
      </g>
    </g>
  </g>
  <g id="Layer_2-15" data-name="Layer 2-15">
    <g id="Layer_1-2-16" data-name="Layer 1-2-16">
      <g id="Layer_2-2-8" data-name="Layer 2-2-8">
        <g id="Layer_1-2-2-8" data-name="Layer 1-2-2-8">
          <path class="cls-52" d="M368.4,67.5c-4.5.2-8.4-3.4-8.5-7.9-.2-4.5,3.4-8.4,7.9-8.5h.6"/>
          <path class="cls-43" d="M369.4,51.1c4.5-.2,8.4,3.4,8.5,7.9.2,4.5-3.4,8.4-7.9,8.5h-.6"/>
          <line class="cls-52" x1="360" y1="59.3" x2="368.4" y2="59.3"/>
          <path class="cls-52" d="M368.4,83.9c-4.5.2-8.4-3.4-8.5-7.9-.2-4.5,3.4-8.4,7.9-8.5h.6"/>
          <path class="cls-43" d="M369.4,67.5c4.5-.2,8.4,3.4,8.5,7.9.2,4.5-3.4,8.4-7.9,8.5h-.6"/>
          <line class="cls-52" x1="360" y1="75.7" x2="368.4" y2="75.7"/>
        </g>
      </g>
    </g>
  </g>
  <g id="Layer_2-16" data-name="Layer 2-16">
    <g id="Layer_1-2-17" data-name="Layer 1-2-17">
      <path class="cls-20" d="M414.9,84.4h-2.7c-.3,0-.6-.4-.6-.7s0-.2.1-.3l2.1-4.4c.1-.2.2-.3.4-.4l1.2-.3-4.9-.2c-.2,0-.5-.2-.6-.4-.1-.2,0-.5.1-.7l2.8-3c-1.4-1.9-1.1-2.4-1-2.6.1-.3.4-.4.7-.4h0c.8-.2,1.5-.5,2.2-.8l-.5-2.5-.5-1.2-2.6.3c-.3,0-.6,0-.7-.4l-.8-2.6-1-1.1h-1.5c-.1,0-.2-.3-.3-.4l-.2-2-.5-2.8v-.3l.7-2.6v-2.4c.1-.3.3-.6.7-.7l3.9-.6c.2,0,.4,0,.5.2.1,0,.2.3.2.5v2.7c-.1,0,2.5-.4,2.5-.4.3,0,.5,0,.6.3l.5.7c.1,0,.1.2.1.3l.2,5.4,3.9,4.2,2.7,1.8h.1l1.7,2.1c.1.2.2.3.1.5l-.2,1,1.5-.9h.5l1.7.5c.3,0,.4.3.5.5l.3,2v.3l-.7,2.2h0c.3,0,.6,0,.8.3l.3.7c.1.3.1.6-.2.8l-2.5,2.1c-.1,0-.2,0-.4.2l-1.7.2-1.2.3-2,1.7c-.1,0-.2,0-.3.2l-2.6.4-1.2,2c-.1,0-.2.2-.3.3l-1.7.6h-.2v-.2ZM413.2,83h1.5l1.3-.5,1.3-2.1c.1-.2.3-.3.5-.3l2.8-.4,1.9-1.7h.3l1.5-.4h1.6l1.4-1.2c-.2,0-.5,0-.6-.2-.2-.2-.2-.4-.1-.6l1-3.2-.2-1.5-1-.3-1.8,1.1c-.3.2-.6,0-.8,0l-.5-.5c-.1,0-.2-.3-.1-.5l.2-1.2-1.5-1.7-2.7-1.8h-.1l-4-4.5c-.1,0-.2-.3-.2-.4l-.2-5.4v-.2c-.1,0-3.1.5-3.1.5-.2,0-.4,0-.5-.2-.1,0-.2-.3-.2-.5v-2.7c.1,0-2.5.4-2.5.4v2h0l-.6,2.7.5,4h.7c.2,0,.4,0,.6,0l1.3,1.4c0,0,.1,0,.1.2l.7,2.2,2.6-.3c.3,0,.6,0,.7.4l.7,1.8.7,3c.1.3-.1.6-.3.7-.8.5-1.7.9-2.7,1.2.3.5.6,1.1,1,1.6.2.2.2.6,0,.8l-2.3,2.4,4.8.2c.2,0,.4,0,.5.3l.4.8c.2.3,0,.7-.3.9h-.1l-2.6.6-1.6,3.2v-.2Z"/>
      <path class="cls-33" d="M430.3,58.2v7.7s.5,4.4-6.8,7.1c-7.3-2.7-6.8-7.1-6.8-7.1v-7.7"/>
      <path class="cls-16" d="M423.5,73.7h-.2c-7.7-2.9-7.2-7.7-7.2-7.9v-7.6h1.3v7.7c0,.2-.3,4,6.2,6.4,6.4-2.5,6.2-6.2,6.1-6.4v-7.7h1.3v7.7s.5,4.9-7.2,7.7h-.3,0Z"/>
      <polyline class="cls-33" points="430.3 58.8 430.3 55.9 427.3 55.9 427.3 57.5 425.4 57.5 425.4 55.5 421.5 55.5 421.5 57.5 419.6 57.5 419.6 56 416.6 56 416.6 58.8"/>
      <polygon class="cls-16" points="430.9 58.8 429.6 58.8 429.6 56.5 428 56.5 428 58.1 424.8 58.1 424.8 56.1 422.2 56.1 422.2 58.1 418.9 58.1 418.9 56.7 417.3 56.7 417.3 58.8 416 58.8 416 55.4 420.2 55.4 420.2 56.8 420.9 56.8 420.9 54.8 426 54.8 426 56.8 426.7 56.8 426.7 55.3 430.9 55.3 430.9 58.8"/>
      <line class="cls-5" x1="416.5" y1="59.9" x2="430.3" y2="59.9"/>
      <rect class="cls-16" x="416.5" y="59.3" width="13.8" height="1.3"/>
      <circle class="cls-33" cx="423.7" cy="65.2" r="1.1"/>
      <path class="cls-16" d="M423.7,66.9c-1,0-1.7-.8-1.7-1.8s.8-1.7,1.8-1.7,1.7.8,1.7,1.8h0c-.1.9-.9,1.7-1.8,1.7ZM423.7,64.7c-.3,0-.5.2-.5.5s.2.5.5.5.5-.2.5-.5-.2-.5-.5-.5h0Z"/>
      <line class="cls-5" x1="423.7" y1="66.3" x2="423.7" y2="67.8"/>
      <rect class="cls-16" x="423" y="66.3" width="1.3" height="1.5"/>
      <path class="cls-20" d="M404.8,71.8c-.3,0-.5,0-.6-.4l-.4-1.1-1.4.6c-.3,0-.6,0-.8-.2l-1.1-1.4c-.1,0-.2-.3-.2-.5s.1-.4.3-.4l1.3-.8,1.9-1.8c.1,0,.2,0,.3-.2l2.6-.5c.2,0,.5,0,.6.2l1,1.3.9.3c.2,0,.4.3.4.6v2.2c0,.2-.1.4-.4.6l-1.5.7h-.1l-2.7.6v.2h0ZM404.1,68.8h.3c.2,0,.3.2.3.4l.4,1.2,2.1-.5,1.1-.5v-1.4l-.6-.3c-.1,0-.2,0-.2-.2l-.9-1.1-2.1.4-1.8,1.7h-.1l-.7.5.4.5,1.6-.7h.2Z"/>
    </g>
  </g>
  <g id="Layer_2-17" data-name="Layer 2-17">
    <g id="Layer_1-2-18" data-name="Layer 1-2-18">
      <polygon class="cls-7" points="467.4 57.5 466.9 58.5 465.8 58.7 466.6 59.5 466.4 60.6 467.4 60.1 468.4 60.6 468.2 59.5 469 58.7 467.9 58.5 467.4 57.5"/>
      <polygon class="cls-7" points="467.4 78 466.9 79 465.8 79.2 466.6 80 466.4 81.1 467.4 80.5 468.4 81.1 468.2 80 469 79.2 467.9 79 467.4 78"/>
      <polygon class="cls-7" points="457.3 67.7 456.8 68.7 455.7 68.8 456.5 69.6 456.3 70.7 457.3 70.2 458.3 70.7 458.1 69.6 458.9 68.8 457.8 68.7 457.3 67.7"/>
      <polygon class="cls-7" points="477.8 67.7 477.3 68.7 476.2 68.8 477 69.6 476.7 70.7 477.8 70.2 478.8 70.7 478.6 69.6 479.4 68.8 478.3 68.7 477.8 67.7"/>
      <polygon class="cls-7" points="472.4 59.1 471.9 60.1 470.8 60.2 471.6 61 471.4 62.1 472.4 61.6 473.4 62.1 473.2 61 474 60.2 472.9 60.1 472.4 59.1"/>
      <polygon class="cls-7" points="462.1 76.8 461.6 77.8 460.5 78 461.4 78.7 461.1 79.8 462.1 79.3 463.1 79.8 462.9 78.7 463.8 78 462.6 77.8 462.1 76.8"/>
      <polygon class="cls-7" points="458.6 62.6 458.1 63.6 457 63.7 457.9 64.6 457.7 65.7 458.6 65.1 459.6 65.7 459.4 64.6 460.3 63.7 459.2 63.6 458.6 62.6"/>
      <polygon class="cls-7" points="476.4 72.8 475.9 73.8 474.8 74 475.6 74.8 475.4 75.9 476.4 75.3 477.4 75.9 477.2 74.8 478 74 476.9 73.8 476.4 72.8"/>
      <polygon class="cls-7" points="462.1 59.2 461.6 60.2 460.5 60.4 461.4 61.2 461.1 62.3 462.1 61.7 463.1 62.3 462.9 61.2 463.8 60.4 462.6 60.2 462.1 59.2"/>
      <polygon class="cls-7" points="472.4 76.9 471.9 78 470.8 78.1 471.6 78.9 471.4 80 472.4 79.5 473.4 80 473.2 78.9 474 78.1 472.9 78 472.4 76.9"/>
      <polygon class="cls-7" points="458.6 72.9 458.1 73.9 457 74.1 457.8 74.9 457.6 76 458.6 75.5 459.6 76 459.4 74.9 460.2 74.1 459.1 73.9 458.6 72.9"/>
      <polygon class="cls-7" points="476.3 62.7 475.9 63.7 474.7 63.8 475.5 64.6 475.4 65.8 476.3 65.2 477.3 65.8 477.2 64.6 478 63.8 476.9 63.7 476.3 62.7"/>
      <path class="cls-63" d="M455.8,54.3h23.2c1.9,0,3.5,1.6,3.5,3.5v22.8c0,1.9-1.6,3.5-3.5,3.5h-23.2c-1.9,0-3.5-1.6-3.5-3.5v-22.8c0-1.9,1.5-3.5,3.5-3.5Z"/>
    </g>
  </g>
  <g id="Layer_2-18" data-name="Layer 2-18">
    <g id="Layer_1-2-19" data-name="Layer 1-2-19">
      <g id="Layer_2-2-9" data-name="Layer 2-2-9">
        <g id="Layer_1-2-2-9" data-name="Layer 1-2-2-9">
          <path class="cls-53" d="M22.1,114.5v-10c0-2.4,1.9-4.3,4.3-4.3h0c2.4,0,4.3,1.9,4.3,4.3h0v10"/>
          <g id="djNDLY.tif">
            <path class="cls-63" d="M15.2,103h-7c-.8,0-1.4.6-1.4,1.4h0v1.9l-.9,2.9,1.8,2.5v3.1l3,2.1,3.2,7.2.8,4.3,3.9.5,2.9,1.8,1.1,2c.5.8,1.5,1.2,2.5.9l3.9-1c.7-.2,1.1-.9,1-1.6,0-.1-.1-.3-.1-.4l-.5-.7,1-1.1c.5-.6.5-1.4,0-2h0l-13.7-13.4v-9c-.2-.8-.8-1.4-1.5-1.4h0Z"/>
          </g>
          <path class="cls-32" d="M21.4,120.3c-1,0-1.9-.8-1.9-1.9h0v-8c0-1,.8-1.9,1.9-1.9h9.9c1,0,1.9.8,1.9,1.9h0v8c0,1-.8,1.9-1.9,1.9h-9.9Z"/>
          <path class="cls-42" d="M21.8,108h9.3c1.2,0,2.2,1,2.2,2.2v7.4c0,1.2-1,2.2-2.2,2.2h-9.3c-1.2,0-2.2-1-2.2-2.2v-7.4c0-1.2,1-2.2,2.2-2.2Z"/>
          <circle class="cls-53" cx="26.6" cy="115.1" r="1.2"/>
          <line class="cls-53" x1="26.6" y1="116.2" x2="26.6" y2="117.8"/>
        </g>
      </g>
    </g>
  </g>
  <g id="Layer_2-19" data-name="Layer 2-19">
    <g id="Layer_1-2-20" data-name="Layer 1-2-20">
      <path class="cls-24" d="M76.6,102.2c3.1,0,5.6,2.5,5.6,5.6v18.1c0,3.1-2.5,5.6-5.6,5.6h-18.1c-3.1,0-5.6-2.5-5.6-5.6v-18.1c0-3.1,2.5-5.6,5.6-5.6h18.1M76.6,101.1h-18.1c-3.7,0-6.8,3-6.8,6.8v18.1c0,3.7,3,6.8,6.8,6.8h18.1c3.7,0,6.8-3,6.8-6.8h0v-18.1c0-3.8-3.1-6.8-6.8-6.8h0Z"/>
      <path class="cls-30" d="M67.6,103.8l13.1,13.1-13.1,13.1-13.1-13.1,13.1-13.1M67.6,102.2l-14.7,14.7,14.7,14.7,14.7-14.7-14.7-14.7Z"/>
      <path class="cls-37" d="M67.6,109.6c2.8,0,5.3,1.7,6.4,4.2-4.1,2-8.8,1.9-12.8,0,1.1-2.5,3.6-4.1,6.4-4.1M67.5,108.5c-3.6,0-6.7,2.3-7.8,5.8,4.8,2.8,10.7,2.8,15.6,0-.9-3.5-4.1-5.9-7.8-5.9h0Z"/>
      <path class="cls-37" d="M60.7,117.5c2.2,1,4.6,1.6,7,1.6s4.7-.5,6.8-1.4c-.6,3.8-4.2,6.4-8,5.8-3.1-.5-5.5-2.9-5.8-6M59.5,115.7v1c0,4.5,3.6,8.1,8.1,8.1s8.1-3.6,8.1-8.1h0v-.8c-5,2.9-11.3,2.8-16.2-.2h0Z"/>
    </g>
  </g>
  <g id="Layer_2-20" data-name="Layer 2-20">
    <g id="Layer_1-2-21" data-name="Layer 1-2-21">
      <path class="cls-20" d="M126.3,125.3h0l-5,4.4-1.5.4c.4.2.9.5,1.3.6.5-.2,1-.4,1.5-.7l2.4-2.1c.7-.9,1.2-1.8,1.6-2.9,0,0-.2.2-.3.3ZM134.2,114.2c-.1,0-.3-.2-.4-.2h-2.2l-.6.5-.3-.3.4-.7.7.2h.5c.1,0,.2-.3.3-.4l.6-4.9s-.1-.2-.1-.3l-.9-1.7-.7-2.2c-.1-.2-.3-.4-.5-.4l-4.3-.5h-.4l-4,3.1s-.2.2-.2.3c-.2,1-.8,2.1-1.2,2.1h0c-1.2,0-1.6,1-1.8,1.8l-1.7.5-1.2-.8h-1.6c-.2,0-.5,0-.5.4l-.7,1.6-1,.9c-.3.3-.7.4-1.1.5v-1.2l-.8-2.1v-.2l-1.3-1.3c-.2-.2-.4-.2-.6-.2s-.4.3-.4.5l-.2,8.2-1.1.9-2.2-.2-.8-1.6c0-.2-.3-.3-.4-.3-.2,0-.4,0-.5.2l-1.6,1.6c-.2.2-.2.4,0,.6l3.2,8-.4.7v.4l.6,3.9c0,.2.2.4.4.5l3.2,1.3h.2s.2,0,.3-.1l.6-.3,1.1-.2c.8-.1,1.5-.3,2.2-.6,1-.4,2.1-.6,3.1-.5,1.3.1,2.7,0,4-.4h.2c-.5-.3-.9-.6-1.4-.9-.9.2-1.8.2-2.7.1-1.3-.1-2.5.1-3.7.6-.6.3-1.3.5-1.9.5l-1.2.2s0,0-.2.1l-.5.2-2.8-1-.5-3.3.5-.8v-.5l-3.2-8,.7-.7.6,1.1c0,.2.3.3.5.3l2.7.3h.4l1.5-1.2s.2-.3.2-.5l.2-7,.2.2.7,1.8-.2,1.4c0,.2,0,.4.2.5,0,0,.3.2.5.2h.7c.7,0,1.3-.3,1.9-.8l1.1-1.1v-.2l.6-1.3h.7l1.3.8h.5l2.4-.7c.2,0,.4-.3.4-.5,0,0,0-1.2.7-1.2h0c1.4,0,2.1-2,2.3-2.8l3.7-2.8,3.6.4.6,2,.9,1.5-.4,4h-.4c-.3-.2-.6,0-.7.2l-.9,1.5c-.1.2-.1.5.1.7l.9,1c.2.2.6.2.8,0l.9-.7h.8l-.8,3.4-1.4.7c-.1,0-.2,0-.2.2-.6.9-1.4,2.2-2.2,3.4-.1,1-.4,1.9-.7,2.8,1.5-1.7,2.7-3.5,3.9-5.4l1.5-.7c.2,0,.3-.2.3-.4l1-4.4c-.1,0-.1-.2-.2-.3h-.2Z"/>
      <path class="cls-2" d="M128.4,118.2c0-.2-.1-.3-.2-.4h-.4c-3.6.5-6.4-2.6-6.4-2.6,0,0-.3-.2-.5-.2s-.3,0-.4.2c-1.5,1.9-3.8,2.8-6.1,2.6-.3,0-.6.2-.7.5,0,0-1.4,8,4.6,12.4.4.3.9.6,1.4.9.4.2.8.4,1.2.6h.3c3-1,5.3-3.3,6.4-6.3.3-.9.6-1.8.7-2.8.3-1.7.3-3.2.1-4.8h0ZM126.6,125c-.4,1-.9,2-1.6,2.9s-1.5,1.6-2.4,2.1c-.5.3-1,.5-1.5.6-.5-.2-.9-.4-1.3-.7-5.5-3.3-5.2-9.4-5-11.3,2.3,0,4.6-.8,6.2-2.5,1.7,1.7,4,2.6,6.3,2.6.2,2.2,0,4.3-.7,6.3h0Z"/>
      <path class="cls-27" d="M126.6,125c-.4,1-.9,2-1.6,2.9s-1.5,1.6-2.4,2.1c-.5.3-1,.5-1.5.6-.5-.2-.9-.4-1.3-.7-5.5-3.3-5.2-9.4-5-11.3,2.3,0,4.6-.8,6.2-2.5,1.7,1.7,4,2.6,6.3,2.6.2,2.3,0,4.4-.7,6.3Z"/>
      <polygon class="cls-32" points="120.4 125.5 118.5 123.6 119.4 122.7 120.4 123.8 122.9 121.3 123.7 122.2 120.4 125.5"/>
    </g>
  </g>
  <g>
    <g class="cls-68">
      <g>
        <path class="cls-61" d="M178.9,125.9h-24.6c-.5,0-1-.4-1-1v-18.9c0-.5.4-1,1-1h24.6c.5,0,1,.4,1,1v18.9c0,.5-.4,1-1,1Z"/>
        <path class="cls-3" d="M173.7,106.9c0,.3-.3.6-.6.6s-.6-.3-.6-.6.3-.6.6-.6.6.3.6.6"/>
        <path class="cls-3" d="M175.9,106.9c0,.3-.3.6-.6.6s-.6-.3-.6-.6.3-.6.6-.6.6.3.6.6"/>
        <path class="cls-3" d="M178.1,106.9c0,.3-.3.6-.6.6s-.6-.3-.6-.6.3-.6.6-.6.6.3.6.6"/>
      </g>
      <line class="cls-61" x1="153.4" y1="108.7" x2="179.8" y2="108.7"/>
    </g>
    <path class="cls-59" d="M162.5,119.7l-2-1.4-1.5-1.1c-.2,0-.2-.5,0-.7l1.5-1.1,2-1.4"/>
    <path class="cls-59" d="M170.6,119.7l2-1.4,1.5-1.1c.2,0,.2-.5,0-.7l-1.5-1.1-2-1.4"/>
    <line class="cls-59" x1="167.8" y1="112.5" x2="165.1" y2="121.7"/>
    <g class="cls-68">
      <path class="cls-54" d="M176.6,119.9l-.5.5c-.1,0-.1.2-.1.3l.4,1.2v.4c-.1,0-.2.2-.3.2l-1.1.5c-.1,0-.2.2-.2.3v.8s.1.2.2.3l1.2.6v.3c0,0,.1,0,.1.2l-.3,1.1s0,.3.1.4l.5.5h.4l1-.4h.4c.1,0,.1.2.2.3l.5,1c.1.1.2.2.3.2h.9c.2,0,.3-.1.3-.2l.4-.9s.1-.2.2-.2h.4l1,.4h.4l.6-.6c.1,0,.2-.3.1-.4l-.4-.9v-.3h0c0-.2.1-.3.2-.3l1-.4c.2,0,.3-.2.3-.4v-.8c0-.2-.1-.3-.3-.4l-.9-.4c-.1,0-.2,0-.2-.2h-.1v-.4l.4-1s0-.3-.1-.3l-.6-.6c-.1,0-.3-.2-.5,0l-.9.4h-.4c-.1,0-.2-.2-.2-.3l-.5-1c-.1,0-.2-.2-.3-.2h-1c-.1,0-.2,0-.3.2l-.5,1s-.1.2-.2.2h-.4l-1.1-.4c.1-.4,0-.4,0-.3"/>
      <circle class="cls-55" cx="179.9" cy="123.9" r="1.9"/>
    </g>
    <g>
      <g>
        <g>
          <path class="cls-61" d="M178.9,125.9h-24.6c-.5,0-1-.4-1-1v-18.9c0-.5.4-1,1-1h24.6c.5,0,1,.4,1,1v18.9c0,.5-.5,1-1,1Z"/>
          <path class="cls-3" d="M173.6,106.9c0,.3-.3.6-.6.6s-.6-.3-.6-.6.3-.6.6-.6.6.3.6.6"/>
          <path class="cls-3" d="M175.8,106.9c0,.3-.3.6-.6.6s-.6-.3-.6-.6.3-.6.6-.6.6.3.6.6"/>
          <path class="cls-3" d="M178,106.9c0,.3-.3.6-.6.6s-.6-.3-.6-.6.3-.6.6-.6.6.3.6.6"/>
        </g>
        <line class="cls-61" x1="153.3" y1="108.7" x2="179.7" y2="108.7"/>
      </g>
      <path class="cls-51" d="M162.5,119.7l-2-1.4-1.5-1.1c-.2,0-.2-.5,0-.7l1.5-1.1,2-1.4"/>
      <path class="cls-51" d="M170.6,119.7l2-1.4,1.5-1.1c.2,0,.2-.5,0-.7l-1.5-1.1-2-1.4"/>
      <line class="cls-51" x1="167.8" y1="112.5" x2="165" y2="121.7"/>
      <g>
        <path class="cls-48" d="M176.5,119.9l-.5.5c-.1,0-.1.2-.1.3l.4,1.2v.4c-.1,0-.2.2-.3.2l-1.1.5c-.1,0-.2.2-.2.3v.8s.1.2.2.3l1.2.6v.3c0,0,.1,0,.1.2l-.3,1.1s0,.3.1.4l.5.5h.4l1-.4h.4c.1,0,.1.2.2.3l.5,1c.1.1.2.2.3.2h.9c.2,0,.3-.1.3-.2l.4-.9s.1-.2.2-.2h.4l1,.4h.4l.6-.6c.1,0,.2-.3.1-.4l-.4-.9v-.3h0c0-.2.1-.3.2-.3l1-.4c.2,0,.3-.2.3-.4v-.8c0-.2-.1-.3-.3-.4l-.9-.4c-.1,0-.2,0-.2-.2h-.1v-.4l.4-1s0-.3-.1-.3l-.6-.6c-.1,0-.3-.2-.5,0l-.9.4h-.4c-.1,0-.2-.2-.2-.3l-.5-1c-.1,0-.2-.2-.3-.2h-1c-.1,0-.2,0-.3.2l-.5,1s-.1.2-.2.2h-.4l-1.1-.4c.1-.4,0-.4,0-.3"/>
        <circle class="cls-45" cx="179.8" cy="123.9" r="1.9"/>
      </g>
    </g>
  </g>
  <g id="Layer_1-2-2-2" data-name="Layer 1-2-2">
    <path class="cls-61" d="M230.1,103.6v.2h0v11.4c0,7.2-5.3,13.5-12.9,15.4h-.3c-3.5-.8-6.6-2.6-9.1-5.1-.4-.4-.7-.8-1.1-1.2h.1c-2.2-2.8-3.5-6.3-3.5-9.8v-10.8c8.2-5,18.5-5,26.8,0h0Z"/>
    <polyline class="cls-57" points="212.5 110.8 220.3 110.8 212.8 118.4 220.5 118.4"/>
  </g>
  <g id="Layer_1-2-3-2" data-name="Layer 1-2-3">
    <path class="cls-1" d="M278.7,122.8h-24.3c-1.5,0-2.7-1.2-2.7-2.8v-15.6c0-1.5,1.2-2.8,2.7-2.8h24.3c1.5,0,2.7,1.2,2.7,2.8v15.6c0,1.5-1.2,2.8-2.7,2.8h0ZM254.3,102.6c-.9,0-1.7.8-1.7,1.8v15.6c0,1,.8,1.8,1.7,1.8h24.3c.9,0,1.7-.8,1.7-1.8v-15.6c0-1-.8-1.8-1.7-1.8h-24.3Z"/>
    <path class="cls-1" d="M280.9,106.7h-28.8c-.3,0-.5-.2-.5-.5s.2-.5.5-.5h28.8c.3,0,.5.2.5.5s-.2.5-.5.5Z"/>
    <path class="cls-1" d="M280.9,111h-28.8c-.3,0-.5-.2-.5-.5s.2-.5.5-.5h28.8c.3,0,.5.2.5.5s-.2.5-.5.5Z"/>
    <ellipse class="cls-36" cx="280.6" cy="120.5" rx="5.2" ry="5.4"/>
    <path class="cls-17" d="M280.6,126.4c-3.2,0-5.8-2.7-5.8-5.9s2.6-5.9,5.8-5.9,5.8,2.7,5.8,5.9-2.6,5.9-5.8,5.9ZM280.6,115.6c-2.6,0-4.7,2.2-4.7,4.8s2.1,4.8,4.7,4.8,4.7-2.2,4.7-4.8-2.1-4.8-4.7-4.8Z"/>
    <polyline class="cls-36" points="278.4 120.1 280.1 121.8 282.8 119.1"/>
    <polygon class="cls-17" points="280 122.6 278.1 120.5 278.8 119.7 280.1 121.1 282.5 118.7 283.2 119.5 280 122.6"/>
    <path class="cls-36" d="M257.9,114.9h2.7c.4,0,.8.4.8.8v2c0,.4-.3.8-.8.8h-2.7c-.4,0-.8-.4-.8-.8v-2c0-.4.4-.8.8-.8Z"/>
    <path class="cls-17" d="M260.6,119.1h-2.7c-.7,0-1.3-.6-1.3-1.3v-2.1c0-.7.6-1.3,1.3-1.3h2.7c.7,0,1.3.6,1.3,1.3v2.1c-.1.7-.6,1.3-1.3,1.3ZM257.9,115.4c-.2,0-.3,0-.3.3v2.1c0,.2.1.3.3.3h2.7c.2,0,.3,0,.3-.3v-2.1c0-.2-.1-.3-.3-.3h-2.7Z"/>
  </g>
  <g>
    <g>
      <path class="cls-35" d="M316.7,109.5c2.4-1.4,5.4-1.4,7.9,0v3.5c0,1.5-.7,3-1.9,3.8l-1.8,1.3h-.5l-1.8-1.4c-1.3-1-1.9-2.3-1.9-3.8v-3.4h0Z"/>
      <path class="cls-9" d="M320.7,118.7c-.2,0-.4,0-.6-.2l-1.7-1.3c-1.4-1.1-2.1-2.5-2.1-4.2v-3.7h.2c2.6-1.5,5.8-1.5,8.4,0h.2v3.9c0,1.7-.8,3.4-2.1,4.2l-1.7,1.2c-.3.2-.5.2-.6.2h0ZM317.1,109.8v3.2c0,1.4.6,2.6,1.7,3.5l1.8,1.4,1.8-1.3c1.1-.7,1.7-2,1.7-3.5v-3.3c-2.1-1.1-4.8-1.1-7,0Z"/>
    </g>
    <g>
      <g>
        <path class="cls-18" d="M319.5,104c-.2,0-.5-.2-.5-.5v-6c0-.2.2-.5.5-.5s.5.2.5.5v6.1c-.1.2-.2.4-.5.4Z"/>
        <path class="cls-18" d="M321.8,104.2c-.2,0-.5-.2-.5-.5v-6.1c0-.2.2-.5.5-.5s.5.2.5.5v6.1c0,.3-.3.5-.5.5Z"/>
      </g>
      <g>
        <path class="cls-18" d="M329.2,109.1c-.2,0-.3,0-.4-.2s0-.5.2-.6l5.4-2.6c.2,0,.5,0,.6.2s0,.5-.2.6l-5.4,2.6h-.2Z"/>
        <path class="cls-18" d="M330,111.2c-.2,0-.3,0-.4-.2s0-.5.2-.6l5.5-2.6c.2,0,.5,0,.6.2s0,.5-.2.6l-5.4,2.6h-.3Z"/>
      </g>
      <g>
        <path class="cls-18" d="M327.9,120.1h-.3c-.2-.2-.2-.4-.1-.7,1.4-1.7,2.2-4,2.2-5.9s-.1-1.4-.2-2.2c-.1-.2.1-.5.4-.5s.5,0,.5.4c.2.8.3,1.6.3,2.4,0,2.2-.9,4.6-2.4,6.5,0,0-.2,0-.4,0Z"/>
        <path class="cls-18" d="M329.1,109.3c-.2,0-.3,0-.4-.2-1.4-2.6-4-4.4-6.9-4.8-.2,0-.4-.2-.4-.5.1-.2.2-.4.5-.4,3.2.4,6,2.4,7.6,5.3.1.2.1.5-.2.6h-.2Z"/>
        <path class="cls-18" d="M312.2,109.2c0,0-.1,0-.2,0-.2,0-.3-.4-.2-.6,1.6-2.9,4.4-4.8,7.6-5.2.2,0,.5,0,.5.4s-.1.5-.4.5c-2.9.4-5.6,2.1-7,4.7,0,.2-.1.3-.3.3h0Z"/>
        <path class="cls-18" d="M309,124.3h-.3c-.2-.2-.2-.5,0-.7l4.1-3.9c-1.4-1.8-2.1-4-2.1-6.2s.1-1.7.3-2.5c.1-.2.3-.4.5-.3s.4.3.3.5c-.2.7-.3,1.5-.3,2.3,0,2.2.8,4.3,2.1,5.9h.1c.1.3.1.5-.1.7l-4.4,4.2h-.2Z"/>
        <path class="cls-18" d="M310.5,126h-.3c-.2-.2-.2-.5,0-.7l4.5-4.4c.2-.2.4-.2.6,0,1.6,1.1,3.4,1.7,5.3,1.7s3.9-.6,5.4-1.7h.6c.1,0,.1.5-.1.6-1.7,1.3-3.7,1.9-5.9,1.9s-3.9-.6-5.6-1.7l-4.2,4.1s-.2.2-.3.2Z"/>
      </g>
      <g>
        <path class="cls-18" d="M308.9,124.4c-.1,0-.2,0-.4-.2h-.1c-2.6-3.1-4.1-6.9-4.1-10.9s.3-3.5.8-5.3c.1-.2.4-.4.6-.3s.4.4.3.6c-.5,1.6-.8,3.2-.8,5,0,3.7,1.3,7.3,3.7,10,.1,0,.2,0,.3.2.2.2.1.5-.1.7h-.1c.1.2,0,.2,0,.2h0Z"/>
        <path class="cls-18" d="M306.8,106.3c0,0-.1,0-.2,0-.2,0-.3-.4-.2-.6,2.7-5,7.6-8.2,13.2-8.6.2,0,.5.2.5.4s-.2.5-.4.5c-5.3.4-10,3.4-12.5,8.1,0,.2-.3.3-.4.3h0Z"/>
        <path class="cls-18" d="M334.7,106.5c-.2,0-.3,0-.4-.2-2.4-4.7-7.3-7.9-12.6-8.3-.2,0-.4-.2-.4-.5s.2-.4.5-.4c5.6.4,10.7,3.7,13.3,8.8.1.2,0,.5-.2.6h-.2,0Z"/>
        <path class="cls-18" d="M332.4,124.4h-.3l-4.4-4.3c-.2-.2-.2-.5,0-.7s.5-.2.7,0l4.1,3.9c2.3-2.8,3.6-6.3,3.6-9.9s-.3-3.4-.8-5c-.1-.2.1-.5.3-.6.2,0,.5,0,.6.3.6,1.7.8,3.4.8,5.2,0,4-1.4,7.8-4,10.7h-.1c-.2.4-.4.5-.5.5h0Z"/>
        <path class="cls-18" d="M320.7,129.7c-3.8,0-7.5-1.3-10.4-3.8-.2-.2-.2-.4-.1-.7.2-.2.4-.2.7,0,2.7,2.3,6.3,3.6,9.8,3.6s7.1-1.3,9.8-3.6c.2-.2.5,0,.7,0s.1.5-.1.7c-2.9,2.4-6.6,3.8-10.4,3.8Z"/>
        <path class="cls-18" d="M330.7,125.9h-.3l-4.4-4.3c-.2-.2-.2-.5,0-.7s.5-.2.7,0l4.4,4.3c.2.2.2.5,0,.7h-.4Z"/>
      </g>
      <g>
        <path class="cls-18" d="M312,109.1h-.2l-5.4-2.6c-.2,0-.3-.4-.2-.6.1-.2.4-.3.6-.2l5.4,2.6c.2,0,.3.4.2.6,0,.2-.2.3-.4.3h0Z"/>
        <path class="cls-18" d="M311.2,111.2c0,0-.1,0-.2,0l-5.5-2.6c-.2,0-.3-.4-.2-.6.1-.2.4-.3.6-.2l5.5,2.6c.2,0,.3.4.2.6s-.2.3-.4.3h0Z"/>
      </g>
    </g>
  </g>
  <g id="Layer_1-2-4-2" data-name="Layer 1-2-4">
    <path class="cls-1" d="M368.9,121.5c-.1,0-.3,0-.4-.2l-1.3-1.4h-5.5c-.1,0-.3,0-.4-.2l-1.4-1.5c-.1,0-.2-.2-.1-.4v-.9h-1.1c-.2,0-.3,0-.4-.2l-1.3-1.6c-.1,0-.1-.2-.1-.3v-.9h-2.9l-1.9-.8c-.2,0-.3-.3-.3-.5v-1.5c.1-.2.2-.3.3-.4l2.1-1.5h4.3v-.2c0-.3.2-.5.5-.5h1.9l2.1.7h5.2l2.8,1.5h3.1l1.8.6c.2,0,.4.3.4.5v.4l6.4,2.1c.1,0,.2,0,.3.2l1.9,3.2c.1,0,.1.3,0,.5s-.2.3-.4.3l-1.7.4h-3.9l-1.4-1.1-2-.2-1.2,1.9c-.1,0-.3.2-.4.2h-1.4c-.1,0-.3,0-.4-.2l-.6-.6h-.3l-1.1,1.9c-.1,0-.2.2-.4.3l-.9.2c.1.1.1.2,0,.2h0ZM362,119h5.5c.1,0,.3,0,.4.2l1.3,1.3h.4l1.1-2.1c.1-.2.2-.3.4-.3h1.2l.6.6h.9l1.3-1.9c.1-.2.3-.2.5-.2l2.5.3h.3l1.4,1.1h3.2l.9-.3-1.5-2.5-6.6-2.2c-.2,0-.4-.3-.4-.5v-.4l-1.3-.4h-3.2l-2.8-1.5h-5.2l-2.1-.7h-1.1v.2c0,.3-.2.5-.5.5h-4.4l-1.8,1.2v.8l1.5.6h3.1c.3,0,.5.2.5.5v1.2l1,1.2h1.4c.1,0,.3,0,.4.2s.2.2.1.4v1.2l1,1.4h0Z"/>
    <path class="cls-28" d="M363,104.6v9.1c0,.4.3.6.6.6h15.1c.4,0,.6-.3.6-.6v-10.8c0-.4-.3-.6-.6-.6h-4.3l-1.9,1.6h-8.9c-.3,0-.6.3-.6.7h0Z"/>
    <path class="cls-8" d="M378.7,114.9h-15.1c-.6,0-1.2-.5-1.2-1.2v-9.1c0-.6.5-1.2,1.2-1.2h8.7l1.9-1.6h4.5c.6,0,1.2.5,1.2,1.2v10.8c0,.5-.5,1.1-1.2,1.1h0ZM363.6,104.4h-.1v9.1h15.3v-10.8h-4.2l-1.9,1.6c0,0-9.1,0-9.1.1Z"/>
    <polygon class="cls-32" points="370.2 110.9 368.3 108.9 369 108.2 370.2 109.5 372.5 107.2 373.2 108 370.2 110.9"/>
  </g>
  <g>
    <ellipse class="cls-50" cx="419.5" cy="117.5" rx="9.4" ry="9.9"/>
    <ellipse class="cls-50" cx="419.5" cy="114.8" rx="3.1" ry="3.3"/>
    <path class="cls-50" d="M412.9,124.6c.9-2.9,3.5-5,6.6-5s5.7,2.2,6.6,5.1"/>
    <path class="cls-65" d="M419.8,98.8l.7,2.2h2.2c.3,0,.5.5.2.6l-1.7,1.3.7,2.2c.1.4-.2.6-.6.4l-1.7-1.3-1.7,1.3c-.2.2-.6,0-.6-.4l.7-2.2-1.9-1.2c-.2-.2-.1-.6.2-.6h2.1l.7-2.2c.2-.3.6-.3.7,0h0Z"/>
    <path class="cls-65" d="M432.3,105l.7,2.2h2.2c.3,0,.5.5.2.6l-1.9,1.3.7,2.2c.1.4-.2.6-.6.4l-1.7-1.3-1.7,1.3c-.2.2-.6,0-.6-.4l.7-2.2-1.7-1.3c-.2-.2-.1-.6.2-.6h2.2l.7-2.2c0-.4.4-.4.6,0h0Z"/>
    <path class="cls-65" d="M407.4,105l.7,2.2h2.2c.3,0,.5.5.2.6l-1.7,1.3.7,2.2c.1.4-.2.6-.6.4l-1.7-1.3-1.7,1.3c-.2.2-.6,0-.6-.4l.7-2.2-1.9-1.3c-.2-.2-.1-.6.2-.6h2.2l.7-2.2c0-.4.5-.4.6,0h0Z"/>
  </g>
  <g>
    <polygon class="cls-62" points="454.4 107.3 456.9 105.5 456.9 118.7 465.8 124.9 465.8 128.2 454.4 120.1 454.4 107.3"/>
    <polygon class="cls-62" points="477.2 107.3 474.9 105.5 474.9 118.7 465.8 124.9 465.8 128.2 477.2 120.1 477.2 107.3"/>
    <polyline class="cls-62" points="456.9 105.5 465.8 112.5 474.9 105.5"/>
    <line class="cls-62" x1="465.8" y1="112.5" x2="465.8" y2="124.9"/>
    <rect class="cls-65" x="462.7" y="100.3" width="6.6" height="6.6"/>
    <path class="cls-60" d="M468.2,100.3h-4.2v-2.9c0-1.1,1-2.1,2.1-2.1h0c1.1,0,2.1,1,2.1,2.1v2.9Z"/>
  </g>
  <g id="Layer_1-2-2" data-name="Layer 1-2">
    <g>
      <path class="cls-46" d="M27.3,172.8c.8-.5,1.6-1.1,2.3-1.9,2.2-2.7,2.3-5.5,2.3-5.5v-16.4l-12.2-3.8-12.2,3.8v16.4s0,1.6,1,3.5c.9,1.8,2.3,3.2,4,4.2l7.6,4.4,7.3-4.6h0Z"/>
      <path class="cls-44" d="M24.9,169.3l8.1-11.2c.8-1.2,0-2.8-1.4-2.8H7.8c-1.5,0-2.3,1.6-1.4,2.8l8.2,11.2"/>
      <circle class="cls-47" cx="20" cy="172.4" r="5.9"/>
      <line class="cls-46" x1="7.4" y1="157.3" x2="7.4" y2="153.2"/>
      <line class="cls-46" x1="31.9" y1="157.3" x2="31.9" y2="153.2"/>
    </g>
  </g>
</svg>