<?xml version="1.0" encoding="UTF-8"?><svg id="Layer_2" xmlns="http://www.w3.org/2000/svg" viewBox="0 0 1352.85 1267.09"><defs><style>.cls-1{fill:#fff;}</style></defs><g id="Layer_1-2"><g id="vK4enL"><path class="cls-1" d="m4.82.17C6.65.11,8.48,0,10.3,0,140.41,0,270.52,0,400.63.01c1.65,0,3.29.21,4.94.32.24.2.48.41.72.61,18.67,24.87,37.37,49.73,56.01,74.63,40.68,54.34,81.38,108.67,121.99,163.06,25.56,34.23,50.93,68.61,76.5,102.84,20.9,27.97,41.98,55.79,62.98,83.69,7.1,9.44,14.31,18.8,21.2,28.39,2.51,3.49,3.99,3.76,7.05.43,32.8-35.63,65.75-71.13,98.66-106.66,30.97-33.45,61.94-66.91,92.9-100.37,64.04-69.23,128.08-138.47,192.13-207.7,11.3-12.21,22.6-24.42,34.05-36.49,1.32-1.39,3.59-2.64,5.43-2.64,37.98-.1,75.96-.02,113.93.03.07.37.13.74.2,1.11-10.55,11.51-21.05,23.07-31.64,34.53-37.14,40.18-74.31,80.33-111.48,120.49-51.32,55.44-102.65,110.87-153.97,166.32-62.06,67.05-124.12,134.11-186.16,201.19-1.46,1.58-2.72,3.35-4.43,5.47,183.21,244.95,366.95,490.59,551.22,736.96-2.32.14-3.85.32-5.39.32-130.93.02-261.87.02-392.8,0-1.45,0-2.91-.34-4.36-.52-.25-.23-.49-.46-.74-.7-14.89-19.8-29.83-39.56-44.67-59.4-45.32-60.56-90.61-121.15-135.91-181.73-38.64-51.67-77.26-103.35-115.9-155.02-24.29-32.49-48.6-64.96-72.9-97.45-.4-.53-.78-1.07-1.54-2.12-4.28,4.54-8.24,8.68-12.13,12.88-39.8,42.99-79.59,85.98-119.37,128.99-40.34,43.61-80.64,87.25-121.01,130.83-35.03,37.82-70.14,75.56-105.18,113.36-33.23,35.85-66.44,71.72-99.53,107.7-2.31,2.51-4.58,3.19-7.76,3.19-37.65-.06-75.29-.02-112.94,0l-.11-.22c5.83-6.58,11.53-13.26,17.5-19.71,39.64-42.87,79.34-85.69,119.02-128.52,44.87-48.43,89.76-96.83,134.6-145.28,53.35-57.63,106.64-115.31,159.99-172.94,29.84-32.24,59.67-64.51,89.71-96.56,3.62-3.87,3.01-6.23.17-10.01-50.93-67.86-101.74-135.81-152.56-203.75-38.06-50.87-76.09-101.76-114.17-152.61-24.49-32.7-49.09-65.32-73.54-98.05-35.7-47.76-71.31-95.6-106.98-143.39C52.1,65.69,29.8,35.91,7.53,6.11c-.99-1.32-1.86-2.73-2.79-4.1.03-.61.06-1.23.08-1.84Zm1172.64,1178.08c-.6-.98-1.12-2.01-1.8-2.92-11.39-15.12-22.88-30.18-34.21-45.36-27.34-36.62-54.56-73.33-81.91-109.94-44.17-59.12-88.4-118.2-132.6-177.3-59.34-79.34-118.67-158.69-178.02-238.02-70.04-93.63-140.12-187.23-210.15-280.86-51.68-69.1-103.31-138.24-155-207.34-7.26-9.7-14.72-19.24-22.09-28.85-1.76-.26-3.52-.75-5.28-.75-57.33-.03-114.66-.03-171.99.01-1.61,0-3.21.42-4.82.64l-1.01.25c-.22.1-.43.2-.65.31.19.28.39.55.58.83,15.12,20.21,30.25,40.42,45.37,60.64,75.6,101.03,151.2,202.07,226.8,303.1,23.79,31.79,47.59,63.58,71.37,95.37,32.66,43.66,65.33,87.31,97.95,131,60.28,80.75,120.5,161.55,180.8,242.29,20.3,27.17,40.86,54.14,61.19,81.29,43.16,57.64,86.26,115.33,129.32,173.06,1.99,2.67,4.12,3.66,7.46,3.64,21.15-.16,42.31-.06,63.47-.08,37.98-.03,75.96-.08,113.93-.12.43-.3.85-.59,1.28-.89Z"/><path class="cls-1" d="m4.82.17c-.03.61-.06,1.23-.08,1.84-.35-.46-.7-.93-1.04-1.39.38-.15.75-.3,1.13-.45Z"/><path class="cls-1" d="m406.29.95c-.24-.2-.48-.41-.72-.61.24.2.48.41.72.61Z"/><path class="cls-1" d="m1289.31,1.25c-.07-.37-.13-.74-.2-1.11.28.05.55.09.83.14-.21.32-.42.65-.62.97Z"/><path class="cls-1" d="m949.56,1265.3c.25.23.49.46.74.7-.25-.23-.49-.46-.74-.7Z"/><path class="cls-1" d="m.73,1266.53c-.15.19-.29.37-.44.56-.1-.11-.2-.22-.3-.33.21-.15.42-.29.62-.44,0,0,.11.22.11.22Z"/><path class="cls-1" d="m361.68,87.66c-.99.08-1.98.23-2.97.23-58.39.01-116.77.01-175.16,0-1.32,0-2.63-.21-3.95-.32,1.61-.22,3.21-.64,4.82-.64,57.33-.04,114.66-.05,171.99-.01,1.76,0,3.52.49,5.28.75Z"/><path class="cls-1" d="m1176.18,1179.14c.43-.3.85-.59,1.28-.89-.43.3-.85.59-1.28.89Z"/><path class="cls-1" d="m178.59,87.82c-.02.38-.04.76-.07,1.14-.19-.28-.39-.55-.58-.83.22-.1.43-.2.65-.31Z"/></g></g></svg>